<svg width="905" height="412" viewBox="0 0 905 412" fill="none" xmlns="http://www.w3.org/2000/svg">
<g clip-path="url(#clip0_595_7785)">
<rect y="-1" width="905" height="414" fill="#C7E9FA"/>
<mask id="mask0_595_7785" style="mask-type:alpha" maskUnits="userSpaceOnUse" x="0" y="279" width="905" height="110">
<rect y="279" width="905" height="110" fill="#D9D9D9"/>
</mask>
<g mask="url(#mask0_595_7785)">
<mask id="mask1_595_7785" style="mask-type:alpha" maskUnits="userSpaceOnUse" x="-2773" y="258" width="4480" height="131">
<rect x="-2773" y="258" width="4480" height="131" fill="#D9D9D9"/>
</mask>
<g mask="url(#mask1_595_7785)">
<path d="M-2943.4 308.445L-2498.49 277.202C-2354.23 267.071 -2209.27 275.151 -2067.03 301.251C-1909.05 330.238 -1747.79 336.983 -1587.94 321.291L-1435.06 306.283C-1310.81 294.085 -1185.68 293.548 -1061.33 304.681L-784.238 329.487C-669.335 339.773 -553.759 340.099 -438.8 330.46L-85.7612 300.859C16.7632 292.263 119.799 291.59 222.427 298.848L911.82 347.6C1009.22 354.487 1107 354.233 1204.36 346.839L1709.89 308.445L1709.89 388.445L-2943.4 388.445L-2943.4 308.445Z" fill="#5B9B40"/>
<path d="M-33.7579 286.589C-31.3556 290.406 -31.7457 296.744 -32.241 299.436L15.5729 297.47C14.6613 294.897 16.3071 290.049 17.244 287.947C14.7364 288.05 12.7846 291.17 12.1222 292.717L10.2772 287.082L8.73637 290.553C8.45576 288.721 6.59505 287.601 5.69976 287.27C5.78135 289.11 4.77456 291.883 4.26096 293.04L1.57068 284.081C1.45495 285.967 0.196387 289.432 -0.418432 290.929C-1.20699 290.232 -2.35095 287.441 -2.82435 286.133C-2.91487 286.789 -4.15013 290.331 -4.75644 292.019C-5.31469 291.121 -5.74675 288.797 -5.89301 287.747C-6.54927 288.234 -8.22225 292.545 -8.97671 294.64C-9.01411 293.797 -11.8472 288.36 -13.2591 285.746C-12.3462 291.045 -13.971 294.046 -14.8975 294.883C-14.9298 294.155 -16.2044 290.89 -16.8377 289.349C-16.9501 291.311 -18.2446 293.965 -18.8778 295.047C-20.7652 292.053 -21.1261 287.813 -21.0706 286.067C-22.8894 288.215 -23.8221 291.459 -24.0611 292.813C-24.6786 292.377 -25.208 290.556 -25.3955 289.7L-27.0873 295.385C-27.3641 290.943 -31.6497 287.67 -33.7579 286.589Z" fill="#5B9B40"/>
<path d="M889.059 335.488C890.719 339.655 889.167 345.826 888.183 348.39L935.601 354.626C935.178 351.938 937.691 347.449 939.001 345.54C936.514 345.213 934.018 347.95 933.081 349.359L932.304 343.498L930.148 346.65C930.209 344.8 928.584 343.38 927.764 342.901C927.506 344.725 926.004 347.283 925.285 348.334L924.289 339.057C923.827 340.893 921.95 344.088 921.069 345.456C920.421 344.636 919.81 341.694 919.585 340.325C919.375 340.956 917.507 344.23 916.599 345.788C916.215 344.808 916.218 342.447 916.268 341.389C915.532 341.757 913.091 345.714 911.962 347.646C912.081 346.81 910.295 340.975 909.387 338.162C909.309 343.532 907.157 346.208 906.091 346.874C906.193 346.152 905.541 342.721 905.202 341.095C904.729 343.008 902.966 345.399 902.143 346.355C900.838 343.086 901.264 338.852 901.641 337.143C899.455 338.946 897.939 341.979 897.454 343.27C896.927 342.736 896.742 340.854 896.715 339.979L894.002 345.284C894.548 340.866 890.934 336.913 889.059 335.488Z" fill="#5B9B40"/>
<path d="M843.358 331.488C845.018 335.655 843.466 341.826 842.482 344.39L889.899 350.626C889.477 347.938 891.99 343.449 893.299 341.54C890.813 341.213 888.317 343.95 887.38 345.359L886.603 339.498L884.447 342.65C884.508 340.8 882.883 339.38 882.063 338.901C881.804 340.725 880.302 343.283 879.584 344.334L878.588 335.057C878.126 336.893 876.249 340.088 875.368 341.456C874.72 340.636 874.109 337.694 873.884 336.325C873.674 336.956 871.806 340.23 870.898 341.788C870.514 340.808 870.517 338.447 870.567 337.389C869.831 337.757 867.39 341.714 866.261 343.646C866.38 342.81 864.594 336.975 863.686 334.162C863.608 339.532 861.456 342.208 860.39 342.874C860.492 342.152 859.839 338.721 859.5 337.095C859.028 339.008 857.265 341.399 856.442 342.355C855.137 339.086 855.563 334.852 855.94 333.143C853.754 334.946 852.238 337.979 851.753 339.27C851.226 338.736 851.04 336.854 851.014 335.979L848.301 341.284C848.847 336.866 845.233 332.913 843.358 331.488Z" fill="#5B9B40"/>
<path d="M796.617 327.488C798.278 331.655 796.726 337.826 795.742 340.39L843.159 346.626C842.736 343.938 845.25 339.449 846.559 337.54C844.072 337.213 841.576 339.95 840.639 341.359L839.862 335.498L837.706 338.65C837.768 336.8 836.143 335.38 835.323 334.901C835.064 336.725 833.562 339.283 832.843 340.334L831.847 331.057C831.386 332.893 829.508 336.088 828.627 337.456C827.98 336.636 827.369 333.694 827.144 332.325C826.934 332.956 825.065 336.23 824.157 337.788C823.774 336.808 823.777 334.447 823.826 333.389C823.091 333.757 820.65 337.714 819.521 339.646C819.64 338.81 817.854 332.975 816.946 330.162C816.868 335.532 814.716 338.208 813.649 338.874C813.752 338.152 813.099 334.721 812.76 333.095C812.288 335.008 810.525 337.399 809.702 338.355C808.396 335.086 808.823 330.852 809.199 329.143C807.014 330.946 805.498 333.979 805.013 335.27C804.485 334.736 804.3 332.854 804.273 331.979L801.561 337.284C802.107 332.866 798.493 328.913 796.617 327.488Z" fill="#5B9B40"/>
<path d="M748.839 324.488C750.5 328.655 748.947 334.826 747.964 337.39L795.381 343.626C794.958 340.938 797.471 336.449 798.781 334.54C796.294 334.213 793.798 336.95 792.861 338.359L792.084 332.498L789.928 335.65C789.989 333.8 788.365 332.38 787.545 331.901C787.286 333.725 785.784 336.283 785.065 337.334L784.069 328.057C783.608 329.893 781.73 333.088 780.849 334.456C780.202 333.636 779.59 330.694 779.366 329.325C779.155 329.956 777.287 333.23 776.379 334.788C775.995 333.808 775.999 331.447 776.048 330.389C775.312 330.757 772.871 334.714 771.743 336.646C771.861 335.81 770.075 329.975 769.168 327.162C769.089 332.532 766.937 335.208 765.871 335.874C765.973 335.152 765.321 331.721 764.982 330.095C764.51 332.008 762.746 334.399 761.924 335.355C760.618 332.086 761.045 327.852 761.421 326.143C759.235 327.946 757.719 330.979 757.235 332.27C756.707 331.736 756.522 329.854 756.495 328.979L753.782 334.284C754.329 329.866 750.714 325.913 748.839 324.488Z" fill="#5B9B40"/>
<path d="M700.289 323.679C702.339 327.682 701.381 333.963 700.645 336.604L748.457 338.628C747.78 335.989 749.855 331.297 750.977 329.281C748.47 329.175 746.245 332.12 745.446 333.606L744.114 327.838L742.267 331.168C742.153 329.32 740.399 328.049 739.537 327.645C739.453 329.484 738.201 332.163 737.585 333.273L735.71 324.123C735.426 325.992 733.86 329.34 733.113 330.78C732.39 330.02 731.501 327.144 731.147 325.801C730.998 326.448 729.449 329.873 728.693 331.505C728.218 330.563 727.996 328.212 727.945 327.154C727.247 327.585 725.193 331.74 724.253 333.764C724.292 332.921 721.958 327.268 720.786 324.547C721.22 329.902 719.331 332.756 718.333 333.513C718.366 332.785 717.39 329.426 716.897 327.838C716.609 329.783 715.081 332.32 714.353 333.345C712.742 330.205 712.763 325.951 712.975 324.216C710.97 326.204 709.75 329.359 709.39 330.687C708.814 330.202 708.45 328.344 708.34 327.475L706.144 332.997C706.267 328.549 702.292 324.931 700.289 323.679Z" fill="#5B9B40"/>
<path d="M653.1 322.497C655.151 326.5 654.192 332.782 653.457 335.422L701.268 337.447C700.591 334.807 702.667 330.115 703.789 328.099C701.281 327.993 699.057 330.938 698.258 332.424L696.926 326.657L695.079 329.986C694.964 328.138 693.211 326.867 692.349 326.463C692.265 328.302 691.012 330.981 690.397 332.091L688.522 322.941C688.237 324.811 686.672 328.158 685.925 329.598C685.202 328.838 684.313 325.963 683.959 324.62C683.81 325.266 682.261 328.691 681.505 330.323C681.03 329.381 680.808 327.03 680.757 325.972C680.059 326.403 678.005 330.559 677.065 332.582C677.103 331.739 674.77 326.086 673.598 323.365C674.031 328.72 672.143 331.574 671.145 332.332C671.178 331.604 670.201 328.244 669.709 326.656C669.421 328.602 667.892 331.138 667.164 332.163C665.553 329.023 665.575 324.769 665.787 323.034C663.782 325.023 662.561 328.177 662.201 329.505C661.625 329.02 661.262 327.162 661.152 326.293L658.955 331.815C659.079 327.367 655.103 323.75 653.1 322.497Z" fill="#5B9B40"/>
<path d="M613.631 318.497C615.681 322.5 614.723 328.782 613.987 331.422L661.799 333.447C661.122 330.808 663.197 326.116 664.319 324.099C661.812 323.993 659.587 326.938 658.788 328.424L657.456 322.657L655.609 325.986C655.494 324.138 653.741 322.868 652.879 322.463C652.795 324.302 651.543 326.982 650.927 328.091L649.052 318.942C648.767 320.811 647.202 324.158 646.455 325.598C645.732 324.838 644.843 321.963 644.489 320.62C644.34 321.266 642.791 324.691 642.035 326.323C641.56 325.381 641.338 323.03 641.287 321.972C640.589 322.403 638.535 326.559 637.595 328.583C637.634 327.74 635.3 322.086 634.128 319.365C634.562 324.72 632.673 327.574 631.675 328.332C631.708 327.604 630.732 324.245 630.239 322.656C629.951 324.602 628.423 327.138 627.695 328.163C626.084 325.024 626.105 320.769 626.317 319.034C624.312 321.023 623.091 324.177 622.732 325.505C622.156 325.02 621.792 323.162 621.682 322.294L619.486 327.816C619.609 323.367 615.634 319.75 613.631 318.497Z" fill="#5B9B40"/>
<path d="M570.928 313.498C573.015 317.483 572.114 323.772 571.402 326.419L619.23 328.04C618.529 325.407 620.562 320.697 621.666 318.672C619.158 318.587 616.96 321.551 616.174 323.043L614.79 317.287L612.973 320.632C612.842 318.785 611.077 317.529 610.211 317.132C610.144 318.972 608.916 321.662 608.311 322.777L606.352 313.643C606.085 315.514 604.55 318.875 603.816 320.321C603.086 319.567 602.171 316.699 601.805 315.36C601.662 316.007 600.144 319.445 599.403 321.083C598.919 320.146 598.676 317.796 598.615 316.739C597.921 317.176 595.905 321.349 594.984 323.38C595.015 322.537 592.629 316.904 591.433 314.193C591.915 319.544 590.053 322.413 589.061 323.179C589.088 322.451 588.081 319.1 587.574 317.516C587.304 319.464 585.799 322.013 585.08 323.044C583.44 319.919 583.423 315.664 583.619 313.928C581.632 315.933 580.44 319.097 580.093 320.429C579.512 319.948 579.132 318.093 579.014 317.226L576.868 322.766C576.951 318.317 572.943 314.733 570.928 313.498Z" fill="#5B9B40"/>
<path d="M389.125 299.729C390.845 303.873 389.382 310.064 388.436 312.641L435.939 318.24C435.477 315.558 437.925 311.036 439.207 309.11C436.716 308.816 434.26 311.586 433.343 313.008L432.481 307.158L430.371 310.339C430.406 308.488 428.761 307.09 427.934 306.622C427.701 308.449 426.236 311.027 425.533 312.087L424.403 302.824C423.968 304.667 422.137 307.887 421.276 309.267C420.616 308.455 419.963 305.521 419.718 304.156C419.517 304.789 417.696 308.088 416.811 309.658C416.413 308.684 416.382 306.323 416.416 305.264C415.686 305.642 413.302 309.631 412.202 311.578C412.308 310.741 410.438 304.93 409.49 302.129C409.489 307.5 407.376 310.204 406.32 310.885C406.412 310.161 405.71 306.739 405.347 305.119C404.902 307.037 403.174 309.451 402.365 310.419C401.013 307.168 401.378 302.928 401.729 301.214C399.57 303.047 398.098 306.1 397.632 307.397C397.097 306.87 396.884 304.991 396.845 304.116L394.209 309.457C394.692 305.032 391.021 301.127 389.125 299.729Z" fill="#5B9B40"/>
<path d="M479.087 307.211C481.059 311.25 479.98 317.513 479.194 320.14L526.958 323.02C526.332 320.369 528.497 315.715 529.658 313.719C527.153 313.568 524.872 316.473 524.045 317.945L522.825 312.154L520.914 315.45C520.834 313.6 519.106 312.298 518.252 311.879C518.132 313.716 516.829 316.373 516.192 317.471L514.494 308.289C514.173 310.153 512.543 313.472 511.768 314.898C511.06 314.126 510.227 311.235 509.899 309.886C509.737 310.529 508.123 313.926 507.335 315.544C506.878 314.594 506.702 312.239 506.671 311.18C505.965 311.599 503.831 315.717 502.853 317.724C502.907 316.881 500.683 311.187 499.564 308.446C499.894 313.808 497.951 316.627 496.938 317.367C496.985 316.639 496.074 313.263 495.612 311.666C495.286 313.607 493.71 316.115 492.962 317.127C491.411 313.959 491.515 309.706 491.761 307.975C489.718 309.927 488.436 313.059 488.051 314.381C487.484 313.886 487.157 312.021 487.064 311.151L484.761 316.633C484.97 312.187 481.065 308.499 479.087 307.211Z" fill="#5B9B40"/>
<path d="M294.509 291.481C295.97 295.717 294.127 301.812 293.023 304.331L340.095 312.645C339.8 309.941 342.524 305.567 343.922 303.718C341.454 303.282 338.83 305.906 337.827 307.272L337.329 301.384L335.026 304.438C335.175 302.592 333.619 301.102 332.823 300.588C332.478 302.398 330.856 304.887 330.088 305.905L329.533 296.594C328.985 298.408 326.958 301.518 326.013 302.846C325.405 301.997 324.934 299.032 324.775 297.655C324.535 298.276 322.513 301.464 321.532 302.98C321.195 301.985 321.31 299.627 321.41 298.572C320.658 298.907 318.031 302.752 316.812 304.633C316.97 303.803 315.463 297.895 314.69 295.045C314.357 300.407 312.08 302.985 310.983 303.603C311.12 302.887 310.631 299.43 310.369 297.792C309.807 299.681 307.932 301.992 307.065 302.911C305.916 299.589 306.543 295.377 307 293.687C304.731 295.392 303.072 298.355 302.527 299.624C302.025 299.067 301.93 297.178 301.944 296.304L298.983 301.484C299.738 297.094 296.315 292.986 294.509 291.481Z" fill="#5B9B40"/>
<path d="M523.586 310.734C525.971 314.735 525.407 321.273 524.827 324.043L574.276 323.137C573.399 320.457 575.223 315.488 576.244 313.338C573.651 313.386 571.555 316.563 570.831 318.145L569.068 312.28L567.388 315.829C567.145 313.931 565.251 312.73 564.334 312.367C564.372 314.269 563.261 317.111 562.701 318.294L560.149 308.974C559.982 310.92 558.594 314.471 557.921 316.003C557.124 315.264 556.012 312.354 555.557 310.991C555.446 311.667 554.08 315.297 553.411 317.027C552.857 316.086 552.47 313.674 552.345 312.586C551.655 313.075 549.817 317.489 548.984 319.636C548.967 318.764 546.178 313.079 544.786 310.346C545.594 315.842 543.84 318.904 542.861 319.748C542.846 318.995 541.612 315.591 540.997 313.984C540.831 316.009 539.426 318.72 538.745 319.823C536.871 316.686 536.606 312.297 536.707 310.494C534.774 312.67 533.728 316 533.446 317.393C532.819 316.928 532.319 315.035 532.147 314.146L530.254 319.979C530.081 315.383 525.737 311.901 523.586 310.734Z" fill="#5B9B40"/>
<path d="M340.022 295.519C341.621 299.867 339.845 306.202 338.757 308.825L387.569 316.496C387.207 313.708 389.929 309.135 391.335 307.197C388.775 306.795 386.12 309.557 385.113 310.989L384.474 304.914L382.158 308.115C382.274 306.205 380.635 304.696 379.801 304.18C379.483 306.058 377.859 308.661 377.087 309.728L376.318 300.118C375.79 302.003 373.761 305.256 372.812 306.646C372.166 305.782 371.617 302.726 371.423 301.307C371.189 301.953 369.167 305.287 368.185 306.873C367.816 305.851 367.885 303.412 367.966 302.32C367.196 302.681 364.563 306.705 363.343 308.672C363.489 307.812 361.808 301.737 360.948 298.808C360.717 304.354 358.419 307.062 357.299 307.723C357.425 306.979 356.847 303.418 356.542 301.73C356.001 303.693 354.112 306.117 353.236 307.084C351.978 303.674 352.537 299.31 352.974 297.554C350.665 299.361 349.014 302.455 348.478 303.776C347.948 303.211 347.809 301.261 347.806 300.357L344.855 305.767C345.543 301.216 341.919 297.039 340.022 295.519Z" fill="#5B9B40"/>
<path d="M432.384 306.176C434.655 310.237 433.905 316.759 433.247 319.512L482.703 319.909C481.903 317.207 483.867 312.287 484.949 310.165C482.355 310.145 480.17 313.265 479.401 314.828L477.806 308.919L476.025 312.423C475.836 310.518 473.977 309.268 473.071 308.881C473.054 310.783 471.864 313.595 471.27 314.763L468.984 305.38C468.761 307.32 467.273 310.833 466.556 312.347C465.78 311.587 464.752 308.649 464.335 307.275C464.206 307.948 462.737 311.54 462.019 313.252C461.492 312.296 461.173 309.876 461.08 308.785C460.376 309.255 458.413 313.619 457.52 315.743C457.528 314.871 454.901 309.115 453.587 306.346C454.239 311.861 452.398 314.876 451.396 315.694C451.402 314.94 450.266 311.506 449.696 309.883C449.473 311.902 447.992 314.576 447.279 315.66C445.495 312.475 445.354 308.08 445.507 306.281C443.513 308.406 442.372 311.707 442.051 313.091C441.438 312.611 440.991 310.705 440.845 309.811L438.787 315.592C438.745 310.994 434.501 307.399 432.384 306.176Z" fill="#5B9B40"/>
<path d="M245.688 291.383C247.639 295.596 246.388 302.046 245.519 304.744L294.808 308.677C294.218 305.925 296.556 301.159 297.799 299.121C295.214 298.914 292.794 301.87 291.908 303.374L290.772 297.367L288.726 300.734C288.684 298.821 286.927 297.441 286.053 296.99C285.89 298.886 284.486 301.605 283.804 302.727L282.248 293.206C281.876 295.126 280.121 298.522 279.289 299.981C278.574 299.168 277.776 296.164 277.466 294.764C277.285 295.426 275.543 298.903 274.695 300.559C274.243 299.568 274.112 297.131 274.103 296.037C273.365 296.455 271.071 300.667 270.016 302.721C270.091 301.852 267.916 295.924 266.819 293.069C267.044 298.616 264.975 301.49 263.913 302.234C263.977 301.484 263.109 297.977 262.666 296.318C262.288 298.316 260.604 300.876 259.81 301.907C258.276 298.602 258.475 294.21 258.766 292.427C256.613 294.403 255.222 297.613 254.795 298.971C254.22 298.448 253.922 296.515 253.844 295.614L251.347 301.231C251.659 296.643 247.704 292.754 245.688 291.383Z" fill="#5B9B40"/>
<path d="M199.981 287.493C201.784 291.604 200.445 297.821 199.55 300.415L247.157 305.132C246.641 302.459 248.998 297.892 250.242 295.943C247.745 295.695 245.345 298.51 244.457 299.948L243.478 294.116L241.432 297.335C241.429 295.484 239.757 294.117 238.921 293.664C238.725 295.496 237.312 298.1 236.63 299.173L235.314 289.933C234.916 291.783 233.15 295.037 232.317 296.432C231.641 295.633 230.929 292.712 230.657 291.351C230.469 291.988 228.714 295.32 227.861 296.906C227.443 295.94 227.365 293.58 227.378 292.521C226.656 292.912 224.352 296.944 223.291 298.912C223.38 298.072 221.395 292.297 220.39 289.515C220.497 294.885 218.438 297.628 217.396 298.328C217.473 297.603 216.703 294.194 216.308 292.581C215.902 294.507 214.222 296.953 213.433 297.935C212.015 294.71 212.296 290.464 212.613 288.744C210.49 290.616 209.08 293.696 208.64 295.002C208.094 294.485 207.844 292.61 207.787 291.736L205.259 297.125C205.653 292.691 201.904 288.856 199.981 287.493Z" fill="#5B9B40"/>
<path d="M152.863 285.531C154.861 289.723 153.683 296.185 152.844 298.892L202.175 302.311C201.554 299.566 203.839 294.776 205.058 292.725C202.471 292.546 200.085 295.526 199.215 297.039L198.012 291.044L196.004 294.432C195.941 292.52 194.168 291.159 193.289 290.717C193.148 292.615 191.774 295.348 191.104 296.477L189.441 286.973C189.091 288.896 187.374 292.311 186.559 293.777C185.835 292.972 185.003 289.977 184.677 288.58C184.504 289.244 182.801 292.739 181.972 294.403C181.509 293.418 181.35 290.982 181.329 289.888C180.595 290.314 178.349 294.55 177.317 296.614C177.382 295.745 175.141 289.84 174.012 286.996C174.299 292.54 172.263 295.436 171.209 296.191C171.265 295.44 170.357 291.943 169.896 290.288C169.54 292.29 167.885 294.868 167.102 295.906C165.532 292.618 165.682 288.224 165.953 286.438C163.822 288.436 162.466 291.661 162.055 293.023C161.474 292.506 161.154 290.576 161.067 289.676L158.632 295.319C158.893 290.727 154.895 286.88 152.863 285.531Z" fill="#5B9B40"/>
<path d="M13.9566 283.919C16.0322 287.91 15.1138 294.197 14.3951 296.842L62.2183 298.586C61.5246 295.95 63.5702 291.246 64.6797 289.223C62.1716 289.132 59.9655 292.09 59.1759 293.581L57.8078 287.821L55.982 291.161C55.8553 289.314 54.0942 288.054 53.2295 287.654C53.1571 289.494 51.9218 292.181 51.3132 293.294L49.3803 284.155C49.1073 286.026 47.5633 289.383 46.8254 290.827C46.0976 290.072 45.1906 287.201 44.828 285.861C44.6829 286.508 43.1558 289.942 42.4103 291.578C41.929 290.639 41.6925 288.289 41.6344 287.232C40.9396 287.667 38.9118 291.834 37.9847 293.864C38.0179 293.02 35.6483 287.381 34.4594 284.667C34.9266 290.019 33.0563 292.884 32.0628 293.648C32.0915 292.919 31.0938 289.566 30.5914 287.98C30.3154 289.928 28.8033 292.473 28.0817 293.502C26.4506 290.372 26.4452 286.118 26.6464 284.382C24.654 286.382 23.4532 289.543 23.1019 290.874C22.5228 290.392 22.1473 288.536 22.0319 287.668L19.8706 293.203C19.9659 288.754 15.9676 285.16 13.9566 283.919Z" fill="#5B9B40"/>
<path d="M108.703 282.492C110.466 286.619 109.066 292.824 108.146 295.41L155.704 300.559C155.215 297.881 157.616 293.336 158.879 291.398C156.384 291.128 153.957 293.921 153.055 295.351L152.133 289.51L150.056 292.71C150.071 290.859 148.412 289.477 147.58 289.017C147.367 290.846 145.928 293.437 145.236 294.504L144.011 285.253C143.595 287.099 141.797 290.337 140.95 291.724C140.282 290.919 139.598 287.992 139.34 286.629C139.146 287.264 137.358 290.58 136.489 292.158C136.081 291.188 136.026 288.827 136.05 287.768C135.323 288.153 132.981 292.164 131.9 294.122C131.998 293.283 130.069 287.491 129.092 284.699C129.146 290.07 127.06 292.794 126.011 293.484C126.095 292.76 125.358 289.345 124.979 287.728C124.554 289.65 122.851 292.081 122.052 293.056C120.666 289.818 120.988 285.575 121.322 283.858C119.181 285.71 117.741 288.777 117.288 290.079C116.747 289.558 116.516 287.68 116.468 286.806L113.886 292.172C114.324 287.742 110.613 283.872 108.703 282.492Z" fill="#5B9B40"/>
<path d="M57.6266 286.851C60.2429 290.714 60.0642 297.273 59.6477 300.07L108.964 296.472C107.932 293.844 109.46 288.783 110.353 286.581C107.767 286.77 105.861 290.056 105.232 291.676L103.127 285.916L101.658 289.551C101.304 287.669 99.3421 286.573 98.4057 286.261C98.555 288.158 97.6132 291.056 97.1236 292.267L94.028 283.102C93.9752 285.053 92.7978 288.674 92.2157 290.24C91.3766 289.546 90.0963 286.701 89.5611 285.365C89.4908 286.046 88.3402 289.744 87.7736 291.508C87.1653 290.599 86.6368 288.212 86.4486 287.133C85.788 287.658 84.2125 292.166 83.5073 294.354C83.4389 293.484 80.3203 287.961 78.7695 285.308C79.8999 290.751 78.3278 293.904 77.4005 294.799C77.3414 294.048 75.9093 290.718 75.2007 289.146C75.1541 291.177 73.9109 293.961 73.2951 295.099C71.2398 292.069 70.7171 287.701 70.7126 285.896C68.91 288.174 68.0613 291.555 67.8623 292.961C67.2092 292.532 66.598 290.668 66.374 289.79L64.8276 295.717C64.3846 291.138 59.8423 287.898 57.6266 286.851Z" fill="#5B9B40"/>
<path d="M-3670.55 307.998L-3235.44 276.764C-3094.25 266.629 -2952.35 274.708 -2813.23 300.802C-2658.71 329.784 -2500.85 336.528 -2344.42 320.831L-2203.16 306.655C-2076.18 293.913 -1948.28 293.353 -1821.2 304.982L-1565.86 328.348C-1448.44 339.094 -1330.29 339.434 -1212.81 329.364L-881.75 300.99C-776.972 292.009 -671.649 291.307 -566.76 298.889L94.4844 346.689C194.031 353.885 293.978 353.619 393.485 345.894L881.624 307.998L1783 346.998L1783 387.998L881.624 387.998L-3670.55 387.998L-3670.55 307.998Z" fill="#70AE3E"/>
<path d="M798.936 303.549C801.231 307.398 800.757 313.73 800.234 316.415L847.033 315.103C846.178 312.518 847.858 307.694 848.805 305.605C846.35 305.673 844.396 308.766 843.726 310.304L842.003 304.644L840.445 308.093C840.197 306.258 838.393 305.113 837.522 304.77C837.576 306.61 836.551 309.37 836.032 310.519L833.529 301.524C833.389 303.408 832.108 306.856 831.485 308.344C830.724 307.637 829.645 304.83 829.201 303.516C829.103 304.171 827.843 307.695 827.226 309.375C826.693 308.469 826.304 306.139 826.176 305.088C825.527 305.566 823.828 309.854 823.06 311.938C823.035 311.094 820.343 305.619 818.999 302.986C819.816 308.297 818.183 311.275 817.265 312.1C817.244 311.372 816.044 308.089 815.447 306.539C815.309 308.5 814.004 311.136 813.369 312.209C811.566 309.19 811.274 304.946 811.354 303.201C809.544 305.323 808.584 308.554 808.331 309.904C807.733 309.461 807.242 307.633 807.071 306.774L805.334 312.435C805.127 307.989 800.982 304.658 798.936 303.549Z" fill="#70AE3E"/>
<path d="M845.064 300.447C847.359 304.297 846.885 310.628 846.362 313.313L893.161 312.002C892.306 309.416 893.986 304.592 894.933 302.503C892.478 302.572 890.524 305.664 889.854 307.202L888.13 301.543L886.573 304.992C886.325 303.157 884.521 302.011 883.65 301.668C883.704 303.508 882.679 306.268 882.16 307.418L879.657 298.422C879.517 300.307 878.236 303.754 877.613 305.243C876.851 304.535 875.773 301.729 875.329 300.414C875.231 301.069 873.971 304.593 873.354 306.273C872.821 305.367 872.432 303.038 872.304 301.986C871.655 302.465 869.956 306.752 869.188 308.836C869.163 307.993 866.471 302.517 865.127 299.885C865.944 305.196 864.311 308.174 863.393 308.999C863.372 308.27 862.172 304.988 861.575 303.438C861.436 305.399 860.132 308.035 859.497 309.108C857.694 306.089 857.402 301.844 857.482 300.099C855.672 302.222 854.712 305.453 854.459 306.803C853.861 306.359 853.37 304.531 853.199 303.672L851.462 309.333C851.255 304.888 847.11 301.557 845.064 300.447Z" fill="#70AE3E"/>
<path d="M619.389 318.625C621.684 322.474 621.211 328.806 620.687 331.491L667.486 330.18C666.631 327.594 668.311 322.77 669.258 320.681C666.804 320.75 664.849 323.842 664.179 325.38L662.456 319.72L660.898 323.169C660.65 321.335 658.846 320.189 657.975 319.846C658.029 321.686 657.004 324.446 656.485 325.595L653.983 316.6C653.842 318.484 652.561 321.932 651.938 323.42C651.177 322.713 650.098 319.907 649.654 318.592C649.556 319.247 648.296 322.771 647.679 324.451C647.146 323.545 646.757 321.215 646.629 320.164C645.98 320.642 644.281 324.93 643.513 327.014C643.488 326.171 640.796 320.695 639.452 318.063C640.269 323.373 638.636 326.351 637.718 327.176C637.697 326.448 636.497 323.166 635.9 321.616C635.762 323.576 634.457 326.213 633.822 327.286C632.019 324.266 631.727 320.022 631.807 318.277C629.997 320.4 629.037 323.63 628.784 324.981C628.186 324.537 627.695 322.709 627.524 321.85L625.787 327.511C625.58 323.065 621.435 319.734 619.389 318.625Z" fill="#70AE3E"/>
<path d="M707.543 313.055C710.066 316.764 709.974 323.112 709.614 325.822L756.251 321.785C755.242 319.254 756.629 314.34 757.448 312.2C755.002 312.412 753.238 315.613 752.661 317.187L750.6 311.637L749.253 315.171C748.895 313.354 747.026 312.316 746.135 312.024C746.299 313.858 745.442 316.672 744.993 317.85L741.954 309.017C741.927 310.906 740.856 314.422 740.324 315.944C739.521 315.282 738.275 312.544 737.753 311.258C737.695 311.917 736.649 315.508 736.134 317.222C735.547 316.348 735.019 314.045 734.828 313.003C734.209 313.519 732.771 317.898 732.13 320.023C732.055 319.182 729.037 313.873 727.538 311.324C728.672 316.578 727.222 319.646 726.355 320.523C726.29 319.797 724.895 316.59 724.205 315.078C724.185 317.043 723.042 319.751 722.472 320.859C720.491 317.95 719.944 313.73 719.918 311.983C718.239 314.208 717.476 317.489 717.304 318.852C716.681 318.444 716.08 316.647 715.858 315.8L714.465 321.552C713.991 317.127 709.653 314.043 707.543 313.055Z" fill="#70AE3E"/>
<path d="M528.805 326.581C531.165 330.393 530.798 336.731 530.32 339.424L577.09 337.349C576.192 334.778 577.791 329.927 578.702 327.823C576.249 327.931 574.347 331.055 573.703 332.604L571.884 326.973L570.386 330.447C570.107 328.617 568.284 327.501 567.407 327.172C567.491 329.011 566.513 331.787 566.013 332.945L563.36 323.992C563.251 325.878 562.028 329.346 561.431 330.845C560.657 330.149 559.532 327.361 559.065 326.054C558.978 326.711 557.779 330.255 557.189 331.945C556.641 331.048 556.213 328.724 556.067 327.675C555.426 328.164 553.8 332.479 553.067 334.575C553.029 333.732 550.244 328.301 548.856 325.691C549.762 330.988 548.18 333.992 547.276 334.832C547.242 334.104 545.988 330.842 545.364 329.302C545.259 331.265 543.999 333.922 543.382 335.005C541.529 332.016 541.165 327.776 541.215 326.03C539.441 328.182 538.537 331.429 538.306 332.783C537.701 332.349 537.179 330.529 536.993 329.673L535.352 335.361C535.071 330.92 530.87 327.657 528.805 326.581Z" fill="#70AE3E"/>
<path d="M753.34 308.604C755.927 312.45 755.799 319.01 755.411 321.809L803.629 317.877C802.6 315.256 804.059 310.185 804.917 307.977C802.389 308.183 800.548 311.482 799.944 313.106L797.843 307.361L796.433 311.006C796.072 309.126 794.146 308.044 793.227 307.737C793.387 309.633 792.486 312.538 792.016 313.753L788.922 304.608C788.885 306.56 787.759 310.189 787.2 311.759C786.375 311.07 785.102 308.234 784.569 306.902C784.505 307.584 783.406 311.289 782.864 313.057C782.262 312.152 781.728 309.769 781.537 308.691C780.894 309.22 779.385 313.739 778.711 315.931C778.638 315.062 775.547 309.56 774.011 306.918C775.156 312.353 773.641 315.516 772.74 316.418C772.677 315.668 771.252 312.347 770.548 310.78C770.517 312.811 769.32 315.604 768.726 316.746C766.694 313.73 766.151 309.365 766.134 307.56C764.387 309.851 763.581 313.238 763.396 314.645C762.754 314.22 762.143 312.361 761.918 311.484L760.447 317.421C759.981 312.845 755.515 309.636 753.34 308.604Z" fill="#70AE3E"/>
<path d="M573.916 324.926C576.598 328.708 576.635 335.269 576.318 338.076L624.423 332.973C623.328 330.378 624.66 325.273 625.462 323.045C622.939 323.313 621.182 326.656 620.619 328.293L618.375 322.601L617.056 326.279C616.648 324.409 614.695 323.374 613.769 323.09C613.977 324.981 613.149 327.906 612.71 329.133L609.387 320.066C609.398 322.018 608.364 325.673 607.845 327.256C607.003 326.588 605.659 323.784 605.093 322.465C605.046 323.148 604.04 326.879 603.543 328.66C602.919 327.769 602.325 325.4 602.106 324.327C601.477 324.872 600.082 329.426 599.463 331.634C599.368 330.767 596.141 325.342 594.539 322.738C595.82 328.144 594.384 331.342 593.506 332.266C593.424 331.517 591.917 328.232 591.173 326.683C591.193 328.714 590.067 331.535 589.502 332.691C587.395 329.725 586.743 325.375 586.68 323.571C584.991 325.904 584.27 329.309 584.121 330.72C583.468 330.311 582.811 328.467 582.563 327.596L581.243 333.567C580.662 329.004 576.116 325.905 573.916 324.926Z" fill="#70AE3E"/>
<path d="M662.211 318.763C665.025 322.451 665.293 329.007 665.074 331.824L712.971 325.087C711.786 322.531 712.937 317.384 713.661 315.13C711.149 315.483 709.51 318.884 709.005 320.54L706.562 314.927L705.373 318.648C704.901 316.793 702.912 315.824 701.977 315.572C702.25 317.456 701.526 320.407 701.13 321.647L697.491 312.699C697.571 314.65 696.666 318.338 696.203 319.938C695.337 319.299 693.896 316.542 693.283 315.243C693.261 315.927 692.386 319.691 691.952 321.487C691.297 320.618 690.621 318.271 690.364 317.205C689.755 317.772 688.52 322.37 687.979 324.598C687.854 323.735 684.438 318.423 682.746 315.875C684.215 321.234 682.893 324.479 682.048 325.432C681.94 324.687 680.318 321.455 679.52 319.932C679.612 321.961 678.586 324.818 678.061 325.993C675.851 323.101 675.047 318.776 674.921 316.975C673.315 319.363 672.714 322.791 672.614 324.207C671.948 323.82 671.226 321.999 670.948 321.138L669.838 327.15C669.097 322.609 664.445 319.666 662.211 318.763Z" fill="#70AE3E"/>
<path d="M483.365 329.739C485.92 333.606 485.737 340.165 485.326 342.961L533.575 339.423C532.568 336.794 534.07 331.736 534.947 329.535C532.416 329.72 530.548 333.004 529.93 334.623L527.878 328.861L526.437 332.494C526.092 330.611 524.175 329.513 523.259 329.199C523.403 331.097 522.478 333.993 521.997 335.204L518.981 326.035C518.927 327.987 517.77 331.606 517.199 333.171C516.379 332.476 515.13 329.63 514.608 328.293C514.538 328.974 513.408 332.671 512.851 334.434C512.257 333.524 511.744 331.137 511.561 330.057C510.914 330.581 509.367 335.087 508.674 337.274C508.608 336.405 505.565 330.878 504.051 328.223C505.15 333.667 503.608 336.818 502.699 337.712C502.643 336.961 501.246 333.629 500.555 332.056C500.507 334.087 499.287 336.87 498.683 338.007C496.676 334.974 496.17 330.606 496.168 328.801C494.402 331.077 493.567 334.457 493.371 335.862C492.733 335.432 492.137 333.568 491.919 332.69L490.399 338.614C489.971 334.035 485.532 330.79 483.365 329.739Z" fill="#70AE3E"/>
<path d="M438.584 332.78C440.98 336.569 440.674 342.911 440.222 345.608L486.97 343.099C486.047 340.536 487.599 335.67 488.49 333.558C486.039 333.689 484.167 336.831 483.537 338.385L481.665 332.772L480.199 336.26C479.903 334.432 478.069 333.333 477.19 333.012C477.291 334.85 476.34 337.635 475.851 338.798L473.112 329.87C473.022 331.757 471.832 335.236 471.249 336.74C470.469 336.052 469.316 333.275 468.838 331.972C468.757 332.629 467.591 336.184 467.018 337.88C466.461 336.987 466.011 334.668 465.855 333.62C465.219 334.116 463.634 338.445 462.921 340.548C462.875 339.706 460.038 334.301 458.626 331.704C459.582 336.992 458.029 340.011 457.133 340.859C457.092 340.131 455.806 336.881 455.168 335.347C455.082 337.31 453.848 339.979 453.241 341.068C451.359 338.096 450.955 333.86 450.988 332.114C449.235 334.282 448.362 337.537 448.144 338.893C447.535 338.465 446.995 336.65 446.801 335.796L445.215 341.499C444.891 337.06 440.659 333.837 438.584 332.78Z" fill="#70AE3E"/>
<path d="M392.847 335.834C395.444 339.674 395.333 346.234 394.953 349.034L443.16 344.983C442.125 342.365 443.571 337.29 444.423 335.08C441.895 335.293 440.063 338.596 439.463 340.221L437.348 334.481L435.946 338.13C435.581 336.251 433.652 335.173 432.733 334.869C432.897 336.765 432.004 339.671 431.537 340.888L428.42 331.751C428.387 333.703 427.27 337.334 426.716 338.906C425.888 338.219 424.608 335.386 424.072 334.056C424.01 334.737 422.92 338.446 422.383 340.215C421.779 339.311 421.239 336.929 421.044 335.852C420.403 336.383 418.906 340.905 418.237 343.099C418.162 342.23 415.057 336.736 413.515 334.097C414.673 339.53 413.166 342.697 412.268 343.601C412.203 342.85 410.769 339.533 410.061 337.968C410.035 339.999 408.846 342.794 408.255 343.938C406.215 340.927 405.661 336.564 405.639 334.759C403.898 337.054 403.1 340.443 402.919 341.85C402.276 341.427 401.66 339.569 401.433 338.693L399.977 344.634C399.5 340.059 395.025 336.861 392.847 335.834Z" fill="#70AE3E"/>
<path d="M261.602 338.943C263.728 342.886 262.981 349.192 262.341 351.852L309.154 352.507C308.412 349.888 310.3 345.139 311.336 343.092C308.881 343.057 306.795 346.065 306.058 347.573L304.582 341.846L302.877 345.227C302.708 343.383 300.956 342.163 300.1 341.784C300.074 343.625 298.93 346.339 298.362 347.465L296.252 338.373C296.03 340.25 294.6 343.641 293.913 345.102C293.184 344.362 292.228 341.514 291.841 340.182C291.714 340.832 290.303 344.3 289.614 345.952C289.12 345.025 288.833 342.681 288.75 341.625C288.081 342.076 286.198 346.288 285.34 348.338C285.352 347.494 282.9 341.911 281.672 339.224C282.257 344.564 280.497 347.471 279.543 348.257C279.554 347.528 278.498 344.199 277.968 342.625C277.745 344.578 276.327 347.157 275.646 348.202C273.976 345.11 273.869 340.857 274.024 339.117C272.123 341.162 271.025 344.35 270.713 345.688C270.135 345.22 269.723 343.373 269.59 342.508L267.609 348.09C267.595 343.64 263.599 340.138 261.602 338.943Z" fill="#70AE3E"/>
<path d="M217.259 342.053C219.385 345.995 218.638 352.301 217.998 354.962L264.811 355.617C264.07 352.998 265.957 348.248 266.994 346.201C264.539 346.167 262.452 349.174 261.716 350.682L260.239 344.956L258.534 348.336C258.366 346.493 256.613 345.273 255.758 344.893C255.731 346.734 254.587 349.448 254.019 350.575L251.909 341.483C251.687 343.359 250.258 346.75 249.571 348.211C248.841 347.472 247.885 344.623 247.498 343.291C247.372 343.941 245.961 347.409 245.271 349.062C244.777 348.134 244.49 345.79 244.408 344.734C243.738 345.185 241.855 349.398 240.997 351.447C241.01 350.604 238.557 345.02 237.329 342.334C237.914 347.674 236.154 350.581 235.201 351.366C235.211 350.638 234.155 347.308 233.625 345.734C233.402 347.687 231.985 350.266 231.304 351.312C229.633 348.22 229.526 343.967 229.681 342.227C227.78 344.271 226.682 347.459 226.37 348.797C225.792 348.329 225.381 346.482 225.247 345.617L223.266 351.199C223.252 346.749 219.256 343.247 217.259 342.053Z" fill="#70AE3E"/>
<path d="M170.518 341.053C172.644 344.995 171.897 351.301 171.257 353.962L218.07 354.617C217.328 351.998 219.216 347.248 220.252 345.201C217.797 345.167 215.711 348.174 214.974 349.682L213.498 343.956L211.793 347.336C211.624 345.493 209.872 344.273 209.016 343.893C208.99 345.734 207.846 348.448 207.278 349.575L205.168 340.483C204.946 342.359 203.516 345.75 202.829 347.211C202.1 346.472 201.144 343.623 200.757 342.291C200.63 342.941 199.219 346.409 198.53 348.062C198.036 347.134 197.749 344.79 197.666 343.734C196.997 344.185 195.114 348.398 194.256 350.447C194.268 349.604 191.816 344.02 190.588 341.334C191.173 346.674 189.413 349.581 188.459 350.366C188.47 349.638 187.414 346.308 186.884 344.734C186.661 346.687 185.243 349.266 184.562 350.312C182.892 347.22 182.785 342.967 182.94 341.227C181.039 343.271 179.941 346.459 179.629 347.797C179.051 347.329 178.639 345.482 178.506 344.617L176.525 350.199C176.511 345.749 172.515 342.247 170.518 341.053Z" fill="#70AE3E"/>
<path d="M123.777 341.053C125.903 344.995 125.155 351.301 124.516 353.962L171.329 354.617C170.587 351.998 172.475 347.248 173.511 345.201C171.056 345.167 168.97 348.174 168.233 349.682L166.757 343.956L165.051 347.336C164.883 345.493 163.131 344.273 162.275 343.893C162.249 345.734 161.105 348.448 160.537 349.575L158.427 340.483C158.205 342.359 156.775 345.75 156.088 347.211C155.358 346.472 154.402 343.623 154.016 342.291C153.889 342.941 152.478 346.409 151.788 348.062C151.295 347.134 151.007 344.79 150.925 343.734C150.256 344.185 148.373 348.398 147.515 350.447C147.527 349.604 145.074 344.02 143.846 341.334C144.432 346.674 142.672 349.581 141.718 350.366C141.729 349.638 140.673 346.308 140.143 344.734C139.92 346.687 138.502 349.266 137.821 350.312C136.151 347.22 136.043 342.967 136.198 341.227C134.298 343.271 133.2 346.459 132.888 347.797C132.31 347.329 131.898 345.482 131.764 344.617L129.784 350.199C129.77 345.749 125.773 342.247 123.777 341.053Z" fill="#70AE3E"/>
<path d="M78.6323 335.043C80.2568 339.21 78.7382 345.381 77.7758 347.945L124.163 354.181C123.749 351.493 126.208 347.003 127.489 345.095C125.056 344.768 122.614 347.504 121.698 348.913L120.938 343.053L118.828 346.205C118.889 344.355 117.299 342.935 116.497 342.456C116.244 344.28 114.774 346.837 114.071 347.888L113.097 338.611C112.645 340.448 110.809 343.643 109.947 345.011C109.313 344.19 108.715 341.249 108.496 339.88C108.29 340.511 106.462 343.785 105.574 345.343C105.198 344.363 105.202 342.002 105.25 340.944C104.53 341.312 102.142 345.268 101.038 347.201C101.154 346.365 99.4073 340.53 98.5193 337.716C98.4426 343.087 96.3372 345.762 95.2941 346.429C95.3943 345.707 94.756 342.275 94.4244 340.65C93.9623 342.562 92.2373 344.953 91.4326 345.91C90.1555 342.641 90.5727 338.406 90.941 336.698C88.8026 338.501 87.3196 341.534 86.8454 342.825C86.3294 342.291 86.1482 340.409 86.122 339.534L83.4681 344.839C84.0027 340.42 80.467 336.467 78.6323 335.043Z" fill="#70AE3E"/>
<path d="M33.9223 331.043C35.5468 335.21 34.0282 341.381 33.0659 343.945L79.4528 350.181C79.0391 347.493 81.4979 343.003 82.7789 341.095C80.3462 340.768 77.9045 343.504 76.9878 344.913L76.2277 339.053L74.1185 342.205C74.1786 340.355 72.5892 338.935 71.787 338.456C71.5338 340.28 70.0643 342.837 69.3612 343.888L68.3869 334.611C67.9354 336.448 66.0988 339.643 65.2369 341.011C64.6034 340.19 64.0054 337.249 63.7855 335.88C63.58 336.511 61.7522 339.785 60.8639 341.343C60.4885 340.363 60.4917 338.002 60.5402 336.944C59.8204 337.312 57.4323 341.268 56.3282 343.201C56.4443 342.365 54.6973 336.53 53.8093 333.716C53.7326 339.087 51.6273 341.762 50.5842 342.429C50.6844 341.707 50.0461 338.275 49.7144 336.65C49.2523 338.562 47.5273 340.953 46.7226 341.91C45.4455 338.641 45.8628 334.406 46.231 332.698C44.0927 334.501 42.6096 337.534 42.1354 338.825C41.6195 338.291 41.4382 336.409 41.4121 335.534L38.7582 340.839C39.2928 336.42 35.757 332.467 33.9223 331.043Z" fill="#70AE3E"/>
<path d="M-11.8023 327.043C-10.1778 331.21 -11.6964 337.381 -12.6587 339.945L33.7282 346.181C33.3145 343.493 35.7733 339.003 37.0543 337.095C34.6216 336.768 32.1799 339.504 31.2632 340.913L30.5031 335.053L28.3939 338.205C28.454 336.355 26.8646 334.935 26.0623 334.456C25.8092 336.28 24.3397 338.837 23.6366 339.888L22.6623 330.611C22.2108 332.448 20.3742 335.643 19.5123 337.011C18.8788 336.19 18.2808 333.249 18.0609 331.88C17.8554 332.511 16.0276 335.785 15.1393 337.343C14.7639 336.363 14.7671 334.002 14.8156 332.944C14.0958 333.312 11.7077 337.268 10.6036 339.201C10.7197 338.365 8.9727 332.53 8.08471 329.716C8.00802 335.087 5.90265 337.762 4.85956 338.429C4.95977 337.707 4.32148 334.275 3.9898 332.65C3.52772 334.562 1.80274 336.953 0.998008 337.91C-0.279112 334.641 0.138148 330.406 0.506419 328.698C-1.63195 330.501 -3.11499 333.534 -3.58922 334.825C-4.10516 334.291 -4.2864 332.409 -4.31253 331.534L-6.96644 336.839C-6.43183 332.42 -9.96758 328.467 -11.8023 327.043Z" fill="#70AE3E"/>
<path d="M349.916 337.079C352.276 340.891 351.91 347.229 351.431 349.922L398.202 347.847C397.303 345.276 398.902 340.425 399.813 338.321C397.36 338.429 395.459 341.553 394.814 343.102L392.996 337.471L391.497 340.945C391.218 339.115 389.395 337.999 388.518 337.67C388.603 339.509 387.624 342.285 387.125 343.443L384.471 334.49C384.363 336.376 383.14 339.844 382.542 341.343C381.769 340.647 380.643 337.859 380.177 336.552C380.09 337.209 378.89 340.753 378.301 342.443C377.753 341.546 377.324 339.223 377.179 338.173C376.538 338.662 374.912 342.977 374.179 345.073C374.14 344.23 371.355 338.799 369.968 336.189C370.874 341.486 369.291 344.49 368.387 345.33C368.354 344.602 367.099 341.34 366.476 339.8C366.37 341.763 365.11 344.42 364.494 345.503C362.64 342.514 362.277 338.274 362.327 336.528C360.553 338.68 359.648 341.927 359.418 343.281C358.812 342.847 358.29 341.027 358.105 340.171L356.463 345.859C356.182 341.418 351.981 338.155 349.916 337.079Z" fill="#70AE3E"/>
<path d="M304.379 340.88C307.031 344.683 307.014 351.244 306.674 354.049L354.818 349.33C353.745 346.726 355.119 341.632 355.94 339.411C353.415 339.658 351.63 342.987 351.053 344.62L348.856 338.91L347.507 342.577C347.115 340.704 345.17 339.653 344.247 339.362C344.439 341.255 343.587 344.173 343.137 345.396L339.89 336.303C339.885 338.256 338.82 341.902 338.289 343.481C337.451 342.806 336.131 339.991 335.575 338.668C335.523 339.35 334.487 343.074 333.975 344.85C333.358 343.954 332.784 341.581 332.574 340.506C331.941 341.046 330.508 345.588 329.871 347.792C329.783 346.924 326.6 341.473 325.02 338.856C326.256 344.272 324.794 347.46 323.909 348.376C323.833 347.627 322.353 344.33 321.622 342.775C321.625 344.806 320.476 347.617 319.901 348.769C317.818 345.786 317.202 341.432 317.154 339.627C315.446 341.946 314.697 345.345 314.537 346.755C313.888 346.341 313.245 344.492 313.005 343.619L311.635 349.579C311.092 345.012 306.571 341.876 304.379 340.88Z" fill="#70AE3E"/>
<path d="M0.697988 342.998C0.697988 344.839 -0.406275 347.569 -0.958408 348.704C-1.47574 350.151 -3.09642 353.156 -5.44043 353.594L9.90562 353.594C9.12613 350.986 10.9449 346.21 11.9518 344.149C9.49639 344.149 7.4535 347.185 6.73897 348.704L5.18001 342.998L3.52361 346.402C3.32874 344.561 1.55867 343.366 0.697988 342.998Z" fill="#5B9B40"/>
<path d="M610.138 356C610.138 357.841 609.034 360.571 608.482 361.705C607.965 363.153 606.344 366.158 604 366.596L619.346 366.596C618.567 363.988 620.385 359.212 621.392 357.151C618.937 357.151 616.894 360.187 616.179 361.705L614.62 356L612.964 359.404C612.769 357.563 610.999 356.368 610.138 356Z" fill="#5B9B40"/>
<path d="M867.438 316.998C867.438 318.839 866.334 321.569 865.782 322.704C865.264 324.151 863.644 327.156 861.3 327.594L876.646 327.594C875.866 324.986 877.685 320.21 878.692 318.149C876.237 318.149 874.194 321.185 873.479 322.704L871.92 316.998L870.264 320.402C870.069 318.561 868.299 317.366 867.438 316.998Z" fill="#5B9B40"/>
<path d="M891.909 298.478C893.939 302.469 893.041 308.756 892.338 311.4L939.122 313.144C938.443 310.509 940.444 305.805 941.53 303.782C939.076 303.691 936.918 306.649 936.145 308.139L934.807 302.38L933.021 305.72C932.897 303.873 931.174 302.612 930.328 302.213C930.257 304.053 929.049 306.739 928.454 307.853L926.563 298.714C926.296 300.585 924.785 303.942 924.063 305.386C923.351 304.63 922.464 301.76 922.109 300.419C921.967 301.066 920.473 304.501 919.744 306.137C919.273 305.198 919.042 302.848 918.985 301.79C918.305 302.225 916.322 306.393 915.415 308.422C915.447 307.579 913.129 301.94 911.966 299.226C912.423 304.578 910.593 307.443 909.621 308.206C909.649 307.478 908.673 304.125 908.182 302.539C907.912 304.486 906.433 307.032 905.727 308.061C904.131 304.931 904.126 300.677 904.323 298.941C902.374 300.941 901.199 304.102 900.855 305.433C900.289 304.951 899.921 303.095 899.809 302.227L897.694 307.762C897.787 303.313 893.876 299.719 891.909 298.478Z" fill="#70AE3E"/>
</g>
</g>
<rect y="387" width="905" height="25" fill="#70AE3E"/>
<path d="M178.94 374.891C177.91 370.422 173.905 362.794 166.129 368.027C164.264 373.718 174.417 376.879 178.94 374.891Z" fill="#25861F" stroke="#25861F" stroke-width="0.423251"/>
<path d="M176.462 373.674L172.875 371.508M166.983 367.949L168.52 368.877M175.034 370.539C174.57 371.017 173.336 371.786 172.107 371.044M172.107 371.044L172.875 371.508M172.107 371.044L169.032 369.187M172.114 368.426C171.412 368.817 169.709 369.456 168.52 368.877M168.52 368.877L169.032 369.187M173.996 374.283C174.032 373.838 173.857 372.66 172.875 371.508M170.204 372.167C170.308 371.706 170.219 370.463 169.032 369.187" stroke="#1F6B19" stroke-width="0.423251" stroke-linecap="round"/>
<path d="M147.486 364.178C147.325 368.761 149.219 377.166 158.084 374.124C161.358 369.109 152.369 363.428 147.486 364.178Z" fill="#25861F" stroke="#25861F" stroke-width="0.423251"/>
<path d="M149.565 365.996L152.469 369.016M157.239 373.979L155.994 372.684M150.133 369.394C150.704 369.052 152.095 368.628 153.091 369.664M153.091 369.664L152.469 369.016M153.091 369.664L155.58 372.253M152.406 372.19C153.186 371.994 154.996 371.818 155.994 372.684M155.994 372.684L155.58 372.253M152.104 366.046C151.955 366.466 151.818 367.649 152.469 369.016M155.219 369.071C154.999 369.49 154.763 370.713 155.58 372.253" stroke="#1F6B19" stroke-width="0.423251" stroke-linecap="round"/>
<path d="M171.673 360.436C170.604 359.02 167.409 361.389 165.946 362.75C167.011 360.587 168.592 356.218 166.389 356.042C164.186 355.866 163.435 359.87 163.335 361.894C162.446 359.914 160.343 356.334 159.039 357.856C157.735 359.378 160.085 362.497 161.422 363.866C159.189 362.918 154.791 361.544 155.067 363.635C155.343 365.727 159.414 366.261 161.415 366.267C159.154 366.826 154.94 368.466 156.176 370.56C157.413 372.654 160.84 369.608 162.399 367.824C161.381 369.775 159.924 373.834 162.238 374.462C164.553 375.09 164.815 370.727 164.657 368.466C165.076 370.162 167.676 374.619 169.445 373.283C170.861 372.213 168.446 368.831 167.062 367.273C167.837 367.981 172.988 369.409 173.348 367.221C173.635 365.47 169.47 364.879 167.352 364.802C168.2 364.592 173.009 362.206 171.673 360.436Z" fill="#E56610"/>
<circle cx="164.356" cy="365.626" r="2.0383" transform="rotate(76.1331 164.356 365.626)" fill="#FFB42E"/>
<path d="M166.556 371.297C165.486 369.882 162.292 372.25 160.828 373.611C161.894 371.448 163.475 367.079 161.272 366.903C159.069 366.727 158.318 370.731 158.218 372.756C157.329 370.776 155.226 367.196 153.922 368.717C152.618 370.239 154.967 373.358 156.305 374.728C154.072 373.779 149.673 372.406 149.95 374.497C150.226 376.588 154.297 377.123 156.298 377.129C154.036 377.687 149.822 379.327 151.059 381.421C152.296 383.515 155.723 380.47 157.282 378.685C156.264 380.636 154.807 384.695 157.121 385.323C159.436 385.952 159.698 381.588 159.54 379.328C159.959 381.024 162.559 385.481 164.328 384.144C165.744 383.075 163.329 379.692 161.945 378.134C162.72 378.843 167.871 380.27 168.23 378.082C168.518 376.331 164.353 375.74 162.235 375.663C163.083 375.454 167.892 373.067 166.556 371.297Z" fill="white"/>
<circle cx="159.239" cy="376.487" r="2.0383" transform="rotate(76.1331 159.239 376.487)" fill="#E56610"/>
<path d="M736.927 368.708C736.251 365.776 733.623 360.77 728.52 364.204C727.297 367.939 733.959 370.013 736.927 368.708Z" fill="#25861F" stroke="#25861F" stroke-width="0.423251"/>
<path d="M735.301 367.91L732.947 366.489M729.081 364.153L730.09 364.763M734.364 365.853C734.06 366.166 733.25 366.671 732.443 366.184M732.443 366.184L732.947 366.489M732.443 366.184L730.426 364.966M732.448 364.466C731.987 364.723 730.87 365.142 730.09 364.763M730.09 364.763L730.426 364.966M733.683 368.31C733.706 368.018 733.592 367.245 732.947 366.489M731.195 366.921C731.263 366.618 731.205 365.803 730.426 364.966" stroke="#1F6B19" stroke-width="0.423251" stroke-linecap="round"/>
<path d="M716.287 361.679C716.181 364.687 717.424 370.202 723.242 368.206C725.39 364.915 719.492 361.187 716.287 361.679Z" fill="#25861F" stroke="#25861F" stroke-width="0.423251"/>
<path d="M717.651 362.873L719.557 364.855M722.687 368.111L721.87 367.262M718.024 365.102C718.399 364.878 719.312 364.6 719.965 365.28M719.965 365.28L719.557 364.855M719.965 365.28L721.598 366.979M719.516 366.937C720.027 366.809 721.215 366.693 721.87 367.262M721.87 367.262L721.598 366.979M719.317 362.906C719.219 363.181 719.13 363.958 719.557 364.855M721.362 364.891C721.217 365.166 721.063 365.968 721.598 366.979" stroke="#1F6B19" stroke-width="0.423251" stroke-linecap="round"/>
<path d="M732.159 359.222C731.457 358.293 729.361 359.847 728.401 360.74C729.1 359.321 730.137 356.454 728.692 356.339C727.246 356.223 726.754 358.851 726.688 360.179C726.105 358.88 724.724 356.531 723.869 357.529C723.013 358.528 724.555 360.575 725.433 361.473C723.967 360.851 721.081 359.949 721.262 361.322C721.444 362.694 724.115 363.045 725.428 363.049C723.944 363.415 721.179 364.491 721.99 365.865C722.802 367.24 725.051 365.241 726.074 364.07C725.406 365.35 724.45 368.014 725.968 368.426C727.487 368.838 727.659 365.975 727.556 364.492C727.83 365.605 729.536 368.529 730.698 367.652C731.626 366.951 730.042 364.731 729.134 363.708C729.642 364.173 733.022 365.11 733.258 363.674C733.447 362.526 730.714 362.137 729.324 362.087C729.88 361.95 733.036 360.383 732.159 359.222Z" fill="#E56610"/>
<circle cx="727.358" cy="362.627" r="1.33751" transform="rotate(76.1331 727.358 362.627)" fill="#FFB42E"/>
<path d="M728.802 366.349C728.1 365.42 726.004 366.974 725.043 367.867C725.743 366.448 726.78 363.581 725.334 363.466C723.889 363.35 723.396 365.978 723.33 367.306C722.747 366.007 721.367 363.658 720.511 364.656C719.656 365.655 721.198 367.702 722.075 368.6C720.61 367.978 717.724 367.076 717.905 368.449C718.086 369.821 720.758 370.172 722.071 370.176C720.587 370.542 717.821 371.618 718.633 372.992C719.445 374.367 721.693 372.368 722.716 371.197C722.048 372.477 721.092 375.141 722.611 375.553C724.13 375.965 724.302 373.102 724.198 371.619C724.473 372.732 726.179 375.656 727.34 374.779C728.269 374.077 726.685 371.858 725.776 370.835C726.285 371.3 729.665 372.237 729.901 370.801C730.089 369.653 727.356 369.264 725.966 369.214C726.523 369.077 729.679 367.51 728.802 366.349Z" fill="white"/>
<circle cx="724.002" cy="369.754" r="1.33751" transform="rotate(76.1331 724.002 369.754)" fill="#E56610"/>
<path d="M514.15 318.698C512.787 315.091 509.121 306.013 507.356 307.337C506.274 308.148 507.419 319.509 514.15 318.698C514.165 318.88 514.18 319.06 514.197 319.239C519.669 318.806 523.315 311.124 522.774 310.853C518.446 310.637 515.252 316.353 514.197 319.239C514.18 319.06 514.165 318.88 514.15 318.698Z" fill="#237C1D"/>
<path d="M514.93 324.108C514.65 322.849 514.374 321.16 514.197 319.239M517.364 301.656C514.104 306.159 513.712 313.251 514.15 318.698M514.15 318.698C512.787 315.091 509.121 306.013 507.356 307.337C506.274 308.148 507.419 319.509 514.15 318.698ZM514.15 318.698C514.165 318.88 514.18 319.06 514.197 319.239M514.197 319.239C515.252 316.353 518.446 310.637 522.774 310.853C523.315 311.124 519.669 318.806 514.197 319.239Z" stroke="#237C1D" stroke-linecap="round"/>
<path d="M521.13 293.075C522.38 293.611 521.205 296.423 520.461 297.763C521.874 296.572 524.836 294.593 525.372 296.2C525.907 297.807 523.065 299.102 521.577 299.549C523.214 299.846 526.265 300.754 525.372 302.004C524.479 303.254 521.726 302.079 520.461 301.335C521.577 302.823 523.407 305.844 521.8 306.022C520.193 306.201 519.047 303.269 518.675 301.781C518.675 303.567 518.228 307.005 516.442 306.469C514.657 305.933 516.294 302.823 517.335 301.335C516.07 302.451 513.317 304.281 512.424 302.674C511.531 301.067 514.731 300.07 516.442 299.772C515.103 299.772 511.308 298.656 511.978 297.093C512.514 295.843 515.475 297.019 516.889 297.763C516.219 297.316 514.21 293.745 515.773 293.075C517.023 292.539 518.228 295.531 518.675 297.093C518.675 296.423 519.568 292.405 521.13 293.075Z" fill="#E56610"/>
<circle cx="1.56262" cy="1.56262" r="1.56262" transform="matrix(-1 0 0 1 520.175 297.912)" fill="#FFB42E"/>
<path d="M846.039 311.5C848.559 304.833 855.335 288.052 858.598 290.5C860.598 292 858.481 313 846.039 311.5C846.012 311.837 845.983 312.17 845.953 312.5C835.837 311.7 829.098 297.5 830.098 297C838.098 296.6 844.001 307.167 845.953 312.5C845.983 312.17 846.012 311.837 846.039 311.5Z" fill="#25861F"/>
<path d="M844.598 321.5C845.115 319.173 845.626 316.051 845.953 312.5M840.098 280C846.125 288.323 846.85 301.433 846.039 311.5M846.039 311.5C848.559 304.833 855.335 288.052 858.598 290.5C860.598 292 858.481 313 846.039 311.5ZM846.039 311.5C846.012 311.837 845.983 312.17 845.953 312.5M845.953 312.5C844.001 307.167 838.098 296.6 830.098 297C829.098 297.5 835.837 311.7 845.953 312.5Z" stroke="#25861F" stroke-linecap="round"/>
<path d="M832.325 264.142C829.961 265.155 832.184 270.475 833.592 273.008C830.918 270.756 825.317 267.013 824.303 270.052C823.29 273.092 828.666 275.541 831.481 276.385C828.385 276.948 822.615 278.665 824.303 281.029C825.992 283.393 831.199 281.17 833.592 279.762C831.481 282.577 828.019 288.291 831.058 288.628C834.098 288.966 836.265 283.421 836.969 280.607C836.969 283.984 837.813 290.486 841.191 289.473C844.568 288.459 841.472 282.577 839.502 279.762C841.894 281.873 847.101 285.335 848.79 282.296C850.479 279.256 844.428 277.37 841.191 276.807C843.724 276.807 850.901 274.696 849.634 271.741C848.621 269.377 843.02 271.6 840.346 273.008C841.613 272.163 845.413 265.408 842.457 264.142C840.093 263.129 837.813 268.786 836.969 271.741C836.969 270.475 835.28 262.875 832.325 264.142Z" fill="white"/>
<circle cx="837.5" cy="276.5" r="3.5" fill="#E56610"/>
<path d="M235.241 346.022C233.86 342.37 230.148 333.177 228.361 334.518C227.265 335.34 228.425 346.844 235.241 346.022C235.255 346.207 235.271 346.389 235.288 346.57C240.83 346.132 244.521 338.353 243.974 338.079C239.591 337.86 236.357 343.648 235.288 346.57C235.271 346.389 235.255 346.207 235.241 346.022Z" fill="#25861F"/>
<path d="M236.03 351.5C235.747 350.226 235.467 348.515 235.288 346.57M238.495 328.766C235.194 333.325 234.797 340.507 235.241 346.022M235.241 346.022C233.86 342.37 230.148 333.177 228.361 334.518C227.265 335.34 228.425 346.844 235.241 346.022ZM235.241 346.022C235.255 346.207 235.271 346.389 235.288 346.57M235.288 346.57C236.357 343.648 239.591 337.86 243.974 338.079C244.521 338.353 240.83 346.132 235.288 346.57Z" stroke="#25861F" stroke-linecap="round"/>
<path d="M242.754 320.078C244.049 320.633 242.831 323.547 242.06 324.935C243.525 323.701 246.593 321.65 247.148 323.316C247.703 324.981 244.758 326.322 243.216 326.785C244.912 327.093 248.073 328.034 247.148 329.329C246.223 330.624 243.371 329.406 242.06 328.635C243.216 330.177 245.113 333.307 243.448 333.492C241.782 333.677 240.595 330.64 240.21 329.098C240.21 330.948 239.747 334.51 237.897 333.955C236.047 333.399 237.743 330.177 238.822 328.635C237.511 329.792 234.659 331.688 233.734 330.023C232.809 328.358 236.124 327.325 237.897 327.016C236.509 327.016 232.577 325.86 233.271 324.241C233.826 322.946 236.895 324.164 238.359 324.935C237.666 324.472 235.584 320.772 237.203 320.078C238.498 319.523 239.747 322.622 240.21 324.241C240.21 323.547 241.135 319.384 242.754 320.078Z" fill="white"/>
<circle cx="1.91739" cy="1.91739" r="1.91739" transform="matrix(-1 0 0 1 241.836 324.93)" fill="#E56610"/>
<path d="M247.367 292.724C249.686 286.587 255.923 271.141 258.927 273.394C260.768 274.774 258.819 294.105 247.367 292.724C247.342 293.034 247.315 293.341 247.287 293.644C237.975 292.908 231.772 279.837 232.693 279.377C240.057 279.009 245.491 288.735 247.287 293.644C247.315 293.341 247.342 293.034 247.367 292.724Z" fill="#237C1D"/>
<path d="M246.04 301.929C246.516 299.787 246.986 296.913 247.287 293.644M241.898 263.729C247.445 271.389 248.112 283.457 247.367 292.724M247.367 292.724C249.686 286.587 255.923 271.141 258.927 273.394C260.768 274.774 258.819 294.105 247.367 292.724ZM247.367 292.724C247.342 293.034 247.315 293.341 247.287 293.644M247.287 293.644C245.491 288.735 240.057 279.009 232.693 279.377C231.772 279.837 237.975 292.908 247.287 293.644Z" stroke="#237C1D" stroke-linecap="round"/>
<path d="M235.49 249.128C233.363 250.039 235.363 254.825 236.629 257.104C234.224 255.078 229.185 251.71 228.273 254.445C227.361 257.18 232.198 259.383 234.73 260.142C231.945 260.649 226.754 262.193 228.273 264.32C229.792 266.447 234.477 264.447 236.629 263.181C234.73 265.713 231.616 270.853 234.35 271.157C237.085 271.461 239.035 266.473 239.668 263.941C239.668 266.979 240.427 272.829 243.466 271.917C246.505 271.005 243.719 265.713 241.947 263.181C244.099 265.08 248.784 268.195 250.303 265.46C251.822 262.725 246.378 261.029 243.466 260.522C245.745 260.522 252.202 258.623 251.062 255.964C250.151 253.837 245.112 255.838 242.706 257.104C243.846 256.344 247.264 250.267 244.605 249.128C242.478 248.216 240.427 253.306 239.668 255.964C239.668 254.825 238.149 247.988 235.49 249.128Z" fill="#E56610"/>
<circle cx="239.774" cy="260.014" r="2.65876" fill="#FFB42E"/>
</g>
<defs>
<clipPath id="clip0_595_7785">
<rect width="905" height="412" fill="white"/>
</clipPath>
</defs>
</svg>
