<svg width="91" height="38" viewBox="0 0 91 38" fill="none" xmlns="http://www.w3.org/2000/svg">
<mask id="mask0_603_5910" style="mask-type:alpha" maskUnits="userSpaceOnUse" x="0" y="0" width="91" height="38">
<rect width="91" height="38" fill="#D9D9D9"/>
</mask>
<g mask="url(#mask0_603_5910)">
<path d="M87.2647 15.4399L77.2527 8.84039L66.9882 2.07342C64.8127 0.639677 61.8559 2.13588 61.8559 4.67119L61.8559 9.10869L36.6909 12.7461L9.87613 16.8012C-0.965866 17.9397 -0.965866 19.8021 9.87613 20.9406L36.6909 24.9957L61.856 28.6331L61.856 32.808C61.856 35.5534 65.0579 37.176 67.415 35.623L77.2527 29.1371L87.2647 22.5376C89.8582 20.827 89.8582 17.1476 87.2647 15.4384L87.2647 15.4399Z" fill="#75CEF8"/>
<mask id="mask1_603_5910" style="mask-type:luminance" maskUnits="userSpaceOnUse" x="-30" y="12" width="129" height="33">
<path d="M88.3756 12.8058L69.39 28.1341C68.5407 28.8197 67.2455 28.2391 67.2455 27.1745L67.2455 25.4497C67.2455 24.7896 66.7138 24.2431 66.0285 24.1991L-8.53917 19.3954C-9.78125 19.3159 -10.2125 17.7686 -9.17868 17.1028C-8.09167 16.4015 -8.63665 14.7705 -9.9452 14.8074L-27.7597 15.3199C-28.7773 15.3497 -29.3695 16.4385 -28.8142 17.2575L-21.9672 27.3548C-21.7442 27.6841 -21.372 27.8942 -20.9629 27.9212L56.9854 33.067C57.554 33.1039 58.0311 33.4915 58.164 34.0238L60.4414 43.106C60.6585 43.9705 61.7145 44.3496 62.4677 43.8329L98.3462 19.2378C99.1275 18.7026 99.0596 17.5656 98.2207 17.1198L89.8452 12.6681C89.3725 12.4169 88.7877 12.4722 88.3742 12.8058L88.3756 12.8058Z" fill="white"/>
</mask>
<g mask="url(#mask1_603_5910)">
<path d="M87.1166 15.7231L77.1047 9.12359L66.8401 2.35662C64.6647 0.92288 61.7079 2.41908 61.7079 4.95439L61.7079 9.39189L37.188 14.2695L10.3732 17.0844C-0.468796 18.2229 -0.468796 20.0853 10.3732 21.2238L37.188 24.0388L61.7079 28.9163L61.7079 33.0912C61.7079 35.8366 64.9098 37.4592 67.267 35.9062L77.1047 29.4203L87.1166 22.8208C89.7101 21.1102 89.7101 17.4308 87.1166 15.7216L87.1166 15.7231Z" fill="#60B7FF"/>
</g>
<path d="M87.339 15.4399L77.3271 8.84039L67.0626 2.07342C64.8871 0.639677 61.9303 2.13588 61.9303 4.67119L61.9303 9.10869L36.1201 12.7461L9.30532 16.8012C-1.53667 17.9397 -1.53667 19.8021 9.30533 20.9406L36.1201 24.9957L61.9303 28.6331L61.9303 32.808C61.9303 35.5534 65.1322 37.176 67.4894 35.623L77.3271 29.1371L87.339 22.5376C89.9325 20.827 89.9325 17.1476 87.339 15.4384L87.339 15.4399Z" stroke="black" stroke-width="2.40005" stroke-miterlimit="10"/>
</g>
</svg>
