<svg width="91" height="38" viewBox="0 0 91 38" fill="none" xmlns="http://www.w3.org/2000/svg">
<mask id="mask0_603_5921" style="mask-type:alpha" maskUnits="userSpaceOnUse" x="0" y="0" width="91" height="38">
<rect x="91" y="38" width="91" height="38" transform="rotate(-180 91 38)" fill="#D9D9D9"/>
</mask>
<g mask="url(#mask0_603_5921)">
<path d="M3.7353 22.5601L13.7473 29.1596L24.0118 35.9266C26.1873 37.3603 29.1441 35.8641 29.1441 33.3288L29.1441 28.8913L54.3091 25.2539L81.1239 21.1988C91.9659 20.0603 91.9659 18.1979 81.1239 17.0594L54.3091 13.0042L29.1441 9.36686L29.1441 5.19197C29.1441 2.44657 25.9421 0.824029 23.585 2.37701L13.7473 8.86292L3.7353 15.4624C1.14184 17.1729 1.14184 20.8524 3.7353 22.5615L3.7353 22.5601Z" fill="#75CEF8"/>
<mask id="mask1_603_5921" style="mask-type:luminance" maskUnits="userSpaceOnUse" x="-8" y="-7" width="129" height="33">
<path d="M2.62438 25.1941L21.61 9.86589C22.4593 9.18025 23.7545 9.76084 23.7545 10.8255L23.7545 12.5502C23.7545 13.2103 24.2862 13.7569 24.9715 13.8009L99.5392 18.6046C100.781 18.6841 101.213 20.2314 100.179 20.8972C99.0917 21.5984 99.6367 23.2295 100.945 23.1926L118.76 22.6801C119.777 22.6503 120.37 21.5615 119.814 20.7425L112.967 10.6452C112.744 10.3159 112.372 10.1058 111.963 10.0788L34.0146 4.93297C33.446 4.89606 32.969 4.50852 32.836 3.97619L30.5586 -5.10607C30.3415 -5.97057 29.2855 -6.34959 28.5323 -5.83288L-7.34624 18.7622C-8.12753 19.2973 -8.05959 20.4344 -7.22071 20.8801L1.15484 25.3318C1.62745 25.5831 2.2123 25.5277 2.62584 25.1941L2.62438 25.1941Z" fill="white"/>
</mask>
<g mask="url(#mask1_603_5921)">
<path d="M3.88337 22.2769L13.8953 28.8764L24.1599 35.6434C26.3353 37.0771 29.2921 35.5809 29.2921 33.0456L29.2921 28.6081L53.812 23.7305L80.6268 20.9156C91.4688 19.7771 91.4688 17.9147 80.6268 16.7762L53.812 13.9612L29.2921 9.08365L29.2921 4.90877C29.2921 2.16337 26.0902 0.540826 23.733 2.09381L13.8953 8.57971L3.88337 15.1792C1.28992 16.8897 1.28991 20.5692 3.88337 22.2783L3.88337 22.2769Z" fill="#60B7FF"/>
</g>
<path d="M3.66096 22.5601L13.6729 29.1596L23.9375 35.9266C26.1129 37.3603 29.0697 35.8641 29.0697 33.3288L29.0697 28.8913L54.8799 25.2539L81.6947 21.1988C92.5367 20.0603 92.5367 18.1979 81.6947 17.0594L54.8799 13.0042L29.0697 9.36686L29.0697 5.19197C29.0697 2.44657 25.8678 0.824029 23.5106 2.37701L13.6729 8.86292L3.66096 15.4624C1.0675 17.1729 1.0675 20.8524 3.66096 22.5615L3.66096 22.5601Z" stroke="black" stroke-miterlimit="10"/>
</g>
</svg>
