<svg width="151" height="74" viewBox="0 0 151 74" fill="none" xmlns="http://www.w3.org/2000/svg">
<path d="M148.822 46H2.17758C1.52722 46 1 46.2862 1 46.6391V48.3609C1 48.7138 1.52722 49 2.17758 49H148.822C149.473 49 150 48.7138 150 48.3609V46.6391C150 46.2862 149.473 46 148.822 46Z" fill="#594738" stroke="black" stroke-miterlimit="10"/>
<path d="M145.613 49.3789H5.05664V72.766H145.613V49.3789Z" fill="#FEB62B" stroke="black" stroke-miterlimit="10"/>
<mask id="mask0_631_5560" style="mask-type:alpha" maskUnits="userSpaceOnUse" x="6" y="50" width="139" height="23">
<path d="M145 50H6V73H145V50Z" fill="#FEB62B"/>
</mask>
<g mask="url(#mask0_631_5560)">
<path d="M35.9534 53.4422L37.8815 54.5554C37.8913 54.5611 37.8974 54.5717 37.8974 54.5831V56.8094C37.8974 56.8208 37.8913 56.8314 37.8815 56.8371L35.9534 57.9502C35.9435 57.9559 35.9313 57.9559 35.9215 57.9502L33.9934 56.8371C33.9835 56.8314 33.9774 56.8208 33.9774 56.8094V54.5831C33.9774 54.5717 33.9835 54.5611 33.9934 54.5554L35.9215 53.4422C35.9313 53.4365 35.9435 53.4365 35.9534 53.4422Z" fill="#FED22B" stroke="black" stroke-width="0.75"/>
<path d="M52.64 53.4422L54.568 54.5554C54.5779 54.5611 54.584 54.5717 54.584 54.5831V56.8094C54.584 56.8208 54.5779 56.8314 54.568 56.8371L52.64 57.9502C52.6301 57.9559 52.6179 57.9559 52.608 57.9502L50.6799 56.8371C50.6701 56.8314 50.664 56.8208 50.664 56.8094V54.5831C50.664 54.5717 50.6701 54.5611 50.6799 54.5554L52.608 53.4422C52.6179 53.4365 52.6301 53.4365 52.64 53.4422Z" fill="#FED22B" stroke="black" stroke-width="0.75"/>
<path d="M19.2679 53.4422L21.1959 54.5554C21.2058 54.5611 21.2119 54.5717 21.2119 54.5831V56.8094C21.2119 56.8208 21.2058 56.8314 21.1959 56.8371L19.2679 57.9502C19.258 57.9559 19.2458 57.9559 19.2359 57.9502L17.3079 56.8371C17.298 56.8314 17.2919 56.8208 17.2919 56.8094V54.5831C17.2919 54.5717 17.298 54.5611 17.3079 54.5554L19.2359 53.4422C19.2458 53.4365 19.258 53.4365 19.2679 53.4422Z" fill="#FE9D2B" stroke="black" stroke-width="0.75"/>
<path d="M44.2972 53.4422L46.2252 54.5554C46.2351 54.5611 46.2412 54.5717 46.2412 54.5831V56.8094C46.2412 56.8208 46.2351 56.8314 46.2252 56.8371L44.2972 57.9502C44.2873 57.9559 44.2751 57.9559 44.2652 57.9502L42.3372 56.8371C42.3273 56.8314 42.3212 56.8208 42.3212 56.8094V54.5831C42.3212 54.5717 42.3273 54.5611 42.3372 54.5554L44.2652 53.4422C44.2751 53.4365 44.2873 53.4365 44.2972 53.4422Z" fill="#FE9D2B" stroke="black" stroke-width="0.75"/>
<path d="M10.9251 53.4422L12.8531 54.5554C12.863 54.5611 12.8691 54.5717 12.8691 54.5831V56.8094C12.8691 56.8208 12.863 56.8314 12.8531 56.8371L10.9251 57.9502C10.9152 57.9559 10.903 57.9559 10.8931 57.9502L8.96511 56.8371C8.95521 56.8314 8.94912 56.8208 8.94912 56.8094V54.5831C8.94912 54.5717 8.95521 54.5611 8.96511 54.5554L10.8931 53.4422C10.903 53.4365 10.9152 53.4365 10.9251 53.4422Z" fill="#FED22B" stroke="black" stroke-width="0.75"/>
<path d="M60.9837 53.4422L62.9117 54.5554C62.9216 54.5611 62.9277 54.5717 62.9277 54.5831V56.8094C62.9277 56.8208 62.9216 56.8314 62.9117 56.8371L60.9837 57.9502C60.9738 57.9559 60.9616 57.9559 60.9517 57.9502L59.0237 56.8371C59.0138 56.8314 59.0077 56.8208 59.0077 56.8094V54.5831C59.0077 54.5717 59.0138 54.5611 59.0237 54.5554L60.9517 53.4422C60.9616 53.4365 60.9738 53.4365 60.9837 53.4422Z" fill="#FED22B" stroke="black" stroke-width="0.75"/>
<path d="M27.6107 53.4422L29.5387 54.5554C29.5486 54.5611 29.5547 54.5717 29.5547 54.5831V56.8094C29.5547 56.8208 29.5486 56.8314 29.5387 56.8371L27.6107 57.9502C27.6008 57.9559 27.5886 57.9559 27.5787 57.9502L25.6507 56.8371C25.6408 56.8314 25.6347 56.8208 25.6347 56.8094V54.5831C25.6347 54.5717 25.6408 54.5611 25.6507 54.5554L27.5787 53.4422C27.5886 53.4365 27.6008 53.4365 27.6107 53.4422Z" fill="#FED22B" stroke="black" stroke-width="0.75"/>
<path d="M40.1253 53.4422L42.0533 54.5554C42.0632 54.5611 42.0693 54.5717 42.0693 54.5831V56.8094C42.0693 56.8208 42.0632 56.8314 42.0533 56.8371L40.1253 57.9502C40.1154 57.9559 40.1032 57.9559 40.0933 57.9502L38.1653 56.8371C38.1554 56.8314 38.1493 56.8208 38.1493 56.8094V54.5831C38.1493 54.5717 38.1554 54.5611 38.1653 54.5554L40.0933 53.4422C40.1032 53.4365 40.1154 53.4365 40.1253 53.4422Z" fill="#FED22B" stroke="black" stroke-width="0.75"/>
<path d="M6.75323 53.4422L8.68126 54.5554C8.69115 54.5611 8.69725 54.5717 8.69725 54.5831V56.8094C8.69725 56.8208 8.69115 56.8314 8.68126 56.8371L6.75323 57.9502C6.74334 57.9559 6.73115 57.9559 6.72126 57.9502L4.79323 56.8371C4.78334 56.8314 4.77724 56.8208 4.77724 56.8094V54.5831C4.77724 54.5717 4.78334 54.5611 4.79323 54.5554L6.72126 53.4422C6.73115 53.4365 6.74334 53.4365 6.75323 53.4422Z" fill="#FE9D2B" stroke="black" stroke-width="0.75"/>
<path d="M56.8118 53.4422L58.7399 54.5554C58.7497 54.5611 58.7558 54.5717 58.7558 54.5831V56.8094C58.7558 56.8208 58.7497 56.8314 58.7399 56.8371L56.8118 57.9502C56.8019 57.9559 56.7897 57.9559 56.7798 57.9502L54.8518 56.8371C54.8419 56.8314 54.8358 56.8208 54.8358 56.8094V54.5831C54.8358 54.5717 54.8419 54.5611 54.8518 54.5554L56.7798 53.4422C56.7897 53.4365 56.8019 53.4365 56.8118 53.4422Z" fill="#FE9D2B" stroke="black" stroke-width="0.75"/>
<path d="M23.4398 53.4422L25.3678 54.5554C25.3777 54.5611 25.3838 54.5717 25.3838 54.5831V56.8094C25.3838 56.8208 25.3777 56.8314 25.3678 56.8371L23.4398 57.9502C23.4299 57.9559 23.4177 57.9559 23.4078 57.9502L21.4798 56.8371C21.4699 56.8314 21.4638 56.8208 21.4638 56.8094V54.5831C21.4638 54.5717 21.4699 54.5611 21.4798 54.5554L23.4078 53.4422C23.4177 53.4365 23.4299 53.4365 23.4398 53.4422Z" fill="#FED22B" stroke="black" stroke-width="0.75"/>
<path d="M48.4691 53.4422L50.3971 54.5554C50.407 54.5611 50.4131 54.5717 50.4131 54.5831V56.8094C50.4131 56.8208 50.407 56.8314 50.3971 56.8371L48.4691 57.9502C48.4592 57.9559 48.447 57.9559 48.4371 57.9502L46.5091 56.8371C46.4992 56.8314 46.4931 56.8208 46.4931 56.8094V54.5831C46.4931 54.5717 46.4992 54.5611 46.5091 54.5554L48.4371 53.4422C48.447 53.4365 48.4592 53.4365 48.4691 53.4422Z" fill="#FED22B" stroke="black" stroke-width="0.75"/>
<path d="M15.097 53.4422L17.025 54.5554C17.0349 54.5611 17.041 54.5717 17.041 54.5831V56.8094C17.041 56.8208 17.0349 56.8314 17.025 56.8371L15.097 57.9502C15.0871 57.9559 15.0749 57.9559 15.065 57.9502L13.137 56.8371C13.1271 56.8314 13.121 56.8208 13.121 56.8094V54.5831C13.121 54.5717 13.1271 54.5611 13.137 54.5554L15.065 53.4422C15.0749 53.4365 15.0871 53.4365 15.097 53.4422Z" fill="#FED22B" stroke="black" stroke-width="0.75"/>
<path d="M65.1546 53.4422L67.0826 54.5554C67.0925 54.5611 67.0986 54.5717 67.0986 54.5831V56.8094C67.0986 56.8208 67.0925 56.8314 67.0826 56.8371L65.1546 57.9502C65.1447 57.9559 65.1325 57.9559 65.1226 57.9502L63.1946 56.8371C63.1847 56.8314 63.1786 56.8208 63.1786 56.8094V54.5831C63.1786 54.5717 63.1847 54.5611 63.1946 54.5554L65.1226 53.4422C65.1325 53.4365 65.1447 53.4365 65.1546 53.4422Z" fill="#FED22B" stroke="black" stroke-width="0.75"/>
<path d="M31.7816 53.4422L33.7096 54.5554C33.7195 54.5611 33.7256 54.5717 33.7256 54.5831V56.8094C33.7256 56.8208 33.7195 56.8314 33.7096 56.8371L31.7816 57.9502C31.7717 57.9559 31.7595 57.9559 31.7496 57.9502L29.8216 56.8371C29.8117 56.8314 29.8056 56.8208 29.8056 56.8094V54.5831C29.8056 54.5717 29.8117 54.5611 29.8216 54.5554L31.7496 53.4422C31.7595 53.4365 31.7717 53.4365 31.7816 53.4422Z" fill="#FE9D2B" stroke="black" stroke-width="0.75"/>
<path d="M35.9534 60.5653L37.8815 61.6784C37.8913 61.6841 37.8974 61.6947 37.8974 61.7061V63.9324C37.8974 63.9438 37.8913 63.9544 37.8815 63.9601L35.9534 65.0733C35.9435 65.079 35.9313 65.079 35.9215 65.0733L33.9934 63.9601C33.9835 63.9544 33.9774 63.9438 33.9774 63.9324V61.7061C33.9774 61.6947 33.9835 61.6841 33.9934 61.6784L35.9215 60.5653C35.9313 60.5596 35.9435 60.5596 35.9534 60.5653Z" fill="#FED22B" stroke="black" stroke-width="0.75"/>
<path d="M52.64 60.5653L54.568 61.6784C54.5779 61.6841 54.584 61.6947 54.584 61.7061V63.9324C54.584 63.9438 54.5779 63.9544 54.568 63.9601L52.64 65.0733C52.6301 65.079 52.6179 65.079 52.608 65.0733L50.6799 63.9601C50.6701 63.9544 50.664 63.9438 50.664 63.9324V61.7061C50.664 61.6947 50.6701 61.6841 50.6799 61.6784L52.608 60.5653C52.6179 60.5596 52.6301 60.5596 52.64 60.5653Z" fill="#FED22B" stroke="black" stroke-width="0.75"/>
<path d="M19.2679 60.5653L21.1959 61.6784C21.2058 61.6841 21.2119 61.6947 21.2119 61.7061V63.9324C21.2119 63.9438 21.2058 63.9544 21.1959 63.9601L19.2679 65.0733C19.258 65.079 19.2458 65.079 19.2359 65.0733L17.3079 63.9601C17.298 63.9544 17.2919 63.9438 17.2919 63.9324V61.7061C17.2919 61.6947 17.298 61.6841 17.3079 61.6784L19.2359 60.5653C19.2458 60.5596 19.258 60.5596 19.2679 60.5653Z" fill="#FEB62B" stroke="black" stroke-width="0.75"/>
<path d="M44.2972 60.5653L46.2252 61.6784C46.2351 61.6841 46.2412 61.6947 46.2412 61.7061V63.9324C46.2412 63.9438 46.2351 63.9544 46.2252 63.9601L44.2972 65.0733C44.2873 65.079 44.2751 65.079 44.2652 65.0733L42.3372 63.9601C42.3273 63.9544 42.3212 63.9438 42.3212 63.9324V61.7061C42.3212 61.6947 42.3273 61.6841 42.3372 61.6784L44.2652 60.5653C44.2751 60.5596 44.2873 60.5596 44.2972 60.5653Z" fill="#FEB62B" stroke="black" stroke-width="0.75"/>
<path d="M10.9251 60.5653L12.8531 61.6784C12.863 61.6841 12.8691 61.6947 12.8691 61.7061V63.9324C12.8691 63.9438 12.863 63.9544 12.8531 63.9601L10.9251 65.0733C10.9152 65.079 10.903 65.079 10.8931 65.0733L8.96511 63.9601C8.95521 63.9544 8.94912 63.9438 8.94912 63.9324V61.7061C8.94912 61.6947 8.95521 61.6841 8.96511 61.6784L10.8931 60.5653C10.903 60.5596 10.9152 60.5596 10.9251 60.5653Z" fill="#FED22B" stroke="black" stroke-width="0.75"/>
<path d="M60.9837 60.5653L62.9117 61.6784C62.9216 61.6841 62.9277 61.6947 62.9277 61.7061V63.9324C62.9277 63.9438 62.9216 63.9544 62.9117 63.9601L60.9837 65.0733C60.9738 65.079 60.9616 65.079 60.9517 65.0733L59.0237 63.9601C59.0138 63.9544 59.0077 63.9438 59.0077 63.9324V61.7061C59.0077 61.6947 59.0138 61.6841 59.0237 61.6784L60.9517 60.5653C60.9616 60.5596 60.9738 60.5596 60.9837 60.5653Z" fill="#FED22B" stroke="black" stroke-width="0.75"/>
<path d="M27.6107 60.5653L29.5387 61.6784C29.5486 61.6841 29.5547 61.6947 29.5547 61.7061V63.9324C29.5547 63.9438 29.5486 63.9544 29.5387 63.9601L27.6107 65.0733C27.6008 65.079 27.5886 65.079 27.5787 65.0733L25.6507 63.9601C25.6408 63.9544 25.6347 63.9438 25.6347 63.9324V61.7061C25.6347 61.6947 25.6408 61.6841 25.6507 61.6784L27.5787 60.5653C27.5886 60.5596 27.6008 60.5596 27.6107 60.5653Z" fill="#FED22B" stroke="black" stroke-width="0.75"/>
<path d="M40.1253 60.5653L42.0533 61.6784C42.0632 61.6841 42.0693 61.6947 42.0693 61.7061V63.9324C42.0693 63.9438 42.0632 63.9544 42.0533 63.9601L40.1253 65.0733C40.1154 65.079 40.1032 65.079 40.0933 65.0733L38.1653 63.9601C38.1554 63.9544 38.1493 63.9438 38.1493 63.9324V61.7061C38.1493 61.6947 38.1554 61.6841 38.1653 61.6784L40.0933 60.5653C40.1032 60.5596 40.1154 60.5596 40.1253 60.5653Z" fill="#FED22B" stroke="black" stroke-width="0.75"/>
<path d="M6.75323 60.5653L8.68126 61.6784C8.69115 61.6841 8.69725 61.6947 8.69725 61.7061V63.9324C8.69725 63.9438 8.69115 63.9544 8.68126 63.9601L6.75323 65.0733C6.74334 65.079 6.73115 65.079 6.72126 65.0733L4.79323 63.9601C4.78334 63.9544 4.77724 63.9438 4.77724 63.9324V61.7061C4.77724 61.6947 4.78334 61.6841 4.79323 61.6784L6.72126 60.5653C6.73115 60.5596 6.74334 60.5596 6.75323 60.5653Z" fill="#FEB62B" stroke="black" stroke-width="0.75"/>
<path d="M56.8118 60.5653L58.7399 61.6784C58.7497 61.6841 58.7558 61.6947 58.7558 61.7061V63.9324C58.7558 63.9438 58.7497 63.9544 58.7399 63.9601L56.8118 65.0733C56.8019 65.079 56.7897 65.079 56.7798 65.0733L54.8518 63.9601C54.8419 63.9544 54.8358 63.9438 54.8358 63.9324V61.7061C54.8358 61.6947 54.8419 61.6841 54.8518 61.6784L56.7798 60.5653C56.7897 60.5596 56.8019 60.5596 56.8118 60.5653Z" fill="#FEB62B" stroke="black" stroke-width="0.75"/>
<path d="M23.4398 60.5653L25.3678 61.6784C25.3777 61.6841 25.3838 61.6947 25.3838 61.7061V63.9324C25.3838 63.9438 25.3777 63.9544 25.3678 63.9601L23.4398 65.0733C23.4299 65.079 23.4177 65.079 23.4078 65.0733L21.4798 63.9601C21.4699 63.9544 21.4638 63.9438 21.4638 63.9324V61.7061C21.4638 61.6947 21.4699 61.6841 21.4798 61.6784L23.4078 60.5653C23.4177 60.5596 23.4299 60.5596 23.4398 60.5653Z" fill="#FED22B" stroke="black" stroke-width="0.75"/>
<path d="M48.4691 60.5653L50.3971 61.6784C50.407 61.6841 50.4131 61.6947 50.4131 61.7061V63.9324C50.4131 63.9438 50.407 63.9544 50.3971 63.9601L48.4691 65.0733C48.4592 65.079 48.447 65.079 48.4371 65.0733L46.5091 63.9601C46.4992 63.9544 46.4931 63.9438 46.4931 63.9324V61.7061C46.4931 61.6947 46.4992 61.6841 46.5091 61.6784L48.4371 60.5653C48.447 60.5596 48.4592 60.5596 48.4691 60.5653Z" fill="#FED22B" stroke="black" stroke-width="0.75"/>
<path d="M15.097 60.5653L17.025 61.6784C17.0349 61.6841 17.041 61.6947 17.041 61.7061V63.9324C17.041 63.9438 17.0349 63.9544 17.025 63.9601L15.097 65.0733C15.0871 65.079 15.0749 65.079 15.065 65.0733L13.137 63.9601C13.1271 63.9544 13.121 63.9438 13.121 63.9324V61.7061C13.121 61.6947 13.1271 61.6841 13.137 61.6784L15.065 60.5653C15.0749 60.5596 15.0871 60.5596 15.097 60.5653Z" fill="#FED22B" stroke="black" stroke-width="0.75"/>
<path d="M65.1546 60.5653L67.0826 61.6784C67.0925 61.6841 67.0986 61.6947 67.0986 61.7061V63.9324C67.0986 63.9438 67.0925 63.9544 67.0826 63.9601L65.1546 65.0733C65.1447 65.079 65.1325 65.079 65.1226 65.0733L63.1946 63.9601C63.1847 63.9544 63.1786 63.9438 63.1786 63.9324V61.7061C63.1786 61.6947 63.1847 61.6841 63.1946 61.6784L65.1226 60.5653C65.1325 60.5596 65.1447 60.5596 65.1546 60.5653Z" fill="#FED22B" stroke="black" stroke-width="0.75"/>
<path d="M31.7816 60.5653L33.7096 61.6784C33.7195 61.6841 33.7256 61.6947 33.7256 61.7061V63.9324C33.7256 63.9438 33.7195 63.9544 33.7096 63.9601L31.7816 65.0733C31.7717 65.079 31.7595 65.079 31.7496 65.0733L29.8216 63.9601C29.8117 63.9544 29.8056 63.9438 29.8056 63.9324V61.7061C29.8056 61.6947 29.8117 61.6841 29.8216 61.6784L31.7496 60.5653C31.7595 60.5596 31.7717 60.5596 31.7816 60.5653Z" fill="#FEB62B" stroke="black" stroke-width="0.75"/>
<path d="M33.8654 57.0049L35.79 58.1177C35.7998 58.1234 35.8059 58.134 35.8059 58.1454V60.3721C35.8059 60.3835 35.7998 60.394 35.79 60.3997L33.8654 61.5125C33.8555 61.5183 33.8433 61.5183 33.8334 61.5125L31.9089 60.3997C31.899 60.394 31.8929 60.3835 31.8929 60.3721V58.1454C31.8929 58.134 31.899 58.1234 31.9089 58.1177L33.8334 57.0049C33.8433 56.9992 33.8555 56.9992 33.8654 57.0049Z" fill="#FED22B" stroke="black" stroke-width="0.75"/>
<path d="M50.5266 57.0049L52.4511 58.1177C52.461 58.1234 52.4671 58.134 52.4671 58.1454V60.3721C52.4671 60.3835 52.461 60.394 52.4511 60.3997L50.5266 61.5125C50.5167 61.5183 50.5044 61.5183 50.4945 61.5125L48.57 60.3997C48.5601 60.394 48.554 60.3835 48.554 60.3721V58.1454C48.554 58.134 48.5601 58.1234 48.57 58.1177L50.4945 57.0049C50.5044 56.9992 50.5167 56.9992 50.5266 57.0049Z" fill="#FEB62B" stroke="black" stroke-width="0.75"/>
<path d="M17.2043 57.0049L19.1288 58.1177C19.1387 58.1234 19.1448 58.134 19.1448 58.1454V60.3721C19.1448 60.3835 19.1387 60.394 19.1288 60.3997L17.2043 61.5125C17.1944 61.5183 17.1822 61.5183 17.1723 61.5125L15.2478 60.3997C15.2379 60.394 15.2318 60.3835 15.2318 60.3721V58.1454C15.2318 58.134 15.2379 58.1234 15.2478 58.1177L17.1723 57.0049C17.1822 56.9992 17.1944 56.9992 17.2043 57.0049Z" fill="#FED22B" stroke="black" stroke-width="0.75"/>
<path d="M42.1965 57.0049L44.121 58.1177C44.1309 58.1234 44.137 58.134 44.137 58.1454V60.3721C44.137 60.3835 44.1309 60.394 44.121 60.3997L42.1965 61.5125C42.1866 61.5183 42.1744 61.5183 42.1645 61.5125L40.2399 60.3997C40.2301 60.394 40.224 60.3835 40.224 60.3721V58.1454C40.224 58.134 40.2301 58.1234 40.2399 58.1177L42.1645 57.0049C42.1744 56.9992 42.1866 56.9992 42.1965 57.0049Z" fill="#FED22B" stroke="black" stroke-width="0.75"/>
<path d="M8.87324 57.0049L10.7978 58.1177C10.8077 58.1234 10.8137 58.134 10.8137 58.1454V60.3721C10.8137 60.3835 10.8077 60.394 10.7978 60.3997L8.87324 61.5125C8.86334 61.5183 8.85113 61.5183 8.84123 61.5125L6.9167 60.3997C6.90681 60.394 6.90072 60.3835 6.90072 60.3721V58.1454C6.90072 58.134 6.90681 58.1234 6.9167 58.1177L8.84122 57.0049C8.85113 56.9992 8.86334 56.9992 8.87324 57.0049Z" fill="#FED22B" stroke="black" stroke-width="0.75"/>
<path d="M58.8576 57.0049L60.7821 58.1177C60.792 58.1234 60.7981 58.134 60.7981 58.1454V60.3721C60.7981 60.3835 60.792 60.394 60.7821 60.3997L58.8576 61.5125C58.8477 61.5183 58.8355 61.5183 58.8256 61.5125L56.9011 60.3997C56.8912 60.394 56.8851 60.3835 56.8851 60.3721V58.1454C56.8851 58.134 56.8912 58.1234 56.9011 58.1177L58.8256 57.0049C58.8355 56.9992 58.8477 56.9992 58.8576 57.0049Z" fill="#FED22B" stroke="black" stroke-width="0.75"/>
<path d="M25.5344 57.0049L27.4589 58.1177C27.4688 58.1234 27.4749 58.134 27.4749 58.1454V60.3721C27.4749 60.3835 27.4688 60.394 27.4589 60.3997L25.5344 61.5125C25.5245 61.5183 25.5123 61.5183 25.5024 61.5125L23.5778 60.3997C23.5679 60.394 23.5619 60.3835 23.5619 60.3721V58.1454C23.5619 58.134 23.5679 58.1234 23.5778 58.1177L25.5024 57.0049C25.5123 56.9992 25.5245 56.9992 25.5344 57.0049Z" fill="#FEB62B" stroke="black" stroke-width="0.75"/>
<path d="M38.0305 57.0049L39.955 58.1177C39.9649 58.1234 39.971 58.134 39.971 58.1454V60.3721C39.971 60.3835 39.9649 60.394 39.955 60.3997L38.0305 61.5125C38.0206 61.5183 38.0084 61.5183 37.9985 61.5125L36.0739 60.3997C36.064 60.394 36.058 60.3835 36.058 60.3721V58.1454C36.058 58.134 36.064 58.1234 36.0739 58.1177L37.9985 57.0049C38.0084 56.9992 38.0206 56.9992 38.0305 57.0049Z" fill="#FEB62B" stroke="black" stroke-width="0.75"/>
<path d="M4.7082 57.0049L6.63273 58.1177C6.64261 58.1234 6.6487 58.134 6.6487 58.1454V60.3721C6.6487 60.3835 6.64261 60.394 6.63273 60.3997L4.7082 61.5125C4.6983 61.5183 4.68609 61.5183 4.67619 61.5125L2.75166 60.3997C2.74177 60.394 2.73569 60.3835 2.73569 60.3721V58.1454C2.73569 58.134 2.74177 58.1234 2.75166 58.1177L4.67619 57.0049C4.68609 56.9992 4.6983 56.9992 4.7082 57.0049Z" fill="#FED22B" stroke="black" stroke-width="0.75"/>
<path d="M54.6916 57.0049L56.6161 58.1177C56.626 58.1234 56.6321 58.134 56.6321 58.1454V60.3721C56.6321 60.3835 56.626 60.394 56.6161 60.3997L54.6916 61.5125C54.6817 61.5183 54.6695 61.5183 54.6596 61.5125L52.7351 60.3997C52.7252 60.394 52.7191 60.3835 52.7191 60.3721V58.1454C52.7191 58.134 52.7252 58.1234 52.7351 58.1177L54.6596 57.0049C54.6695 56.9992 54.6817 56.9992 54.6916 57.0049Z" fill="#FED22B" stroke="black" stroke-width="0.75"/>
<path d="M21.3693 57.0049L23.2939 58.1177C23.3037 58.1234 23.3098 58.134 23.3098 58.1454V60.3721C23.3098 60.3835 23.3037 60.394 23.2939 60.3997L21.3693 61.5125C21.3594 61.5183 21.3472 61.5183 21.3373 61.5125L19.4128 60.3997C19.4029 60.394 19.3968 60.3835 19.3968 60.3721V58.1454C19.3968 58.134 19.4029 58.1234 19.4128 58.1177L21.3373 57.0049C21.3472 56.9992 21.3594 56.9992 21.3693 57.0049Z" fill="#FED22B" stroke="black" stroke-width="0.75"/>
<path d="M46.3615 57.0049L48.286 58.1177C48.2959 58.1234 48.302 58.134 48.302 58.1454V60.3721C48.302 60.3835 48.2959 60.394 48.286 60.3997L46.3615 61.5125C46.3516 61.5183 46.3394 61.5183 46.3295 61.5125L44.405 60.3997C44.3951 60.394 44.389 60.3835 44.389 60.3721V58.1454C44.389 58.134 44.3951 58.1234 44.405 58.1177L46.3295 57.0049C46.3394 56.9992 46.3516 56.9992 46.3615 57.0049Z" fill="#FED22B" stroke="black" stroke-width="0.75"/>
<path d="M13.0383 57.0049L14.9628 58.1177C14.9727 58.1234 14.9788 58.134 14.9788 58.1454V60.3721C14.9788 60.3835 14.9727 60.394 14.9628 60.3997L13.0383 61.5125C13.0284 61.5183 13.0162 61.5183 13.0063 61.5125L11.0817 60.3997C11.0719 60.394 11.0658 60.3835 11.0658 60.3721V58.1454C11.0658 58.134 11.0719 58.1234 11.0817 58.1177L13.0063 57.0049C13.0162 56.9992 13.0284 56.9992 13.0383 57.0049Z" fill="#FEB62B" stroke="black" stroke-width="0.75"/>
<path d="M63.0227 57.0049L64.9472 58.1177C64.9571 58.1234 64.9632 58.134 64.9632 58.1454V60.3721C64.9632 60.3835 64.9571 60.394 64.9472 60.3997L63.0227 61.5125C63.0127 61.5183 63.0005 61.5183 62.9906 61.5125L61.0661 60.3997C61.0562 60.394 61.0501 60.3835 61.0501 60.3721V58.1454C61.0501 58.134 61.0562 58.1234 61.0661 58.1177L62.9906 57.0049C63.0005 56.9992 63.0128 56.9992 63.0227 57.0049Z" fill="#FEB62B" stroke="black" stroke-width="0.75"/>
<path d="M29.7004 57.0049L31.6249 58.1177C31.6348 58.1234 31.6409 58.134 31.6409 58.1454V60.3721C31.6409 60.3835 31.6348 60.394 31.6249 60.3997L29.7004 61.5125C29.6905 61.5183 29.6783 61.5183 29.6684 61.5125L27.7438 60.3997C27.734 60.394 27.7279 60.3835 27.7279 60.3721V58.1454C27.7279 58.134 27.734 58.1234 27.7438 58.1177L29.6684 57.0049C29.6783 56.9992 29.6905 56.9992 29.7004 57.0049Z" fill="#FED22B" stroke="black" stroke-width="0.75"/>
<path d="M33.8654 64.126L35.79 65.2388C35.7998 65.2445 35.8059 65.2551 35.8059 65.2665V67.4931C35.8059 67.5046 35.7998 67.5151 35.79 67.5208L33.8654 68.6336C33.8555 68.6393 33.8433 68.6393 33.8334 68.6336L31.9089 67.5208C31.899 67.5151 31.8929 67.5046 31.8929 67.4931V65.2665C31.8929 65.2551 31.899 65.2445 31.9089 65.2388L33.8334 64.126C33.8433 64.1203 33.8555 64.1203 33.8654 64.126Z" fill="#FED22B" stroke="black" stroke-width="0.75"/>
<path d="M50.5266 64.126L52.4511 65.2388C52.461 65.2445 52.4671 65.2551 52.4671 65.2665V67.4931C52.4671 67.5046 52.461 67.5151 52.4511 67.5208L50.5266 68.6336C50.5167 68.6393 50.5044 68.6393 50.4945 68.6336L48.57 67.5208C48.5601 67.5151 48.554 67.5046 48.554 67.4931V65.2665C48.554 65.2551 48.5601 65.2445 48.57 65.2388L50.4945 64.126C50.5044 64.1203 50.5167 64.1203 50.5266 64.126Z" fill="#FE9D2B" stroke="black" stroke-width="0.75"/>
<path d="M17.2043 64.126L19.1288 65.2388C19.1387 65.2445 19.1448 65.2551 19.1448 65.2665V67.4931C19.1448 67.5046 19.1387 67.5151 19.1288 67.5208L17.2043 68.6336C17.1944 68.6393 17.1822 68.6393 17.1723 68.6336L15.2478 67.5208C15.2379 67.5151 15.2318 67.5046 15.2318 67.4931V65.2665C15.2318 65.2551 15.2379 65.2445 15.2478 65.2388L17.1723 64.126C17.1822 64.1203 17.1944 64.1203 17.2043 64.126Z" fill="#FED22B" stroke="black" stroke-width="0.75"/>
<path d="M42.1965 64.126L44.121 65.2388C44.1309 65.2445 44.137 65.2551 44.137 65.2665V67.4931C44.137 67.5046 44.1309 67.5151 44.121 67.5208L42.1965 68.6336C42.1866 68.6393 42.1744 68.6393 42.1645 68.6336L40.2399 67.5208C40.2301 67.5151 40.224 67.5046 40.224 67.4931V65.2665C40.224 65.2551 40.2301 65.2445 40.2399 65.2388L42.1645 64.126C42.1744 64.1203 42.1866 64.1203 42.1965 64.126Z" fill="#FED22B" stroke="black" stroke-width="0.75"/>
<path d="M8.87324 64.126L10.7978 65.2388C10.8077 65.2445 10.8137 65.2551 10.8137 65.2665V67.4931C10.8137 67.5046 10.8077 67.5151 10.7978 67.5208L8.87324 68.6336C8.86334 68.6393 8.85113 68.6393 8.84123 68.6336L6.9167 67.5208C6.90681 67.5151 6.90072 67.5046 6.90072 67.4931V65.2665C6.90072 65.2551 6.90681 65.2445 6.9167 65.2388L8.84122 64.126C8.85113 64.1203 8.86334 64.1203 8.87324 64.126Z" fill="#FED22B" stroke="black" stroke-width="0.75"/>
<path d="M58.8576 64.126L60.7821 65.2388C60.792 65.2445 60.7981 65.2551 60.7981 65.2665V67.4931C60.7981 67.5046 60.792 67.5151 60.7821 67.5208L58.8576 68.6336C58.8477 68.6393 58.8355 68.6393 58.8256 68.6336L56.9011 67.5208C56.8912 67.5151 56.8851 67.5046 56.8851 67.4931V65.2665C56.8851 65.2551 56.8912 65.2445 56.9011 65.2388L58.8256 64.126C58.8355 64.1203 58.8477 64.1203 58.8576 64.126Z" fill="#FED22B" stroke="black" stroke-width="0.75"/>
<path d="M25.5344 64.126L27.4589 65.2388C27.4688 65.2445 27.4749 65.2551 27.4749 65.2665V67.4931C27.4749 67.5046 27.4688 67.5151 27.4589 67.5208L25.5344 68.6336C25.5245 68.6393 25.5123 68.6393 25.5024 68.6336L23.5778 67.5208C23.5679 67.5151 23.5619 67.5046 23.5619 67.4931V65.2665C23.5619 65.2551 23.5679 65.2445 23.5778 65.2388L25.5024 64.126C25.5123 64.1203 25.5245 64.1203 25.5344 64.126Z" fill="#FE9D2B" stroke="black" stroke-width="0.75"/>
<path d="M38.0305 64.126L39.955 65.2388C39.9649 65.2445 39.971 65.2551 39.971 65.2665V67.4931C39.971 67.5046 39.9649 67.5151 39.955 67.5208L38.0305 68.6336C38.0206 68.6393 38.0084 68.6393 37.9985 68.6336L36.0739 67.5208C36.064 67.5151 36.058 67.5046 36.058 67.4931V65.2665C36.058 65.2551 36.064 65.2445 36.0739 65.2388L37.9985 64.126C38.0084 64.1203 38.0206 64.1203 38.0305 64.126Z" fill="#FE9D2B" stroke="black" stroke-width="0.75"/>
<path d="M4.7082 64.126L6.63273 65.2388C6.64261 65.2445 6.6487 65.2551 6.6487 65.2665V67.4931C6.6487 67.5046 6.64261 67.5151 6.63273 67.5208L4.7082 68.6336C4.6983 68.6393 4.68609 68.6393 4.67619 68.6336L2.75166 67.5208C2.74177 67.5151 2.73569 67.5046 2.73569 67.4931V65.2665C2.73569 65.2551 2.74177 65.2445 2.75166 65.2388L4.67619 64.126C4.68609 64.1203 4.6983 64.1203 4.7082 64.126Z" fill="#FED22B" stroke="black" stroke-width="0.75"/>
<path d="M54.6916 64.126L56.6161 65.2388C56.626 65.2445 56.6321 65.2551 56.6321 65.2665V67.4931C56.6321 67.5046 56.626 67.5151 56.6161 67.5208L54.6916 68.6336C54.6817 68.6393 54.6695 68.6393 54.6596 68.6336L52.7351 67.5208C52.7252 67.5151 52.7191 67.5046 52.7191 67.4931V65.2665C52.7191 65.2551 52.7252 65.2445 52.7351 65.2388L54.6596 64.126C54.6695 64.1203 54.6817 64.1203 54.6916 64.126Z" fill="#FED22B" stroke="black" stroke-width="0.75"/>
<path d="M21.3693 64.126L23.2939 65.2388C23.3037 65.2445 23.3098 65.2551 23.3098 65.2665V67.4931C23.3098 67.5046 23.3037 67.5151 23.2939 67.5208L21.3693 68.6336C21.3594 68.6393 21.3472 68.6393 21.3373 68.6336L19.4128 67.5208C19.4029 67.5151 19.3968 67.5046 19.3968 67.4931V65.2665C19.3968 65.2551 19.4029 65.2445 19.4128 65.2388L21.3373 64.126C21.3472 64.1203 21.3594 64.1203 21.3693 64.126Z" fill="#FED22B" stroke="black" stroke-width="0.75"/>
<path d="M46.3615 64.126L48.286 65.2388C48.2959 65.2445 48.302 65.2551 48.302 65.2665V67.4931C48.302 67.5046 48.2959 67.5151 48.286 67.5208L46.3615 68.6336C46.3516 68.6393 46.3394 68.6393 46.3295 68.6336L44.405 67.5208C44.3951 67.5151 44.389 67.5046 44.389 67.4931V65.2665C44.389 65.2551 44.3951 65.2445 44.405 65.2388L46.3295 64.126C46.3394 64.1203 46.3516 64.1203 46.3615 64.126Z" fill="#FED22B" stroke="black" stroke-width="0.75"/>
<path d="M13.0383 64.126L14.9628 65.2388C14.9727 65.2445 14.9788 65.2551 14.9788 65.2665V67.4931C14.9788 67.5046 14.9727 67.5151 14.9628 67.5208L13.0383 68.6336C13.0284 68.6393 13.0162 68.6393 13.0063 68.6336L11.0817 67.5208C11.0719 67.5151 11.0658 67.5046 11.0658 67.4931V65.2665C11.0658 65.2551 11.0719 65.2445 11.0817 65.2388L13.0063 64.126C13.0162 64.1203 13.0284 64.1203 13.0383 64.126Z" fill="#FE9D2B" stroke="black" stroke-width="0.75"/>
<path d="M63.0227 64.126L64.9472 65.2388C64.9571 65.2445 64.9632 65.2551 64.9632 65.2665V67.4931C64.9632 67.5046 64.9571 67.5151 64.9472 67.5208L63.0227 68.6336C63.0127 68.6393 63.0005 68.6393 62.9906 68.6336L61.0661 67.5208C61.0562 67.5151 61.0501 67.5046 61.0501 67.4931V65.2665C61.0501 65.2551 61.0562 65.2445 61.0661 65.2388L62.9906 64.126C63.0005 64.1203 63.0128 64.1203 63.0227 64.126Z" fill="#FE9D2B" stroke="black" stroke-width="0.75"/>
<path d="M29.7004 64.126L31.6249 65.2388C31.6348 65.2445 31.6409 65.2551 31.6409 65.2665V67.4931C31.6409 67.5046 31.6348 67.5151 31.6249 67.5208L29.7004 68.6336C29.6905 68.6393 29.6783 68.6393 29.6684 68.6336L27.7438 67.5208C27.734 67.5151 27.7279 67.5046 27.7279 67.4931V65.2665C27.7279 65.2551 27.734 65.2445 27.7438 65.2388L29.6684 64.126C29.6783 64.1203 29.6905 64.1203 29.7004 64.126Z" fill="#FED22B" stroke="black" stroke-width="0.75"/>
<path d="M102.654 53.4422L104.582 54.5554C104.592 54.5611 104.598 54.5717 104.598 54.5831V56.8094C104.598 56.8208 104.592 56.8314 104.582 56.8371L102.654 57.9502C102.644 57.9559 102.632 57.9559 102.622 57.9502L100.694 56.8371C100.684 56.8314 100.678 56.8208 100.678 56.8094V54.5831C100.678 54.5717 100.684 54.5611 100.694 54.5554L102.622 53.4422C102.632 53.4365 102.644 53.4365 102.654 53.4422Z" fill="#FED22B" stroke="black" stroke-width="0.75"/>
<path d="M69.2816 53.4422L71.2096 54.5554C71.2195 54.5611 71.2256 54.5717 71.2256 54.5831V56.8094C71.2256 56.8208 71.2195 56.8314 71.2096 56.8371L69.2816 57.9502C69.2717 57.9559 69.2595 57.9559 69.2496 57.9502L67.3216 56.8371C67.3117 56.8314 67.3056 56.8208 67.3056 56.8094V54.5831C67.3056 54.5717 67.3117 54.5611 67.3216 54.5554L69.2496 53.4422C69.2595 53.4365 69.2717 53.4365 69.2816 53.4422Z" fill="#FE9D2B" stroke="black" stroke-width="0.75"/>
<path d="M119.34 53.4422L121.268 54.5554C121.278 54.5611 121.284 54.5717 121.284 54.5831V56.8094C121.284 56.8208 121.278 56.8314 121.268 56.8371L119.34 57.9502C119.33 57.9559 119.318 57.9559 119.308 57.9502L117.38 56.8371C117.37 56.8314 117.364 56.8208 117.364 56.8094V54.5831C117.364 54.5717 117.37 54.5611 117.38 54.5554L119.308 53.4422C119.318 53.4365 119.33 53.4365 119.34 53.4422Z" fill="#FE9D2B" stroke="black" stroke-width="0.75"/>
<path d="M85.9681 53.4422L87.8961 54.5554C87.906 54.5611 87.9121 54.5717 87.9121 54.5831V56.8094C87.9121 56.8208 87.906 56.8314 87.8961 56.8371L85.9681 57.9502C85.9582 57.9559 85.946 57.9559 85.9361 57.9502L84.0081 56.8371C83.9982 56.8314 83.9921 56.8208 83.9921 56.8094V54.5831C83.9921 54.5717 83.9982 54.5611 84.0081 54.5554L85.9361 53.4422C85.946 53.4365 85.9582 53.4365 85.9681 53.4422Z" fill="#FED22B" stroke="black" stroke-width="0.75"/>
<path d="M110.997 53.4422L112.925 54.5554C112.935 54.5611 112.941 54.5717 112.941 54.5831V56.8094C112.941 56.8208 112.935 56.8314 112.925 56.8371L110.997 57.9502C110.987 57.9559 110.975 57.9559 110.965 57.9502L109.037 56.8371C109.027 56.8314 109.021 56.8208 109.021 56.8094V54.5831C109.021 54.5717 109.027 54.5611 109.037 54.5554L110.965 53.4422C110.975 53.4365 110.987 53.4365 110.997 53.4422Z" fill="#FED22B" stroke="black" stroke-width="0.75"/>
<path d="M77.6253 53.4422L79.5533 54.5554C79.5632 54.5611 79.5693 54.5717 79.5693 54.5831V56.8094C79.5693 56.8208 79.5632 56.8314 79.5533 56.8371L77.6253 57.9502C77.6154 57.9559 77.6032 57.9559 77.5933 57.9502L75.6653 56.8371C75.6554 56.8314 75.6493 56.8208 75.6493 56.8094V54.5831C75.6493 54.5717 75.6554 54.5611 75.6653 54.5554L77.5933 53.4422C77.6032 53.4365 77.6154 53.4365 77.6253 53.4422Z" fill="#FED22B" stroke="black" stroke-width="0.75"/>
<path d="M127.684 53.4422L129.612 54.5554C129.622 54.5611 129.628 54.5717 129.628 54.5831V56.8094C129.628 56.8208 129.622 56.8314 129.612 56.8371L127.684 57.9502C127.674 57.9559 127.662 57.9559 127.652 57.9502L125.724 56.8371C125.714 56.8314 125.708 56.8208 125.708 56.8094V54.5831C125.708 54.5717 125.714 54.5611 125.724 54.5554L127.652 53.4422C127.662 53.4365 127.674 53.4365 127.684 53.4422Z" fill="#FED22B" stroke="black" stroke-width="0.75"/>
<path d="M94.3109 53.4422L96.2389 54.5554C96.2488 54.5611 96.2549 54.5717 96.2549 54.5831V56.8094C96.2549 56.8208 96.2488 56.8314 96.2389 56.8371L94.3109 57.9502C94.301 57.9559 94.2888 57.9559 94.2789 57.9502L92.3508 56.8371C92.341 56.8314 92.3349 56.8208 92.3349 56.8094V54.5831C92.3349 54.5717 92.341 54.5611 92.3508 54.5554L94.2789 53.4422C94.2888 53.4365 94.301 53.4365 94.3109 53.4422Z" fill="#FE9D2B" stroke="black" stroke-width="0.75"/>
<path d="M106.825 53.4422L108.754 54.5554C108.763 54.5611 108.77 54.5717 108.77 54.5831V56.8094C108.77 56.8208 108.763 56.8314 108.754 56.8371L106.825 57.9502C106.816 57.9559 106.803 57.9559 106.794 57.9502L104.865 56.8371C104.856 56.8314 104.85 56.8208 104.85 56.8094V54.5831C104.85 54.5717 104.856 54.5611 104.865 54.5554L106.794 53.4422C106.803 53.4365 106.816 53.4365 106.825 53.4422Z" fill="#FE9D2B" stroke="black" stroke-width="0.75"/>
<path d="M73.4534 53.4422L75.3815 54.5554C75.3913 54.5611 75.3974 54.5717 75.3974 54.5831V56.8094C75.3974 56.8208 75.3913 56.8314 75.3815 56.8371L73.4534 57.9502C73.4435 57.9559 73.4313 57.9559 73.4215 57.9502L71.4934 56.8371C71.4835 56.8314 71.4774 56.8208 71.4774 56.8094V54.5831C71.4774 54.5717 71.4835 54.5611 71.4934 54.5554L73.4215 53.4422C73.4313 53.4365 73.4435 53.4365 73.4534 53.4422Z" fill="#FED22B" stroke="black" stroke-width="0.75"/>
<path d="M123.512 53.4422L125.44 54.5554C125.45 54.5611 125.456 54.5717 125.456 54.5831V56.8094C125.456 56.8208 125.45 56.8314 125.44 56.8371L123.512 57.9502C123.502 57.9559 123.49 57.9559 123.48 57.9502L121.552 56.8371C121.542 56.8314 121.536 56.8208 121.536 56.8094V54.5831C121.536 54.5717 121.542 54.5611 121.552 54.5554L123.48 53.4422C123.49 53.4365 123.502 53.4365 123.512 53.4422Z" fill="#FED22B" stroke="black" stroke-width="0.75"/>
<path d="M90.14 53.4422L92.068 54.5554C92.0779 54.5611 92.084 54.5717 92.084 54.5831V56.8094C92.084 56.8208 92.0779 56.8314 92.068 56.8371L90.14 57.9502C90.1301 57.9559 90.1179 57.9559 90.108 57.9502L88.1799 56.8371C88.1701 56.8314 88.164 56.8208 88.164 56.8094V54.5831C88.164 54.5717 88.1701 54.5611 88.1799 54.5554L90.108 53.4422C90.1179 53.4365 90.1301 53.4365 90.14 53.4422Z" fill="#FED22B" stroke="black" stroke-width="0.75"/>
<path d="M115.169 53.4422L117.097 54.5554C117.107 54.5611 117.113 54.5717 117.113 54.5831V56.8094C117.113 56.8208 117.107 56.8314 117.097 56.8371L115.169 57.9502C115.159 57.9559 115.147 57.9559 115.137 57.9502L113.209 56.8371C113.199 56.8314 113.193 56.8208 113.193 56.8094V54.5831C113.193 54.5717 113.199 54.5611 113.209 54.5554L115.137 53.4422C115.147 53.4365 115.159 53.4365 115.169 53.4422Z" fill="#FED22B" stroke="black" stroke-width="0.75"/>
<path d="M81.7972 53.4422L83.7252 54.5554C83.7351 54.5611 83.7412 54.5717 83.7412 54.5831V56.8094C83.7412 56.8208 83.7351 56.8314 83.7252 56.8371L81.7972 57.9502C81.7873 57.9559 81.7751 57.9559 81.7652 57.9502L79.8372 56.8371C79.8273 56.8314 79.8212 56.8208 79.8212 56.8094V54.5831C79.8212 54.5717 79.8273 54.5611 79.8372 54.5554L81.7652 53.4422C81.7751 53.4365 81.7873 53.4365 81.7972 53.4422Z" fill="#FE9D2B" stroke="black" stroke-width="0.75"/>
<path d="M131.855 53.4422L133.783 54.5554C133.793 54.5611 133.799 54.5717 133.799 54.5831V56.8094C133.799 56.8208 133.793 56.8314 133.783 56.8371L131.855 57.9502C131.845 57.9559 131.833 57.9559 131.823 57.9502L129.895 56.8371C129.885 56.8314 129.879 56.8208 129.879 56.8094V54.5831C129.879 54.5717 129.885 54.5611 129.895 54.5554L131.823 53.4422C131.833 53.4365 131.845 53.4365 131.855 53.4422Z" fill="#FE9D2B" stroke="black" stroke-width="0.75"/>
<path d="M98.4817 53.4422L100.41 54.5554C100.42 54.5611 100.426 54.5717 100.426 54.5831V56.8094C100.426 56.8208 100.42 56.8314 100.41 56.8371L98.4817 57.9502C98.4719 57.9559 98.4597 57.9559 98.4498 57.9502L96.5217 56.8371C96.5119 56.8314 96.5058 56.8208 96.5058 56.8094V54.5831C96.5058 54.5717 96.5119 54.5611 96.5217 54.5554L98.4498 53.4422C98.4597 53.4365 98.4719 53.4365 98.4817 53.4422Z" fill="#FED22B" stroke="black" stroke-width="0.75"/>
<path d="M102.654 60.5653L104.582 61.6784C104.592 61.6841 104.598 61.6947 104.598 61.7061V63.9324C104.598 63.9438 104.592 63.9544 104.582 63.9601L102.654 65.0733C102.644 65.079 102.632 65.079 102.622 65.0733L100.694 63.9601C100.684 63.9544 100.678 63.9438 100.678 63.9324V61.7061C100.678 61.6947 100.684 61.6841 100.694 61.6784L102.622 60.5653C102.632 60.5596 102.644 60.5596 102.654 60.5653Z" fill="#FED22B" stroke="black" stroke-width="0.75"/>
<path d="M69.2816 60.5653L71.2096 61.6784C71.2195 61.6841 71.2256 61.6947 71.2256 61.7061V63.9324C71.2256 63.9438 71.2195 63.9544 71.2096 63.9601L69.2816 65.0733C69.2717 65.079 69.2595 65.079 69.2496 65.0733L67.3216 63.9601C67.3117 63.9544 67.3056 63.9438 67.3056 63.9324V61.7061C67.3056 61.6947 67.3117 61.6841 67.3216 61.6784L69.2496 60.5653C69.2595 60.5596 69.2717 60.5596 69.2816 60.5653Z" fill="#FEB62B" stroke="black" stroke-width="0.75"/>
<path d="M119.34 60.5653L121.268 61.6784C121.278 61.6841 121.284 61.6947 121.284 61.7061V63.9324C121.284 63.9438 121.278 63.9544 121.268 63.9601L119.34 65.0733C119.33 65.079 119.318 65.079 119.308 65.0733L117.38 63.9601C117.37 63.9544 117.364 63.9438 117.364 63.9324V61.7061C117.364 61.6947 117.37 61.6841 117.38 61.6784L119.308 60.5653C119.318 60.5596 119.33 60.5596 119.34 60.5653Z" fill="#FEB62B" stroke="black" stroke-width="0.75"/>
<path d="M85.9681 60.5653L87.8961 61.6784C87.906 61.6841 87.9121 61.6947 87.9121 61.7061V63.9324C87.9121 63.9438 87.906 63.9544 87.8961 63.9601L85.9681 65.0733C85.9582 65.079 85.946 65.079 85.9361 65.0733L84.0081 63.9601C83.9982 63.9544 83.9921 63.9438 83.9921 63.9324V61.7061C83.9921 61.6947 83.9982 61.6841 84.0081 61.6784L85.9361 60.5653C85.946 60.5596 85.9582 60.5596 85.9681 60.5653Z" fill="#FED22B" stroke="black" stroke-width="0.75"/>
<path d="M110.997 60.5653L112.925 61.6784C112.935 61.6841 112.941 61.6947 112.941 61.7061V63.9324C112.941 63.9438 112.935 63.9544 112.925 63.9601L110.997 65.0733C110.987 65.079 110.975 65.079 110.965 65.0733L109.037 63.9601C109.027 63.9544 109.021 63.9438 109.021 63.9324V61.7061C109.021 61.6947 109.027 61.6841 109.037 61.6784L110.965 60.5653C110.975 60.5596 110.987 60.5596 110.997 60.5653Z" fill="#FED22B" stroke="black" stroke-width="0.75"/>
<path d="M77.6253 60.5653L79.5533 61.6784C79.5632 61.6841 79.5693 61.6947 79.5693 61.7061V63.9324C79.5693 63.9438 79.5632 63.9544 79.5533 63.9601L77.6253 65.0733C77.6154 65.079 77.6032 65.079 77.5933 65.0733L75.6653 63.9601C75.6554 63.9544 75.6493 63.9438 75.6493 63.9324V61.7061C75.6493 61.6947 75.6554 61.6841 75.6653 61.6784L77.5933 60.5653C77.6032 60.5596 77.6154 60.5596 77.6253 60.5653Z" fill="#FED22B" stroke="black" stroke-width="0.75"/>
<path d="M127.684 60.5653L129.612 61.6784C129.622 61.6841 129.628 61.6947 129.628 61.7061V63.9324C129.628 63.9438 129.622 63.9544 129.612 63.9601L127.684 65.0733C127.674 65.079 127.662 65.079 127.652 65.0733L125.724 63.9601C125.714 63.9544 125.708 63.9438 125.708 63.9324V61.7061C125.708 61.6947 125.714 61.6841 125.724 61.6784L127.652 60.5653C127.662 60.5596 127.674 60.5596 127.684 60.5653Z" fill="#FED22B" stroke="black" stroke-width="0.75"/>
<path d="M94.3109 60.5653L96.2389 61.6784C96.2488 61.6841 96.2549 61.6947 96.2549 61.7061V63.9324C96.2549 63.9438 96.2488 63.9544 96.2389 63.9601L94.3109 65.0733C94.301 65.079 94.2888 65.079 94.2789 65.0733L92.3508 63.9601C92.341 63.9544 92.3349 63.9438 92.3349 63.9324V61.7061C92.3349 61.6947 92.341 61.6841 92.3508 61.6784L94.2789 60.5653C94.2888 60.5596 94.301 60.5596 94.3109 60.5653Z" fill="#FEB62B" stroke="black" stroke-width="0.75"/>
<path d="M106.825 60.5653L108.754 61.6784C108.763 61.6841 108.77 61.6947 108.77 61.7061V63.9324C108.77 63.9438 108.763 63.9544 108.754 63.9601L106.825 65.0733C106.816 65.079 106.803 65.079 106.794 65.0733L104.865 63.9601C104.856 63.9544 104.85 63.9438 104.85 63.9324V61.7061C104.85 61.6947 104.856 61.6841 104.865 61.6784L106.794 60.5653C106.803 60.5596 106.816 60.5596 106.825 60.5653Z" fill="#FEB62B" stroke="black" stroke-width="0.75"/>
<path d="M73.4534 60.5653L75.3815 61.6784C75.3913 61.6841 75.3974 61.6947 75.3974 61.7061V63.9324C75.3974 63.9438 75.3913 63.9544 75.3815 63.9601L73.4534 65.0733C73.4435 65.079 73.4313 65.079 73.4215 65.0733L71.4934 63.9601C71.4835 63.9544 71.4774 63.9438 71.4774 63.9324V61.7061C71.4774 61.6947 71.4835 61.6841 71.4934 61.6784L73.4215 60.5653C73.4313 60.5596 73.4435 60.5596 73.4534 60.5653Z" fill="#FED22B" stroke="black" stroke-width="0.75"/>
<path d="M123.512 60.5653L125.44 61.6784C125.45 61.6841 125.456 61.6947 125.456 61.7061V63.9324C125.456 63.9438 125.45 63.9544 125.44 63.9601L123.512 65.0733C123.502 65.079 123.49 65.079 123.48 65.0733L121.552 63.9601C121.542 63.9544 121.536 63.9438 121.536 63.9324V61.7061C121.536 61.6947 121.542 61.6841 121.552 61.6784L123.48 60.5653C123.49 60.5596 123.502 60.5596 123.512 60.5653Z" fill="#FED22B" stroke="black" stroke-width="0.75"/>
<path d="M90.14 60.5653L92.068 61.6784C92.0779 61.6841 92.084 61.6947 92.084 61.7061V63.9324C92.084 63.9438 92.0779 63.9544 92.068 63.9601L90.14 65.0733C90.1301 65.079 90.1179 65.079 90.108 65.0733L88.1799 63.9601C88.1701 63.9544 88.164 63.9438 88.164 63.9324V61.7061C88.164 61.6947 88.1701 61.6841 88.1799 61.6784L90.108 60.5653C90.1179 60.5596 90.1301 60.5596 90.14 60.5653Z" fill="#FED22B" stroke="black" stroke-width="0.75"/>
<path d="M115.169 60.5653L117.097 61.6784C117.107 61.6841 117.113 61.6947 117.113 61.7061V63.9324C117.113 63.9438 117.107 63.9544 117.097 63.9601L115.169 65.0733C115.159 65.079 115.147 65.079 115.137 65.0733L113.209 63.9601C113.199 63.9544 113.193 63.9438 113.193 63.9324V61.7061C113.193 61.6947 113.199 61.6841 113.209 61.6784L115.137 60.5653C115.147 60.5596 115.159 60.5596 115.169 60.5653Z" fill="#FED22B" stroke="black" stroke-width="0.75"/>
<path d="M81.7972 60.5653L83.7252 61.6784C83.7351 61.6841 83.7412 61.6947 83.7412 61.7061V63.9324C83.7412 63.9438 83.7351 63.9544 83.7252 63.9601L81.7972 65.0733C81.7873 65.079 81.7751 65.079 81.7652 65.0733L79.8372 63.9601C79.8273 63.9544 79.8212 63.9438 79.8212 63.9324V61.7061C79.8212 61.6947 79.8273 61.6841 79.8372 61.6784L81.7652 60.5653C81.7751 60.5596 81.7873 60.5596 81.7972 60.5653Z" fill="#FEB62B" stroke="black" stroke-width="0.75"/>
<path d="M131.855 60.5653L133.783 61.6784C133.793 61.6841 133.799 61.6947 133.799 61.7061V63.9324C133.799 63.9438 133.793 63.9544 133.783 63.9601L131.855 65.0733C131.845 65.079 131.833 65.079 131.823 65.0733L129.895 63.9601C129.885 63.9544 129.879 63.9438 129.879 63.9324V61.7061C129.879 61.6947 129.885 61.6841 129.895 61.6784L131.823 60.5653C131.833 60.5596 131.845 60.5596 131.855 60.5653Z" fill="#FEB62B" stroke="black" stroke-width="0.75"/>
<path d="M98.4817 60.5653L100.41 61.6784C100.42 61.6841 100.426 61.6947 100.426 61.7061V63.9324C100.426 63.9438 100.42 63.9544 100.41 63.9601L98.4817 65.0733C98.4719 65.079 98.4597 65.079 98.4498 65.0733L96.5217 63.9601C96.5119 63.9544 96.5058 63.9438 96.5058 63.9324V61.7061C96.5058 61.6947 96.5119 61.6841 96.5217 61.6784L98.4498 60.5653C98.4597 60.5596 98.4719 60.5596 98.4817 60.5653Z" fill="#FED22B" stroke="black" stroke-width="0.75"/>
<path d="M100.566 57.0049L102.49 58.1177C102.5 58.1234 102.506 58.134 102.506 58.1454V60.3721C102.506 60.3835 102.5 60.394 102.49 60.3997L100.566 61.5125C100.556 61.5183 100.544 61.5183 100.534 61.5125L98.6091 60.3997C98.5992 60.394 98.5931 60.3835 98.5931 60.3721V58.1454C98.5931 58.134 98.5992 58.1234 98.6091 58.1177L100.534 57.0049C100.544 56.9992 100.556 56.9992 100.566 57.0049Z" fill="#FEB62B" stroke="black" stroke-width="0.75"/>
<path d="M67.2434 57.0049L69.1679 58.1177C69.1778 58.1234 69.1839 58.134 69.1839 58.1454V60.3721C69.1839 60.3835 69.1778 60.394 69.1679 60.3997L67.2434 61.5125C67.2335 61.5183 67.2212 61.5183 67.2113 61.5125L65.2868 60.3997C65.2769 60.394 65.2708 60.3835 65.2708 60.3721V58.1454C65.2708 58.134 65.2769 58.1234 65.2868 58.1177L67.2113 57.0049C67.2212 56.9992 67.2335 56.9992 67.2434 57.0049Z" fill="#FED22B" stroke="black" stroke-width="0.75"/>
<path d="M117.227 57.0049L119.151 58.1177C119.161 58.1234 119.167 58.134 119.167 58.1454V60.3721C119.167 60.3835 119.161 60.394 119.151 60.3997L117.227 61.5125C117.217 61.5183 117.205 61.5183 117.195 61.5125L115.27 60.3997C115.26 60.394 115.254 60.3835 115.254 60.3721V58.1454C115.254 58.134 115.26 58.1234 115.27 58.1177L117.195 57.0049C117.205 56.9992 117.217 56.9992 117.227 57.0049Z" fill="#FED22B" stroke="black" stroke-width="0.75"/>
<path d="M83.9045 57.0049L85.829 58.1177C85.8389 58.1234 85.845 58.134 85.845 58.1454V60.3721C85.845 60.3835 85.8389 60.394 85.829 60.3997L83.9045 61.5125C83.8946 61.5183 83.8824 61.5183 83.8725 61.5125L81.9479 60.3997C81.9381 60.394 81.932 60.3835 81.932 60.3721V58.1454C81.932 58.134 81.9381 58.1234 81.9479 58.1177L83.8725 57.0049C83.8824 56.9992 83.8946 56.9992 83.9045 57.0049Z" fill="#FED22B" stroke="black" stroke-width="0.75"/>
<path d="M108.897 57.0049L110.821 58.1177C110.831 58.1234 110.837 58.134 110.837 58.1454V60.3721C110.837 60.3835 110.831 60.394 110.821 60.3997L108.897 61.5125C108.887 61.5183 108.875 61.5183 108.865 61.5125L106.94 60.3997C106.93 60.394 106.924 60.3835 106.924 60.3721V58.1454C106.924 58.134 106.93 58.1234 106.94 58.1177L108.865 57.0049C108.875 56.9992 108.887 56.9992 108.897 57.0049Z" fill="#FED22B" stroke="black" stroke-width="0.75"/>
<path d="M75.5734 57.0049L77.498 58.1177C77.5078 58.1234 77.5139 58.134 77.5139 58.1454V60.3721C77.5139 60.3835 77.5078 60.394 77.498 60.3997L75.5734 61.5125C75.5635 61.5183 75.5513 61.5183 75.5414 61.5125L73.6169 60.3997C73.607 60.394 73.6009 60.3835 73.6009 60.3721V58.1454C73.6009 58.134 73.607 58.1234 73.6169 58.1177L75.5414 57.0049C75.5513 56.9992 75.5635 56.9992 75.5734 57.0049Z" fill="#FEB62B" stroke="black" stroke-width="0.75"/>
<path d="M125.558 57.0049L127.482 58.1177C127.492 58.1234 127.498 58.134 127.498 58.1454V60.3721C127.498 60.3835 127.492 60.394 127.482 60.3997L125.558 61.5125C125.548 61.5183 125.536 61.5183 125.526 61.5125L123.601 60.3997C123.591 60.394 123.585 60.3835 123.585 60.3721V58.1454C123.585 58.134 123.591 58.1234 123.601 58.1177L125.526 57.0049C125.536 56.9992 125.548 56.9992 125.558 57.0049Z" fill="#FEB62B" stroke="black" stroke-width="0.75"/>
<path d="M92.2346 57.0049L94.1591 58.1177C94.169 58.1234 94.1751 58.134 94.1751 58.1454V60.3721C94.1751 60.3835 94.169 60.394 94.1591 60.3997L92.2346 61.5125C92.2247 61.5183 92.2125 61.5183 92.2026 61.5125L90.278 60.3997C90.2681 60.394 90.2621 60.3835 90.2621 60.3721V58.1454C90.2621 58.134 90.2681 58.1234 90.278 58.1177L92.2026 57.0049C92.2125 56.9992 92.2247 56.9992 92.2346 57.0049Z" fill="#FED22B" stroke="black" stroke-width="0.75"/>
<path d="M104.731 57.0049L106.655 58.1177C106.665 58.1234 106.671 58.134 106.671 58.1454V60.3721C106.671 60.3835 106.665 60.394 106.655 60.3997L104.731 61.5125C104.721 61.5183 104.709 61.5183 104.699 61.5125L102.774 60.3997C102.764 60.394 102.758 60.3835 102.758 60.3721V58.1454C102.758 58.134 102.764 58.1234 102.774 58.1177L104.699 57.0049C104.709 56.9992 104.721 56.9992 104.731 57.0049Z" fill="#FED22B" stroke="black" stroke-width="0.75"/>
<path d="M71.4084 57.0049L73.3329 58.1177C73.3428 58.1234 73.3489 58.134 73.3489 58.1454V60.3721C73.3489 60.3835 73.3428 60.394 73.3329 60.3997L71.4084 61.5125C71.3985 61.5183 71.3863 61.5183 71.3764 61.5125L69.4519 60.3997C69.442 60.394 69.4359 60.3835 69.4359 60.3721V58.1454C69.4359 58.134 69.442 58.1234 69.4519 58.1177L71.3764 57.0049C71.3863 56.9992 71.3985 56.9992 71.4084 57.0049Z" fill="#FED22B" stroke="black" stroke-width="0.75"/>
<path d="M121.392 57.0049L123.316 58.1177C123.326 58.1234 123.332 58.134 123.332 58.1454V60.3721C123.332 60.3835 123.326 60.394 123.316 60.3997L121.392 61.5125C121.382 61.5183 121.37 61.5183 121.36 61.5125L119.435 60.3997C119.425 60.394 119.419 60.3835 119.419 60.3721V58.1454C119.419 58.134 119.425 58.1234 119.435 58.1177L121.36 57.0049C121.37 56.9992 121.382 56.9992 121.392 57.0049Z" fill="#FED22B" stroke="black" stroke-width="0.75"/>
<path d="M88.0695 57.0049L89.9941 58.1177C90.0039 58.1234 90.01 58.134 90.01 58.1454V60.3721C90.01 60.3835 90.0039 60.394 89.9941 60.3997L88.0695 61.5125C88.0596 61.5183 88.0474 61.5183 88.0375 61.5125L86.113 60.3997C86.1031 60.394 86.097 60.3835 86.097 60.3721V58.1454C86.097 58.134 86.1031 58.1234 86.113 58.1177L88.0375 57.0049C88.0474 56.9992 88.0596 56.9992 88.0695 57.0049Z" fill="#FEB62B" stroke="black" stroke-width="0.75"/>
<path d="M113.062 57.0049L114.986 58.1177C114.996 58.1234 115.002 58.134 115.002 58.1454V60.3721C115.002 60.3835 114.996 60.394 114.986 60.3997L113.062 61.5125C113.052 61.5183 113.04 61.5183 113.03 61.5125L111.105 60.3997C111.095 60.394 111.089 60.3835 111.089 60.3721V58.1454C111.089 58.134 111.095 58.1234 111.105 58.1177L113.03 57.0049C113.04 56.9992 113.052 56.9992 113.062 57.0049Z" fill="#FEB62B" stroke="black" stroke-width="0.75"/>
<path d="M79.7385 57.0049L81.663 58.1177C81.6729 58.1234 81.679 58.134 81.679 58.1454V60.3721C81.679 60.3835 81.6729 60.394 81.663 60.3997L79.7385 61.5125C79.7286 61.5183 79.7164 61.5183 79.7065 61.5125L77.7819 60.3997C77.772 60.394 77.766 60.3835 77.766 60.3721V58.1454C77.766 58.134 77.772 58.1234 77.7819 58.1177L79.7065 57.0049C79.7164 56.9992 79.7286 56.9992 79.7385 57.0049Z" fill="#FED22B" stroke="black" stroke-width="0.75"/>
<path d="M129.723 57.0049L131.647 58.1177C131.657 58.1234 131.663 58.134 131.663 58.1454V60.3721C131.663 60.3835 131.657 60.394 131.647 60.3997L129.723 61.5125C129.713 61.5183 129.701 61.5183 129.691 61.5125L127.766 60.3997C127.756 60.394 127.75 60.3835 127.75 60.3721V58.1454C127.75 58.134 127.756 58.1234 127.766 58.1177L129.691 57.0049C129.701 56.9992 129.713 56.9992 129.723 57.0049Z" fill="#FED22B" stroke="black" stroke-width="0.75"/>
<path d="M96.4006 57.0049L98.3251 58.1177C98.335 58.1234 98.3411 58.134 98.3411 58.1454V60.3721C98.3411 60.3835 98.335 60.394 98.3251 60.3997L96.4006 61.5125C96.3907 61.5183 96.3785 61.5183 96.3686 61.5125L94.444 60.3997C94.4342 60.394 94.4281 60.3835 94.4281 60.3721V58.1454C94.4281 58.134 94.4342 58.1234 94.444 58.1177L96.3686 57.0049C96.3785 56.9992 96.3907 56.9992 96.4006 57.0049Z" fill="#FED22B" stroke="black" stroke-width="0.75"/>
<path d="M100.566 64.126L102.49 65.2388C102.5 65.2445 102.506 65.2551 102.506 65.2665V67.4931C102.506 67.5046 102.5 67.5151 102.49 67.5208L100.566 68.6336C100.556 68.6393 100.544 68.6393 100.534 68.6336L98.6091 67.5208C98.5992 67.5151 98.5931 67.5046 98.5931 67.4931V65.2665C98.5931 65.2551 98.5992 65.2445 98.6091 65.2388L100.534 64.126C100.544 64.1203 100.556 64.1203 100.566 64.126Z" fill="#FE9D2B" stroke="black" stroke-width="0.75"/>
<path d="M67.2434 64.126L69.1679 65.2388C69.1778 65.2445 69.1839 65.2551 69.1839 65.2665V67.4931C69.1839 67.5046 69.1778 67.5151 69.1679 67.5208L67.2434 68.6336C67.2335 68.6393 67.2212 68.6393 67.2113 68.6336L65.2868 67.5208C65.2769 67.5151 65.2708 67.5046 65.2708 67.4931V65.2665C65.2708 65.2551 65.2769 65.2445 65.2868 65.2388L67.2113 64.126C67.2212 64.1203 67.2335 64.1203 67.2434 64.126Z" fill="#FED22B" stroke="black" stroke-width="0.75"/>
<path d="M117.227 64.126L119.151 65.2388C119.161 65.2445 119.167 65.2551 119.167 65.2665V67.4931C119.167 67.5046 119.161 67.5151 119.151 67.5208L117.227 68.6336C117.217 68.6393 117.205 68.6393 117.195 68.6336L115.27 67.5208C115.26 67.5151 115.254 67.5046 115.254 67.4931V65.2665C115.254 65.2551 115.26 65.2445 115.27 65.2388L117.195 64.126C117.205 64.1203 117.217 64.1203 117.227 64.126Z" fill="#FED22B" stroke="black" stroke-width="0.75"/>
<path d="M83.9045 64.126L85.829 65.2388C85.8389 65.2445 85.845 65.2551 85.845 65.2665V67.4931C85.845 67.5046 85.8389 67.5151 85.829 67.5208L83.9045 68.6336C83.8946 68.6393 83.8824 68.6393 83.8725 68.6336L81.9479 67.5208C81.9381 67.5151 81.932 67.5046 81.932 67.4931V65.2665C81.932 65.2551 81.9381 65.2445 81.9479 65.2388L83.8725 64.126C83.8824 64.1203 83.8946 64.1203 83.9045 64.126Z" fill="#FED22B" stroke="black" stroke-width="0.75"/>
<path d="M108.897 64.126L110.821 65.2388C110.831 65.2445 110.837 65.2551 110.837 65.2665V67.4931C110.837 67.5046 110.831 67.5151 110.821 67.5208L108.897 68.6336C108.887 68.6393 108.875 68.6393 108.865 68.6336L106.94 67.5208C106.93 67.5151 106.924 67.5046 106.924 67.4931V65.2665C106.924 65.2551 106.93 65.2445 106.94 65.2388L108.865 64.126C108.875 64.1203 108.887 64.1203 108.897 64.126Z" fill="#FED22B" stroke="black" stroke-width="0.75"/>
<path d="M75.5734 64.126L77.498 65.2388C77.5078 65.2445 77.5139 65.2551 77.5139 65.2665V67.4931C77.5139 67.5046 77.5078 67.5151 77.498 67.5208L75.5734 68.6336C75.5635 68.6393 75.5513 68.6393 75.5414 68.6336L73.6169 67.5208C73.607 67.5151 73.6009 67.5046 73.6009 67.4931V65.2665C73.6009 65.2551 73.607 65.2445 73.6169 65.2388L75.5414 64.126C75.5513 64.1203 75.5635 64.1203 75.5734 64.126Z" fill="#FE9D2B" stroke="black" stroke-width="0.75"/>
<path d="M125.558 64.126L127.482 65.2388C127.492 65.2445 127.498 65.2551 127.498 65.2665V67.4931C127.498 67.5046 127.492 67.5151 127.482 67.5208L125.558 68.6336C125.548 68.6393 125.536 68.6393 125.526 68.6336L123.601 67.5208C123.591 67.5151 123.585 67.5046 123.585 67.4931V65.2665C123.585 65.2551 123.591 65.2445 123.601 65.2388L125.526 64.126C125.536 64.1203 125.548 64.1203 125.558 64.126Z" fill="#FE9D2B" stroke="black" stroke-width="0.75"/>
<path d="M92.2346 64.126L94.1591 65.2388C94.169 65.2445 94.1751 65.2551 94.1751 65.2665V67.4931C94.1751 67.5046 94.169 67.5151 94.1591 67.5208L92.2346 68.6336C92.2247 68.6393 92.2125 68.6393 92.2026 68.6336L90.278 67.5208C90.2681 67.5151 90.2621 67.5046 90.2621 67.4931V65.2665C90.2621 65.2551 90.2681 65.2445 90.278 65.2388L92.2026 64.126C92.2125 64.1203 92.2247 64.1203 92.2346 64.126Z" fill="#FED22B" stroke="black" stroke-width="0.75"/>
<path d="M104.731 64.126L106.655 65.2388C106.665 65.2445 106.671 65.2551 106.671 65.2665V67.4931C106.671 67.5046 106.665 67.5151 106.655 67.5208L104.731 68.6336C104.721 68.6393 104.709 68.6393 104.699 68.6336L102.774 67.5208C102.764 67.5151 102.758 67.5046 102.758 67.4931V65.2665C102.758 65.2551 102.764 65.2445 102.774 65.2388L104.699 64.126C104.709 64.1203 104.721 64.1203 104.731 64.126Z" fill="#FED22B" stroke="black" stroke-width="0.75"/>
<path d="M71.4084 64.126L73.3329 65.2388C73.3428 65.2445 73.3489 65.2551 73.3489 65.2665V67.4931C73.3489 67.5046 73.3428 67.5151 73.3329 67.5208L71.4084 68.6336C71.3985 68.6393 71.3863 68.6393 71.3764 68.6336L69.4519 67.5208C69.442 67.5151 69.4359 67.5046 69.4359 67.4931V65.2665C69.4359 65.2551 69.442 65.2445 69.4519 65.2388L71.3764 64.126C71.3863 64.1203 71.3985 64.1203 71.4084 64.126Z" fill="#FED22B" stroke="black" stroke-width="0.75"/>
<path d="M121.392 64.126L123.316 65.2388C123.326 65.2445 123.332 65.2551 123.332 65.2665V67.4931C123.332 67.5046 123.326 67.5151 123.316 67.5208L121.392 68.6336C121.382 68.6393 121.37 68.6393 121.36 68.6336L119.435 67.5208C119.425 67.5151 119.419 67.5046 119.419 67.4931V65.2665C119.419 65.2551 119.425 65.2445 119.435 65.2388L121.36 64.126C121.37 64.1203 121.382 64.1203 121.392 64.126Z" fill="#FED22B" stroke="black" stroke-width="0.75"/>
<path d="M88.0695 64.126L89.9941 65.2388C90.0039 65.2445 90.01 65.2551 90.01 65.2665V67.4931C90.01 67.5046 90.0039 67.5151 89.9941 67.5208L88.0695 68.6336C88.0596 68.6393 88.0474 68.6393 88.0375 68.6336L86.113 67.5208C86.1031 67.5151 86.097 67.5046 86.097 67.4931V65.2665C86.097 65.2551 86.1031 65.2445 86.113 65.2388L88.0375 64.126C88.0474 64.1203 88.0596 64.1203 88.0695 64.126Z" fill="#FE9D2B" stroke="black" stroke-width="0.75"/>
<path d="M113.062 64.126L114.986 65.2388C114.996 65.2445 115.002 65.2551 115.002 65.2665V67.4931C115.002 67.5046 114.996 67.5151 114.986 67.5208L113.062 68.6336C113.052 68.6393 113.04 68.6393 113.03 68.6336L111.105 67.5208C111.095 67.5151 111.089 67.5046 111.089 67.4931V65.2665C111.089 65.2551 111.095 65.2445 111.105 65.2388L113.03 64.126C113.04 64.1203 113.052 64.1203 113.062 64.126Z" fill="#FE9D2B" stroke="black" stroke-width="0.75"/>
<path d="M79.7385 64.126L81.663 65.2388C81.6729 65.2445 81.679 65.2551 81.679 65.2665V67.4931C81.679 67.5046 81.6729 67.5151 81.663 67.5208L79.7385 68.6336C79.7286 68.6393 79.7164 68.6393 79.7065 68.6336L77.7819 67.5208C77.772 67.5151 77.766 67.5046 77.766 67.4931V65.2665C77.766 65.2551 77.772 65.2445 77.7819 65.2388L79.7065 64.126C79.7164 64.1203 79.7286 64.1203 79.7385 64.126Z" fill="#FED22B" stroke="black" stroke-width="0.75"/>
<path d="M129.723 64.126L131.647 65.2388C131.657 65.2445 131.663 65.2551 131.663 65.2665V67.4931C131.663 67.5046 131.657 67.5151 131.647 67.5208L129.723 68.6336C129.713 68.6393 129.701 68.6393 129.691 68.6336L127.766 67.5208C127.756 67.5151 127.75 67.5046 127.75 67.4931V65.2665C127.75 65.2551 127.756 65.2445 127.766 65.2388L129.691 64.126C129.701 64.1203 129.713 64.1203 129.723 64.126Z" fill="#FED22B" stroke="black" stroke-width="0.75"/>
<path d="M96.4006 64.126L98.3251 65.2388C98.335 65.2445 98.3411 65.2551 98.3411 65.2665V67.4931C98.3411 67.5046 98.335 67.5151 98.3251 67.5208L96.4006 68.6336C96.3907 68.6393 96.3785 68.6393 96.3686 68.6336L94.444 67.5208C94.4342 67.5151 94.4281 67.5046 94.4281 67.4931V65.2665C94.4281 65.2551 94.4342 65.2445 94.444 65.2388L96.3686 64.126C96.3785 64.1203 96.3907 64.1203 96.4006 64.126Z" fill="#FED22B" stroke="black" stroke-width="0.75"/>
<path d="M135.982 53.4422L137.91 54.5554C137.92 54.5611 137.926 54.5717 137.926 54.5831V56.8094C137.926 56.8208 137.92 56.8314 137.91 56.8371L135.982 57.9502C135.972 57.9559 135.96 57.9559 135.95 57.9502L134.022 56.8371C134.012 56.8314 134.006 56.8208 134.006 56.8094V54.5831C134.006 54.5717 134.012 54.5611 134.022 54.5554L135.95 53.4422C135.96 53.4365 135.972 53.4365 135.982 53.4422Z" fill="#FED22B" stroke="black" stroke-width="0.75"/>
<path d="M144.325 53.4422L146.254 54.5554C146.263 54.5611 146.27 54.5717 146.27 54.5831V56.8094C146.27 56.8208 146.263 56.8314 146.254 56.8371L144.325 57.9502C144.316 57.9559 144.303 57.9559 144.294 57.9502L142.365 56.8371C142.356 56.8314 142.35 56.8208 142.35 56.8094V54.5831C142.35 54.5717 142.356 54.5611 142.365 54.5554L144.294 53.4422C144.303 53.4365 144.316 53.4365 144.325 53.4422Z" fill="#FE9D2B" stroke="black" stroke-width="0.75"/>
<path d="M140.154 53.4422L142.082 54.5554C142.092 54.5611 142.098 54.5717 142.098 54.5831V56.8094C142.098 56.8208 142.092 56.8314 142.082 56.8371L140.154 57.9502C140.144 57.9559 140.132 57.9559 140.122 57.9502L138.194 56.8371C138.184 56.8314 138.178 56.8208 138.178 56.8094V54.5831C138.178 54.5717 138.184 54.5611 138.194 54.5554L140.122 53.4422C140.132 53.4365 140.144 53.4365 140.154 53.4422Z" fill="#FED22B" stroke="black" stroke-width="0.75"/>
<path d="M135.982 60.5653L137.91 61.6784C137.92 61.6841 137.926 61.6947 137.926 61.7061V63.9324C137.926 63.9438 137.92 63.9544 137.91 63.9601L135.982 65.0733C135.972 65.079 135.96 65.079 135.95 65.0733L134.022 63.9601C134.012 63.9544 134.006 63.9438 134.006 63.9324V61.7061C134.006 61.6947 134.012 61.6841 134.022 61.6784L135.95 60.5653C135.96 60.5596 135.972 60.5596 135.982 60.5653Z" fill="#FED22B" stroke="black" stroke-width="0.75"/>
<path d="M144.325 60.5653L146.254 61.6784C146.263 61.6841 146.27 61.6947 146.27 61.7061V63.9324C146.27 63.9438 146.263 63.9544 146.254 63.9601L144.325 65.0733C144.316 65.079 144.303 65.079 144.294 65.0733L142.365 63.9601C142.356 63.9544 142.35 63.9438 142.35 63.9324V61.7061C142.35 61.6947 142.356 61.6841 142.365 61.6784L144.294 60.5653C144.303 60.5596 144.316 60.5596 144.325 60.5653Z" fill="#FEB62B" stroke="black" stroke-width="0.75"/>
<path d="M140.154 60.5653L142.082 61.6784C142.092 61.6841 142.098 61.6947 142.098 61.7061V63.9324C142.098 63.9438 142.092 63.9544 142.082 63.9601L140.154 65.0733C140.144 65.079 140.132 65.079 140.122 65.0733L138.194 63.9601C138.184 63.9544 138.178 63.9438 138.178 63.9324V61.7061C138.178 61.6947 138.184 61.6841 138.194 61.6784L140.122 60.5653C140.132 60.5596 140.144 60.5596 140.154 60.5653Z" fill="#FED22B" stroke="black" stroke-width="0.75"/>
<path d="M133.944 57.0049L135.868 58.1177C135.878 58.1234 135.884 58.134 135.884 58.1454V60.3721C135.884 60.3835 135.878 60.394 135.868 60.3997L133.944 61.5125C133.934 61.5183 133.921 61.5183 133.912 61.5125L131.987 60.3997C131.977 60.394 131.971 60.3835 131.971 60.3721V58.1454C131.971 58.134 131.977 58.1234 131.987 58.1177L133.912 57.0049C133.921 56.9992 133.934 56.9992 133.944 57.0049Z" fill="#FED22B" stroke="black" stroke-width="0.75"/>
<path d="M142.274 57.0049L144.198 58.1177C144.208 58.1234 144.214 58.134 144.214 58.1454V60.3721C144.214 60.3835 144.208 60.394 144.198 60.3997L142.274 61.5125C142.264 61.5183 142.252 61.5183 142.242 61.5125L140.317 60.3997C140.307 60.394 140.301 60.3835 140.301 60.3721V58.1454C140.301 58.134 140.307 58.1234 140.317 58.1177L142.242 57.0049C142.252 56.9992 142.264 56.9992 142.274 57.0049Z" fill="#FED22B" stroke="black" stroke-width="0.75"/>
<path d="M138.109 57.0049L140.033 58.1177C140.043 58.1234 140.049 58.134 140.049 58.1454V60.3721C140.049 60.3835 140.043 60.394 140.033 60.3997L138.109 61.5125C138.099 61.5183 138.086 61.5183 138.077 61.5125L136.152 60.3997C136.142 60.394 136.136 60.3835 136.136 60.3721V58.1454C136.136 58.134 136.142 58.1234 136.152 58.1177L138.077 57.0049C138.086 56.9992 138.099 56.9992 138.109 57.0049Z" fill="#FEB62B" stroke="black" stroke-width="0.75"/>
<path d="M146.439 57.0049L148.363 58.1177C148.373 58.1234 148.379 58.134 148.379 58.1454V60.3721C148.379 60.3835 148.373 60.394 148.363 60.3997L146.439 61.5125C146.429 61.5183 146.417 61.5183 146.407 61.5125L144.482 60.3997C144.472 60.394 144.466 60.3835 144.466 60.3721V58.1454C144.466 58.134 144.472 58.1234 144.482 58.1177L146.407 57.0049C146.417 56.9992 146.429 56.9992 146.439 57.0049Z" fill="#FED22B" stroke="black" stroke-width="0.75"/>
<path d="M133.944 64.126L135.868 65.2388C135.878 65.2445 135.884 65.2551 135.884 65.2665V67.4931C135.884 67.5046 135.878 67.5151 135.868 67.5208L133.944 68.6336C133.934 68.6393 133.921 68.6393 133.912 68.6336L131.987 67.5208C131.977 67.5151 131.971 67.5046 131.971 67.4931V65.2665C131.971 65.2551 131.977 65.2445 131.987 65.2388L133.912 64.126C133.921 64.1203 133.934 64.1203 133.944 64.126Z" fill="#FED22B" stroke="black" stroke-width="0.75"/>
<path d="M142.274 64.126L144.198 65.2388C144.208 65.2445 144.214 65.2551 144.214 65.2665V67.4931C144.214 67.5046 144.208 67.5151 144.198 67.5208L142.274 68.6336C142.264 68.6393 142.252 68.6393 142.242 68.6336L140.317 67.5208C140.307 67.5151 140.301 67.5046 140.301 67.4931V65.2665C140.301 65.2551 140.307 65.2445 140.317 65.2388L142.242 64.126C142.252 64.1203 142.264 64.1203 142.274 64.126Z" fill="#FED22B" stroke="black" stroke-width="0.75"/>
<path d="M138.109 64.126L140.033 65.2388C140.043 65.2445 140.049 65.2551 140.049 65.2665V67.4931C140.049 67.5046 140.043 67.5151 140.033 67.5208L138.109 68.6336C138.099 68.6393 138.086 68.6393 138.077 68.6336L136.152 67.5208C136.142 67.5151 136.136 67.5046 136.136 67.4931V65.2665C136.136 65.2551 136.142 65.2445 136.152 65.2388L138.077 64.126C138.086 64.1203 138.099 64.1203 138.109 64.126Z" fill="#FE9D2B" stroke="black" stroke-width="0.75"/>
<path d="M146.439 64.126L148.363 65.2388C148.373 65.2445 148.379 65.2551 148.379 65.2665V67.4931C148.379 67.5046 148.373 67.5151 148.363 67.5208L146.439 68.6336C146.429 68.6393 146.417 68.6393 146.407 68.6336L144.482 67.5208C144.472 67.5151 144.466 67.5046 144.466 67.4931V65.2665C144.466 65.2551 144.472 65.2445 144.482 65.2388L146.407 64.126C146.417 64.1203 146.429 64.1203 146.439 64.126Z" fill="#FED22B" stroke="black" stroke-width="0.75"/>
</g>
<path d="M62.9111 67.5292C63.9238 69.4921 63.6194 72.6609 63.3406 74L85.063 74C84.7014 72.6914 85.5452 70.2955 86.0124 69.2612C84.8732 69.2612 83.9253 70.7847 83.5938 71.5464L82.8704 68.6838L82.1019 70.3918C82.0115 69.468 81.1902 68.8683 80.7909 68.6838C80.7909 69.6076 80.2785 70.9771 80.0223 71.5464L78.9826 67C78.8921 67.943 78.2517 69.6541 77.9428 70.3918C77.5992 70.0261 77.1366 68.6037 76.9482 67.9381C76.894 68.2653 76.2625 70.0149 75.9536 70.8488C75.7185 70.3869 75.5694 69.2131 75.5242 68.6838C75.2167 68.9148 74.3713 71.0412 73.9871 72.0756C73.9871 71.6522 72.8117 68.8683 72.224 67.5292C72.5314 70.2041 71.7342 71.6747 71.2972 72.0756C71.2972 71.71 70.7849 70.047 70.5287 69.2612C70.4383 70.2426 69.7978 71.5464 69.4889 72.0756C68.6932 70.5361 68.6149 68.4032 68.6751 67.5292C67.8072 68.5684 67.3189 70.1753 67.1833 70.8488C66.912 70.6179 66.7086 69.6942 66.6408 69.2612L65.7592 72.0756C65.7231 69.8433 63.8454 68.1145 62.9111 67.5292Z" fill="#5B9B40"/>
<path d="M21.3291 67.5292C22.3418 69.4921 22.0374 72.6609 21.7586 74L43.481 74C43.1193 72.6914 43.9632 70.2955 44.4304 69.2612C43.2911 69.2612 42.3433 70.7847 42.0117 71.5464L41.2884 68.6838L40.5199 70.3918C40.4295 69.468 39.6082 68.8683 39.2088 68.6838C39.2088 69.6076 38.6965 70.9771 38.4403 71.5464L37.4005 67C37.3101 67.943 36.6697 69.6541 36.3607 70.3918C36.0172 70.0261 35.5545 68.6037 35.3662 67.9381C35.3119 68.2653 34.6805 70.0149 34.3716 70.8488C34.1365 70.3869 33.9873 69.2131 33.9421 68.6838C33.6347 68.9148 32.7893 71.0412 32.4051 72.0756C32.4051 71.6522 31.2296 68.8683 30.6419 67.5292C30.9494 70.2041 30.1522 71.6747 29.7152 72.0756C29.7152 71.71 29.2028 70.047 28.9466 69.2612C28.8562 70.2426 28.2158 71.5464 27.9069 72.0756C27.1112 70.5361 27.0328 68.4032 27.0931 67.5292C26.2251 68.5684 25.7369 70.1753 25.6013 70.8488C25.33 70.6179 25.1266 69.6942 25.0588 69.2612L24.1772 72.0756C24.141 69.8433 22.2634 68.1145 21.3291 67.5292Z" fill="#5B9B40"/>
<path d="M103.569 67.5292C104.582 69.4921 104.278 72.6609 103.999 74L125.721 74C125.36 72.6914 126.203 70.2955 126.671 69.2612C125.531 69.2612 124.583 70.7847 124.252 71.5464L123.529 68.6838L122.76 70.3918C122.67 69.468 121.848 68.8683 121.449 68.6838C121.449 69.6076 120.937 70.9771 120.681 71.5464L119.641 67C119.55 67.943 118.91 69.6541 118.601 70.3918C118.257 70.0261 117.795 68.6037 117.606 67.9381C117.552 68.2653 116.921 70.0149 116.612 70.8488C116.377 70.3869 116.228 69.2131 116.182 68.6838C115.875 68.9148 115.03 71.0412 114.645 72.0756C114.645 71.6522 113.47 68.8683 112.882 67.5292C113.19 70.2041 112.392 71.6747 111.955 72.0756C111.955 71.71 111.443 70.047 111.187 69.2612C111.096 70.2426 110.456 71.5464 110.147 72.0756C109.351 70.5361 109.273 68.4032 109.333 67.5292C108.465 68.5684 107.977 70.1753 107.841 70.8488C107.57 70.6179 107.367 69.6942 107.299 69.2612L106.417 72.0756C106.381 69.8433 104.504 68.1145 103.569 67.5292Z" fill="#5B9B40"/>
<path d="M125 67.5292C126.013 69.4921 125.708 72.6609 125.429 74L147.152 74C146.79 72.6914 147.634 70.2955 148.101 69.2612C146.962 69.2612 146.014 70.7847 145.683 71.5464L144.959 68.6838L144.191 70.3918C144.1 69.468 143.279 68.8683 142.88 68.6838C142.88 69.6076 142.367 70.9771 142.111 71.5464L141.071 67C140.981 67.943 140.341 69.6541 140.032 70.3918C139.688 70.0261 139.225 68.6037 139.037 67.9381C138.983 68.2653 138.351 70.0149 138.042 70.8488C137.807 70.3869 137.658 69.2131 137.613 68.6838C137.306 68.9148 136.46 71.0412 136.076 72.0756C136.076 71.6522 134.901 68.8683 134.313 67.5292C134.62 70.2041 133.823 71.6747 133.386 72.0756C133.386 71.71 132.874 70.047 132.618 69.2612C132.527 70.2426 131.887 71.5464 131.578 72.0756C130.782 70.5361 130.704 68.4032 130.764 67.5292C129.896 68.5684 129.408 70.1753 129.272 70.8488C129.001 70.6179 128.797 69.6942 128.73 69.2612L127.848 72.0756C127.812 69.8433 125.934 68.1145 125 67.5292Z" fill="#5B9B40"/>
<path d="M1 67.5292C2.01266 69.4921 1.70826 72.6609 1.42948 74L23.1519 74C22.7902 72.6914 23.6341 70.2955 24.1013 69.2612C22.962 69.2612 22.0142 70.7847 21.6826 71.5464L20.9593 68.6838L20.1908 70.3918C20.1004 69.468 19.2791 68.8683 18.8797 68.6838C18.8797 69.6076 18.3674 70.9771 18.1112 71.5464L17.0714 67C16.981 67.943 16.3406 69.6541 16.0316 70.3918C15.6881 70.0261 15.2254 68.6037 15.0371 67.9381C14.9828 68.2653 14.3514 70.0149 14.0425 70.8488C13.8074 70.3869 13.6582 69.2131 13.613 68.6838C13.3056 68.9148 12.4602 71.0412 12.0759 72.0756C12.0759 71.6522 10.9005 68.8683 10.3128 67.5292C10.6203 70.2041 9.82309 71.6747 9.38608 72.0756C9.38608 71.71 8.87372 70.047 8.61754 69.2612C8.52712 70.2426 7.88668 71.5464 7.57776 72.0756C6.7821 70.5361 6.70374 68.4032 6.76401 67.5292C5.89602 68.5684 5.40778 70.1753 5.27215 70.8488C5.0009 70.6179 4.79747 69.6942 4.72966 69.2612L3.8481 72.0756C3.81193 69.8433 1.9343 68.1145 1 67.5292Z" fill="#5B9B40"/>
<path d="M83.2402 67.5292C84.2529 69.4921 83.9485 72.6609 83.6697 74L105.392 74C105.03 72.6914 105.874 70.2955 106.341 69.2612C105.202 69.2612 104.254 70.7847 103.923 71.5464L103.2 68.6838L102.431 70.3918C102.341 69.468 101.519 68.8683 101.12 68.6838C101.12 69.6076 100.608 70.9771 100.351 71.5464L99.3117 67C99.2212 67.943 98.5808 69.6541 98.2719 70.3918C97.9283 70.0261 97.4657 68.6037 97.2773 67.9381C97.2231 68.2653 96.5917 70.0149 96.2827 70.8488C96.0476 70.3869 95.8985 69.2131 95.8533 68.6838C95.5458 68.9148 94.7005 71.0412 94.3162 72.0756C94.3162 71.6522 93.1408 68.8683 92.5531 67.5292C92.8605 70.2041 92.0633 71.6747 91.6263 72.0756C91.6263 71.71 91.114 70.047 90.8578 69.2612C90.7674 70.2426 90.1269 71.5464 89.818 72.0756C89.0223 70.5361 88.944 68.4032 89.0042 67.5292C88.1363 68.5684 87.648 70.1753 87.5124 70.8488C87.2411 70.6179 87.0377 69.6942 86.9699 69.2612L86.0883 72.0756C86.0522 69.8433 84.1745 68.1145 83.2402 67.5292Z" fill="#5B9B40"/>
<path d="M41.6582 67.5292C42.6709 69.4921 42.3665 72.6609 42.0877 74L63.8101 74C63.4484 72.6914 64.2923 70.2955 64.7595 69.2612C63.6202 69.2612 62.6724 70.7847 62.3408 71.5464L61.6175 68.6838L60.849 70.3918C60.7586 69.468 59.9373 68.8683 59.5379 68.6838C59.5379 69.6076 59.0256 70.9771 58.7694 71.5464L57.7296 67C57.6392 67.943 56.9988 69.6541 56.6898 70.3918C56.3463 70.0261 55.8836 68.6037 55.6953 67.9381C55.641 68.2653 55.0096 70.0149 54.7007 70.8488C54.4656 70.3869 54.3164 69.2131 54.2712 68.6838C53.9638 68.9148 53.1184 71.0412 52.7342 72.0756C52.7342 71.6522 51.5587 68.8683 50.971 67.5292C51.2785 70.2041 50.4813 71.6747 50.0443 72.0756C50.0443 71.71 49.5319 70.047 49.2757 69.2612C49.1853 70.2426 48.5449 71.5464 48.236 72.0756C47.4403 70.5361 47.3619 68.4032 47.4222 67.5292C46.5542 68.5684 46.066 70.1753 45.9304 70.8488C45.6591 70.6179 45.4557 69.6942 45.3879 69.2612L44.5063 72.0756C44.4701 69.8433 42.5925 68.1145 41.6582 67.5292Z" fill="#5B9B40"/>
<path d="M80.8598 45.7233H65.5498V44.0158C65.5498 42.0158 66.3723 39.6758 67.3898 39.6758H80.8598V45.7208V45.7233Z" fill="#969FAA" stroke="black" stroke-miterlimit="10"/>
<path d="M84.288 12.0762H61.7705V31.6287H84.288V12.0762Z" fill="#CCD1D9" stroke="black" stroke-miterlimit="10"/>
<path d="M64.3052 10.832H81.1527V21.6795C81.1527 24.447 78.9052 26.6945 76.1377 26.6945H69.3177C66.5502 26.6945 64.3027 24.447 64.3027 21.6795V10.832H64.3052Z" fill="#B27946" stroke="black" stroke-miterlimit="10"/>
<path d="M67.0731 4.27734H78.9856C81.9856 4.27734 84.4206 6.71234 84.4206 9.71234V10.1773H61.6406V9.71234C61.6406 6.71234 64.0756 4.27734 67.0756 4.27734H67.0731Z" fill="#969FAA" stroke="black" stroke-miterlimit="10"/>
<path d="M84.9352 10.1758H61.1252C60.74 10.1758 60.4277 10.4881 60.4277 10.8733V12.3908C60.4277 12.776 60.74 13.0883 61.1252 13.0883H84.9352C85.3205 13.0883 85.6327 12.776 85.6327 12.3908V10.8733C85.6327 10.4881 85.3205 10.1758 84.9352 10.1758Z" fill="#AAB2BD" stroke="black" stroke-miterlimit="10"/>
<path d="M81.5857 28.0982C81.5857 28.0982 79.8557 26.8007 74.2732 26.9382V25.8607C76.5007 25.1007 78.1032 22.9932 78.1032 20.5082V13.2207H66.7907V20.5082C66.7907 22.9932 68.3932 25.1032 70.6207 25.8607V27.0132C69.8857 26.9257 67.0407 26.9932 64.5857 28.3682C61.6782 29.9957 71.6807 33.9982 71.6807 33.9982L81.3982 31.1282L81.5857 28.0982Z" fill="#F0D0B4" stroke="black" stroke-miterlimit="10"/>
<path d="M66.7812 16.7109V21.3934C65.4962 21.3934 64.4512 20.3484 64.4512 19.0634V19.0409C64.4512 17.7559 65.4962 16.7109 66.7812 16.7109Z" fill="#F0D0B4" stroke="black" stroke-miterlimit="10"/>
<path d="M78.0987 21.3926V16.7101C79.3837 16.7101 80.4287 17.7551 80.4287 19.0401V19.0626C80.4287 20.3476 79.3837 21.3926 78.0987 21.3926Z" fill="#F0D0B4" stroke="black" stroke-miterlimit="10"/>
<path d="M69.9775 13.0938H75.8825V15.9587H72.8425C71.26 15.9587 69.9775 14.6738 69.9775 13.0938Z" fill="#B27946" stroke="black" stroke-miterlimit="10"/>
<path d="M73.3301 13.0938H78.0951V15.9587H76.0501C74.5476 15.9587 73.3301 14.7387 73.3301 13.2387V13.0938Z" fill="#B27946" stroke="black" stroke-miterlimit="10"/>
<path d="M69.985 19.0695C70.3785 19.0695 70.6975 18.7505 70.6975 18.357C70.6975 17.9635 70.3785 17.6445 69.985 17.6445C69.5915 17.6445 69.2725 17.9635 69.2725 18.357C69.2725 18.7505 69.5915 19.0695 69.985 19.0695Z" fill="black"/>
<path d="M75.4703 19.0695C75.8638 19.0695 76.1828 18.7505 76.1828 18.357C76.1828 17.9635 75.8638 17.6445 75.4703 17.6445C75.0768 17.6445 74.7578 17.9635 74.7578 18.357C74.7578 18.7505 75.0768 19.0695 75.4703 19.0695Z" fill="black"/>
<path d="M72.7373 17.6426V20.4351" stroke="black" stroke-miterlimit="10"/>
<path d="M70.7002 21.1875L70.7077 21.2C71.8327 22.82 73.6352 22.815 74.7577 21.1875" stroke="black" stroke-miterlimit="10"/>
<path d="M64.775 28.2812C68.305 31.6688 71.1025 32.4213 72.87 32.4213C75.41 32.4213 79.74 31.0512 81.8575 28.2812C84.2575 29.9288 85.81 33.1288 85.81 33.1288V40.6112H66.4225V34.6812L62.8 40.6112H59.6475V33.1763C59.6475 33.1763 60.2125 30.8238 64.7775 28.2812H64.775Z" fill="#B4DD7F" stroke="black" stroke-miterlimit="10"/>
<path d="M66.4229 40.2515V32.7715" stroke="black" stroke-miterlimit="10"/>
<path d="M53.1922 13.9998L56.6606 17.4682L56.0666 18.0621C55.1385 18.9902 53.6324 18.9902 52.7043 18.0621L52.5965 17.9543C51.6684 17.0262 51.6684 15.5201 52.5965 14.592L53.1904 13.998L53.1922 13.9998Z" fill="#FFEAA7" stroke="#020202" stroke-miterlimit="10"/>
<path d="M59.0617 15.0627L55.5933 11.5943L56.1873 11.0004C57.1154 10.0723 58.6215 10.0723 59.5496 11.0004L59.6574 11.1082C60.5855 12.0363 60.5855 13.5424 59.6574 14.4705L59.0635 15.0645L59.0617 15.0627Z" fill="#FFEAA7" stroke="#020202" stroke-miterlimit="10"/>
<path d="M58.4426 14.4699L56.0331 12.0604C55.3741 11.4014 54.3056 11.4014 53.6466 12.0604L53.6448 12.0622C52.9858 12.7212 52.9858 13.7897 53.6448 14.4487L56.0543 16.8581C56.7133 17.5172 57.7818 17.5172 58.4408 16.8581L58.4426 16.8564C59.1016 16.1974 59.1016 15.1289 58.4426 14.4699Z" fill="#FCD770" stroke="black" stroke-miterlimit="10"/>
<path d="M61.2558 33.1133H59.3883C59.0983 33.1133 58.8633 33.3483 58.8633 33.6383V45.2008C58.8633 45.4907 59.0983 45.7258 59.3883 45.7258H61.2558C61.5457 45.7258 61.7808 45.4907 61.7808 45.2008V33.6383C61.7808 33.3483 61.5457 33.1133 61.2558 33.1133Z" fill="#B27946" stroke="black" stroke-miterlimit="10"/>
<path d="M57.3408 28.8516H63.1808V31.9466C63.1808 32.5891 62.6583 33.1116 62.0158 33.1116H58.5058C57.8633 33.1116 57.3408 32.5891 57.3408 31.9466V28.8516Z" fill="#CF9E76" stroke="black" stroke-miterlimit="10"/>
<path d="M63.1808 26.2168H57.3408V28.8518H63.1808V26.2168Z" fill="#DFB28B" stroke="black" stroke-miterlimit="10"/>
<path d="M61.9281 37.207H58.5931C57.8378 37.207 57.2256 37.8193 57.2256 38.5745V41.452C57.2256 42.2073 57.8378 42.8195 58.5931 42.8195H61.9281C62.6833 42.8195 63.2956 42.2073 63.2956 41.452V38.5745C63.2956 37.8193 62.6833 37.207 61.9281 37.207Z" fill="#F0D0B4" stroke="black" stroke-miterlimit="10"/>
<path d="M62.8982 40.2769C63.7556 40.2769 64.4507 39.5818 64.4507 38.7244C64.4507 37.867 63.7556 37.1719 62.8982 37.1719C62.0408 37.1719 61.3457 37.867 61.3457 38.7244C61.3457 39.5818 62.0408 40.2769 62.8982 40.2769Z" fill="#F0D0B4" stroke="black" stroke-miterlimit="10"/>
<path d="M93.365 31.4688H77.8975C77.493 31.4688 77.165 31.7967 77.165 32.2013V33.9513C77.165 34.3558 77.493 34.6838 77.8975 34.6838H93.365C93.7696 34.6838 94.0975 34.3558 94.0975 33.9513V32.2013C94.0975 31.7967 93.7696 31.4688 93.365 31.4688Z" fill="#CF9E76" stroke="black" stroke-miterlimit="10"/>
<path d="M78.5796 34.6836H92.6847V44.7036C92.6847 45.2661 92.2271 45.7236 91.6646 45.7236H79.5971C79.0346 45.7236 78.5771 45.2661 78.5771 44.7036V34.6836H78.5796Z" fill="#DFB28B" stroke="black" stroke-miterlimit="10"/>
<path d="M82.2402 41.431L86.9427 36.7285" stroke="black" stroke-miterlimit="10"/>
<path d="M84.2852 43.4779L88.9877 38.7754" stroke="black" stroke-miterlimit="10"/>
<path d="M84.3223 36.7637L89.0223 41.4662" stroke="black" stroke-miterlimit="10"/>
<path d="M82.2754 38.8125L86.9779 43.515" stroke="black" stroke-miterlimit="10"/>
<path d="M86.8132 30.3086H82.4382C81.6844 30.3086 81.0732 30.9197 81.0732 31.6736V33.3111C81.0732 34.065 81.6844 34.6761 82.4382 34.6761H86.8132C87.5671 34.6761 88.1782 34.065 88.1782 33.3111V31.6736C88.1782 30.9197 87.5671 30.3086 86.8132 30.3086Z" fill="#F0D0B4" stroke="black" stroke-miterlimit="10"/>
</svg>
