<svg width="153" height="179" viewBox="0 0 153 179" fill="none" xmlns="http://www.w3.org/2000/svg">
<rect x="3.5" y="153.049" width="146" height="24.0052" rx="5.56186" fill="#D9D9D9" stroke="black"/>
<rect x="68.2061" y="154.064" width="1.14397" height="0.757732" fill="#D9D9D9"/>
<path d="M90.0045 152.707H56.041V25.1303C56.041 24.1041 56.5209 23.1331 57.3368 22.5129L84.7217 1.67711C86.8887 0.0306254 90.0008 1.57375 90.0008 4.29451V152.711L90.0045 152.707Z" fill="#A3D1E7" stroke="black" stroke-miterlimit="10"/>
<path d="M84.0084 28.5391L61.4142 28.5391C61.2516 28.5391 60.9584 28.4916 60.7229 28.3389C60.518 28.2061 60.3299 27.981 60.3299 27.5238C60.3299 27.0665 60.518 26.8414 60.7229 26.7086C60.9584 26.5559 61.2516 26.5084 61.4142 26.5084L84.0084 26.5084C84.171 26.5084 84.4643 26.5559 84.6998 26.7086C84.9046 26.8414 85.0928 27.0665 85.0928 27.5238C85.0928 27.981 84.9046 28.2061 84.6998 28.3389C84.4643 28.4916 84.171 28.5391 84.0084 28.5391Z" fill="#E7F2F8" stroke="black"/>
<path d="M84.0084 69.4551L61.4142 69.4551C61.2516 69.4551 60.9584 69.4076 60.7229 69.2549C60.518 69.1221 60.3299 68.897 60.3299 68.4398C60.3299 67.9825 60.518 67.7575 60.7229 67.6246C60.9584 67.4719 61.2516 67.4245 61.4142 67.4245L84.0084 67.4245C84.171 67.4245 84.4643 67.4719 84.6998 67.6246C84.9046 67.7575 85.0928 67.9825 85.0928 68.4398C85.0928 68.897 84.9046 69.1221 84.6998 69.2549C84.4643 69.4076 84.171 69.4551 84.0084 69.4551Z" fill="#E7F2F8" stroke="black"/>
<path d="M84.0084 110.373L61.4142 110.373C61.2516 110.373 60.9584 110.326 60.7229 110.173C60.518 110.04 60.3299 109.815 60.3299 109.358C60.3299 108.9 60.518 108.675 60.7229 108.543C60.9584 108.39 61.2516 108.342 61.4142 108.342L84.0084 108.342C84.171 108.342 84.4643 108.39 84.6998 108.543C84.9046 108.675 85.0928 108.9 85.0928 109.358C85.0928 109.815 84.9046 110.04 84.6998 110.173C84.4643 110.326 84.171 110.373 84.0084 110.373Z" fill="#E7F2F8" stroke="black"/>
<path d="M84.0084 48.998L61.4142 48.998C61.2516 48.998 60.9584 48.9506 60.7229 48.7979C60.518 48.665 60.3299 48.44 60.3299 47.9827C60.3299 47.5255 60.518 47.3004 60.7229 47.1676C60.9584 47.0149 61.2516 46.9674 61.4142 46.9674L84.0084 46.9674C84.171 46.9674 84.4643 47.0149 84.6998 47.1676C84.9046 47.3004 85.0928 47.5255 85.0928 47.9827C85.0928 48.44 84.9046 48.665 84.6998 48.7979C84.4643 48.9506 84.171 48.998 84.0084 48.998Z" fill="#E7F2F8" stroke="black"/>
<path d="M84.0084 89.916L61.4142 89.916C61.2516 89.916 60.9584 89.8685 60.7229 89.7158C60.518 89.583 60.3299 89.358 60.3299 88.9007C60.3299 88.4434 60.518 88.2184 60.7229 88.0856C60.9584 87.9329 61.2516 87.8854 61.4142 87.8854L84.0084 87.8854C84.171 87.8854 84.4643 87.9329 84.6998 88.0856C84.9046 88.2184 85.0928 88.4434 85.0928 88.9007C85.0928 89.358 84.9046 89.583 84.6998 89.7158C84.4643 89.8685 84.171 89.916 84.0084 89.916Z" fill="#E7F2F8" stroke="black"/>
<path d="M75.4283 130.832L61.6595 130.832C61.5746 130.832 61.1989 130.786 60.8613 130.609C60.5425 130.441 60.33 130.204 60.33 129.817C60.33 129.429 60.5425 129.192 60.8613 129.025C61.1989 128.847 61.5746 128.801 61.6595 128.801L75.4283 128.801C75.5132 128.801 75.8889 128.847 76.2265 129.025C76.5452 129.192 76.7578 129.429 76.7578 129.817C76.7578 130.204 76.5452 130.441 76.2265 130.609C75.8889 130.786 75.5132 130.832 75.4283 130.832Z" fill="#E7F2F8" stroke="black"/>
<path d="M84.0084 35.3574L61.4142 35.3574C61.2516 35.3574 60.9584 35.3099 60.7229 35.1573C60.518 35.0244 60.3299 34.7994 60.3299 34.3421C60.3299 33.8848 60.518 33.6598 60.7229 33.527C60.9584 33.3743 61.2516 33.3268 61.4142 33.3268L84.0084 33.3268C84.171 33.3268 84.4643 33.3743 84.6998 33.527C84.9046 33.6598 85.0928 33.8848 85.0928 34.3421C85.0928 34.7994 84.9046 35.0244 84.6998 35.1573C84.4643 35.3099 84.171 35.3574 84.0084 35.3574Z" fill="#E7F2F8" stroke="black"/>
<path d="M84.0084 76.2754L61.4142 76.2754C61.2516 76.2754 60.9584 76.2279 60.7229 76.0752C60.518 75.9424 60.3299 75.7173 60.3299 75.2601C60.3299 74.8028 60.518 74.5778 60.7229 74.4449C60.9584 74.2922 61.2516 74.2448 61.4142 74.2448L84.0084 74.2448C84.171 74.2448 84.4643 74.2922 84.6998 74.4449C84.9046 74.5778 85.0928 74.8028 85.0928 75.2601C85.0928 75.7173 84.9046 75.9424 84.6998 76.0752C84.4643 76.2279 84.171 76.2754 84.0084 76.2754Z" fill="#E7F2F8" stroke="black"/>
<path d="M84.0084 117.193L61.4142 117.193C61.2516 117.193 60.9584 117.146 60.7229 116.993C60.518 116.86 60.3299 116.635 60.3299 116.178C60.3299 115.721 60.518 115.496 60.7229 115.363C60.9584 115.21 61.2516 115.163 61.4142 115.163L84.0084 115.163C84.171 115.163 84.4643 115.21 84.6998 115.363C84.9046 115.496 85.0928 115.721 85.0928 116.178C85.0928 116.635 84.9046 116.86 84.6998 116.993C84.4643 117.146 84.171 117.193 84.0084 117.193Z" fill="#E7F2F8" stroke="black"/>
<path d="M84.0084 55.8184L61.4142 55.8184C61.2516 55.8184 60.9584 55.7709 60.7229 55.6182C60.518 55.4854 60.3299 55.2603 60.3299 54.803C60.3299 54.3458 60.518 54.1207 60.7229 53.9879C60.9584 53.8352 61.2516 53.7877 61.4142 53.7877L84.0084 53.7877C84.171 53.7877 84.4643 53.8352 84.6998 53.9879C84.9046 54.1207 85.0928 54.3458 85.0928 54.803C85.0928 55.2603 84.9046 55.4854 84.6998 55.6182C84.4643 55.7709 84.171 55.8184 84.0084 55.8184Z" fill="#E7F2F8" stroke="black"/>
<path d="M84.0084 96.7344L61.4142 96.7344C61.2516 96.7344 60.9584 96.6869 60.7229 96.5342C60.518 96.4014 60.3299 96.1763 60.3299 95.7191C60.3299 95.2618 60.518 95.0368 60.7229 94.9039C60.9584 94.7512 61.2516 94.7038 61.4142 94.7038L84.0084 94.7038C84.171 94.7038 84.4643 94.7512 84.6998 94.9039C84.9046 95.0368 85.0928 95.2618 85.0928 95.7191C85.0928 96.1763 84.9046 96.4014 84.6998 96.5342C84.4643 96.6869 84.171 96.7344 84.0084 96.7344Z" fill="#E7F2F8" stroke="black"/>
<path d="M71.8732 137.654L61.4271 137.654C61.4278 137.654 61.4276 137.654 61.4265 137.654C61.422 137.654 61.4013 137.653 61.3641 137.647C61.3217 137.641 61.2667 137.63 61.2038 137.613C61.0764 137.579 60.9297 137.525 60.7941 137.444C60.536 137.29 60.3306 137.056 60.3306 136.639C60.3306 136.222 60.536 135.987 60.7941 135.834C60.9297 135.753 61.0764 135.698 61.2038 135.665C61.2667 135.648 61.3217 135.637 61.3641 135.631C61.4013 135.625 61.422 135.624 61.4265 135.624C61.4276 135.623 61.4278 135.623 61.4271 135.623L71.8732 135.623C71.8725 135.623 71.8727 135.623 71.8738 135.624C71.8783 135.624 71.899 135.625 71.9362 135.631C71.9786 135.637 72.0336 135.648 72.0965 135.665C72.2239 135.698 72.3705 135.753 72.5062 135.834C72.7643 135.987 72.9697 136.222 72.9697 136.639C72.9697 137.056 72.7643 137.29 72.5062 137.444C72.3705 137.525 72.2239 137.579 72.0965 137.613C72.0336 137.63 71.9786 137.641 71.9362 137.647C71.899 137.653 71.8783 137.654 71.8738 137.654C71.8727 137.654 71.8725 137.654 71.8732 137.654Z" fill="#E7F2F8" stroke="black"/>
<path d="M84.0084 42.1777L61.4142 42.1777C61.2516 42.1777 60.9584 42.1303 60.7229 41.9776C60.518 41.8447 60.3299 41.6197 60.3299 41.1624C60.3299 40.7052 60.518 40.4801 60.7229 40.3473C60.9584 40.1946 61.2516 40.1471 61.4142 40.1471L84.0084 40.1471C84.171 40.1471 84.4643 40.1946 84.6998 40.3473C84.9046 40.4801 85.0928 40.7052 85.0928 41.1624C85.0928 41.6197 84.9046 41.8447 84.6998 41.9776C84.4643 42.1303 84.171 42.1777 84.0084 42.1777Z" fill="#E7F2F8" stroke="black"/>
<path d="M84.0084 83.0957L61.4142 83.0957C61.2516 83.0957 60.9584 83.0482 60.7229 82.8955C60.518 82.7627 60.3299 82.5377 60.3299 82.0804C60.3299 81.6231 60.518 81.3981 60.7229 81.2653C60.9584 81.1126 61.2516 81.0651 61.4142 81.0651L84.0084 81.0651C84.171 81.0651 84.4643 81.1126 84.6998 81.2653C84.9046 81.3981 85.0928 81.6231 85.0928 82.0804C85.0928 82.5377 84.9046 82.7627 84.6998 82.8955C84.4643 83.0482 84.171 83.0957 84.0084 83.0957Z" fill="#E7F2F8" stroke="black"/>
<path d="M84.0084 124.014L61.4142 124.014C61.2516 124.014 60.9584 123.966 60.7229 123.814C60.518 123.681 60.3299 123.456 60.3299 122.998C60.3299 122.541 60.518 122.316 60.7229 122.183C60.9584 122.031 61.2516 121.983 61.4142 121.983L84.0084 121.983C84.171 121.983 84.4643 122.031 84.6998 122.183C84.9046 122.316 85.0928 122.541 85.0928 122.998C85.0928 123.456 84.9046 123.681 84.6998 123.814C84.4643 123.966 84.171 124.014 84.0084 124.014Z" fill="#E7F2F8" stroke="black"/>
<path d="M84.0084 62.6367L61.4142 62.6367C61.2516 62.6367 60.9584 62.5892 60.7229 62.4365C60.518 62.3037 60.3299 62.0787 60.3299 61.6214C60.3299 61.1641 60.518 60.9391 60.7229 60.8063C60.9584 60.6536 61.2516 60.6061 61.4142 60.6061L84.0084 60.6061C84.171 60.6061 84.4643 60.6536 84.6998 60.8063C84.9046 60.9391 85.0928 61.1641 85.0928 61.6214C85.0928 62.0787 84.9046 62.3037 84.6998 62.4365C84.4643 62.5892 84.171 62.6367 84.0084 62.6367Z" fill="#E7F2F8" stroke="black"/>
<path d="M84.0084 103.555L61.4142 103.555C61.2516 103.555 60.9584 103.507 60.7229 103.355C60.518 103.222 60.3299 102.997 60.3299 102.539C60.3299 102.082 60.518 101.857 60.7229 101.724C60.9584 101.572 61.2516 101.524 61.4142 101.524L84.0084 101.524C84.171 101.524 84.4643 101.572 84.6998 101.724C84.9046 101.857 85.0928 102.082 85.0928 102.539C85.0928 102.997 84.9046 103.222 84.6998 103.355C84.4643 103.507 84.171 103.555 84.0084 103.555Z" fill="#E7F2F8" stroke="black"/>
<path d="M68.923 144.471L61.3457 144.471C61.2312 144.471 60.9543 144.427 60.7222 144.273C60.5201 144.139 60.3302 143.912 60.3302 143.455C60.3302 143.02 60.5296 142.788 60.7583 142.643C60.881 142.565 61.0146 142.512 61.1324 142.48C61.1906 142.464 61.2419 142.453 61.2821 142.447C61.3222 142.441 61.3435 142.44 61.3455 142.44C61.3457 142.44 61.3457 142.44 61.3457 142.44L68.923 142.44C68.9188 142.44 68.9202 142.44 68.9269 142.441C68.9462 142.444 69.0086 142.452 69.103 142.479C69.2204 142.512 69.3588 142.566 69.4882 142.646C69.7336 142.798 69.9385 143.032 69.9385 143.455C69.9385 143.878 69.7336 144.113 69.4882 144.265C69.3588 144.345 69.2204 144.398 69.103 144.432C69.0086 144.458 68.9462 144.467 68.9269 144.47C68.9202 144.471 68.9188 144.471 68.923 144.471Z" fill="#E7F2F8" stroke="black"/>
<path d="M17.7774 57.8281H57.5072C58.9728 57.8281 60.1615 59.0168 60.1615 60.4824V152.704H15.123V60.4824C15.123 59.0168 16.3118 57.8281 17.7774 57.8281Z" fill="#D5D9DC" stroke="black" stroke-miterlimit="10"/>
<path d="M21.4414 67.4875L21.4414 144.597C21.4414 145.321 21.3773 145.886 21.2064 146.258C21.1259 146.433 21.0304 146.545 20.9231 146.616C20.8173 146.687 20.6639 146.741 20.4259 146.741C20.188 146.741 20.0346 146.687 19.9288 146.616C19.8215 146.545 19.726 146.433 19.6455 146.258C19.4745 145.886 19.4105 145.321 19.4105 144.597L19.4105 67.4875C19.4105 66.7639 19.4745 66.1988 19.6455 65.8269C19.726 65.6516 19.8215 65.5394 19.9288 65.4682C20.0346 65.398 20.188 65.3438 20.4259 65.3438C20.6639 65.3438 20.8173 65.398 20.9231 65.4682C21.0304 65.5394 21.1259 65.6516 21.2064 65.8269C21.3773 66.1988 21.4414 66.7639 21.4414 67.4875Z" fill="#FED22B" stroke="black"/>
<path d="M28.2617 67.0562L28.2617 131.585C28.2617 132.186 28.1973 132.627 28.0428 132.909C27.9721 133.037 27.8858 133.126 27.7771 133.186C27.6654 133.248 27.4995 133.297 27.2463 133.297C26.993 133.297 26.8271 133.248 26.7154 133.186C26.6067 133.126 26.5204 133.037 26.4497 132.909C26.2952 132.627 26.2308 132.186 26.2308 131.585L26.2308 67.0562C26.2308 66.4555 26.2952 66.0139 26.4497 65.7324C26.5204 65.6036 26.6067 65.5152 26.7154 65.4548C26.8271 65.3928 26.993 65.3438 27.2463 65.3438C27.4995 65.3438 27.6654 65.3928 27.7771 65.4548C27.8858 65.5152 27.9721 65.6036 28.0428 65.7324C28.1973 66.0139 28.2617 66.4555 28.2617 67.0562Z" fill="#FED22B" stroke="black"/>
<path d="M35.0811 67.0562L35.0811 131.585C35.0811 132.186 35.0167 132.627 34.8621 132.909C34.7914 133.037 34.7052 133.126 34.5964 133.186C34.4848 133.248 34.3188 133.297 34.0656 133.297C33.8123 133.297 33.6464 133.248 33.5348 133.186C33.426 133.126 33.3398 133.037 33.2691 132.909C33.1145 132.627 33.0501 132.186 33.0501 131.585L33.0501 67.0562C33.0501 66.4555 33.1145 66.0139 33.2691 65.7324C33.3398 65.6036 33.426 65.5152 33.5348 65.4548C33.6464 65.3928 33.8123 65.3438 34.0656 65.3438C34.3188 65.3438 34.4848 65.3928 34.5964 65.4548C34.7052 65.5152 34.7914 65.6036 34.8621 65.7324C35.0167 66.0139 35.0811 66.4555 35.0811 67.0562Z" fill="#FED22B" stroke="black"/>
<path d="M41.9004 67.0562L41.9004 131.585C41.9004 132.186 41.836 132.627 41.6814 132.909C41.6107 133.037 41.5245 133.126 41.4158 133.186C41.3041 133.248 41.1382 133.297 40.8849 133.297C40.6317 133.297 40.4658 133.248 40.3541 133.186C40.2453 133.126 40.1591 133.037 40.0884 132.909C39.9339 132.627 39.8695 132.186 39.8695 131.585L39.8695 67.0562C39.8695 66.4555 39.9339 66.0139 40.0884 65.7324C40.1591 65.6036 40.2453 65.5152 40.3541 65.4548C40.4658 65.3928 40.6317 65.3438 40.8849 65.3438C41.1382 65.3438 41.3041 65.3928 41.4158 65.4548C41.5245 65.5152 41.6107 65.6036 41.6814 65.7324C41.836 66.0139 41.9004 66.4555 41.9004 67.0562Z" fill="#FED22B" stroke="black"/>
<path d="M48.7197 67.0562L48.7197 131.585C48.7197 132.186 48.6553 132.627 48.5008 132.909C48.4301 133.037 48.3439 133.126 48.2351 133.186C48.1234 133.248 47.9575 133.297 47.7043 133.297C47.451 133.297 47.2851 133.248 47.1734 133.186C47.0647 133.126 46.9785 133.037 46.9077 132.909C46.7532 132.627 46.6888 132.186 46.6888 131.585L46.6888 67.0562C46.6888 66.4555 46.7532 66.0139 46.9077 65.7324C46.9785 65.6036 47.0647 65.5152 47.1734 65.4548C47.2851 65.3928 47.451 65.3438 47.7043 65.3438C47.9575 65.3438 48.1234 65.3928 48.2351 65.4548C48.3439 65.5152 48.4301 65.6036 48.5008 65.7324C48.6553 66.0139 48.7197 66.4555 48.7197 67.0562Z" fill="#FED22B" stroke="black"/>
<path d="M55.54 67.2985L55.54 144.591C55.54 145.317 55.476 145.883 55.3049 146.257C55.2242 146.433 55.1286 146.545 55.0212 146.617C54.9155 146.687 54.7623 146.741 54.5246 146.741C54.2868 146.741 54.1337 146.687 54.0279 146.617C53.9206 146.545 53.8249 146.433 53.7443 146.257C53.5732 145.883 53.5091 145.317 53.5091 144.591L53.5091 67.2985C53.5091 66.5731 53.5732 66.0063 53.7443 65.633C53.8249 65.4571 53.9206 65.3444 54.0279 65.2731C54.1337 65.2028 54.2868 65.1484 54.5246 65.1484C54.7623 65.1484 54.9155 65.2028 55.0212 65.2731C55.1286 65.3444 55.2242 65.4571 55.3049 65.633C55.476 66.0063 55.54 66.5731 55.54 67.2985Z" fill="#FED22B" stroke="black"/>
<path d="M31.0351 138.123H44.2513C45.4954 138.123 46.5033 139.131 46.5033 140.375V152.521H28.7832V140.375C28.7832 139.131 29.791 138.123 31.0351 138.123Z" fill="#E7F2F8" stroke="black" stroke-miterlimit="10"/>
<path d="M85.6911 47.6309H127.389C129.533 47.6309 131.272 49.3733 131.272 51.5145V144.722H81.8037V51.5145C81.8037 49.3696 83.5462 47.6309 85.6874 47.6309H85.6911Z" fill="#E9F2F8" stroke="black" stroke-miterlimit="10"/>
<path d="M90.9002 38.4043H122.505C123.664 38.4043 124.605 39.3457 124.605 40.5049V47.6335H88.7959V40.5049C88.7959 39.3457 89.7373 38.4043 90.8965 38.4043H90.9002Z" fill="#DFE4E8" stroke="black" stroke-miterlimit="10"/>
<path d="M77.6992 144.725H135.714C137.124 144.725 138.272 145.869 138.272 147.283V152.477H75.1445V147.283C75.1445 145.873 76.2889 144.725 77.7029 144.725H77.6992Z" fill="#DFE4E8" stroke="black" stroke-miterlimit="10"/>
<path d="M95.7066 27.6973H117.702C118.761 27.6973 119.625 28.5574 119.625 29.6206V38.4031H93.7832V29.6206C93.7832 28.5611 94.6434 27.6973 95.7066 27.6973Z" fill="#E9F2F8" stroke="black" stroke-miterlimit="10"/>
<path d="M106.704 5.54688C107.926 5.54688 108.919 6.53994 108.919 7.76188V27.6969H104.489V7.76188C104.489 6.53994 105.482 5.54688 106.704 5.54688Z" fill="#E9F2F8" stroke="black" stroke-miterlimit="10"/>
<path d="M124.737 132.846L124.737 128.3C124.737 128.3 124.737 128.3 124.737 128.299C124.737 128.299 124.737 128.293 124.738 128.281C124.74 128.269 124.741 128.252 124.745 128.232C124.751 128.191 124.761 128.14 124.777 128.082C124.81 127.964 124.862 127.831 124.94 127.709C125.084 127.483 125.316 127.284 125.753 127.284C126.175 127.284 126.41 127.489 126.562 127.735C126.642 127.865 126.696 128.003 126.729 128.12C126.756 128.214 126.764 128.276 126.767 128.296C126.768 128.303 126.768 128.304 126.768 128.3L126.768 132.846C126.768 132.832 126.768 132.833 126.766 132.846C126.762 132.867 126.753 132.92 126.73 133.001C126.696 133.118 126.642 133.26 126.56 133.394C126.404 133.652 126.167 133.861 125.753 133.861C125.339 133.861 125.102 133.652 124.945 133.394C124.864 133.26 124.809 133.118 124.776 133.001C124.753 132.92 124.743 132.867 124.74 132.846C124.737 132.833 124.737 132.832 124.737 132.846Z" fill="#FED22B" stroke="black"/>
<path d="M124.737 90.4123L124.737 85.8659C124.737 85.866 124.737 85.866 124.737 85.8659C124.737 85.8651 124.737 85.8592 124.738 85.8478C124.74 85.8353 124.741 85.8187 124.745 85.7985C124.751 85.7577 124.761 85.7061 124.777 85.6479C124.81 85.53 124.862 85.3971 124.94 85.2754C125.084 85.049 125.316 84.8505 125.753 84.8505C126.175 84.8505 126.41 85.0555 126.562 85.3014C126.642 85.431 126.696 85.5696 126.729 85.6869C126.756 85.7806 126.764 85.8426 126.767 85.862C126.768 85.869 126.768 85.8705 126.768 85.8659L126.768 90.4123C126.768 90.3985 126.768 90.3989 126.766 90.4123C126.762 90.4334 126.753 90.4868 126.73 90.5675C126.696 90.6846 126.642 90.8266 126.56 90.9609C126.404 91.2189 126.167 91.4277 125.753 91.4277C125.339 91.4277 125.102 91.2189 124.945 90.9609C124.864 90.8266 124.809 90.6846 124.776 90.5675C124.753 90.4868 124.743 90.4334 124.74 90.4123C124.737 90.3989 124.737 90.3985 124.737 90.4123Z" fill="#FED22B" stroke="black"/>
<path d="M124.737 111.629L124.737 107.083C124.737 107.083 124.737 107.083 124.737 107.083C124.737 107.082 124.737 107.076 124.738 107.065C124.74 107.052 124.741 107.036 124.745 107.015C124.751 106.975 124.761 106.923 124.777 106.865C124.81 106.747 124.862 106.614 124.94 106.492C125.084 106.266 125.316 106.067 125.753 106.067C126.175 106.067 126.41 106.272 126.562 106.518C126.642 106.648 126.696 106.786 126.729 106.904C126.756 106.997 126.764 107.059 126.767 107.079C126.768 107.086 126.768 107.087 126.768 107.083L126.768 111.629C126.768 111.615 126.768 111.616 126.766 111.629C126.762 111.65 126.753 111.704 126.73 111.784C126.696 111.901 126.642 112.043 126.56 112.178C126.404 112.436 126.167 112.645 125.753 112.645C125.339 112.645 125.102 112.436 124.945 112.178C124.864 112.043 124.809 111.901 124.776 111.784C124.753 111.704 124.743 111.65 124.74 111.629C124.737 111.616 124.737 111.615 124.737 111.629Z" fill="#FED22B" stroke="black"/>
<path d="M124.737 69.1955L124.737 64.6491C124.737 64.6492 124.737 64.6492 124.737 64.6491C124.737 64.6483 124.737 64.6424 124.738 64.631C124.74 64.6185 124.741 64.6019 124.745 64.5817C124.751 64.5409 124.761 64.4893 124.777 64.4311C124.81 64.3132 124.862 64.1804 124.94 64.0586C125.084 63.8322 125.316 63.6337 125.753 63.6337C126.175 63.6337 126.41 63.8387 126.562 64.0846C126.642 64.2142 126.696 64.3528 126.729 64.4701C126.756 64.5638 126.764 64.6258 126.767 64.6452C126.768 64.6522 126.768 64.6537 126.768 64.6491L126.768 69.1955C126.768 69.1817 126.768 69.1821 126.766 69.1955C126.762 69.2166 126.753 69.27 126.73 69.3507C126.696 69.4678 126.642 69.6098 126.56 69.7441C126.404 70.0021 126.167 70.2109 125.753 70.2109C125.339 70.2109 125.102 70.0021 124.945 69.7441C124.864 69.6098 124.809 69.4678 124.776 69.3507C124.753 69.27 124.743 69.2166 124.74 69.1955C124.737 69.1821 124.737 69.1817 124.737 69.1955Z" fill="#FED22B" stroke="black"/>
<path d="M124.737 122.238L124.737 117.692C124.737 117.692 124.737 117.692 124.737 117.692C124.737 117.691 124.737 117.685 124.738 117.674C124.74 117.661 124.741 117.645 124.745 117.625C124.751 117.584 124.761 117.532 124.777 117.474C124.81 117.356 124.862 117.223 124.94 117.102C125.084 116.875 125.316 116.677 125.753 116.677C126.175 116.677 126.41 116.882 126.562 117.128C126.642 117.257 126.696 117.396 126.729 117.513C126.756 117.607 126.764 117.669 126.767 117.688C126.768 117.695 126.768 117.697 126.768 117.692L126.768 122.238C126.768 122.225 126.768 122.225 126.766 122.238C126.762 122.26 126.753 122.313 126.73 122.394C126.696 122.511 126.642 122.653 126.56 122.787C126.404 123.045 126.167 123.254 125.753 123.254C125.339 123.254 125.102 123.045 124.945 122.787C124.864 122.653 124.809 122.511 124.776 122.394C124.753 122.313 124.743 122.26 124.74 122.238C124.737 122.225 124.737 122.225 124.737 122.238Z" fill="#FED22B" stroke="black"/>
<path d="M124.737 79.8049L124.737 75.2585C124.737 75.2586 124.737 75.2586 124.737 75.2585C124.737 75.2577 124.737 75.2518 124.738 75.2403C124.74 75.2279 124.741 75.2113 124.745 75.191C124.751 75.1503 124.761 75.0987 124.777 75.0405C124.81 74.9225 124.862 74.7897 124.94 74.668C125.084 74.4416 125.316 74.243 125.753 74.243C126.175 74.243 126.41 74.4481 126.562 74.694C126.642 74.8235 126.696 74.9621 126.729 75.0795C126.756 75.1732 126.764 75.2352 126.767 75.2546C126.768 75.2616 126.768 75.263 126.768 75.2585L126.768 79.8049C126.768 79.7911 126.768 79.7915 126.766 79.8049C126.762 79.826 126.753 79.8794 126.73 79.96C126.696 80.0771 126.642 80.2192 126.56 80.3534C126.404 80.6115 126.167 80.8203 125.753 80.8203C125.339 80.8203 125.102 80.6115 124.945 80.3534C124.864 80.2192 124.809 80.0771 124.776 79.96C124.753 79.8794 124.743 79.826 124.74 79.8049C124.737 79.7915 124.737 79.7911 124.737 79.8049Z" fill="#FED22B" stroke="black"/>
<path d="M124.737 101.022L124.737 96.4753C124.737 96.4754 124.737 96.4754 124.737 96.4753C124.737 96.4745 124.737 96.4686 124.738 96.4571C124.74 96.4447 124.741 96.4281 124.745 96.4078C124.751 96.3671 124.761 96.3155 124.777 96.2573C124.81 96.1393 124.862 96.0065 124.94 95.8848C125.084 95.6584 125.316 95.4598 125.753 95.4598C126.175 95.4598 126.41 95.6648 126.562 95.9108C126.642 96.0403 126.696 96.1789 126.729 96.2963C126.756 96.39 126.764 96.452 126.767 96.4714C126.768 96.4784 126.768 96.4798 126.768 96.4753L126.768 101.022C126.768 101.008 126.768 101.008 126.766 101.022C126.762 101.043 126.753 101.096 126.73 101.177C126.696 101.294 126.642 101.436 126.56 101.57C126.404 101.828 126.167 102.037 125.753 102.037C125.339 102.037 125.102 101.828 124.945 101.57C124.864 101.436 124.809 101.294 124.776 101.177C124.753 101.096 124.743 101.043 124.74 101.022C124.737 101.008 124.737 101.008 124.737 101.022Z" fill="#FED22B" stroke="black"/>
<path d="M124.737 58.5881L124.737 54.0417C124.737 54.0418 124.737 54.0418 124.737 54.0417C124.737 54.0409 124.737 54.035 124.738 54.0235C124.74 54.0111 124.741 53.9945 124.745 53.9742C124.751 53.9335 124.761 53.8819 124.777 53.8237C124.81 53.7057 124.862 53.5729 124.94 53.4512C125.084 53.2248 125.316 53.0262 125.753 53.0262C126.175 53.0262 126.41 53.2313 126.562 53.4772C126.642 53.6068 126.696 53.7453 126.729 53.8627C126.756 53.9564 126.764 54.0184 126.767 54.0378C126.768 54.0448 126.768 54.0462 126.768 54.0417L126.768 58.5881C126.768 58.5743 126.768 58.5747 126.766 58.5881C126.762 58.6092 126.753 58.6626 126.73 58.7433C126.696 58.8604 126.642 59.0024 126.56 59.1366C126.404 59.3947 126.167 59.6035 125.753 59.6035C125.339 59.6035 125.102 59.3947 124.945 59.1366C124.864 59.0024 124.809 58.8604 124.776 58.7432C124.753 58.6626 124.743 58.6092 124.74 58.5881C124.737 58.5747 124.737 58.5743 124.737 58.5881Z" fill="#FED22B" stroke="black"/>
<path d="M86.8506 132.846L86.8506 128.3C86.8506 128.3 86.8506 128.3 86.8506 128.299C86.8506 128.299 86.8507 128.293 86.8517 128.281C86.8528 128.269 86.8547 128.252 86.8578 128.232C86.864 128.191 86.8744 128.14 86.8905 128.082C86.923 127.964 86.9754 127.831 87.0529 127.709C87.1972 127.483 87.4289 127.284 87.866 127.284C88.2888 127.284 88.5235 127.489 88.6755 127.735C88.7556 127.865 88.8093 128.003 88.8425 128.12C88.869 128.214 88.8776 128.276 88.8803 128.296C88.8813 128.303 88.8815 128.304 88.8815 128.3L88.8815 132.846C88.8815 132.832 88.8814 132.833 88.8791 132.846C88.8755 132.867 88.8663 132.92 88.8431 133.001C88.8094 133.118 88.755 133.26 88.6735 133.394C88.5168 133.652 88.2803 133.861 87.866 133.861C87.4518 133.861 87.2153 133.652 87.0586 133.394C86.9771 133.26 86.9227 133.118 86.889 133.001C86.8658 132.92 86.8566 132.867 86.853 132.846C86.8507 132.833 86.8506 132.832 86.8506 132.846Z" fill="#FED22B" stroke="black"/>
<path d="M86.8506 90.4123L86.8506 85.8659C86.8506 85.866 86.8506 85.866 86.8506 85.8659C86.8506 85.8651 86.8507 85.8592 86.8517 85.8478C86.8528 85.8353 86.8547 85.8187 86.8578 85.7985C86.864 85.7577 86.8744 85.7061 86.8905 85.6479C86.923 85.53 86.9754 85.3971 87.0529 85.2754C87.1972 85.049 87.4289 84.8505 87.866 84.8505C88.2888 84.8505 88.5235 85.0555 88.6755 85.3014C88.7556 85.431 88.8093 85.5696 88.8425 85.6869C88.869 85.7806 88.8776 85.8426 88.8803 85.862C88.8813 85.869 88.8815 85.8705 88.8815 85.8659L88.8815 90.4123C88.8815 90.3985 88.8814 90.3989 88.8791 90.4123C88.8755 90.4334 88.8663 90.4868 88.8431 90.5675C88.8094 90.6846 88.755 90.8266 88.6735 90.9609C88.5168 91.2189 88.2803 91.4277 87.866 91.4277C87.4518 91.4277 87.2153 91.2189 87.0586 90.9609C86.9771 90.8266 86.9227 90.6846 86.889 90.5675C86.8658 90.4868 86.8566 90.4334 86.853 90.4123C86.8507 90.3989 86.8506 90.3985 86.8506 90.4123Z" fill="#FED22B" stroke="black"/>
<path d="M86.8506 111.629L86.8506 107.083C86.8506 107.083 86.8506 107.083 86.8506 107.083C86.8506 107.082 86.8507 107.076 86.8517 107.065C86.8528 107.052 86.8547 107.036 86.8578 107.015C86.864 106.975 86.8744 106.923 86.8905 106.865C86.923 106.747 86.9754 106.614 87.0529 106.492C87.1972 106.266 87.4289 106.067 87.866 106.067C88.2888 106.067 88.5235 106.272 88.6755 106.518C88.7556 106.648 88.8093 106.786 88.8425 106.904C88.869 106.997 88.8776 107.059 88.8803 107.079C88.8813 107.086 88.8815 107.087 88.8815 107.083L88.8815 111.629C88.8815 111.615 88.8814 111.616 88.8791 111.629C88.8755 111.65 88.8663 111.704 88.8431 111.784C88.8094 111.901 88.755 112.043 88.6735 112.178C88.5168 112.436 88.2803 112.645 87.866 112.645C87.4518 112.645 87.2153 112.436 87.0586 112.178C86.9771 112.043 86.9227 111.901 86.889 111.784C86.8658 111.704 86.8566 111.65 86.853 111.629C86.8507 111.616 86.8506 111.615 86.8506 111.629Z" fill="#FED22B" stroke="black"/>
<path d="M86.8506 69.1955L86.8506 64.6491C86.8506 64.6492 86.8506 64.6492 86.8506 64.6491C86.8506 64.6483 86.8507 64.6424 86.8517 64.631C86.8528 64.6185 86.8547 64.6019 86.8578 64.5817C86.864 64.5409 86.8744 64.4893 86.8905 64.4311C86.923 64.3132 86.9754 64.1804 87.0529 64.0586C87.1972 63.8322 87.4289 63.6337 87.866 63.6337C88.2888 63.6337 88.5235 63.8387 88.6755 64.0846C88.7556 64.2142 88.8093 64.3528 88.8425 64.4701C88.869 64.5638 88.8776 64.6258 88.8803 64.6452C88.8813 64.6522 88.8815 64.6537 88.8815 64.6491L88.8815 69.1955C88.8815 69.1817 88.8814 69.1821 88.8791 69.1955C88.8755 69.2166 88.8663 69.27 88.8431 69.3507C88.8094 69.4678 88.755 69.6098 88.6735 69.7441C88.5168 70.0021 88.2803 70.2109 87.866 70.2109C87.4518 70.2109 87.2153 70.0021 87.0586 69.7441C86.9771 69.6098 86.9227 69.4678 86.889 69.3507C86.8658 69.27 86.8566 69.2166 86.853 69.1955C86.8507 69.1821 86.8506 69.1817 86.8506 69.1955Z" fill="#FED22B" stroke="black"/>
<path d="M86.8506 122.238L86.8506 117.692C86.8506 117.692 86.8506 117.692 86.8506 117.692C86.8506 117.691 86.8507 117.685 86.8517 117.674C86.8528 117.661 86.8547 117.645 86.8578 117.625C86.864 117.584 86.8744 117.532 86.8905 117.474C86.923 117.356 86.9754 117.223 87.0529 117.102C87.1972 116.875 87.4289 116.677 87.866 116.677C88.2888 116.677 88.5235 116.882 88.6755 117.128C88.7556 117.257 88.8093 117.396 88.8425 117.513C88.869 117.607 88.8776 117.669 88.8803 117.688C88.8813 117.695 88.8815 117.697 88.8815 117.692L88.8815 122.238C88.8815 122.225 88.8814 122.225 88.8791 122.238C88.8755 122.26 88.8663 122.313 88.8431 122.394C88.8094 122.511 88.755 122.653 88.6735 122.787C88.5168 123.045 88.2803 123.254 87.866 123.254C87.4518 123.254 87.2153 123.045 87.0586 122.787C86.9771 122.653 86.9227 122.511 86.889 122.394C86.8658 122.313 86.8566 122.26 86.853 122.238C86.8507 122.225 86.8506 122.225 86.8506 122.238Z" fill="#FED22B" stroke="black"/>
<path d="M86.8506 79.8049L86.8506 75.2585C86.8506 75.2586 86.8506 75.2586 86.8506 75.2585C86.8506 75.2577 86.8507 75.2518 86.8517 75.2403C86.8528 75.2279 86.8547 75.2113 86.8578 75.191C86.864 75.1503 86.8744 75.0987 86.8905 75.0405C86.923 74.9225 86.9754 74.7897 87.0529 74.668C87.1972 74.4416 87.4289 74.243 87.866 74.243C88.2888 74.243 88.5235 74.4481 88.6755 74.694C88.7556 74.8235 88.8093 74.9621 88.8425 75.0795C88.869 75.1732 88.8776 75.2352 88.8803 75.2546C88.8813 75.2616 88.8815 75.263 88.8815 75.2585L88.8815 79.8049C88.8815 79.7911 88.8814 79.7915 88.8791 79.8049C88.8755 79.826 88.8663 79.8794 88.8431 79.96C88.8094 80.0771 88.755 80.2192 88.6735 80.3534C88.5168 80.6115 88.2803 80.8203 87.866 80.8203C87.4518 80.8203 87.2153 80.6115 87.0586 80.3534C86.9771 80.2192 86.9227 80.0771 86.889 79.96C86.8658 79.8794 86.8566 79.826 86.853 79.8049C86.8507 79.7915 86.8506 79.7911 86.8506 79.8049Z" fill="#FED22B" stroke="black"/>
<path d="M86.8506 101.022L86.8506 96.4753C86.8506 96.4754 86.8506 96.4754 86.8506 96.4753C86.8506 96.4745 86.8507 96.4686 86.8517 96.4571C86.8528 96.4447 86.8547 96.4281 86.8578 96.4078C86.864 96.3671 86.8744 96.3155 86.8905 96.2573C86.923 96.1393 86.9754 96.0065 87.0529 95.8848C87.1972 95.6584 87.4289 95.4598 87.866 95.4598C88.2888 95.4598 88.5235 95.6648 88.6755 95.9108C88.7556 96.0403 88.8093 96.1789 88.8425 96.2963C88.869 96.39 88.8776 96.452 88.8803 96.4714C88.8813 96.4784 88.8815 96.4798 88.8815 96.4753L88.8815 101.022C88.8815 101.008 88.8814 101.008 88.8791 101.022C88.8755 101.043 88.8663 101.096 88.8431 101.177C88.8094 101.294 88.755 101.436 88.6735 101.57C88.5168 101.828 88.2803 102.037 87.866 102.037C87.4518 102.037 87.2153 101.828 87.0586 101.57C86.9771 101.436 86.9227 101.294 86.889 101.177C86.8658 101.096 86.8566 101.043 86.853 101.022C86.8507 101.008 86.8506 101.008 86.8506 101.022Z" fill="#FED22B" stroke="black"/>
<path d="M86.8506 58.5881L86.8506 54.0417C86.8506 54.0418 86.8506 54.0418 86.8506 54.0417C86.8506 54.0409 86.8507 54.035 86.8517 54.0235C86.8528 54.0111 86.8547 53.9945 86.8578 53.9742C86.864 53.9335 86.8744 53.8819 86.8905 53.8237C86.923 53.7057 86.9754 53.5729 87.0529 53.4512C87.1972 53.2248 87.4289 53.0262 87.866 53.0262C88.2888 53.0262 88.5235 53.2313 88.6755 53.4772C88.7556 53.6068 88.8093 53.7453 88.8425 53.8627C88.869 53.9564 88.8776 54.0184 88.8803 54.0378C88.8813 54.0448 88.8815 54.0462 88.8815 54.0417L88.8815 58.5881C88.8815 58.5743 88.8814 58.5747 88.8791 58.5881C88.8755 58.6092 88.8663 58.6626 88.8431 58.7433C88.8094 58.8604 88.755 59.0024 88.6735 59.1366C88.5168 59.3947 88.2803 59.6035 87.866 59.6035C87.4518 59.6035 87.2153 59.3947 87.0586 59.1366C86.9771 59.0024 86.9227 58.8604 86.889 58.7432C86.8658 58.6626 86.8566 58.6092 86.853 58.5881C86.8507 58.5747 86.8506 58.5743 86.8506 58.5881Z" fill="#FED22B" stroke="black"/>
<path d="M94.4277 90.4103L94.4277 85.864C94.4277 85.8641 94.4277 85.864 94.4277 85.8639C94.4278 85.8632 94.4279 85.8572 94.4289 85.8458C94.43 85.8334 94.4319 85.8168 94.435 85.7965C94.4412 85.7558 94.4516 85.7042 94.4676 85.646C94.5002 85.528 94.5525 85.3952 94.6301 85.2734C94.7743 85.0471 95.0061 84.8485 95.4432 84.8485C95.8659 84.8485 96.1007 85.0535 96.2527 85.2994C96.3328 85.429 96.3865 85.5676 96.4197 85.6849C96.4462 85.7786 96.4548 85.8406 96.4575 85.8601C96.4585 85.867 96.4587 85.8685 96.4587 85.864L96.4587 90.4103C96.4587 90.3965 96.4586 90.397 96.4563 90.4103C96.4526 90.4315 96.4435 90.4849 96.4203 90.5655C96.3866 90.6826 96.3321 90.8247 96.2506 90.9589C96.0939 91.2169 95.8575 91.4258 95.4432 91.4258C95.0289 91.4258 94.7925 91.2169 94.6358 90.9589C94.5543 90.8247 94.4998 90.6826 94.4661 90.5655C94.4429 90.4849 94.4337 90.4315 94.4301 90.4103C94.4278 90.397 94.4277 90.3965 94.4277 90.4103Z" fill="#FED22B" stroke="black"/>
<path d="M94.4277 111.627L94.4277 107.081C94.4277 107.081 94.4277 107.081 94.4277 107.081C94.4278 107.08 94.4279 107.074 94.4289 107.063C94.43 107.05 94.4319 107.034 94.435 107.013C94.4412 106.973 94.4516 106.921 94.4676 106.863C94.5002 106.745 94.5525 106.612 94.6301 106.49C94.7743 106.264 95.0061 106.065 95.4432 106.065C95.8659 106.065 96.1007 106.27 96.2527 106.516C96.3328 106.646 96.3865 106.784 96.4197 106.902C96.4462 106.995 96.4548 107.057 96.4575 107.077C96.4585 107.084 96.4587 107.085 96.4587 107.081L96.4587 111.627C96.4587 111.613 96.4586 111.614 96.4563 111.627C96.4526 111.648 96.4435 111.702 96.4203 111.782C96.3866 111.899 96.3321 112.041 96.2506 112.176C96.0939 112.434 95.8575 112.643 95.4432 112.643C95.0289 112.643 94.7925 112.434 94.6358 112.176C94.5543 112.041 94.4998 111.899 94.4661 111.782C94.4429 111.702 94.4337 111.648 94.4301 111.627C94.4278 111.614 94.4277 111.613 94.4277 111.627Z" fill="#FED22B" stroke="black"/>
<path d="M94.4277 69.1935L94.4277 64.6472C94.4277 64.6473 94.4277 64.6472 94.4277 64.6471C94.4278 64.6464 94.4279 64.6405 94.4289 64.629C94.43 64.6166 94.4319 64.6 94.435 64.5797C94.4412 64.539 94.4516 64.4874 94.4676 64.4292C94.5002 64.3112 94.5525 64.1784 94.6301 64.0566C94.7743 63.8303 95.0061 63.6317 95.4432 63.6317C95.8659 63.6317 96.1007 63.8367 96.2527 64.0826C96.3328 64.2122 96.3865 64.3508 96.4197 64.4682C96.4462 64.5618 96.4548 64.6238 96.4575 64.6433C96.4585 64.6502 96.4587 64.6517 96.4587 64.6472L96.4587 69.1935C96.4587 69.1797 96.4586 69.1802 96.4563 69.1936C96.4526 69.2147 96.4435 69.2681 96.4203 69.3487C96.3866 69.4658 96.3321 69.6079 96.2506 69.7421C96.0939 70.0001 95.8575 70.209 95.4432 70.209C95.0289 70.209 94.7925 70.0001 94.6358 69.7421C94.5543 69.6079 94.4998 69.4658 94.4661 69.3487C94.4429 69.2681 94.4337 69.2147 94.4301 69.1936C94.4278 69.1802 94.4277 69.1797 94.4277 69.1935Z" fill="#FED22B" stroke="black"/>
<path d="M94.4277 79.8029L94.4277 75.2565C94.4277 75.2566 94.4277 75.2566 94.4277 75.2565C94.4278 75.2557 94.4279 75.2498 94.4289 75.2384C94.43 75.2259 94.4319 75.2094 94.435 75.1891C94.4412 75.1484 94.4516 75.0968 94.4676 75.0385C94.5002 74.9206 94.5525 74.7878 94.6301 74.666C94.7743 74.4396 95.0061 74.2411 95.4432 74.2411C95.8659 74.2411 96.1007 74.4461 96.2527 74.692C96.3328 74.8216 96.3865 74.9602 96.4197 75.0775C96.4462 75.1712 96.4548 75.2332 96.4575 75.2526C96.4585 75.2596 96.4587 75.2611 96.4587 75.2565L96.4587 79.8029C96.4587 79.7891 96.4586 79.7895 96.4563 79.8029C96.4526 79.8241 96.4435 79.8775 96.4203 79.9581C96.3866 80.0752 96.3321 80.2172 96.2506 80.3515C96.0939 80.6095 95.8575 80.8184 95.4432 80.8184C95.0289 80.8184 94.7925 80.6095 94.6358 80.3515C94.5543 80.2172 94.4998 80.0752 94.4661 79.9581C94.4429 79.8775 94.4337 79.8241 94.4301 79.8029C94.4278 79.7895 94.4277 79.7891 94.4277 79.8029Z" fill="#FED22B" stroke="black"/>
<path d="M94.4277 101.02L94.4277 96.4733C94.4277 96.4734 94.4277 96.4734 94.4277 96.4733C94.4278 96.4725 94.4279 96.4666 94.4289 96.4552C94.43 96.4427 94.4319 96.4262 94.435 96.4059C94.4412 96.3652 94.4516 96.3136 94.4676 96.2553C94.5002 96.1374 94.5525 96.0046 94.6301 95.8828C94.7743 95.6564 95.0061 95.4579 95.4432 95.4579C95.8659 95.4579 96.1007 95.6629 96.2527 95.9088C96.3328 96.0384 96.3865 96.177 96.4197 96.2943C96.4462 96.388 96.4548 96.45 96.4575 96.4694C96.4585 96.4764 96.4587 96.4779 96.4587 96.4733L96.4587 101.02C96.4587 101.006 96.4586 101.006 96.4563 101.02C96.4526 101.041 96.4435 101.094 96.4203 101.175C96.3866 101.292 96.3321 101.434 96.2506 101.568C96.0939 101.826 95.8575 102.035 95.4432 102.035C95.0289 102.035 94.7925 101.826 94.6358 101.568C94.5543 101.434 94.4998 101.292 94.4661 101.175C94.4429 101.094 94.4337 101.041 94.4301 101.02C94.4278 101.006 94.4277 101.006 94.4277 101.02Z" fill="#FED22B" stroke="black"/>
<path d="M94.4277 58.5861L94.4277 54.0397C94.4277 54.0398 94.4277 54.0398 94.4277 54.0397C94.4278 54.0389 94.4279 54.033 94.4289 54.0216C94.43 54.0092 94.4319 53.9926 94.435 53.9723C94.4412 53.9316 94.4516 53.88 94.4676 53.8217C94.5002 53.7038 94.5525 53.571 94.6301 53.4492C94.7743 53.2228 95.0061 53.0243 95.4432 53.0243C95.8659 53.0243 96.1007 53.2293 96.2527 53.4752C96.3328 53.6048 96.3865 53.7434 96.4197 53.8607C96.4462 53.9544 96.4548 54.0164 96.4575 54.0358C96.4585 54.0428 96.4587 54.0443 96.4587 54.0397L96.4587 58.5861C96.4587 58.5723 96.4586 58.5727 96.4563 58.5861C96.4526 58.6073 96.4435 58.6607 96.4203 58.7413C96.3866 58.8584 96.3321 59.0004 96.2506 59.1347C96.0939 59.3927 95.8575 59.6016 95.4432 59.6016C95.0289 59.6016 94.7925 59.3927 94.6358 59.1347C94.5543 59.0004 94.4998 58.8584 94.4661 58.7413C94.4429 58.6607 94.4337 58.6073 94.4301 58.5861C94.4278 58.5727 94.4277 58.5723 94.4277 58.5861Z" fill="#FED22B" stroke="black"/>
<path d="M102.005 90.4103L102.005 85.864C102.005 85.8641 102.005 85.864 102.005 85.8639C102.005 85.8632 102.005 85.8572 102.006 85.8458C102.007 85.8334 102.009 85.8168 102.012 85.7965C102.018 85.7558 102.029 85.7042 102.045 85.646C102.077 85.528 102.13 85.3952 102.207 85.2734C102.351 85.0471 102.583 84.8485 103.02 84.8485C103.443 84.8485 103.678 85.0535 103.83 85.2994C103.91 85.429 103.964 85.5676 103.997 85.6849C104.023 85.7786 104.032 85.8406 104.035 85.8601C104.036 85.867 104.036 85.8685 104.036 85.864L104.036 90.4103C104.036 90.3965 104.036 90.397 104.033 90.4103C104.03 90.4315 104.021 90.4849 103.997 90.5655C103.964 90.6826 103.909 90.8247 103.828 90.9589C103.671 91.2169 103.435 91.4258 103.02 91.4258C102.606 91.4258 102.37 91.2169 102.213 90.9589C102.131 90.8247 102.077 90.6826 102.043 90.5655C102.02 90.4849 102.011 90.4315 102.007 90.4103C102.005 90.397 102.005 90.3965 102.005 90.4103Z" fill="#FED22B" stroke="black"/>
<path d="M102.005 111.627L102.005 107.081C102.005 107.081 102.005 107.081 102.005 107.081C102.005 107.08 102.005 107.074 102.006 107.063C102.007 107.05 102.009 107.034 102.012 107.013C102.018 106.973 102.029 106.921 102.045 106.863C102.077 106.745 102.13 106.612 102.207 106.49C102.351 106.264 102.583 106.065 103.02 106.065C103.443 106.065 103.678 106.27 103.83 106.516C103.91 106.646 103.964 106.784 103.997 106.902C104.023 106.995 104.032 107.057 104.035 107.077C104.036 107.084 104.036 107.085 104.036 107.081L104.036 111.627C104.036 111.613 104.036 111.614 104.033 111.627C104.03 111.648 104.021 111.702 103.997 111.782C103.964 111.899 103.909 112.041 103.828 112.176C103.671 112.434 103.435 112.643 103.02 112.643C102.606 112.643 102.37 112.434 102.213 112.176C102.131 112.041 102.077 111.899 102.043 111.782C102.02 111.702 102.011 111.648 102.007 111.627C102.005 111.614 102.005 111.613 102.005 111.627Z" fill="#FED22B" stroke="black"/>
<path d="M102.005 69.1935L102.005 64.6472C102.005 64.6473 102.005 64.6472 102.005 64.6471C102.005 64.6464 102.005 64.6405 102.006 64.629C102.007 64.6166 102.009 64.6 102.012 64.5797C102.018 64.539 102.029 64.4874 102.045 64.4292C102.077 64.3112 102.13 64.1784 102.207 64.0566C102.351 63.8303 102.583 63.6317 103.02 63.6317C103.443 63.6317 103.678 63.8367 103.83 64.0826C103.91 64.2122 103.964 64.3508 103.997 64.4682C104.023 64.5618 104.032 64.6238 104.035 64.6433C104.036 64.6502 104.036 64.6517 104.036 64.6472L104.036 69.1935C104.036 69.1797 104.036 69.1802 104.033 69.1936C104.03 69.2147 104.021 69.2681 103.997 69.3487C103.964 69.4658 103.909 69.6079 103.828 69.7421C103.671 70.0001 103.435 70.209 103.02 70.209C102.606 70.209 102.37 70.0001 102.213 69.7421C102.131 69.6079 102.077 69.4658 102.043 69.3487C102.02 69.2681 102.011 69.2147 102.007 69.1936C102.005 69.1802 102.005 69.1797 102.005 69.1935Z" fill="#FED22B" stroke="black"/>
<path d="M102.005 79.8029L102.005 75.2565C102.005 75.2566 102.005 75.2566 102.005 75.2565C102.005 75.2557 102.005 75.2498 102.006 75.2384C102.007 75.2259 102.009 75.2094 102.012 75.1891C102.018 75.1484 102.029 75.0968 102.045 75.0385C102.077 74.9206 102.13 74.7878 102.207 74.666C102.351 74.4396 102.583 74.2411 103.02 74.2411C103.443 74.2411 103.678 74.4461 103.83 74.692C103.91 74.8216 103.964 74.9602 103.997 75.0775C104.023 75.1712 104.032 75.2332 104.035 75.2526C104.036 75.2596 104.036 75.2611 104.036 75.2565L104.036 79.8029C104.036 79.7891 104.036 79.7895 104.033 79.8029C104.03 79.8241 104.021 79.8775 103.997 79.9581C103.964 80.0752 103.909 80.2172 103.828 80.3515C103.671 80.6095 103.435 80.8184 103.02 80.8184C102.606 80.8184 102.37 80.6095 102.213 80.3515C102.131 80.2172 102.077 80.0752 102.043 79.9581C102.02 79.8775 102.011 79.8241 102.007 79.8029C102.005 79.7895 102.005 79.7891 102.005 79.8029Z" fill="#FED22B" stroke="black"/>
<path d="M102.005 101.02L102.005 96.4733C102.005 96.4734 102.005 96.4734 102.005 96.4733C102.005 96.4725 102.005 96.4666 102.006 96.4552C102.007 96.4427 102.009 96.4262 102.012 96.4059C102.018 96.3652 102.029 96.3136 102.045 96.2553C102.077 96.1374 102.13 96.0046 102.207 95.8828C102.351 95.6564 102.583 95.4579 103.02 95.4579C103.443 95.4579 103.678 95.6629 103.83 95.9088C103.91 96.0384 103.964 96.177 103.997 96.2943C104.023 96.388 104.032 96.45 104.035 96.4694C104.036 96.4764 104.036 96.4779 104.036 96.4733L104.036 101.02C104.036 101.006 104.036 101.006 104.033 101.02C104.03 101.041 104.021 101.094 103.997 101.175C103.964 101.292 103.909 101.434 103.828 101.568C103.671 101.826 103.435 102.035 103.02 102.035C102.606 102.035 102.37 101.826 102.213 101.568C102.131 101.434 102.077 101.292 102.043 101.175C102.02 101.094 102.011 101.041 102.007 101.02C102.005 101.006 102.005 101.006 102.005 101.02Z" fill="#FED22B" stroke="black"/>
<path d="M102.005 58.5861L102.005 54.0397C102.005 54.0398 102.005 54.0398 102.005 54.0397C102.005 54.0389 102.005 54.033 102.006 54.0216C102.007 54.0092 102.009 53.9926 102.012 53.9723C102.018 53.9316 102.029 53.88 102.045 53.8217C102.077 53.7038 102.13 53.571 102.207 53.4492C102.351 53.2228 102.583 53.0243 103.02 53.0243C103.443 53.0243 103.678 53.2293 103.83 53.4752C103.91 53.6048 103.964 53.7434 103.997 53.8607C104.023 53.9544 104.032 54.0164 104.035 54.0358C104.036 54.0428 104.036 54.0443 104.036 54.0397L104.036 58.5861C104.036 58.5723 104.036 58.5727 104.033 58.5861C104.03 58.6073 104.021 58.6607 103.997 58.7413C103.964 58.8584 103.909 59.0004 103.828 59.1347C103.671 59.3927 103.435 59.6016 103.02 59.6016C102.606 59.6016 102.37 59.3927 102.213 59.1347C102.131 59.0004 102.077 58.8584 102.043 58.7413C102.02 58.6607 102.011 58.6073 102.007 58.5861C102.005 58.5727 102.005 58.5723 102.005 58.5861Z" fill="#FED22B" stroke="black"/>
<path d="M109.582 90.4103L109.582 85.864C109.582 85.8641 109.582 85.864 109.582 85.8639C109.582 85.8632 109.582 85.8572 109.583 85.8458C109.584 85.8334 109.586 85.8168 109.589 85.7965C109.595 85.7558 109.606 85.7042 109.622 85.646C109.654 85.528 109.707 85.3952 109.784 85.2734C109.929 85.0471 110.16 84.8485 110.597 84.8485C111.02 84.8485 111.255 85.0535 111.407 85.2994C111.487 85.429 111.541 85.5676 111.574 85.6849C111.6 85.7786 111.609 85.8406 111.612 85.8601C111.613 85.867 111.613 85.8685 111.613 85.864L111.613 90.4103C111.613 90.3965 111.613 90.397 111.611 90.4103C111.607 90.4315 111.598 90.4849 111.575 90.5655C111.541 90.6826 111.486 90.8247 111.405 90.9589C111.248 91.2169 111.012 91.4258 110.597 91.4258C110.183 91.4258 109.947 91.2169 109.79 90.9589C109.709 90.8247 109.654 90.6826 109.62 90.5655C109.597 90.4849 109.588 90.4315 109.584 90.4103C109.582 90.397 109.582 90.3965 109.582 90.4103Z" fill="#FED22B" stroke="black"/>
<path d="M109.582 111.627L109.582 107.081C109.582 107.081 109.582 107.081 109.582 107.081C109.582 107.08 109.582 107.074 109.583 107.063C109.584 107.05 109.586 107.034 109.589 107.013C109.595 106.973 109.606 106.921 109.622 106.863C109.654 106.745 109.707 106.612 109.784 106.49C109.929 106.264 110.16 106.065 110.597 106.065C111.02 106.065 111.255 106.27 111.407 106.516C111.487 106.646 111.541 106.784 111.574 106.902C111.6 106.995 111.609 107.057 111.612 107.077C111.613 107.084 111.613 107.085 111.613 107.081L111.613 111.627C111.613 111.613 111.613 111.614 111.611 111.627C111.607 111.648 111.598 111.702 111.575 111.782C111.541 111.899 111.486 112.041 111.405 112.176C111.248 112.434 111.012 112.643 110.597 112.643C110.183 112.643 109.947 112.434 109.79 112.176C109.709 112.041 109.654 111.899 109.62 111.782C109.597 111.702 109.588 111.648 109.584 111.627C109.582 111.614 109.582 111.613 109.582 111.627Z" fill="#FED22B" stroke="black"/>
<path d="M109.582 69.1935L109.582 64.6472C109.582 64.6473 109.582 64.6472 109.582 64.6471C109.582 64.6464 109.582 64.6405 109.583 64.629C109.584 64.6166 109.586 64.6 109.589 64.5797C109.595 64.539 109.606 64.4874 109.622 64.4292C109.654 64.3112 109.707 64.1784 109.784 64.0566C109.929 63.8303 110.16 63.6317 110.597 63.6317C111.02 63.6317 111.255 63.8367 111.407 64.0826C111.487 64.2122 111.541 64.3508 111.574 64.4682C111.6 64.5618 111.609 64.6238 111.612 64.6433C111.613 64.6502 111.613 64.6517 111.613 64.6472L111.613 69.1935C111.613 69.1797 111.613 69.1802 111.611 69.1936C111.607 69.2147 111.598 69.2681 111.575 69.3487C111.541 69.4658 111.486 69.6079 111.405 69.7421C111.248 70.0001 111.012 70.209 110.597 70.209C110.183 70.209 109.947 70.0001 109.79 69.7421C109.709 69.6079 109.654 69.4658 109.62 69.3487C109.597 69.2681 109.588 69.2147 109.584 69.1936C109.582 69.1802 109.582 69.1797 109.582 69.1935Z" fill="#FED22B" stroke="black"/>
<path d="M109.582 79.8029L109.582 75.2565C109.582 75.2566 109.582 75.2566 109.582 75.2565C109.582 75.2557 109.582 75.2498 109.583 75.2384C109.584 75.2259 109.586 75.2094 109.589 75.1891C109.595 75.1484 109.606 75.0968 109.622 75.0385C109.654 74.9206 109.707 74.7878 109.784 74.666C109.929 74.4396 110.16 74.2411 110.597 74.2411C111.02 74.2411 111.255 74.4461 111.407 74.692C111.487 74.8216 111.541 74.9602 111.574 75.0775C111.6 75.1712 111.609 75.2332 111.612 75.2526C111.613 75.2596 111.613 75.2611 111.613 75.2565L111.613 79.8029C111.613 79.7891 111.613 79.7895 111.611 79.8029C111.607 79.8241 111.598 79.8775 111.575 79.9581C111.541 80.0752 111.486 80.2172 111.405 80.3515C111.248 80.6095 111.012 80.8184 110.597 80.8184C110.183 80.8184 109.947 80.6095 109.79 80.3515C109.709 80.2172 109.654 80.0752 109.62 79.9581C109.597 79.8775 109.588 79.8241 109.584 79.8029C109.582 79.7895 109.582 79.7891 109.582 79.8029Z" fill="#FED22B" stroke="black"/>
<path d="M109.582 101.02L109.582 96.4733C109.582 96.4734 109.582 96.4734 109.582 96.4733C109.582 96.4725 109.582 96.4666 109.583 96.4552C109.584 96.4427 109.586 96.4262 109.589 96.4059C109.595 96.3652 109.606 96.3136 109.622 96.2553C109.654 96.1374 109.707 96.0046 109.784 95.8828C109.929 95.6564 110.16 95.4579 110.597 95.4579C111.02 95.4579 111.255 95.6629 111.407 95.9088C111.487 96.0384 111.541 96.177 111.574 96.2943C111.6 96.388 111.609 96.45 111.612 96.4694C111.613 96.4764 111.613 96.4779 111.613 96.4733L111.613 101.02C111.613 101.006 111.613 101.006 111.611 101.02C111.607 101.041 111.598 101.094 111.575 101.175C111.541 101.292 111.486 101.434 111.405 101.568C111.248 101.826 111.012 102.035 110.597 102.035C110.183 102.035 109.947 101.826 109.79 101.568C109.709 101.434 109.654 101.292 109.62 101.175C109.597 101.094 109.588 101.041 109.584 101.02C109.582 101.006 109.582 101.006 109.582 101.02Z" fill="#FED22B" stroke="black"/>
<path d="M109.582 58.5861L109.582 54.0397C109.582 54.0398 109.582 54.0398 109.582 54.0397C109.582 54.0389 109.582 54.033 109.583 54.0216C109.584 54.0092 109.586 53.9926 109.589 53.9723C109.595 53.9316 109.606 53.88 109.622 53.8217C109.654 53.7038 109.707 53.571 109.784 53.4492C109.929 53.2228 110.16 53.0243 110.597 53.0243C111.02 53.0243 111.255 53.2293 111.407 53.4752C111.487 53.6048 111.541 53.7434 111.574 53.8607C111.6 53.9544 111.609 54.0164 111.612 54.0358C111.613 54.0428 111.613 54.0443 111.613 54.0397L111.613 58.5861C111.613 58.5723 111.613 58.5727 111.611 58.5861C111.607 58.6073 111.598 58.6607 111.575 58.7413C111.541 58.8584 111.486 59.0004 111.405 59.1347C111.248 59.3927 111.012 59.6016 110.597 59.6016C110.183 59.6016 109.947 59.3927 109.79 59.1347C109.709 59.0004 109.654 58.8584 109.62 58.7413C109.597 58.6607 109.588 58.6073 109.584 58.5861C109.582 58.5727 109.582 58.5723 109.582 58.5861Z" fill="#FED22B" stroke="black"/>
<path d="M117.16 90.4103L117.16 85.864C117.16 85.8641 117.16 85.864 117.16 85.8639C117.16 85.8632 117.16 85.8572 117.161 85.8458C117.162 85.8334 117.164 85.8168 117.167 85.7965C117.174 85.7558 117.184 85.7042 117.2 85.646C117.233 85.528 117.285 85.3952 117.363 85.2734C117.507 85.0471 117.739 84.8485 118.176 84.8485C118.598 84.8485 118.833 85.0535 118.985 85.2994C119.065 85.429 119.119 85.5676 119.152 85.6849C119.179 85.7786 119.187 85.8406 119.19 85.8601C119.191 85.867 119.191 85.8685 119.191 85.864L119.191 90.4103C119.191 90.3965 119.191 90.397 119.189 90.4103C119.185 90.4315 119.176 90.4849 119.153 90.5655C119.119 90.6826 119.065 90.8247 118.983 90.9589C118.826 91.2169 118.59 91.4258 118.176 91.4258C117.761 91.4258 117.525 91.2169 117.368 90.9589C117.287 90.8247 117.232 90.6826 117.199 90.5655C117.175 90.4849 117.166 90.4315 117.163 90.4103C117.16 90.397 117.16 90.3965 117.16 90.4103Z" fill="#FED22B" stroke="black"/>
<path d="M117.16 111.627L117.16 107.081C117.16 107.081 117.16 107.081 117.16 107.081C117.16 107.08 117.16 107.074 117.161 107.063C117.162 107.05 117.164 107.034 117.167 107.013C117.174 106.973 117.184 106.921 117.2 106.863C117.233 106.745 117.285 106.612 117.363 106.49C117.507 106.264 117.739 106.065 118.176 106.065C118.598 106.065 118.833 106.27 118.985 106.516C119.065 106.646 119.119 106.784 119.152 106.902C119.179 106.995 119.187 107.057 119.19 107.077C119.191 107.084 119.191 107.085 119.191 107.081L119.191 111.627C119.191 111.613 119.191 111.614 119.189 111.627C119.185 111.648 119.176 111.702 119.153 111.782C119.119 111.899 119.065 112.041 118.983 112.176C118.826 112.434 118.59 112.643 118.176 112.643C117.761 112.643 117.525 112.434 117.368 112.176C117.287 112.041 117.232 111.899 117.199 111.782C117.175 111.702 117.166 111.648 117.163 111.627C117.16 111.614 117.16 111.613 117.16 111.627Z" fill="#FED22B" stroke="black"/>
<path d="M117.16 69.1935L117.16 64.6472C117.16 64.6473 117.16 64.6472 117.16 64.6471C117.16 64.6464 117.16 64.6405 117.161 64.629C117.162 64.6166 117.164 64.6 117.167 64.5797C117.174 64.539 117.184 64.4874 117.2 64.4292C117.233 64.3112 117.285 64.1784 117.363 64.0566C117.507 63.8303 117.739 63.6317 118.176 63.6317C118.598 63.6317 118.833 63.8367 118.985 64.0826C119.065 64.2122 119.119 64.3508 119.152 64.4682C119.179 64.5618 119.187 64.6238 119.19 64.6433C119.191 64.6502 119.191 64.6517 119.191 64.6472L119.191 69.1935C119.191 69.1797 119.191 69.1802 119.189 69.1936C119.185 69.2147 119.176 69.2681 119.153 69.3487C119.119 69.4658 119.065 69.6079 118.983 69.7421C118.826 70.0001 118.59 70.209 118.176 70.209C117.761 70.209 117.525 70.0001 117.368 69.7421C117.287 69.6079 117.232 69.4658 117.199 69.3487C117.175 69.2681 117.166 69.2147 117.163 69.1936C117.16 69.1802 117.16 69.1797 117.16 69.1935Z" fill="#FED22B" stroke="black"/>
<path d="M117.16 79.8029L117.16 75.2565C117.16 75.2566 117.16 75.2566 117.16 75.2565C117.16 75.2557 117.16 75.2498 117.161 75.2384C117.162 75.2259 117.164 75.2094 117.167 75.1891C117.174 75.1484 117.184 75.0968 117.2 75.0385C117.233 74.9206 117.285 74.7878 117.363 74.666C117.507 74.4396 117.739 74.2411 118.176 74.2411C118.598 74.2411 118.833 74.4461 118.985 74.692C119.065 74.8216 119.119 74.9602 119.152 75.0775C119.179 75.1712 119.187 75.2332 119.19 75.2526C119.191 75.2596 119.191 75.2611 119.191 75.2565L119.191 79.8029C119.191 79.7891 119.191 79.7895 119.189 79.8029C119.185 79.8241 119.176 79.8775 119.153 79.9581C119.119 80.0752 119.065 80.2172 118.983 80.3515C118.826 80.6095 118.59 80.8184 118.176 80.8184C117.761 80.8184 117.525 80.6095 117.368 80.3515C117.287 80.2172 117.232 80.0752 117.199 79.9581C117.175 79.8775 117.166 79.8241 117.163 79.8029C117.16 79.7895 117.16 79.7891 117.16 79.8029Z" fill="#FED22B" stroke="black"/>
<path d="M117.16 101.02L117.16 96.4733C117.16 96.4734 117.16 96.4734 117.16 96.4733C117.16 96.4725 117.16 96.4666 117.161 96.4552C117.162 96.4427 117.164 96.4262 117.167 96.4059C117.174 96.3652 117.184 96.3136 117.2 96.2553C117.233 96.1374 117.285 96.0046 117.363 95.8828C117.507 95.6564 117.739 95.4579 118.176 95.4579C118.598 95.4579 118.833 95.6629 118.985 95.9088C119.065 96.0384 119.119 96.177 119.152 96.2943C119.179 96.388 119.187 96.45 119.19 96.4694C119.191 96.4764 119.191 96.4779 119.191 96.4733L119.191 101.02C119.191 101.006 119.191 101.006 119.189 101.02C119.185 101.041 119.176 101.094 119.153 101.175C119.119 101.292 119.065 101.434 118.983 101.568C118.826 101.826 118.59 102.035 118.176 102.035C117.761 102.035 117.525 101.826 117.368 101.568C117.287 101.434 117.232 101.292 117.199 101.175C117.175 101.094 117.166 101.041 117.163 101.02C117.16 101.006 117.16 101.006 117.16 101.02Z" fill="#FED22B" stroke="black"/>
<path d="M117.16 58.5861L117.16 54.0397C117.16 54.0398 117.16 54.0398 117.16 54.0397C117.16 54.0389 117.16 54.033 117.161 54.0216C117.162 54.0092 117.164 53.9926 117.167 53.9723C117.174 53.9316 117.184 53.88 117.2 53.8217C117.233 53.7038 117.285 53.571 117.363 53.4492C117.507 53.2228 117.739 53.0243 118.176 53.0243C118.598 53.0243 118.833 53.2293 118.985 53.4752C119.065 53.6048 119.119 53.7434 119.152 53.8607C119.179 53.9544 119.187 54.0164 119.19 54.0358C119.191 54.0428 119.191 54.0443 119.191 54.0397L119.191 58.5861C119.191 58.5723 119.191 58.5727 119.189 58.5861C119.185 58.6073 119.176 58.6607 119.153 58.7413C119.119 58.8584 119.065 59.0004 118.983 59.1347C118.826 59.3927 118.59 59.6016 118.176 59.6016C117.761 59.6016 117.525 59.3927 117.368 59.1347C117.287 59.0004 117.232 58.8584 117.199 58.7413C117.175 58.6607 117.166 58.6073 117.163 58.5861C117.16 58.5727 117.16 58.5723 117.16 58.5861Z" fill="#FED22B" stroke="black"/>
<path d="M98.3625 115.93H114.635C116.666 115.93 118.312 117.576 118.312 119.607V144.725H94.6855V119.607C94.6855 117.576 96.332 115.93 98.3625 115.93Z" fill="#FED22B" stroke="black" stroke-miterlimit="10"/>
<path d="M105.794 121.481L105.794 115.919L106.809 115.919L107.825 115.919L107.825 121.481C107.825 121.467 107.825 121.467 107.822 121.481C107.819 121.502 107.81 121.555 107.786 121.636C107.753 121.753 107.698 121.895 107.617 122.029C107.46 122.287 107.224 122.496 106.809 122.496C106.395 122.496 106.159 122.287 106.002 122.029C105.92 121.895 105.866 121.753 105.832 121.636C105.809 121.555 105.8 121.502 105.796 121.481C105.794 121.467 105.794 121.467 105.794 121.481Z" fill="#E9F2F8" stroke="black"/>
<path d="M107.824 133.605L107.824 144.471L106.809 144.471L105.793 144.471L105.793 133.605C105.793 133.606 105.793 133.605 105.793 133.604C105.794 133.594 105.801 133.521 105.833 133.407C105.866 133.289 105.919 133.153 105.997 133.028C106.146 132.792 106.379 132.59 106.809 132.59C107.239 132.59 107.472 132.792 107.62 133.028C107.699 133.153 107.752 133.289 107.785 133.407C107.817 133.521 107.823 133.594 107.824 133.604C107.824 133.605 107.824 133.606 107.824 133.605Z" fill="#E9F2F8" stroke="black"/>
<path d="M-4.161e-10 170.798C1.49545 173.041 1.04592 176.663 0.634229 178.193L32.7129 178.193C32.1788 176.698 33.425 173.96 34.1149 172.778C32.4325 172.778 31.0327 174.519 30.5432 175.389L29.475 172.118L28.34 174.07C28.2065 173.014 26.9937 172.329 26.404 172.118C26.404 173.173 25.6473 174.739 25.269 175.389L23.7335 170.193C23.6 171.271 22.6542 173.227 22.198 174.07C21.6906 173.652 21.0075 172.026 20.7293 171.266C20.6492 171.639 19.7167 173.639 19.2605 174.592C18.9134 174.064 18.6931 172.723 18.6263 172.118C18.1723 172.382 16.9239 174.812 16.3564 175.994C16.3564 175.51 14.6207 172.329 13.7528 170.798C14.2067 173.855 13.0295 175.536 12.3842 175.994C12.3842 175.576 11.6275 173.676 11.2492 172.778C11.1157 173.899 10.1699 175.389 9.71372 175.994C8.53873 174.235 8.42301 171.797 8.51203 170.798C7.23022 171.986 6.5092 173.822 6.30891 174.592C5.90835 174.328 5.60792 173.272 5.50778 172.778L4.20594 175.994C4.15253 173.443 1.37973 171.467 -4.161e-10 170.798Z" fill="#70AE3E"/>
<path d="M88.9053 170.798C90.4007 173.041 89.9512 176.663 89.5395 178.193L121.618 178.193C121.084 176.698 122.33 173.96 123.02 172.778C121.338 172.778 119.938 174.519 119.448 175.389L118.38 172.118L117.245 174.07C117.112 173.014 115.899 172.329 115.309 172.118C115.309 173.173 114.553 174.739 114.174 175.389L112.639 170.193C112.505 171.271 111.56 173.227 111.103 174.07C110.596 173.652 109.913 172.026 109.635 171.266C109.554 171.639 108.622 173.639 108.166 174.592C107.819 174.064 107.598 172.723 107.532 172.118C107.078 172.382 105.829 174.812 105.262 175.994C105.262 175.51 103.526 172.329 102.658 170.798C103.112 173.855 101.935 175.536 101.289 175.994C101.289 175.576 100.533 173.676 100.155 172.778C100.021 173.899 99.0752 175.389 98.619 175.994C97.444 174.235 97.3283 171.797 97.4173 170.798C96.1355 171.986 95.4145 173.822 95.2142 174.592C94.8136 174.328 94.5132 173.272 94.4131 172.778L93.1112 175.994C93.0578 173.443 90.285 171.467 88.9053 170.798Z" fill="#70AE3E"/>
<path d="M58.9258 170.798C60.4212 173.041 59.9717 176.663 59.56 178.193L91.6387 178.193C91.1046 176.698 92.3508 173.96 93.0406 172.778C91.3583 172.778 89.9585 174.519 89.4689 175.389L88.4008 172.118L87.2658 174.07C87.1323 173.014 85.9195 172.329 85.3298 172.118C85.3298 173.173 84.5731 174.739 84.1948 175.389L82.6593 170.193C82.5258 171.271 81.58 173.227 81.1238 174.07C80.6164 173.652 79.9332 172.026 79.6551 171.266C79.575 171.639 78.6425 173.639 78.1863 174.592C77.8392 174.064 77.6189 172.723 77.5521 172.118C77.0981 172.382 75.8497 174.812 75.2822 175.994C75.2822 175.51 73.5464 172.329 72.6785 170.798C73.1325 173.855 71.9553 175.536 71.3099 175.994C71.3099 175.576 70.5533 173.676 70.175 172.778C70.0415 173.899 69.0957 175.389 68.6395 175.994C67.4645 174.235 67.3488 171.797 67.4378 170.798C66.156 171.986 65.435 173.822 65.2347 174.592C64.8341 174.328 64.5337 173.272 64.4336 172.778L63.1317 175.994C63.0783 173.443 60.3055 171.467 58.9258 170.798Z" fill="#70AE3E"/>
<path d="M28.9463 170.798C30.4871 173.041 30.0239 176.663 29.5997 178.193L62.6505 178.193C62.1002 176.698 63.3842 173.96 64.0949 172.778C62.3616 172.778 60.9194 174.519 60.415 175.389L59.3144 172.118L58.1451 174.07C58.0075 173.014 56.758 172.329 56.1504 172.118C56.1504 173.173 55.3708 174.739 54.981 175.389L53.399 170.193C53.2614 171.271 52.287 173.227 51.817 174.07C51.2942 173.652 50.5903 172.026 50.3037 171.266C50.2212 171.639 49.2605 173.639 48.7905 174.592C48.4328 174.064 48.2058 172.723 48.137 172.118C47.6693 172.382 46.383 174.812 45.7984 175.994C45.7984 175.51 44.01 172.329 43.1158 170.798C43.5835 173.855 42.3706 175.536 41.7057 175.994C41.7057 175.576 40.9262 173.676 40.5364 172.778C40.3988 173.899 39.4244 175.389 38.9544 175.994C37.7438 174.235 37.6245 171.797 37.7163 170.798C36.3956 171.986 35.6527 173.822 35.4464 174.592C35.0337 174.328 34.7241 173.272 34.621 172.778L33.2797 175.994C33.2247 173.443 30.3678 171.467 28.9463 170.798Z" fill="#70AE3E"/>
<path d="M117.852 170.798C119.392 173.041 118.929 176.663 118.505 178.193L151.556 178.193C151.005 176.698 152.289 173.96 153 172.778C151.267 172.778 149.825 174.519 149.32 175.389L148.22 172.118L147.05 174.07C146.913 173.014 145.663 172.329 145.056 172.118C145.056 173.173 144.276 174.739 143.886 175.389L142.304 170.193C142.167 171.271 141.192 173.227 140.722 174.07C140.199 173.652 139.496 172.026 139.209 171.266C139.126 171.639 138.166 173.639 137.696 174.592C137.338 174.064 137.111 172.723 137.042 172.118C136.575 172.382 135.288 174.812 134.704 175.994C134.704 175.51 132.915 172.329 132.021 170.798C132.489 173.855 131.276 175.536 130.611 175.994C130.611 175.576 129.831 173.676 129.442 172.778C129.304 173.899 128.33 175.389 127.86 175.994C126.649 174.235 126.53 171.797 126.622 170.798C125.301 171.986 124.558 173.822 124.352 174.592C123.939 174.328 123.629 173.272 123.526 172.778L122.185 175.994C122.13 173.443 119.273 171.467 117.852 170.798Z" fill="#70AE3E"/>
</svg>
