<svg width="146" height="122" viewBox="0 0 146 122" fill="none" xmlns="http://www.w3.org/2000/svg">
<path d="M105.363 61.3419H138.736C139.791 61.3419 140.478 60.2339 140.011 59.2882L131.274 41.5963C131.033 41.1121 130.539 40.8027 129.999 40.8027H84.4863L104.351 60.9159C104.617 61.1872 104.982 61.3393 105.363 61.3393V61.3419Z" fill="#D66E2F" stroke="#D66E2F" stroke-miterlimit="10"/>
<path d="M40.0278 61.3419H6.65454C5.59982 61.3419 4.91273 60.2339 5.37924 59.2882L14.1162 41.5963C14.357 41.1121 14.8514 40.8027 15.3915 40.8027H60.9041L41.0394 60.9159C40.7732 61.1872 40.4081 61.3393 40.0278 61.3393V61.3419Z" fill="#D66E2F" stroke="#D66E2F" stroke-miterlimit="10"/>
<mask id="mask0_597_10521" style="mask-type:luminance" maskUnits="userSpaceOnUse" x="0" y="53" width="146" height="10">
<path d="M2.02843 53.7383H143.107L145.278 62.9493H0.760742L2.02843 53.7383Z" fill="white"/>
</mask>
<g mask="url(#mask0_597_10521)">
<path d="M40.0278 61.3438H6.65454C5.59982 61.3438 4.91273 60.2359 5.37924 59.2902L14.1162 41.5983C14.357 41.114 14.8514 40.8047 15.3915 40.8047H60.9041L41.0394 60.9179C40.7732 61.1892 40.4081 61.3413 40.0278 61.3413V61.3438Z" fill="#B55824" stroke="#B55824" stroke-miterlimit="10"/>
<path d="M105.363 61.3438H138.736C139.791 61.3438 140.478 60.2359 140.011 59.2902L131.274 41.5983C131.033 41.114 130.539 40.8047 129.999 40.8047H84.4863L104.351 60.9179C104.617 61.1892 104.982 61.3413 105.363 61.3413V61.3438Z" fill="#B55824" stroke="#B55824" stroke-miterlimit="10"/>
</g>
<path d="M40.0278 61.3419H6.65454C5.59982 61.3419 4.91273 60.2339 5.37924 59.2882L14.1162 41.5963C14.357 41.1121 14.8514 40.8027 15.3915 40.8027H60.9041L41.0394 60.9159C40.7732 61.1872 40.4081 61.3393 40.0278 61.3393V61.3419Z" stroke="black" stroke-miterlimit="10"/>
<path d="M105.363 61.3419H138.736C139.791 61.3419 140.478 60.2339 140.011 59.2882L131.274 41.5963C131.033 41.1121 130.539 40.8027 129.999 40.8027H84.4863L104.351 60.9159C104.617 61.1872 104.982 61.3393 105.363 61.3393V61.3419Z" stroke="black" stroke-miterlimit="10"/>
<path d="M106.48 61.34C105.671 61.34 104.895 61.018 104.324 60.4476L89.1172 45.2404L74.9191 31.0422C73.73 29.8531 71.8006 29.8531 70.6089 31.0422L56.4108 45.2404L41.2036 60.4476C40.6331 61.018 39.8573 61.34 39.0485 61.34H14.4502V112.55C14.4502 114.233 15.8142 115.597 17.4977 115.597H128.03C129.714 115.597 131.078 114.233 131.078 112.55V61.34H106.48Z" fill="#B79980" stroke="#B79980" stroke-miterlimit="10"/>
<mask id="mask1_597_10521" style="mask-type:luminance" maskUnits="userSpaceOnUse" x="7" y="21" width="128" height="101">
<path d="M20.535 121.428V69.7999C20.535 67.551 23.1185 65.4745 25.3674 65.4745H42.0249C43.3889 65.4745 44.6896 64.9041 45.6175 63.9026L69.7265 39.6086C71.3567 37.8465 74.1482 37.8693 75.7506 39.6567L97.4585 63.9153C98.3763 64.9421 99.6896 65.5303 101.069 65.5303H134.883V56.0378H106.487L72.7664 21.6758L38.0317 55.5054H7.35352V119.651L20.5375 121.425L20.535 121.428Z" fill="white"/>
</mask>
<g mask="url(#mask1_597_10521)">
<path d="M106.48 61.34C105.671 61.34 104.895 61.018 104.324 60.4476L89.1172 45.2404L74.9191 31.0422C73.73 29.8531 71.8006 29.8531 70.6089 31.0422L56.4108 45.2404L41.2036 60.4476C40.6331 61.018 39.8573 61.34 39.0485 61.34H14.4502V112.55C14.4502 114.233 15.8142 115.597 17.4977 115.597H128.03C129.714 115.597 131.078 114.233 131.078 112.55V61.34H106.48Z" fill="#9B8270" stroke="#9B8270" stroke-miterlimit="10"/>
</g>
<path d="M106.48 61.34C105.671 61.34 104.895 61.018 104.324 60.4476L89.1172 45.2404L74.9191 31.0422C73.73 29.8531 71.8006 29.8531 70.6089 31.0422L56.4108 45.2404L41.2036 60.4476C40.6331 61.018 39.8573 61.34 39.0485 61.34H14.4502V112.55C14.4502 114.233 15.8142 115.597 17.4977 115.597H128.03C129.714 115.597 131.078 114.233 131.078 112.55V61.34H106.48Z" stroke="black" stroke-miterlimit="10"/>
<path d="M56.131 107.486H89.2633C90.1964 107.486 90.9519 108.242 90.9519 109.175V115.346H54.4424V109.175C54.4424 108.242 55.1979 107.486 56.131 107.486Z" fill="#594738" stroke="black" stroke-miterlimit="10"/>
<path d="M60.9203 86.6973H84.474C85.8102 86.6973 86.8953 87.7824 86.8953 89.1186V107.487H58.499V89.1186C58.499 87.7824 59.5842 86.6973 60.9203 86.6973Z" fill="#F7D452" stroke="black" stroke-miterlimit="10"/>
<path d="M72.7646 86.6973V107.487" stroke="black" stroke-miterlimit="10"/>
<path d="M49.2268 88.1543H23.6118C22.7605 88.1543 22.0703 88.8445 22.0703 89.6958V98.4201C22.0703 99.2714 22.7605 99.9616 23.6118 99.9616H49.2268C50.0782 99.9616 50.7683 99.2714 50.7683 98.4201V89.6958C50.7683 88.8445 50.0782 88.1543 49.2268 88.1543Z" fill="#E9F2F8" stroke="#E9F2F8" stroke-miterlimit="10"/>
<mask id="mask2_597_10521" style="mask-type:luminance" maskUnits="userSpaceOnUse" x="16" y="77" width="38" height="27">
<path d="M52.7558 94.5457H29.1513C29.1513 94.5457 23.9335 94.064 23.9335 81.306C23.9335 68.5479 16.4795 90.4536 16.4795 90.4536L19.958 103.934L53.7496 103.212L52.7558 94.5457Z" fill="white"/>
</mask>
<g mask="url(#mask2_597_10521)">
<path d="M49.2288 87.9141H23.6138C22.7624 87.9141 22.0723 88.6042 22.0723 89.4556V98.1798C22.0723 99.0312 22.7624 99.7213 23.6138 99.7213H49.2288C50.0801 99.7213 50.7703 99.0312 50.7703 98.1798V89.4556C50.7703 88.6042 50.0801 87.9141 49.2288 87.9141Z" fill="#D3DADD" stroke="#D3DADD" stroke-miterlimit="10"/>
</g>
<path d="M49.4901 87.6973H23.401C22.5188 87.6973 21.8037 88.4124 21.8037 89.2946V98.536C21.8037 99.4182 22.5188 100.133 23.401 100.133H49.4901C50.3723 100.133 51.0874 99.4182 51.0874 98.536V89.2946C51.0874 88.4124 50.3723 87.6973 49.4901 87.6973Z" stroke="black" stroke-miterlimit="10"/>
<path d="M36.5098 100.134V87.7109" stroke="black" stroke-miterlimit="10"/>
<path d="M49.2268 69.1426H23.6118C22.7605 69.1426 22.0703 69.8327 22.0703 70.6841V79.4083C22.0703 80.2597 22.7605 80.9499 23.6118 80.9499H49.2268C50.0782 80.9499 50.7683 80.2597 50.7683 79.4083V70.6841C50.7683 69.8327 50.0782 69.1426 49.2268 69.1426Z" fill="#E9F2F8" stroke="#E9F2F8" stroke-miterlimit="10"/>
<mask id="mask3_597_10521" style="mask-type:luminance" maskUnits="userSpaceOnUse" x="16" y="58" width="38" height="27">
<path d="M52.7558 75.534H29.1513C29.1513 75.534 23.9335 75.0523 23.9335 62.2942C23.9335 49.5362 16.4795 71.4419 16.4795 71.4419L19.958 84.9225L53.7496 84.2L52.7558 75.534Z" fill="white"/>
</mask>
<g mask="url(#mask3_597_10521)">
<path d="M49.2288 68.9023H23.6138C22.7624 68.9023 22.0723 69.5925 22.0723 70.4439V79.1681C22.0723 80.0195 22.7624 80.7096 23.6138 80.7096H49.2288C50.0801 80.7096 50.7703 80.0195 50.7703 79.1681V70.4439C50.7703 69.5925 50.0801 68.9023 49.2288 68.9023Z" fill="#D3DADD" stroke="#D3DADD" stroke-miterlimit="10"/>
</g>
<path d="M49.4911 68.6855H23.402C22.5198 68.6855 21.8047 69.4007 21.8047 70.2828V79.5243C21.8047 80.4065 22.5198 81.1216 23.402 81.1216H49.4911C50.3732 81.1216 51.0884 80.4065 51.0884 79.5243V70.2828C51.0884 69.4007 50.3732 68.6855 49.4911 68.6855Z" stroke="black" stroke-miterlimit="10"/>
<path d="M36.5107 81.1226V68.6992" stroke="black" stroke-miterlimit="10"/>
<path d="M121.74 88.1543H96.1255C95.2741 88.1543 94.584 88.8445 94.584 89.6958V98.4201C94.584 99.2714 95.2741 99.9616 96.1255 99.9616H121.74C122.592 99.9616 123.282 99.2714 123.282 98.4201V89.6958C123.282 88.8445 122.592 88.1543 121.74 88.1543Z" fill="#E9F2F8" stroke="#E9F2F8" stroke-miterlimit="10"/>
<mask id="mask4_597_10521" style="mask-type:luminance" maskUnits="userSpaceOnUse" x="88" y="77" width="39" height="27">
<path d="M125.269 94.5457H101.665C101.665 94.5457 96.4472 94.064 96.4472 81.306C96.4472 68.5479 88.9932 90.4536 88.9932 90.4536L92.4717 103.934L126.263 103.212L125.269 94.5457Z" fill="white"/>
</mask>
<g mask="url(#mask4_597_10521)">
<path d="M121.738 87.9141H96.1226C95.2712 87.9141 94.5811 88.6042 94.5811 89.4556V98.1798C94.5811 99.0312 95.2712 99.7213 96.1226 99.7213H121.738C122.589 99.7213 123.279 99.0312 123.279 98.1798V89.4556C123.279 88.6042 122.589 87.9141 121.738 87.9141Z" fill="#D3DADD" stroke="#D3DADD" stroke-miterlimit="10"/>
</g>
<path d="M122.003 87.6973H95.9137C95.0316 87.6973 94.3164 88.4124 94.3164 89.2946V98.536C94.3164 99.4182 95.0316 100.133 95.9137 100.133H122.003C122.885 100.133 123.6 99.4182 123.6 98.536V89.2946C123.6 88.4124 122.885 87.6973 122.003 87.6973Z" stroke="black" stroke-miterlimit="10"/>
<path d="M109.021 100.134V87.7109" stroke="black" stroke-miterlimit="10"/>
<path d="M121.74 69.1426H96.1255C95.2741 69.1426 94.584 69.8327 94.584 70.6841V79.4083C94.584 80.2597 95.2741 80.9499 96.1255 80.9499H121.74C122.592 80.9499 123.282 80.2597 123.282 79.4083V70.6841C123.282 69.8327 122.592 69.1426 121.74 69.1426Z" fill="#E9F2F8" stroke="#E9F2F8" stroke-miterlimit="10"/>
<mask id="mask5_597_10521" style="mask-type:luminance" maskUnits="userSpaceOnUse" x="88" y="58" width="39" height="27">
<path d="M125.269 75.534H101.665C101.665 75.534 96.4472 75.0523 96.4472 62.2942C96.4472 49.5362 88.9932 71.4419 88.9932 71.4419L92.4717 84.9225L126.263 84.2L125.269 75.534Z" fill="white"/>
</mask>
<g mask="url(#mask5_597_10521)">
<path d="M121.738 68.9023H96.1226C95.2712 68.9023 94.5811 69.5925 94.5811 70.4439V79.1681C94.5811 80.0195 95.2712 80.7096 96.1226 80.7096H121.738C122.589 80.7096 123.279 80.0195 123.279 79.1681V70.4439C123.279 69.5925 122.589 68.9023 121.738 68.9023Z" fill="#D3DADD" stroke="#D3DADD" stroke-miterlimit="10"/>
</g>
<path d="M122.003 68.6855H95.9137C95.0316 68.6855 94.3164 69.4007 94.3164 70.2828V79.5243C94.3164 80.4065 95.0316 81.1216 95.9137 81.1216H122.003C122.885 81.1216 123.6 80.4065 123.6 79.5243V70.2828C123.6 69.4007 122.885 68.6855 122.003 68.6855Z" stroke="black" stroke-miterlimit="10"/>
<path d="M109.021 81.1226V68.6992" stroke="black" stroke-miterlimit="10"/>
<path d="M72.7656 30.1569V1" stroke="black" stroke-miterlimit="10"/>
<path d="M88.2163 1H73.795C73.2265 1 72.7656 1.46086 72.7656 2.02937V9.85863C72.7656 10.4271 73.2265 10.888 73.795 10.888H88.2163C88.7848 10.888 89.2456 10.4271 89.2456 9.85863V2.02937C89.2456 1.46086 88.7848 1 88.2163 1Z" fill="#F7D452" stroke="#F7D452" stroke-miterlimit="10"/>
<path d="M76.6295 1H73.7189C73.1924 1 72.7656 1.42681 72.7656 1.95331V9.93469C72.7656 10.4612 73.1924 10.888 73.7189 10.888H76.6295C77.156 10.888 77.5829 10.4612 77.5829 9.93469V1.95331C77.5829 1.42681 77.156 1 76.6295 1Z" fill="#FCBC54" stroke="#FCBC54" stroke-miterlimit="10"/>
<path d="M88.6371 1H73.3741C73.0381 1 72.7656 1.27243 72.7656 1.60849V10.2795C72.7656 10.6156 73.0381 10.888 73.3741 10.888H88.6371C88.9732 10.888 89.2456 10.6156 89.2456 10.2795V1.60849C89.2456 1.27243 88.9732 1 88.6371 1Z" stroke="black" stroke-miterlimit="10"/>
<g clip-path="url(#clip0_597_10521)">
<path d="M68.7136 71.3432C68.8392 70.4944 69.2681 69.5673 70.4476 68.1635C70.5847 68.0004 70.5712 67.7572 70.4187 67.6058C70.2463 67.4338 69.9627 67.4467 69.8058 67.6322C68.4853 69.2059 68.0226 70.2856 67.8891 71.2226C67.8555 71.4612 68.0279 71.6762 68.2683 71.695C68.4885 71.7135 68.6822 71.5583 68.7136 71.3432Z" fill="black"/>
<path d="M70.4314 71.6618C70.3156 70.8117 70.4754 69.8016 71.2179 68.1274C71.3061 67.9316 71.2249 67.7036 71.0362 67.5992C70.8245 67.4837 70.5556 67.573 70.4571 67.7946C69.6233 69.674 69.4761 70.8386 69.6061 71.7738C69.6384 72.012 69.8643 72.1696 70.1016 72.1232C70.3167 72.08 70.4606 71.8778 70.4314 71.6618Z" fill="black"/>
<path d="M77.6638 70.9349C77.3104 70.1514 77.1743 69.1402 77.4107 67.3232C77.4374 67.1123 77.2956 66.915 77.0857 66.8708C76.8481 66.8196 76.6162 66.9822 76.5859 67.2228C76.323 69.2621 76.5153 70.4189 76.9063 71.2785C77.0048 71.4961 77.2665 71.5838 77.4805 71.4719C77.6738 71.3685 77.7546 71.1345 77.6638 70.9349Z" fill="black"/>
<path d="M76.0574 71.3646C75.7039 70.5811 75.5679 69.5699 75.8043 67.7529C75.831 67.542 75.6891 67.3447 75.4793 67.3004C75.2417 67.2493 75.0097 67.4119 74.9795 67.6525C74.7165 69.6918 74.9088 70.8486 75.2999 71.7082C75.3984 71.9258 75.6601 72.0135 75.8741 71.9016C76.0674 71.7982 76.1482 71.5641 76.0574 71.3646Z" fill="black"/>
<path d="M82.8162 67.6916C82.0569 67.2894 81.3306 66.5713 80.4049 64.9911C80.2983 64.8073 80.0618 64.7386 79.8717 64.8326C79.6529 64.9372 79.568 65.2096 79.6926 65.4173C80.7331 67.1906 81.5925 67.9879 82.4284 68.4297C82.6422 68.5418 82.9015 68.4494 83.0015 68.2332C83.0909 68.0312 83.0109 67.7972 82.8169 67.6942L82.8162 67.6916Z" fill="black"/>
<path d="M81.6218 68.5841C80.8625 68.182 80.1363 67.4639 79.2106 65.8837C79.1039 65.6999 78.8674 65.6312 78.6774 65.7252C78.4585 65.8297 78.3737 66.1022 78.4982 66.3099C79.5388 68.0832 80.3982 68.8804 81.2341 69.3223C81.4478 69.4344 81.7072 69.3419 81.8071 69.1257C81.8965 68.9238 81.8166 68.6898 81.6225 68.5868L81.6218 68.5841Z" fill="black"/>
<path d="M64.687 66.8774C63.7257 67.135 62.8822 67.104 62.8029 66.8082C62.7237 66.5124 63.4387 66.0638 64.4 65.8062C65.3613 65.5487 66.2049 65.5796 66.2841 65.8754C66.3634 66.1712 65.6483 66.6198 64.687 66.8774Z" fill="black" stroke="black" stroke-width="0.958609" stroke-miterlimit="10"/>
<path d="M75.155 55.8059C79.8348 55.2867 83.818 56.7307 84.8238 59.6384C85.8813 62.6959 83.3204 66.4101 78.8812 68.7591C75.4516 65.2035 75.0195 59.4671 75.1523 55.8066L75.155 55.8059Z" fill="#FED22B" stroke="black" stroke-width="0.958609" stroke-miterlimit="10"/>
<path d="M72.3144 56.4318C72.4433 56.3772 72.5729 56.3253 72.7058 56.2753C73.5346 55.9729 74.3713 55.8176 75.1893 55.7964C75.4368 59.355 76.2438 64.991 78.8299 68.7725C78.2689 69.164 77.6476 69.4911 76.9786 69.7364C76.7407 69.8231 76.5052 69.8977 76.2662 69.9589C73.4084 66.1382 72.5592 60.1089 72.3164 56.4284L72.3144 56.4318Z" fill="black" stroke="black" stroke-width="0.958609" stroke-miterlimit="10"/>
<path d="M67.9366 58.8081C69.27 57.8395 70.873 56.988 72.6677 56.3378C72.472 60.1386 72.8607 66.2913 76.8103 69.8166C74.9672 70.3076 73.1645 70.5208 71.5129 70.4841C68.4893 67.2761 67.8952 62.381 67.9366 58.8081Z" fill="#FED22B" stroke="black" stroke-width="0.958609" stroke-miterlimit="10"/>
<path d="M67.5976 59.2092C67.7322 62.5713 68.4235 67.2079 70.9326 70.37C68.003 70.116 65.6292 68.6799 64.8601 66.3774C64.0578 63.972 65.2176 61.2417 67.5976 59.2092Z" fill="black" stroke="black" stroke-width="0.958609" stroke-miterlimit="10"/>
<path d="M82.1251 60.1961C81.9033 60.2556 81.6752 60.1239 81.6158 59.9021C81.5564 59.6803 81.688 59.4522 81.9098 59.3928C82.1317 59.3333 82.3597 59.465 82.4192 59.6868C82.4786 59.9087 82.3469 60.1367 82.1251 60.1961Z" fill="black"/>
<path d="M79.3233 61.5184C79.1015 61.5778 78.8735 61.4462 78.814 61.2244C78.7546 61.0025 78.8862 60.7745 79.1081 60.7151C79.3299 60.6556 79.558 60.7873 79.6174 61.0091C79.6768 61.2309 79.5452 61.459 79.3233 61.5184Z" fill="black"/>
<path d="M81.9319 62.6438C82.114 62.595 82.2753 62.5116 82.4166 62.3962C82.9055 61.9926 82.9752 61.2994 82.9677 60.8968C82.9656 60.728 82.8161 60.5987 82.6485 60.6264C82.5103 60.6462 82.4108 60.7676 82.4138 60.9074C82.4186 61.2362 82.361 61.7281 82.0645 61.9711C81.8131 62.1791 81.406 62.2021 80.8545 62.0399C80.7146 61.9999 80.5687 62.0763 80.5192 62.213C80.4653 62.3652 80.5528 62.5312 80.7082 62.5756C81.1866 62.7115 81.5952 62.7369 81.9353 62.6458L81.9319 62.6438Z" fill="black"/>
<path d="M82.5173 56.4506C82.6429 55.6019 83.0718 54.6747 84.2513 53.2709C84.3884 53.1079 84.3749 52.8646 84.2224 52.7132C84.05 52.5413 83.7665 52.5541 83.6095 52.7397C82.289 54.3133 81.8264 55.393 81.6928 56.33C81.6592 56.5686 81.8316 56.7836 82.072 56.8024C82.2922 56.8209 82.486 56.6657 82.5173 56.4506Z" fill="black"/>
<path d="M78.2321 57.5991C78.3577 56.7503 78.7867 55.8231 79.9661 54.4193C80.1032 54.2563 80.0897 54.0131 79.9372 53.8616C79.7649 53.6897 79.4813 53.7025 79.3244 53.8881C78.0039 55.4617 77.5412 56.5414 77.4077 57.4784C77.374 57.7171 77.5464 57.932 77.7868 57.9509C78.007 57.9694 78.2008 57.8141 78.2321 57.5991Z" fill="black"/>
<path d="M84.6985 53.1931C84.2548 53.3119 83.7987 53.0486 83.6798 52.605C83.561 52.1613 83.8243 51.7052 84.2679 51.5864C84.7116 51.4675 85.1677 51.7308 85.2865 52.1745C85.4054 52.6181 85.1421 53.0742 84.6985 53.1931Z" fill="black"/>
<path d="M80.1457 54.4118C79.702 54.5307 79.246 54.2674 79.1271 53.8237C79.0082 53.38 79.2715 52.924 79.7152 52.8051C80.1589 52.6862 80.6149 52.9495 80.7338 53.3932C80.8527 53.8369 80.5894 54.2929 80.1457 54.4118Z" fill="black"/>
<path d="M71.7849 56.7859C71.7125 56.6015 70.7519 56.6264 70.601 56.6094C70.0345 56.5517 69.469 56.4765 68.908 56.3857C67.5276 56.1615 66.1486 55.8565 64.8262 55.3986C63.2399 54.8449 61.5286 53.5355 61.841 51.6378C61.954 50.9561 62.3459 50.3516 62.7998 49.8282C63.4101 49.128 64.194 48.519 65.1118 48.3879C66.0543 48.253 67.0193 48.6517 67.7287 49.2853C68.7323 50.1817 69.2578 51.4357 69.8125 52.6275C70.1417 53.3314 70.4736 54.0346 70.8075 54.7344C71.1352 55.4216 71.5045 56.0717 71.7841 56.7832L71.7849 56.7859Z" fill="white" stroke="black" stroke-width="0.958609" stroke-miterlimit="10"/>
<path d="M71.9521 56.7058C72.0814 56.5564 71.6181 55.7162 71.5633 55.5759C71.3526 55.0468 71.1573 54.5108 70.9808 53.9697C70.5422 52.6435 70.1736 51.2785 69.9694 49.8953C69.7276 48.2323 70.0974 46.1098 71.9252 45.5081C72.5819 45.2919 73.3006 45.3606 73.9724 45.5221C74.8745 45.7396 75.7772 46.1521 76.3185 46.9083C76.8728 47.681 76.965 48.7212 76.7304 49.6451C76.3965 50.9486 75.5311 51.9927 74.729 53.0371C74.2572 53.6543 73.7854 54.2715 73.3177 54.8934C72.8586 55.5043 72.4522 56.1298 71.9521 56.7058Z" fill="white" stroke="black" stroke-width="0.958609" stroke-miterlimit="10"/>
<path d="M79.2899 63.5378C78.9202 63.6369 78.5401 63.4175 78.441 63.0478C78.342 62.678 78.5614 62.298 78.9311 62.1989C79.3009 62.0998 79.6809 62.3193 79.78 62.689C79.879 63.0587 79.6596 63.4388 79.2899 63.5378Z" fill="#FF6B30"/>
<path d="M83.6082 60.3718C83.2385 60.4709 82.8585 60.2515 82.7594 59.8817C82.6603 59.512 82.8797 59.132 83.2495 59.0329C83.6192 58.9338 83.9993 59.1532 84.0983 59.523C84.1974 59.8927 83.978 60.2728 83.6082 60.3718Z" fill="#FF6B30"/>
</g>
<path d="M71.2402 110.234C72.2529 112.197 71.9485 115.366 71.6697 116.705L93.3921 116.705C93.0305 115.396 93.8743 113.001 94.3415 111.966C93.2023 111.966 92.2544 113.49 91.9229 114.251L91.1995 111.389L90.431 113.097C90.3406 112.173 89.5193 111.573 89.12 111.389C89.12 112.313 88.6076 113.682 88.3514 114.251L87.3117 109.705C87.2212 110.648 86.5808 112.359 86.2719 113.097C85.9283 112.731 85.4657 111.309 85.2773 110.643C85.2231 110.97 84.5917 112.72 84.2827 113.554C84.0476 113.092 83.8985 111.918 83.8533 111.389C83.5458 111.62 82.7005 113.746 82.3162 114.781C82.3162 114.357 81.1408 111.573 80.5531 110.234C80.8605 112.909 80.0633 114.38 79.6263 114.781C79.6263 114.415 79.114 112.752 78.8578 111.966C78.7674 112.948 78.1269 114.251 77.818 114.781C77.0223 113.241 76.944 111.108 77.0042 110.234C76.1363 111.273 75.648 112.88 75.5124 113.554C75.2411 113.323 75.0377 112.399 74.9699 111.966L74.0883 114.781C74.0522 112.548 72.1745 110.82 71.2402 110.234Z" fill="#70AE3E"/>
<path d="M29.6582 110.234C30.6709 112.197 30.3665 115.366 30.0877 116.705L51.8101 116.705C51.4484 115.396 52.2923 113.001 52.7595 111.966C51.6202 111.966 50.6724 113.49 50.3408 114.251L49.6175 111.389L48.849 113.097C48.7586 112.173 47.9373 111.573 47.5379 111.389C47.5379 112.313 47.0256 113.682 46.7694 114.251L45.7296 109.705C45.6392 110.648 44.9988 112.359 44.6898 113.097C44.3463 112.731 43.8836 111.309 43.6953 110.643C43.641 110.97 43.0096 112.72 42.7007 113.554C42.4656 113.092 42.3164 111.918 42.2712 111.389C41.9638 111.62 41.1184 113.746 40.7342 114.781C40.7342 114.357 39.5587 111.573 38.971 110.234C39.2785 112.909 38.4813 114.38 38.0443 114.781C38.0443 114.415 37.5319 112.752 37.2757 111.966C37.1853 112.948 36.5449 114.251 36.236 114.781C35.4403 113.241 35.3619 111.108 35.4222 110.234C34.5542 111.273 34.066 112.88 33.9304 113.554C33.6591 113.323 33.4557 112.399 33.3879 111.966L32.5063 114.781C32.4701 112.548 30.5925 110.82 29.6582 110.234Z" fill="#70AE3E"/>
<path d="M111.898 110.234C112.911 112.197 112.607 115.366 112.328 116.705L134.05 116.705C133.689 115.396 134.533 113.001 135 111.966C133.86 111.966 132.913 113.49 132.581 114.251L131.858 111.389L131.089 113.097C130.999 112.173 130.178 111.573 129.778 111.389C129.778 112.313 129.266 113.682 129.01 114.251L127.97 109.705C127.879 110.648 127.239 112.359 126.93 113.097C126.587 112.731 126.124 111.309 125.936 110.643C125.881 110.97 125.25 112.72 124.941 113.554C124.706 113.092 124.557 111.918 124.511 111.389C124.204 111.62 123.359 113.746 122.974 114.781C122.974 114.357 121.799 111.573 121.211 110.234C121.519 112.909 120.722 114.38 120.285 114.781C120.285 114.415 119.772 112.752 119.516 111.966C119.426 112.948 118.785 114.251 118.476 114.781C117.681 113.241 117.602 111.108 117.662 110.234C116.794 111.273 116.306 112.88 116.171 113.554C115.899 113.323 115.696 112.399 115.628 111.966L114.747 114.781C114.71 112.548 112.833 110.82 111.898 110.234Z" fill="#70AE3E"/>
<path d="M9.3291 110.234C10.3418 112.197 10.0374 115.366 9.75858 116.705L31.481 116.705C31.1193 115.396 31.9632 113.001 32.4304 111.966C31.2911 111.966 30.3433 113.49 30.0117 114.251L29.2884 111.389L28.5199 113.097C28.4295 112.173 27.6082 111.573 27.2088 111.389C27.2088 112.313 26.6965 113.682 26.4403 114.251L25.4005 109.705C25.3101 110.648 24.6697 112.359 24.3607 113.097C24.0172 112.731 23.5545 111.309 23.3662 110.643C23.3119 110.97 22.6805 112.72 22.3716 113.554C22.1365 113.092 21.9873 111.918 21.9421 111.389C21.6347 111.62 20.7893 113.746 20.4051 114.781C20.4051 114.357 19.2296 111.573 18.6419 110.234C18.9494 112.909 18.1522 114.38 17.7152 114.781C17.7152 114.415 17.2028 112.752 16.9466 111.966C16.8562 112.948 16.2158 114.251 15.9069 114.781C15.1112 113.241 15.0328 111.108 15.0931 110.234C14.2251 111.273 13.7369 112.88 13.6013 113.554C13.33 113.323 13.1266 112.399 13.0588 111.966L12.1772 114.781C12.141 112.548 10.2634 110.82 9.3291 110.234Z" fill="#70AE3E"/>
<path d="M91.5693 110.234C92.582 112.197 92.2776 115.366 91.9988 116.705L113.721 116.705C113.36 115.396 114.203 113.001 114.671 111.966C113.531 111.966 112.583 113.49 112.252 114.251L111.529 111.389L110.76 113.097C110.67 112.173 109.848 111.573 109.449 111.389C109.449 112.313 108.937 113.682 108.681 114.251L107.641 109.705C107.55 110.648 106.91 112.359 106.601 113.097C106.257 112.731 105.795 111.309 105.606 110.643C105.552 110.97 104.921 112.72 104.612 113.554C104.377 113.092 104.228 111.918 104.182 111.389C103.875 111.62 103.03 113.746 102.645 114.781C102.645 114.357 101.47 111.573 100.882 110.234C101.19 112.909 100.392 114.38 99.9554 114.781C99.9554 114.415 99.4431 112.752 99.1869 111.966C99.0965 112.948 98.456 114.251 98.1471 114.781C97.3514 113.241 97.2731 111.108 97.3334 110.234C96.4654 111.273 95.9771 112.88 95.8415 113.554C95.5702 113.323 95.3668 112.399 95.299 111.966L94.4174 114.781C94.3813 112.548 92.5036 110.82 91.5693 110.234Z" fill="#70AE3E"/>
<path d="M49.9873 110.234C51 112.197 50.6956 115.366 50.4168 116.705L72.1392 116.705C71.7775 115.396 72.6214 113.001 73.0886 111.966C71.9493 111.966 71.0015 113.49 70.6699 114.251L69.9466 111.389L69.1781 113.097C69.0877 112.173 68.2664 111.573 67.8671 111.389C67.8671 112.313 67.3547 113.682 67.0985 114.251L66.0587 109.705C65.9683 110.648 65.3279 112.359 65.0189 113.097C64.6754 112.731 64.2127 111.309 64.0244 110.643C63.9701 110.97 63.3387 112.72 63.0298 113.554C62.7947 113.092 62.6455 111.918 62.6003 111.389C62.2929 111.62 61.4475 113.746 61.0633 114.781C61.0633 114.357 59.8878 111.573 59.3001 110.234C59.6076 112.909 58.8104 114.38 58.3734 114.781C58.3734 114.415 57.861 112.752 57.6048 111.966C57.5144 112.948 56.874 114.251 56.5651 114.781C55.7694 113.241 55.691 111.108 55.7513 110.234C54.8833 111.273 54.3951 112.88 54.2595 113.554C53.9882 113.323 53.7848 112.399 53.717 111.966L52.8354 114.781C52.7992 112.548 50.9216 110.82 49.9873 110.234Z" fill="#70AE3E"/>
<defs>
<clipPath id="clip0_597_10521">
<rect width="26.0598" height="26.9469" fill="white" transform="matrix(-0.965926 0.258819 0.258819 0.965926 82.6162 42.209)"/>
</clipPath>
</defs>
</svg>
