<svg width="905" height="412" viewBox="0 0 905 412" fill="none" xmlns="http://www.w3.org/2000/svg">
<g clip-path="url(#clip0_489_4292)">
<rect y="-1" width="4480" height="414" fill="#C7E9FA"/>
<rect x="47.4531" y="254.371" width="15.1417" height="51.9142" fill="#5C4636"/>
<path d="M73.5232 261.13C64.6545 264.158 57.7506 258.426 55.4073 255.181C52.433 258.786 44.2132 265.023 35.1282 261.13C26.0433 257.236 25.3943 247.43 26.2055 243.014C24.2227 243.645 18.5806 243.122 11.875 235.984C5.16941 228.845 10.7034 220.031 14.3085 216.516C11.9652 215.615 7.00815 211.649 5.9266 202.997C4.84506 194.344 11.7849 189.117 15.3901 187.584C14.2184 186.232 12.3618 181.798 14.3085 174.876C16.2553 167.954 22.5103 166.044 25.3944 165.953C24.2228 164.151 22.5824 158.923 25.3944 152.434C28.2065 145.945 36.1197 144.142 39.7248 144.052C39.3643 137.202 41.9961 123.935 55.4073 125.666C68.8184 127.396 70.9094 138.644 70.2785 144.052C74.0639 144.593 82.2837 147.026 84.8794 152.434C87.4751 157.842 85.9609 163.7 84.8794 165.953C87.8536 166.224 94.1266 168.387 95.4245 174.876C96.7223 181.366 94.8837 186.052 93.8022 187.584C99.4803 189.748 103.536 193.263 103.806 202.996C104.023 210.784 98.3086 214.533 95.4245 215.434C98.3987 220.031 102.725 224.087 99.2099 233.55C96.3979 241.121 87.2227 243.014 82.9867 243.014C84.0682 246.799 84.609 257.344 73.5232 261.13Z" fill="#25861F"/>
<mask id="mask0_489_4292" style="mask-type:alpha" maskUnits="userSpaceOnUse" x="0" y="76" width="61" height="218">
<rect y="76" width="60.6265" height="217.591" fill="#D9D9D9"/>
</mask>
<g mask="url(#mask0_489_4292)">
<rect x="-8.15137" y="230.68" width="18.1759" height="62.3173" fill="#5C4636"/>
<path d="M23.1432 238.794C12.4973 242.429 4.20996 235.548 1.39703 231.654C-2.17323 235.981 -12.0401 243.468 -22.9457 238.794C-33.8512 234.12 -34.6301 222.349 -33.6564 217.048C-36.0366 217.805 -42.8093 217.178 -50.8586 208.609C-58.9079 200.041 -52.265 189.46 -47.9374 185.24C-50.7503 184.158 -56.7007 179.398 -57.999 169.012C-59.2972 158.626 -50.9667 152.351 -46.6391 150.511C-48.0456 148.889 -50.2743 143.566 -47.9374 135.257C-45.6005 126.948 -38.0921 124.654 -34.63 124.546C-36.0365 122.382 -38.0055 116.107 -34.63 108.317C-31.2545 100.528 -21.7555 98.3639 -17.428 98.2557C-17.8607 90.0333 -14.7016 74.1078 1.39703 76.185C17.4957 78.2623 20.0057 91.7643 19.2483 98.2557C23.7923 98.9049 33.6592 101.826 36.775 108.317C39.8909 114.809 38.0733 121.841 36.775 124.546C40.3453 124.87 47.8753 127.467 49.4332 135.257C50.9912 143.046 48.7841 148.672 47.4858 150.511C54.3018 153.108 59.1703 157.327 59.4949 169.012C59.7545 178.359 52.8953 182.86 49.4332 183.942C53.0035 189.46 58.1966 194.328 53.9772 205.688C50.6017 214.776 39.588 217.048 34.5031 217.048C35.8014 221.592 36.4505 234.25 23.1432 238.794Z" fill="#70AE3E"/>
<path d="M23.0073 132.336C28.2004 135.798 35.7953 145.449 24.6302 156.354" stroke="#237C1D" stroke-width="11.627" stroke-linecap="round"/>
<path d="M15.2173 111.545C17.1818 112.897 19.5403 117.8 17.4172 121.72" stroke="#237C1D" stroke-width="7.4745" stroke-linecap="round"/>
<path d="M21.356 194.977C21.9605 197.264 20.5738 202.518 16.4542 204.159" stroke="#237C1D" stroke-width="7.4745" stroke-linecap="round"/>
</g>
<mask id="mask1_489_4292" style="mask-type:alpha" maskUnits="userSpaceOnUse" x="0" y="257" width="905" height="155">
<rect y="257" width="905" height="155" fill="#D9D9D9"/>
</mask>
<g mask="url(#mask1_489_4292)">
<mask id="mask2_489_4292" style="mask-type:alpha" maskUnits="userSpaceOnUse" x="0" y="251" width="4480" height="131">
<rect y="251" width="4480" height="131" fill="#D9D9D9"/>
</mask>
<g mask="url(#mask2_489_4292)">
<path d="M-170.398 301.447L274.507 270.204C418.768 260.073 563.731 268.153 705.973 294.253V294.253C863.951 323.24 1025.21 329.985 1185.06 314.293L1337.94 299.285C1462.19 287.087 1587.32 286.55 1711.67 297.683L1988.76 322.489C2103.66 332.775 2219.24 333.101 2334.2 323.462L2687.24 293.861C2789.76 285.265 2892.8 284.592 2995.43 291.85L3684.82 340.602C3782.22 347.489 3880 347.235 3977.36 339.841L4482.89 301.447L4482.89 381.447L-170.398 381.447L-170.398 301.447Z" fill="#5B9B40"/>
<path d="M351.019 257.502C353.25 261.414 352.579 267.73 351.965 270.399L399.823 270.399C399.026 267.791 400.885 263.016 401.914 260.954C399.404 260.954 397.316 263.991 396.586 265.509L394.992 259.803L393.299 263.208C393.1 261.366 391.29 260.171 390.411 259.803C390.411 261.645 389.282 264.374 388.717 265.509L386.427 256.447C386.227 258.327 384.816 261.737 384.136 263.208C383.379 262.479 382.36 259.644 381.945 258.317C381.825 258.969 380.434 262.456 379.753 264.118C379.236 263.198 378.907 260.858 378.807 259.803C378.13 260.264 376.268 264.502 375.421 266.564C375.421 265.72 372.831 260.171 371.537 257.502C372.214 262.834 370.458 265.765 369.495 266.564C369.495 265.835 368.366 262.52 367.802 260.954C367.602 262.91 366.191 265.509 365.511 266.564C363.758 263.495 363.585 259.244 363.718 257.502C361.806 259.573 360.73 262.776 360.431 264.118C359.834 263.658 359.385 261.817 359.236 260.954L357.294 266.564C357.214 262.114 353.077 258.669 351.019 257.502Z" fill="#5B9B40"/>
<path d="M166.134 265.502C168.365 269.414 167.695 275.73 167.08 278.399L214.938 278.399C214.141 275.791 216 271.016 217.03 268.954C214.52 268.954 212.431 271.991 211.701 273.509L210.107 267.803L208.414 271.208C208.215 269.366 206.406 268.171 205.526 267.803C205.526 269.645 204.397 272.374 203.833 273.509L201.542 264.447C201.343 266.327 199.932 269.737 199.251 271.208C198.494 270.479 197.475 267.644 197.06 266.317C196.94 266.969 195.549 270.456 194.869 272.118C194.351 271.198 194.022 268.858 193.923 267.803C193.245 268.264 191.383 272.502 190.536 274.564C190.536 273.72 187.947 268.171 186.652 265.502C187.329 270.834 185.573 273.765 184.61 274.564C184.61 273.835 183.481 270.52 182.917 268.954C182.718 270.91 181.307 273.509 180.626 274.564C178.873 271.495 178.7 267.244 178.833 265.502C176.921 267.573 175.845 270.776 175.546 272.118C174.949 271.658 174.501 269.817 174.351 268.954L172.409 274.564C172.329 270.114 168.193 266.669 166.134 265.502Z" fill="#5B9B40"/>
<path d="M256.374 262.403C258.842 266.181 258.561 272.524 258.113 275.223L305.886 272.494C304.93 269.935 306.492 265.062 307.393 262.946C304.887 263.089 302.99 266.239 302.354 267.796L300.412 262.192L298.931 265.687C298.619 263.86 296.739 262.77 295.838 262.453C295.952 264.291 294.993 267.08 294.499 268.245L291.655 259.33C291.572 261.218 290.373 264.703 289.784 266.209C288.984 265.525 287.792 262.753 287.296 261.452C287.217 262.11 286.043 265.671 285.466 267.369C284.892 266.479 284.42 264.162 284.256 263.115C283.608 263.613 282.009 267.95 281.291 270.057C281.239 269.214 278.313 263.823 276.856 261.232C277.86 266.516 276.287 269.542 275.375 270.395C275.33 269.667 274 266.423 273.34 264.891C273.261 266.855 272.013 269.53 271.398 270.622C269.46 267.659 269.026 263.425 269.051 261.678C267.27 263.855 266.393 267.113 266.177 268.471C265.552 268.045 264.992 266.233 264.789 265.38L263.196 271.09C262.842 266.653 258.501 263.45 256.374 262.403Z" fill="#5B9B40"/>
<path d="M73.4477 274.403C75.9156 278.181 75.6347 284.524 75.1858 287.223L122.959 284.494C122.003 281.935 123.566 277.062 124.466 274.946C121.961 275.089 120.063 278.239 119.427 279.796L117.485 274.192L116.005 277.687C115.692 275.86 113.813 274.77 112.912 274.453C113.025 276.291 112.066 279.08 111.573 280.245L108.728 271.33C108.645 273.218 107.446 276.703 106.857 278.209C106.057 277.525 104.865 274.753 104.369 273.452C104.29 274.11 103.116 277.671 102.539 279.369C101.965 278.479 101.493 276.162 101.329 275.115C100.681 275.613 99.0826 279.95 98.3643 282.057C98.3124 281.214 95.3859 275.823 93.9292 273.232C94.9333 278.516 93.3605 281.542 92.4485 282.395C92.4037 281.667 91.0729 278.423 90.4132 276.891C90.3347 278.855 89.0861 281.53 88.4716 282.622C86.5329 279.659 86.099 275.425 86.1243 273.678C84.3428 275.855 83.4661 279.113 83.2505 280.471C82.6256 280.045 82.0649 278.233 81.8627 277.38L80.269 283.09C79.9157 278.653 75.5743 275.45 73.4477 274.403Z" fill="#5B9B40"/>
<path d="M304.339 259.28C306.869 263.197 306.544 269.751 306.066 272.538L355.451 269.957C354.477 267.309 356.118 262.281 357.06 260.098C354.47 260.233 352.492 263.479 351.826 265.085L349.85 259.284L348.301 262.888C347.988 260.999 346.051 259.863 345.122 259.531C345.229 261.431 344.223 264.308 343.707 265.51L340.816 256.282C340.719 258.232 339.462 261.828 338.845 263.382C338.021 262.671 336.805 259.8 336.299 258.453C336.214 259.133 334.981 262.806 334.376 264.558C333.788 263.636 333.312 261.239 333.148 260.156C332.476 260.668 330.801 265.142 330.047 267.315C329.998 266.444 327.003 260.858 325.512 258.174C326.521 263.639 324.879 266.758 323.932 267.635C323.889 266.883 322.532 263.523 321.858 261.937C321.766 263.967 320.462 266.724 319.821 267.849C317.833 264.777 317.408 260.4 317.443 258.595C315.591 260.836 314.667 264.199 314.437 265.6C313.793 265.157 313.224 263.282 313.019 262.399L311.341 268.292C311 263.705 306.531 260.373 304.339 259.28Z" fill="#5B9B40"/>
<path d="M119.483 270.526C122.112 274.382 121.956 280.941 121.549 283.739L170.853 279.985C169.811 277.36 171.323 272.295 172.208 270.09C169.623 270.287 167.728 273.579 167.104 275.201L164.98 269.448L163.523 273.088C163.162 271.206 161.197 270.117 160.26 269.807C160.415 271.704 159.484 274.605 158.998 275.818L155.871 266.662C155.825 268.614 154.66 272.238 154.083 273.806C153.242 273.115 151.952 270.274 151.412 268.94C151.344 269.621 150.206 273.323 149.646 275.089C149.034 274.181 148.498 271.796 148.306 270.717C147.647 271.245 146.087 275.757 145.389 277.948C145.318 277.078 142.18 271.565 140.62 268.917C141.769 274.356 140.208 277.514 139.284 278.412C139.222 277.662 137.779 274.335 137.065 272.766C137.025 274.797 135.791 277.585 135.179 278.725C133.114 275.701 132.576 271.335 132.566 269.53C130.771 271.814 129.934 275.198 129.739 276.604C129.085 276.177 128.467 274.315 128.24 273.438L126.714 279.369C126.255 274.792 121.702 271.567 119.483 270.526Z" fill="#5B9B40"/>
<path d="M209.887 266.839C212.653 270.605 212.733 277.165 212.426 279.975L261.566 274.583C260.431 271.994 261.759 266.881 262.565 264.649C259.988 264.931 258.213 268.285 257.648 269.926L255.318 264.247L253.993 267.933C253.565 266.065 251.562 265.042 250.614 264.763C250.837 266.654 250.01 269.584 249.569 270.812L246.115 261.766C246.139 263.718 245.105 267.379 244.585 268.966C243.719 268.303 242.328 265.506 241.74 264.191C241.697 264.874 240.692 268.612 240.196 270.395C239.552 269.508 238.93 267.143 238.699 266.071C238.06 266.62 236.663 271.181 236.044 273.394C235.942 272.527 232.608 267.122 230.954 264.527C232.298 269.925 230.851 273.133 229.959 274.061C229.871 273.313 228.309 270.037 227.539 268.492C227.572 270.523 226.439 273.351 225.869 274.51C223.696 271.557 223.002 267.212 222.926 265.408C221.214 267.75 220.499 271.16 220.356 272.572C219.686 272.167 219.002 270.327 218.744 269.458L217.431 275.436C216.809 270.877 212.142 267.805 209.887 266.839Z" fill="#5B9B40"/>
<path d="M27.0508 278.197C29.719 282.028 29.6284 288.589 29.2496 291.39L78.5135 287.178C77.4456 284.563 78.906 279.484 79.7697 277.271C77.186 277.492 75.3247 280.801 74.717 282.429L72.5348 276.696L71.1151 280.349C70.7352 278.471 68.7591 277.4 67.8186 277.099C67.9934 278.994 67.0907 281.903 66.6174 283.121L63.3988 273.995C63.3722 275.947 62.2436 279.582 61.6827 281.155C60.8343 280.472 59.5159 277.643 58.9627 276.314C58.9016 276.996 57.8008 280.708 57.258 282.479C56.6375 281.577 56.0769 279.197 55.8743 278.12C55.2208 278.654 53.706 283.18 53.0303 285.377C52.9502 284.509 49.7576 279.025 48.1713 276.391C49.3747 281.82 47.8452 284.992 46.93 285.899C46.8608 285.149 45.3841 281.836 44.6544 280.273C44.6351 282.305 43.4294 285.104 42.8289 286.25C40.7331 283.245 40.1517 278.884 40.123 277.079C38.3511 279.38 37.548 282.771 37.3679 284.18C36.709 283.758 36.0728 281.903 35.8371 281.027L34.3705 286.973C33.866 282.4 29.2805 279.217 27.0508 278.197Z" fill="#5B9B40"/>
<path d="M-18.6758 281.863C-16.171 285.618 -16.3896 291.964 -16.812 294.667L30.9326 291.504C29.9517 288.954 31.4659 284.067 32.3456 281.942C29.8417 282.108 27.9749 285.276 27.3545 286.839L25.3578 281.252L23.9113 284.76C23.5813 282.936 21.6909 281.863 20.787 281.555C20.9183 283.392 19.9868 286.189 19.5047 287.359L16.5731 278.47C16.5084 280.358 15.3439 283.854 14.7698 285.366C13.9627 284.689 12.7436 281.928 12.235 280.632C12.1623 281.29 11.0232 284.861 10.4627 286.564C9.88039 285.68 9.38563 283.368 9.21104 282.322C8.56819 282.826 7.01234 287.177 6.31477 289.29C6.25459 288.448 3.27539 283.084 1.79331 280.507C2.84922 285.781 1.30612 288.821 0.402588 289.682C0.350615 288.955 -1.0119 285.723 -1.68666 284.197C-1.74588 286.162 -2.96822 288.848 -3.57199 289.945C-5.53964 287 -6.01504 282.77 -6.00679 281.023C-7.76687 283.216 -8.6116 286.482 -8.81396 287.841C-9.44297 287.422 -10.0214 285.615 -10.232 284.764L-11.7696 290.488C-12.1664 286.055 -16.539 282.891 -18.6758 281.863Z" fill="#5B9B40"/>
<path d="M766.042 295.492C767.763 299.637 766.3 305.827 765.353 308.405L812.856 314.004C812.394 311.322 814.843 306.8 816.124 304.874C813.633 304.58 811.177 307.35 810.26 308.771L809.399 302.922L807.289 306.102C807.323 304.252 805.678 302.853 804.851 302.386C804.619 304.213 803.154 306.79 802.45 307.851L801.32 298.588C800.885 300.43 799.054 303.65 798.193 305.03C797.534 304.218 796.88 301.285 796.636 299.92C796.435 300.553 794.614 303.852 793.728 305.422C793.331 304.447 793.3 302.087 793.334 301.028C792.604 301.406 790.22 305.395 789.119 307.342C789.226 306.504 787.356 300.694 786.408 297.893C786.407 303.264 784.294 305.968 783.237 306.648C783.329 305.925 782.627 302.503 782.265 300.882C781.82 302.801 780.091 305.215 779.283 306.182C777.93 302.931 778.295 298.692 778.647 296.978C776.487 298.81 775.015 301.863 774.549 303.161C774.014 302.634 773.802 300.754 773.762 299.88L771.127 305.221C771.609 300.795 767.938 296.891 766.042 295.492Z" fill="#5B9B40"/>
<path d="M856.006 302.977C857.978 307.016 856.899 313.279 856.113 315.906L903.877 318.786C903.251 316.135 905.416 311.481 906.577 309.485C904.072 309.334 901.791 312.239 900.963 313.71L899.743 307.92L897.833 311.216C897.753 309.366 896.025 308.064 895.171 307.644C895.051 309.482 893.747 312.138 893.11 313.237L891.413 304.055C891.092 305.919 889.462 309.238 888.687 310.664C887.979 309.891 887.146 307 886.818 305.651C886.656 306.295 885.042 309.692 884.254 311.309C883.797 310.36 883.621 308.005 883.59 306.946C882.884 307.365 880.75 311.482 879.771 313.489C879.826 312.647 877.602 306.953 876.483 304.211C876.813 309.573 874.87 312.393 873.857 313.132C873.904 312.405 872.993 309.029 872.531 307.432C872.205 309.372 870.628 311.881 869.881 312.893C868.33 309.725 868.434 305.471 868.68 303.741C866.637 305.693 865.355 308.825 864.97 310.147C864.403 309.651 864.076 307.787 863.982 306.916L861.68 312.398C861.889 307.953 857.984 304.265 856.006 302.977Z" fill="#5B9B40"/>
<path d="M673.351 281.483C674.812 285.718 672.968 291.814 671.864 294.333L718.936 302.647C718.641 299.943 721.365 295.569 722.764 293.72C720.295 293.284 717.672 295.908 716.669 297.274L716.171 291.385L713.867 294.44C714.016 292.594 712.461 291.104 711.664 290.59C711.319 292.4 709.697 294.889 708.93 295.907L708.375 286.596C707.827 288.41 705.8 291.52 704.855 292.848C704.247 291.999 703.775 289.034 703.616 287.657C703.376 288.278 701.354 291.466 700.373 292.982C700.036 291.987 700.152 289.629 700.251 288.574C699.499 288.909 696.873 292.754 695.654 294.635C695.812 293.805 694.305 287.897 693.531 285.047C693.198 290.409 690.922 292.987 689.825 293.605C689.961 292.889 689.472 289.432 689.211 287.794C688.648 289.683 686.773 291.994 685.906 292.913C684.757 289.591 685.384 285.379 685.841 283.689C683.572 285.394 681.914 288.357 681.368 289.626C680.867 289.069 680.771 287.18 680.786 286.306L677.824 291.486C678.58 287.096 675.157 282.988 673.351 281.483Z" fill="#5B9B40"/>
<path d="M900.503 310.5C902.888 314.5 902.324 321.039 901.744 323.808L951.193 322.902C950.316 320.223 952.14 315.253 953.161 313.104C950.568 313.151 948.472 316.328 947.748 317.911L945.985 312.046L944.305 315.595C944.062 313.696 942.168 312.496 941.251 312.132C941.289 314.035 940.178 316.877 939.618 318.06L937.066 308.74C936.899 310.686 935.511 314.236 934.838 315.768C934.04 315.03 932.929 312.12 932.474 310.757C932.363 311.433 930.997 315.062 930.328 316.793C929.774 315.851 929.387 313.44 929.262 312.352C928.572 312.84 926.734 317.255 925.901 319.401C925.884 318.529 923.095 312.845 921.703 310.112C922.511 315.608 920.757 318.669 919.778 319.513C919.763 318.76 918.529 315.357 917.914 313.749C917.748 315.774 916.343 318.486 915.662 319.589C913.788 316.451 913.523 312.062 913.624 310.26C911.691 312.436 910.645 315.766 910.363 317.158C909.736 316.694 909.236 314.8 909.064 313.911L907.171 319.744C906.998 315.148 902.654 311.667 900.503 310.5Z" fill="#5B9B40"/>
<path d="M719.018 288.285C720.617 292.633 718.841 298.967 717.753 301.591L766.565 309.261C766.203 306.473 768.925 301.901 770.331 299.963C767.771 299.561 765.116 302.323 764.109 303.754L763.47 297.68L761.154 300.88C761.27 298.971 759.631 297.461 758.797 296.945C758.479 298.823 756.855 301.426 756.084 302.493L755.314 292.884C754.786 294.769 752.757 298.021 751.809 299.412C751.162 298.547 750.613 295.492 750.419 294.073C750.185 294.719 748.163 298.052 747.181 299.639C746.812 298.617 746.882 296.178 746.962 295.086C746.192 295.447 743.559 299.471 742.339 301.438C742.485 300.577 740.804 294.503 739.944 291.573C739.713 297.12 737.415 299.828 736.295 300.488C736.421 299.745 735.843 296.183 735.538 294.495C734.997 296.459 733.108 298.883 732.232 299.85C730.974 296.439 731.533 292.076 731.97 290.32C729.661 292.126 728.01 295.22 727.474 296.542C726.944 295.976 726.805 294.027 726.802 293.123L723.851 298.533C724.539 293.982 720.916 289.805 719.018 288.285Z" fill="#5B9B40"/>
<path d="M809.302 301.94C811.573 306.001 810.823 312.523 810.164 315.276L859.621 315.672C858.821 312.971 860.785 308.051 861.867 305.929C859.273 305.908 857.088 309.029 856.319 310.592L854.724 304.683L852.943 308.186C852.754 306.282 850.895 305.032 849.989 304.645C849.972 306.547 848.781 309.359 848.188 310.527L845.902 301.143C845.679 303.084 844.191 306.597 843.474 308.11C842.698 307.351 841.67 304.413 841.253 303.038C841.124 303.711 839.655 307.303 838.937 309.015C838.41 308.06 838.091 305.639 837.998 304.548C837.294 305.018 835.331 309.383 834.438 311.506C834.446 310.634 831.819 304.879 830.505 302.11C831.157 307.625 829.316 310.639 828.314 311.457C828.32 310.704 827.184 307.269 826.614 305.646C826.391 307.666 824.91 310.34 824.197 311.424C822.413 308.239 822.272 303.844 822.425 302.045C820.43 304.17 819.29 307.47 818.969 308.855C818.356 308.375 817.909 306.468 817.763 305.575L815.705 311.356C815.663 306.757 811.419 303.162 809.302 301.94Z" fill="#5B9B40"/>
<path d="M628.665 271.786C630.616 275.998 629.365 282.448 628.496 285.146L677.785 289.079C677.195 286.327 679.534 281.562 680.776 279.523C678.191 279.317 675.771 282.273 674.885 283.776L673.749 277.769L671.703 281.136C671.662 279.223 669.904 277.844 669.03 277.393C668.867 279.289 667.463 282.007 666.781 283.13L665.225 273.609C664.853 275.528 663.098 278.925 662.266 280.383C661.551 279.57 660.753 276.567 660.443 275.166C660.262 275.828 658.52 279.305 657.672 280.961C657.22 279.97 657.089 277.534 657.08 276.439C656.342 276.858 654.048 281.07 652.993 283.123C653.068 282.254 650.893 276.327 649.796 273.472C650.021 279.018 647.952 281.893 646.89 282.636C646.954 281.886 646.086 278.379 645.643 276.72C645.265 278.718 643.581 281.279 642.787 282.309C641.253 279.005 641.452 274.612 641.744 272.829C639.59 274.805 638.199 278.015 637.772 279.373C637.197 278.85 636.899 276.917 636.821 276.016L634.324 281.634C634.636 277.045 630.681 273.156 628.665 271.786Z" fill="#5B9B40"/>
<path d="M582.959 267.897C584.762 272.009 583.423 278.225 582.529 280.82L630.135 285.536C629.619 282.863 631.977 278.296 633.22 276.347C630.723 276.1 628.323 278.914 627.435 280.353L626.456 274.52L624.41 277.739C624.407 275.888 622.735 274.521 621.899 274.069C621.703 275.9 620.29 278.504 619.608 279.577L618.292 270.337C617.894 272.187 616.128 275.441 615.295 276.836C614.619 276.037 613.907 273.116 613.635 271.756C613.447 272.393 611.692 275.724 610.839 277.311C610.421 276.344 610.343 273.984 610.356 272.925C609.634 273.316 607.33 277.349 606.269 279.316C606.359 278.477 604.373 272.702 603.368 269.919C603.475 275.289 601.416 278.032 600.374 278.732C600.451 278.007 599.681 274.598 599.286 272.985C598.88 274.911 597.2 277.357 596.411 278.339C594.993 275.114 595.274 270.868 595.591 269.148C593.468 271.02 592.058 274.1 591.618 275.406C591.072 274.889 590.822 273.014 590.765 272.141L588.237 277.529C588.631 273.096 584.882 269.26 582.959 267.897Z" fill="#5B9B40"/>
<path d="M536.283 263.872C538.282 268.065 537.104 274.527 536.265 277.234L585.595 280.653C584.975 277.908 587.259 273.118 588.479 271.067C585.892 270.887 583.505 273.868 582.635 275.381L581.432 269.386L579.425 272.774C579.361 270.862 577.588 269.5 576.71 269.059C576.568 270.956 575.194 273.689 574.525 274.819L572.862 265.315C572.512 267.238 570.794 270.652 569.98 272.119C569.256 271.314 568.423 268.319 568.098 266.922C567.924 267.585 566.222 271.081 565.392 272.745C564.929 271.759 564.771 269.324 564.749 268.23C564.016 268.656 561.769 272.892 560.738 274.956C560.803 274.086 558.561 268.182 557.432 265.338C557.72 270.882 555.683 273.778 554.629 274.533C554.685 273.782 553.777 270.284 553.316 268.63C552.96 270.632 551.306 273.21 550.523 274.248C548.952 270.96 549.102 266.566 549.373 264.78C547.242 266.778 545.887 270.002 545.475 271.365C544.895 270.848 544.575 268.918 544.487 268.018L542.053 273.661C542.314 269.069 538.315 265.222 536.283 263.872Z" fill="#5B9B40"/>
<path d="M398.334 257.476C400.409 261.467 399.491 267.754 398.772 270.398L446.595 272.142C445.902 269.507 447.947 264.803 449.057 262.78C446.549 262.689 444.342 265.647 443.553 267.137L442.185 261.378L440.359 264.718C440.232 262.871 438.471 261.61 437.606 261.211C437.534 263.051 436.299 265.737 435.69 266.851L433.757 257.712C433.484 259.583 431.94 262.94 431.202 264.384C430.475 263.628 429.568 260.758 429.205 259.417C429.06 260.065 427.533 263.499 426.787 265.135C426.306 264.196 426.069 261.846 426.011 260.788C425.317 261.223 423.289 265.391 422.362 267.42C422.395 266.577 420.025 260.938 418.836 258.224C419.304 263.576 417.433 266.441 416.44 267.204C416.468 266.476 415.471 263.123 414.968 261.537C414.692 263.485 413.18 266.03 412.459 267.059C410.828 263.929 410.822 259.675 411.023 257.939C409.031 259.939 407.83 263.1 407.479 264.431C406.9 263.949 406.524 262.093 406.409 261.225L404.248 266.76C404.343 262.311 400.345 258.717 398.334 257.476Z" fill="#5B9B40"/>
<path d="M492.738 258.493C494.501 262.621 493.102 268.826 492.182 271.412L539.739 276.561C539.25 273.883 541.652 269.338 542.914 267.4C540.42 267.13 537.992 269.923 537.09 271.353L536.169 265.512L534.091 268.712C534.107 266.861 532.448 265.479 531.616 265.019C531.402 266.848 529.964 269.439 529.271 270.506L528.047 261.255C527.631 263.101 525.832 266.339 524.985 267.726C524.318 266.921 523.634 263.994 523.376 262.631C523.181 263.266 521.394 266.582 520.525 268.16C520.117 267.19 520.062 264.829 520.085 263.77C519.359 264.155 517.016 268.166 515.936 270.124C516.033 269.285 514.104 263.493 513.127 260.701C513.182 266.072 511.096 268.796 510.047 269.486C510.131 268.762 509.394 265.347 509.015 263.73C508.59 265.652 506.886 268.083 506.087 269.058C504.702 265.82 505.024 261.577 505.358 259.86C503.217 261.712 501.776 264.779 501.324 266.081C500.783 265.559 500.551 263.682 500.503 262.808L497.922 268.174C498.359 263.743 494.648 259.874 492.738 258.493Z" fill="#5B9B40"/>
<path d="M443.003 259.407C445.619 263.271 445.44 269.83 445.024 272.627L494.34 269.028C493.308 266.401 494.836 261.34 495.729 259.138C493.143 259.327 491.237 262.613 490.608 264.232L488.503 258.473L487.034 262.108C486.68 260.226 484.718 259.13 483.782 258.817C483.931 260.714 482.989 263.612 482.5 264.824L479.404 255.658C479.351 257.61 478.174 261.231 477.592 262.797C476.753 262.103 475.472 259.258 474.937 257.922C474.867 258.603 473.716 262.301 473.15 264.065C472.541 263.155 472.013 260.769 471.825 259.69C471.164 260.215 469.588 264.722 468.883 266.911C468.815 266.041 465.696 260.518 464.146 257.865C465.276 263.308 463.704 266.46 462.776 267.356C462.717 266.605 461.285 263.274 460.577 261.703C460.53 263.734 459.287 266.517 458.671 267.656C456.616 264.625 456.093 260.258 456.089 258.453C454.286 260.731 453.437 264.112 453.238 265.518C452.585 265.088 451.974 263.225 451.75 262.347L450.204 268.273C449.761 263.694 445.218 260.455 443.003 259.407Z" fill="#5B9B40"/>
<path d="M-897.549 301L-462.437 269.766C-321.252 259.631 -179.35 267.71 -40.2278 293.804V293.804C114.289 322.786 272.155 329.53 428.58 313.833L569.843 299.657C696.818 286.915 824.721 286.355 951.803 297.984L1207.14 321.35C1324.56 332.096 1442.71 332.436 1560.19 322.366L1891.25 293.992C1996.03 285.011 2101.35 284.309 2206.24 291.891L2867.48 339.691C2967.03 346.887 3066.98 346.621 3166.49 338.896L3654.62 301L4556 340L4556 381L3654.62 381L-897.549 381L-897.549 301Z" fill="#70AE3E"/>
<path d="M780.049 281.055C782.231 284.967 781.575 291.283 780.974 293.952L827.792 293.952C827.013 291.344 828.831 286.568 829.838 284.507C827.383 284.507 825.34 287.543 824.625 289.062L823.066 283.356L821.41 286.76C821.215 284.919 819.445 283.724 818.584 283.356C818.584 285.197 817.48 287.927 816.928 289.062L814.687 280C814.492 281.879 813.112 285.29 812.446 286.76C811.706 286.032 810.708 283.196 810.302 281.87C810.186 282.522 808.825 286.009 808.159 287.671C807.652 286.751 807.331 284.411 807.233 283.356C806.571 283.816 804.749 288.055 803.92 290.116C803.92 289.273 801.387 283.724 800.12 281.055C800.783 286.386 799.065 289.317 798.123 290.116C798.123 289.388 797.019 286.073 796.467 284.507C796.272 286.463 794.891 289.062 794.226 290.116C792.511 287.048 792.342 282.797 792.472 281.055C790.601 283.126 789.549 286.329 789.256 287.671C788.672 287.211 788.233 285.37 788.087 284.507L786.187 290.116C786.109 285.667 782.062 282.221 780.049 281.055Z" fill="#70AE3E"/>
<path d="M599.181 286.055C601.364 289.967 600.708 296.283 600.107 298.952L646.924 298.952C646.145 296.344 647.964 291.568 648.971 289.507C646.515 289.507 644.472 292.543 643.758 294.062L642.199 288.356L640.542 291.76C640.348 289.919 638.577 288.724 637.717 288.356C637.717 290.197 636.613 292.927 636.06 294.062L633.819 285C633.624 286.879 632.244 290.29 631.578 291.76C630.838 291.032 629.841 288.196 629.435 286.87C629.318 287.522 627.957 291.009 627.291 292.671C626.785 291.751 626.463 289.411 626.366 288.356C625.703 288.816 623.881 293.055 623.053 295.116C623.053 294.273 620.519 288.724 619.253 286.055C619.915 291.386 618.197 294.317 617.255 295.116C617.255 294.388 616.151 291.073 615.599 289.507C615.404 291.463 614.024 294.062 613.358 295.116C611.643 292.048 611.474 287.797 611.604 286.055C609.733 288.126 608.681 291.329 608.389 292.671C607.804 292.211 607.366 290.37 607.22 289.507L605.32 295.116C605.242 290.667 601.195 287.221 599.181 286.055Z" fill="#70AE3E"/>
<path d="M687.46 281.955C689.875 285.733 689.6 292.077 689.161 294.776L735.896 292.046C734.961 289.488 736.489 284.615 737.37 282.498C734.919 282.642 733.063 285.792 732.441 287.349L730.541 281.745L729.093 285.239C728.787 283.413 726.948 282.323 726.067 282.006C726.178 283.844 725.24 286.633 724.757 287.798L721.974 278.883C721.893 280.77 720.72 284.255 720.144 285.762C719.361 285.078 718.195 282.306 717.71 281.005C717.633 281.663 716.484 285.223 715.919 286.921C715.358 286.032 714.896 283.715 714.736 282.668C714.102 283.166 712.538 287.503 711.836 289.609C711.785 288.767 708.922 283.375 707.497 280.785C708.479 286.069 706.941 289.095 706.048 289.947C706.005 289.22 704.703 285.975 704.057 284.444C703.98 286.408 702.759 289.083 702.158 290.174C700.261 287.211 699.837 282.978 699.862 281.231C698.119 283.408 697.261 286.666 697.05 288.023C696.439 287.598 695.89 285.786 695.693 284.933L694.134 290.643C693.788 286.206 689.541 283.003 687.46 281.955Z" fill="#70AE3E"/>
<path d="M508.509 294.955C510.923 298.733 510.648 305.077 510.209 307.776L556.945 305.046C556.009 302.488 557.538 297.615 558.419 295.498C555.967 295.642 554.111 298.792 553.489 300.349L551.589 294.745L550.141 298.239C549.835 296.413 547.997 295.323 547.115 295.006C547.226 296.844 546.288 299.633 545.805 300.798L543.023 291.883C542.941 293.77 541.769 297.255 541.193 298.762C540.409 298.078 539.243 295.306 538.758 294.005C538.681 294.663 537.532 298.223 536.968 299.921C536.407 299.032 535.945 296.715 535.784 295.668C535.15 296.166 533.587 300.503 532.884 302.609C532.833 301.767 529.97 296.375 528.545 293.785C529.528 299.069 527.989 302.095 527.097 302.947C527.053 302.22 525.751 298.975 525.106 297.444C525.029 299.408 523.807 302.083 523.206 303.174C521.31 300.211 520.885 295.978 520.91 294.231C519.167 296.408 518.31 299.666 518.099 301.023C517.487 300.598 516.939 298.786 516.741 297.933L515.182 303.643C514.836 299.206 510.589 296.003 508.509 294.955Z" fill="#70AE3E"/>
<path d="M734.384 282.833C736.859 286.75 736.541 293.303 736.073 296.091L784.385 293.51C783.432 290.862 785.037 285.834 785.959 283.651C783.425 283.786 781.49 287.032 780.839 288.638L778.906 282.836L777.39 286.441C777.084 284.551 775.189 283.415 774.28 283.083C774.385 284.983 773.401 287.861 772.896 289.062L770.068 279.835C769.973 281.785 768.743 285.381 768.14 286.935C767.334 286.223 766.144 283.353 765.649 282.006C765.566 282.686 764.36 286.359 763.768 288.111C763.192 287.189 762.727 284.792 762.567 283.709C761.909 284.221 760.27 288.695 759.533 290.868C759.485 289.997 756.555 284.411 755.096 281.726C756.083 287.191 754.477 290.311 753.551 291.187C753.509 290.435 752.181 287.076 751.522 285.49C751.432 287.519 750.156 290.277 749.529 291.402C747.585 288.33 747.168 283.953 747.203 282.148C745.391 284.388 744.487 287.751 744.262 289.153C743.632 288.71 743.075 286.834 742.875 285.952L741.234 291.845C740.9 287.258 736.528 283.926 734.384 282.833Z" fill="#70AE3E"/>
<path d="M553.543 291.079C556.115 294.934 555.962 301.494 555.564 304.292L603.797 300.538C602.778 297.913 604.256 292.848 605.123 290.643C602.593 290.84 600.74 294.132 600.13 295.753L598.051 290.001L596.627 293.64C596.273 291.759 594.351 290.67 593.434 290.36C593.586 292.257 592.674 295.157 592.2 296.371L589.141 287.215C589.095 289.167 587.956 292.791 587.392 294.359C586.568 293.668 585.306 290.827 584.778 289.493C584.712 290.174 583.599 293.876 583.05 295.641C582.452 294.734 581.927 292.349 581.739 291.27C581.095 291.797 579.569 296.31 578.886 298.5C578.816 297.631 575.747 292.118 574.221 289.469C575.345 294.909 573.818 298.066 572.914 298.965C572.853 298.214 571.441 294.888 570.743 293.319C570.704 295.35 569.497 298.138 568.898 299.278C566.878 296.254 566.352 291.888 566.341 290.083C564.586 292.367 563.767 295.75 563.577 297.157C562.936 296.73 562.332 294.868 562.11 293.991L560.617 299.922C560.168 295.345 555.714 292.119 553.543 291.079Z" fill="#70AE3E"/>
<path d="M641.983 285.392C644.689 289.157 644.767 295.718 644.467 298.528L692.539 293.135C691.428 290.547 692.728 285.434 693.517 283.201C690.996 283.484 689.259 286.837 688.706 288.479L686.427 282.8L685.131 286.486C684.712 284.618 682.752 283.594 681.825 283.316C682.044 285.206 681.234 288.136 680.802 289.365L677.424 280.319C677.447 282.271 676.435 285.932 675.927 287.518C675.08 286.855 673.719 284.059 673.144 282.744C673.101 283.427 672.119 287.164 671.633 288.948C671.003 288.061 670.395 285.695 670.169 284.624C669.544 285.172 668.177 289.734 667.572 291.946C667.471 291.08 664.21 285.674 662.592 283.08C663.907 288.478 662.491 291.685 661.619 292.614C661.532 291.866 660.004 288.59 659.251 287.045C659.284 289.076 658.175 291.903 657.617 293.063C655.491 290.11 654.812 285.764 654.739 283.961C653.064 286.303 652.364 289.713 652.224 291.125C651.569 290.72 650.9 288.88 650.647 288.01L649.363 293.989C648.754 289.429 644.189 286.358 641.983 285.392Z" fill="#70AE3E"/>
<path d="M463.12 301.75C465.731 305.581 465.642 312.141 465.271 314.943L513.465 310.73C512.42 308.116 513.849 303.036 514.694 300.824C512.166 301.045 510.345 304.354 509.751 305.981L507.616 300.248L506.227 303.902C505.856 302.024 503.922 300.953 503.002 300.652C503.173 302.547 502.29 305.456 501.827 306.674L498.679 297.548C498.653 299.5 497.549 303.135 497 304.708C496.17 304.025 494.88 301.196 494.339 299.867C494.279 300.549 493.202 304.261 492.671 306.032C492.064 305.13 491.516 302.75 491.318 301.673C490.678 302.206 489.196 306.733 488.535 308.93C488.457 308.061 485.334 302.577 483.782 299.944C484.959 305.372 483.463 308.544 482.568 309.452C482.5 308.701 481.055 305.389 480.341 303.826C480.323 305.857 479.143 308.657 478.556 309.802C476.505 306.798 475.937 302.437 475.909 300.632C474.175 302.933 473.389 306.324 473.213 307.732C472.569 307.311 471.946 305.455 471.716 304.58L470.281 310.525C469.787 305.952 465.302 302.77 463.12 301.75Z" fill="#70AE3E"/>
<path d="M418.387 305.416C420.837 309.171 420.623 315.517 420.21 318.22L466.917 315.056C465.957 312.507 467.439 307.62 468.299 305.495C465.85 305.661 464.024 308.828 463.417 310.391L461.463 304.805L460.048 308.313C459.725 306.489 457.876 305.416 456.992 305.108C457.12 306.944 456.209 309.742 455.737 310.912L452.869 302.023C452.806 303.911 451.667 307.407 451.105 308.918C450.316 308.241 449.123 305.48 448.626 304.184C448.555 304.843 447.44 308.414 446.892 310.117C446.322 309.233 445.838 306.92 445.667 305.875C445.039 306.379 443.516 310.73 442.834 312.843C442.775 312.001 439.861 306.636 438.411 304.059C439.444 309.333 437.934 312.374 437.05 313.235C437 312.507 435.667 309.275 435.007 307.75C434.949 309.715 433.753 312.401 433.162 313.498C431.237 310.553 430.772 306.323 430.78 304.576C429.058 306.769 428.232 310.035 428.034 311.394C427.419 310.975 426.853 309.167 426.647 308.316L425.143 314.041C424.755 309.608 420.477 306.443 418.387 305.416Z" fill="#70AE3E"/>
<path d="M372.698 309.11C375.35 312.913 375.334 319.474 374.994 322.279L423.138 317.554C422.065 314.951 423.438 309.856 424.258 307.635C421.733 307.883 419.949 311.211 419.372 312.845L417.175 307.135L415.826 310.803C415.434 308.929 413.489 307.878 412.566 307.587C412.758 309.481 411.907 312.399 411.457 313.622L408.208 304.529C408.204 306.482 407.14 310.128 406.608 311.707C405.771 311.033 404.45 308.218 403.894 306.895C403.842 307.577 402.806 311.3 402.294 313.077C401.677 312.181 401.103 309.808 400.893 308.733C400.26 309.273 398.828 313.815 398.191 316.019C398.103 315.151 394.919 309.701 393.339 307.084C394.576 312.5 393.114 315.687 392.229 316.604C392.153 315.855 390.672 312.558 389.941 311.003C389.945 313.034 388.796 315.846 388.221 316.998C386.138 314.015 385.521 309.661 385.473 307.856C383.765 310.175 383.017 313.575 382.856 314.985C382.207 314.57 381.564 312.721 381.324 311.849L379.955 317.809C379.411 313.241 374.891 310.107 372.698 309.11Z" fill="#70AE3E"/>
<path d="M241.51 312.055C243.693 315.967 243.037 322.283 242.436 324.952L289.254 324.952C288.474 322.344 290.293 317.568 291.3 315.507C288.844 315.507 286.801 318.543 286.087 320.062L284.528 314.356L282.871 317.76C282.677 315.919 280.907 314.724 280.046 314.356C280.046 316.197 278.942 318.927 278.389 320.062L276.148 311C275.954 312.879 274.573 316.29 273.907 317.76C273.167 317.032 272.17 314.196 271.764 312.87C271.647 313.522 270.286 317.009 269.62 318.671C269.114 317.751 268.792 315.411 268.695 314.356C268.032 314.816 266.21 319.055 265.382 321.116C265.382 320.273 262.849 314.724 261.582 312.055C262.244 317.386 260.526 320.317 259.584 321.116C259.584 320.388 258.48 317.073 257.928 315.507C257.733 317.463 256.353 320.062 255.687 321.116C253.972 318.048 253.803 313.797 253.933 312.055C252.062 314.126 251.01 317.329 250.718 318.671C250.133 318.211 249.695 316.37 249.549 315.507L247.649 321.116C247.571 316.667 243.524 313.221 241.51 312.055Z" fill="#70AE3E"/>
<path d="M329.79 310.955C332.204 314.733 331.93 321.077 331.49 323.776L378.226 321.046C377.291 318.488 378.819 313.615 379.7 311.498C377.249 311.642 375.392 314.792 374.77 316.349L372.871 310.745L371.422 314.239C371.117 312.413 369.278 311.323 368.397 311.006C368.507 312.844 367.569 315.633 367.086 316.798L364.304 307.883C364.223 309.77 363.05 313.255 362.474 314.762C361.691 314.078 360.525 311.306 360.04 310.005C359.962 310.663 358.814 314.223 358.249 315.921C357.688 315.032 357.226 312.715 357.065 311.668C356.432 312.166 354.868 316.503 354.165 318.609C354.114 317.767 351.252 312.375 349.826 309.785C350.809 315.069 349.27 318.095 348.378 318.947C348.334 318.22 347.032 314.975 346.387 313.444C346.31 315.408 345.089 318.083 344.487 319.174C342.591 316.211 342.166 311.978 342.191 310.231C340.448 312.408 339.591 315.666 339.38 317.023C338.768 316.598 338.22 314.786 338.022 313.933L336.463 319.643C336.118 315.206 331.87 312.003 329.79 310.955Z" fill="#70AE3E"/>
<path d="M284.312 315.392C287.019 319.157 287.096 325.718 286.797 328.528L334.869 323.135C333.758 320.547 335.058 315.434 335.846 313.201C333.325 313.484 331.589 316.837 331.035 318.479L328.756 312.8L327.46 316.486C327.041 314.618 325.082 313.594 324.154 313.316C324.373 315.206 323.564 318.136 323.132 319.365L319.753 310.319C319.777 312.271 318.765 315.932 318.256 317.518C317.409 316.855 316.048 314.059 315.474 312.744C315.431 313.427 314.448 317.164 313.962 318.948C313.333 318.061 312.724 315.695 312.499 314.624C311.873 315.172 310.506 319.734 309.901 321.946C309.801 321.08 306.54 315.674 304.922 313.08C306.236 318.478 304.821 321.685 303.949 322.614C303.862 321.866 302.334 318.59 301.581 317.045C301.613 319.076 300.505 321.903 299.947 323.063C297.821 320.11 297.142 315.764 297.068 313.961C295.394 316.303 294.694 319.713 294.554 321.125C293.899 320.72 293.229 318.88 292.977 318.01L291.693 323.989C291.084 319.429 286.519 316.358 284.312 315.392Z" fill="#70AE3E"/>
<path d="M195.781 309.859C197.822 313.844 196.941 320.134 196.245 322.78L243.034 324.401C242.348 321.768 244.336 317.058 245.416 315.033C242.962 314.948 240.812 317.912 240.044 319.404L238.69 313.649L236.913 316.993C236.784 315.146 235.058 313.89 234.211 313.493C234.145 315.333 232.944 318.023 232.351 319.138L230.436 310.004C230.174 311.876 228.672 315.236 227.954 316.683C227.24 315.929 226.345 313.061 225.987 311.721C225.847 312.369 224.362 315.807 223.637 317.445C223.164 316.507 222.926 314.158 222.866 313.1C222.188 313.537 220.215 317.71 219.314 319.742C219.344 318.898 217.011 313.265 215.84 310.554C216.312 315.905 214.49 318.775 213.52 319.541C213.546 318.812 212.561 315.462 212.065 313.877C211.801 315.826 210.328 318.375 209.625 319.406C208.021 316.28 208.004 312.025 208.196 310.289C206.253 312.294 205.087 315.459 204.746 316.79C204.179 316.31 203.806 314.455 203.691 313.587L201.592 319.127C201.673 314.678 197.752 311.095 195.781 309.859Z" fill="#70AE3E"/>
<path d="M18.5431 295.049C20.2263 299.193 18.7952 305.384 17.8692 307.961L64.3398 313.561C63.8882 310.879 66.2832 306.356 67.5371 304.43C65.1 304.137 62.6973 306.906 61.8005 308.328L60.9577 302.478L58.8932 305.659C58.9271 303.808 57.3178 302.41 56.5089 301.942C56.2815 303.77 54.8484 306.347 54.1602 307.407L53.0548 298.145C52.6293 299.987 50.838 303.207 49.9956 304.587C49.3506 303.775 48.711 300.842 48.4718 299.476C48.2752 300.11 46.4939 303.408 45.6277 304.978C45.2385 304.004 45.2083 301.643 45.2418 300.585C44.5273 300.962 42.1954 304.951 41.1188 306.898C41.223 306.061 39.3937 300.25 38.466 297.45C38.4652 302.821 36.3979 305.525 35.3644 306.205C35.4543 305.482 34.7676 302.06 34.4129 300.439C33.978 302.357 32.287 304.772 31.4958 305.739C30.1726 302.488 30.5299 298.248 30.874 296.535C28.7613 298.367 27.3213 301.42 26.8654 302.718C26.342 302.191 26.1341 300.311 26.0956 299.437L23.517 304.778C23.9891 300.352 20.3978 296.448 18.5431 295.049Z" fill="#70AE3E"/>
<path d="M106.552 302.531C108.481 306.57 107.425 312.833 106.656 315.46L153.382 318.341C152.77 315.69 154.889 311.035 156.024 309.04C153.574 308.889 151.342 311.794 150.532 313.265L149.339 307.475L147.47 310.77C147.392 308.921 145.701 307.619 144.866 307.199C144.749 309.036 143.473 311.693 142.85 312.791L141.189 303.61C140.875 305.473 139.281 308.792 138.523 310.219C137.83 309.446 137.015 306.555 136.694 305.206C136.536 305.85 134.957 309.246 134.186 310.864C133.739 309.914 133.567 307.559 133.537 306.501C132.846 306.919 130.759 311.037 129.801 313.044C129.855 312.202 127.679 306.508 126.584 303.766C126.907 309.128 125.006 311.948 124.015 312.687C124.061 311.96 123.17 308.584 122.718 306.987C122.399 308.927 120.857 311.436 120.125 312.447C118.609 309.279 118.71 305.026 118.95 303.296C116.952 305.248 115.698 308.379 115.321 309.701C114.767 309.206 114.446 307.341 114.355 306.471L112.102 311.953C112.307 307.507 108.487 303.82 106.552 302.531Z" fill="#70AE3E"/>
<path d="M150.082 310.055C152.415 314.055 151.863 320.594 151.296 323.363L199.67 322.457C198.813 319.777 200.596 314.808 201.596 312.658C199.059 312.706 197.008 315.883 196.3 317.465L194.576 311.6L192.932 315.15C192.694 313.251 190.841 312.05 189.945 311.687C189.981 313.589 188.895 316.431 188.347 317.614L185.851 308.295C185.687 310.24 184.329 313.791 183.67 315.323C182.89 314.584 181.803 311.674 181.358 310.312C181.25 310.988 179.913 314.617 179.259 316.347C178.717 315.406 178.338 312.995 178.216 311.907C177.541 312.395 175.743 316.81 174.928 318.956C174.911 318.084 172.183 312.4 170.821 309.666C171.612 315.162 169.895 318.224 168.938 319.068C168.923 318.315 167.716 314.912 167.114 313.304C166.952 315.329 165.578 318.041 164.911 319.143C163.078 316.006 162.818 311.617 162.918 309.814C161.026 311.991 160.003 315.32 159.728 316.713C159.114 316.249 158.625 314.355 158.456 313.466L156.605 319.299C156.436 314.703 152.186 311.221 150.082 310.055Z" fill="#70AE3E"/>
<path d="M-27.4597 287.84C-25.8954 292.187 -27.6329 298.522 -28.6972 301.146L19.0541 308.816C18.7003 306.028 21.3631 301.455 22.7387 299.518C20.2344 299.115 17.6371 301.878 16.6515 303.309L16.0266 297.234L13.7613 300.435C13.874 298.525 12.2708 297.016 11.4552 296.5C11.1437 298.378 9.55572 300.981 8.80064 302.048L8.04775 292.439C7.53108 294.324 5.54632 297.576 4.61852 298.966C3.98652 298.102 3.44913 295.047 3.25943 293.627C3.02988 294.273 1.05202 297.607 0.0917844 299.193C-0.269269 298.171 -0.201445 295.732 -0.1224 294.64C-0.87603 295.001 -3.45134 299.026 -4.64479 300.993C-4.50205 300.132 -6.14728 294.058 -6.98773 291.128C-7.2138 296.674 -9.46197 299.382 -10.5578 300.043C-10.4345 299.3 -11.0001 295.738 -11.2983 294.05C-11.828 296.013 -13.6754 298.438 -14.5329 299.404C-15.7629 295.994 -15.2161 291.63 -14.7889 289.875C-17.0474 291.681 -18.6624 294.775 -19.1876 296.096C-19.706 295.531 -19.8418 293.582 -19.8449 292.677L-22.7316 298.088C-22.0585 293.537 -25.6032 289.359 -27.4597 287.84Z" fill="#70AE3E"/>
<path d="M60.8619 301.494C63.0831 305.556 62.3498 312.077 61.7055 314.83L110.087 315.227C109.304 312.525 111.226 307.606 112.284 305.484C109.747 305.463 107.609 308.584 106.857 310.147L105.296 304.237L103.555 307.741C103.369 305.837 101.551 304.586 100.665 304.199C100.648 306.102 99.4834 308.913 98.9029 310.081L96.6663 300.698C96.4485 302.639 94.9922 306.151 94.2913 307.665C93.5324 306.906 92.5269 303.967 92.1189 302.593C91.9924 303.266 90.5556 306.858 89.853 308.57C89.3374 307.614 89.0256 305.194 88.9342 304.103C88.2455 304.573 86.3255 308.938 85.4516 311.061C85.4589 310.189 82.8896 304.433 81.604 301.664C82.242 307.18 80.4408 310.194 79.4605 311.012C79.4669 310.259 78.3548 306.824 77.7979 305.201C77.5794 307.221 76.1302 309.894 75.4329 310.979C73.6876 307.793 73.5503 303.399 73.6998 301.6C71.7484 303.724 70.633 307.025 70.3191 308.41C69.719 307.929 69.282 306.023 69.1386 305.13L67.126 310.911C67.0844 306.312 62.9326 302.717 60.8619 301.494Z" fill="#70AE3E"/>
<path d="M825.587 282.476C827.617 286.467 826.719 292.754 826.016 295.398L872.8 297.142C872.121 294.507 874.122 289.803 875.208 287.78C872.754 287.689 870.596 290.647 869.824 292.137L868.485 286.378L866.699 289.718C866.575 287.871 864.852 286.61 864.006 286.211C863.936 288.051 862.727 290.737 862.132 291.851L860.241 282.712C859.974 284.583 858.463 287.94 857.741 289.384C857.029 288.628 856.142 285.758 855.787 284.417C855.646 285.065 854.152 288.499 853.422 290.135C852.951 289.196 852.72 286.846 852.663 285.788C851.984 286.223 850 290.391 849.093 292.42C849.125 291.577 846.807 285.938 845.644 283.224C846.101 288.576 844.272 291.441 843.3 292.204C843.328 291.476 842.352 288.123 841.86 286.537C841.59 288.485 840.111 291.03 839.405 292.059C837.809 288.929 837.804 284.675 838.001 282.939C836.052 284.939 834.877 288.1 834.533 289.431C833.967 288.949 833.6 287.093 833.487 286.225L831.372 291.76C831.466 287.311 827.554 283.717 825.587 282.476Z" fill="#70AE3E"/>
<path d="M868.307 285.407C870.866 289.271 870.691 295.83 870.284 298.627L918.529 295.028C917.519 292.401 919.014 287.34 919.888 285.138C917.358 285.327 915.494 288.613 914.878 290.232L912.818 284.473L911.382 288.108C911.035 286.226 909.116 285.13 908.2 284.817C908.346 286.714 907.425 289.612 906.946 290.824L903.917 281.658C903.866 283.61 902.714 287.231 902.144 288.797C901.323 288.103 900.071 285.258 899.547 283.922C899.479 284.603 898.353 288.301 897.799 290.065C897.204 289.155 896.687 286.769 896.503 285.69C895.856 286.215 894.315 290.722 893.625 292.911C893.558 292.041 890.507 286.518 888.99 283.865C890.096 289.308 888.558 292.46 887.651 293.356C887.593 292.605 886.192 289.274 885.499 287.703C885.453 289.734 884.237 292.517 883.635 293.656C881.624 290.625 881.113 286.258 881.109 284.453C879.345 286.731 878.515 290.112 878.32 291.518C877.681 291.088 877.083 289.225 876.864 288.347L875.351 294.273C874.918 289.694 870.474 286.455 868.307 285.407Z" fill="#70AE3E"/>
<path d="M799.354 304.055C801.537 307.967 800.881 314.283 800.28 316.952L847.098 316.952C846.318 314.344 848.137 309.568 849.144 307.507C846.689 307.507 844.646 310.543 843.931 312.062L842.372 306.356L840.716 309.76C840.521 307.919 838.751 306.724 837.89 306.356C837.89 308.197 836.786 310.927 836.234 312.062L833.993 303C833.798 304.879 832.418 308.29 831.752 309.76C831.011 309.032 830.014 306.196 829.608 304.87C829.491 305.522 828.13 309.009 827.465 310.671C826.958 309.751 826.636 307.411 826.539 306.356C825.876 306.816 824.054 311.055 823.226 313.116C823.226 312.273 820.693 306.724 819.426 304.055C820.089 309.386 818.371 312.317 817.429 313.116C817.429 312.388 816.324 309.073 815.772 307.507C815.577 309.463 814.197 312.062 813.531 313.116C811.816 310.048 811.648 305.797 811.777 304.055C809.907 306.126 808.854 309.329 808.562 310.671C807.978 310.211 807.539 308.37 807.393 307.507L805.493 313.116C805.415 308.667 801.368 305.221 799.354 304.055Z" fill="#5B9B40"/>
<path d="M2.76586 308C2.76586 309.841 1.6616 312.571 1.10946 313.705C0.592128 315.153 -1.02855 318.158 -3.37256 318.596L11.9735 318.596C11.194 315.988 13.0128 311.212 14.0196 309.151C11.5643 309.151 9.52137 312.187 8.80684 313.705L7.24788 308L5.59148 311.404C5.39661 309.563 3.62654 308.368 2.76586 308Z" fill="#5B9B40"/>
<path d="M655.109 304C655.109 305.841 654.004 308.571 653.452 309.705C652.935 311.153 651.314 314.158 648.97 314.596L664.316 314.596C663.537 311.988 665.356 307.212 666.362 305.151C663.907 305.151 661.864 308.187 661.15 309.705L659.591 304L657.934 307.404C657.739 305.563 655.969 304.368 655.109 304Z" fill="#5B9B40"/>
<path d="M307.599 292C307.599 293.841 306.495 296.571 305.942 297.705C305.425 299.153 303.804 302.158 301.46 302.596L316.806 302.596C316.027 299.988 317.846 295.212 318.853 293.151C316.397 293.151 314.354 296.187 313.64 297.705L312.081 292L310.424 295.404C310.23 293.563 308.46 292.368 307.599 292Z" fill="#70AE3E"/>
<path d="M501.676 277C501.676 278.841 500.572 281.571 500.02 282.705C499.502 284.153 497.882 287.158 495.538 287.596L510.884 287.596C510.104 284.988 511.923 280.212 512.93 278.151C510.474 278.151 508.432 281.187 507.717 282.705L506.158 277L504.502 280.404C504.307 278.563 502.537 277.368 501.676 277Z" fill="#70AE3E"/>
<path d="M380.717 278.055C382.9 281.967 382.244 288.283 381.643 290.952L428.461 290.952C427.681 288.344 429.5 283.568 430.507 281.507C428.051 281.507 426.008 284.543 425.294 286.062L423.735 280.356L422.079 283.76C421.884 281.919 420.114 280.724 419.253 280.356C419.253 282.197 418.149 284.927 417.597 286.062L415.355 277C415.161 278.879 413.78 282.29 413.114 283.76C412.374 283.032 411.377 280.196 410.971 278.87C410.854 279.522 409.493 283.009 408.827 284.671C408.321 283.751 407.999 281.411 407.902 280.356C407.239 280.816 405.417 285.055 404.589 287.116C404.589 286.273 402.056 280.724 400.789 278.055C401.451 283.386 399.733 286.317 398.792 287.116C398.792 286.388 397.687 283.073 397.135 281.507C396.94 283.463 395.56 286.062 394.894 287.116C393.179 284.048 393.01 279.797 393.14 278.055C391.27 280.126 390.217 283.329 389.925 284.671C389.34 284.211 388.902 282.37 388.756 281.507L386.856 287.116C386.778 282.667 382.731 279.221 380.717 278.055Z" fill="#70AE3E"/>
<path d="M135.834 291.055C138.017 294.967 137.361 301.283 136.76 303.952L183.578 303.952C182.798 301.344 184.617 296.568 185.624 294.507C183.168 294.507 181.126 297.543 180.411 299.062L178.852 293.356L177.196 296.76C177.001 294.919 175.231 293.724 174.37 293.356C174.37 295.197 173.266 297.927 172.714 299.062L170.473 290C170.278 291.879 168.897 295.29 168.232 296.76C167.491 296.032 166.494 293.196 166.088 291.87C165.971 292.522 164.61 296.009 163.945 297.671C163.438 296.751 163.116 294.411 163.019 293.356C162.356 293.816 160.534 298.055 159.706 300.116C159.706 299.273 157.173 293.724 155.906 291.055C156.569 296.386 154.851 299.317 153.909 300.116C153.909 299.388 152.804 296.073 152.252 294.507C152.057 296.463 150.677 299.062 150.011 300.116C148.296 297.048 148.128 292.797 148.257 291.055C146.387 293.126 145.334 296.329 145.042 297.671C144.457 297.211 144.019 295.37 143.873 294.507L141.973 300.116C141.895 295.667 137.848 292.221 135.834 291.055Z" fill="#70AE3E"/>
</g>
<rect y="381" width="4480" height="31" fill="#70AE3E"/>
</g>
<path d="M272.372 274.001C269.309 273.954 263.721 275.33 265.87 281.21C269.262 283.33 272.937 277.252 272.372 274.001Z" fill="#25861F" stroke="#25861F" stroke-width="0.423251"/>
<path d="M271.186 275.414L269.207 277.393M265.956 280.644L266.804 279.796M268.924 275.838C269.16 276.215 269.461 277.138 268.783 277.817M268.783 277.817L269.207 277.393M268.783 277.817L267.087 279.513M267.087 277.393C267.228 277.911 267.37 279.117 266.804 279.796M266.804 279.796L267.087 279.513M271.186 277.11C270.903 277.016 270.112 276.941 269.207 277.393M269.207 279.23C268.924 279.089 268.105 278.948 267.087 279.513" stroke="#1F6B19" stroke-width="0.423251" stroke-linecap="round"/>
<path d="M260.39 292.682C263.336 293.52 269.089 293.638 268.536 287.402C265.808 284.476 260.685 289.396 260.39 292.682Z" fill="#25861F" stroke="#25861F" stroke-width="0.423251"/>
<path d="M261.902 291.625L264.325 290.226M268.307 287.927L267.268 288.527M264.196 291.801C264.066 291.376 264.013 290.406 264.844 289.926M264.844 289.926L264.325 290.226M264.844 289.926L266.922 288.726M266.373 290.774C266.371 290.237 266.546 289.036 267.268 288.527M267.268 288.527L266.922 288.726M262.341 289.987C262.589 290.151 263.334 290.428 264.325 290.226M264.801 288.451C265.037 288.66 265.792 289.009 266.922 288.726" stroke="#1F6B19" stroke-width="0.423251" stroke-linecap="round"/>
<path d="M261.835 276.399C260.746 276.866 261.77 279.317 262.419 280.483C261.187 279.446 258.607 277.722 258.14 279.122C257.673 280.522 260.149 281.65 261.446 282.039C260.02 282.299 257.362 283.09 258.14 284.179C258.918 285.268 261.316 284.244 262.419 283.595C261.446 284.892 259.851 287.524 261.252 287.679C262.652 287.835 263.65 285.281 263.974 283.984C263.974 285.54 264.363 288.535 265.919 288.068C267.475 287.602 266.049 284.892 265.141 283.595C266.243 284.568 268.642 286.162 269.42 284.762C270.198 283.362 267.41 282.493 265.919 282.234C267.086 282.234 270.392 281.261 269.809 279.9C269.342 278.811 266.762 279.835 265.53 280.483C266.114 280.095 267.864 276.983 266.503 276.399C265.414 275.933 264.363 278.539 263.974 279.9C263.974 279.317 263.197 275.816 261.835 276.399Z" fill="#E56610"/>
<circle cx="264.029" cy="281.975" r="1.36139" fill="#FFB42E"/>
<path d="M268.059 281.456C266.97 281.923 267.994 284.373 268.642 285.54C267.41 284.503 264.83 282.778 264.363 284.179C263.897 285.579 266.373 286.707 267.67 287.096C266.243 287.355 263.585 288.146 264.363 289.235C265.141 290.324 267.54 289.3 268.642 288.652C267.67 289.948 266.075 292.58 267.475 292.736C268.876 292.892 269.874 290.337 270.198 289.041C270.198 290.597 270.587 293.592 272.143 293.125C273.699 292.658 272.273 289.948 271.365 288.652C272.467 289.624 274.866 291.219 275.644 289.819C276.422 288.419 273.634 287.55 272.143 287.29C273.31 287.29 276.616 286.318 276.033 284.957C275.566 283.868 272.986 284.892 271.754 285.54C272.337 285.151 274.088 282.039 272.726 281.456C271.637 280.989 270.587 283.595 270.198 284.957C270.198 284.373 269.42 280.873 268.059 281.456Z" fill="white"/>
<circle cx="270.253" cy="287.031" r="1.36139" fill="#E56610"/>
<path d="M409.039 296.5C411.559 289.833 418.335 273.052 421.598 275.5C423.598 277 421.481 298 409.039 296.5C409.012 296.837 408.983 297.17 408.953 297.5C398.837 296.7 392.098 282.5 393.098 282C401.098 281.6 407.001 292.167 408.953 297.5C408.983 297.17 409.012 296.837 409.039 296.5Z" fill="#25861F"/>
<path d="M407.598 306.5C408.115 304.173 408.626 301.051 408.953 297.5M403.098 265C409.125 273.323 409.85 286.433 409.039 296.5M409.039 296.5C411.559 289.833 418.335 273.052 421.598 275.5C423.598 277 421.481 298 409.039 296.5ZM409.039 296.5C409.012 296.837 408.983 297.17 408.953 297.5M408.953 297.5C407.001 292.167 401.098 281.6 393.098 282C392.098 282.5 398.837 296.7 408.953 297.5Z" stroke="#25861F" stroke-linecap="round"/>
<path d="M395.325 249.142C392.961 250.155 395.184 255.475 396.592 258.008C393.918 255.756 388.317 252.013 387.303 255.052C386.29 258.092 391.666 260.541 394.481 261.385C391.385 261.948 385.615 263.665 387.303 266.029C388.992 268.393 394.199 266.17 396.592 264.762C394.481 267.577 391.019 273.291 394.058 273.628C397.098 273.966 399.265 268.421 399.969 265.607C399.969 268.984 400.813 275.486 404.191 274.473C407.568 273.459 404.472 267.577 402.502 264.762C404.894 266.873 410.101 270.335 411.79 267.296C413.479 264.256 407.428 262.37 404.191 261.807C406.724 261.807 413.901 259.696 412.634 256.741C411.621 254.377 406.02 256.6 403.346 258.008C404.613 257.163 408.413 250.408 405.457 249.142C403.093 248.129 400.813 253.786 399.969 256.741C399.969 255.475 398.28 247.875 395.325 249.142Z" fill="white"/>
<circle cx="400.5" cy="261.5" r="3.5" fill="#E56610"/>
<path d="M843.24 293.022C841.86 289.37 838.148 280.177 836.36 281.518C835.264 282.34 836.424 293.844 843.24 293.022C843.255 293.207 843.271 293.389 843.287 293.57C848.829 293.132 852.521 285.353 851.973 285.079C847.59 284.86 844.357 290.648 843.287 293.57C843.271 293.389 843.255 293.207 843.24 293.022Z" fill="#25861F"/>
<path d="M844.03 298.5C843.746 297.226 843.467 295.515 843.287 293.57M846.495 275.766C843.193 280.325 842.796 287.507 843.24 293.022M843.24 293.022C841.86 289.37 838.148 280.177 836.36 281.518C835.264 282.34 836.424 293.844 843.24 293.022ZM843.24 293.022C843.255 293.207 843.271 293.389 843.287 293.57M843.287 293.57C844.357 290.648 847.59 284.86 851.973 285.079C852.521 285.353 848.829 293.132 843.287 293.57Z" stroke="#25861F" stroke-linecap="round"/>
<path d="M850.753 267.078C852.048 267.633 850.83 270.547 850.059 271.935C851.524 270.701 854.593 268.65 855.148 270.316C855.703 271.981 852.758 273.322 851.216 273.785C852.912 274.093 856.073 275.034 855.148 276.329C854.223 277.624 851.37 276.406 850.059 275.635C851.216 277.177 853.112 280.307 851.447 280.492C849.782 280.677 848.595 277.64 848.209 276.098C848.209 277.948 847.747 281.51 845.896 280.955C844.046 280.399 845.742 277.177 846.822 275.635C845.511 276.792 842.658 278.688 841.733 277.023C840.808 275.358 844.123 274.325 845.896 274.016C844.509 274.016 840.577 272.86 841.271 271.241C841.826 269.946 844.894 271.164 846.359 271.935C845.665 271.472 843.584 267.772 845.203 267.078C846.498 266.523 847.747 269.622 848.209 271.241C848.209 270.547 849.134 266.384 850.753 267.078Z" fill="white"/>
<circle cx="1.91739" cy="1.91739" r="1.91739" transform="matrix(-1 0 0 1 849.836 271.93)" fill="#E56610"/>
<path d="M77.3818 324.698C78.7449 321.091 82.4106 312.013 84.1761 313.337C85.2581 314.148 84.1125 325.509 77.3818 324.698C77.3672 324.88 77.3516 325.06 77.3351 325.239C71.8623 324.806 68.2166 317.124 68.7577 316.853C73.0857 316.637 76.2793 322.353 77.3351 325.239C77.3516 325.06 77.3672 324.88 77.3818 324.698Z" fill="#237C1D"/>
<path d="M76.6021 330.108C76.8819 328.849 77.158 327.16 77.3351 325.239M74.1677 307.656C77.4281 312.159 77.8201 319.251 77.3818 324.698M77.3818 324.698C78.7449 321.091 82.4106 312.013 84.1761 313.337C85.2581 314.148 84.1125 325.509 77.3818 324.698ZM77.3818 324.698C77.3672 324.88 77.3516 325.06 77.3351 325.239M77.3351 325.239C76.2793 322.353 73.0857 316.637 68.7577 316.853C68.2166 317.124 71.8623 324.806 77.3351 325.239Z" stroke="#237C1D" stroke-linecap="round"/>
<path d="M70.402 299.075C69.1519 299.611 70.3276 302.423 71.0717 303.763C69.6578 302.572 66.6962 300.593 66.1605 302.2C65.6247 303.807 68.4672 305.102 69.9554 305.549C68.3184 305.846 65.2675 306.754 66.1605 308.004C67.0534 309.254 69.8067 308.079 71.0717 307.335C69.9555 308.823 68.125 311.844 69.7322 312.022C71.3395 312.201 72.4854 309.269 72.8575 307.781C72.8575 309.567 73.3039 313.005 75.0898 312.469C76.8756 311.933 75.2386 308.823 74.1969 307.335C75.4618 308.451 78.215 310.281 79.1079 308.674C80.0009 307.067 76.8012 306.07 75.0898 305.772C76.4292 305.772 80.2241 304.656 79.5544 303.093C79.0187 301.843 76.0571 303.019 74.6433 303.763C75.313 303.316 77.3221 299.745 75.7595 299.075C74.5094 298.539 73.3039 301.531 72.8575 303.093C72.8575 302.423 71.9646 298.405 70.402 299.075Z" fill="#E56610"/>
<circle cx="72.92" cy="305.475" r="1.56262" fill="#FFB42E"/>
<path d="M697.079 359.631C695.348 355.052 690.694 343.524 688.452 345.205C687.078 346.236 688.533 360.662 697.079 359.631C697.098 359.863 697.118 360.092 697.139 360.318C704.088 359.769 708.717 350.014 708.03 349.67C702.535 349.396 698.479 356.655 697.139 360.318C697.118 360.092 697.098 359.863 697.079 359.631Z" fill="#237C1D"/>
<path d="M698.069 366.501C697.714 364.903 697.364 362.758 697.139 360.318M701.161 337.992C697.021 343.709 696.523 352.715 697.079 359.631M697.079 359.631C695.348 355.052 690.694 343.524 688.452 345.205C687.078 346.236 688.533 360.662 697.079 359.631ZM697.079 359.631C697.098 359.863 697.118 360.092 697.139 360.318M697.139 360.318C698.479 356.655 702.535 349.396 708.03 349.67C708.717 350.014 704.088 359.769 697.139 360.318Z" stroke="#237C1D" stroke-linecap="round"/>
<path d="M705.943 327.095C707.53 327.776 706.037 331.347 705.092 333.048C706.887 331.536 710.648 329.023 711.328 331.064C712.009 333.105 708.399 334.749 706.51 335.316C708.588 335.693 712.462 336.846 711.328 338.434C710.195 340.021 706.699 338.528 705.092 337.583C706.51 339.473 708.834 343.309 706.793 343.536C704.752 343.763 703.297 340.04 702.825 338.15C702.825 340.418 702.258 344.783 699.99 344.103C697.722 343.422 699.801 339.473 701.124 337.583C699.518 339 696.022 341.325 694.888 339.284C693.754 337.243 697.817 335.977 699.99 335.599C698.289 335.599 693.47 334.182 694.321 332.197C695.001 330.61 698.762 332.103 700.557 333.048C699.707 332.481 697.155 327.946 699.14 327.095C700.727 326.415 702.258 330.213 702.825 332.197C702.825 331.347 703.958 326.245 705.943 327.095Z" fill="#E56610"/>
<circle cx="1.98421" cy="1.98421" r="1.98421" transform="matrix(-1 0 0 1 704.729 333.236)" fill="#FFB42E"/>
<circle cx="703.723" cy="294.667" r="1.55226" fill="#FED22B" stroke="black" stroke-width="0.443503"/>
<circle cx="703.723" cy="210.401" r="1.55226" fill="#FED22B" stroke="black" stroke-width="0.443503"/>
<circle cx="741.864" cy="254.751" r="1.55226" fill="#FED22B" stroke="black" stroke-width="0.443503"/>
<circle cx="748.961" cy="294.667" r="1.55226" fill="#FED22B" stroke="black" stroke-width="0.443503"/>
<circle cx="748.961" cy="210.401" r="1.55226" fill="#FED22B" stroke="black" stroke-width="0.443503"/>
<circle cx="777.345" cy="258.299" r="1.55226" fill="#FED22B" stroke="black" stroke-width="0.443503"/>
<circle cx="815.486" cy="291.118" r="1.55226" fill="#FED22B" stroke="black" stroke-width="0.443503"/>
<circle cx="815.486" cy="206.854" r="1.55226" fill="#FED22B" stroke="black" stroke-width="0.443503"/>
<circle cx="711.706" cy="229.028" r="1.55226" fill="#FED22B" stroke="black" stroke-width="0.443503"/>
<circle cx="701.506" cy="267.614" r="1.10876" fill="#FED22B" stroke="black" stroke-width="0.443503"/>
<circle cx="761.822" cy="278.256" r="1.10876" fill="#FED22B" stroke="black" stroke-width="0.443503"/>
<circle cx="761.822" cy="193.991" r="1.10876" fill="#FED22B" stroke="black" stroke-width="0.443503"/>
<circle cx="801.737" cy="294.223" r="1.10876" fill="#FED22B" stroke="black" stroke-width="0.443503"/>
<circle cx="801.737" cy="209.957" r="1.10876" fill="#FED22B" stroke="black" stroke-width="0.443503"/>
<circle cx="778.232" cy="231.69" r="0.665254" fill="#FED22B" stroke="black" stroke-width="0.443503"/>
<circle cx="717.915" cy="245.881" r="0.665254" fill="#FED22B" stroke="black" stroke-width="0.443503"/>
<circle cx="678.887" cy="277.813" r="0.665254" fill="#FED22B" stroke="black" stroke-width="0.443503"/>
<circle cx="795.085" cy="311.52" r="0.665254" fill="#FED22B" stroke="black" stroke-width="0.443503"/>
<circle cx="795.085" cy="227.254" r="0.665254" fill="#FED22B" stroke="black" stroke-width="0.443503"/>
<circle cx="781.78" cy="278.701" r="0.665254" fill="#FED22B" stroke="black" stroke-width="0.443503"/>
<circle cx="781.78" cy="194.436" r="0.665254" fill="#FED22B" stroke="black" stroke-width="0.443503"/>
<circle cx="817.26" cy="269.83" r="0.665254" fill="#FED22B" stroke="black" stroke-width="0.443503"/>
<circle cx="727.672" cy="282.248" r="0.665254" fill="#FED22B" stroke="black" stroke-width="0.443503"/>
<circle cx="727.672" cy="197.983" r="0.665254" fill="#FED22B" stroke="black" stroke-width="0.443503"/>
<circle cx="678.443" cy="296.885" r="0.221751" fill="#FED22B" stroke="black" stroke-width="0.443503"/>
<circle cx="697.958" cy="241.891" r="0.221751" fill="#FED22B" stroke="black" stroke-width="0.443503"/>
<circle cx="689.975" cy="219.715" r="0.221751" fill="#FED22B" stroke="black" stroke-width="0.443503"/>
<circle cx="749.404" cy="231.246" r="0.221751" fill="#FED22B" stroke="black" stroke-width="0.443503"/>
<circle cx="744.969" cy="274.709" r="0.221751" fill="#FED22B" stroke="black" stroke-width="0.443503"/>
<circle cx="744.969" cy="190.443" r="0.221751" fill="#FED22B" stroke="black" stroke-width="0.443503"/>
<circle cx="736.986" cy="303.094" r="0.221751" fill="#FED22B" stroke="black" stroke-width="0.443503"/>
<circle cx="736.986" cy="218.828" r="0.221751" fill="#FED22B" stroke="black" stroke-width="0.443503"/>
<circle cx="775.127" cy="292.449" r="0.221751" fill="#FED22B" stroke="black" stroke-width="0.443503"/>
<circle cx="775.127" cy="208.184" r="0.221751" fill="#FED22B" stroke="black" stroke-width="0.443503"/>
<circle cx="761.822" cy="246.324" r="0.221751" fill="#FED22B" stroke="black" stroke-width="0.443503"/>
<circle cx="812.381" cy="229.471" r="0.221751" fill="#FED22B" stroke="black" stroke-width="0.443503"/>
<circle cx="800.85" cy="278.258" r="0.221751" fill="#FED22B" stroke="black" stroke-width="0.443503"/>
<circle cx="800.85" cy="193.992" r="0.221751" fill="#FED22B" stroke="black" stroke-width="0.443503"/>
<circle cx="823.912" cy="304.867" r="0.221751" fill="#FED22B" stroke="black" stroke-width="0.443503"/>
<circle cx="823.912" cy="220.602" r="0.221751" fill="#FED22B" stroke="black" stroke-width="0.443503"/>
<circle cx="786.658" cy="320.834" r="0.221751" fill="#FED22B" stroke="black" stroke-width="0.443503"/>
<circle cx="786.658" cy="236.568" r="0.221751" fill="#FED22B" stroke="black" stroke-width="0.443503"/>
<circle cx="791.093" cy="293.336" r="0.221751" fill="#FED22B" stroke="black" stroke-width="0.443503"/>
<circle cx="791.093" cy="209.07" r="0.221751" fill="#FED22B" stroke="black" stroke-width="0.443503"/>
<circle cx="834.556" cy="277.369" r="0.221751" fill="#FED22B" stroke="black" stroke-width="0.443503"/>
<circle cx="834.556" cy="193.104" r="0.221751" fill="#FED22B" stroke="black" stroke-width="0.443503"/>
<path d="M728.629 301.805H740.589V305.184C740.589 306.299 739.684 307.206 738.567 307.206H730.649C729.534 307.206 728.627 306.301 728.627 305.184V301.805H728.629Z" fill="#594738"/>
<mask id="mask3_489_4292" style="mask-type:luminance" maskUnits="userSpaceOnUse" x="732" y="299" width="13" height="13">
<path d="M737.407 299.972C737.407 299.972 737.407 308.074 733.356 310.003C729.305 311.932 743.194 311.546 743.194 311.546L744.158 299.586L737.407 299.972Z" fill="white"/>
</mask>
<g mask="url(#mask3_489_4292)">
<path d="M728.725 301.709H740.685V305.089C740.685 306.204 739.78 307.11 738.663 307.11H730.744C729.629 307.11 728.723 306.206 728.723 305.089V301.709H728.725Z" fill="#352A22"/>
</g>
<path d="M728.629 302.189H740.589V305.569C740.589 306.684 739.684 307.591 738.567 307.591H730.649C729.534 307.591 728.627 306.686 728.627 305.569V302.189H728.629Z" stroke="black" stroke-width="1.35032" stroke-miterlimit="10"/>
<path d="M750.962 241.466L724.386 259.678V298.889C724.386 300.604 725.777 301.995 727.491 301.995H775.486C777.201 301.995 778.592 300.604 778.592 298.889V259.556L778.538 259.518L752.208 241.464C751.834 241.207 751.338 241.207 750.964 241.464L750.962 241.466Z" fill="#B79980"/>
<mask id="mask4_489_4292" style="mask-type:luminance" maskUnits="userSpaceOnUse" x="745" y="234" width="38" height="73">
<path d="M745.219 239.689L772.997 259.558V295.966C772.997 295.966 773.768 300.839 766.052 304.697C758.336 308.555 782.056 304.697 782.056 304.697L781.292 255.7L749.866 234.77L745.219 239.689Z" fill="white"/>
</mask>
<g mask="url(#mask4_489_4292)">
<path d="M750.962 241.466L724.386 259.678V298.889C724.386 300.604 725.777 301.995 727.491 301.995H775.486C777.201 301.995 778.592 300.604 778.592 298.889V259.556L778.538 259.518L752.208 241.464C751.834 241.207 751.338 241.207 750.964 241.464L750.962 241.466Z" fill="#5E4D40"/>
</g>
<path d="M750.962 241.466L724.386 259.678V298.889C724.386 300.604 725.777 301.995 727.491 301.995H775.486C777.201 301.995 778.592 300.604 778.592 298.889V259.556L778.538 259.518L752.208 241.464C751.834 241.207 751.338 241.207 750.964 241.464L750.962 241.466Z" stroke="black" stroke-width="1.35032" stroke-miterlimit="10"/>
<path d="M762.002 301.805H773.962V305.184C773.962 306.299 773.057 307.206 771.94 307.206H764.022C762.907 307.206 762 306.301 762 305.184V301.805H762.002Z" fill="#594738"/>
<mask id="mask5_489_4292" style="mask-type:luminance" maskUnits="userSpaceOnUse" x="765" y="299" width="13" height="13">
<path d="M770.779 299.972C770.779 299.972 770.779 308.074 766.728 310.003C762.677 311.932 776.566 311.546 776.566 311.546L777.53 299.586L770.779 299.972Z" fill="white"/>
</mask>
<g mask="url(#mask5_489_4292)">
<path d="M762.097 301.709H774.057V305.089C774.057 306.204 773.152 307.11 772.035 307.11H764.116C763.001 307.11 762.095 306.206 762.095 305.089V301.709H762.097Z" fill="#352A22"/>
</g>
<path d="M762.002 302.189H773.962V305.569C773.962 306.684 773.057 307.591 771.94 307.591H764.022C762.907 307.591 762 306.686 762 305.569V302.189H762.002Z" stroke="black" stroke-width="1.35032" stroke-miterlimit="10"/>
<path d="M724.458 285.311H778.664" stroke="black" stroke-width="1.35032" stroke-miterlimit="10"/>
<path d="M724.482 268.143H778.688" stroke="black" stroke-width="1.35032" stroke-miterlimit="10"/>
<path d="M735.478 250.975H766.921" stroke="black" stroke-width="1.35032" stroke-miterlimit="10"/>
<path d="M784.861 255.678L753.825 234.138C752.534 233.243 750.825 233.243 749.536 234.138L718.485 255.68C716.953 256.743 716.569 258.841 717.622 260.377C718.679 261.918 720.786 262.31 722.327 261.255L724.482 259.779L751.058 241.567C751.434 241.31 751.928 241.31 752.302 241.567L778.632 259.621L781.014 261.255C782.556 262.312 784.662 261.92 785.719 260.379C786.772 258.843 786.389 256.744 784.859 255.682L784.861 255.678Z" fill="#594738"/>
<mask id="mask6_489_4292" style="mask-type:luminance" maskUnits="userSpaceOnUse" x="746" y="229" width="50" height="42">
<path d="M746.472 231.78L781.864 255.841C781.864 255.841 787.56 258.979 780.808 267.853C774.057 276.727 795.083 261.101 795.083 261.101L793.733 241.811L763.061 232.937L746.472 229.027V231.78Z" fill="white"/>
</mask>
<g mask="url(#mask6_489_4292)">
<path d="M784.955 255.676L753.919 234.136C752.629 233.241 750.92 233.241 749.631 234.136L718.579 255.678C717.048 256.741 716.664 258.839 717.717 260.375C718.774 261.916 720.881 262.308 722.422 261.253L724.577 259.777L751.153 241.565C751.529 241.308 752.023 241.308 752.397 241.565L778.727 259.619L781.109 261.253C782.65 262.31 784.757 261.918 785.814 260.377C786.867 258.841 786.483 256.742 784.954 255.68L784.955 255.676Z" fill="#352A22"/>
</g>
<path d="M784.861 255.678L753.825 234.138C752.534 233.243 750.825 233.243 749.536 234.138L718.485 255.68C716.953 256.743 716.569 258.841 717.622 260.377C718.679 261.918 720.786 262.31 722.327 261.255L724.482 259.779L751.058 241.567C751.434 241.31 751.928 241.31 752.302 241.567L778.632 259.621L781.014 261.255C782.556 262.312 784.662 261.92 785.719 260.379C786.772 258.843 786.389 256.744 784.859 255.682L784.861 255.678Z" stroke="black" stroke-width="1.35032" stroke-miterlimit="10"/>
<path d="M751.562 296.209C752.734 296.209 753.684 295.259 753.684 294.087C753.684 292.915 752.734 291.965 751.562 291.965C750.39 291.965 749.44 292.915 749.44 294.087C749.44 295.259 750.39 296.209 751.562 296.209Z" fill="#F7D452" stroke="black" stroke-width="1.35032" stroke-miterlimit="10"/>
<path d="M756.77 295.727H746.353C745.98 295.727 745.678 296.029 745.678 296.402C745.678 296.775 745.98 297.077 746.353 297.077H756.77C757.143 297.077 757.445 296.775 757.445 296.402C757.445 296.029 757.143 295.727 756.77 295.727Z" fill="black"/>
<path d="M751.562 280.584C752.734 280.584 753.684 279.634 753.684 278.462C753.684 277.29 752.734 276.34 751.562 276.34C750.39 276.34 749.44 277.29 749.44 278.462C749.44 279.634 750.39 280.584 751.562 280.584Z" fill="#F7D452" stroke="black" stroke-width="1.35032" stroke-miterlimit="10"/>
<path d="M756.77 280.102H746.353C745.98 280.102 745.678 280.404 745.678 280.777C745.678 281.15 745.98 281.452 746.353 281.452H756.77C757.143 281.452 757.445 281.15 757.445 280.777C757.445 280.404 757.143 280.102 756.77 280.102Z" fill="black"/>
<path d="M751.562 264.767C752.734 264.767 753.684 263.817 753.684 262.645C753.684 261.473 752.734 260.523 751.562 260.523C750.39 260.523 749.44 261.473 749.44 262.645C749.44 263.817 750.39 264.767 751.562 264.767Z" fill="#F7D452" stroke="black" stroke-width="1.35032" stroke-miterlimit="10"/>
<path d="M756.77 264.285H746.353C745.98 264.285 745.678 264.587 745.678 264.96C745.678 265.333 745.98 265.635 746.353 265.635H756.77C757.143 265.635 757.445 265.333 757.445 264.96C757.445 264.587 757.143 264.285 756.77 264.285Z" fill="black"/>
<path d="M764.382 304C764.382 305.015 763.774 306.519 763.469 307.145C763.184 307.942 762.291 309.598 761 309.84L769.455 309.84C769.025 308.402 770.028 305.77 770.582 304.634C769.229 304.634 768.104 306.308 767.71 307.145L766.851 304L765.939 305.876C765.831 304.861 764.856 304.203 764.382 304Z" fill="#5B9B40"/>
<path d="M729.382 304C729.382 305.015 728.774 306.519 728.469 307.145C728.184 307.942 727.291 309.598 726 309.84L734.455 309.84C734.025 308.402 735.028 305.77 735.582 304.634C734.229 304.634 733.104 306.308 732.71 307.145L731.851 304L730.939 305.876C730.831 304.861 729.856 304.203 729.382 304Z" fill="#5B9B40"/>
<path d="M735.444 304C735.444 305.015 734.836 306.519 734.532 307.145C734.247 307.942 733.354 309.598 732.062 309.84L740.517 309.84C740.088 308.402 741.09 305.77 741.645 304.634C740.292 304.634 739.166 306.308 738.773 307.145L737.914 304L737.001 305.876C736.894 304.861 735.919 304.203 735.444 304Z" fill="#5B9B40"/>
<path d="M771.382 304C771.382 305.015 770.774 306.519 770.469 307.145C770.184 307.942 769.291 309.598 768 309.84L776.455 309.84C776.025 308.402 777.028 305.77 777.582 304.634C776.229 304.634 775.104 306.308 774.71 307.145L773.851 304L772.939 305.876C772.831 304.861 771.856 304.203 771.382 304Z" fill="#5B9B40"/>
</g>
<defs>
<clipPath id="clip0_489_4292">
<rect width="905" height="412" fill="white"/>
</clipPath>
</defs>
</svg>
