<svg width="905" height="412" viewBox="0 0 905 412" fill="none" xmlns="http://www.w3.org/2000/svg">
<g clip-path="url(#clip0_595_5195)">
<rect y="-1" width="4480" height="414" fill="#C7E9FA"/>
<rect x="47.4531" y="254.371" width="15.1417" height="51.9142" fill="#5C4636"/>
<path d="M73.5232 261.13C64.6545 264.158 57.7506 258.426 55.4073 255.181C52.433 258.786 44.2132 265.023 35.1282 261.13C26.0433 257.236 25.3943 247.43 26.2055 243.014C24.2227 243.645 18.5806 243.122 11.875 235.984C5.16941 228.845 10.7034 220.031 14.3085 216.516C11.9652 215.615 7.00815 211.649 5.9266 202.997C4.84506 194.344 11.7849 189.117 15.3901 187.584C14.2184 186.232 12.3618 181.798 14.3085 174.876C16.2553 167.954 22.5103 166.044 25.3944 165.953C24.2228 164.151 22.5824 158.923 25.3944 152.434C28.2065 145.945 36.1197 144.142 39.7248 144.052C39.3643 137.202 41.9961 123.935 55.4073 125.666C68.8184 127.396 70.9094 138.644 70.2785 144.052C74.0639 144.593 82.2837 147.026 84.8794 152.434C87.4751 157.842 85.9609 163.7 84.8794 165.953C87.8536 166.224 94.1266 168.387 95.4245 174.876C96.7223 181.366 94.8837 186.052 93.8022 187.584C99.4803 189.748 103.536 193.263 103.806 202.996C104.023 210.784 98.3086 214.533 95.4245 215.434C98.3987 220.031 102.725 224.087 99.2099 233.55C96.3979 241.121 87.2227 243.014 82.9867 243.014C84.0682 246.799 84.609 257.344 73.5232 261.13Z" fill="#25861F"/>
<mask id="mask0_595_5195" style="mask-type:alpha" maskUnits="userSpaceOnUse" x="0" y="76" width="61" height="218">
<rect y="76" width="60.6265" height="217.591" fill="#D9D9D9"/>
</mask>
<g mask="url(#mask0_595_5195)">
<rect x="-8.15137" y="230.68" width="18.1759" height="62.3173" fill="#5C4636"/>
<path d="M23.1432 238.794C12.4973 242.429 4.20996 235.548 1.39703 231.654C-2.17323 235.981 -12.0401 243.468 -22.9457 238.794C-33.8512 234.12 -34.6301 222.349 -33.6564 217.048C-36.0366 217.805 -42.8093 217.178 -50.8586 208.609C-58.9079 200.041 -52.265 189.46 -47.9374 185.24C-50.7503 184.158 -56.7007 179.398 -57.999 169.012C-59.2972 158.626 -50.9667 152.351 -46.6391 150.511C-48.0456 148.889 -50.2743 143.566 -47.9374 135.257C-45.6005 126.948 -38.0921 124.654 -34.63 124.546C-36.0365 122.382 -38.0055 116.107 -34.63 108.317C-31.2545 100.528 -21.7555 98.3639 -17.428 98.2557C-17.8607 90.0333 -14.7016 74.1078 1.39703 76.185C17.4957 78.2623 20.0057 91.7643 19.2483 98.2557C23.7923 98.9049 33.6592 101.826 36.775 108.317C39.8909 114.809 38.0733 121.841 36.775 124.546C40.3453 124.87 47.8753 127.467 49.4332 135.257C50.9912 143.046 48.7841 148.672 47.4858 150.511C54.3018 153.108 59.1703 157.327 59.4949 169.012C59.7545 178.359 52.8953 182.86 49.4332 183.942C53.0035 189.46 58.1966 194.328 53.9772 205.688C50.6017 214.776 39.588 217.048 34.5031 217.048C35.8014 221.592 36.4505 234.25 23.1432 238.794Z" fill="#70AE3E"/>
<path d="M23.0073 132.336C28.2004 135.798 35.7953 145.449 24.6302 156.354" stroke="#237C1D" stroke-width="11.627" stroke-linecap="round"/>
<path d="M15.2173 111.545C17.1818 112.897 19.5403 117.8 17.4172 121.72" stroke="#237C1D" stroke-width="7.4745" stroke-linecap="round"/>
<path d="M21.356 194.977C21.9605 197.264 20.5738 202.518 16.4542 204.159" stroke="#237C1D" stroke-width="7.4745" stroke-linecap="round"/>
</g>
<mask id="mask1_595_5195" style="mask-type:alpha" maskUnits="userSpaceOnUse" x="0" y="257" width="905" height="155">
<rect y="257" width="905" height="155" fill="#D9D9D9"/>
</mask>
<g mask="url(#mask1_595_5195)">
<mask id="mask2_595_5195" style="mask-type:alpha" maskUnits="userSpaceOnUse" x="0" y="251" width="4480" height="131">
<rect y="251" width="4480" height="131" fill="#D9D9D9"/>
</mask>
<g mask="url(#mask2_595_5195)">
<path d="M-170.398 301.445L274.507 270.202C418.768 260.071 563.731 268.151 705.973 294.251V294.251C863.951 323.238 1025.21 329.983 1185.06 314.291L1337.94 299.283C1462.19 287.085 1587.32 286.548 1711.67 297.681L1988.76 322.487C2103.66 332.773 2219.24 333.099 2334.2 323.46L2687.24 293.859C2789.76 285.263 2892.8 284.59 2995.43 291.848L3684.82 340.6C3782.22 347.487 3880 347.233 3977.36 339.839L4482.89 301.445L4482.89 381.445L-170.398 381.445L-170.398 301.445Z" fill="#5B9B40"/>
<path d="M351.019 257.5C353.25 261.412 352.579 267.728 351.965 270.397L399.823 270.397C399.026 267.789 400.885 263.014 401.914 260.952C399.404 260.952 397.316 263.989 396.586 265.507L394.992 259.801L393.299 263.206C393.1 261.364 391.29 260.169 390.411 259.801C390.411 261.643 389.282 264.372 388.717 265.507L386.427 256.445C386.227 258.325 384.816 261.735 384.136 263.206C383.379 262.477 382.36 259.642 381.945 258.315C381.825 258.967 380.434 262.454 379.753 264.117C379.236 263.196 378.907 260.856 378.807 259.801C378.13 260.262 376.268 264.5 375.421 266.562C375.421 265.718 372.831 260.169 371.537 257.5C372.214 262.832 370.458 265.763 369.495 266.562C369.495 265.833 368.366 262.518 367.802 260.952C367.602 262.908 366.191 265.507 365.511 266.562C363.758 263.493 363.585 259.242 363.718 257.5C361.806 259.571 360.73 262.774 360.431 264.117C359.834 263.656 359.385 261.815 359.236 260.952L357.294 266.562C357.214 262.112 353.077 258.667 351.019 257.5Z" fill="#5B9B40"/>
<path d="M166.134 265.5C168.365 269.412 167.695 275.728 167.08 278.397L214.938 278.397C214.141 275.789 216 271.014 217.03 268.952C214.52 268.952 212.431 271.989 211.701 273.507L210.107 267.801L208.414 271.206C208.215 269.364 206.406 268.169 205.526 267.801C205.526 269.643 204.397 272.372 203.833 273.507L201.542 264.445C201.343 266.325 199.932 269.735 199.251 271.206C198.494 270.477 197.475 267.642 197.06 266.315C196.94 266.967 195.549 270.454 194.869 272.117C194.351 271.196 194.022 268.856 193.923 267.801C193.245 268.262 191.383 272.5 190.536 274.562C190.536 273.718 187.947 268.169 186.652 265.5C187.329 270.832 185.573 273.763 184.61 274.562C184.61 273.833 183.481 270.518 182.917 268.952C182.718 270.908 181.307 273.507 180.626 274.562C178.873 271.493 178.7 267.242 178.833 265.5C176.921 267.571 175.845 270.774 175.546 272.117C174.949 271.656 174.501 269.815 174.351 268.952L172.409 274.562C172.329 270.112 168.193 266.667 166.134 265.5Z" fill="#5B9B40"/>
<path d="M256.374 262.401C258.842 266.179 258.561 272.522 258.113 275.221L305.886 272.492C304.93 269.934 306.492 265.061 307.393 262.944C304.887 263.087 302.99 266.237 302.354 267.795L300.412 262.19L298.931 265.685C298.619 263.858 296.739 262.768 295.838 262.451C295.952 264.289 294.993 267.078 294.499 268.243L291.655 259.328C291.572 261.216 290.373 264.701 289.784 266.207C288.984 265.523 287.792 262.751 287.296 261.45C287.217 262.108 286.043 265.669 285.466 267.367C284.892 266.477 284.42 264.16 284.256 263.113C283.608 263.611 282.009 267.948 281.291 270.055C281.239 269.212 278.313 263.821 276.856 261.23C277.86 266.514 276.287 269.54 275.375 270.393C275.33 269.665 274 266.421 273.34 264.889C273.261 266.854 272.013 269.528 271.398 270.62C269.46 267.657 269.026 263.423 269.051 261.676C267.27 263.853 266.393 267.111 266.177 268.469C265.552 268.043 264.992 266.231 264.789 265.378L263.196 271.088C262.842 266.651 258.501 263.448 256.374 262.401Z" fill="#5B9B40"/>
<path d="M73.4477 274.401C75.9156 278.179 75.6347 284.522 75.1858 287.221L122.959 284.492C122.003 281.934 123.566 277.061 124.466 274.944C121.961 275.087 120.063 278.237 119.427 279.795L117.485 274.19L116.005 277.685C115.692 275.858 113.813 274.768 112.912 274.451C113.025 276.289 112.066 279.078 111.573 280.243L108.728 271.328C108.645 273.216 107.446 276.701 106.857 278.207C106.057 277.523 104.865 274.751 104.369 273.45C104.29 274.108 103.116 277.669 102.539 279.367C101.965 278.477 101.493 276.16 101.329 275.113C100.681 275.611 99.0826 279.948 98.3643 282.055C98.3124 281.212 95.3859 275.821 93.9292 273.23C94.9333 278.514 93.3605 281.54 92.4485 282.393C92.4037 281.665 91.0729 278.421 90.4132 276.889C90.3347 278.854 89.0861 281.528 88.4716 282.62C86.5329 279.657 86.099 275.423 86.1243 273.676C84.3428 275.853 83.4661 279.111 83.2505 280.469C82.6256 280.043 82.0649 278.231 81.8627 277.378L80.269 283.088C79.9157 278.651 75.5743 275.448 73.4477 274.401Z" fill="#5B9B40"/>
<path d="M304.339 259.278C306.869 263.195 306.544 269.749 306.066 272.536L355.451 269.955C354.477 267.307 356.118 262.279 357.06 260.096C354.47 260.231 352.492 263.477 351.826 265.083L349.85 259.282L348.301 262.886C347.988 260.997 346.051 259.861 345.122 259.529C345.229 261.429 344.223 264.306 343.707 265.508L340.816 256.28C340.719 258.23 339.462 261.826 338.845 263.38C338.021 262.669 336.805 259.798 336.299 258.452C336.214 259.131 334.981 262.804 334.376 264.556C333.788 263.634 333.312 261.238 333.148 260.154C332.476 260.666 330.801 265.14 330.047 267.313C329.998 266.442 327.003 260.856 325.512 258.172C326.521 263.637 324.879 266.756 323.932 267.633C323.889 266.881 322.532 263.521 321.858 261.935C321.766 263.965 320.462 266.722 319.821 267.847C317.833 264.776 317.408 260.398 317.443 258.593C315.591 260.834 314.667 264.197 314.437 265.598C313.793 265.155 313.224 263.28 313.019 262.397L311.341 268.29C311 263.703 306.531 260.371 304.339 259.278Z" fill="#5B9B40"/>
<path d="M119.483 270.524C122.112 274.38 121.956 280.939 121.549 283.737L170.853 279.983C169.811 277.358 171.323 272.293 172.208 270.088C169.623 270.285 167.728 273.577 167.104 275.199L164.98 269.446L163.523 273.086C163.162 271.205 161.197 270.115 160.26 269.805C160.415 271.702 159.484 274.603 158.998 275.816L155.871 266.66C155.825 268.612 154.66 272.236 154.083 273.804C153.242 273.113 151.952 270.272 151.412 268.938C151.344 269.619 150.206 273.321 149.646 275.087C149.034 274.179 148.498 271.794 148.306 270.715C147.647 271.243 146.087 275.755 145.389 277.946C145.318 277.076 142.18 271.563 140.62 268.915C141.769 274.354 140.208 277.512 139.284 278.41C139.222 277.66 137.779 274.333 137.065 272.764C137.025 274.795 135.791 277.583 135.179 278.723C133.114 275.699 132.576 271.333 132.566 269.528C130.771 271.812 129.934 275.196 129.739 276.602C129.085 276.175 128.467 274.313 128.24 273.436L126.714 279.367C126.255 274.79 121.702 271.565 119.483 270.524Z" fill="#5B9B40"/>
<path d="M209.887 266.837C212.653 270.603 212.733 277.163 212.426 279.973L261.566 274.581C260.431 271.992 261.759 266.879 262.565 264.647C259.988 264.929 258.213 268.283 257.648 269.924L255.318 264.245L253.993 267.931C253.565 266.063 251.562 265.04 250.614 264.761C250.837 266.652 250.01 269.582 249.569 270.81L246.115 261.764C246.139 263.716 245.105 267.377 244.585 268.964C243.719 268.301 242.328 265.504 241.74 264.189C241.697 264.872 240.692 268.61 240.196 270.393C239.552 269.506 238.93 267.141 238.699 266.069C238.06 266.618 236.663 271.18 236.044 273.392C235.942 272.525 232.608 267.12 230.954 264.525C232.298 269.923 230.851 273.131 229.959 274.06C229.871 273.311 228.309 270.035 227.539 268.49C227.572 270.521 226.439 273.349 225.869 274.508C223.696 271.555 223.002 267.21 222.926 265.406C221.214 267.748 220.499 271.158 220.356 272.57C219.686 272.165 219.002 270.325 218.744 269.456L217.431 275.434C216.809 270.875 212.142 267.803 209.887 266.837Z" fill="#5B9B40"/>
<path d="M27.0508 278.195C29.719 282.026 29.6284 288.587 29.2496 291.388L78.5135 287.176C77.4456 284.561 78.906 279.482 79.7697 277.269C77.186 277.49 75.3247 280.799 74.717 282.427L72.5348 276.694L71.1151 280.347C70.7352 278.469 68.7591 277.398 67.8186 277.097C67.9934 278.992 67.0907 281.901 66.6174 283.119L63.3988 273.993C63.3722 275.945 62.2436 279.58 61.6827 281.153C60.8343 280.47 59.5159 277.641 58.9627 276.312C58.9016 276.994 57.8008 280.706 57.258 282.477C56.6375 281.575 56.0769 279.195 55.8743 278.118C55.2208 278.652 53.706 283.179 53.0303 285.375C52.9502 284.507 49.7576 279.023 48.1713 276.389C49.3747 281.818 47.8452 284.99 46.93 285.897C46.8608 285.147 45.3841 281.834 44.6544 280.271C44.6351 282.303 43.4294 285.102 42.8289 286.248C40.7331 283.243 40.1517 278.882 40.123 277.077C38.3511 279.378 37.548 282.769 37.3679 284.178C36.709 283.756 36.0728 281.901 35.8371 281.025L34.3705 286.971C33.866 282.398 29.2805 279.215 27.0508 278.195Z" fill="#5B9B40"/>
<path d="M-18.6758 281.861C-16.171 285.617 -16.3896 291.962 -16.812 294.665L30.9326 291.502C29.9517 288.952 31.4659 284.065 32.3456 281.94C29.8417 282.106 27.9749 285.274 27.3545 286.837L25.3578 281.25L23.9113 284.758C23.5813 282.934 21.6909 281.861 20.787 281.553C20.9183 283.39 19.9868 286.188 19.5047 287.357L16.5731 278.468C16.5084 280.356 15.3439 283.852 14.7698 285.364C13.9627 284.687 12.7436 281.926 12.235 280.63C12.1623 281.288 11.0232 284.859 10.4627 286.562C9.88039 285.678 9.38563 283.366 9.21104 282.32C8.56819 282.824 7.01234 287.175 6.31477 289.288C6.25459 288.446 3.27539 283.082 1.79331 280.505C2.84922 285.779 1.30612 288.819 0.402588 289.68C0.350615 288.953 -1.0119 285.721 -1.68666 284.195C-1.74588 286.16 -2.96822 288.846 -3.57199 289.943C-5.53964 286.998 -6.01504 282.768 -6.00679 281.021C-7.76687 283.214 -8.6116 286.48 -8.81396 287.84C-9.44297 287.42 -10.0214 285.613 -10.232 284.762L-11.7696 290.486C-12.1664 286.053 -16.539 282.889 -18.6758 281.861Z" fill="#5B9B40"/>
<path d="M766.042 295.49C767.763 299.635 766.3 305.825 765.353 308.403L812.856 314.002C812.394 311.32 814.843 306.798 816.124 304.872C813.633 304.578 811.177 307.348 810.26 308.769L809.399 302.92L807.289 306.1C807.323 304.25 805.678 302.851 804.851 302.384C804.619 304.211 803.154 306.788 802.45 307.849L801.32 298.586C800.885 300.428 799.054 303.649 798.193 305.028C797.534 304.216 796.88 301.283 796.636 299.918C796.435 300.551 794.614 303.85 793.728 305.42C793.331 304.445 793.3 302.085 793.334 301.026C792.604 301.404 790.22 305.393 789.119 307.34C789.226 306.502 787.356 300.692 786.408 297.891C786.407 303.262 784.294 305.966 783.237 306.647C783.329 305.923 782.627 302.501 782.265 300.88C781.82 302.799 780.091 305.213 779.283 306.18C777.93 302.93 778.295 298.69 778.647 296.976C776.487 298.808 775.015 301.861 774.549 303.159C774.014 302.632 773.802 300.752 773.762 299.878L771.127 305.219C771.609 300.793 767.938 296.889 766.042 295.49Z" fill="#5B9B40"/>
<path d="M856.006 302.975C857.978 307.014 856.899 313.277 856.113 315.904L903.877 318.784C903.251 316.133 905.416 311.479 906.577 309.483C904.072 309.332 901.791 312.237 900.963 313.708L899.743 307.918L897.833 311.214C897.753 309.364 896.025 308.062 895.171 307.642C895.051 309.48 893.747 312.136 893.11 313.235L891.413 304.053C891.092 305.917 889.462 309.236 888.687 310.662C887.979 309.889 887.146 306.998 886.818 305.649C886.656 306.293 885.042 309.69 884.254 311.308C883.797 310.358 883.621 308.003 883.59 306.944C882.884 307.363 880.75 311.481 879.771 313.487C879.826 312.645 877.602 306.951 876.483 304.209C876.813 309.571 874.87 312.391 873.857 313.131C873.904 312.403 872.993 309.027 872.531 307.43C872.205 309.37 870.628 311.879 869.881 312.891C868.33 309.723 868.434 305.47 868.68 303.739C866.637 305.691 865.355 308.823 864.97 310.145C864.403 309.649 864.076 307.785 863.982 306.914L861.68 312.396C861.889 307.951 857.984 304.263 856.006 302.975Z" fill="#5B9B40"/>
<path d="M673.351 281.481C674.812 285.717 672.968 291.812 671.864 294.331L718.936 302.645C718.641 299.941 721.365 295.567 722.764 293.718C720.295 293.282 717.672 295.906 716.669 297.272L716.171 291.384L713.867 294.438C714.016 292.592 712.461 291.102 711.664 290.588C711.319 292.398 709.697 294.887 708.93 295.905L708.375 286.594C707.827 288.408 705.8 291.518 704.855 292.846C704.247 291.997 703.775 289.032 703.616 287.655C703.376 288.276 701.354 291.464 700.373 292.98C700.036 291.985 700.152 289.627 700.251 288.572C699.499 288.907 696.873 292.752 695.654 294.633C695.812 293.803 694.305 287.895 693.531 285.045C693.198 290.407 690.922 292.985 689.825 293.603C689.961 292.887 689.472 289.43 689.211 287.792C688.648 289.681 686.773 291.992 685.906 292.911C684.757 289.589 685.384 285.377 685.841 283.687C683.572 285.392 681.914 288.355 681.368 289.624C680.867 289.067 680.771 287.178 680.786 286.304L677.824 291.484C678.58 287.094 675.157 282.986 673.351 281.481Z" fill="#5B9B40"/>
<path d="M900.503 310.498C902.888 314.498 902.324 321.037 901.744 323.806L951.193 322.901C950.316 320.221 952.14 315.251 953.161 313.102C950.568 313.149 948.472 316.326 947.748 317.909L945.985 312.044L944.305 315.593C944.062 313.695 942.168 312.494 941.251 312.13C941.289 314.033 940.178 316.875 939.618 318.058L937.066 308.738C936.899 310.684 935.511 314.234 934.838 315.767C934.04 315.028 932.929 312.118 932.474 310.755C932.363 311.431 930.997 315.06 930.328 316.791C929.774 315.849 929.387 313.438 929.262 312.35C928.572 312.838 926.734 317.253 925.901 319.399C925.884 318.527 923.095 312.843 921.703 310.11C922.511 315.606 920.757 318.667 919.778 319.511C919.763 318.758 918.529 315.355 917.914 313.747C917.748 315.772 916.343 318.484 915.662 319.587C913.788 316.449 913.523 312.06 913.624 310.258C911.691 312.434 910.645 315.764 910.363 317.156C909.736 316.692 909.236 314.798 909.064 313.909L907.171 319.742C906.998 315.147 902.654 311.665 900.503 310.498Z" fill="#5B9B40"/>
<path d="M719.018 288.283C720.617 292.631 718.841 298.965 717.753 301.589L766.565 309.259C766.203 306.471 768.925 301.899 770.331 299.961C767.771 299.559 765.116 302.321 764.109 303.752L763.47 297.678L761.154 300.878C761.27 298.969 759.631 297.459 758.797 296.944C758.479 298.821 756.855 301.425 756.084 302.491L755.314 292.882C754.786 294.767 752.757 298.019 751.809 299.41C751.162 298.545 750.613 295.49 750.419 294.071C750.185 294.717 748.163 298.05 747.181 299.637C746.812 298.615 746.882 296.176 746.962 295.084C746.192 295.445 743.559 299.469 742.339 301.436C742.485 300.575 740.804 294.501 739.944 291.571C739.713 297.118 737.415 299.826 736.295 300.486C736.421 299.743 735.843 296.181 735.538 294.494C734.997 296.457 733.108 298.881 732.232 299.848C730.974 296.437 731.533 292.074 731.97 290.318C729.661 292.124 728.01 295.218 727.474 296.54C726.944 295.975 726.805 294.025 726.802 293.121L723.851 298.531C724.539 293.98 720.916 289.803 719.018 288.283Z" fill="#5B9B40"/>
<path d="M809.302 301.938C811.573 305.999 810.823 312.521 810.164 315.274L859.621 315.671C858.821 312.969 860.785 308.049 861.867 305.927C859.273 305.906 857.088 309.027 856.319 310.59L854.724 304.681L852.943 308.184C852.754 306.28 850.895 305.03 849.989 304.643C849.972 306.545 848.781 309.357 848.188 310.525L845.902 301.141C845.679 303.082 844.191 306.595 843.474 308.108C842.698 307.349 841.67 304.411 841.253 303.036C841.124 303.709 839.655 307.301 838.937 309.013C838.41 308.058 838.091 305.637 837.998 304.546C837.294 305.016 835.331 309.381 834.438 311.504C834.446 310.632 831.819 304.877 830.505 302.108C831.157 307.623 829.316 310.637 828.314 311.455C828.32 310.702 827.184 307.267 826.614 305.644C826.391 307.664 824.91 310.338 824.197 311.422C822.413 308.237 822.272 303.842 822.425 302.043C820.43 304.168 819.29 307.468 818.969 308.853C818.356 308.373 817.909 306.466 817.763 305.573L815.705 311.354C815.663 306.755 811.419 303.16 809.302 301.938Z" fill="#5B9B40"/>
<path d="M628.665 271.784C630.616 275.996 629.365 282.446 628.496 285.144L677.785 289.077C677.195 286.325 679.534 281.56 680.776 279.521C678.191 279.315 675.771 282.271 674.885 283.774L673.749 277.767L671.703 281.134C671.662 279.221 669.904 277.842 669.03 277.391C668.867 279.287 667.463 282.005 666.781 283.128L665.225 273.607C664.853 275.526 663.098 278.923 662.266 280.381C661.551 279.568 660.753 276.565 660.443 275.164C660.262 275.826 658.52 279.303 657.672 280.959C657.22 279.968 657.089 277.532 657.08 276.437C656.342 276.856 654.048 281.068 652.993 283.121C653.068 282.252 650.893 276.325 649.796 273.47C650.021 279.016 647.952 281.891 646.89 282.634C646.954 281.884 646.086 278.377 645.643 276.718C645.265 278.716 643.581 281.277 642.787 282.307C641.253 279.003 641.452 274.61 641.744 272.827C639.59 274.803 638.199 278.013 637.772 279.371C637.197 278.848 636.899 276.915 636.821 276.014L634.324 281.632C634.636 277.043 630.681 273.154 628.665 271.784Z" fill="#5B9B40"/>
<path d="M582.959 267.895C584.762 272.007 583.423 278.223 582.529 280.818L630.135 285.534C629.619 282.861 631.977 278.294 633.22 276.345C630.723 276.098 628.323 278.912 627.435 280.351L626.456 274.518L624.41 277.737C624.407 275.886 622.735 274.519 621.899 274.067C621.703 275.898 620.29 278.502 619.608 279.575L618.292 270.335C617.894 272.185 616.128 275.439 615.295 276.834C614.619 276.035 613.907 273.114 613.635 271.754C613.447 272.391 611.692 275.722 610.839 277.309C610.421 276.342 610.343 273.982 610.356 272.923C609.634 273.314 607.33 277.347 606.269 279.314C606.359 278.475 604.373 272.7 603.368 269.917C603.475 275.287 601.416 278.03 600.374 278.73C600.451 278.005 599.681 274.597 599.286 272.983C598.88 274.909 597.2 277.355 596.411 278.337C594.993 275.112 595.274 270.866 595.591 269.147C593.468 271.018 592.058 274.098 591.618 275.404C591.072 274.888 590.822 273.012 590.765 272.139L588.237 277.527C588.631 273.094 584.882 269.258 582.959 267.895Z" fill="#5B9B40"/>
<path d="M536.283 263.87C538.282 268.063 537.104 274.525 536.265 277.232L585.595 280.651C584.975 277.906 587.259 273.116 588.479 271.065C585.892 270.885 583.505 273.866 582.635 275.379L581.432 269.384L579.425 272.772C579.361 270.86 577.588 269.498 576.71 269.057C576.568 270.954 575.194 273.688 574.525 274.817L572.862 265.313C572.512 267.236 570.794 270.65 569.98 272.117C569.256 271.312 568.423 268.317 568.098 266.92C567.924 267.583 566.222 271.079 565.392 272.743C564.929 271.757 564.771 269.322 564.749 268.228C564.016 268.654 561.769 272.89 560.738 274.954C560.803 274.084 558.561 268.18 557.432 265.336C557.72 270.88 555.683 273.776 554.629 274.531C554.685 273.78 553.777 270.282 553.316 268.628C552.96 270.63 551.306 273.208 550.523 274.246C548.952 270.958 549.102 266.564 549.373 264.778C547.242 266.776 545.887 270 545.475 271.363C544.895 270.846 544.575 268.916 544.487 268.016L542.053 273.659C542.314 269.067 538.315 265.22 536.283 263.87Z" fill="#5B9B40"/>
<path d="M398.334 257.474C400.409 261.465 399.491 267.752 398.772 270.396L446.595 272.14C445.902 269.505 447.947 264.801 449.057 262.778C446.549 262.687 444.342 265.645 443.553 267.135L442.185 261.376L440.359 264.716C440.232 262.869 438.471 261.608 437.606 261.209C437.534 263.049 436.299 265.735 435.69 266.849L433.757 257.71C433.484 259.581 431.94 262.938 431.202 264.382C430.475 263.626 429.568 260.756 429.205 259.415C429.06 260.063 427.533 263.497 426.787 265.133C426.306 264.194 426.069 261.844 426.011 260.786C425.317 261.222 423.289 265.389 422.362 267.418C422.395 266.575 420.025 260.936 418.836 258.222C419.304 263.574 417.433 266.439 416.44 267.202C416.468 266.474 415.471 263.121 414.968 261.535C414.692 263.483 413.18 266.028 412.459 267.057C410.828 263.927 410.822 259.673 411.023 257.937C409.031 259.937 407.83 263.098 407.479 264.429C406.9 263.947 406.524 262.091 406.409 261.223L404.248 266.758C404.343 262.309 400.345 258.715 398.334 257.474Z" fill="#5B9B40"/>
<path d="M492.738 258.492C494.501 262.619 493.102 268.824 492.182 271.41L539.739 276.559C539.25 273.881 541.652 269.336 542.914 267.398C540.42 267.128 537.992 269.921 537.09 271.351L536.169 265.51L534.091 268.71C534.107 266.859 532.448 265.477 531.616 265.017C531.402 266.846 529.964 269.437 529.271 270.504L528.047 261.253C527.631 263.099 525.832 266.337 524.985 267.724C524.318 266.919 523.634 263.992 523.376 262.629C523.181 263.264 521.394 266.58 520.525 268.158C520.117 267.188 520.062 264.827 520.085 263.768C519.359 264.153 517.016 268.164 515.936 270.122C516.033 269.283 514.104 263.491 513.127 260.699C513.182 266.07 511.096 268.794 510.047 269.484C510.131 268.76 509.394 265.345 509.015 263.728C508.59 265.65 506.886 268.081 506.087 269.056C504.702 265.818 505.024 261.575 505.358 259.858C503.217 261.71 501.776 264.777 501.324 266.079C500.783 265.558 500.551 263.68 500.503 262.806L497.922 268.172C498.359 263.742 494.648 259.872 492.738 258.492Z" fill="#5B9B40"/>
<path d="M442.003 260.405C444.619 264.269 444.44 270.828 444.024 273.625L493.34 270.027C492.308 267.399 493.836 262.338 494.729 260.136C492.143 260.325 490.237 263.611 489.608 265.23L487.503 259.471L486.034 263.106C485.68 261.224 483.718 260.128 482.782 259.815C482.931 261.712 481.989 264.61 481.5 265.822L478.404 256.656C478.351 258.608 477.174 262.229 476.592 263.795C475.753 263.101 474.472 260.256 473.937 258.92C473.867 259.601 472.716 263.299 472.15 265.063C471.541 264.153 471.013 261.767 470.825 260.688C470.164 261.213 468.588 265.72 467.883 267.909C467.815 267.039 464.696 261.516 463.146 258.863C464.276 264.306 462.704 267.458 461.776 268.354C461.717 267.603 460.285 264.272 459.577 262.701C459.53 264.732 458.287 267.516 457.671 268.654C455.616 265.623 455.093 261.256 455.089 259.451C453.286 261.729 452.437 265.11 452.238 266.516C451.585 266.086 450.974 264.223 450.75 263.345L449.204 269.271C448.761 264.692 444.218 261.453 442.003 260.405Z" fill="#5B9B40"/>
<path d="M-897.549 300.998L-462.437 269.764C-321.252 259.629 -179.35 267.708 -40.2278 293.802V293.802C114.289 322.784 272.155 329.528 428.58 313.831L569.843 299.655C696.818 286.913 824.721 286.353 951.803 297.982L1207.14 321.348C1324.56 332.094 1442.71 332.434 1560.19 322.364L1891.25 293.99C1996.03 285.009 2101.35 284.307 2206.24 291.889L2867.48 339.689C2967.03 346.885 3066.98 346.619 3166.49 338.894L3654.62 300.998L4556 339.998L4556 380.998L3654.62 380.998L-897.549 380.998L-897.549 300.998Z" fill="#70AE3E"/>
<path d="M780.049 281.053C782.231 284.965 781.575 291.281 780.974 293.95L827.792 293.95C827.013 291.342 828.831 286.567 829.838 284.505C827.383 284.505 825.34 287.541 824.625 289.06L823.066 283.354L821.41 286.758C821.215 284.917 819.445 283.722 818.584 283.354C818.584 285.195 817.48 287.925 816.928 289.06L814.687 279.998C814.492 281.877 813.112 285.288 812.446 286.758C811.706 286.03 810.708 283.194 810.302 281.868C810.186 282.52 808.825 286.007 808.159 287.669C807.652 286.749 807.331 284.409 807.233 283.354C806.571 283.814 804.749 288.053 803.92 290.114C803.92 289.271 801.387 283.722 800.12 281.053C800.783 286.384 799.065 289.315 798.123 290.114C798.123 289.386 797.019 286.071 796.467 284.505C796.272 286.461 794.891 289.06 794.226 290.114C792.511 287.046 792.342 282.795 792.472 281.053C790.601 283.124 789.549 286.327 789.256 287.669C788.672 287.209 788.233 285.368 788.087 284.505L786.187 290.114C786.109 285.665 782.062 282.22 780.049 281.053Z" fill="#70AE3E"/>
<path d="M599.181 289.053C601.364 292.965 600.708 299.281 600.107 301.95L646.924 301.95C646.145 299.342 647.964 294.567 648.971 292.505C646.515 292.505 644.472 295.541 643.758 297.06L642.199 291.354L640.542 294.758C640.348 292.917 638.577 291.722 637.717 291.354C637.717 293.195 636.613 295.925 636.06 297.06L633.819 287.998C633.624 289.877 632.244 293.288 631.578 294.758C630.838 294.03 629.841 291.194 629.435 289.868C629.318 290.52 627.957 294.007 627.291 295.669C626.785 294.749 626.463 292.409 626.366 291.354C625.703 291.814 623.881 296.053 623.053 298.114C623.053 297.271 620.519 291.722 619.253 289.053C619.915 294.384 618.197 297.315 617.255 298.114C617.255 297.386 616.151 294.071 615.599 292.505C615.404 294.461 614.024 297.06 613.358 298.114C611.643 295.046 611.474 290.795 611.604 289.053C609.733 291.124 608.681 294.327 608.389 295.669C607.804 295.209 607.366 293.368 607.22 292.505L605.32 298.114C605.242 293.665 601.195 290.22 599.181 289.053Z" fill="#70AE3E"/>
<path d="M687.46 285.953C689.875 289.732 689.6 296.075 689.161 298.774L735.896 296.044C734.961 293.486 736.489 288.613 737.37 286.497C734.919 286.64 733.063 289.79 732.441 291.347L730.541 285.743L729.093 289.237C728.787 287.411 726.948 286.321 726.067 286.004C726.178 287.842 725.24 290.631 724.757 291.796L721.974 282.881C721.893 284.768 720.72 288.253 720.144 289.76C719.361 289.076 718.195 286.304 717.71 285.003C717.633 285.661 716.484 289.221 715.919 290.919C715.358 290.03 714.896 287.713 714.736 286.666C714.102 287.164 712.538 291.501 711.836 293.607C711.785 292.765 708.922 287.374 707.497 284.783C708.479 290.067 706.941 293.093 706.048 293.945C706.005 293.218 704.703 289.973 704.057 288.442C703.98 290.406 702.759 293.081 702.158 294.173C700.261 291.209 699.837 286.976 699.862 285.229C698.119 287.406 697.261 290.664 697.05 292.021C696.439 291.596 695.89 289.784 695.693 288.931L694.134 294.641C693.788 290.204 689.541 287.001 687.46 285.953Z" fill="#70AE3E"/>
<path d="M508.509 297.953C510.923 301.732 510.648 308.075 510.209 310.774L556.945 308.044C556.009 305.486 557.538 300.613 558.419 298.497C555.967 298.64 554.111 301.79 553.489 303.347L551.589 297.743L550.141 301.237C549.835 299.411 547.997 298.321 547.115 298.004C547.226 299.842 546.288 302.631 545.805 303.796L543.023 294.881C542.941 296.768 541.769 300.253 541.193 301.76C540.409 301.076 539.243 298.304 538.758 297.003C538.681 297.661 537.532 301.221 536.968 302.919C536.407 302.03 535.945 299.713 535.784 298.666C535.15 299.164 533.587 303.501 532.884 305.607C532.833 304.765 529.97 299.374 528.545 296.783C529.528 302.067 527.989 305.093 527.097 305.945C527.053 305.218 525.751 301.973 525.106 300.442C525.029 302.406 523.807 305.081 523.206 306.173C521.31 303.209 520.885 298.976 520.91 297.229C519.167 299.406 518.31 302.664 518.099 304.021C517.487 303.596 516.939 301.784 516.741 300.931L515.182 306.641C514.836 302.204 510.589 299.001 508.509 297.953Z" fill="#70AE3E"/>
<path d="M734.384 282.831C736.859 286.748 736.541 293.301 736.073 296.089L784.385 293.508C783.432 290.86 785.037 285.832 785.959 283.649C783.425 283.784 781.49 287.03 780.839 288.636L778.906 282.834L777.39 286.439C777.084 284.549 775.189 283.413 774.28 283.082C774.385 284.981 773.401 287.859 772.896 289.06L770.068 279.833C769.973 281.783 768.743 285.379 768.14 286.933C767.334 286.221 766.144 283.351 765.649 282.004C765.566 282.684 764.36 286.357 763.768 288.109C763.192 287.187 762.727 284.79 762.567 283.707C761.909 284.219 760.27 288.693 759.533 290.866C759.485 289.995 756.555 284.409 755.096 281.724C756.083 287.19 754.477 290.309 753.551 291.185C753.509 290.433 752.181 287.074 751.522 285.488C751.432 287.517 750.156 290.275 749.529 291.4C747.585 288.328 747.168 283.951 747.203 282.146C745.391 284.386 744.487 287.749 744.262 289.151C743.632 288.708 743.075 286.832 742.875 285.95L741.234 291.843C740.9 287.256 736.528 283.924 734.384 282.831Z" fill="#70AE3E"/>
<path d="M553.543 294.077C556.115 297.932 555.962 304.492 555.564 307.29L603.797 303.536C602.778 300.911 604.256 295.846 605.123 293.641C602.593 293.838 600.74 297.13 600.13 298.751L598.051 292.999L596.627 296.638C596.273 294.757 594.351 293.668 593.434 293.358C593.586 295.255 592.674 298.155 592.2 299.369L589.141 290.213C589.095 292.165 587.956 295.789 587.392 297.357C586.568 296.666 585.306 293.825 584.778 292.491C584.712 293.172 583.599 296.874 583.05 298.639C582.452 297.732 581.927 295.347 581.739 294.268C581.095 294.795 579.569 299.308 578.886 301.498C578.816 300.629 575.747 295.116 574.221 292.468C575.345 297.907 573.818 301.064 572.914 301.963C572.853 301.212 571.441 297.886 570.743 296.317C570.704 298.348 569.497 301.136 568.898 302.276C566.878 299.252 566.352 294.886 566.341 293.081C564.586 295.365 563.767 298.749 563.577 300.155C562.936 299.728 562.332 297.866 562.11 296.989L560.617 302.92C560.168 298.343 555.714 295.117 553.543 294.077Z" fill="#70AE3E"/>
<path d="M641.983 290.39C644.689 294.155 644.767 300.716 644.467 303.526L692.539 298.133C691.428 295.545 692.728 290.432 693.517 288.199C690.996 288.482 689.259 291.835 688.706 293.477L686.427 287.798L685.131 291.484C684.712 289.616 682.752 288.592 681.825 288.314C682.044 290.205 681.234 293.135 680.802 294.363L677.424 285.317C677.447 287.269 676.435 290.93 675.927 292.516C675.08 291.853 673.719 289.057 673.144 287.742C673.101 288.425 672.119 292.162 671.633 293.946C671.003 293.059 670.395 290.693 670.169 289.622C669.544 290.17 668.177 294.732 667.572 296.945C667.471 296.078 664.21 290.672 662.592 288.078C663.907 293.476 662.491 296.683 661.619 297.612C661.532 296.864 660.004 293.588 659.251 292.043C659.284 294.074 658.175 296.901 657.617 298.061C655.491 295.108 654.812 290.762 654.739 288.959C653.064 291.301 652.364 294.711 652.224 296.123C651.569 295.718 650.9 293.878 650.647 293.008L649.363 298.987C648.754 294.428 644.189 291.356 641.983 290.39Z" fill="#70AE3E"/>
<path d="M463.12 301.748C465.731 305.579 465.642 312.139 465.271 314.941L513.465 310.729C512.42 308.114 513.849 303.034 514.694 300.822C512.166 301.043 510.345 304.352 509.751 305.979L507.616 300.246L506.227 303.9C505.856 302.022 503.922 300.951 503.002 300.65C503.173 302.545 502.29 305.454 501.827 306.672L498.679 297.546C498.653 299.498 497.549 303.133 497 304.706C496.17 304.023 494.88 301.194 494.339 299.865C494.279 300.547 493.202 304.259 492.671 306.03C492.064 305.128 491.516 302.748 491.318 301.671C490.678 302.204 489.196 306.731 488.535 308.928C488.457 308.059 485.334 302.575 483.782 299.942C484.959 305.371 483.463 308.542 482.568 309.45C482.5 308.699 481.055 305.387 480.341 303.824C480.323 305.855 479.143 308.655 478.556 309.8C476.505 306.796 475.937 302.435 475.909 300.63C474.175 302.931 473.389 306.322 473.213 307.73C472.569 307.309 471.946 305.453 471.716 304.578L470.281 310.524C469.787 305.95 465.302 302.768 463.12 301.748Z" fill="#70AE3E"/>
<path d="M418.387 305.414C420.837 309.169 420.623 315.515 420.21 318.218L466.917 315.054C465.957 312.505 467.439 307.618 468.299 305.493C465.85 305.659 464.024 308.826 463.417 310.389L461.463 304.803L460.048 308.311C459.725 306.487 457.876 305.414 456.992 305.106C457.12 306.942 456.209 309.74 455.737 310.91L452.869 302.021C452.806 303.909 451.667 307.405 451.105 308.917C450.316 308.239 449.123 305.478 448.626 304.182C448.555 304.841 447.44 308.412 446.892 310.115C446.322 309.231 445.838 306.918 445.667 305.873C445.039 306.377 443.516 310.728 442.834 312.841C442.775 311.999 439.861 306.634 438.411 304.057C439.444 309.332 437.934 312.372 437.05 313.233C437 312.506 435.667 309.273 435.007 307.748C434.949 309.713 433.753 312.399 433.162 313.496C431.237 310.551 430.772 306.321 430.78 304.574C429.058 306.767 428.232 310.033 428.034 311.392C427.419 310.973 426.853 309.165 426.647 308.314L425.143 314.039C424.755 309.606 420.477 306.441 418.387 305.414Z" fill="#70AE3E"/>
<path d="M372.698 309.108C375.35 312.911 375.334 319.472 374.994 322.277L423.138 317.552C422.065 314.949 423.438 309.854 424.258 307.633C421.733 307.881 419.949 311.209 419.372 312.843L417.175 307.133L415.826 310.801C415.434 308.927 413.489 307.876 412.566 307.585C412.758 309.479 411.907 312.397 411.457 313.62L408.208 304.527C408.204 306.48 407.14 310.126 406.608 311.705C405.771 311.031 404.45 308.216 403.894 306.893C403.842 307.575 402.806 311.299 402.294 313.075C401.677 312.179 401.103 309.806 400.893 308.731C400.26 309.271 398.828 313.814 398.191 316.017C398.103 315.149 394.919 309.699 393.339 307.082C394.576 312.498 393.114 315.686 392.229 316.602C392.153 315.853 390.672 312.556 389.941 311.001C389.945 313.032 388.796 315.844 388.221 316.996C386.138 314.013 385.521 309.659 385.473 307.854C383.765 310.173 383.017 313.573 382.856 314.983C382.207 314.568 381.564 312.719 381.324 311.847L379.955 317.807C379.411 313.239 374.891 310.105 372.698 309.108Z" fill="#70AE3E"/>
<path d="M241.51 314.053C243.693 317.965 243.037 324.281 242.436 326.95L289.254 326.95C288.474 324.342 290.293 319.567 291.3 317.505C288.844 317.505 286.801 320.541 286.087 322.06L284.528 316.354L282.871 319.758C282.677 317.917 280.907 316.722 280.046 316.354C280.046 318.195 278.942 320.925 278.389 322.06L276.148 312.998C275.954 314.877 274.573 318.288 273.907 319.758C273.167 319.03 272.17 316.194 271.764 314.868C271.647 315.52 270.286 319.007 269.62 320.669C269.114 319.749 268.792 317.409 268.695 316.354C268.032 316.814 266.21 321.053 265.382 323.114C265.382 322.271 262.849 316.722 261.582 314.053C262.244 319.384 260.526 322.315 259.584 323.114C259.584 322.386 258.48 319.071 257.928 317.505C257.733 319.461 256.353 322.06 255.687 323.114C253.972 320.046 253.803 315.795 253.933 314.053C252.062 316.124 251.01 319.327 250.718 320.669C250.133 320.209 249.695 318.368 249.549 317.505L247.649 323.114C247.571 318.665 243.524 315.22 241.51 314.053Z" fill="#70AE3E"/>
<path d="M329.79 310.953C332.204 314.732 331.93 321.075 331.49 323.774L378.226 321.044C377.291 318.486 378.819 313.613 379.7 311.497C377.249 311.64 375.392 314.79 374.77 316.347L372.871 310.743L371.422 314.237C371.117 312.411 369.278 311.321 368.397 311.004C368.507 312.842 367.569 315.631 367.086 316.796L364.304 307.881C364.223 309.768 363.05 313.253 362.474 314.76C361.691 314.076 360.525 311.304 360.04 310.003C359.962 310.661 358.814 314.221 358.249 315.919C357.688 315.03 357.226 312.713 357.065 311.666C356.432 312.164 354.868 316.501 354.165 318.607C354.114 317.765 351.252 312.374 349.826 309.783C350.809 315.067 349.27 318.093 348.378 318.945C348.334 318.218 347.032 314.973 346.387 313.442C346.31 315.406 345.089 318.081 344.487 319.173C342.591 316.209 342.166 311.976 342.191 310.229C340.448 312.406 339.591 315.664 339.38 317.021C338.768 316.596 338.22 314.784 338.022 313.931L336.463 319.641C336.118 315.204 331.87 312.001 329.79 310.953Z" fill="#70AE3E"/>
<path d="M284.312 315.39C287.019 319.155 287.096 325.716 286.797 328.526L334.869 323.133C333.758 320.545 335.058 315.432 335.846 313.199C333.325 313.482 331.589 316.835 331.035 318.477L328.756 312.798L327.46 316.484C327.041 314.616 325.082 313.592 324.154 313.314C324.373 315.205 323.564 318.135 323.132 319.363L319.753 310.317C319.777 312.269 318.765 315.93 318.256 317.516C317.409 316.853 316.048 314.057 315.474 312.742C315.431 313.425 314.448 317.162 313.962 318.946C313.333 318.059 312.724 315.693 312.499 314.622C311.873 315.17 310.506 319.732 309.901 321.945C309.801 321.078 306.54 315.672 304.922 313.078C306.236 318.476 304.821 321.683 303.949 322.612C303.862 321.864 302.334 318.588 301.581 317.043C301.613 319.074 300.505 321.901 299.947 323.061C297.821 320.108 297.142 315.762 297.068 313.959C295.394 316.301 294.694 319.711 294.554 321.123C293.899 320.718 293.229 318.878 292.977 318.008L291.693 323.987C291.084 319.428 286.519 316.356 284.312 315.39Z" fill="#70AE3E"/>
<path d="M195.781 309.857C197.822 313.842 196.941 320.132 196.245 322.778L243.034 324.4C242.348 321.766 244.336 317.057 245.416 315.031C242.962 314.946 240.812 317.91 240.044 319.402L238.69 313.647L236.913 316.991C236.784 315.144 235.058 313.888 234.211 313.491C234.145 315.331 232.944 318.021 232.351 319.136L230.436 310.002C230.174 311.874 228.672 315.234 227.954 316.681C227.24 315.927 226.345 313.059 225.987 311.719C225.847 312.367 224.362 315.805 223.637 317.443C223.164 316.505 222.926 314.156 222.866 313.098C222.188 313.535 220.215 317.708 219.314 319.74C219.344 318.896 217.011 313.263 215.84 310.552C216.312 315.903 214.49 318.773 213.52 319.539C213.546 318.811 212.561 315.46 212.065 313.875C211.801 315.824 210.328 318.373 209.625 319.404C208.021 316.278 208.004 312.024 208.196 310.287C206.253 312.292 205.087 315.457 204.746 316.788C204.179 316.308 203.806 314.453 203.691 313.585L201.592 319.125C201.673 314.676 197.752 311.093 195.781 309.857Z" fill="#70AE3E"/>
<path d="M18.5431 295.047C20.2263 299.191 18.7952 305.382 17.8692 307.959L64.3398 313.559C63.8882 310.877 66.2832 306.354 67.5371 304.428C65.1 304.135 62.6973 306.904 61.8005 308.326L60.9577 302.476L58.8932 305.657C58.9271 303.806 57.3178 302.408 56.5089 301.94C56.2815 303.768 54.8484 306.345 54.1602 307.405L53.0548 298.143C52.6293 299.985 50.838 303.205 49.9956 304.585C49.3506 303.773 48.711 300.84 48.4718 299.474C48.2752 300.108 46.4939 303.406 45.6277 304.976C45.2385 304.002 45.2083 301.641 45.2418 300.583C44.5273 300.96 42.1954 304.949 41.1188 306.897C41.223 306.059 39.3937 300.248 38.466 297.448C38.4652 302.819 36.3979 305.523 35.3644 306.203C35.4543 305.48 34.7676 302.058 34.4129 300.437C33.978 302.355 32.287 304.77 31.4958 305.737C30.1726 302.486 30.5299 298.246 30.874 296.533C28.7613 298.365 27.3213 301.418 26.8654 302.716C26.342 302.189 26.1341 300.309 26.0956 299.435L23.517 304.776C23.9891 300.35 20.3978 296.446 18.5431 295.047Z" fill="#70AE3E"/>
<path d="M106.552 302.529C108.481 306.568 107.425 312.832 106.656 315.458L153.382 318.339C152.77 315.688 154.889 311.033 156.024 309.038C153.574 308.887 151.342 311.792 150.532 313.263L149.339 307.473L147.47 310.768C147.392 308.919 145.701 307.617 144.866 307.197C144.749 309.034 143.473 311.691 142.85 312.789L141.189 303.608C140.875 305.471 139.281 308.79 138.523 310.217C137.83 309.444 137.015 306.553 136.694 305.204C136.536 305.848 134.957 309.244 134.186 310.862C133.739 309.912 133.567 307.557 133.537 306.499C132.846 306.917 130.759 311.035 129.801 313.042C129.855 312.2 127.679 306.506 126.584 303.764C126.907 309.126 125.006 311.946 124.015 312.685C124.061 311.958 123.17 308.582 122.718 306.985C122.399 308.925 120.857 311.434 120.125 312.445C118.609 309.277 118.71 305.024 118.95 303.294C116.952 305.246 115.698 308.377 115.321 309.699C114.767 309.204 114.446 307.339 114.355 306.469L112.102 311.951C112.307 307.505 108.487 303.818 106.552 302.529Z" fill="#70AE3E"/>
<path d="M150.082 310.053C152.415 314.053 151.863 320.592 151.296 323.361L199.67 322.455C198.813 319.775 200.596 314.806 201.596 312.656C199.059 312.704 197.008 315.881 196.3 317.463L194.576 311.598L192.932 315.148C192.694 313.249 190.841 312.048 189.945 311.685C189.981 313.587 188.895 316.429 188.347 317.612L185.851 308.293C185.687 310.238 184.329 313.789 183.67 315.321C182.89 314.583 181.803 311.672 181.358 310.31C181.25 310.986 179.913 314.615 179.259 316.345C178.717 315.404 178.338 312.993 178.216 311.905C177.541 312.393 175.743 316.808 174.928 318.954C174.911 318.082 172.183 312.398 170.821 309.664C171.612 315.16 169.895 318.222 168.938 319.066C168.923 318.313 167.716 314.91 167.114 313.302C166.952 315.327 165.578 318.039 164.911 319.141C163.078 316.004 162.818 311.615 162.918 309.812C161.026 311.989 160.003 315.318 159.728 316.711C159.114 316.247 158.625 314.353 158.456 313.464L156.605 319.297C156.436 314.701 152.186 311.219 150.082 310.053Z" fill="#70AE3E"/>
<path d="M-27.4597 287.838C-25.8954 292.185 -27.6329 298.52 -28.6972 301.144L19.0541 308.814C18.7003 306.026 21.3631 301.453 22.7387 299.516C20.2344 299.113 17.6371 301.876 16.6515 303.307L16.0266 297.232L13.7613 300.433C13.874 298.523 12.2708 297.014 11.4552 296.498C11.1437 298.376 9.55572 300.979 8.80064 302.046L8.04775 292.437C7.53108 294.322 5.54632 297.574 4.61852 298.965C3.98652 298.1 3.44913 295.045 3.25943 293.625C3.02988 294.271 1.05202 297.605 0.0917844 299.191C-0.269269 298.169 -0.201445 295.73 -0.1224 294.639C-0.87603 294.999 -3.45134 299.024 -4.64479 300.991C-4.50205 300.13 -6.14728 294.056 -6.98773 291.126C-7.2138 296.672 -9.46197 299.38 -10.5578 300.041C-10.4345 299.298 -11.0001 295.736 -11.2983 294.048C-11.828 296.011 -13.6754 298.436 -14.5329 299.403C-15.7629 295.992 -15.2161 291.628 -14.7889 289.873C-17.0474 291.679 -18.6624 294.773 -19.1876 296.094C-19.706 295.529 -19.8418 293.58 -19.8449 292.675L-22.7316 298.086C-22.0585 293.535 -25.6032 289.357 -27.4597 287.838Z" fill="#70AE3E"/>
<path d="M60.8619 301.492C63.0831 305.554 62.3498 312.075 61.7055 314.828L110.087 315.225C109.304 312.523 111.226 307.604 112.284 305.482C109.747 305.461 107.609 308.582 106.857 310.145L105.296 304.235L103.555 307.739C103.369 305.835 101.551 304.584 100.665 304.197C100.648 306.1 99.4834 308.911 98.9029 310.079L96.6663 300.696C96.4485 302.637 94.9922 306.149 94.2913 307.663C93.5324 306.904 92.5269 303.965 92.1189 302.591C91.9924 303.264 90.5556 306.856 89.853 308.568C89.3374 307.613 89.0256 305.192 88.9342 304.101C88.2455 304.571 86.3255 308.936 85.4516 311.059C85.4589 310.187 82.8896 304.431 81.604 301.663C82.242 307.178 80.4408 310.192 79.4605 311.01C79.4669 310.257 78.3548 306.822 77.7979 305.199C77.5794 307.219 76.1302 309.893 75.4329 310.977C73.6876 307.791 73.5503 303.397 73.6998 301.598C71.7484 303.722 70.633 307.023 70.3191 308.408C69.719 307.927 69.282 306.021 69.1386 305.128L67.126 310.909C67.0844 306.31 62.9326 302.715 60.8619 301.492Z" fill="#70AE3E"/>
<path d="M825.587 282.474C827.617 286.465 826.719 292.752 826.016 295.396L872.8 297.14C872.121 294.505 874.122 289.801 875.208 287.778C872.754 287.687 870.596 290.645 869.824 292.135L868.485 286.376L866.699 289.716C866.575 287.869 864.852 286.608 864.006 286.209C863.936 288.049 862.727 290.735 862.132 291.849L860.241 282.71C859.974 284.581 858.463 287.938 857.741 289.382C857.029 288.626 856.142 285.756 855.787 284.415C855.646 285.063 854.152 288.497 853.422 290.133C852.951 289.194 852.72 286.844 852.663 285.786C851.984 286.222 850 290.389 849.093 292.418C849.125 291.575 846.807 285.936 845.644 283.222C846.101 288.574 844.272 291.439 843.3 292.202C843.328 291.474 842.352 288.121 841.86 286.535C841.59 288.483 840.111 291.028 839.405 292.057C837.809 288.927 837.804 284.673 838.001 282.937C836.052 284.937 834.877 288.098 834.533 289.429C833.967 288.947 833.6 287.091 833.487 286.223L831.372 291.758C831.466 287.309 827.554 283.715 825.587 282.474Z" fill="#70AE3E"/>
<path d="M868.307 285.405C870.866 289.269 870.691 295.828 870.284 298.625L918.529 295.027C917.519 292.399 919.014 287.338 919.888 285.136C917.358 285.325 915.494 288.611 914.878 290.23L912.818 284.471L911.382 288.106C911.035 286.224 909.116 285.128 908.2 284.815C908.346 286.712 907.425 289.61 906.946 290.822L903.917 281.656C903.866 283.608 902.714 287.229 902.144 288.795C901.323 288.101 900.071 285.256 899.547 283.92C899.479 284.601 898.353 288.299 897.799 290.063C897.204 289.153 896.687 286.767 896.503 285.688C895.856 286.213 894.315 290.72 893.625 292.909C893.558 292.039 890.507 286.516 888.99 283.863C890.096 289.306 888.558 292.458 887.651 293.354C887.593 292.603 886.192 289.272 885.499 287.701C885.453 289.732 884.237 292.516 883.635 293.654C881.624 290.623 881.113 286.256 881.109 284.451C879.345 286.729 878.515 290.11 878.32 291.516C877.681 291.086 877.083 289.223 876.864 288.345L875.351 294.271C874.918 289.692 870.474 286.453 868.307 285.405Z" fill="#70AE3E"/>
<path d="M799.354 304.053C801.537 307.965 800.881 314.281 800.28 316.95L847.098 316.95C846.318 314.342 848.137 309.567 849.144 307.505C846.689 307.505 844.646 310.541 843.931 312.06L842.372 306.354L840.716 309.758C840.521 307.917 838.751 306.722 837.89 306.354C837.89 308.195 836.786 310.925 836.234 312.06L833.993 302.998C833.798 304.877 832.418 308.288 831.752 309.758C831.011 309.03 830.014 306.194 829.608 304.868C829.491 305.52 828.13 309.007 827.465 310.669C826.958 309.749 826.636 307.409 826.539 306.354C825.876 306.814 824.054 311.053 823.226 313.114C823.226 312.271 820.693 306.722 819.426 304.053C820.089 309.384 818.371 312.315 817.429 313.114C817.429 312.386 816.324 309.071 815.772 307.505C815.577 309.461 814.197 312.06 813.531 313.114C811.816 310.046 811.648 305.795 811.777 304.053C809.907 306.124 808.854 309.327 808.562 310.669C807.978 310.209 807.539 308.368 807.393 307.505L805.493 313.114C805.415 308.665 801.368 305.22 799.354 304.053Z" fill="#5B9B40"/>
<path d="M2.76586 307.998C2.76586 309.839 1.6616 312.569 1.10946 313.704C0.592128 315.151 -1.02855 318.156 -3.37256 318.594L11.9735 318.594C11.194 315.986 13.0128 311.21 14.0196 309.149C11.5643 309.149 9.52137 312.185 8.80684 313.704L7.24788 307.998L5.59148 311.402C5.39661 309.561 3.62654 308.366 2.76586 307.998Z" fill="#5B9B40"/>
<path d="M655.109 303.998C655.109 305.839 654.004 308.569 653.452 309.704C652.935 311.151 651.314 314.156 648.97 314.594L664.316 314.594C663.537 311.986 665.356 307.21 666.362 305.149C663.907 305.149 661.864 308.185 661.15 309.704L659.591 303.998L657.934 307.402C657.739 305.561 655.969 304.366 655.109 303.998Z" fill="#5B9B40"/>
<path d="M307.599 291.998C307.599 293.839 306.495 296.569 305.942 297.704C305.425 299.151 303.804 302.156 301.46 302.594L316.806 302.594C316.027 299.986 317.846 295.21 318.853 293.149C316.397 293.149 314.354 296.185 313.64 297.704L312.081 291.998L310.424 295.402C310.23 293.561 308.46 292.366 307.599 291.998Z" fill="#70AE3E"/>
<path d="M501.676 276.998C501.676 278.839 500.572 281.569 500.02 282.704C499.502 284.151 497.882 287.156 495.538 287.594L510.884 287.594C510.104 284.986 511.923 280.21 512.93 278.149C510.474 278.149 508.432 281.185 507.717 282.704L506.158 276.998L504.502 280.402C504.307 278.561 502.537 277.366 501.676 276.998Z" fill="#70AE3E"/>
<path d="M380.717 278.053C382.9 281.965 382.244 288.281 381.643 290.95L428.461 290.95C427.681 288.342 429.5 283.567 430.507 281.505C428.051 281.505 426.008 284.541 425.294 286.06L423.735 280.354L422.079 283.758C421.884 281.917 420.114 280.722 419.253 280.354C419.253 282.195 418.149 284.925 417.597 286.06L415.355 276.998C415.161 278.877 413.78 282.288 413.114 283.758C412.374 283.03 411.377 280.194 410.971 278.868C410.854 279.52 409.493 283.007 408.827 284.669C408.321 283.749 407.999 281.409 407.902 280.354C407.239 280.814 405.417 285.053 404.589 287.114C404.589 286.271 402.056 280.722 400.789 278.053C401.451 283.384 399.733 286.315 398.792 287.114C398.792 286.386 397.687 283.071 397.135 281.505C396.94 283.461 395.56 286.06 394.894 287.114C393.179 284.046 393.01 279.795 393.14 278.053C391.27 280.124 390.217 283.327 389.925 284.669C389.34 284.209 388.902 282.368 388.756 281.505L386.856 287.114C386.778 282.665 382.731 279.22 380.717 278.053Z" fill="#70AE3E"/>
<path d="M135.834 291.053C138.017 294.965 137.361 301.281 136.76 303.95L183.578 303.95C182.798 301.342 184.617 296.567 185.624 294.505C183.168 294.505 181.126 297.541 180.411 299.06L178.852 293.354L177.196 296.758C177.001 294.917 175.231 293.722 174.37 293.354C174.37 295.195 173.266 297.925 172.714 299.06L170.473 289.998C170.278 291.877 168.897 295.288 168.232 296.758C167.491 296.03 166.494 293.194 166.088 291.868C165.971 292.52 164.61 296.007 163.945 297.669C163.438 296.749 163.116 294.409 163.019 293.354C162.356 293.814 160.534 298.053 159.706 300.114C159.706 299.271 157.173 293.722 155.906 291.053C156.569 296.384 154.851 299.315 153.909 300.114C153.909 299.386 152.804 296.071 152.252 294.505C152.057 296.461 150.677 299.06 150.011 300.114C148.296 297.046 148.128 292.795 148.257 291.053C146.387 293.124 145.334 296.327 145.042 297.669C144.457 297.209 144.019 295.368 143.873 294.505L141.973 300.114C141.895 295.665 137.848 292.22 135.834 291.053Z" fill="#70AE3E"/>
</g>
<rect y="381" width="4480" height="31" fill="#70AE3E"/>
</g>
<path d="M272.372 274.001C269.309 273.954 263.721 275.33 265.87 281.21C269.262 283.33 272.937 277.252 272.372 274.001Z" fill="#25861F" stroke="#25861F" stroke-width="0.423251"/>
<path d="M271.186 275.414L269.207 277.393M265.956 280.644L266.804 279.796M268.924 275.838C269.16 276.215 269.461 277.138 268.783 277.817M268.783 277.817L269.207 277.393M268.783 277.817L267.087 279.513M267.087 277.393C267.228 277.911 267.37 279.117 266.804 279.796M266.804 279.796L267.087 279.513M271.186 277.11C270.903 277.016 270.112 276.941 269.207 277.393M269.207 279.23C268.924 279.089 268.105 278.948 267.087 279.513" stroke="#1F6B19" stroke-width="0.423251" stroke-linecap="round"/>
<path d="M260.39 292.682C263.336 293.52 269.089 293.638 268.536 287.402C265.808 284.476 260.685 289.396 260.39 292.682Z" fill="#25861F" stroke="#25861F" stroke-width="0.423251"/>
<path d="M261.902 291.625L264.325 290.226M268.307 287.927L267.268 288.527M264.196 291.801C264.066 291.376 264.013 290.406 264.844 289.926M264.844 289.926L264.325 290.226M264.844 289.926L266.922 288.726M266.373 290.774C266.371 290.237 266.546 289.036 267.268 288.527M267.268 288.527L266.922 288.726M262.341 289.987C262.589 290.151 263.334 290.428 264.325 290.226M264.801 288.451C265.037 288.66 265.792 289.009 266.922 288.726" stroke="#1F6B19" stroke-width="0.423251" stroke-linecap="round"/>
<path d="M261.835 276.399C260.746 276.866 261.77 279.317 262.419 280.483C261.187 279.446 258.607 277.722 258.14 279.122C257.673 280.522 260.149 281.65 261.446 282.039C260.02 282.299 257.362 283.09 258.14 284.179C258.918 285.268 261.316 284.244 262.419 283.595C261.446 284.892 259.851 287.524 261.252 287.679C262.652 287.835 263.65 285.281 263.974 283.984C263.974 285.54 264.363 288.535 265.919 288.068C267.475 287.602 266.049 284.892 265.141 283.595C266.243 284.568 268.642 286.162 269.42 284.762C270.198 283.362 267.41 282.493 265.919 282.234C267.086 282.234 270.392 281.261 269.809 279.9C269.342 278.811 266.762 279.835 265.53 280.483C266.114 280.095 267.864 276.983 266.503 276.399C265.414 275.933 264.363 278.539 263.974 279.9C263.974 279.317 263.197 275.816 261.835 276.399Z" fill="#E56610"/>
<circle cx="264.029" cy="281.975" r="1.36139" fill="#FFB42E"/>
<path d="M268.059 281.456C266.97 281.923 267.994 284.373 268.642 285.54C267.41 284.503 264.83 282.778 264.363 284.179C263.897 285.579 266.373 286.707 267.67 287.096C266.243 287.355 263.585 288.146 264.363 289.235C265.141 290.324 267.54 289.3 268.642 288.652C267.67 289.948 266.075 292.58 267.475 292.736C268.876 292.892 269.874 290.337 270.198 289.041C270.198 290.597 270.587 293.592 272.143 293.125C273.699 292.658 272.273 289.948 271.365 288.652C272.467 289.624 274.866 291.219 275.644 289.819C276.422 288.419 273.634 287.55 272.143 287.29C273.31 287.29 276.616 286.318 276.033 284.957C275.566 283.868 272.986 284.892 271.754 285.54C272.337 285.151 274.088 282.039 272.726 281.456C271.637 280.989 270.587 283.595 270.198 284.957C270.198 284.373 269.42 280.873 268.059 281.456Z" fill="white"/>
<circle cx="270.253" cy="287.031" r="1.36139" fill="#E56610"/>
<path d="M409.039 296.5C411.559 289.833 418.335 273.052 421.598 275.5C423.598 277 421.481 298 409.039 296.5C409.012 296.837 408.983 297.17 408.953 297.5C398.837 296.7 392.098 282.5 393.098 282C401.098 281.6 407.001 292.167 408.953 297.5C408.983 297.17 409.012 296.837 409.039 296.5Z" fill="#25861F"/>
<path d="M407.598 306.5C408.115 304.173 408.626 301.051 408.953 297.5M403.098 265C409.125 273.323 409.85 286.433 409.039 296.5M409.039 296.5C411.559 289.833 418.335 273.052 421.598 275.5C423.598 277 421.481 298 409.039 296.5ZM409.039 296.5C409.012 296.837 408.983 297.17 408.953 297.5M408.953 297.5C407.001 292.167 401.098 281.6 393.098 282C392.098 282.5 398.837 296.7 408.953 297.5Z" stroke="#25861F" stroke-linecap="round"/>
<path d="M395.325 249.142C392.961 250.155 395.184 255.475 396.592 258.008C393.918 255.756 388.317 252.013 387.303 255.052C386.29 258.092 391.666 260.541 394.481 261.385C391.385 261.948 385.615 263.665 387.303 266.029C388.992 268.393 394.199 266.17 396.592 264.762C394.481 267.577 391.019 273.291 394.058 273.628C397.098 273.966 399.265 268.421 399.969 265.607C399.969 268.984 400.813 275.486 404.191 274.473C407.568 273.459 404.472 267.577 402.502 264.762C404.894 266.873 410.101 270.335 411.79 267.296C413.479 264.256 407.428 262.37 404.191 261.807C406.724 261.807 413.901 259.696 412.634 256.741C411.621 254.377 406.02 256.6 403.346 258.008C404.613 257.163 408.413 250.408 405.457 249.142C403.093 248.129 400.813 253.786 399.969 256.741C399.969 255.475 398.28 247.875 395.325 249.142Z" fill="white"/>
<circle cx="400.5" cy="261.5" r="3.5" fill="#E56610"/>
<path d="M843.24 293.022C841.86 289.37 838.148 280.177 836.36 281.518C835.264 282.34 836.424 293.844 843.24 293.022C843.255 293.207 843.271 293.389 843.287 293.57C848.829 293.132 852.521 285.353 851.973 285.079C847.59 284.86 844.357 290.648 843.287 293.57C843.271 293.389 843.255 293.207 843.24 293.022Z" fill="#25861F"/>
<path d="M844.03 298.5C843.746 297.226 843.467 295.515 843.287 293.57M846.495 275.766C843.193 280.325 842.796 287.507 843.24 293.022M843.24 293.022C841.86 289.37 838.148 280.177 836.36 281.518C835.264 282.34 836.424 293.844 843.24 293.022ZM843.24 293.022C843.255 293.207 843.271 293.389 843.287 293.57M843.287 293.57C844.357 290.648 847.59 284.86 851.973 285.079C852.521 285.353 848.829 293.132 843.287 293.57Z" stroke="#25861F" stroke-linecap="round"/>
<path d="M850.753 267.078C852.048 267.633 850.83 270.547 850.059 271.935C851.524 270.701 854.593 268.65 855.148 270.316C855.703 271.981 852.758 273.322 851.216 273.785C852.912 274.093 856.073 275.034 855.148 276.329C854.223 277.624 851.37 276.406 850.059 275.635C851.216 277.177 853.112 280.307 851.447 280.492C849.782 280.677 848.595 277.64 848.209 276.098C848.209 277.948 847.747 281.51 845.896 280.955C844.046 280.399 845.742 277.177 846.822 275.635C845.511 276.792 842.658 278.688 841.733 277.023C840.808 275.358 844.123 274.325 845.896 274.016C844.509 274.016 840.577 272.86 841.271 271.241C841.826 269.946 844.894 271.164 846.359 271.935C845.665 271.472 843.584 267.772 845.203 267.078C846.498 266.523 847.747 269.622 848.209 271.241C848.209 270.547 849.134 266.384 850.753 267.078Z" fill="white"/>
<circle cx="1.91739" cy="1.91739" r="1.91739" transform="matrix(-1 0 0 1 849.836 271.93)" fill="#E56610"/>
<path d="M77.3818 324.698C78.7449 321.091 82.4106 312.013 84.1761 313.337C85.2581 314.148 84.1125 325.509 77.3818 324.698C77.3672 324.88 77.3516 325.06 77.3351 325.239C71.8623 324.806 68.2166 317.124 68.7577 316.853C73.0857 316.637 76.2793 322.353 77.3351 325.239C77.3516 325.06 77.3672 324.88 77.3818 324.698Z" fill="#237C1D"/>
<path d="M76.6021 330.108C76.8819 328.849 77.158 327.16 77.3351 325.239M74.1677 307.656C77.4281 312.159 77.8201 319.251 77.3818 324.698M77.3818 324.698C78.7449 321.091 82.4106 312.013 84.1761 313.337C85.2581 314.148 84.1125 325.509 77.3818 324.698ZM77.3818 324.698C77.3672 324.88 77.3516 325.06 77.3351 325.239M77.3351 325.239C76.2793 322.353 73.0857 316.637 68.7577 316.853C68.2166 317.124 71.8623 324.806 77.3351 325.239Z" stroke="#237C1D" stroke-linecap="round"/>
<path d="M70.402 299.075C69.1519 299.611 70.3276 302.423 71.0717 303.763C69.6578 302.572 66.6962 300.593 66.1605 302.2C65.6247 303.807 68.4672 305.102 69.9554 305.549C68.3184 305.846 65.2675 306.754 66.1605 308.004C67.0534 309.254 69.8067 308.079 71.0717 307.335C69.9555 308.823 68.125 311.844 69.7322 312.022C71.3395 312.201 72.4854 309.269 72.8575 307.781C72.8575 309.567 73.3039 313.005 75.0898 312.469C76.8756 311.933 75.2386 308.823 74.1969 307.335C75.4618 308.451 78.215 310.281 79.1079 308.674C80.0009 307.067 76.8012 306.07 75.0898 305.772C76.4292 305.772 80.2241 304.656 79.5544 303.093C79.0187 301.843 76.0571 303.019 74.6433 303.763C75.313 303.316 77.3221 299.745 75.7595 299.075C74.5094 298.539 73.3039 301.531 72.8575 303.093C72.8575 302.423 71.9646 298.405 70.402 299.075Z" fill="#E56610"/>
<circle cx="72.92" cy="305.475" r="1.56262" fill="#FFB42E"/>
<path d="M697.079 359.631C695.348 355.052 690.694 343.524 688.452 345.205C687.078 346.236 688.533 360.662 697.079 359.631C697.098 359.863 697.118 360.092 697.139 360.318C704.088 359.769 708.717 350.014 708.03 349.67C702.535 349.396 698.479 356.655 697.139 360.318C697.118 360.092 697.098 359.863 697.079 359.631Z" fill="#237C1D"/>
<path d="M698.069 366.501C697.714 364.903 697.364 362.758 697.139 360.318M701.161 337.992C697.021 343.709 696.523 352.715 697.079 359.631M697.079 359.631C695.348 355.052 690.694 343.524 688.452 345.205C687.078 346.236 688.533 360.662 697.079 359.631ZM697.079 359.631C697.098 359.863 697.118 360.092 697.139 360.318M697.139 360.318C698.479 356.655 702.535 349.396 708.03 349.67C708.717 350.014 704.088 359.769 697.139 360.318Z" stroke="#237C1D" stroke-linecap="round"/>
<path d="M705.943 327.095C707.53 327.776 706.037 331.347 705.092 333.048C706.887 331.536 710.648 329.023 711.328 331.064C712.009 333.105 708.399 334.749 706.51 335.316C708.588 335.693 712.462 336.846 711.328 338.434C710.195 340.021 706.699 338.528 705.092 337.583C706.51 339.473 708.834 343.309 706.793 343.536C704.752 343.763 703.297 340.04 702.825 338.15C702.825 340.418 702.258 344.783 699.99 344.103C697.722 343.422 699.801 339.473 701.124 337.583C699.518 339 696.022 341.325 694.888 339.284C693.754 337.243 697.817 335.977 699.99 335.599C698.289 335.599 693.47 334.182 694.321 332.197C695.001 330.61 698.762 332.103 700.557 333.048C699.707 332.481 697.155 327.946 699.14 327.095C700.727 326.415 702.258 330.213 702.825 332.197C702.825 331.347 703.958 326.245 705.943 327.095Z" fill="#E56610"/>
<circle cx="1.98421" cy="1.98421" r="1.98421" transform="matrix(-1 0 0 1 704.729 333.236)" fill="#FFB42E"/>
</g>
<defs>
<clipPath id="clip0_595_5195">
<rect width="905" height="412" fill="white"/>
</clipPath>
</defs>
</svg>
