<svg width="905" height="412" viewBox="0 0 905 412" fill="none" xmlns="http://www.w3.org/2000/svg">
<g clip-path="url(#clip0_595_5757)">
<rect y="-1" width="4480" height="414" fill="#C7E9FA"/>
<rect x="398.971" y="257.107" width="15.053" height="51.6105" fill="#5C4636"/>
<path d="M424.888 263.824C416.071 266.835 409.207 261.136 406.878 257.911C403.921 261.495 395.749 267.695 386.717 263.824C377.686 259.953 377.04 250.205 377.847 245.814C375.876 246.442 370.267 245.922 363.6 238.826C356.934 231.729 362.435 222.966 366.02 219.472C363.69 218.576 358.762 214.633 357.687 206.031C356.611 197.43 363.511 192.233 367.095 190.709C365.93 189.365 364.084 184.957 366.02 178.076C367.955 171.194 374.173 169.295 377.041 169.205C375.876 167.413 374.245 162.216 377.041 155.765C379.836 149.314 387.703 147.522 391.287 147.432C390.929 140.622 393.545 127.433 406.878 129.153C420.21 130.874 422.289 142.056 421.662 147.432C425.425 147.97 433.597 150.389 436.177 155.765C438.758 161.141 437.253 166.965 436.177 169.205C439.134 169.474 445.371 171.624 446.661 178.076C447.951 184.527 446.123 189.186 445.048 190.709C450.693 192.86 454.725 196.354 454.994 206.031C455.209 213.773 449.528 217.5 446.661 218.396C449.618 222.966 453.919 226.998 450.424 236.406C447.629 243.933 438.507 245.814 434.296 245.814C435.371 249.578 435.909 260.061 424.888 263.824Z" fill="#25861F"/>
<rect x="343.691" y="248.775" width="18.0695" height="61.9526" fill="#5C4636"/>
<path d="M374.802 256.841C364.219 260.455 355.98 253.615 353.183 249.743C349.634 254.045 339.825 261.488 328.983 256.841C318.141 252.195 317.367 240.493 318.335 235.223C315.969 235.976 309.236 235.352 301.234 226.833C293.231 218.315 299.835 207.796 304.138 203.601C301.341 202.525 295.426 197.793 294.135 187.468C292.844 177.142 301.126 170.904 305.428 169.075C304.03 167.462 301.814 162.17 304.138 153.91C306.461 145.649 313.925 143.369 317.367 143.262C315.969 141.111 314.011 134.872 317.367 127.128C320.723 119.384 330.166 117.233 334.469 117.125C334.038 108.951 337.179 93.1189 353.183 95.1839C369.188 97.249 371.683 110.672 370.93 117.125C375.448 117.771 385.257 120.675 388.354 127.128C391.452 133.582 389.645 140.573 388.354 143.262C391.904 143.584 399.39 146.166 400.939 153.91C402.487 161.654 400.293 167.247 399.003 169.075C405.779 171.657 410.619 175.851 410.941 187.467C411.199 196.76 404.38 201.235 400.939 202.31C404.488 207.796 409.651 212.636 405.456 223.929C402.1 232.964 391.151 235.223 386.096 235.223C387.386 239.74 388.032 252.324 374.802 256.841Z" fill="#70AE3E"/>
<path d="M374.667 151.006C379.83 154.448 387.381 164.042 376.281 174.883" stroke="#237C1D" stroke-width="11.559" stroke-linecap="round"/>
<path d="M366.923 130.336C368.876 131.68 371.221 136.555 369.11 140.451" stroke="#237C1D" stroke-width="7.43076" stroke-linecap="round"/>
<path d="M373.025 213.279C373.626 215.554 372.248 220.777 368.152 222.408" stroke="#237C1D" stroke-width="7.43076" stroke-linecap="round"/>
<mask id="mask0_595_5757" style="mask-type:alpha" maskUnits="userSpaceOnUse" x="0" y="278" width="905" height="134">
<rect y="278" width="905" height="134" fill="#D9D9D9"/>
</mask>
<g mask="url(#mask0_595_5757)">
<mask id="mask1_595_5757" style="mask-type:alpha" maskUnits="userSpaceOnUse" x="0" y="274" width="3579" height="138">
<rect y="274" width="3579" height="138" fill="#D9D9D9"/>
</mask>
<g mask="url(#mask1_595_5757)">
<mask id="mask2_595_5757" style="mask-type:alpha" maskUnits="userSpaceOnUse" x="-901" y="251" width="4480" height="131">
<rect x="-901" y="251" width="4480" height="131" fill="#D9D9D9"/>
</mask>
<g mask="url(#mask2_595_5757)">
<path d="M-1071.4 301.445L-626.493 270.202C-482.232 260.071 -337.269 268.151 -195.027 294.251C-37.0486 323.238 124.208 329.983 284.056 314.291L436.936 299.283C561.191 287.085 686.315 286.548 810.67 297.681L1087.76 322.487C1202.66 332.773 1318.24 333.099 1433.2 323.46L1786.24 293.859C1888.76 285.263 1991.8 284.59 2094.43 291.848L2783.82 340.6C2881.22 347.487 2979 347.233 3076.36 339.839L3581.89 301.445L3581.89 381.445L-1071.4 381.445L-1071.4 301.445Z" fill="#5B9B40"/>
<path d="M643.461 281.5C645.692 285.412 645.022 291.728 644.408 294.397L692.265 294.397C691.468 291.789 693.328 287.014 694.357 284.952C691.847 284.952 689.759 287.989 689.028 289.507L687.435 283.801L685.741 287.206C685.542 285.364 683.733 284.169 682.853 283.801C682.853 285.643 681.724 288.372 681.16 289.507L678.869 280.445C678.67 282.325 677.259 285.735 676.578 287.206C675.821 286.477 674.802 283.642 674.387 282.315C674.268 282.967 672.876 286.454 672.196 288.117C671.678 287.196 671.349 284.856 671.25 283.801C670.572 284.262 668.71 288.5 667.863 290.562C667.863 289.718 665.274 284.169 663.979 281.5C664.656 286.832 662.9 289.763 661.937 290.562C661.937 289.833 660.808 286.518 660.244 284.952C660.045 286.908 658.634 289.507 657.953 290.562C656.2 287.493 656.028 283.242 656.16 281.5C654.248 283.571 653.172 286.774 652.874 288.117C652.276 287.656 651.828 285.815 651.678 284.952L649.736 290.562C649.657 286.112 645.52 282.667 643.461 281.5Z" fill="#5B9B40"/>
<path d="M458.576 289.5C460.807 293.412 460.137 299.728 459.522 302.397L507.38 302.397C506.583 299.789 508.442 295.014 509.471 292.952C506.962 292.952 504.873 295.989 504.143 297.507L502.549 291.801L500.856 295.206C500.657 293.364 498.848 292.169 497.968 291.801C497.968 293.643 496.839 296.372 496.275 297.507L493.984 288.445C493.785 290.325 492.374 293.735 491.693 295.206C490.936 294.477 489.917 291.642 489.502 290.315C489.382 290.967 487.991 294.454 487.311 296.117C486.793 295.196 486.464 292.856 486.364 291.801C485.687 292.262 483.825 296.5 482.978 298.562C482.978 297.718 480.388 292.169 479.094 289.5C479.771 294.832 478.015 297.763 477.052 298.562C477.052 297.833 475.923 294.518 475.359 292.952C475.159 294.908 473.748 297.507 473.068 298.562C471.315 295.493 471.142 291.242 471.275 289.5C469.363 291.571 468.287 294.774 467.988 296.117C467.391 295.656 466.943 293.815 466.793 292.952L464.851 298.562C464.771 294.112 460.635 290.667 458.576 289.5Z" fill="#5B9B40"/>
<path d="M548.818 286.401C551.286 290.179 551.005 296.522 550.556 299.221L598.329 296.492C597.374 293.934 598.936 289.061 599.836 286.944C597.331 287.087 595.433 290.237 594.797 291.795L592.855 286.19L591.375 289.685C591.062 287.858 589.183 286.768 588.282 286.451C588.395 288.289 587.436 291.078 586.943 292.243L584.098 283.328C584.015 285.216 582.816 288.701 582.228 290.207C581.427 289.523 580.235 286.751 579.739 285.45C579.66 286.108 578.486 289.669 577.909 291.367C577.335 290.477 576.863 288.16 576.699 287.113C576.051 287.611 574.453 291.948 573.734 294.055C573.683 293.212 570.756 287.821 569.299 285.23C570.303 290.514 568.731 293.54 567.819 294.393C567.774 293.665 566.443 290.421 565.783 288.889C565.705 290.854 564.456 293.528 563.842 294.62C561.903 291.657 561.469 287.423 561.494 285.676C559.713 287.853 558.836 291.111 558.621 292.469C557.996 292.043 557.435 290.231 557.233 289.378L555.639 295.088C555.286 290.651 550.944 287.448 548.818 286.401Z" fill="#5B9B40"/>
<path d="M365.89 298.401C368.358 302.179 368.077 308.522 367.628 311.221L415.402 308.492C414.446 305.934 416.008 301.061 416.908 298.944C414.403 299.087 412.505 302.237 411.87 303.795L409.928 298.19L408.447 301.685C408.135 299.858 406.255 298.768 405.354 298.451C405.467 300.289 404.509 303.078 404.015 304.243L401.171 295.328C401.087 297.216 399.889 300.701 399.3 302.207C398.499 301.523 397.307 298.751 396.812 297.45C396.732 298.108 395.558 301.669 394.981 303.367C394.408 302.477 393.935 300.16 393.771 299.113C393.123 299.611 391.525 303.948 390.807 306.055C390.755 305.212 387.828 299.821 386.372 297.23C387.376 302.514 385.803 305.54 384.891 306.393C384.846 305.665 383.515 302.421 382.856 300.889C382.777 302.854 381.528 305.528 380.914 306.62C378.975 303.657 378.541 299.423 378.567 297.676C376.785 299.853 375.909 303.111 375.693 304.469C375.068 304.043 374.507 302.231 374.305 301.378L372.711 307.088C372.358 302.651 368.017 299.448 365.89 298.401Z" fill="#5B9B40"/>
<path d="M596.782 283.278C599.312 287.195 598.987 293.749 598.509 296.536L647.894 293.955C646.92 291.307 648.561 286.279 649.503 284.096C646.913 284.231 644.934 287.477 644.269 289.083L642.293 283.282L640.744 286.886C640.431 284.997 638.494 283.861 637.565 283.529C637.672 285.429 636.666 288.306 636.15 289.508L633.259 280.28C633.162 282.23 631.905 285.826 631.288 287.38C630.464 286.669 629.248 283.798 628.742 282.452C628.657 283.131 627.424 286.804 626.819 288.556C626.231 287.634 625.755 285.238 625.591 284.154C624.919 284.666 623.244 289.14 622.49 291.313C622.441 290.442 619.446 284.856 617.954 282.172C618.964 287.637 617.322 290.756 616.375 291.633C616.332 290.881 614.975 287.521 614.301 285.935C614.209 287.965 612.904 290.722 612.263 291.847C610.276 288.776 609.851 284.398 609.886 282.593C608.033 284.834 607.11 288.197 606.88 289.598C606.236 289.155 605.666 287.28 605.462 286.397L603.784 292.29C603.443 287.703 598.974 284.371 596.782 283.278Z" fill="#5B9B40"/>
<path d="M411.925 294.524C414.555 298.38 414.398 304.939 413.991 307.737L463.295 303.983C462.254 301.358 463.765 296.293 464.651 294.088C462.065 294.285 460.171 297.577 459.547 299.199L457.422 293.446L455.966 297.086C455.605 295.205 453.64 294.115 452.702 293.805C452.858 295.702 451.926 298.603 451.441 299.816L448.314 290.66C448.267 292.612 447.102 296.236 446.526 297.804C445.684 297.113 444.394 294.272 443.854 292.938C443.787 293.619 442.648 297.321 442.088 299.087C441.477 298.179 440.94 295.794 440.748 294.715C440.089 295.243 438.529 299.755 437.831 301.946C437.76 301.076 434.623 295.563 433.063 292.915C434.212 298.354 432.65 301.512 431.726 302.41C431.664 301.66 430.221 298.333 429.507 296.764C429.467 298.795 428.234 301.583 427.622 302.723C425.556 299.699 425.019 295.333 425.008 293.528C423.213 295.812 422.376 299.196 422.182 300.602C421.527 300.175 420.91 298.313 420.683 297.436L419.156 303.367C418.698 298.79 414.145 295.565 411.925 294.524Z" fill="#5B9B40"/>
<path d="M502.329 290.837C505.096 294.603 505.175 301.163 504.869 303.973L554.008 298.581C552.873 295.992 554.202 290.879 555.008 288.647C552.431 288.929 550.656 292.283 550.09 293.924L547.76 288.245L546.436 291.931C546.007 290.063 544.004 289.04 543.056 288.761C543.28 290.652 542.453 293.582 542.011 294.81L538.557 285.764C538.581 287.716 537.547 291.377 537.027 292.964C536.161 292.301 534.77 289.504 534.183 288.189C534.139 288.872 533.135 292.61 532.638 294.393C531.994 293.506 531.372 291.141 531.142 290.069C530.502 290.618 529.105 295.18 528.487 297.392C528.384 296.525 525.05 291.12 523.397 288.525C524.74 293.923 523.293 297.131 522.402 298.06C522.313 297.311 520.751 294.035 519.981 292.49C520.014 294.521 518.882 297.349 518.311 298.508C516.138 295.555 515.444 291.21 515.369 289.406C513.657 291.748 512.942 295.158 512.798 296.57C512.128 296.165 511.444 294.325 511.186 293.456L509.874 299.434C509.251 294.875 504.585 291.803 502.329 290.837Z" fill="#5B9B40"/>
<path d="M319.494 302.195C322.162 306.026 322.071 312.587 321.692 315.388L370.956 311.176C369.888 308.561 371.349 303.482 372.213 301.269C369.629 301.49 367.768 304.799 367.16 306.427L364.978 300.694L363.558 304.347C363.178 302.469 361.202 301.398 360.261 301.097C360.436 302.992 359.534 305.901 359.06 307.119L355.842 297.993C355.815 299.945 354.687 303.58 354.126 305.153C353.277 304.47 351.959 301.641 351.406 300.312C351.344 300.994 350.244 304.706 349.701 306.477C349.08 305.575 348.52 303.195 348.317 302.118C347.664 302.652 346.149 307.179 345.473 309.375C345.393 308.507 342.2 303.023 340.614 300.389C341.818 305.818 340.288 308.99 339.373 309.897C339.304 309.147 337.827 305.834 337.097 304.271C337.078 306.303 335.872 309.102 335.272 310.248C333.176 307.243 332.595 302.882 332.566 301.077C330.794 303.378 329.991 306.769 329.811 308.178C329.152 307.756 328.516 305.901 328.28 305.025L326.813 310.971C326.309 306.398 321.723 303.215 319.494 302.195Z" fill="#5B9B40"/>
<path d="M273.767 305.861C276.271 309.617 276.053 315.962 275.63 318.665L323.375 315.502C322.394 312.952 323.908 308.065 324.788 305.94C322.284 306.106 320.417 309.274 319.797 310.837L317.8 305.25L316.354 308.758C316.024 306.934 314.133 305.861 313.229 305.553C313.361 307.39 312.429 310.188 311.947 311.357L309.015 302.468C308.951 304.356 307.786 307.852 307.212 309.364C306.405 308.687 305.186 305.926 304.677 304.63C304.605 305.288 303.466 308.859 302.905 310.562C302.323 309.678 301.828 307.366 301.653 306.32C301.011 306.824 299.455 311.175 298.757 313.288C298.697 312.446 295.718 307.082 294.236 304.505C295.292 309.779 293.749 312.819 292.845 313.68C292.793 312.953 291.43 309.721 290.756 308.195C290.696 310.16 289.474 312.846 288.87 313.943C286.903 310.998 286.427 306.768 286.436 305.021C284.676 307.214 283.831 310.48 283.628 311.84C282.999 311.42 282.421 309.613 282.21 308.762L280.673 314.486C280.276 310.053 275.903 306.889 273.767 305.861Z" fill="#5B9B40"/>
<path d="M227.064 309.555C229.775 313.358 229.758 319.919 229.41 322.725L278.624 317.999C277.527 315.396 278.93 310.302 279.769 308.08C277.188 308.328 275.364 311.657 274.774 313.29L272.528 307.58L271.149 311.248C270.748 309.374 268.76 308.324 267.817 308.033C268.013 309.926 267.143 312.844 266.683 314.067L263.362 304.975C263.358 306.927 262.27 310.574 261.727 312.153C260.871 311.478 259.52 308.663 258.952 307.34C258.899 308.022 257.84 311.746 257.317 313.522C256.686 312.627 256.099 310.253 255.884 309.178C255.237 309.718 253.773 314.261 253.122 316.464C253.032 315.597 249.778 310.146 248.162 307.53C249.427 312.945 247.933 316.133 247.028 317.05C246.95 316.3 245.437 313.003 244.689 311.448C244.693 313.479 243.519 316.291 242.931 317.443C240.802 314.461 240.171 310.106 240.122 308.302C238.376 310.62 237.611 314.02 237.447 315.43C236.784 315.016 236.127 313.167 235.881 312.294L234.481 318.254C233.925 313.687 229.305 310.552 227.064 309.555Z" fill="#5B9B40"/>
<path d="M92.9609 314.5C95.192 318.412 94.5213 324.728 93.9071 327.397L141.765 327.397C140.968 324.789 142.827 320.014 143.856 317.952C141.346 317.952 139.258 320.989 138.528 322.507L136.934 316.801L135.241 320.206C135.042 318.364 133.232 317.169 132.353 316.801C132.353 318.643 131.224 321.372 130.659 322.507L128.369 313.445C128.169 315.325 126.758 318.735 126.078 320.206C125.321 319.477 124.302 316.642 123.887 315.315C123.767 315.967 122.376 319.454 121.695 321.117C121.177 320.196 120.849 317.856 120.749 316.801C120.072 317.262 118.209 321.5 117.363 323.562C117.363 322.718 114.773 317.169 113.478 314.5C114.156 319.832 112.399 322.763 111.437 323.562C111.437 322.833 110.308 319.518 109.743 317.952C109.544 319.908 108.133 322.507 107.453 323.562C105.7 320.493 105.527 316.242 105.66 314.5C103.748 316.571 102.672 319.774 102.373 321.117C101.775 320.656 101.327 318.815 101.178 317.952L99.2357 323.562C99.156 319.112 95.0193 315.667 92.9609 314.5Z" fill="#5B9B40"/>
<path d="M183.202 311.401C185.67 315.179 185.389 321.522 184.94 324.221L232.714 321.492C231.758 318.934 233.32 314.061 234.22 311.944C231.715 312.087 229.817 315.237 229.182 316.795L227.24 311.19L225.759 314.685C225.447 312.858 223.567 311.768 222.666 311.451C222.779 313.289 221.821 316.078 221.327 317.243L218.483 308.328C218.399 310.216 217.201 313.701 216.612 315.207C215.811 314.523 214.619 311.751 214.124 310.45C214.044 311.108 212.87 314.669 212.293 316.367C211.72 315.477 211.247 313.16 211.083 312.113C210.435 312.611 208.837 316.948 208.119 319.055C208.067 318.212 205.14 312.821 203.684 310.23C204.688 315.514 203.115 318.54 202.203 319.393C202.158 318.665 200.827 315.421 200.168 313.889C200.089 315.854 198.84 318.528 198.226 319.62C196.287 316.657 195.853 312.423 195.879 310.676C194.097 312.853 193.221 316.111 193.005 317.469C192.38 317.043 191.819 315.231 191.617 314.378L190.023 320.088C189.67 315.651 185.329 312.448 183.202 311.401Z" fill="#5B9B40"/>
<path d="M136.714 315.837C139.481 319.603 139.56 326.163 139.254 328.973L188.393 323.581C187.258 320.992 188.586 315.879 189.393 313.647C186.815 313.929 185.04 317.283 184.475 318.924L182.145 313.245L180.82 316.931C180.392 315.063 178.389 314.04 177.441 313.761C177.665 315.652 176.837 318.582 176.396 319.81L172.942 310.764C172.966 312.716 171.932 316.377 171.412 317.964C170.546 317.301 169.155 314.504 168.567 313.189C168.524 313.872 167.52 317.61 167.023 319.393C166.379 318.506 165.757 316.141 165.527 315.069C164.887 315.618 163.49 320.18 162.871 322.392C162.769 321.525 159.435 316.12 157.781 313.525C159.125 318.923 157.678 322.131 156.786 323.06C156.698 322.311 155.136 319.035 154.366 317.49C154.399 319.521 153.266 322.349 152.696 323.508C150.523 320.555 149.829 316.21 149.753 314.406C148.042 316.748 147.326 320.158 147.183 321.57C146.513 321.165 145.829 319.325 145.571 318.456L144.259 324.434C143.636 319.875 138.97 316.803 136.714 315.837Z" fill="#5B9B40"/>
<path d="M46.2183 310.302C48.3049 314.288 47.4039 320.577 46.6925 323.224L94.5204 324.845C93.8194 322.211 95.852 317.502 96.9559 315.476C94.4476 315.391 92.2496 318.355 91.4642 319.848L90.0801 314.092L88.2635 317.437C88.1317 315.59 86.3672 314.334 85.5014 313.937C85.4341 315.777 84.2062 318.466 83.6007 319.581L81.6425 310.448C81.3747 312.319 79.84 315.68 79.1061 317.126C78.3762 316.372 77.4612 313.504 77.095 312.164C76.9517 312.812 75.434 316.25 74.6931 317.888C74.2091 316.95 73.9662 314.601 73.9052 313.544C73.2115 313.981 71.1953 318.153 70.2738 320.185C70.3047 319.342 67.9195 313.708 66.7231 310.997C67.2051 316.348 65.3427 319.218 64.3513 319.984C64.378 319.256 63.371 315.905 62.8642 314.321C62.5937 316.269 61.0886 318.818 60.3698 319.849C58.7301 316.723 58.713 312.469 58.9093 310.732C56.9225 312.738 55.7305 315.902 55.3828 317.233C54.8024 316.753 54.4217 314.898 54.304 314.03L52.158 319.571C52.241 315.122 48.2328 311.538 46.2183 310.302Z" fill="#5B9B40"/>
<path d="M-44.9943 302.975C-43.0216 307.014 -44.1011 313.277 -44.8874 315.904L2.87656 318.784C2.25068 316.133 4.41631 311.479 5.57736 309.483C3.07236 309.332 0.791006 312.237 -0.0365428 313.708L-1.25655 307.918L-3.16746 311.214C-3.24673 309.364 -4.97496 308.062 -5.82917 307.642C-5.94871 309.48 -7.25254 312.136 -7.88951 313.235L-9.58743 304.053C-9.90828 305.917 -11.538 309.236 -12.3127 310.662C-13.0208 309.889 -13.854 306.998 -14.1821 305.649C-14.3437 306.293 -15.9585 309.69 -16.7456 311.308C-17.2028 310.358 -17.3789 308.003 -17.4098 306.944C-18.1156 307.363 -20.2497 311.481 -21.2285 313.487C-21.1737 312.645 -23.398 306.951 -24.5169 304.209C-24.1871 309.571 -26.1303 312.391 -27.1431 313.131C-27.0958 312.403 -28.0071 309.027 -28.4687 307.43C-28.7946 309.37 -30.3715 311.879 -31.1193 312.891C-32.6696 309.723 -32.5658 305.47 -32.3202 303.739C-34.3632 305.691 -35.6448 308.823 -36.0302 310.145C-36.5967 309.649 -36.9245 307.785 -37.0175 306.914L-39.3202 312.396C-39.1108 307.951 -43.0157 304.263 -44.9943 302.975Z" fill="#5B9B40"/>
<path d="M-0.497018 310.498C1.88808 314.498 1.32411 321.037 0.743981 323.806L50.1929 322.901C49.3163 320.221 51.1399 315.251 52.1612 313.102C49.5678 313.149 47.4721 316.326 46.7484 317.909L44.9853 312.044L43.3054 315.593C43.0619 313.695 41.168 312.494 40.2514 312.13C40.289 314.033 39.1784 316.875 38.6184 318.058L36.0664 308.738C35.899 310.684 34.5107 314.234 33.8375 315.767C33.0405 315.028 31.9295 312.118 31.4736 310.755C31.3634 311.431 29.9973 315.06 29.328 316.791C28.7741 315.849 28.3867 313.438 28.2622 312.35C27.5718 312.838 25.7339 317.253 24.9013 319.399C24.8841 318.527 22.0951 312.843 20.7027 310.11C21.5114 315.606 19.7566 318.667 18.7781 319.511C18.7632 318.758 17.5292 315.355 16.914 313.747C16.7482 315.772 15.3433 318.484 14.6616 319.587C12.7877 316.449 12.5225 312.06 12.6242 310.258C10.6906 312.434 9.64453 315.764 9.3632 317.156C8.73634 316.692 8.23564 314.798 8.06365 313.909L6.17142 319.742C5.99824 315.147 1.65364 311.665 -0.497018 310.498Z" fill="#5B9B40"/>
<path d="M874.637 293.34C876.441 297.452 875.102 303.669 874.207 306.263L921.813 310.98C921.298 308.307 923.655 303.74 924.898 301.79C922.402 301.543 920.001 304.358 919.113 305.796L918.135 299.963L916.089 303.183C916.086 301.332 914.413 299.964 913.577 299.512C913.382 301.343 911.968 303.947 911.286 305.021L909.971 295.781C909.573 297.631 907.807 300.884 906.974 302.28C906.298 301.48 905.586 298.559 905.314 297.199C905.126 297.836 903.371 301.168 902.517 302.754C902.1 301.787 902.022 299.427 902.035 298.368C901.312 298.759 899.009 302.792 897.948 304.759C898.037 303.92 896.051 298.145 895.047 295.362C895.154 300.733 893.095 303.475 892.052 304.175C892.13 303.45 891.36 300.042 890.965 298.428C890.558 300.354 888.879 302.8 888.089 303.783C886.672 300.557 886.952 296.312 887.27 294.592C885.147 296.464 883.737 299.544 883.297 300.85C882.751 300.333 882.501 298.457 882.444 297.584L879.916 302.973C880.309 298.539 876.561 294.704 874.637 293.34Z" fill="#5B9B40"/>
<path d="M827.963 289.316C829.961 293.508 828.783 299.97 827.944 302.677L877.274 306.096C876.654 303.351 878.938 298.562 880.158 296.51C877.571 296.331 875.184 299.311 874.314 300.824L873.112 294.829L871.104 298.217C871.04 296.305 869.268 294.944 868.389 294.502C868.247 296.4 866.873 299.133 866.204 300.262L864.541 290.758C864.191 292.681 862.474 296.096 861.659 297.563C860.935 296.757 860.103 293.762 859.777 292.365C859.604 293.029 857.901 296.524 857.071 298.189C856.608 297.203 856.45 294.767 856.429 293.673C855.695 294.099 853.449 298.335 852.417 300.4C852.482 299.53 850.24 293.625 849.111 290.782C849.399 296.325 847.362 299.221 846.308 299.976C846.365 299.225 845.457 295.728 844.996 294.073C844.639 296.075 842.985 298.653 842.202 299.692C840.632 296.403 840.781 292.009 841.052 290.223C838.922 292.221 837.566 295.446 837.154 296.808C836.574 296.291 836.254 294.361 836.166 293.461L833.732 299.105C833.993 294.513 829.994 290.665 827.963 289.316Z" fill="#5B9B40"/>
<path d="M690.013 282.919C692.088 286.91 691.17 293.197 690.451 295.842L738.274 297.586C737.581 294.95 739.626 290.246 740.736 288.223C738.228 288.132 736.022 291.09 735.232 292.581L733.864 286.821L732.038 290.161C731.911 288.314 730.15 287.054 729.286 286.654C729.213 288.494 727.978 291.181 727.369 292.294L725.436 283.155C725.163 285.026 723.619 288.383 722.882 289.827C722.154 289.072 721.247 286.201 720.884 284.861C720.739 285.508 719.212 288.942 718.466 290.578C717.985 289.639 717.749 287.289 717.691 286.232C716.996 286.667 714.968 290.834 714.041 292.864C714.074 292.02 711.704 286.381 710.516 283.667C710.983 289.019 709.112 291.884 708.119 292.648C708.148 291.919 707.15 288.566 706.648 286.98C706.372 288.928 704.859 291.473 704.138 292.502C702.507 289.372 702.501 285.118 702.703 283.382C700.71 285.382 699.509 288.543 699.158 289.874C698.579 289.392 698.203 287.536 698.088 286.668L695.927 292.203C696.022 287.754 692.024 284.16 690.013 282.919Z" fill="#5B9B40"/>
<path d="M784.417 283.937C786.18 288.065 784.78 294.269 783.86 296.855L831.418 302.004C830.929 299.327 833.331 294.781 834.593 292.843C832.099 292.573 829.671 295.366 828.769 296.796L827.848 290.955L825.77 294.156C825.786 292.305 824.126 290.922 823.295 290.462C823.081 292.292 821.643 294.883 820.95 295.95L819.725 286.698C819.309 288.545 817.511 291.782 816.664 293.17C815.997 292.364 815.313 289.437 815.054 288.074C814.86 288.709 813.073 292.025 812.204 293.603C811.796 292.633 811.741 290.273 811.764 289.214C811.038 289.598 808.695 293.61 807.614 295.567C807.712 294.729 805.783 288.936 804.806 286.144C804.86 291.515 802.775 294.239 801.725 294.93C801.81 294.205 801.073 290.79 800.694 289.173C800.269 291.095 798.565 293.526 797.766 294.501C796.38 291.263 796.702 287.02 797.036 285.303C794.896 287.156 793.455 290.223 793.002 291.525C792.462 291.003 792.23 289.125 792.182 288.251L789.601 293.617C790.038 289.187 786.327 285.318 784.417 283.937Z" fill="#5B9B40"/>
<path d="M733.68 285.851C736.297 289.714 736.118 296.273 735.701 299.07L785.018 295.472C783.985 292.844 785.514 287.783 786.407 285.581C783.821 285.77 781.915 289.056 781.286 290.676L779.181 284.916L777.712 288.551C777.357 286.669 775.396 285.573 774.459 285.261C774.609 287.158 773.667 290.056 773.177 291.267L770.082 282.102C770.029 284.053 768.852 287.674 768.269 289.24C767.43 288.546 766.15 285.701 765.615 284.365C765.545 285.046 764.394 288.744 763.827 290.508C763.219 289.599 762.691 287.212 762.502 286.133C761.842 286.658 760.266 291.166 759.561 293.354C759.493 292.484 756.374 286.961 754.823 284.308C755.954 289.751 754.382 292.904 753.454 293.799C753.395 293.048 751.963 289.718 751.254 288.146C751.208 290.177 749.965 292.961 749.349 294.099C747.294 291.069 746.771 286.701 746.766 284.896C744.964 287.174 744.115 290.555 743.916 291.961C743.263 291.532 742.652 289.668 742.428 288.79L740.881 294.717C740.438 290.138 735.896 286.898 733.68 285.851Z" fill="#5B9B40"/>
<path d="M-1798.55 300.998L-1363.44 269.764C-1222.25 259.629 -1080.35 267.708 -941.228 293.802C-786.711 322.784 -628.845 329.528 -472.42 313.831L-331.157 299.655C-204.182 286.913 -76.2788 286.353 50.8029 297.982L306.137 321.348C423.561 332.094 541.705 332.434 659.189 322.364L990.25 293.99C1095.03 285.009 1200.35 284.307 1305.24 291.889L1966.48 339.689C2066.03 346.885 2165.98 346.619 2265.49 338.894L2753.62 300.998L3655 339.998L3655 380.998L2753.62 380.998L-1798.55 380.998L-1798.55 300.998Z" fill="#70AE3E"/>
<path d="M868.527 294.73C870.877 298.547 870.496 304.885 870.011 307.576L916.786 305.61C915.894 303.037 917.504 298.19 918.421 296.088C915.968 296.191 914.058 299.311 913.41 300.857L911.605 295.223L910.098 298.693C909.824 296.862 908.003 295.742 907.127 295.411C907.207 297.25 906.222 300.024 905.72 301.181L903.088 292.221C902.975 294.107 901.744 297.573 901.142 299.07C900.371 298.373 899.252 295.582 898.789 294.274C898.7 294.93 897.492 298.471 896.898 300.16C896.352 299.261 895.93 296.937 895.787 295.887C895.145 296.375 893.508 300.686 892.77 302.781C892.733 301.938 889.962 296.5 888.581 293.887C889.474 299.186 887.884 302.186 886.978 303.024C886.946 302.296 885.699 299.031 885.08 297.489C884.97 299.452 883.703 302.106 883.084 303.188C881.238 300.194 880.885 295.954 880.939 294.208C879.16 296.356 878.247 299.6 878.013 300.953C877.409 300.518 876.891 298.697 876.708 297.841L875.053 303.525C874.782 299.083 870.59 295.811 868.527 294.73Z" fill="#70AE3E"/>
<path d="M778.067 303.953C780.481 307.732 780.206 314.075 779.767 316.774L826.503 314.044C825.568 311.486 827.096 306.613 827.977 304.497C825.526 304.64 823.669 307.79 823.047 309.347L821.148 303.743L819.699 307.237C819.394 305.411 817.555 304.321 816.673 304.004C816.784 305.842 815.846 308.631 815.363 309.796L812.581 300.881C812.499 302.768 811.327 306.253 810.751 307.76C809.968 307.076 808.802 304.304 808.316 303.003C808.239 303.661 807.09 307.221 806.526 308.919C805.965 308.03 805.503 305.713 805.342 304.666C804.708 305.164 803.145 309.501 802.442 311.607C802.391 310.765 799.528 305.374 798.103 302.783C799.086 308.067 797.547 311.093 796.655 311.945C796.611 311.218 795.309 307.973 794.664 306.442C794.587 308.406 793.365 311.081 792.764 312.173C790.868 309.209 790.443 304.976 790.468 303.229C788.725 305.406 787.868 308.664 787.657 310.021C787.045 309.596 786.497 307.784 786.299 306.931L784.74 312.641C784.394 308.204 780.147 305.001 778.067 303.953Z" fill="#70AE3E"/>
<path d="M823.149 301.666C825.886 305.41 826.018 311.97 825.741 314.782L873.767 309.006C872.635 306.427 873.893 301.304 874.663 299.065C872.144 299.368 870.435 302.735 869.896 304.38L867.57 298.72L866.304 302.416C865.87 300.551 863.902 299.544 862.972 299.273C863.207 301.161 862.422 304.098 862 305.33L858.547 296.311C858.586 298.263 857.605 301.932 857.109 303.522C856.257 302.866 854.873 300.08 854.287 298.77C854.25 299.453 853.299 303.198 852.827 304.985C852.19 304.103 851.562 301.743 851.328 300.673C850.707 301.227 849.378 305.799 848.791 308.016C848.683 307.151 845.378 301.771 843.739 299.19C845.097 304.577 843.708 307.796 842.844 308.732C842.751 307.984 841.196 304.72 840.43 303.182C840.48 305.212 839.395 308.048 838.846 309.213C836.696 306.276 835.981 301.936 835.893 300.133C834.237 302.489 833.566 305.904 833.437 307.317C832.779 306.917 832.094 305.083 831.835 304.215L830.6 310.204C829.953 305.65 825.363 302.614 823.149 301.666Z" fill="#70AE3E"/>
<path d="M732.679 307.748C735.289 311.579 735.2 318.139 734.829 320.941L783.023 316.729C781.978 314.114 783.407 309.034 784.252 306.822C781.724 307.043 779.903 310.352 779.309 311.979L777.174 306.246L775.785 309.9C775.414 308.022 773.481 306.951 772.56 306.65C772.731 308.545 771.848 311.454 771.385 312.672L768.237 303.546C768.211 305.498 767.107 309.133 766.558 310.706C765.728 310.023 764.438 307.194 763.897 305.865C763.837 306.547 762.76 310.259 762.229 312.03C761.622 311.128 761.074 308.748 760.876 307.671C760.236 308.204 758.755 312.731 758.093 314.928C758.015 314.059 754.892 308.575 753.34 305.942C754.517 311.371 753.021 314.542 752.126 315.45C752.058 314.699 750.613 311.387 749.9 309.824C749.881 311.855 748.701 314.655 748.114 315.8C746.063 312.796 745.495 308.435 745.467 306.63C743.733 308.931 742.948 312.322 742.771 313.73C742.127 313.309 741.504 311.453 741.274 310.578L739.839 316.524C739.346 311.95 734.86 308.768 732.679 307.748Z" fill="#70AE3E"/>
<path d="M687.946 311.414C690.396 315.169 690.182 321.515 689.769 324.218L736.476 321.054C735.516 318.505 736.998 313.618 737.858 311.493C735.409 311.659 733.583 314.826 732.976 316.389L731.022 310.803L729.607 314.311C729.284 312.487 727.435 311.414 726.551 311.106C726.679 312.942 725.768 315.74 725.296 316.91L722.429 308.021C722.365 309.909 721.226 313.405 720.664 314.917C719.875 314.239 718.682 311.478 718.185 310.182C718.114 310.841 716.999 314.412 716.451 316.115C715.881 315.231 715.397 312.918 715.226 311.873C714.598 312.377 713.076 316.728 712.393 318.841C712.334 317.999 709.42 312.634 707.97 310.057C709.003 315.332 707.493 318.372 706.609 319.233C706.559 318.506 705.226 315.273 704.566 313.748C704.508 315.713 703.312 318.399 702.721 319.496C700.796 316.551 700.331 312.321 700.339 310.574C698.617 312.767 697.791 316.033 697.593 317.392C696.978 316.973 696.412 315.165 696.206 314.314L694.702 320.039C694.314 315.606 690.036 312.441 687.946 311.414Z" fill="#70AE3E"/>
<path d="M642.257 315.108C644.909 318.911 644.893 325.472 644.553 328.277L692.697 323.552C691.624 320.949 692.996 315.854 693.817 313.633C691.292 313.881 689.508 317.209 688.931 318.843L686.733 313.133L685.385 316.801C684.993 314.927 683.048 313.876 682.124 313.585C682.316 315.479 681.465 318.397 681.016 319.62L677.767 310.527C677.762 312.48 676.698 316.126 676.167 317.705C675.329 317.031 674.008 314.216 673.453 312.893C673.4 313.575 672.364 317.299 671.853 319.075C671.236 318.179 670.662 315.806 670.451 314.731C669.818 315.271 668.386 319.814 667.749 322.017C667.661 321.149 664.478 315.699 662.897 313.082C664.134 318.498 662.673 321.686 661.788 322.602C661.712 321.853 660.231 318.556 659.5 317.001C659.503 319.032 658.355 321.844 657.78 322.996C655.697 320.013 655.08 315.659 655.032 313.854C653.324 316.173 652.576 319.573 652.415 320.983C651.766 320.568 651.123 318.719 650.883 317.847L649.514 323.807C648.97 319.239 644.449 316.105 642.257 315.108Z" fill="#70AE3E"/>
<path d="M511.069 320.053C513.251 323.965 512.595 330.281 511.994 332.95L558.812 332.95C558.033 330.342 559.851 325.567 560.858 323.505C558.403 323.505 556.36 326.541 555.645 328.06L554.086 322.354L552.43 325.758C552.235 323.917 550.465 322.722 549.604 322.354C549.604 324.195 548.5 326.925 547.948 328.06L545.707 318.998C545.512 320.877 544.132 324.288 543.466 325.758C542.726 325.03 541.728 322.194 541.322 320.868C541.206 321.52 539.845 325.007 539.179 326.669C538.672 325.749 538.351 323.409 538.253 322.354C537.591 322.814 535.769 327.053 534.94 329.114C534.94 328.271 532.407 322.722 531.14 320.053C531.803 325.384 530.085 328.315 529.143 329.114C529.143 328.386 528.039 325.071 527.487 323.505C527.292 325.461 525.911 328.06 525.246 329.114C523.531 326.046 523.362 321.795 523.492 320.053C521.621 322.124 520.569 325.327 520.276 326.669C519.692 326.209 519.253 324.368 519.107 323.505L517.207 329.114C517.129 324.665 513.083 321.22 511.069 320.053Z" fill="#70AE3E"/>
<path d="M599.349 316.953C601.763 320.732 601.489 327.075 601.049 329.774L647.785 327.044C646.85 324.486 648.378 319.613 649.259 317.497C646.808 317.64 644.951 320.79 644.329 322.347L642.43 316.743L640.981 320.237C640.676 318.411 638.837 317.321 637.956 317.004C638.066 318.842 637.128 321.631 636.646 322.796L633.863 313.881C633.782 315.768 632.609 319.253 632.033 320.76C631.25 320.076 630.084 317.304 629.599 316.003C629.521 316.661 628.373 320.221 627.808 321.919C627.247 321.03 626.785 318.713 626.624 317.666C625.991 318.164 624.427 322.501 623.724 324.607C623.674 323.765 620.811 318.374 619.386 315.783C620.368 321.067 618.829 324.093 617.937 324.945C617.893 324.218 616.591 320.973 615.946 319.442C615.869 321.406 614.648 324.081 614.047 325.173C612.15 322.209 611.725 317.976 611.75 316.229C610.008 318.406 609.15 321.664 608.939 323.021C608.328 322.596 607.779 320.784 607.581 319.931L606.022 325.641C605.677 321.204 601.429 318.001 599.349 316.953Z" fill="#70AE3E"/>
<path d="M553.871 321.39C556.577 325.155 556.655 331.716 556.355 334.526L604.427 329.133C603.317 326.545 604.616 321.432 605.405 319.199C602.884 319.482 601.147 322.835 600.594 324.477L598.315 318.798L597.019 322.484C596.6 320.616 594.64 319.592 593.713 319.314C593.932 321.205 593.122 324.135 592.69 325.363L589.312 316.317C589.335 318.269 588.323 321.93 587.815 323.516C586.968 322.853 585.607 320.057 585.032 318.742C584.99 319.425 584.007 323.162 583.521 324.946C582.891 324.059 582.283 321.693 582.057 320.622C581.432 321.17 580.065 325.732 579.46 327.945C579.359 327.078 576.098 321.672 574.48 319.078C575.795 324.476 574.379 327.683 573.507 328.612C573.42 327.864 571.892 324.588 571.139 323.043C571.172 325.074 570.064 327.901 569.505 329.061C567.38 326.108 566.701 321.762 566.627 319.959C564.952 322.301 564.253 325.711 564.112 327.123C563.457 326.718 562.788 324.878 562.535 324.008L561.252 329.987C560.642 325.428 556.077 322.356 553.871 321.39Z" fill="#70AE3E"/>
<path d="M466.358 319.855C468.4 323.84 467.518 330.13 466.822 332.776L513.611 334.398C512.925 331.764 514.913 327.055 515.993 325.029C513.54 324.944 511.389 327.908 510.621 329.401L509.267 323.645L507.49 326.989C507.361 325.143 505.635 323.887 504.788 323.489C504.722 325.329 503.521 328.019 502.928 329.134L501.013 320C500.751 321.872 499.249 325.232 498.531 326.679C497.817 325.925 496.922 323.057 496.564 321.717C496.424 322.365 494.939 325.803 494.214 327.441C493.741 326.503 493.503 324.154 493.444 323.096C492.765 323.533 490.793 327.706 489.891 329.738C489.921 328.894 487.588 323.261 486.417 320.55C486.889 325.901 485.067 328.771 484.097 329.537C484.123 328.809 483.138 325.458 482.643 323.873C482.378 325.822 480.905 328.371 480.202 329.402C478.598 326.276 478.581 322.022 478.774 320.285C476.83 322.29 475.664 325.455 475.324 326.786C474.756 326.306 474.383 324.451 474.268 323.583L472.169 329.124C472.25 324.674 468.329 321.091 466.358 319.855Z" fill="#70AE3E"/>
<path d="M289.12 309.045C290.803 313.189 289.372 319.38 288.446 321.957L334.916 327.557C334.465 324.875 336.86 320.352 338.114 318.426C335.677 318.133 333.274 320.902 332.377 322.324L331.534 316.474L329.47 319.655C329.504 317.804 327.894 316.406 327.086 315.938C326.858 317.766 325.425 320.343 324.737 321.403L323.631 312.141C323.206 313.983 321.415 317.203 320.572 318.583C319.927 317.771 319.288 314.838 319.048 313.472C318.852 314.106 317.071 317.404 316.204 318.974C315.815 318 315.785 315.639 315.818 314.581C315.104 314.958 312.772 318.947 311.695 320.895C311.8 320.057 309.97 314.246 309.043 311.446C309.042 316.817 306.975 319.521 305.941 320.201C306.031 319.478 305.344 316.056 304.99 314.435C304.555 316.353 302.864 318.768 302.072 319.735C300.749 316.484 301.107 312.244 301.451 310.531C299.338 312.363 297.898 315.416 297.442 316.714C296.919 316.187 296.711 314.307 296.672 313.433L294.094 318.774C294.566 314.348 290.974 310.444 289.12 309.045Z" fill="#70AE3E"/>
<path d="M377.128 316.527C379.058 320.566 378.002 326.83 377.233 329.456L423.959 332.337C423.347 329.686 425.465 325.031 426.601 323.036C424.15 322.885 421.919 325.79 421.109 327.261L419.916 321.471L418.046 324.766C417.969 322.917 416.278 321.615 415.442 321.195C415.325 323.033 414.05 325.689 413.427 326.787L411.766 317.606C411.452 319.469 409.858 322.788 409.1 324.215C408.407 323.442 407.592 320.551 407.271 319.202C407.113 319.846 405.533 323.242 404.763 324.86C404.316 323.91 404.144 321.555 404.113 320.497C403.423 320.915 401.335 325.033 400.378 327.04C400.431 326.198 398.255 320.504 397.161 317.762C397.483 323.124 395.582 325.944 394.592 326.683C394.638 325.956 393.746 322.58 393.295 320.983C392.976 322.923 391.433 325.432 390.702 326.443C389.185 323.275 389.287 319.022 389.527 317.292C387.528 319.244 386.275 322.375 385.898 323.697C385.343 323.202 385.023 321.338 384.932 320.467L382.679 325.949C382.884 321.504 379.064 317.816 377.128 316.527Z" fill="#70AE3E"/>
<path d="M196.41 298.036C197.839 302.271 196.036 308.367 194.955 310.885L241.005 319.199C240.716 316.496 243.381 312.122 244.749 310.273C242.334 309.837 239.768 312.46 238.786 313.827L238.299 307.938L236.046 310.992C236.192 309.147 234.67 307.657 233.891 307.142C233.553 308.953 231.967 311.442 231.215 312.46L230.673 303.149C230.136 304.963 228.153 308.073 227.229 309.4C226.634 308.552 226.173 305.586 226.017 304.21C225.783 304.83 223.805 308.019 222.845 309.535C222.516 308.54 222.628 306.181 222.726 305.127C221.99 305.462 219.421 309.307 218.228 311.188C218.383 310.358 216.908 304.45 216.152 301.6C215.826 306.962 213.599 309.539 212.526 310.158C212.659 309.441 212.181 305.985 211.925 304.346C211.375 306.236 209.541 308.547 208.692 309.466C207.568 306.143 208.182 301.932 208.629 300.242C206.409 301.947 204.787 304.91 204.253 306.178C203.762 305.622 203.669 303.733 203.683 302.858L200.786 308.038C201.525 303.648 198.176 299.541 196.41 298.036Z" fill="#70AE3E"/>
<path d="M420.658 320.051C422.992 324.051 422.44 330.59 421.872 333.359L470.247 332.453C469.389 329.773 471.173 324.804 472.172 322.654C469.635 322.702 467.585 325.879 466.877 327.462L465.152 321.596L463.509 325.146C463.271 323.247 461.418 322.046 460.521 321.683C460.558 323.585 459.472 326.427 458.924 327.61L456.427 318.291C456.263 320.237 454.905 323.787 454.247 325.319C453.467 324.581 452.38 321.67 451.934 320.308C451.826 320.984 450.49 324.613 449.835 326.343C449.293 325.402 448.914 322.991 448.793 321.903C448.117 322.391 446.319 326.806 445.505 328.952C445.488 328.08 442.759 322.396 441.397 319.662C442.188 325.158 440.472 328.22 439.515 329.064C439.5 328.311 438.293 324.908 437.691 323.3C437.529 325.325 436.154 328.037 435.488 329.139C433.654 326.002 433.395 321.613 433.494 319.81C431.603 321.987 430.579 325.316 430.304 326.709C429.691 326.245 429.201 324.351 429.033 323.462L427.182 329.295C427.012 324.699 422.762 321.217 420.658 320.051Z" fill="#70AE3E"/>
<path d="M241.085 304.836C242.649 309.184 240.912 315.518 239.847 318.142L287.599 325.812C287.245 323.024 289.908 318.451 291.283 316.514C288.779 316.111 286.182 318.874 285.196 320.305L284.571 314.231L282.306 317.431C282.418 315.521 280.815 314.012 280 313.496C279.688 315.374 278.1 317.977 277.345 319.044L276.592 309.435C276.076 311.32 274.091 314.572 273.163 315.963C272.531 315.098 271.994 312.043 271.804 310.623C271.574 311.269 269.596 314.603 268.636 316.189C268.275 315.167 268.343 312.728 268.422 311.637C267.668 311.997 265.093 316.022 263.9 317.989C264.042 317.128 262.397 311.054 261.557 308.124C261.331 313.67 259.082 316.378 257.987 317.039C258.11 316.296 257.544 312.734 257.246 311.046C256.716 313.01 254.869 315.434 254.012 316.401C252.781 312.99 253.328 308.626 253.756 306.871C251.497 308.677 249.882 311.771 249.357 313.092C248.838 312.527 248.703 310.578 248.7 309.673L245.813 315.084C246.486 310.533 242.941 306.355 241.085 304.836Z" fill="#70AE3E"/>
<path d="M331.439 315.492C333.661 319.554 332.927 326.075 332.283 328.828L380.665 329.225C379.882 326.523 381.803 321.604 382.862 319.482C380.324 319.461 378.187 322.582 377.435 324.145L375.874 318.235L374.132 321.739C373.947 319.835 372.128 318.584 371.242 318.197C371.226 320.1 370.061 322.911 369.481 324.079L367.244 314.696C367.026 316.637 365.57 320.149 364.869 321.663C364.11 320.904 363.104 317.965 362.697 316.591C362.57 317.264 361.133 320.856 360.431 322.568C359.915 321.613 359.603 319.192 359.512 318.101C358.823 318.571 356.903 322.936 356.029 325.059C356.037 324.187 353.467 318.431 352.182 315.663C352.82 321.178 351.018 324.192 350.038 325.01C350.045 324.257 348.932 320.822 348.376 319.199C348.157 321.219 346.708 323.893 346.011 324.977C344.265 321.791 344.128 317.397 344.277 315.598C342.326 317.722 341.211 321.023 340.897 322.408C340.297 321.927 339.86 320.021 339.716 319.128L337.704 324.909C337.662 320.31 333.51 316.715 331.439 315.492Z" fill="#70AE3E"/>
<path d="M149.916 296.784C151.824 300.996 150.601 307.446 149.751 310.144L197.968 314.077C197.392 311.325 199.679 306.56 200.895 304.521C198.366 304.315 195.999 307.271 195.131 308.774L194.02 302.767L192.019 306.134C191.978 304.221 190.259 302.842 189.404 302.391C189.245 304.287 187.871 307.005 187.204 308.128L185.682 298.607C185.318 300.526 183.6 303.923 182.787 305.381C182.088 304.568 181.307 301.565 181.004 300.164C180.827 300.826 179.123 304.303 178.293 305.959C177.851 304.968 177.723 302.532 177.714 301.437C176.991 301.856 174.747 306.068 173.716 308.121C173.789 307.252 171.661 301.325 170.588 298.47C170.808 304.016 168.784 306.891 167.745 307.634C167.808 306.884 166.958 303.377 166.525 301.718C166.155 303.716 164.508 306.277 163.731 307.307C162.231 304.003 162.426 299.61 162.71 297.827C160.604 299.803 159.243 303.013 158.825 304.371C158.263 303.848 157.971 301.915 157.895 301.014L155.452 306.632C155.758 302.043 151.889 298.154 149.916 296.784Z" fill="#70AE3E"/>
<path d="M105.202 292.895C106.966 297.007 105.657 303.223 104.781 305.818L151.353 310.534C150.849 307.861 153.155 303.294 154.371 301.345C151.929 301.098 149.581 303.912 148.712 305.351L147.755 299.518L145.753 302.737C145.75 300.886 144.114 299.519 143.296 299.067C143.105 300.898 141.722 303.502 141.055 304.575L139.768 295.335C139.379 297.185 137.651 300.439 136.836 301.834C136.175 301.035 135.478 298.114 135.212 296.754C135.028 297.391 133.312 300.722 132.476 302.309C132.068 301.342 131.992 298.982 132.005 297.923C131.298 298.314 129.044 302.347 128.006 304.314C128.094 303.475 126.151 297.7 125.168 294.917C125.273 300.287 123.259 303.03 122.239 303.73C122.315 303.005 121.561 299.597 121.175 297.983C120.777 299.909 119.134 302.355 118.362 303.337C116.975 300.112 117.25 295.866 117.56 294.147C115.484 296.018 114.104 299.098 113.673 300.404C113.14 299.888 112.895 298.012 112.839 297.139L110.366 302.527C110.751 298.094 107.084 294.258 105.202 292.895Z" fill="#70AE3E"/>
<path d="M59.5425 288.87C61.4973 293.063 60.3448 299.525 59.5242 302.232L107.783 305.651C107.176 302.906 109.41 298.116 110.604 296.065C108.073 295.885 105.738 298.866 104.887 300.379L103.71 294.384L101.746 297.772C101.684 295.86 99.9499 294.498 99.0905 294.057C98.9516 295.954 97.6076 298.688 96.9529 299.817L95.3262 290.313C94.9836 292.236 93.3036 295.65 92.5065 297.117C91.7981 296.312 90.9841 293.317 90.6657 291.92C90.496 292.583 88.8303 296.079 88.0187 297.743C87.5659 296.757 87.4109 294.322 87.39 293.228C86.6723 293.654 84.4746 297.89 83.4655 299.954C83.5291 299.084 81.3362 293.18 80.2318 290.336C80.5128 295.88 78.5208 298.776 77.4897 299.531C77.5447 298.78 76.6563 295.282 76.2053 293.628C75.8569 295.63 74.2382 298.208 73.4724 299.246C71.9361 295.958 72.0826 291.564 72.3478 289.778C70.2633 291.776 68.9372 295 68.5346 296.363C67.9667 295.846 67.6536 293.916 67.568 293.016L65.1866 298.659C65.4417 294.067 61.5302 290.22 59.5425 288.87Z" fill="#70AE3E"/>
<path d="M16.9408 283.492C18.6654 287.619 17.2962 293.824 16.396 296.41L62.9204 301.559C62.442 298.881 64.7916 294.336 66.0263 292.398C63.5863 292.128 61.2114 294.921 60.3289 296.351L59.4276 290.51L57.395 293.71C57.4104 291.859 55.7872 290.477 54.9737 290.017C54.7646 291.846 53.3573 294.437 52.6797 295.504L51.4818 286.253C51.0747 288.099 49.3157 291.337 48.4871 292.724C47.834 291.919 47.1651 288.992 46.9123 287.629C46.7221 288.264 44.9738 291.58 44.1234 293.158C43.7244 292.188 43.6706 289.827 43.6936 288.768C42.9829 289.153 40.691 293.164 39.6338 295.122C39.7297 294.283 37.8423 288.491 36.8867 285.699C36.9397 291.07 34.8995 293.794 33.8728 294.484C33.9555 293.76 33.2346 290.345 32.8638 288.728C32.448 290.65 30.7812 293.081 29.9998 294.056C28.6441 290.818 28.959 286.575 29.2859 284.858C27.1917 286.71 25.7823 289.777 25.3394 291.079C24.8107 290.558 24.5841 288.68 24.5368 287.806L22.0117 293.172C22.4395 288.742 18.8093 284.872 16.9408 283.492Z" fill="#70AE3E"/>
<path d="M-32.6932 285.405C-30.1336 289.269 -30.3085 295.828 -30.7159 298.625L17.5289 295.027C16.5187 292.399 18.014 287.338 18.8879 285.136C16.3577 285.325 14.4935 288.611 13.8777 290.23L11.8185 284.471L10.3817 288.106C10.0348 286.224 8.11589 285.128 7.19981 284.815C7.3459 286.712 6.42457 289.61 5.94564 290.822L2.91728 281.656C2.8656 283.608 1.71382 287.229 1.14438 288.795C0.323473 288.101 -0.928979 285.256 -1.45259 283.92C-1.52134 284.601 -2.64696 288.299 -3.20118 290.063C-3.79633 289.153 -4.31332 286.767 -4.49742 285.688C-5.14366 286.213 -6.68493 290.72 -7.37479 292.909C-7.44175 292.039 -10.4926 286.516 -12.0096 283.863C-10.9038 289.306 -12.4417 292.458 -13.3489 293.354C-13.4067 292.603 -14.8077 289.272 -15.5009 287.701C-15.5465 289.732 -16.7627 292.516 -17.3651 293.654C-19.3757 290.623 -19.8871 286.256 -19.8915 284.451C-21.6549 286.729 -22.4851 290.11 -22.6798 291.516C-23.3188 291.086 -23.9167 289.223 -24.1358 288.345L-25.6486 294.271C-26.082 289.692 -30.5255 286.453 -32.6932 285.405Z" fill="#70AE3E"/>
<path d="M705.187 325.998C705.187 327.839 704.083 330.569 703.531 331.704C703.014 333.151 701.393 336.156 699.049 336.594L714.395 336.594C713.615 333.986 715.434 329.21 716.441 327.149C713.986 327.149 711.943 330.185 711.228 331.704L709.669 325.998L708.013 329.402C707.818 327.561 706.048 326.366 705.187 325.998Z" fill="#5B9B40"/>
<path d="M471.482 302.998C471.482 304.839 470.378 307.569 469.826 308.704C469.308 310.151 467.688 313.156 465.344 313.594L480.69 313.594C479.91 310.986 481.729 306.21 482.736 304.149C480.281 304.149 478.238 307.185 477.523 308.704L475.964 302.998L474.308 306.402C474.113 304.561 472.343 303.366 471.482 302.998Z" fill="#70AE3E"/>
<path d="M518.181 303.053C520.364 306.965 519.708 313.281 519.107 315.95L565.924 315.95C565.145 313.342 566.964 308.567 567.971 306.505C565.515 306.505 563.472 309.541 562.758 311.06L561.199 305.354L559.542 308.758C559.348 306.917 557.577 305.722 556.717 305.354C556.717 307.195 555.613 309.925 555.06 311.06L552.819 301.998C552.624 303.877 551.244 307.288 550.578 308.758C549.838 308.03 548.841 305.194 548.435 303.868C548.318 304.52 546.957 308.007 546.291 309.669C545.785 308.749 545.463 306.409 545.366 305.354C544.703 305.814 542.881 310.053 542.053 312.114C542.053 311.271 539.519 305.722 538.253 303.053C538.915 308.384 537.197 311.315 536.255 312.114C536.255 311.386 535.151 308.071 534.599 306.505C534.404 308.461 533.024 311.06 532.358 312.114C530.643 309.046 530.474 304.795 530.604 303.053C528.733 305.124 527.681 308.327 527.389 309.669C526.804 309.209 526.366 307.368 526.22 306.505L524.32 312.114C524.242 307.665 520.195 304.22 518.181 303.053Z" fill="#70AE3E"/>
</g>
<rect x="-901" y="381" width="4480" height="31" fill="#70AE3E"/>
</g>
</g>
<path d="M431.816 313.85C431.231 311.315 428.96 306.989 424.55 309.956C423.492 313.185 429.251 314.977 431.816 313.85Z" fill="#25861F" stroke="#25861F" stroke-width="0.423251"/>
<path d="M430.411 313.159L428.376 311.93M425.035 309.912L425.907 310.439M429.601 311.381C429.338 311.652 428.638 312.088 427.941 311.667M427.941 311.667L428.376 311.93M427.941 311.667L426.197 310.614M427.945 310.183C427.546 310.405 426.581 310.767 425.907 310.439M425.907 310.439L426.197 310.614M429.012 313.504C429.032 313.252 428.933 312.584 428.376 311.93M426.862 312.304C426.921 312.043 426.87 311.338 426.197 310.614" stroke="#1F6B19" stroke-width="0.423251" stroke-linecap="round"/>
<path d="M413.977 307.772C413.886 310.371 414.96 315.138 419.988 313.413C421.845 310.569 416.747 307.347 413.977 307.772Z" fill="#25861F" stroke="#25861F" stroke-width="0.423251"/>
<path d="M415.156 308.802L416.803 310.515M419.508 313.33L418.803 312.596M415.478 310.729C415.802 310.536 416.591 310.295 417.156 310.883M417.156 310.883L416.803 310.515M417.156 310.883L418.567 312.351M416.767 312.315C417.21 312.204 418.236 312.104 418.803 312.596M418.803 312.596L418.567 312.351M416.596 308.831C416.511 309.069 416.434 309.74 416.803 310.515M418.363 310.546C418.238 310.784 418.104 311.478 418.567 312.351" stroke="#1F6B19" stroke-width="0.423251" stroke-linecap="round"/>
<path d="M427.695 305.65C427.089 304.847 425.277 306.19 424.447 306.962C425.052 305.735 425.948 303.257 424.699 303.157C423.449 303.057 423.023 305.329 422.967 306.477C422.463 305.354 421.27 303.323 420.53 304.186C419.791 305.049 421.123 306.818 421.882 307.595C420.615 307.057 418.121 306.278 418.277 307.464C418.434 308.65 420.743 308.953 421.878 308.957C420.595 309.273 418.205 310.204 418.907 311.391C419.608 312.579 421.552 310.852 422.436 309.84C421.859 310.946 421.032 313.248 422.345 313.604C423.657 313.961 423.806 311.486 423.717 310.204C423.954 311.166 425.429 313.694 426.432 312.935C427.235 312.329 425.866 310.41 425.08 309.527C425.52 309.929 428.441 310.738 428.645 309.497C428.808 308.505 426.446 308.169 425.245 308.126C425.726 308.007 428.453 306.653 427.695 305.65Z" fill="#E56610"/>
<circle cx="423.546" cy="308.593" r="1.15601" transform="rotate(76.1331 423.546 308.593)" fill="#FFB42E"/>
<path d="M424.793 311.81C424.187 311.007 422.375 312.35 421.545 313.122C422.149 311.895 423.046 309.417 421.796 309.317C420.547 309.218 420.121 311.489 420.064 312.637C419.56 311.514 418.367 309.484 417.628 310.346C416.888 311.209 418.221 312.978 418.98 313.755C417.713 313.217 415.218 312.438 415.375 313.624C415.532 314.81 417.841 315.114 418.975 315.117C417.693 315.434 415.303 316.364 416.004 317.551C416.706 318.739 418.649 317.012 419.534 316C418.956 317.106 418.13 319.408 419.442 319.764C420.755 320.121 420.904 317.646 420.814 316.364C421.052 317.326 422.526 319.854 423.53 319.096C424.333 318.489 422.963 316.571 422.178 315.687C422.617 316.089 425.539 316.899 425.743 315.658C425.906 314.665 423.544 314.329 422.342 314.286C422.823 314.167 425.551 312.813 424.793 311.81Z" fill="white"/>
<circle cx="420.644" cy="314.753" r="1.15601" transform="rotate(76.1331 420.644 314.753)" fill="#E56610"/>
<path d="M843.798 366.024C843.008 362.597 839.936 356.746 833.972 360.759C832.542 365.125 840.329 367.549 843.798 366.024Z" fill="#25861F" stroke="#25861F" stroke-width="0.423251"/>
<path d="M841.897 365.09L839.147 363.429M834.628 360.699L835.806 361.411M840.802 362.686C840.447 363.052 839.5 363.642 838.557 363.073M838.557 363.073L839.147 363.429M838.557 363.073L836.199 361.649M838.563 361.065C838.024 361.365 836.718 361.855 835.806 361.411M835.806 361.411L836.199 361.649M840.006 365.557C840.034 365.216 839.9 364.313 839.147 363.429M837.098 363.934C837.178 363.58 837.11 362.628 836.199 361.649" stroke="#1F6B19" stroke-width="0.423251" stroke-linecap="round"/>
<path d="M819.674 357.807C819.55 361.322 821.003 367.768 827.802 365.435C830.313 361.589 823.419 357.231 819.674 357.807Z" fill="#25861F" stroke="#25861F" stroke-width="0.423251"/>
<path d="M821.268 359.201L823.495 361.518M827.154 365.324L826.199 364.331M821.704 361.807C822.142 361.545 823.209 361.22 823.972 362.014M823.972 362.014L823.495 361.518M823.972 362.014L825.881 364M823.447 363.952C824.045 363.801 825.433 363.666 826.199 364.331M826.199 364.331L825.881 364M823.216 359.239C823.101 359.562 822.996 360.469 823.495 361.518M825.605 361.559C825.436 361.881 825.255 362.819 825.881 364" stroke="#1F6B19" stroke-width="0.423251" stroke-linecap="round"/>
<path d="M838.224 354.936C837.404 353.85 834.954 355.667 833.832 356.711C834.649 355.052 835.861 351.701 834.172 351.566C832.482 351.431 831.906 354.502 831.829 356.055C831.148 354.536 829.535 351.79 828.534 352.957C827.534 354.124 829.336 356.517 830.362 357.567C828.649 356.84 825.276 355.786 825.488 357.39C825.7 358.994 828.822 359.404 830.357 359.409C828.622 359.837 825.39 361.095 826.339 362.701C827.288 364.307 829.916 361.971 831.112 360.603C830.331 362.099 829.213 365.212 830.988 365.694C832.764 366.176 832.965 362.829 832.844 361.095C833.165 362.396 835.159 365.814 836.516 364.789C837.602 363.969 835.75 361.375 834.688 360.18C835.282 360.723 839.233 361.818 839.509 360.14C839.73 358.797 836.535 358.344 834.91 358.285C835.561 358.124 839.249 356.293 838.224 354.936Z" fill="#E56610"/>
<circle cx="832.613" cy="358.916" r="1.56332" transform="rotate(76.1331 832.613 358.916)" fill="#FFB42E"/>
<path d="M834.3 363.266C833.479 362.181 831.029 363.997 829.907 365.041C830.724 363.382 831.937 360.031 830.247 359.896C828.557 359.761 827.981 362.832 827.905 364.385C827.223 362.866 825.61 360.12 824.61 361.288C823.61 362.455 825.412 364.847 826.438 365.897C824.725 365.17 821.351 364.116 821.563 365.72C821.775 367.324 824.898 367.734 826.432 367.739C824.698 368.167 821.466 369.425 822.414 371.031C823.363 372.637 825.991 370.301 827.187 368.933C826.406 370.429 825.288 373.542 827.064 374.024C828.839 374.506 829.04 371.159 828.919 369.425C829.24 370.726 831.234 374.144 832.591 373.119C833.677 372.299 831.825 369.705 830.763 368.51C831.357 369.053 835.308 370.148 835.584 368.47C835.805 367.127 832.61 366.674 830.986 366.615C831.636 366.454 835.325 364.623 834.3 363.266Z" fill="white"/>
<circle cx="828.688" cy="367.246" r="1.56332" transform="rotate(76.1331 828.688 367.246)" fill="#E56610"/>
<path d="M47.0394 382.5C49.559 375.833 56.3348 359.052 59.5981 361.5C61.5981 363 59.4806 384 47.0394 382.5C47.0122 382.837 46.9834 383.17 46.953 383.5C36.8369 382.7 30.098 368.5 31.0981 368C39.0981 367.6 45.0014 378.167 46.953 383.5C46.9834 383.17 47.0122 382.837 47.0394 382.5Z" fill="#25861F"/>
<path d="M45.5981 392.5C46.1152 390.173 46.6256 387.051 46.953 383.5M41.0981 351C47.1249 359.323 47.8496 372.433 47.0394 382.5M47.0394 382.5C49.559 375.833 56.3348 359.052 59.5981 361.5C61.5981 363 59.4806 384 47.0394 382.5ZM47.0394 382.5C47.0122 382.837 46.9834 383.17 46.953 383.5M46.953 383.5C45.0014 378.167 39.0981 367.6 31.0981 368C30.098 368.5 36.8369 382.7 46.953 383.5Z" stroke="#25861F" stroke-linecap="round"/>
<path d="M33.3252 335.142C30.961 336.155 33.1845 341.475 34.5917 344.008C31.9178 341.756 26.3167 338.013 25.3035 341.052C24.2903 344.092 29.666 346.541 32.4805 347.385C29.3846 347.948 23.6148 349.665 25.3035 352.029C26.9922 354.393 32.1993 352.17 34.5917 350.762C32.4808 353.577 29.0188 359.291 32.0585 359.628C35.0982 359.966 37.2654 354.421 37.969 351.607C37.969 354.984 38.8134 361.486 42.1908 360.473C45.5682 359.459 42.4723 353.577 40.5021 350.762C42.8944 352.873 48.1013 356.335 49.79 353.296C51.4788 350.256 45.4275 348.37 42.1908 347.807C44.7239 347.807 51.9009 345.696 50.6344 342.741C49.6212 340.377 44.0203 342.6 41.3464 344.008C42.613 343.163 46.4126 336.408 43.4573 335.142C41.0931 334.129 38.8134 339.786 37.969 342.741C37.969 341.475 36.2804 333.875 33.3252 335.142Z" fill="white"/>
<circle cx="38.5" cy="347.5" r="3.5" fill="#E56610"/>
<path d="M139.15 366.698C137.787 363.091 134.122 354.013 132.356 355.337C131.274 356.148 132.42 367.509 139.15 366.698C139.165 366.88 139.181 367.06 139.197 367.239C144.67 366.806 148.316 359.124 147.775 358.853C143.447 358.637 140.253 364.353 139.197 367.239C139.181 367.06 139.165 366.88 139.15 366.698Z" fill="#237C1D"/>
<path d="M139.93 372.108C139.65 370.849 139.374 369.16 139.197 367.239M142.365 349.656C139.104 354.159 138.712 361.251 139.15 366.698M139.15 366.698C137.787 363.091 134.122 354.013 132.356 355.337C131.274 356.148 132.42 367.509 139.15 366.698ZM139.15 366.698C139.165 366.88 139.181 367.06 139.197 367.239M139.197 367.239C140.253 364.353 143.447 358.637 147.775 358.853C148.316 359.124 144.67 366.806 139.197 367.239Z" stroke="#237C1D" stroke-linecap="round"/>
<path d="M146.13 341.075C147.38 341.611 146.205 344.423 145.461 345.763C146.874 344.572 149.836 342.593 150.372 344.2C150.907 345.807 148.065 347.102 146.577 347.549C148.214 347.846 151.265 348.754 150.372 350.004C149.479 351.254 146.726 350.079 145.461 349.335C146.577 350.823 148.407 353.844 146.8 354.022C145.193 354.201 144.047 351.269 143.675 349.781C143.675 351.567 143.228 355.005 141.442 354.469C139.657 353.933 141.294 350.823 142.335 349.335C141.07 350.451 138.317 352.281 137.424 350.674C136.531 349.067 139.731 348.07 141.442 347.772C140.103 347.772 136.308 346.656 136.978 345.093C137.514 343.843 140.475 345.019 141.889 345.763C141.219 345.316 139.21 341.745 140.773 341.075C142.023 340.539 143.228 343.531 143.675 345.093C143.675 344.423 144.568 340.405 146.13 341.075Z" fill="#E56610"/>
<circle cx="1.56262" cy="1.56262" r="1.56262" transform="matrix(-1 0 0 1 145.175 345.912)" fill="#FFB42E"/>
<path d="M556.366 332.724C558.685 326.587 564.922 311.141 567.926 313.394C569.767 314.774 567.818 334.105 556.366 332.724C556.341 333.034 556.315 333.341 556.287 333.644C546.975 332.908 540.772 319.837 541.692 319.377C549.056 319.009 554.49 328.735 556.287 333.644C556.315 333.341 556.341 333.034 556.366 332.724Z" fill="#237C1D"/>
<path d="M555.04 341.929C555.515 339.787 555.985 336.913 556.287 333.644M550.897 303.729C556.445 311.389 557.112 323.457 556.366 332.724M556.366 332.724C558.685 326.587 564.922 311.141 567.926 313.394C569.767 314.774 567.818 334.105 556.366 332.724ZM556.366 332.724C556.341 333.034 556.315 333.341 556.287 333.644M556.287 333.644C554.49 328.735 549.056 319.009 541.692 319.377C540.772 319.837 546.975 332.908 556.287 333.644Z" stroke="#237C1D" stroke-linecap="round"/>
<path d="M544.49 289.128C542.363 290.039 544.363 294.825 545.629 297.104C543.224 295.078 538.185 291.71 537.273 294.445C536.361 297.18 541.198 299.383 543.73 300.142C540.945 300.649 535.754 302.193 537.273 304.32C538.792 306.447 543.477 304.447 545.629 303.181C543.73 305.713 540.616 310.853 543.35 311.157C546.085 311.461 548.035 306.473 548.668 303.941C548.668 306.979 549.427 312.829 552.466 311.917C555.505 311.005 552.719 305.713 550.947 303.181C553.099 305.08 557.784 308.195 559.303 305.46C560.822 302.725 555.378 301.029 552.466 300.522C554.745 300.522 561.202 298.623 560.062 295.964C559.151 293.837 554.112 295.838 551.706 297.104C552.846 296.344 556.264 290.267 553.605 289.128C551.478 288.216 549.427 293.306 548.668 295.964C548.668 294.825 547.149 287.988 544.49 289.128Z" fill="#E56610"/>
<circle cx="548.774" cy="300.014" r="2.65876" fill="#FFB42E"/>
<path d="M224.24 336.022C222.86 332.37 219.148 323.177 217.36 324.518C216.264 325.34 217.424 336.844 224.24 336.022C224.255 336.207 224.271 336.389 224.287 336.57C229.829 336.132 233.521 328.353 232.973 328.079C228.59 327.86 225.357 333.648 224.287 336.57C224.271 336.389 224.255 336.207 224.24 336.022Z" fill="#25861F"/>
<path d="M225.03 341.5C224.746 340.226 224.467 338.515 224.287 336.57M227.495 318.766C224.193 323.325 223.796 330.507 224.24 336.022M224.24 336.022C222.86 332.37 219.148 323.177 217.36 324.518C216.264 325.34 217.424 336.844 224.24 336.022ZM224.24 336.022C224.255 336.207 224.271 336.389 224.287 336.57M224.287 336.57C225.357 333.648 228.59 327.86 232.973 328.079C233.521 328.353 229.829 336.132 224.287 336.57Z" stroke="#25861F" stroke-linecap="round"/>
<path d="M231.753 310.078C233.048 310.633 231.83 313.547 231.059 314.935C232.524 313.701 235.593 311.65 236.148 313.316C236.703 314.981 233.758 316.322 232.216 316.785C233.912 317.093 237.073 318.034 236.148 319.329C235.223 320.624 232.37 319.406 231.059 318.635C232.216 320.177 234.112 323.307 232.447 323.492C230.782 323.677 229.595 320.64 229.209 319.098C229.209 320.948 228.747 324.51 226.896 323.955C225.046 323.399 226.742 320.177 227.822 318.635C226.511 319.792 223.658 321.688 222.733 320.023C221.808 318.358 225.123 317.325 226.896 317.016C225.509 317.016 221.577 315.86 222.271 314.241C222.826 312.946 225.894 314.164 227.359 314.935C226.665 314.472 224.584 310.772 226.203 310.078C227.498 309.523 228.747 312.622 229.209 314.241C229.209 313.547 230.134 309.384 231.753 310.078Z" fill="white"/>
<circle cx="1.91739" cy="1.91739" r="1.91739" transform="matrix(-1 0 0 1 230.836 314.93)" fill="#E56610"/>
</g>
<defs>
<clipPath id="clip0_595_5757">
<rect width="905" height="412" fill="white"/>
</clipPath>
</defs>
</svg>
