<svg width="56" height="56" viewBox="0 0 56 56" fill="none" xmlns="http://www.w3.org/2000/svg">
<path d="M29.75 1.58771L49.9987 13.2783C51.0816 13.9035 51.7487 15.059 51.7487 16.3094L51.7487 39.6906C51.7487 40.941 51.0816 42.0965 49.9987 42.7217L29.75 54.4123C28.6671 55.0375 27.3329 55.0375 26.25 54.4123L6.00129 42.7217C4.91838 42.0965 4.25129 40.941 4.25129 39.6906L4.25129 16.3094C4.25129 15.059 4.91838 13.9035 6.00129 13.2783L26.25 1.58771C27.3329 0.962498 28.6671 0.962498 29.75 1.58771Z" fill="#FED22B" stroke="black"/>
<path d="M23.0894 41.2348C23.2213 40.3435 23.6718 39.3698 24.9104 37.8956C25.0544 37.7244 25.0402 37.469 24.88 37.3099C24.699 37.1294 24.4012 37.1429 24.2364 37.3377C22.8497 38.9903 22.3638 40.1242 22.2236 41.1081C22.1883 41.3587 22.3693 41.5845 22.6218 41.6043C22.853 41.6237 23.0565 41.4607 23.0894 41.2348Z" fill="black"/>
<path d="M24.8934 41.57C24.7717 40.6773 24.9396 39.6166 25.7193 37.8584C25.8119 37.6528 25.7267 37.4134 25.5285 37.3037C25.3061 37.1824 25.0238 37.2762 24.9204 37.5089C24.0447 39.4826 23.8901 40.7056 24.0267 41.6877C24.0606 41.9379 24.2978 42.1034 24.547 42.0547C24.7729 42.0092 24.924 41.7969 24.8934 41.57Z" fill="black"/>
<path d="M32.4895 40.8041C32.1184 39.9813 31.9755 38.9194 32.2238 37.0113C32.2518 36.7898 32.1029 36.5825 31.8824 36.5361C31.6329 36.4824 31.3894 36.6531 31.3576 36.9058C31.0815 39.0474 31.2834 40.2623 31.6941 41.1649C31.7975 41.3934 32.0723 41.4856 32.2971 41.3681C32.5 41.2594 32.5849 41.0137 32.4895 40.8041Z" fill="black"/>
<path d="M30.802 41.2572C30.4309 40.4344 30.288 39.3725 30.5363 37.4644C30.5643 37.2429 30.4154 37.0356 30.1949 36.9892C29.9454 36.9355 29.7019 37.1063 29.6701 37.3589C29.394 39.5006 29.5959 40.7154 30.0066 41.6181C30.11 41.8466 30.3848 41.9387 30.6096 41.8212C30.8125 41.7126 30.8974 41.4668 30.802 41.2572Z" fill="black"/>
<path d="M37.9 37.3976C37.1027 36.9753 36.34 36.2212 35.3678 34.5617C35.2558 34.3686 35.0075 34.2965 34.8078 34.3952C34.5781 34.505 34.4889 34.7911 34.6197 35.0093C35.7125 36.8715 36.615 37.7088 37.4929 38.1728C37.7173 38.2905 37.9897 38.1934 38.0946 37.9663C38.1885 37.7543 38.1046 37.5086 37.9008 37.4004L37.9 37.3976Z" fill="black"/>
<path d="M36.6451 38.339C35.8478 37.9167 35.0851 37.1626 34.113 35.5031C34.001 35.31 33.7526 35.2379 33.553 35.3366C33.3232 35.4464 33.2341 35.7325 33.3648 35.9507C34.4576 37.8129 35.3601 38.6502 36.238 39.1142C36.4624 39.2319 36.7348 39.1348 36.8397 38.9078C36.9336 38.6957 36.8497 38.45 36.6459 38.3418L36.6451 38.339Z" fill="black"/>
<path d="M18.8607 36.5463C17.8512 36.8168 16.9653 36.7843 16.8821 36.4737C16.7988 36.163 17.5498 35.6919 18.5593 35.4214C19.5688 35.1509 20.4547 35.1835 20.5379 35.4941C20.6211 35.8047 19.8702 36.2758 18.8607 36.5463Z" fill="black" stroke="black" stroke-miterlimit="10"/>
<path d="M29.8545 24.9183C34.769 24.3731 38.952 25.8896 40.0083 28.9431C41.1188 32.1539 38.4295 36.0544 33.7676 38.5212C30.166 34.7873 29.7122 28.7632 29.8517 24.9191L29.8545 24.9183Z" fill="#FED22B" stroke="black" stroke-miterlimit="10"/>
<path d="M26.8713 25.5756C27.0067 25.5183 27.1428 25.4637 27.2824 25.4112C28.1528 25.0936 29.0314 24.9305 29.8905 24.9083C30.1504 28.6455 30.9978 34.5641 33.7136 38.5354C33.1245 38.9464 32.4721 39.29 31.7695 39.5476C31.5196 39.6387 31.2724 39.717 31.0213 39.7812C28.0202 35.7689 27.1284 29.4371 26.8734 25.5721L26.8713 25.5756Z" fill="black" stroke="black" stroke-miterlimit="10"/>
<path d="M22.2741 28.0715C23.6743 27.0543 25.3577 26.1601 27.2424 25.4773C27.037 29.4687 27.4451 35.9301 31.5928 39.6322C29.6573 40.1478 27.7642 40.3717 26.0298 40.3331C22.8545 36.9642 22.2306 31.8236 22.2741 28.0715Z" fill="#FED22B" stroke="black" stroke-miterlimit="10"/>
<path d="M21.9169 28.4908C22.0583 32.0216 22.7842 36.8908 25.4192 40.2115C22.3427 39.9448 19.8498 38.4366 19.0422 36.0187C18.1995 33.4926 19.4175 30.6254 21.9169 28.4908Z" fill="black" stroke="black" stroke-miterlimit="10"/>
<path d="M37.1748 29.527C36.9419 29.5894 36.7024 29.4512 36.64 29.2182C36.5776 28.9852 36.7158 28.7458 36.9488 28.6833C37.1817 28.6209 37.4212 28.7592 37.4836 28.9921C37.5461 29.2251 37.4078 29.4646 37.1748 29.527Z" fill="black"/>
<path d="M34.2315 30.9196C33.9985 30.982 33.759 30.8437 33.6966 30.6108C33.6342 30.3778 33.7725 30.1383 34.0054 30.0759C34.2384 30.0135 34.4779 30.1517 34.5403 30.3847C34.6027 30.6177 34.4644 30.8571 34.2315 30.9196Z" fill="black"/>
<path d="M36.9719 32.0999C37.1631 32.0486 37.3326 31.961 37.481 31.8399C37.9943 31.416 38.0675 30.6881 38.0597 30.2652C38.0574 30.088 37.9005 29.9522 37.7244 29.9813C37.5793 30.0021 37.4748 30.1295 37.478 30.2764C37.4831 30.6216 37.4225 31.1382 37.1112 31.3934C36.8472 31.6118 36.4196 31.636 35.8405 31.4656C35.6936 31.4236 35.5403 31.5039 35.4883 31.6474C35.4317 31.8073 35.5236 31.9816 35.6868 32.0283C36.1892 32.1709 36.6183 32.1976 36.9755 32.1019L36.9719 32.0999Z" fill="black"/>
<path d="M37.5865 25.5962C37.7184 24.7048 38.1688 23.7311 39.4074 22.2569C39.5515 22.0857 39.5373 21.8303 39.3771 21.6713C39.1961 21.4907 38.8983 21.5042 38.7335 21.699C37.3468 23.3516 36.8609 24.4855 36.7207 25.4695C36.6853 25.7201 36.8664 25.9458 37.1188 25.9656C37.3501 25.985 37.5536 25.822 37.5865 25.5962Z" fill="black"/>
<path d="M33.0865 26.8012C33.2184 25.9099 33.6688 24.9362 34.9074 23.462C35.0515 23.2908 35.0373 23.0354 34.8771 22.8763C34.6961 22.6958 34.3983 22.7093 34.2335 22.9041C32.8468 24.5567 32.3609 25.6906 32.2207 26.6746C32.1853 26.9252 32.3664 27.1509 32.6188 27.1707C32.8501 27.1901 33.0536 27.0271 33.0865 26.8012Z" fill="black"/>
<path d="M39.876 22.1751C39.4101 22.2999 38.9312 22.0234 38.8063 21.5575C38.6815 21.0915 38.958 20.6126 39.4239 20.4878C39.8899 20.3629 40.3688 20.6394 40.4936 21.1054C40.6185 21.5713 40.342 22.0502 39.876 22.1751Z" fill="black"/>
<path d="M35.0958 23.4544C34.6298 23.5792 34.1509 23.3027 34.0261 22.8368C33.9012 22.3708 34.1777 21.8919 34.6437 21.7671C35.1096 21.6422 35.5885 21.9187 35.7134 22.3847C35.8382 22.8506 35.5617 23.3295 35.0958 23.4544Z" fill="black"/>
<path d="M26.3142 25.949C26.2382 25.7554 25.2295 25.7816 25.071 25.7637C24.476 25.7031 23.8822 25.6241 23.293 25.5288C21.8434 25.2933 20.3953 24.9731 19.0065 24.4922C17.3407 23.9107 15.5435 22.5356 15.8716 20.5428C15.9902 19.8268 16.4018 19.1921 16.8785 18.6424C17.5193 17.907 18.3426 17.2675 19.3064 17.1298C20.2962 16.9881 21.3096 17.4068 22.0546 18.0723C23.1086 19.0136 23.6604 20.3306 24.2429 21.5821C24.5886 22.3213 24.9372 23.0598 25.2879 23.7947C25.6319 24.5163 26.0198 25.1991 26.3135 25.9462L26.3142 25.949Z" fill="white" stroke="black" stroke-miterlimit="10"/>
<path d="M26.4905 25.8652C26.6263 25.7083 26.1397 24.8259 26.0821 24.6786C25.8609 24.123 25.6558 23.5601 25.4704 22.9919C25.0099 21.5992 24.6227 20.1657 24.4083 18.7131C24.1544 16.9667 24.5427 14.7377 26.4622 14.1058C27.1519 13.8788 27.9066 13.9509 28.6121 14.1205C29.5595 14.3489 30.5075 14.7821 31.0759 15.5763C31.6581 16.3878 31.7548 17.4801 31.5084 18.4503C31.1579 19.8192 30.2491 20.9157 29.4066 22.0125C28.9112 22.6607 28.4157 23.3088 27.9246 23.9619C27.4424 24.6035 27.0156 25.2604 26.4905 25.8652Z" fill="white" stroke="black" stroke-miterlimit="10"/>
<path d="M34.1976 33.0398C33.8094 33.1438 33.4103 32.9134 33.3062 32.5251C33.2022 32.1368 33.4326 31.7377 33.8209 31.6337C34.2092 31.5297 34.6083 31.7601 34.7123 32.1484C34.8163 32.5366 34.5859 32.9357 34.1976 33.0398Z" fill="#FF6B30"/>
<path d="M38.7323 29.7136C38.344 29.8176 37.9449 29.5872 37.8409 29.1989C37.7368 28.8107 37.9673 28.4116 38.3555 28.3075C38.7438 28.2035 39.1429 28.4339 39.247 28.8222C39.351 29.2105 39.1206 29.6096 38.7323 29.7136Z" fill="#FF6B30"/>
</svg>
