<svg width="56" height="56" viewBox="0 0 56 56" fill="none" xmlns="http://www.w3.org/2000/svg">
<path d="M29.5 2.02073L49.7487 13.7113C50.6769 14.2472 51.2487 15.2376 51.2487 16.3094L51.2487 39.6906C51.2487 40.7624 50.6769 41.7528 49.7487 42.2887L29.5 53.9793C28.5718 54.5152 27.4282 54.5152 26.5 53.9793L6.25129 42.2887C5.32308 41.7528 4.75129 40.7624 4.75129 39.6906L4.75129 16.3094C4.75129 15.2376 5.32308 14.2472 6.25129 13.7113L26.5 2.02073C27.4282 1.48483 28.5718 1.48483 29.5 2.02073Z" fill="#FED22B" stroke="black" stroke-width="2"/>
<path d="M18 17H24.5H38C38.5523 17 39 17.4477 39 18V25.8406C39 26.2406 38.7616 26.6022 38.3939 26.7597L35.5 28L32 29.5H23.5L20.25 28L17.5809 26.7681C17.2268 26.6047 17 26.2502 17 25.8602V18C17 17.4477 17.4477 17 18 17Z" fill="#FE9D2B" stroke="black" stroke-width="1.5"/>
<path d="M32.5 34H23.5C22.9477 34 22.5 34.4477 22.5 35V39.5H33.5V35C33.5 34.4477 33.0523 34 32.5 34Z" fill="#FE9D2B" stroke="black" stroke-width="1.5"/>
<path d="M34.5 36.5H21.5C20.9477 36.5 20.5 36.9477 20.5 37.5V40.5C20.5 41.0523 20.9477 41.5 21.5 41.5H34.5C35.0523 41.5 35.5 41.0523 35.5 40.5V37.5C35.5 36.9477 35.0523 36.5 34.5 36.5Z" fill="#E56610" stroke="black" stroke-width="1.5"/>
<path d="M19.5 20H36.5V24.7L28 28.7L19.5 24.7V20Z" fill="#FED22B"/>
<path d="M34.5 15H21.5C20.9477 15 20.5 15.4477 20.5 16V24C20.8646 28.0111 23.4731 30.9419 25.0678 32.1862C25.3314 32.3919 25.5 32.7008 25.5 33.0352V36H30V33.0662C30 32.7149 30.187 32.3919 30.4784 32.1958C34.1073 29.7544 35.3402 25.7582 35.5 24V16C35.5 15.4477 35.0523 15 34.5 15Z" fill="#FE9D2B" stroke="black" stroke-width="1.5"/>
</svg>
