<svg width="56" height="56" viewBox="0 0 56 56" fill="none" xmlns="http://www.w3.org/2000/svg">
<path d="M29.5 2.02073L49.7487 13.7113C50.6769 14.2472 51.2487 15.2376 51.2487 16.3094L51.2487 39.6906C51.2487 40.7624 50.6769 41.7528 49.7487 42.2887L29.5 53.9793C28.5718 54.5152 27.4282 54.5152 26.5 53.9793L6.25129 42.2887C5.32308 41.7528 4.75129 40.7624 4.75129 39.6906L4.75129 16.3094C4.75129 15.2376 5.32308 14.2472 6.25129 13.7113L26.5 2.02073C27.4282 1.48483 28.5718 1.48483 29.5 2.02073Z" fill="#FED22B" stroke="black" stroke-width="2"/>
<path d="M43 22C43 20.8954 42.1046 20 41 20H15C13.8954 20 13 20.8954 13 22V37C13 38.1046 13.8954 39 15 39H41C42.1046 39 43 38.1046 43 37V22Z" fill="#E56610"/>
<path d="M16 18C16 17.4477 16.4477 17 17 17H24C26.2091 17 28 18.7909 28 21V34C28 34.5523 27.5523 35 27 35H17C16.4477 35 16 34.5523 16 34V18Z" fill="white"/>
<path d="M40 18C40 17.4477 39.5523 17 39 17H32C29.7909 17 28 18.7909 28 21V34C28 34.5523 28.4477 35 29 35H39C39.5523 35 40 34.5523 40 34V18Z" fill="white"/>
<path d="M28 35H39C39.5523 35 40 34.5523 40 34V20M28 35H17C16.4477 35 16 34.5523 16 34V20M28 35V21M28 21V21C28 18.7909 26.2091 17 24 17H17C16.4477 17 16 17.4477 16 18V20M28 21L28.062 20.5039C28.3122 18.5021 30.0138 17 32.0311 17H39C39.5523 17 40 17.4477 40 18V20M16 20H15C13.8954 20 13 20.8954 13 22V37C13 38.1046 13.8954 39 15 39H41C42.1046 39 43 38.1046 43 37V22C43 20.8954 42.1046 20 41 20H40" stroke="black" stroke-width="1.5"/>
<path d="M19 30L24 30" stroke="black" stroke-width="1.5" stroke-linecap="round"/>
<path d="M32 30L37 30" stroke="black" stroke-width="1.5" stroke-linecap="round"/>
<path d="M19 26L24 26" stroke="black" stroke-width="1.5" stroke-linecap="round"/>
<path d="M32 26L37 26" stroke="black" stroke-width="1.5" stroke-linecap="round"/>
<path d="M19 22L24 22" stroke="black" stroke-width="1.5" stroke-linecap="round"/>
<path d="M32 22L37 22" stroke="black" stroke-width="1.5" stroke-linecap="round"/>
</svg>
