<svg width="56" height="56" viewBox="0 0 56 56" fill="none" xmlns="http://www.w3.org/2000/svg">
<path d="M29.5 2.02073L49.7487 13.7113C50.6769 14.2472 51.2487 15.2376 51.2487 16.3094L51.2487 39.6906C51.2487 40.7624 50.6769 41.7528 49.7487 42.2887L29.5 53.9793C28.5718 54.5152 27.4282 54.5152 26.5 53.9793L6.25129 42.2887C5.32308 41.7528 4.75129 40.7624 4.75129 39.6906L4.75129 16.3094C4.75129 15.2376 5.32308 14.2472 6.25129 13.7113L26.5 2.02073C27.4282 1.48483 28.5718 1.48483 29.5 2.02073Z" fill="#FED22B" stroke="black" stroke-width="2"/>
<mask id="path-2-inside-1_507_5038" fill="white">
<rect x="13" y="25.2285" width="29.4878" height="15.7726" rx="1.37153"/>
</mask>
<rect x="13" y="25.2285" width="29.4878" height="15.7726" rx="1.37153" fill="#FE9D2B" stroke="black" stroke-width="2.80217" mask="url(#path-2-inside-1_507_5038)"/>
<rect x="15.5687" y="19.4369" width="2.33514" height="6.07137" fill="#E56610" stroke="black" stroke-width="1.40109"/>
<mask id="path-4-inside-2_507_5038" fill="white">
<rect x="42.8906" y="15" width="3.73623" height="29.8898" rx="0.685763" transform="rotate(90 42.8906 15)"/>
</mask>
<rect x="42.8906" y="15" width="3.73623" height="29.8898" rx="0.685763" transform="rotate(90 42.8906 15)" fill="#FE9D2B" stroke="black" stroke-width="2.80217" mask="url(#path-4-inside-2_507_5038)"/>
<rect x="37.9867" y="19.4369" width="2.33514" height="6.07137" fill="#E56610" stroke="black" stroke-width="1.40109"/>
<path d="M28.0315 27.1981L30.6121 28.688C30.6798 28.7271 30.7214 28.7993 30.7214 28.8775V31.8573C30.7214 31.9355 30.6798 32.0077 30.6121 32.0468L28.0315 33.5367C27.9638 33.5758 27.8804 33.5758 27.8127 33.5367L25.2321 32.0468C25.1644 32.0077 25.1227 31.9355 25.1227 31.8573V28.8775C25.1227 28.7993 25.1644 28.7271 25.2321 28.688L27.8127 27.1981C27.8804 27.1591 27.9638 27.1591 28.0315 27.1981Z" fill="#FED22B" stroke="black" stroke-width="0.934057"/>
<path d="M25.2883 32.3407L27.8689 33.8306C27.9366 33.8697 27.9783 33.9419 27.9783 34.0201V36.9999C27.9783 37.0781 27.9366 37.1503 27.8689 37.1893L25.2883 38.6793C25.2206 38.7183 25.1372 38.7183 25.0696 38.6793L22.4889 37.1893C22.4213 37.1503 22.3796 37.0781 22.3796 36.9999V34.0201C22.3796 33.9419 22.4213 33.8697 22.4889 33.8306L25.0696 32.3407C25.1372 32.3016 25.2206 32.3016 25.2883 32.3407Z" fill="#FED22B" stroke="black" stroke-width="0.934057"/>
<path d="M31.1164 32.3407L33.697 33.8306C33.7647 33.8697 33.8064 33.9419 33.8064 34.0201V36.9999C33.8064 37.0781 33.7647 37.1503 33.697 37.1893L31.1164 38.6793C31.0487 38.7183 30.9654 38.7183 30.8977 38.6793L28.3171 37.1893C28.2494 37.1503 28.2077 37.0781 28.2077 36.9999V34.0201C28.2077 33.9419 28.2494 33.8697 28.3171 33.8306L30.8977 32.3407C30.9654 32.3016 31.0487 32.3016 31.1164 32.3407Z" fill="#FED22B" stroke="black" stroke-width="0.934057"/>
<rect x="18.6045" y="18.7363" width="18.6811" height="6.5384" fill="white"/>
<path d="M21.4067 24.2831C20.1613 24.2831 18.9158 24.122 18.6045 23.8729V25.7411H37.2856V23.4993H34.1721C32.9267 23.4993 33.0718 21.2576 31.9926 21.2576C31.0586 21.2576 30.8865 23.5388 30.7472 23.8729C30.4359 24.6202 29.1905 25.0303 28.8791 24.2831C28.4198 23.1808 28.2564 22.7886 27.9451 22.7886C27.6337 22.7886 26.6997 22.7886 26.6997 22.0413C26.6997 20.5468 26.0769 20.1732 25.7656 20.1732C25.4542 20.0487 24.7693 20.1732 24.5202 21.6677C24.2088 23.5358 22.9634 24.2831 21.4067 24.2831Z" fill="#FED22B" stroke="black" stroke-width="0.934057"/>
</svg>
