<svg width="56" height="56" viewBox="0 0 56 56" fill="none" xmlns="http://www.w3.org/2000/svg">
<path d="M29.75 1.58771L49.9987 13.2783C51.0816 13.9035 51.7487 15.059 51.7487 16.3094L51.7487 39.6906C51.7487 40.941 51.0816 42.0965 49.9987 42.7217L29.75 54.4123C28.6671 55.0375 27.3329 55.0375 26.25 54.4123L6.00129 42.7217C4.91838 42.0965 4.25129 40.941 4.25129 39.6906L4.25129 16.3094C4.25129 15.059 4.91838 13.9035 6.00129 13.2783L26.25 1.58771C27.3329 0.962498 28.6671 0.962498 29.75 1.58771Z" fill="#FED22B" stroke="black"/>
<path d="M18 17H24.5H38C38.5523 17 39 17.4477 39 18V25.8406C39 26.2406 38.7616 26.6022 38.3939 26.7597L35.5 28L32 29.5H23.5L20.25 28L17.5809 26.7681C17.2268 26.6047 17 26.2502 17 25.8602V18C17 17.4477 17.4477 17 18 17Z" fill="#FE9D2B" stroke="black"/>
<path d="M32.5 34H23.5C22.9477 34 22.5 34.4477 22.5 35V39.5H33.5V35C33.5 34.4477 33.0523 34 32.5 34Z" fill="#FE9D2B" stroke="black"/>
<path d="M34.5 36.5H21.5C20.9477 36.5 20.5 36.9477 20.5 37.5V40.5C20.5 41.0523 20.9477 41.5 21.5 41.5H34.5C35.0523 41.5 35.5 41.0523 35.5 40.5V37.5C35.5 36.9477 35.0523 36.5 34.5 36.5Z" fill="#E56610" stroke="black"/>
<path d="M19.5 20H36.5V24.7L28 28.7L19.5 24.7V20Z" fill="#FED22B"/>
<path d="M34.5 15H21.5C20.9477 15 20.5 15.4477 20.5 16V24C20.8646 28.0111 23.4731 30.9419 25.0678 32.1862C25.3314 32.3919 25.5 32.7008 25.5 33.0352V36H30V33.0662C30 32.7149 30.187 32.3919 30.4784 32.1958C34.1073 29.7544 35.3402 25.7582 35.5 24V16C35.5 15.4477 35.0523 15 34.5 15Z" fill="#FE9D2B" stroke="black"/>
</svg>
