<svg width="56" height="56" viewBox="0 0 56 56" fill="none" xmlns="http://www.w3.org/2000/svg">
<path d="M29.75 1.58771L49.9987 13.2783C51.0816 13.9035 51.7487 15.059 51.7487 16.3094L51.7487 39.6906C51.7487 40.941 51.0816 42.0965 49.9987 42.7217L29.75 54.4123C28.6671 55.0375 27.3329 55.0375 26.25 54.4123L6.00129 42.7217C4.91838 42.0965 4.25129 40.941 4.25129 39.6906L4.25129 16.3094C4.25129 15.059 4.91838 13.9035 6.00129 13.2783L26.25 1.58771C27.3329 0.962498 28.6671 0.962498 29.75 1.58771Z" fill="#FED22B" stroke="black"/>
<path d="M43 22C43 20.8954 42.1046 20 41 20H15C13.8954 20 13 20.8954 13 22V37C13 38.1046 13.8954 39 15 39H41C42.1046 39 43 38.1046 43 37V22Z" fill="#E56610"/>
<path d="M16 18C16 17.4477 16.4477 17 17 17H24C26.2091 17 28 18.7909 28 21V34C28 34.5523 27.5523 35 27 35H17C16.4477 35 16 34.5523 16 34V18Z" fill="white"/>
<path d="M40 18C40 17.4477 39.5523 17 39 17H32C29.7909 17 28 18.7909 28 21V34C28 34.5523 28.4477 35 29 35H39C39.5523 35 40 34.5523 40 34V18Z" fill="white"/>
<path d="M28 35H39C39.5523 35 40 34.5523 40 34V20M28 35H17C16.4477 35 16 34.5523 16 34V20M28 35V21M28 21V21C28 18.7909 26.2091 17 24 17H17C16.4477 17 16 17.4477 16 18V20M28 21L28.062 20.5039C28.3122 18.5021 30.0138 17 32.0311 17H39C39.5523 17 40 17.4477 40 18V20M16 20H15C13.8954 20 13 20.8954 13 22V37C13 38.1046 13.8954 39 15 39H41C42.1046 39 43 38.1046 43 37V22C43 20.8954 42.1046 20 41 20H40" stroke="black"/>
<path d="M19 30L24 30" stroke="black" stroke-linecap="round"/>
<path d="M32 30L37 30" stroke="black" stroke-linecap="round"/>
<path d="M19 26L24 26" stroke="black" stroke-linecap="round"/>
<path d="M32 26L37 26" stroke="black" stroke-linecap="round"/>
<path d="M19 22L24 22" stroke="black" stroke-linecap="round"/>
<path d="M32 22L37 22" stroke="black" stroke-linecap="round"/>
</svg>
