<svg width="56" height="56" viewBox="0 0 56 56" fill="none" xmlns="http://www.w3.org/2000/svg">
<path d="M29.5 2.02073L49.7487 13.7113C50.6769 14.2472 51.2487 15.2376 51.2487 16.3094L51.2487 39.6906C51.2487 40.7624 50.6769 41.7528 49.7487 42.2887L29.5 53.9793C28.5718 54.5152 27.4282 54.5152 26.5 53.9793L6.25129 42.2887C5.32308 41.7528 4.75129 40.7624 4.75129 39.6906L4.75129 16.3094C4.75129 15.2376 5.32308 14.2472 6.25129 13.7113L26.5 2.02073C27.4282 1.48483 28.5718 1.48483 29.5 2.02073Z" fill="#FED22B" stroke="black" stroke-width="2"/>
<path d="M23.0899 41.2348C23.2218 40.3435 23.6722 39.3698 24.9109 37.8956C25.0549 37.7244 25.0407 37.469 24.8805 37.3099C24.6995 37.1294 24.4017 37.1429 24.2369 37.3377C22.8502 38.9903 22.3643 40.1242 22.2241 41.1081C22.1888 41.3587 22.3698 41.5845 22.6223 41.6043C22.8535 41.6237 23.057 41.4607 23.0899 41.2348Z" fill="black"/>
<path d="M24.8934 41.57C24.7717 40.6773 24.9396 39.6166 25.7193 37.8584C25.8119 37.6528 25.7267 37.4134 25.5285 37.3037C25.3061 37.1824 25.0238 37.2762 24.9204 37.5089C24.0447 39.4826 23.8901 40.7056 24.0267 41.6877C24.0606 41.9379 24.2978 42.1034 24.547 42.0547C24.7729 42.0092 24.924 41.7969 24.8934 41.57Z" fill="black"/>
<path d="M32.4891 40.8041C32.1179 39.9813 31.975 38.9194 32.2233 37.0113C32.2513 36.7898 32.1024 36.5825 31.882 36.5361C31.6325 36.4824 31.3889 36.6531 31.3571 36.9058C31.081 39.0474 31.2829 40.2623 31.6936 41.1649C31.797 41.3934 32.0719 41.4856 32.2966 41.3681C32.4995 41.2594 32.5844 41.0137 32.4891 40.8041Z" fill="black"/>
<path d="M30.8016 41.2572C30.4304 40.4344 30.2875 39.3725 30.5358 37.4644C30.5638 37.2429 30.4149 37.0356 30.1945 36.9892C29.945 36.9355 29.7014 37.1063 29.6696 37.3589C29.3935 39.5006 29.5954 40.7154 30.0061 41.6181C30.1095 41.8466 30.3844 41.9387 30.6091 41.8212C30.812 41.7126 30.8969 41.4668 30.8016 41.2572Z" fill="black"/>
<path d="M37.9005 37.3976C37.1031 36.9753 36.3405 36.2212 35.3683 34.5617C35.2563 34.3686 35.0079 34.2965 34.8083 34.3952C34.5785 34.505 34.4894 34.7911 34.6202 35.0093C35.713 36.8715 36.6155 37.7088 37.4933 38.1728C37.7178 38.2905 37.9902 38.1934 38.0951 37.9663C38.189 37.7543 38.1051 37.5086 37.9013 37.4004L37.9005 37.3976Z" fill="black"/>
<path d="M36.6456 38.339C35.8483 37.9167 35.0856 37.1626 34.1134 35.5031C34.0014 35.31 33.7531 35.2379 33.5534 35.3366C33.3237 35.4464 33.2345 35.7325 33.3653 35.9507C34.4581 37.8129 35.3606 38.6502 36.2385 39.1142C36.4629 39.2319 36.7353 39.1348 36.8402 38.9078C36.9341 38.6957 36.8502 38.45 36.6464 38.3418L36.6456 38.339Z" fill="black"/>
<path d="M18.8612 36.5463C17.8517 36.8168 16.9658 36.7843 16.8826 36.4737C16.7993 36.163 17.5502 35.6919 18.5598 35.4214C19.5693 35.1509 20.4552 35.1835 20.5384 35.4941C20.6216 35.8047 19.8707 36.2758 18.8612 36.5463Z" fill="black" stroke="black" stroke-width="1.5" stroke-miterlimit="10"/>
<path d="M29.8545 24.9183C34.769 24.3731 38.952 25.8896 40.0083 28.9431C41.1188 32.1539 38.4295 36.0544 33.7676 38.5212C30.166 34.7873 29.7122 28.7632 29.8517 24.9191L29.8545 24.9183Z" fill="#FED22B" stroke="black" stroke-width="1.5" stroke-miterlimit="10"/>
<path d="M26.8713 25.5756C27.0067 25.5183 27.1428 25.4637 27.2824 25.4112C28.1528 25.0936 29.0314 24.9305 29.8905 24.9083C30.1504 28.6455 30.9978 34.5641 33.7136 38.5354C33.1245 38.9464 32.4721 39.29 31.7695 39.5476C31.5196 39.6387 31.2724 39.717 31.0213 39.7812C28.0202 35.7689 27.1284 29.4371 26.8734 25.5721L26.8713 25.5756Z" fill="black" stroke="black" stroke-width="1.5" stroke-miterlimit="10"/>
<path d="M22.2741 28.0715C23.6743 27.0543 25.3577 26.1601 27.2424 25.4773C27.037 29.4687 27.4451 35.9301 31.5928 39.6322C29.6573 40.1478 27.7642 40.3717 26.0298 40.3331C22.8545 36.9642 22.2306 31.8236 22.2741 28.0715Z" fill="#FED22B" stroke="black" stroke-width="1.5" stroke-miterlimit="10"/>
<path d="M21.9164 28.4908C22.0578 32.0216 22.7837 36.8908 25.4187 40.2115C22.3422 39.9448 19.8493 38.4366 19.0417 36.0187C18.199 33.4926 19.417 30.6254 21.9164 28.4908Z" fill="black" stroke="black" stroke-width="1.5" stroke-miterlimit="10"/>
<path d="M37.1743 29.527C36.9414 29.5894 36.7019 29.4512 36.6395 29.2182C36.5771 28.9852 36.7153 28.7458 36.9483 28.6833C37.1813 28.6209 37.4207 28.7592 37.4831 28.9921C37.5456 29.2251 37.4073 29.4646 37.1743 29.527Z" fill="black"/>
<path d="M34.232 30.9196C33.999 30.982 33.7595 30.8437 33.6971 30.6108C33.6347 30.3778 33.7729 30.1383 34.0059 30.0759C34.2389 30.0135 34.4783 30.1517 34.5408 30.3847C34.6032 30.6177 34.4649 30.8571 34.232 30.9196Z" fill="black"/>
<path d="M36.9719 32.0999C37.1631 32.0486 37.3326 31.961 37.481 31.8399C37.9943 31.416 38.0675 30.6881 38.0597 30.2652C38.0574 30.088 37.9005 29.9522 37.7244 29.9813C37.5793 30.0021 37.4748 30.1295 37.478 30.2764C37.4831 30.6216 37.4225 31.1382 37.1112 31.3934C36.8472 31.6118 36.4196 31.636 35.8405 31.4656C35.6936 31.4236 35.5403 31.5039 35.4883 31.6474C35.4317 31.8073 35.5236 31.9816 35.6868 32.0283C36.1892 32.1709 36.6183 32.1976 36.9755 32.1019L36.9719 32.0999Z" fill="black"/>
<path d="M37.587 25.5962C37.7189 24.7048 38.1693 23.7311 39.4079 22.2569C39.5519 22.0857 39.5378 21.8303 39.3776 21.6713C39.1966 21.4907 38.8988 21.5042 38.734 21.699C37.3473 23.3516 36.8614 24.4855 36.7212 25.4695C36.6858 25.7201 36.8669 25.9458 37.1193 25.9656C37.3506 25.985 37.5541 25.822 37.587 25.5962Z" fill="black"/>
<path d="M33.086 26.8012C33.2179 25.9099 33.6683 24.9362 34.907 23.462C35.051 23.2908 35.0368 23.0354 34.8766 22.8763C34.6956 22.6958 34.3978 22.7093 34.233 22.9041C32.8463 24.5567 32.3604 25.6906 32.2202 26.6746C32.1848 26.9252 32.3659 27.1509 32.6184 27.1707C32.8496 27.1901 33.0531 27.0271 33.086 26.8012Z" fill="black"/>
<path d="M39.876 22.1751C39.4101 22.2999 38.9312 22.0234 38.8063 21.5575C38.6815 21.0915 38.958 20.6126 39.4239 20.4878C39.8899 20.3629 40.3688 20.6394 40.4936 21.1054C40.6185 21.5713 40.342 22.0502 39.876 22.1751Z" fill="black"/>
<path d="M35.0958 23.4544C34.6298 23.5792 34.1509 23.3027 34.0261 22.8368C33.9012 22.3708 34.1777 21.8919 34.6437 21.7671C35.1096 21.6422 35.5885 21.9187 35.7134 22.3847C35.8382 22.8506 35.5617 23.3295 35.0958 23.4544Z" fill="black"/>
<path d="M26.3142 25.949C26.2382 25.7554 25.2295 25.7816 25.071 25.7637C24.476 25.7031 23.8822 25.6241 23.293 25.5288C21.8434 25.2933 20.3953 24.9731 19.0065 24.4922C17.3407 23.9107 15.5435 22.5356 15.8716 20.5428C15.9902 19.8268 16.4018 19.1921 16.8785 18.6424C17.5193 17.907 18.3426 17.2675 19.3064 17.1298C20.2962 16.9881 21.3096 17.4068 22.0546 18.0723C23.1086 19.0136 23.6604 20.3306 24.2429 21.5821C24.5886 22.3213 24.9372 23.0598 25.2879 23.7947C25.6319 24.5163 26.0198 25.1991 26.3135 25.9462L26.3142 25.949Z" fill="white" stroke="black" stroke-width="1.5" stroke-miterlimit="10"/>
<path d="M26.4905 25.8652C26.6263 25.7083 26.1397 24.8259 26.0821 24.6786C25.8609 24.123 25.6558 23.5601 25.4704 22.9919C25.0099 21.5992 24.6227 20.1657 24.4083 18.7131C24.1544 16.9667 24.5427 14.7377 26.4622 14.1058C27.1519 13.8788 27.9066 13.9509 28.6121 14.1205C29.5595 14.3489 30.5075 14.7821 31.0759 15.5763C31.6581 16.3878 31.7548 17.4801 31.5084 18.4503C31.1579 19.8192 30.2491 20.9157 29.4066 22.0125C28.9112 22.6607 28.4157 23.3088 27.9246 23.9619C27.4424 24.6035 27.0156 25.2604 26.4905 25.8652Z" fill="white" stroke="black" stroke-width="1.5" stroke-miterlimit="10"/>
<path d="M34.1972 33.0398C33.8089 33.1438 33.4098 32.9134 33.3057 32.5251C33.2017 32.1368 33.4321 31.7377 33.8204 31.6337C34.2087 31.5297 34.6078 31.7601 34.7118 32.1484C34.8159 32.5366 34.5854 32.9357 34.1972 33.0398Z" fill="#FF6B30"/>
<path d="M38.7323 29.7136C38.344 29.8176 37.9449 29.5872 37.8409 29.1989C37.7368 28.8107 37.9673 28.4116 38.3555 28.3075C38.7438 28.2035 39.1429 28.4339 39.247 28.8222C39.351 29.2105 39.1206 29.6096 38.7323 29.7136Z" fill="#FF6B30"/>
</svg>
