<svg width="77" height="77" viewBox="0 0 77 77" fill="none" xmlns="http://www.w3.org/2000/svg">
<path d="M40.7528 2.45534L68.5892 18.5267C69.9832 19.3315 70.842 20.819 70.842 22.4286L70.842 54.5714C70.842 56.181 69.9832 57.6685 68.5892 58.4733L40.7528 74.5447C39.3588 75.3495 37.6412 75.3495 36.2472 74.5447L8.4108 58.4733C7.01678 57.6685 6.15802 56.181 6.15802 54.5714L6.15802 22.4286C6.15802 20.819 7.01678 19.3315 8.41081 18.5267L36.2472 2.45534C37.6412 1.6505 39.3588 1.6505 40.7528 2.45534Z" fill="#FED22B" stroke="black" stroke-width="2"/>
<path d="M50.3984 20.843C50.3984 20.1412 49.8295 19.5723 49.1277 19.5723H27.3293C26.6275 19.5723 26.0586 20.1412 26.0586 20.843V34.694C26.0586 35.3958 26.6275 35.9648 27.3293 35.9648H49.1277C49.8295 35.9648 50.3984 35.3958 50.3984 34.694V20.843Z" fill="#E56610"/>
<path d="M28.4922 17.6198C28.4922 17.2688 28.7767 16.9844 29.1276 16.9844H35.6866C37.0902 16.9844 38.2281 18.1223 38.2281 19.5259V31.8787C38.2281 32.2297 37.9437 32.5141 37.5927 32.5141H29.1276C28.7767 32.5141 28.4922 32.2297 28.4922 31.8787V17.6198Z" fill="white"/>
<path d="M47.9634 17.6198C47.9634 17.2688 47.6789 16.9844 47.328 16.9844H40.769C39.3653 16.9844 38.2274 18.1223 38.2274 19.5259V31.8787C38.2274 32.2297 38.5119 32.5141 38.8628 32.5141H47.328C47.6789 32.5141 47.9634 32.2297 47.9634 31.8787V17.6198Z" fill="white"/>
<path d="M38.228 32.5141H47.3286C47.6795 32.5141 47.964 32.2297 47.964 31.8787V19.5727M38.228 32.5141H29.1275C28.7766 32.5141 28.4921 32.2297 28.4921 31.8787V19.5727M38.228 32.5141V20.4354M38.228 20.4354V19.5259C38.228 18.1223 37.0902 16.9844 35.6865 16.9844H29.1275C28.7766 16.9844 28.4921 17.2688 28.4921 17.6198V19.5727M38.228 20.4354L38.3698 19.2292C38.5203 17.9491 39.6051 16.9844 40.894 16.9844H47.3286C47.6795 16.9844 47.964 17.2688 47.964 17.6198V19.5727M28.4921 19.5727H27.3289C26.6271 19.5727 26.0581 20.1416 26.0581 20.8434V34.6944C26.0581 35.3962 26.6271 35.9652 27.3289 35.9652H49.1272C49.829 35.9652 50.398 35.3962 50.398 34.6944V20.8434C50.398 20.1416 49.829 19.5727 49.1272 19.5727H47.964" stroke="black"/>
<path d="M30.9268 28.2012L34.9834 28.2012" stroke="black" stroke-linecap="round"/>
<path d="M41.4736 28.2012L45.5303 28.2012" stroke="black" stroke-linecap="round"/>
<path d="M30.9268 24.75L34.9834 24.75" stroke="black" stroke-linecap="round"/>
<path d="M41.4736 24.75L45.5303 24.75" stroke="black" stroke-linecap="round"/>
<path d="M30.9268 21.3008L34.9834 21.3008" stroke="black" stroke-linecap="round"/>
<path d="M41.4736 21.3008L45.5303 21.3008" stroke="black" stroke-linecap="round"/>
<mask id="mask0_513_5057" style="mask-type:alpha" maskUnits="userSpaceOnUse" x="19" y="43" width="39" height="17">
<rect x="19.0425" y="43.957" width="38.0847" height="15.9838" fill="#D9D9D9"/>
</mask>
<g mask="url(#mask0_513_5057)">
<path d="M55.5643 50.4526L51.3741 47.6767L47.0783 44.8303C46.1678 44.2273 44.9304 44.8566 44.9304 45.923V47.7896L34.3984 49.3195L23.1761 51.0252C18.6386 51.5041 18.6386 52.2875 23.1761 52.7664L34.3984 54.4721L44.9304 56.0021V57.7581C44.9304 58.9129 46.2704 59.5954 47.2569 58.9422L51.3741 56.214L55.5643 53.4381C56.6497 52.7186 56.6497 51.1709 55.5643 50.452V50.4526Z" fill="#89CCF4"/>
<mask id="mask1_513_5057" style="mask-type:luminance" maskUnits="userSpaceOnUse" x="6" y="49" width="55" height="14">
<path d="M56.0293 49.3444L48.0835 55.7919C47.7281 56.0803 47.186 55.8361 47.186 55.3883V54.6628C47.186 54.3851 46.9635 54.1553 46.6767 54.1367L15.4691 52.1162C14.9493 52.0827 14.7688 51.4319 15.2015 51.1518C15.6564 50.8569 15.4283 50.1708 14.8807 50.1863L7.42507 50.4019C6.99919 50.4144 6.75133 50.8724 6.98374 51.2169L9.84928 55.4641C9.94262 55.6026 10.0984 55.691 10.2696 55.7023L42.892 57.8668C43.13 57.8824 43.3296 58.0454 43.3853 58.2693L44.3384 62.0895C44.4293 62.4532 44.8712 62.6126 45.1864 62.3952L60.2021 52.0499C60.5291 51.8248 60.5006 51.3465 60.1496 51.159L56.6443 49.2865C56.4465 49.1808 56.2017 49.2041 56.0287 49.3444H56.0293Z" fill="white"/>
</mask>
<g mask="url(#mask1_513_5057)">
<path d="M55.5023 50.5698L51.3121 47.7939L47.0163 44.9475C46.1058 44.3444 44.8684 44.9738 44.8684 46.0402V47.9067L34.6064 49.9584L23.3841 51.1424C18.8466 51.6213 18.8466 52.4047 23.3841 52.8836L34.6064 54.0676L44.8684 56.1193V57.8753C44.8684 59.0301 46.2084 59.7126 47.1949 59.0594L51.3121 56.3312L55.5023 53.5553C56.5877 52.8358 56.5877 51.2881 55.5023 50.5692V50.5698Z" fill="#76B5F9"/>
</g>
<path d="M55.595 50.4526L51.4049 47.6767L47.109 44.8303C46.1985 44.2273 44.9611 44.8566 44.9611 45.923V47.7896L34.1592 49.3195L22.9368 51.0252C18.3993 51.5041 18.3993 52.2875 22.9368 52.7664L34.1592 54.4721L44.9611 56.0021V57.7581C44.9611 58.9129 46.3012 59.5954 47.2877 58.9422L51.4049 56.214L55.595 53.4381C56.6804 52.7186 56.6804 51.1709 55.595 50.452V50.4526Z" stroke="black" stroke-miterlimit="10"/>
</g>
</svg>
