<svg width="905" height="412" viewBox="0 0 905 412" fill="none" xmlns="http://www.w3.org/2000/svg">
<g clip-path="url(#clip0_595_6676)">
<rect y="-1" width="905" height="414" fill="#C7E9FA"/>
<rect x="819.725" y="254.355" width="13.1268" height="45.0063" fill="#5C4636"/>
<path d="M842.326 260.214C834.637 262.84 828.652 257.87 826.621 255.057C824.042 258.183 816.916 263.59 809.04 260.214C801.164 256.839 800.601 248.338 801.305 244.509C799.586 245.056 794.694 244.603 788.881 238.415C783.068 232.226 787.865 224.585 790.991 221.537C788.959 220.756 784.662 217.318 783.724 209.817C782.786 202.316 788.803 197.784 791.928 196.456C790.913 195.284 789.303 191.439 790.991 185.438C792.678 179.438 798.101 177.781 800.601 177.703C799.586 176.14 798.164 171.608 800.601 165.983C803.039 160.357 809.9 158.794 813.025 158.716C812.712 152.778 814.994 141.276 826.621 142.776C838.247 144.276 840.06 154.028 839.513 158.716C842.795 159.185 849.921 161.294 852.171 165.983C854.421 170.671 853.109 175.75 852.171 177.703C854.749 177.937 860.188 179.813 861.313 185.438C862.438 191.064 860.844 195.127 859.906 196.456C864.829 198.331 868.345 201.378 868.58 209.817C868.767 216.568 863.813 219.818 861.313 220.6C863.891 224.584 867.642 228.101 864.595 236.305C862.157 242.868 854.203 244.509 850.53 244.509C851.468 247.791 851.937 256.933 842.326 260.214Z" fill="#25861F"/>
<rect x="771.519" y="251.098" width="15.7573" height="54.025" fill="#5C4636"/>
<path d="M798.648 258.132C789.419 261.283 782.234 255.318 779.796 251.942C776.701 255.693 768.147 262.184 758.692 258.132C749.238 254.08 748.563 243.875 749.407 239.279C747.343 239.936 741.472 239.392 734.494 231.964C727.515 224.535 733.274 215.362 737.026 211.704C734.587 210.766 729.429 206.639 728.303 197.635C727.178 188.631 734.4 183.191 738.152 181.596C736.932 180.19 735 175.575 737.026 168.372C739.052 161.168 745.561 159.18 748.563 159.086C747.343 157.21 745.636 151.77 748.563 145.017C751.489 138.264 759.724 136.388 763.476 136.294C763.101 129.166 765.839 115.36 779.796 117.16C793.752 118.961 795.928 130.667 795.272 136.294C799.211 136.857 807.765 139.389 810.466 145.017C813.167 150.645 811.592 156.741 810.466 159.086C813.561 159.367 820.089 161.618 821.44 168.372C822.791 175.125 820.877 180.002 819.752 181.596C825.661 183.848 829.881 187.505 830.163 197.635C830.388 205.739 824.441 209.641 821.44 210.579C824.535 215.362 829.037 219.583 825.379 229.431C822.453 237.31 812.905 239.279 808.497 239.279C809.622 243.219 810.185 254.193 798.648 258.132Z" fill="#70AE3E"/>
<path d="M798.531 165.84C803.033 168.841 809.618 177.208 799.938 186.662" stroke="#237C1D" stroke-width="10.0798" stroke-linecap="round"/>
<path d="M791.777 147.814C793.48 148.987 795.525 153.237 793.685 156.635" stroke="#237C1D" stroke-width="6.4799" stroke-linecap="round"/>
<path d="M797.099 220.146C797.623 222.13 796.421 226.685 792.849 228.107" stroke="#237C1D" stroke-width="6.4799" stroke-linecap="round"/>
<mask id="mask0_595_6676" style="mask-type:alpha" maskUnits="userSpaceOnUse" x="0" y="278" width="905" height="111">
<rect y="278" width="905" height="111" fill="#D9D9D9"/>
</mask>
<g mask="url(#mask0_595_6676)">
<mask id="mask1_595_6676" style="mask-type:alpha" maskUnits="userSpaceOnUse" x="-1868" y="258" width="4480" height="131">
<rect x="-1868" y="258" width="4480" height="131" fill="#D9D9D9"/>
</mask>
<g mask="url(#mask1_595_6676)">
<path d="M-2038.4 308.445L-1593.49 277.202C-1449.23 267.071 -1304.27 275.151 -1162.03 301.251C-1004.05 330.238 -842.792 336.983 -682.944 321.291L-530.064 306.283C-405.809 294.085 -280.685 293.548 -156.33 304.681L120.762 329.487C235.665 339.773 351.241 340.099 466.2 330.46L819.239 300.859C921.763 292.263 1024.8 291.59 1127.43 298.848L1816.82 347.6C1914.22 354.487 2012 354.233 2109.36 346.839L2614.89 308.445L2614.89 388.445L-2038.4 388.445L-2038.4 308.445Z" fill="#5B9B40"/>
<path d="M871.242 286.589C873.644 290.406 873.254 296.744 872.759 299.436L920.573 297.47C919.661 294.897 921.307 290.049 922.244 287.947C919.736 288.05 917.785 291.17 917.122 292.717L915.277 287.082L913.736 290.553C913.456 288.721 911.595 287.601 910.7 287.27C910.781 289.11 909.775 291.883 909.261 293.04L906.571 284.081C906.455 285.967 905.196 289.432 904.582 290.929C903.793 290.232 902.649 287.441 902.176 286.133C902.085 286.789 900.85 290.331 900.244 292.019C899.685 291.121 899.253 288.797 899.107 287.747C898.451 288.234 896.778 292.545 896.023 294.64C895.986 293.797 893.153 288.36 891.741 285.746C892.654 291.045 891.029 294.046 890.103 294.883C890.07 294.155 888.796 290.89 888.162 289.349C888.05 291.311 886.755 293.965 886.122 295.047C884.235 292.053 883.874 287.813 883.929 286.067C882.111 288.215 881.178 291.459 880.939 292.813C880.321 292.377 879.792 290.556 879.605 289.7L877.913 295.385C877.636 290.943 873.35 287.67 871.242 286.589Z" fill="#5B9B40"/>
<path d="M687.919 302.177C690.321 305.994 689.931 312.332 689.436 315.024L737.25 313.058C736.338 310.485 737.984 305.637 738.921 303.535C736.413 303.638 734.461 306.758 733.799 308.305L731.954 302.67L730.413 306.14C730.133 304.309 728.272 303.189 727.377 302.858C727.458 304.697 726.451 307.471 725.938 308.628L723.247 299.669C723.132 301.554 721.873 305.02 721.258 306.517C720.47 305.82 719.326 303.029 718.852 301.721C718.762 302.377 717.527 305.918 716.92 307.607C716.362 306.709 715.93 304.384 715.784 303.335C715.127 303.822 713.455 308.133 712.7 310.228C712.663 309.385 709.83 303.947 708.418 301.334C709.331 306.633 707.706 309.633 706.779 310.471C706.747 309.743 705.472 306.478 704.839 304.936C704.727 306.899 703.432 309.553 702.799 310.635C700.912 307.641 700.551 303.401 700.606 301.655C698.787 303.803 697.855 307.047 697.616 308.401C696.998 307.965 696.469 306.144 696.281 305.288L694.589 310.973C694.313 306.531 690.027 303.258 687.919 302.177Z" fill="#5B9B40"/>
<path d="M777.941 295.374C780.574 299.047 780.574 305.396 780.245 308.111L827.854 303.422C826.786 300.905 828.131 295.972 828.937 293.821C826.44 294.066 824.683 297.292 824.117 298.874L821.929 293.354L820.604 296.906C820.211 295.094 818.285 294.083 817.371 293.803C817.566 295.635 816.731 298.461 816.29 299.645L813.053 290.855C813.053 292.744 812.01 296.275 811.489 297.804C810.659 297.154 809.345 294.433 808.792 293.154C808.742 293.814 807.727 297.42 807.225 299.14C806.613 298.275 806.038 295.98 805.828 294.94C805.203 295.464 803.798 299.863 803.174 301.997C803.085 301.158 799.922 295.891 798.352 293.363C799.589 298.601 798.152 301.688 797.278 302.578C797.201 301.853 795.728 298.666 795.001 297.163C795.01 299.129 793.881 301.852 793.315 302.968C791.247 300.087 790.626 295.875 790.574 294.129C788.89 296.377 788.159 299.669 788.003 301.033C787.36 300.634 786.72 298.846 786.48 298.003L785.141 303.773C784.591 299.355 780.112 296.332 777.941 295.374Z" fill="#5B9B40"/>
<path d="M595.45 311.401C597.918 315.179 597.637 321.522 597.188 324.221L644.961 321.492C644.005 318.934 645.567 314.061 646.468 311.944C643.963 312.087 642.065 315.237 641.429 316.795L639.487 311.19L638.006 314.685C637.694 312.858 635.815 311.768 634.914 311.451C635.027 313.289 634.068 316.078 633.575 317.243L630.73 308.328C630.647 310.216 629.448 313.701 628.859 315.207C628.059 314.523 626.867 311.751 626.371 310.45C626.292 311.108 625.118 314.669 624.541 316.367C623.967 315.477 623.495 313.16 623.331 312.113C622.683 312.611 621.085 316.948 620.366 319.055C620.314 318.212 617.388 312.821 615.931 310.23C616.935 315.514 615.362 318.54 614.451 319.393C614.406 318.665 613.075 315.421 612.415 313.889C612.337 315.854 611.088 318.528 610.474 319.62C608.535 316.657 608.101 312.423 608.126 310.676C606.345 312.853 605.468 316.111 605.252 317.469C604.628 317.043 604.067 315.231 603.865 314.378L602.271 320.088C601.918 315.651 597.576 312.448 595.45 311.401Z" fill="#5B9B40"/>
<path d="M824.685 290.282C827.386 294.092 827.352 300.653 826.997 303.457L876.223 298.85C875.133 296.244 876.549 291.153 877.394 288.934C874.812 289.175 872.979 292.5 872.386 294.132L870.154 288.417L868.766 292.081C868.37 290.206 866.385 289.151 865.442 288.858C865.633 290.751 864.755 293.668 864.292 294.889L860.995 285.789C860.985 287.741 859.888 291.385 859.341 292.963C858.487 292.286 857.144 289.468 856.579 288.144C856.524 288.826 855.455 292.547 854.928 294.322C854.3 293.425 853.718 291.05 853.506 289.975C852.858 290.513 851.382 295.052 850.725 297.254C850.638 296.386 847.398 290.928 845.789 288.307C847.039 293.726 845.537 296.91 844.63 297.824C844.554 297.075 843.049 293.774 842.306 292.218C842.304 294.249 841.122 297.058 840.532 298.208C838.41 295.22 837.791 290.864 837.747 289.06C835.995 291.374 835.221 294.772 835.053 296.182C834.391 295.766 833.738 293.915 833.495 293.042L832.08 298.999C831.536 294.43 826.923 291.284 824.685 290.282Z" fill="#5B9B40"/>
<path d="M641.533 309.113C644.331 312.857 644.465 319.417 644.183 322.229L693.275 316.453C692.118 313.874 693.404 308.751 694.191 306.512C691.616 306.815 689.87 310.182 689.318 311.827L686.941 306.167L685.647 309.863C685.203 307.999 683.191 306.991 682.241 306.72C682.48 308.609 681.678 311.545 681.247 312.777L677.717 303.758C677.757 305.71 676.754 309.379 676.247 310.969C675.376 310.313 673.961 307.528 673.363 306.217C673.325 306.9 672.352 310.645 671.87 312.433C671.219 311.551 670.577 309.19 670.338 308.12C669.703 308.674 668.344 313.247 667.744 315.464C667.634 314.598 664.256 309.219 662.58 306.637C663.969 312.024 662.549 315.243 661.665 316.179C661.57 315.431 659.981 312.167 659.198 310.629C659.248 312.66 658.139 315.496 657.578 316.66C655.381 313.724 654.65 309.384 654.56 307.581C652.868 309.936 652.181 313.351 652.049 314.765C651.376 314.364 650.677 312.53 650.411 311.663L649.149 317.651C648.488 313.097 643.796 310.062 641.533 309.113Z" fill="#5B9B40"/>
<path d="M731.691 301.715C734.622 305.364 734.991 311.916 734.81 314.735L783.666 307.329C782.417 304.79 783.518 299.627 784.224 297.363C781.662 297.752 780.037 301.175 779.545 302.838L776.966 297.26L775.805 300.997C775.295 299.148 773.248 298.208 772.288 297.969C772.596 299.848 771.899 302.81 771.512 304.055L767.661 295.159C767.771 297.109 766.9 300.809 766.451 302.415C765.557 301.788 764.043 299.052 763.398 297.762C763.384 298.446 762.547 302.221 762.129 304.023C761.447 303.164 760.721 300.826 760.443 299.764C759.828 300.339 758.635 304.954 758.115 307.19C757.974 306.328 754.404 301.065 752.636 298.54C754.218 303.878 752.914 307.142 752.065 308.107C751.943 307.363 750.237 304.154 749.4 302.642C749.523 304.67 748.516 307.541 747.998 308.723C745.696 305.862 744.81 301.549 744.655 299.75C743.048 302.161 742.485 305.597 742.404 307.013C741.717 306.636 740.952 304.826 740.655 303.968L739.609 309.995C738.785 305.465 733.987 302.588 731.691 301.715Z" fill="#5B9B40"/>
<path d="M549.053 315.195C551.721 319.026 551.631 325.587 551.252 328.388L600.516 324.176C599.448 321.561 600.908 316.482 601.772 314.269C599.188 314.49 597.327 317.799 596.719 319.427L594.537 313.694L593.118 317.347C592.738 315.469 590.762 314.398 589.821 314.097C589.996 315.992 589.093 318.901 588.62 320.119L585.401 310.993C585.375 312.945 584.246 316.58 583.685 318.153C582.837 317.47 581.518 314.641 580.965 313.312C580.904 313.994 579.803 317.706 579.26 319.477C578.64 318.575 578.079 316.195 577.877 315.118C577.223 315.652 575.708 320.179 575.033 322.375C574.953 321.507 571.76 316.023 570.174 313.389C571.377 318.818 569.848 321.99 568.932 322.897C568.863 322.147 567.387 318.834 566.657 317.271C566.637 319.303 565.432 322.102 564.831 323.248C562.736 320.243 562.154 315.882 562.125 314.077C560.354 316.378 559.55 319.769 559.37 321.178C558.711 320.756 558.075 318.901 557.84 318.025L556.373 323.971C555.868 319.398 551.283 316.215 549.053 315.195Z" fill="#5B9B40"/>
<path d="M503.326 318.861C505.831 322.617 505.612 328.962 505.19 331.665L552.935 328.502C551.954 325.952 553.468 321.065 554.348 318.94C551.844 319.106 549.977 322.274 549.356 323.837L547.36 318.25L545.913 321.758C545.583 319.934 543.693 318.861 542.789 318.553C542.92 320.39 541.989 323.188 541.507 324.357L538.575 315.468C538.51 317.356 537.346 320.852 536.772 322.364C535.965 321.687 534.746 318.926 534.237 317.63C534.164 318.288 533.025 321.859 532.465 323.562C531.882 322.678 531.388 320.366 531.213 319.32C530.57 319.824 529.014 324.175 528.317 326.288C528.257 325.446 525.277 320.082 523.795 317.505C524.851 322.779 523.308 325.819 522.405 326.68C522.353 325.953 520.99 322.721 520.315 321.195C520.256 323.16 519.034 325.846 518.43 326.943C516.462 323.998 515.987 319.768 515.995 318.021C514.235 320.214 513.39 323.48 513.188 324.84C512.559 324.42 511.981 322.613 511.77 321.762L510.232 327.486C509.836 323.053 505.463 319.889 503.326 318.861Z" fill="#5B9B40"/>
<path d="M456.623 322.555C459.334 326.358 459.317 332.919 458.97 335.725L508.184 330.999C507.086 328.396 508.49 323.302 509.328 321.08C506.747 321.328 504.923 324.657 504.334 326.29L502.088 320.58L500.709 324.248C500.308 322.374 498.32 321.324 497.376 321.033C497.572 322.926 496.702 325.844 496.243 327.067L492.922 317.975C492.917 319.927 491.829 323.574 491.286 325.153C490.43 324.478 489.08 321.663 488.512 320.34C488.458 321.022 487.399 324.746 486.877 326.522C486.246 325.627 485.659 323.253 485.444 322.178C484.797 322.718 483.333 327.261 482.682 329.464C482.592 328.597 479.338 323.146 477.722 320.53C478.986 325.945 477.493 329.133 476.588 330.05C476.51 329.3 474.996 326.003 474.249 324.448C474.252 326.479 473.078 329.291 472.491 330.443C470.361 327.461 469.731 323.106 469.682 321.302C467.936 323.62 467.171 327.02 467.007 328.43C466.343 328.016 465.686 326.167 465.441 325.294L464.041 331.254C463.485 326.687 458.864 323.552 456.623 322.555Z" fill="#5B9B40"/>
<path d="M322.521 327.5C324.752 331.412 324.081 337.728 323.467 340.397L371.324 340.397C370.527 337.789 372.387 333.014 373.416 330.952C370.906 330.952 368.818 333.989 368.087 335.507L366.494 329.801L364.8 333.206C364.601 331.364 362.792 330.169 361.912 329.801C361.912 331.643 360.783 334.372 360.219 335.507L357.928 326.445C357.729 328.325 356.318 331.735 355.637 333.206C354.88 332.477 353.861 329.642 353.446 328.315C353.327 328.967 351.936 332.454 351.255 334.117C350.737 333.196 350.408 330.856 350.309 329.801C349.631 330.262 347.769 334.5 346.922 336.562C346.922 335.718 344.333 330.169 343.038 327.5C343.715 332.832 341.959 335.763 340.996 336.562C340.996 335.833 339.867 332.518 339.303 330.952C339.104 332.908 337.693 335.507 337.012 336.562C335.259 333.493 335.087 329.242 335.219 327.5C333.307 329.571 332.231 332.774 331.933 334.117C331.335 333.656 330.887 331.815 330.737 330.952L328.795 336.562C328.716 332.112 324.579 328.667 322.521 327.5Z" fill="#5B9B40"/>
<path d="M412.762 324.401C415.23 328.179 414.949 334.522 414.5 337.221L462.274 334.492C461.318 331.934 462.88 327.061 463.781 324.944C461.275 325.087 459.377 328.237 458.742 329.795L456.8 324.19L455.319 327.685C455.007 325.858 453.127 324.768 452.226 324.451C452.339 326.289 451.381 329.078 450.887 330.243L448.043 321.328C447.959 323.216 446.761 326.701 446.172 328.207C445.371 327.523 444.18 324.751 443.684 323.45C443.604 324.108 442.43 327.669 441.853 329.367C441.28 328.477 440.808 326.16 440.643 325.113C439.995 325.611 438.397 329.948 437.679 332.055C437.627 331.212 434.7 325.821 433.244 323.23C434.248 328.514 432.675 331.54 431.763 332.393C431.718 331.665 430.387 328.421 429.728 326.889C429.649 328.854 428.401 331.528 427.786 332.62C425.847 329.657 425.413 325.423 425.439 323.676C423.657 325.853 422.781 329.111 422.565 330.469C421.94 330.043 421.379 328.231 421.177 327.378L419.583 333.088C419.23 328.651 414.889 325.448 412.762 324.401Z" fill="#5B9B40"/>
<path d="M366.274 328.837C369.04 332.603 369.119 339.163 368.813 341.973L417.953 336.581C416.818 333.992 418.146 328.879 418.952 326.647C416.375 326.929 414.6 330.283 414.035 331.924L411.705 326.245L410.38 329.931C409.952 328.063 407.948 327.04 407 326.761C407.224 328.652 406.397 331.582 405.955 332.81L402.502 323.764C402.526 325.716 401.491 329.377 400.971 330.964C400.106 330.301 398.714 327.504 398.127 326.189C398.084 326.872 397.079 330.61 396.582 332.393C395.939 331.506 395.317 329.141 395.086 328.069C394.447 328.618 393.05 333.18 392.431 335.392C392.328 334.525 388.995 329.12 387.341 326.525C388.684 331.923 387.237 335.131 386.346 336.06C386.257 335.311 384.695 332.035 383.926 330.49C383.959 332.521 382.826 335.349 382.255 336.508C380.082 333.555 379.388 329.21 379.313 327.406C377.601 329.748 376.886 333.158 376.742 334.57C376.073 334.165 375.389 332.325 375.13 331.456L373.818 337.434C373.195 332.875 368.529 329.803 366.274 328.837Z" fill="#5B9B40"/>
<path d="M276.815 327.3C278.902 331.286 278.001 337.575 277.289 340.222L325.117 341.843C324.416 339.209 326.449 334.5 327.553 332.474C325.044 332.389 322.846 335.353 322.061 336.846L320.677 331.09L318.86 334.435C318.728 332.588 316.964 331.332 316.098 330.935C316.031 332.775 314.803 335.464 314.197 336.579L312.239 327.446C311.971 329.317 310.437 332.678 309.703 334.124C308.973 333.37 308.058 330.502 307.692 329.163C307.548 329.81 306.031 333.248 305.29 334.886C304.806 333.949 304.563 331.599 304.502 330.542C303.808 330.979 301.792 335.151 300.871 337.183C300.901 336.34 298.516 330.706 297.32 327.995C297.802 333.346 295.939 336.216 294.948 336.982C294.975 336.254 293.968 332.903 293.461 331.319C293.19 333.267 291.685 335.816 290.967 336.847C289.327 333.721 289.31 329.467 289.506 327.73C287.519 329.736 286.327 332.9 285.979 334.231C285.399 333.751 285.018 331.896 284.901 331.029L282.755 336.569C282.838 332.12 278.829 328.536 276.815 327.3Z" fill="#5B9B40"/>
<path d="M95.6403 316.49C97.3609 320.635 95.898 326.825 94.9515 329.403L142.454 335.002C141.993 332.32 144.441 327.798 145.723 325.872C143.231 325.578 140.775 328.348 139.859 329.769L138.997 323.92L136.887 327.1C136.921 325.25 135.276 323.851 134.449 323.384C134.217 325.211 132.752 327.788 132.049 328.849L130.919 319.586C130.484 321.428 128.653 324.649 127.791 326.028C127.132 325.216 126.478 322.283 126.234 320.918C126.033 321.551 124.212 324.85 123.327 326.42C122.929 325.445 122.898 323.085 122.932 322.026C122.202 322.404 119.818 326.393 118.717 328.34C118.824 327.502 116.954 321.692 116.006 318.891C116.005 324.262 113.892 326.966 112.835 327.647C112.927 326.923 112.225 323.501 111.863 321.88C111.418 323.799 109.689 326.213 108.881 327.18C107.528 323.93 107.893 319.69 108.245 317.976C106.086 319.808 104.614 322.861 104.147 324.159C103.612 323.632 103.4 321.752 103.361 320.878L100.725 326.219C101.207 321.793 97.5362 317.889 95.6403 316.49Z" fill="#5B9B40"/>
<path d="M185.602 323.973C187.575 328.012 186.496 334.275 185.709 336.902L233.473 339.782C232.847 337.131 235.013 332.477 236.174 330.481C233.669 330.33 231.388 333.235 230.56 334.706L229.34 328.916L227.429 332.212C227.35 330.362 225.622 329.06 224.768 328.64C224.648 330.478 223.344 333.134 222.707 334.233L221.009 325.051C220.688 326.915 219.059 330.234 218.284 331.66C217.576 330.887 216.743 327.996 216.415 326.647C216.253 327.291 214.638 330.688 213.851 332.306C213.394 331.356 213.218 329.001 213.187 327.942C212.481 328.361 210.347 332.479 209.368 334.485C209.423 333.643 207.199 327.949 206.08 325.208C206.41 330.569 204.466 333.389 203.454 334.129C203.501 333.401 202.59 330.025 202.128 328.428C201.802 330.368 200.225 332.877 199.477 333.889C197.927 330.721 198.031 326.468 198.277 324.737C196.233 326.689 194.952 329.821 194.567 331.143C194 330.647 193.672 328.783 193.579 327.913L191.277 333.394C191.486 328.949 187.581 325.261 185.602 323.973Z" fill="#5B9B40"/>
<path d="M0.870181 305.481C2.33134 309.717 0.487964 315.812 -0.616367 318.331L46.4556 326.645C46.1607 323.941 48.8844 319.567 50.2831 317.718C47.8144 317.282 45.1913 319.906 44.1883 321.272L43.6902 315.384L41.3868 318.438C41.536 316.592 39.9803 315.102 39.1839 314.588C38.8388 316.398 37.2169 318.887 36.4491 319.905L35.8943 310.594C35.3461 312.408 33.3191 315.518 32.3741 316.846C31.7661 315.997 31.295 313.032 31.1354 311.655C30.8957 312.276 28.8738 315.464 27.8929 316.98C27.556 315.985 27.6713 313.627 27.771 312.572C27.0186 312.907 24.3923 316.752 23.1732 318.633C23.3313 317.803 21.8242 311.895 21.0509 309.045C20.7178 314.407 18.441 316.985 17.3443 317.603C17.4809 316.887 16.9918 313.43 16.7302 311.792C16.1677 313.681 14.2928 315.992 13.4257 316.911C12.2766 313.589 12.9036 309.377 13.3607 307.687C11.0916 309.392 9.43328 312.355 8.88778 313.624C8.38626 313.067 8.29047 311.178 8.30527 310.304L5.34361 315.484C6.09913 311.094 2.67613 306.986 0.870181 305.481Z" fill="#5B9B40"/>
<path d="M230.101 327.496C232.486 331.496 231.922 338.035 231.342 340.804L280.791 339.899C279.914 337.219 281.738 332.249 282.759 330.1C280.165 330.147 278.07 333.324 277.346 334.907L275.583 329.042L273.903 332.591C273.66 330.693 271.766 329.492 270.849 329.128C270.887 331.031 269.776 333.873 269.216 335.056L266.664 325.736C266.497 327.682 265.108 331.232 264.435 332.765C263.638 332.026 262.527 329.116 262.071 327.753C261.961 328.429 260.595 332.058 259.926 333.789C259.372 332.847 258.984 330.436 258.86 329.348C258.169 329.836 256.332 334.251 255.499 336.397C255.482 335.525 252.693 329.841 251.3 327.108C252.109 332.604 250.354 335.666 249.376 336.509C249.361 335.756 248.127 332.353 247.512 330.745C247.346 332.77 245.941 335.482 245.259 336.585C243.385 333.447 243.12 329.058 243.222 327.256C241.288 329.432 240.242 332.762 239.961 334.154C239.334 333.69 238.833 331.796 238.661 330.907L236.769 336.74C236.596 332.145 232.251 328.663 230.101 327.496Z" fill="#5B9B40"/>
<path d="M46.5383 312.281C48.1374 316.629 46.3612 322.963 45.2733 325.587L94.0853 333.257C93.7236 330.469 96.4455 325.897 97.8517 323.959C95.2918 323.557 92.6368 326.319 91.6293 327.751L90.9905 321.676L88.6749 324.876C88.7901 322.967 87.1513 321.457 86.3176 320.942C85.9992 322.819 84.3759 325.423 83.6041 326.489L82.8344 316.88C82.3063 318.765 80.2774 322.017 79.329 323.408C78.683 322.543 78.1337 319.488 77.9398 318.069C77.7051 318.715 75.6833 322.048 74.7018 323.635C74.3327 322.613 74.402 320.174 74.4828 319.082C73.7124 319.443 71.0799 323.467 69.86 325.434C70.0059 324.574 68.3241 318.499 67.465 315.569C67.2339 321.116 64.9358 323.824 63.8156 324.484C63.9416 323.741 63.3635 320.179 63.0586 318.492C62.5172 320.455 60.6287 322.879 59.7522 323.846C58.4949 320.435 59.0538 316.072 59.4905 314.316C57.1819 316.122 55.531 319.216 54.9941 320.538C54.4642 319.973 54.3254 318.023 54.3222 317.119L51.3714 322.529C52.0594 317.978 48.436 313.801 46.5383 312.281Z" fill="#5B9B40"/>
<path d="M138.899 322.938C141.169 326.999 140.42 333.521 139.761 336.274L189.217 336.671C188.417 333.969 190.381 329.049 191.463 326.927C188.87 326.906 186.684 330.027 185.916 331.59L184.32 325.681L182.54 329.184C182.351 327.28 180.491 326.03 179.586 325.643C179.569 327.545 178.378 330.357 177.785 331.525L175.499 322.141C175.276 324.082 173.787 327.595 173.071 329.108C172.295 328.349 171.267 325.411 170.85 324.036C170.721 324.709 169.252 328.301 168.534 330.013C168.007 329.058 167.688 326.637 167.595 325.546C166.891 326.016 164.928 330.381 164.035 332.504C164.042 331.632 161.416 325.877 160.102 323.108C160.754 328.623 158.913 331.637 157.911 332.455C157.917 331.702 156.78 328.267 156.211 326.644C155.988 328.664 154.506 331.338 153.793 332.422C152.009 329.237 151.869 324.842 152.022 323.043C150.027 325.168 148.887 328.468 148.566 329.853C147.953 329.373 147.506 327.466 147.359 326.573L145.302 332.354C145.26 327.755 141.015 324.16 138.899 322.938Z" fill="#5B9B40"/>
<path d="M-46.6565 304.229C-44.7056 308.442 -45.9562 314.891 -46.8254 317.59L2.46351 321.522C1.87411 318.771 4.21225 314.005 5.45499 311.966C2.87002 311.76 0.450098 314.716 -0.436738 316.22L-1.57219 310.213L-3.6178 313.579C-3.65974 311.667 -5.41727 310.287 -6.29079 309.836C-6.45401 311.732 -7.85856 314.451 -8.54043 315.573L-10.0964 306.052C-10.4682 307.971 -12.2237 311.368 -13.055 312.826C-13.77 312.014 -14.5684 309.01 -14.8782 307.61C-15.0591 308.271 -16.8009 311.749 -17.6492 313.404C-18.101 312.414 -18.2321 309.977 -18.2412 308.883C-18.9795 309.301 -21.2735 313.513 -22.3281 315.567C-22.2533 314.698 -24.4285 308.77 -25.5254 305.915C-25.3005 311.462 -27.3691 314.336 -28.4316 315.08C-28.3669 314.329 -29.2357 310.823 -29.6781 309.163C-30.0567 311.162 -31.7402 313.722 -32.5347 314.752C-34.068 311.448 -33.869 307.056 -33.5778 305.272C-35.7309 307.248 -37.1227 310.459 -37.5494 311.817C-38.1241 311.294 -38.4225 309.361 -38.4998 308.459L-40.9974 314.077C-40.685 309.488 -44.64 305.6 -46.6565 304.229Z" fill="#5B9B40"/>
<path d="M-2765.55 307.998L-2330.44 276.764C-2189.25 266.629 -2047.35 274.708 -1908.23 300.802C-1753.71 329.784 -1595.85 336.528 -1439.42 320.831L-1298.16 306.655C-1171.18 293.913 -1043.28 293.353 -916.197 304.982L-660.863 328.348C-543.439 339.094 -425.295 339.434 -307.811 329.364L23.2498 300.99C128.028 292.009 233.351 291.307 338.24 298.889L999.484 346.689C1099.03 353.885 1198.98 353.619 1298.49 345.894L1786.62 307.998L2688 346.998L2688 387.998L1786.62 387.998L-2765.55 387.998L-2765.55 307.998Z" fill="#70AE3E"/>
<path d="M80.867 286.142C83.2172 289.959 82.8356 296.297 82.351 298.988L129.126 297.022C128.234 294.449 129.844 289.602 130.761 287.5C128.308 287.603 126.398 290.723 125.75 292.269L123.945 286.635L122.438 290.105C122.163 288.274 120.343 287.154 119.467 286.823C119.547 288.662 118.562 291.436 118.06 292.593L115.428 283.633C115.315 285.519 114.084 288.985 113.482 290.482C112.711 289.785 111.592 286.994 111.128 285.686C111.04 286.342 109.831 289.883 109.238 291.572C108.692 290.673 108.27 288.349 108.126 287.3C107.484 287.787 105.848 292.098 105.11 294.193C105.073 293.35 102.302 287.912 100.92 285.299C101.813 290.598 100.224 293.598 99.3176 294.436C99.2861 293.708 98.0391 290.443 97.4196 288.901C97.3097 290.864 96.0433 293.518 95.4238 294.6C93.5775 291.606 93.2244 287.366 93.2787 285.62C91.4994 287.768 90.5869 291.012 90.3531 292.366C89.7491 291.93 89.2312 290.109 89.0478 289.253L87.3927 294.937C87.1219 290.495 82.9294 287.223 80.867 286.142Z" fill="#70AE3E"/>
<path d="M-10.4075 294.926C-7.8317 298.6 -7.83117 304.949 -8.15288 307.664L38.4216 302.974C37.3764 300.458 38.6919 295.525 39.4803 293.373C37.0377 293.619 35.3195 296.845 34.7657 298.427L32.6247 292.907L31.329 296.459C30.9447 294.647 29.0602 293.635 28.166 293.356C28.3564 295.187 27.5402 298.013 27.1083 299.198L23.9417 290.407C23.9422 292.297 22.9218 295.828 22.4115 297.357C21.5995 296.706 20.3144 293.986 19.7733 292.707C19.7244 293.367 18.7313 296.973 18.2408 298.693C17.6416 297.828 17.0798 295.532 16.8737 294.493C16.2622 295.017 14.888 299.416 14.2773 301.55C14.19 300.71 11.096 295.444 9.5599 292.916C10.7704 298.153 9.36434 301.241 8.50999 302.13C8.43462 301.405 6.9933 298.219 6.28206 296.716C6.29051 298.681 5.18609 301.405 4.63282 302.521C2.60953 299.64 2.00188 295.428 1.95096 293.682C0.304121 295.93 -0.411493 299.221 -0.563445 300.586C-1.19262 300.187 -1.81921 298.399 -2.05385 297.555L-3.36384 303.326C-3.90152 298.908 -8.28366 295.885 -10.4075 294.926Z" fill="#70AE3E"/>
<path d="M35.321 289.837C37.9634 293.646 37.9303 300.207 37.5834 303.012L85.7396 298.405C84.6728 295.799 86.0585 290.708 86.8847 288.489C84.3591 288.73 82.5663 292.054 81.9856 293.686L79.8024 287.971L78.4445 291.636C78.057 289.761 76.1149 288.706 75.1922 288.412C75.3793 290.306 74.5208 293.222 74.0681 294.444L70.8424 285.344C70.8329 287.296 69.7596 290.94 69.2241 292.518C68.3884 291.841 67.0748 289.023 66.5224 287.698C66.4684 288.381 65.423 292.101 64.907 293.877C64.2923 292.98 63.7239 290.605 63.5165 289.529C62.8817 290.068 61.4382 294.607 60.7958 296.809C60.71 295.941 57.5406 290.483 55.9666 287.862C57.1897 293.281 55.7202 296.465 54.8326 297.379C54.7586 296.63 53.286 293.329 52.559 291.772C52.5573 293.803 51.4015 296.612 50.8238 297.763C48.7482 294.775 48.1426 290.419 48.0992 288.615C46.3854 290.929 45.6284 294.327 45.4641 295.737C44.816 295.321 44.178 293.47 43.94 292.597L42.5555 298.554C42.0234 293.985 37.5108 290.839 35.321 289.837Z" fill="#70AE3E"/>
<path d="M893.198 327.043C894.822 331.21 893.304 337.381 892.341 339.945L938.728 346.181C938.315 343.493 940.773 339.003 942.054 337.095C939.622 336.768 937.18 339.504 936.263 340.913L935.503 335.053L933.394 338.205C933.454 336.355 931.865 334.935 931.062 334.456C930.809 336.28 929.34 338.837 928.637 339.888L927.662 330.611C927.211 332.448 925.374 335.643 924.512 337.011C923.879 336.19 923.281 333.249 923.061 331.88C922.855 332.511 921.028 335.785 920.139 337.343C919.764 336.363 919.767 334.002 919.816 332.944C919.096 333.312 916.708 337.268 915.604 339.201C915.72 338.365 913.973 332.53 913.085 329.716C913.008 335.087 910.903 337.762 909.86 338.429C909.96 337.707 909.321 334.275 908.99 332.65C908.528 334.562 906.803 336.953 905.998 337.91C904.721 334.641 905.138 330.406 905.506 328.698C903.368 330.501 901.885 333.534 901.411 334.825C900.895 334.291 900.714 332.409 900.687 331.534L898.034 336.839C898.568 332.42 895.032 328.467 893.198 327.043Z" fill="#70AE3E"/>
<path d="M846.457 324.043C848.082 328.21 846.563 334.381 845.601 336.945L891.988 343.181C891.574 340.493 894.033 336.003 895.314 334.095C892.881 333.768 890.44 336.504 889.523 337.913L888.763 332.053L886.654 335.205C886.714 333.355 885.124 331.935 884.322 331.456C884.069 333.28 882.599 335.837 881.896 336.888L880.922 327.611C880.471 329.448 878.634 332.643 877.772 334.011C877.139 333.19 876.541 330.249 876.321 328.88C876.115 329.511 874.287 332.785 873.399 334.343C873.024 333.363 873.027 331.002 873.075 329.944C872.356 330.312 869.967 334.268 868.863 336.201C868.979 335.365 867.232 329.53 866.344 326.716C866.268 332.087 864.162 334.762 863.119 335.429C863.22 334.707 862.581 331.275 862.25 329.65C861.787 331.562 860.063 333.953 859.258 334.91C857.981 331.641 858.398 327.406 858.766 325.698C856.628 327.501 855.145 330.534 854.671 331.825C854.155 331.291 853.973 329.409 853.947 328.534L851.293 333.839C851.828 329.42 848.292 325.467 846.457 324.043Z" fill="#70AE3E"/>
<path d="M798.963 323.233C800.968 327.236 800.031 333.518 799.312 336.158L846.084 338.183C845.422 335.544 847.452 330.852 848.55 328.835C846.097 328.729 843.92 331.675 843.139 333.16L841.836 327.393L840.029 330.722C839.917 328.874 838.202 327.604 837.358 327.199C837.276 329.039 836.051 331.718 835.449 332.828L833.615 323.678C833.336 325.547 831.805 328.894 831.074 330.335C830.367 329.574 829.497 326.699 829.151 325.356C829.005 326.003 827.49 329.428 826.75 331.059C826.285 330.118 826.068 327.766 826.018 326.708C825.336 327.139 823.326 331.295 822.407 333.319C822.444 332.476 820.161 326.823 819.015 324.102C819.439 329.457 817.591 332.31 816.615 333.068C816.647 332.34 815.692 328.981 815.21 327.392C814.928 329.338 813.433 331.874 812.721 332.899C811.145 329.76 811.166 325.505 811.374 323.771C809.412 325.759 808.218 328.913 807.866 330.242C807.302 329.757 806.947 327.898 806.839 327.03L804.691 332.552C804.811 328.103 800.922 324.486 798.963 323.233Z" fill="#70AE3E"/>
<path d="M752.801 322.052C754.806 326.055 753.869 332.336 753.149 334.977L799.922 337.001C799.26 334.362 801.29 329.67 802.388 327.654C799.935 327.548 797.758 330.493 796.977 331.979L795.674 326.211L793.867 329.541C793.755 327.693 792.04 326.422 791.196 326.018C791.114 327.857 789.889 330.536 789.287 331.646L787.452 322.496C787.174 324.365 785.643 327.713 784.912 329.153C784.204 328.393 783.335 325.517 782.989 324.175C782.843 324.821 781.327 328.246 780.588 329.878C780.123 328.936 779.906 326.585 779.856 325.527C779.173 325.958 777.164 330.113 776.244 332.137C776.282 331.294 773.999 325.641 772.853 322.92C773.277 328.275 771.429 331.129 770.453 331.886C770.485 331.158 769.53 327.799 769.048 326.211C768.766 328.156 767.271 330.693 766.559 331.718C764.983 328.578 765.004 324.324 765.212 322.589C763.25 324.577 762.056 327.732 761.704 329.06C761.14 328.575 760.785 326.717 760.677 325.848L758.528 331.37C758.649 326.922 754.76 323.304 752.801 322.052Z" fill="#70AE3E"/>
<path d="M714.187 318.052C716.193 322.055 715.256 328.336 714.536 330.977L761.309 333.002C760.646 330.363 762.677 325.67 763.774 323.654C761.321 323.548 759.145 326.493 758.363 327.979L757.061 322.212L755.254 325.541C755.141 323.693 753.426 322.422 752.583 322.018C752.501 323.857 751.276 326.537 750.673 327.646L748.839 318.496C748.561 320.366 747.029 323.713 746.298 325.153C745.591 324.393 744.722 321.518 744.375 320.175C744.229 320.821 742.714 324.246 741.975 325.878C741.51 324.936 741.293 322.585 741.243 321.527C740.56 321.958 738.551 326.114 737.631 328.137C737.669 327.294 735.386 321.641 734.24 318.92C734.663 324.275 732.816 327.129 731.84 327.887C731.872 327.159 730.917 323.799 730.435 322.211C730.153 324.157 728.658 326.693 727.946 327.718C726.37 324.578 726.391 320.324 726.598 318.589C724.637 320.578 723.443 323.732 723.091 325.06C722.527 324.575 722.171 322.717 722.064 321.848L719.915 327.37C720.036 322.922 716.147 319.304 714.187 318.052Z" fill="#70AE3E"/>
<path d="M672.412 313.052C674.453 317.038 673.571 323.327 672.875 325.974L719.664 327.595C718.978 324.961 720.967 320.252 722.047 318.226C719.593 318.141 717.443 321.105 716.674 322.598L715.32 316.842L713.543 320.187C713.414 318.34 711.688 317.084 710.841 316.687C710.775 318.527 709.574 321.216 708.982 322.331L707.066 313.198C706.804 315.069 705.303 318.43 704.585 319.876C703.871 319.122 702.976 316.254 702.617 314.914C702.477 315.562 700.992 319 700.268 320.638C699.794 319.7 699.556 317.351 699.497 316.294C698.818 316.731 696.846 320.903 695.944 322.935C695.975 322.092 693.641 316.458 692.471 313.747C692.942 319.098 691.12 321.968 690.151 322.734C690.177 322.006 689.192 318.655 688.696 317.071C688.431 319.019 686.959 321.568 686.256 322.599C684.651 319.473 684.635 315.219 684.827 313.482C682.883 315.488 681.717 318.652 681.377 319.983C680.809 319.503 680.437 317.648 680.321 316.78L678.222 322.321C678.303 317.872 674.382 314.288 672.412 313.052Z" fill="#70AE3E"/>
<path d="M494.558 299.283C496.241 303.428 494.81 309.618 493.884 312.196L540.355 317.795C539.903 315.113 542.298 310.591 543.552 308.665C541.115 308.371 538.712 311.141 537.816 312.562L536.973 306.713L534.908 309.893C534.942 308.043 533.333 306.644 532.524 306.177C532.297 308.004 530.864 310.581 530.175 311.642L529.07 302.379C528.644 304.221 526.853 307.441 526.011 308.821C525.366 308.009 524.726 305.076 524.487 303.711C524.29 304.344 522.509 307.643 521.643 309.213C521.254 308.238 521.223 305.878 521.257 304.819C520.542 305.197 518.211 309.186 517.134 311.133C517.238 310.295 515.409 304.485 514.481 301.684C514.48 307.055 512.413 309.759 511.379 310.439C511.469 309.716 510.783 306.294 510.428 304.673C509.993 306.592 508.302 309.006 507.511 309.973C506.188 306.723 506.545 302.483 506.889 300.769C504.776 302.601 503.336 305.654 502.881 306.952C502.357 306.425 502.149 304.545 502.111 303.671L499.532 309.012C500.004 304.586 496.413 300.682 494.558 299.283Z" fill="#70AE3E"/>
<path d="M582.567 306.766C584.497 310.805 583.441 317.068 582.671 319.695L629.397 322.575C628.785 319.924 630.904 315.27 632.04 313.274C629.589 313.123 627.357 316.028 626.548 317.499L625.354 311.709L623.485 315.005C623.407 313.155 621.716 311.853 620.881 311.433C620.764 313.271 619.488 315.927 618.865 317.026L617.204 307.844C616.89 309.708 615.296 313.027 614.538 314.453C613.845 313.68 613.03 310.789 612.709 309.44C612.551 310.084 610.972 313.481 610.202 315.099C609.754 314.149 609.582 311.794 609.552 310.735C608.861 311.154 606.774 315.272 605.816 317.278C605.87 316.436 603.694 310.742 602.599 308C602.922 313.362 601.021 316.182 600.03 316.922C600.076 316.194 599.185 312.818 598.733 311.221C598.414 313.161 596.872 315.67 596.14 316.682C594.624 313.514 594.725 309.261 594.965 307.53C592.967 309.482 591.713 312.614 591.336 313.936C590.782 313.44 590.461 311.576 590.37 310.705L588.118 316.187C588.322 311.742 584.502 308.054 582.567 306.766Z" fill="#70AE3E"/>
<path d="M401.998 291.036C403.427 295.271 401.624 301.367 400.544 303.885L446.593 312.199C446.304 309.496 448.969 305.122 450.337 303.273C447.922 302.837 445.356 305.46 444.375 306.827L443.888 300.938L441.634 303.992C441.78 302.147 440.258 300.657 439.479 300.142C439.142 301.953 437.555 304.442 436.804 305.46L436.261 296.149C435.725 297.963 433.742 301.073 432.817 302.4C432.223 301.552 431.762 298.586 431.606 297.21C431.371 297.83 429.393 301.019 428.434 302.535C428.104 301.54 428.217 299.181 428.314 298.127C427.578 298.462 425.009 302.307 423.816 304.188C423.971 303.358 422.497 297.45 421.74 294.6C421.414 299.962 419.187 302.539 418.114 303.158C418.248 302.441 417.769 298.985 417.513 297.346C416.963 299.236 415.129 301.547 414.281 302.466C413.157 299.143 413.77 294.932 414.217 293.242C411.997 294.947 410.375 297.91 409.841 299.178C409.351 298.622 409.257 296.733 409.272 295.858L406.374 301.038C407.113 296.648 403.765 292.541 401.998 291.036Z" fill="#70AE3E"/>
<path d="M626.097 310.289C628.431 314.289 627.879 320.828 627.311 323.597L675.686 322.692C674.828 320.012 676.612 315.042 677.611 312.893C675.074 312.94 673.024 316.117 672.316 317.7L670.591 311.835L668.948 315.384C668.71 313.486 666.857 312.285 665.96 311.921C665.997 313.824 664.911 316.666 664.363 317.849L661.866 308.529C661.702 310.475 660.344 314.025 659.686 315.558C658.906 314.819 657.819 311.909 657.373 310.546C657.265 311.222 655.929 314.851 655.274 316.582C654.732 315.64 654.353 313.229 654.232 312.141C653.556 312.629 651.758 317.044 650.944 319.19C650.927 318.318 648.198 312.634 646.836 309.901C647.627 315.397 645.911 318.459 644.953 319.302C644.939 318.549 643.732 315.146 643.13 313.538C642.968 315.563 641.593 318.275 640.926 319.378C639.093 316.24 638.834 311.851 638.933 310.049C637.042 312.225 636.018 315.555 635.743 316.947C635.13 316.483 634.64 314.589 634.472 313.7L632.621 319.533C632.451 314.938 628.201 311.456 626.097 310.289Z" fill="#70AE3E"/>
<path d="M446.524 295.074C448.088 299.422 446.35 305.756 445.286 308.38L493.037 316.05C492.684 313.262 495.346 308.69 496.722 306.752C494.218 306.35 491.621 309.112 490.635 310.543L490.01 304.469L487.745 307.669C487.857 305.76 486.254 304.25 485.439 303.735C485.127 305.612 483.539 308.216 482.784 309.282L482.031 299.673C481.514 301.558 479.53 304.81 478.602 306.201C477.97 305.336 477.433 302.281 477.243 300.862C477.013 301.508 475.035 304.841 474.075 306.428C473.714 305.406 473.782 302.967 473.861 301.875C473.107 302.236 470.532 306.26 469.339 308.227C469.481 307.367 467.836 301.292 466.996 298.362C466.77 303.909 464.521 306.617 463.426 307.277C463.549 306.534 462.983 302.972 462.685 301.285C462.155 303.248 460.308 305.672 459.45 306.639C458.22 303.228 458.767 298.865 459.194 297.109C456.936 298.915 455.321 302.009 454.796 303.331C454.277 302.766 454.142 300.816 454.139 299.912L451.252 305.322C451.925 300.771 448.38 296.594 446.524 295.074Z" fill="#70AE3E"/>
<path d="M536.878 305.731C539.1 309.792 538.366 316.314 537.722 319.067L586.104 319.463C585.321 316.762 587.242 311.842 588.301 309.72C585.763 309.699 583.626 312.82 582.874 314.383L581.313 308.474L579.571 311.977C579.386 310.073 577.567 308.823 576.681 308.436C576.665 310.338 575.5 313.15 574.919 314.318L572.683 304.934C572.465 306.875 571.009 310.388 570.308 311.901C569.549 311.142 568.543 308.204 568.136 306.829C568.009 307.502 566.572 311.094 565.87 312.806C565.354 311.851 565.042 309.43 564.951 308.339C564.262 308.809 562.342 313.174 561.468 315.297C561.476 314.425 558.906 308.67 557.621 305.901C558.259 311.416 556.457 314.43 555.477 315.248C555.483 314.495 554.371 311.06 553.814 309.437C553.596 311.457 552.147 314.131 551.45 315.215C549.704 312.03 549.567 307.635 549.716 305.836C547.765 307.961 546.65 311.261 546.336 312.646C545.736 312.166 545.299 310.259 545.155 309.366L543.143 315.147C543.101 310.548 538.949 306.953 536.878 305.731Z" fill="#70AE3E"/>
<path d="M354.239 290.938C356.147 295.151 354.924 301.6 354.073 304.299L402.291 308.231C401.715 305.48 404.002 300.714 405.218 298.675C402.689 298.469 400.322 301.425 399.454 302.929L398.343 296.921L396.342 300.288C396.301 298.376 394.582 296.996 393.727 296.545C393.568 298.441 392.193 301.16 391.526 302.282L390.004 292.761C389.641 294.68 387.923 298.077 387.11 299.535C386.41 298.723 385.629 295.719 385.326 294.319C385.149 294.98 383.445 298.458 382.616 300.113C382.174 299.123 382.045 296.686 382.036 295.592C381.314 296.01 379.07 300.222 378.038 302.276C378.111 301.407 375.984 295.479 374.911 292.624C375.131 298.17 373.107 301.045 372.068 301.789C372.131 301.038 371.281 297.532 370.848 295.872C370.478 297.871 368.831 300.431 368.054 301.461C366.554 298.157 366.748 293.765 367.033 291.981C364.927 293.957 363.565 297.168 363.148 298.526C362.586 298.003 362.294 296.07 362.218 295.168L359.775 300.786C360.08 296.197 356.211 292.309 354.239 290.938Z" fill="#70AE3E"/>
<path d="M309.525 287.047C311.289 291.159 309.98 297.376 309.104 299.97L355.676 304.687C355.172 302.014 357.478 297.447 358.694 295.497C356.251 295.25 353.903 298.065 353.035 299.503L352.077 293.67L350.076 296.89C350.073 295.039 348.437 293.671 347.619 293.219C347.427 295.05 346.045 297.654 345.378 298.728L344.091 289.488C343.702 291.338 341.974 294.591 341.159 295.987C340.498 295.187 339.801 292.266 339.535 290.906C339.351 291.543 337.634 294.875 336.799 296.461C336.391 295.494 336.314 293.134 336.327 292.075C335.62 292.466 333.367 296.499 332.329 298.466C332.416 297.627 330.474 291.852 329.491 289.069C329.596 294.44 327.582 297.182 326.562 297.882C326.638 297.157 325.884 293.749 325.498 292.135C325.1 294.062 323.457 296.507 322.685 297.49C321.298 294.264 321.572 290.019 321.883 288.299C319.806 290.171 318.426 293.251 317.996 294.557C317.462 294.04 317.218 292.164 317.162 291.291L314.689 296.68C315.074 292.246 311.407 288.411 309.525 287.047Z" fill="#70AE3E"/>
<path d="M263.43 285.085C265.385 289.277 264.233 295.74 263.412 298.447L311.67 301.866C311.063 299.121 313.298 294.331 314.491 292.28C311.961 292.1 309.626 295.081 308.775 296.594L307.598 290.599L305.634 293.987C305.572 292.075 303.838 290.713 302.978 290.272C302.839 292.169 301.495 294.902 300.841 296.032L299.214 286.528C298.871 288.451 297.191 291.865 296.394 293.332C295.686 292.527 294.872 289.532 294.553 288.135C294.384 288.798 292.718 292.293 291.906 293.958C291.454 292.972 291.299 290.537 291.278 289.443C290.56 289.869 288.362 294.104 287.353 296.169C287.417 295.299 285.224 289.395 284.12 286.551C284.4 292.095 282.409 294.991 281.377 295.746C281.432 294.994 280.544 291.497 280.093 289.843C279.745 291.845 278.126 294.422 277.36 295.461C275.824 292.173 275.97 287.779 276.236 285.993C274.151 287.991 272.825 291.215 272.422 292.578C271.854 292.061 271.541 290.131 271.456 289.231L269.074 294.874C269.329 290.282 265.418 286.435 263.43 285.085Z" fill="#70AE3E"/>
<path d="M127.544 283.474C129.575 287.465 128.676 293.752 127.973 296.396L174.757 298.14C174.079 295.505 176.08 290.801 177.165 288.778C174.712 288.687 172.554 291.645 171.781 293.135L170.443 287.376L168.657 290.716C168.533 288.869 166.81 287.608 165.964 287.209C165.893 289.049 164.685 291.735 164.089 292.849L162.198 283.71C161.931 285.581 160.421 288.938 159.699 290.382C158.987 289.626 158.1 286.756 157.745 285.415C157.603 286.063 156.109 289.497 155.38 291.133C154.909 290.194 154.678 287.844 154.621 286.786C153.941 287.222 151.957 291.389 151.05 293.418C151.083 292.575 148.765 286.936 147.602 284.222C148.059 289.574 146.229 292.439 145.257 293.202C145.285 292.474 144.309 289.121 143.818 287.535C143.548 289.483 142.068 292.028 141.363 293.057C139.767 289.927 139.762 285.673 139.958 283.937C138.009 285.937 136.835 289.098 136.491 290.429C135.924 289.947 135.557 288.091 135.444 287.223L133.33 292.758C133.423 288.309 129.512 284.715 127.544 283.474Z" fill="#70AE3E"/>
<path d="M220.23 282.046C221.954 286.174 220.585 292.378 219.685 294.965L266.209 300.114C265.731 297.436 268.081 292.891 269.315 290.953C266.875 290.683 264.5 293.475 263.618 294.906L262.717 289.064L260.684 292.265C260.7 290.414 259.076 289.031 258.263 288.571C258.054 290.401 256.646 292.992 255.969 294.059L254.771 284.808C254.364 286.654 252.605 289.891 251.776 291.279C251.123 290.473 250.454 287.546 250.201 286.184C250.011 286.819 248.263 290.134 247.412 291.713C247.014 290.742 246.96 288.382 246.983 287.323C246.272 287.708 243.98 291.719 242.923 293.677C243.019 292.838 241.131 287.045 240.176 284.254C240.229 289.625 238.189 292.348 237.162 293.039C237.245 292.315 236.524 288.899 236.153 287.282C235.737 289.205 234.07 291.635 233.289 292.61C231.933 289.372 232.248 285.129 232.575 283.413C230.481 285.265 229.071 288.332 228.628 289.634C228.1 289.112 227.873 287.234 227.826 286.361L225.301 291.726C225.729 287.296 222.098 283.427 220.23 282.046Z" fill="#70AE3E"/>
<path d="M170.264 286.405C172.824 290.269 172.649 296.828 172.242 299.625L220.486 296.027C219.476 293.399 220.972 288.338 221.845 286.136C219.315 286.325 217.451 289.611 216.835 291.23L214.776 285.471L213.339 289.106C212.992 287.224 211.073 286.128 210.157 285.815C210.303 287.712 209.382 290.61 208.903 291.822L205.875 282.656C205.823 284.608 204.671 288.229 204.102 289.795C203.281 289.101 202.029 286.256 201.505 284.92C201.436 285.601 200.311 289.299 199.756 291.063C199.161 290.153 198.644 287.767 198.46 286.688C197.814 287.213 196.273 291.72 195.583 293.909C195.516 293.039 192.465 287.516 190.948 284.863C192.054 290.306 190.516 293.458 189.609 294.354C189.551 293.603 188.15 290.272 187.457 288.701C187.411 290.732 186.195 293.516 185.592 294.654C183.582 291.623 183.07 287.256 183.066 285.451C181.303 287.729 180.472 291.11 180.278 292.516C179.639 292.086 179.041 290.223 178.822 289.345L177.309 295.271C176.876 290.692 172.432 287.453 170.264 286.405Z" fill="#70AE3E"/>
<path d="M94 312.055C96.1825 315.967 95.5265 322.283 94.9256 324.952L141.743 324.952C140.964 322.344 142.783 317.568 143.789 315.507C141.334 315.507 139.291 318.543 138.577 320.062L137.018 314.356L135.361 317.76C135.166 315.919 133.396 314.724 132.536 314.356C132.536 316.197 131.431 318.927 130.879 320.062L128.638 311C128.443 312.879 127.063 316.29 126.397 317.76C125.657 317.032 124.66 314.196 124.254 312.87C124.137 313.522 122.776 317.009 122.11 318.671C121.603 317.751 121.282 315.411 121.184 314.356C120.522 314.816 118.7 319.055 117.872 321.116C117.872 320.273 115.338 314.724 114.072 312.055C114.734 317.386 113.016 320.317 112.074 321.116C112.074 320.388 110.97 317.073 110.418 315.507C110.223 317.463 108.843 320.062 108.177 321.116C106.462 318.048 106.293 313.797 106.423 312.055C104.552 314.126 103.5 317.329 103.208 318.671C102.623 318.211 102.185 316.37 102.038 315.507L100.138 321.116C100.06 316.667 96.0137 313.221 94 312.055Z" fill="#5B9B40"/>
<path d="M351 309.055C353.183 312.967 352.526 319.283 351.926 321.952L398.743 321.952C397.964 319.344 399.783 314.568 400.789 312.507C398.334 312.507 396.291 315.543 395.577 317.062L394.018 311.356L392.361 314.76C392.166 312.919 390.396 311.724 389.536 311.356C389.536 313.197 388.431 315.927 387.879 317.062L385.638 308C385.443 309.879 384.063 313.29 383.397 314.76C382.657 314.032 381.66 311.196 381.254 309.87C381.137 310.522 379.776 314.009 379.11 315.671C378.603 314.751 378.282 312.411 378.184 311.356C377.522 311.816 375.7 316.055 374.872 318.116C374.872 317.273 372.338 311.724 371.072 309.055C371.734 314.386 370.016 317.317 369.074 318.116C369.074 317.388 367.97 314.073 367.418 312.507C367.223 314.463 365.843 317.062 365.177 318.116C363.462 315.048 363.293 310.797 363.423 309.055C361.552 311.126 360.5 314.329 360.208 315.671C359.623 315.211 359.185 313.37 359.038 312.507L357.138 318.116C357.06 313.667 353.014 310.221 351 309.055Z" fill="#5B9B40"/>
<path d="M447.138 335C447.138 336.841 446.034 339.571 445.482 340.705C444.965 342.153 443.344 345.158 441 345.596L456.346 345.596C455.567 342.988 457.385 338.212 458.392 336.151C455.937 336.151 453.894 339.187 453.179 340.705L451.62 335L449.964 338.404C449.769 336.563 447.999 335.368 447.138 335Z" fill="#5B9B40"/>
<path d="M587.655 343.998C587.655 345.839 586.551 348.569 585.999 349.704C585.481 351.151 583.861 354.156 581.517 354.594L596.863 354.594C596.083 351.986 597.902 347.21 598.909 345.149C596.453 345.149 594.411 348.185 593.696 349.704L592.137 343.998L590.481 347.402C590.286 345.561 588.516 344.366 587.655 343.998Z" fill="#5B9B40"/>
<path d="M905.698 342.998C905.698 344.839 904.594 347.569 904.042 348.704C903.524 350.151 901.904 353.156 899.56 353.594L914.906 353.594C914.126 350.986 915.945 346.21 916.952 344.149C914.496 344.149 912.453 347.185 911.739 348.704L910.18 342.998L908.524 346.402C908.329 344.561 906.559 343.366 905.698 342.998Z" fill="#5B9B40"/>
<path d="M888.424 314.998C888.424 316.839 887.319 319.569 886.767 320.704C886.25 322.151 884.629 325.156 882.285 325.594L897.631 325.594C896.852 322.986 898.671 318.21 899.677 316.149C897.222 316.149 895.179 319.185 894.465 320.704L892.906 314.998L891.249 318.402C891.054 316.561 889.284 315.366 888.424 314.998Z" fill="#70AE3E"/>
</g>
</g>
<rect y="387" width="905" height="25" fill="#70AE3E"/>
<path d="M267.94 318.891C266.91 314.422 262.905 306.794 255.129 312.027C253.264 317.718 263.417 320.879 267.94 318.891Z" fill="#25861F" stroke="#25861F" stroke-width="0.423251"/>
<path d="M265.462 317.674L261.875 315.508M255.983 311.949L257.52 312.877M264.034 314.539C263.57 315.017 262.336 315.786 261.107 315.044M261.107 315.044L261.875 315.508M261.107 315.044L258.032 313.187M261.114 312.426C260.412 312.817 258.709 313.456 257.52 312.877M257.52 312.877L258.032 313.187M262.996 318.283C263.032 317.838 262.857 316.66 261.875 315.508M259.204 316.167C259.308 315.706 259.219 314.463 258.032 313.187" stroke="#1F6B19" stroke-width="0.423251" stroke-linecap="round"/>
<path d="M236.486 308.178C236.325 312.761 238.219 321.166 247.084 318.124C250.358 313.109 241.369 307.428 236.486 308.178Z" fill="#25861F" stroke="#25861F" stroke-width="0.423251"/>
<path d="M238.565 309.996L241.469 313.016M246.239 317.979L244.994 316.684M239.133 313.394C239.704 313.052 241.095 312.628 242.091 313.664M242.091 313.664L241.469 313.016M242.091 313.664L244.58 316.253M241.406 316.19C242.186 315.994 243.996 315.818 244.994 316.684M244.994 316.684L244.58 316.253M241.104 310.046C240.955 310.466 240.818 311.649 241.469 313.016M244.219 313.071C243.999 313.49 243.763 314.713 244.58 316.253" stroke="#1F6B19" stroke-width="0.423251" stroke-linecap="round"/>
<path d="M260.673 304.436C259.604 303.02 256.409 305.389 254.946 306.75C256.011 304.587 257.592 300.218 255.389 300.042C253.186 299.866 252.435 303.87 252.335 305.894C251.446 303.914 249.343 300.334 248.039 301.856C246.735 303.378 249.085 306.497 250.422 307.866C248.189 306.918 243.791 305.544 244.067 307.635C244.343 309.727 248.414 310.261 250.415 310.267C248.154 310.826 243.94 312.466 245.176 314.56C246.413 316.654 249.84 313.608 251.399 311.824C250.381 313.775 248.924 317.834 251.238 318.462C253.553 319.09 253.815 314.727 253.657 312.466C254.076 314.162 256.676 318.619 258.445 317.283C259.861 316.213 257.446 312.831 256.062 311.273C256.837 311.981 261.988 313.409 262.348 311.221C262.635 309.47 258.47 308.879 256.352 308.802C257.2 308.592 262.009 306.206 260.673 304.436Z" fill="#E56610"/>
<circle cx="253.356" cy="309.626" r="2.0383" transform="rotate(76.1331 253.356 309.626)" fill="#FFB42E"/>
<path d="M255.556 315.297C254.486 313.882 251.292 316.25 249.828 317.611C250.894 315.448 252.475 311.079 250.272 310.903C248.069 310.727 247.318 314.731 247.218 316.756C246.329 314.776 244.226 311.196 242.922 312.717C241.618 314.239 243.967 317.358 245.305 318.728C243.072 317.779 238.673 316.406 238.95 318.497C239.226 320.588 243.297 321.123 245.298 321.129C243.036 321.687 238.822 323.327 240.059 325.421C241.296 327.515 244.723 324.47 246.282 322.685C245.264 324.636 243.807 328.695 246.121 329.323C248.436 329.952 248.698 325.588 248.54 323.328C248.959 325.024 251.559 329.481 253.328 328.144C254.744 327.075 252.329 323.692 250.945 322.134C251.72 322.843 256.871 324.27 257.23 322.082C257.518 320.331 253.353 319.74 251.235 319.663C252.083 319.454 256.892 317.067 255.556 315.297Z" fill="white"/>
<circle cx="248.239" cy="320.487" r="2.0383" transform="rotate(76.1331 248.239 320.487)" fill="#E56610"/>
<path d="M753.927 363.708C753.251 360.776 750.623 355.77 745.52 359.204C744.297 362.939 750.959 365.013 753.927 363.708Z" fill="#25861F" stroke="#25861F" stroke-width="0.423251"/>
<path d="M752.301 362.91L749.947 361.489M746.081 359.153L747.09 359.763M751.364 360.853C751.06 361.166 750.25 361.671 749.443 361.184M749.443 361.184L749.947 361.489M749.443 361.184L747.426 359.966M749.448 359.466C748.987 359.723 747.87 360.142 747.09 359.763M747.09 359.763L747.426 359.966M750.683 363.31C750.706 363.018 750.592 362.245 749.947 361.489M748.195 361.921C748.263 361.618 748.205 360.803 747.426 359.966" stroke="#1F6B19" stroke-width="0.423251" stroke-linecap="round"/>
<path d="M733.287 356.679C733.181 359.687 734.424 365.202 740.242 363.206C742.39 359.915 736.492 356.187 733.287 356.679Z" fill="#25861F" stroke="#25861F" stroke-width="0.423251"/>
<path d="M734.651 357.873L736.557 359.855M739.687 363.111L738.87 362.262M735.024 360.102C735.399 359.878 736.312 359.6 736.965 360.28M736.965 360.28L736.557 359.855M736.965 360.28L738.598 361.979M736.516 361.937C737.027 361.809 738.215 361.693 738.87 362.262M738.87 362.262L738.598 361.979M736.317 357.906C736.219 358.181 736.13 358.958 736.557 359.855M738.362 359.891C738.217 360.166 738.063 360.968 738.598 361.979" stroke="#1F6B19" stroke-width="0.423251" stroke-linecap="round"/>
<path d="M749.159 354.222C748.457 353.293 746.361 354.847 745.401 355.74C746.1 354.321 747.137 351.454 745.692 351.339C744.246 351.223 743.754 353.851 743.688 355.179C743.105 353.88 741.724 351.531 740.869 352.529C740.013 353.528 741.555 355.575 742.433 356.473C740.967 355.851 738.081 354.949 738.262 356.322C738.444 357.694 741.115 358.045 742.428 358.049C740.944 358.415 738.179 359.491 738.99 360.865C739.802 362.24 742.051 360.241 743.074 359.07C742.406 360.35 741.45 363.014 742.968 363.426C744.487 363.838 744.659 360.975 744.556 359.492C744.83 360.605 746.536 363.529 747.698 362.652C748.626 361.951 747.042 359.731 746.134 358.708C746.642 359.173 750.022 360.11 750.258 358.674C750.447 357.526 747.714 357.137 746.324 357.087C746.88 356.95 750.036 355.383 749.159 354.222Z" fill="#E56610"/>
<circle cx="744.358" cy="357.627" r="1.33751" transform="rotate(76.1331 744.358 357.627)" fill="#FFB42E"/>
<path d="M745.802 361.349C745.1 360.42 743.004 361.974 742.043 362.867C742.743 361.448 743.78 358.581 742.334 358.466C740.889 358.35 740.396 360.978 740.33 362.306C739.747 361.007 738.367 358.658 737.511 359.656C736.656 360.655 738.198 362.702 739.075 363.6C737.61 362.978 734.724 362.076 734.905 363.449C735.086 364.821 737.758 365.172 739.071 365.176C737.587 365.542 734.821 366.618 735.633 367.992C736.445 369.367 738.693 367.368 739.716 366.197C739.048 367.477 738.092 370.141 739.611 370.553C741.13 370.965 741.302 368.102 741.198 366.619C741.473 367.732 743.179 370.656 744.34 369.779C745.269 369.077 743.685 366.858 742.776 365.835C743.285 366.3 746.665 367.237 746.901 365.801C747.089 364.653 744.356 364.264 742.966 364.214C743.523 364.077 746.679 362.51 745.802 361.349Z" fill="white"/>
<circle cx="741.002" cy="364.754" r="1.33751" transform="rotate(76.1331 741.002 364.754)" fill="#E56610"/>
<path d="M22.1504 316.698C20.7873 313.091 17.1216 304.013 15.3561 305.337C14.2742 306.148 15.4198 317.509 22.1504 316.698C22.1651 316.88 22.1807 317.06 22.1971 317.239C27.6699 316.806 31.3156 309.124 30.7745 308.853C26.4466 308.637 23.2529 314.353 22.1971 317.239C22.1807 317.06 22.1651 316.88 22.1504 316.698Z" fill="#237C1D"/>
<path d="M22.9301 322.108C22.6504 320.849 22.3743 319.16 22.1971 317.239M25.3646 299.656C22.1041 304.159 21.7121 311.251 22.1504 316.698M22.1504 316.698C20.7873 313.091 17.1216 304.013 15.3561 305.337C14.2742 306.148 15.4198 317.509 22.1504 316.698ZM22.1504 316.698C22.1651 316.88 22.1807 317.06 22.1971 317.239M22.1971 317.239C23.2529 314.353 26.4466 308.637 30.7745 308.853C31.3156 309.124 27.6699 316.806 22.1971 317.239Z" stroke="#237C1D" stroke-linecap="round"/>
<path d="M29.1302 291.075C30.3803 291.611 29.2046 294.423 28.4605 295.763C29.8744 294.572 32.836 292.593 33.3718 294.2C33.9075 295.807 31.065 297.102 29.5768 297.549C31.2139 297.846 34.2647 298.754 33.3718 300.004C32.4788 301.254 29.7256 300.079 28.4605 299.335C29.5767 300.823 31.4073 303.844 29.8 304.022C28.1927 304.201 27.0468 301.269 26.6748 299.781C26.6748 301.567 26.2283 305.005 24.4424 304.469C22.6566 303.933 24.2936 300.823 25.3354 299.335C24.0704 300.451 21.3172 302.281 20.4243 300.674C19.5314 299.067 22.731 298.07 24.4424 297.772C23.1031 297.772 19.3081 296.656 19.9778 295.093C20.5136 293.843 23.4751 295.019 24.8889 295.763C24.2192 295.316 22.2101 291.745 23.7727 291.075C25.0228 290.539 26.2283 293.531 26.6748 295.093C26.6748 294.423 27.5676 290.405 29.1302 291.075Z" fill="#E56610"/>
<circle cx="1.56262" cy="1.56262" r="1.56262" transform="matrix(-1 0 0 1 28.1748 295.912)" fill="#FFB42E"/>
<path d="M197.163 358.68C198.896 354.093 203.558 342.548 205.803 344.232C207.179 345.264 205.722 359.712 197.163 358.68C197.144 358.911 197.124 359.141 197.104 359.368C190.144 358.817 185.507 349.048 186.195 348.704C191.699 348.429 195.761 355.698 197.104 359.368C197.124 359.141 197.144 358.911 197.163 358.68Z" fill="#25861F"/>
<path d="M196.171 365.56C196.527 363.959 196.878 361.811 197.104 359.368M193.075 337.008C197.222 342.734 197.72 351.753 197.163 358.68M197.163 358.68C198.896 354.093 203.558 342.548 205.803 344.232C207.179 345.264 205.722 359.712 197.163 358.68ZM197.163 358.68C197.144 358.911 197.124 359.141 197.104 359.368M197.104 359.368C195.761 355.698 191.699 348.429 186.195 348.704C185.507 349.048 190.144 358.817 197.104 359.368Z" stroke="#25861F" stroke-width="0.687996" stroke-linecap="round"/>
<path d="M187.728 326.098C186.101 326.795 187.631 330.454 188.599 332.197C186.759 330.648 182.906 328.073 182.209 330.164C181.512 332.255 185.21 333.94 187.147 334.521C185.017 334.908 181.047 336.089 182.209 337.716C183.371 339.342 186.953 337.813 188.599 336.845C187.147 338.781 184.765 342.712 186.856 342.944C188.948 343.177 190.439 339.362 190.923 337.425C190.923 339.749 191.504 344.222 193.827 343.525C196.151 342.828 194.021 338.781 192.665 336.845C194.311 338.297 197.894 340.679 199.055 338.587C200.217 336.496 196.054 335.199 193.827 334.811C195.57 334.811 200.508 333.359 199.636 331.326C198.939 329.699 195.086 331.229 193.246 332.197C194.118 331.616 196.732 326.969 194.699 326.098C193.072 325.4 191.504 329.293 190.923 331.326C190.923 330.454 189.761 325.226 187.728 326.098Z" fill="white"/>
<circle cx="191.288" cy="334.599" r="2.40798" fill="#E56610"/>
<path d="M529.241 312.022C527.86 308.37 524.148 299.177 522.361 300.518C521.265 301.34 522.425 312.844 529.241 312.022C529.255 312.207 529.271 312.389 529.288 312.57C534.83 312.132 538.521 304.353 537.974 304.079C533.591 303.86 530.357 309.648 529.288 312.57C529.271 312.389 529.255 312.207 529.241 312.022Z" fill="#25861F"/>
<path d="M530.03 317.5C529.747 316.226 529.467 314.515 529.288 312.57M532.495 294.766C529.194 299.325 528.797 306.507 529.241 312.022M529.241 312.022C527.86 308.37 524.148 299.177 522.361 300.518C521.265 301.34 522.425 312.844 529.241 312.022ZM529.241 312.022C529.255 312.207 529.271 312.389 529.288 312.57M529.288 312.57C530.357 309.648 533.591 303.86 537.974 304.079C538.521 304.353 534.83 312.132 529.288 312.57Z" stroke="#25861F" stroke-linecap="round"/>
<path d="M536.754 286.078C538.049 286.633 536.831 289.547 536.06 290.935C537.525 289.701 540.593 287.65 541.148 289.316C541.703 290.981 538.758 292.322 537.216 292.785C538.912 293.093 542.073 294.034 541.148 295.329C540.223 296.624 537.371 295.406 536.06 294.635C537.216 296.177 539.113 299.307 537.448 299.492C535.782 299.677 534.595 296.64 534.21 295.098C534.21 296.948 533.747 300.51 531.897 299.955C530.047 299.399 531.743 296.177 532.822 294.635C531.511 295.792 528.659 297.688 527.734 296.023C526.809 294.358 530.124 293.325 531.897 293.016C530.509 293.016 526.577 291.86 527.271 290.241C527.826 288.946 530.895 290.164 532.359 290.935C531.666 290.472 529.584 286.772 531.203 286.078C532.498 285.523 533.747 288.622 534.21 290.241C534.21 289.547 535.135 285.384 536.754 286.078Z" fill="white"/>
<circle cx="1.91739" cy="1.91739" r="1.91739" transform="matrix(-1 0 0 1 535.836 290.93)" fill="#E56610"/>
<path d="M691.367 324.724C693.686 318.587 699.923 303.141 702.927 305.394C704.768 306.774 702.819 326.105 691.367 324.724C691.342 325.034 691.315 325.341 691.287 325.644C681.975 324.908 675.772 311.837 676.693 311.377C684.057 311.009 689.491 320.735 691.287 325.644C691.315 325.341 691.342 325.034 691.367 324.724Z" fill="#237C1D"/>
<path d="M690.04 333.929C690.516 331.787 690.986 328.913 691.287 325.644M685.898 295.729C691.445 303.389 692.112 315.457 691.367 324.724M691.367 324.724C693.686 318.587 699.923 303.141 702.927 305.394C704.768 306.774 702.819 326.105 691.367 324.724ZM691.367 324.724C691.342 325.034 691.315 325.341 691.287 325.644M691.287 325.644C689.491 320.735 684.057 311.009 676.693 311.377C675.772 311.837 681.975 324.908 691.287 325.644Z" stroke="#237C1D" stroke-linecap="round"/>
<path d="M679.49 281.128C677.363 282.039 679.363 286.825 680.629 289.104C678.224 287.078 673.185 283.71 672.273 286.445C671.361 289.18 676.198 291.383 678.73 292.142C675.945 292.649 670.754 294.193 672.273 296.32C673.792 298.447 678.477 296.447 680.629 295.181C678.73 297.713 675.616 302.853 678.35 303.157C681.085 303.461 683.035 298.473 683.668 295.941C683.668 298.979 684.427 304.829 687.466 303.917C690.505 303.005 687.719 297.713 685.947 295.181C688.099 297.08 692.784 300.195 694.303 297.46C695.822 294.725 690.378 293.029 687.466 292.522C689.745 292.522 696.202 290.623 695.062 287.964C694.151 285.837 689.112 287.838 686.706 289.104C687.846 288.344 691.264 282.267 688.605 281.128C686.478 280.216 684.427 285.306 683.668 287.964C683.668 286.825 682.149 279.988 679.49 281.128Z" fill="#E56610"/>
<circle cx="683.774" cy="292.014" r="2.65876" fill="#FFB42E"/>
</g>
<defs>
<clipPath id="clip0_595_6676">
<rect width="905" height="412" fill="white"/>
</clipPath>
</defs>
</svg>
