<svg width="905" height="412" viewBox="0 0 905 412" fill="none" xmlns="http://www.w3.org/2000/svg">
<g clip-path="url(#clip0_489_7394)">
<rect y="-1" width="905" height="414" fill="#C7E9FA"/>
<rect x="893.971" y="272.328" width="15.053" height="51.6105" fill="#5C4636"/>
<path d="M919.888 279.045C911.071 282.056 904.207 276.357 901.878 273.131C898.921 276.715 890.749 282.916 881.717 279.045C872.686 275.174 872.04 265.426 872.847 261.035C870.876 261.662 865.267 261.143 858.6 254.046C851.934 246.95 857.435 238.187 861.02 234.692C858.69 233.796 853.762 229.854 852.687 221.252C851.611 212.65 858.511 207.453 862.095 205.93C860.93 204.586 859.084 200.178 861.02 193.296C862.955 186.415 869.173 184.515 872.041 184.426C870.876 182.634 869.245 177.437 872.041 170.986C874.836 164.534 882.703 162.742 886.287 162.653C885.929 155.843 888.545 142.654 901.878 144.374C915.21 146.094 917.289 157.277 916.662 162.653C920.425 163.19 928.597 165.609 931.177 170.986C933.758 176.362 932.253 182.186 931.177 184.426C934.134 184.695 940.371 186.845 941.661 193.296C942.951 199.748 941.123 204.407 940.048 205.93C945.693 208.081 949.725 211.575 949.994 221.252C950.209 228.994 944.528 232.721 941.661 233.617C944.618 238.187 948.919 242.219 945.424 251.627C942.629 259.153 933.507 261.035 929.296 261.035C930.371 264.798 930.909 275.282 919.888 279.045Z" fill="#25861F"/>
<rect x="838.691" y="254.775" width="18.0695" height="61.9526" fill="#5C4636"/>
<path d="M869.802 262.841C859.219 266.455 850.98 259.615 848.183 255.743C844.634 260.045 834.825 267.488 823.983 262.841C813.141 258.195 812.367 246.493 813.335 241.223C810.969 241.976 804.236 241.352 796.234 232.833C788.231 224.315 794.835 213.796 799.138 209.601C796.341 208.525 790.426 203.793 789.135 193.468C787.844 183.142 796.126 176.904 800.428 175.075C799.03 173.462 796.814 168.17 799.138 159.91C801.461 151.649 808.925 149.369 812.367 149.262C810.969 147.111 809.011 140.872 812.367 133.128C815.723 125.384 825.166 123.233 829.469 123.125C829.038 114.951 832.179 99.1189 848.183 101.184C864.188 103.249 866.683 116.672 865.93 123.125C870.448 123.771 880.257 126.675 883.354 133.128C886.452 139.582 884.645 146.573 883.354 149.262C886.904 149.584 894.39 152.166 895.939 159.91C897.487 167.654 895.293 173.247 894.003 175.075C900.779 177.657 905.619 181.851 905.941 193.467C906.199 202.76 899.38 207.235 895.939 208.31C899.488 213.796 904.651 218.636 900.456 229.929C897.1 238.964 886.151 241.223 881.096 241.223C882.386 245.74 883.032 258.324 869.802 262.841Z" fill="#70AE3E"/>
<path d="M869.667 157.006C874.83 160.448 882.38 170.042 871.28 180.883" stroke="#237C1D" stroke-width="11.559" stroke-linecap="round"/>
<path d="M861.924 136.336C863.877 137.68 866.222 142.555 864.111 146.451" stroke="#237C1D" stroke-width="7.43076" stroke-linecap="round"/>
<path d="M868.025 219.279C868.626 221.554 867.248 226.777 863.152 228.408" stroke="#237C1D" stroke-width="7.43076" stroke-linecap="round"/>
<mask id="mask0_489_7394" style="mask-type:alpha" maskUnits="userSpaceOnUse" x="0" y="294" width="905" height="94">
<rect y="294" width="905" height="94" fill="#D9D9D9"/>
</mask>
<g mask="url(#mask0_489_7394)">
<mask id="mask1_489_7394" style="mask-type:alpha" maskUnits="userSpaceOnUse" x="-4151" y="258" width="5056" height="131">
<rect x="-4150.36" y="258" width="5055.36" height="131" fill="#D9D9D9"/>
</mask>
<g mask="url(#mask1_489_7394)">
<path d="M-4342.64 308.445L-3819.29 275.876C-3670.53 266.618 -3521.19 274.019 -3374.07 297.942L-3331.03 304.941C-3167.64 331.508 -3001.6 337.689 -2836.69 323.343L-2595.52 302.361C-2485.24 292.767 -2374.35 292.345 -2264.01 301.099L-1864.49 332.795C-1762.53 340.883 -1660.11 341.139 -1558.12 333.561L-944.208 287.945L172.781 357.945L908.26 308.445L908.26 388.445L-4342.64 388.445L-4342.64 308.445Z" fill="#5B9B40"/>
<path d="M812.881 305.99C815.528 309.84 814.982 316.171 814.378 318.856L868.36 317.545C867.375 314.959 869.312 310.135 870.405 308.046C867.573 308.115 865.319 311.207 864.546 312.745L862.558 307.086L860.762 310.535C860.476 308.7 858.395 307.554 857.39 307.211C857.452 309.051 856.269 311.811 855.671 312.961L852.784 303.965C852.622 305.85 851.145 309.297 850.426 310.786C849.548 310.078 848.304 307.272 847.791 305.957C847.678 306.612 846.225 310.136 845.513 311.816C844.898 310.91 844.45 308.581 844.302 307.529C843.553 308.008 841.594 312.295 840.708 314.379C840.68 313.536 837.574 308.06 836.024 305.428C836.966 310.739 835.083 313.717 834.023 314.542C833.999 313.813 832.615 310.531 831.926 308.981C831.767 310.942 830.262 313.578 829.529 314.651C827.45 311.632 827.113 307.387 827.205 305.642C825.117 307.765 824.01 310.996 823.718 312.346C823.029 311.902 822.462 310.074 822.265 309.215L820.261 314.876C820.023 310.431 815.242 307.1 812.881 305.99Z" fill="#5B9B40"/>
<path d="M866.089 303.888C868.736 307.738 868.19 314.07 867.586 316.754L921.568 315.443C920.583 312.858 922.52 308.034 923.613 305.945C920.781 306.013 918.527 309.106 917.754 310.643L915.766 304.984L913.97 308.433C913.684 306.598 911.603 305.453 910.598 305.11C910.66 306.95 909.477 309.709 908.879 310.859L905.992 301.864C905.83 303.748 904.353 307.196 903.634 308.684C902.756 307.976 901.512 305.17 900.999 303.856C900.886 304.511 899.433 308.035 898.721 309.715C898.106 308.809 897.658 306.479 897.51 305.427C896.761 305.906 894.802 310.194 893.916 312.278C893.888 311.434 890.782 305.959 889.232 303.326C890.174 308.637 888.291 311.615 887.231 312.44C887.207 311.712 885.823 308.429 885.134 306.879C884.975 308.84 883.47 311.476 882.737 312.549C880.658 309.53 880.321 305.285 880.413 303.54C878.325 305.663 877.218 308.894 876.926 310.244C876.237 309.801 875.67 307.972 875.473 307.114L873.469 312.774C873.231 308.329 868.45 304.998 866.089 303.888Z" fill="#5B9B40"/>
<path d="M605.776 319.066C608.423 322.916 607.878 329.248 607.274 331.932L661.256 330.621C660.27 328.036 662.208 323.211 663.3 321.122C660.469 321.191 658.215 324.284 657.441 325.821L655.454 320.162L653.657 323.611C653.371 321.776 651.29 320.631 650.286 320.287C650.347 322.128 649.165 324.887 648.566 326.037L645.68 317.042C645.518 318.926 644.04 322.374 643.322 323.862C642.443 323.154 641.199 320.348 640.687 319.033C640.574 319.689 639.121 323.212 638.409 324.893C637.794 323.987 637.345 321.657 637.198 320.605C636.449 321.084 634.489 325.371 633.603 327.455C633.575 326.612 630.469 321.136 628.92 318.504C629.861 323.815 627.978 326.793 626.919 327.618C626.894 326.889 625.511 323.607 624.822 322.057C624.662 324.018 623.157 326.654 622.425 327.727C620.345 324.708 620.009 320.463 620.1 318.718C618.012 320.841 616.906 324.072 616.614 325.422C615.924 324.978 615.357 323.15 615.16 322.292L613.156 327.952C612.918 323.507 608.137 320.176 605.776 319.066Z" fill="#5B9B40"/>
<path d="M707.46 313.496C710.37 317.205 710.264 323.553 709.848 326.264L763.644 322.227C762.481 319.696 764.08 314.782 765.025 312.641C762.204 312.853 760.168 316.054 759.503 317.628L757.126 312.079L755.572 315.613C755.159 313.796 753.003 312.757 751.976 312.465C752.165 314.299 751.176 317.114 750.659 318.292L747.153 309.458C747.122 311.347 745.886 314.864 745.272 316.386C744.346 315.724 742.909 312.985 742.307 311.699C742.239 312.359 741.034 315.95 740.439 317.663C739.763 316.79 739.153 314.487 738.933 313.444C738.219 313.96 736.56 318.339 735.82 320.464C735.734 319.624 732.253 314.315 730.523 311.765C731.832 317.019 730.159 320.087 729.159 320.964C729.084 320.238 727.475 317.032 726.679 315.519C726.656 317.484 725.337 320.192 724.681 321.3C722.395 318.391 721.764 314.171 721.735 312.425C719.798 314.649 718.918 317.93 718.72 319.293C718 318.885 717.308 317.089 717.051 316.242L715.444 321.993C714.897 317.568 709.894 314.485 707.46 313.496Z" fill="#5B9B40"/>
<path d="M501.287 327.024C504.009 330.836 503.586 337.175 503.035 339.868L556.984 337.792C555.948 335.221 557.791 330.37 558.843 328.266C556.013 328.375 553.82 331.499 553.077 333.047L550.979 327.417L549.25 330.891C548.928 329.06 546.825 327.944 545.814 327.615C545.911 329.454 544.783 332.23 544.207 333.388L541.146 324.435C541.021 326.321 539.61 329.79 538.92 331.288C538.029 330.593 536.73 327.805 536.192 326.498C536.092 327.154 534.708 330.698 534.028 332.388C533.396 331.491 532.902 329.168 532.734 328.118C531.995 328.608 530.119 332.922 529.273 335.019C529.229 334.176 526.017 328.745 524.416 326.135C525.461 331.431 523.636 334.436 522.593 335.276C522.554 334.548 521.107 331.285 520.388 329.745C520.267 331.708 518.813 334.365 518.102 335.448C515.964 332.459 515.545 328.22 515.602 326.474C513.556 328.626 512.513 331.872 512.247 333.226C511.549 332.792 510.946 330.972 510.732 330.117L508.839 335.805C508.514 331.363 503.669 328.101 501.287 327.024Z" fill="#5B9B40"/>
<path d="M760.288 309.045C763.272 312.891 763.125 319.451 762.678 322.251L818.297 318.318C817.11 315.697 818.793 310.626 819.783 308.419C816.866 308.625 814.743 311.924 814.046 313.547L811.623 307.802L809.996 311.447C809.58 309.567 807.358 308.485 806.298 308.179C806.483 310.075 805.444 312.979 804.901 314.194L801.333 305.05C801.289 307.002 799.99 310.63 799.347 312.2C798.394 311.512 796.926 308.676 796.311 307.344C796.237 308.025 794.969 311.731 794.345 313.499C793.651 312.593 793.035 310.21 792.813 309.132C792.072 309.662 790.332 314.18 789.554 316.373C789.47 315.504 785.905 310.002 784.133 307.359C785.454 312.795 783.706 315.958 782.667 316.86C782.594 316.109 780.95 312.788 780.138 311.222C780.102 313.253 778.722 316.045 778.037 317.187C775.692 314.171 775.066 309.807 775.047 308.002C773.031 310.292 772.102 313.679 771.889 315.086C771.148 314.661 770.443 312.802 770.183 311.925L768.487 317.862C767.949 313.287 762.797 310.078 760.288 309.045Z" fill="#5B9B40"/>
<path d="M553.322 325.367C556.417 329.149 556.46 335.71 556.094 338.518L611.582 333.415C610.32 330.82 611.855 325.715 612.781 323.487C609.871 323.754 607.844 327.097 607.194 328.735L604.606 323.043L603.084 326.721C602.615 324.85 600.361 323.815 599.294 323.531C599.533 325.423 598.578 328.348 598.071 329.574L594.239 320.507C594.252 322.46 593.059 326.115 592.46 327.698C591.488 327.03 589.938 324.225 589.285 322.907C589.231 323.589 588.071 327.321 587.497 329.101C586.777 328.211 586.093 325.842 585.84 324.768C585.115 325.314 583.505 329.867 582.791 332.076C582.682 331.209 578.959 325.783 577.111 323.179C578.589 328.585 576.933 331.784 575.92 332.708C575.826 331.959 574.087 328.673 573.229 327.124C573.252 329.155 571.953 331.976 571.301 333.132C568.87 330.166 568.118 325.817 568.046 324.013C566.098 326.345 565.266 329.75 565.094 331.162C564.342 330.752 563.583 328.909 563.298 328.038L561.774 334.009C561.104 329.445 555.861 326.346 553.322 325.367Z" fill="#5B9B40"/>
<path d="M655.172 319.206C658.418 322.894 658.726 329.45 658.475 332.267L713.723 325.531C712.356 322.974 713.684 317.827 714.519 315.573C711.621 315.927 709.731 319.327 709.148 320.983L706.33 315.371L704.959 319.091C704.414 317.236 702.12 316.268 701.041 316.015C701.357 317.899 700.521 320.85 700.064 322.091L695.867 313.143C695.959 315.094 694.915 318.781 694.381 320.381C693.382 319.742 691.72 316.985 691.013 315.687C690.987 316.371 689.979 320.134 689.478 321.93C688.722 321.061 687.942 318.714 687.646 317.649C686.943 318.215 685.519 322.813 684.895 325.042C684.751 324.178 680.81 318.866 678.858 316.318C680.554 321.677 679.028 324.923 678.054 325.876C677.929 325.13 676.058 321.898 675.138 320.375C675.243 322.405 674.06 325.262 673.455 326.437C670.905 323.544 669.977 319.219 669.832 317.418C667.979 319.807 667.286 323.235 667.172 324.65C666.403 324.263 665.57 322.443 665.249 321.581L663.969 327.593C663.114 323.053 657.748 320.11 655.172 319.206Z" fill="#5B9B40"/>
<path d="M448.876 330.183C451.823 334.05 451.611 340.609 451.137 343.405L506.793 339.867C505.631 337.238 507.364 332.179 508.375 329.978C505.456 330.164 503.301 333.447 502.588 335.066L500.221 329.304L498.559 332.937C498.161 331.055 495.95 329.956 494.893 329.643C495.059 331.54 493.992 334.437 493.438 335.648L489.958 326.478C489.896 328.43 488.562 332.049 487.902 333.615C486.957 332.92 485.516 330.073 484.914 328.737C484.834 329.418 483.53 333.114 482.888 334.877C482.203 333.967 481.61 331.58 481.399 330.5C480.653 331.025 478.869 335.53 478.07 337.718C477.994 336.848 474.483 331.321 472.737 328.666C474.004 334.111 472.226 337.261 471.178 338.156C471.112 337.405 469.501 334.072 468.704 332.5C468.648 334.531 467.241 337.313 466.545 338.45C464.23 335.418 463.647 331.049 463.644 329.244C461.607 331.52 460.644 334.9 460.417 336.306C459.681 335.876 458.994 334.011 458.743 333.133L456.989 339.058C456.496 334.478 451.375 331.233 448.876 330.183Z" fill="#5B9B40"/>
<path d="M397.219 333.223C399.982 337.013 399.63 343.354 399.108 346.052L453.032 343.542C451.968 340.979 453.758 336.114 454.786 334.001C451.958 334.133 449.798 337.274 449.072 338.829L446.913 333.215L445.222 336.703C444.88 334.875 442.765 333.776 441.75 333.455C441.868 335.294 440.77 338.079 440.207 339.241L437.047 330.313C436.943 332.2 435.57 335.68 434.897 337.183C433.998 336.495 432.669 333.718 432.116 332.415C432.023 333.073 430.679 336.628 430.018 338.323C429.375 337.431 428.856 335.112 428.676 334.064C427.942 334.559 426.114 338.889 425.292 340.992C425.238 340.149 421.966 334.744 420.337 332.147C421.44 337.435 419.649 340.454 418.615 341.302C418.568 340.575 417.085 337.324 416.349 335.79C416.249 337.754 414.825 340.422 414.126 341.511C411.955 338.539 411.489 334.304 411.527 332.557C409.505 334.726 408.497 337.98 408.246 339.336C407.544 338.908 406.921 337.093 406.698 336.239L404.867 341.942C404.494 337.504 399.612 334.28 397.219 333.223Z" fill="#5B9B40"/>
<path d="M344.463 336.278C347.459 340.117 347.33 346.677 346.892 349.478L402.499 345.426C401.304 342.808 402.973 337.734 403.956 335.524C401.04 335.736 398.926 339.04 398.234 340.665L395.794 334.925L394.178 338.573C393.757 336.694 391.531 335.617 390.471 335.313C390.661 337.208 389.63 340.115 389.091 341.331L385.496 332.194C385.458 334.146 384.17 337.777 383.531 339.349C382.576 338.663 381.1 335.83 380.481 334.499C380.409 335.18 379.152 338.889 378.533 340.658C377.836 339.754 377.213 337.373 376.988 336.295C376.249 336.826 374.522 341.348 373.75 343.543C373.663 342.674 370.083 337.179 368.303 334.541C369.64 339.973 367.901 343.14 366.865 344.044C366.789 343.294 365.136 339.976 364.319 338.411C364.289 340.443 362.918 343.238 362.235 344.381C359.882 341.37 359.244 337.008 359.219 335.203C357.21 337.497 356.29 340.886 356.081 342.294C355.34 341.87 354.629 340.012 354.367 339.136L352.688 345.077C352.137 340.502 346.975 337.305 344.463 336.278Z" fill="#5B9B40"/>
<path d="M193.069 339.385C195.521 343.327 194.66 349.633 193.922 352.294L247.92 352.949C247.065 350.33 249.242 345.58 250.438 343.533C247.606 343.499 245.199 346.506 244.35 348.014L242.647 342.288L240.679 345.668C240.485 343.825 238.464 342.605 237.477 342.225C237.446 344.066 236.127 346.78 235.472 347.907L233.038 338.815C232.782 340.691 231.133 344.082 230.34 345.543C229.499 344.804 228.396 341.955 227.95 340.623C227.804 341.273 226.176 344.741 225.381 346.394C224.812 345.466 224.48 343.122 224.385 342.066C223.613 342.517 221.441 346.73 220.451 348.779C220.465 347.936 217.636 342.352 216.22 339.666C216.895 345.006 214.864 347.913 213.765 348.698C213.777 347.97 212.558 344.64 211.948 343.066C211.69 345.019 210.055 347.598 209.27 348.644C207.343 345.552 207.219 341.299 207.398 339.559C205.206 341.603 203.938 344.791 203.579 346.129C202.912 345.661 202.437 343.814 202.283 342.949L199.998 348.531C199.982 344.081 195.372 340.579 193.069 339.385Z" fill="#5B9B40"/>
<path d="M141.919 342.494C144.371 346.437 143.509 352.743 142.772 355.403L196.77 356.058C195.914 353.439 198.092 348.69 199.287 346.642C196.455 346.608 194.049 349.616 193.199 351.124L191.496 345.397L189.529 348.778C189.335 346.934 187.313 345.714 186.327 345.334C186.296 347.175 184.977 349.889 184.321 351.016L181.887 341.924C181.631 343.801 179.983 347.191 179.19 348.652C178.348 347.913 177.245 345.064 176.799 343.732C176.653 344.383 175.026 347.851 174.23 349.503C173.661 348.576 173.329 346.232 173.234 345.176C172.463 345.627 170.291 349.839 169.301 351.889C169.315 351.045 166.486 345.461 165.069 342.775C165.744 348.115 163.714 351.022 162.614 351.808C162.627 351.079 161.408 347.749 160.797 346.176C160.54 348.129 158.905 350.708 158.119 351.753C156.192 348.661 156.068 344.408 156.247 342.668C154.055 344.713 152.788 347.9 152.429 349.239C151.762 348.77 151.287 346.923 151.133 346.058L148.848 351.641C148.832 347.191 144.222 343.689 141.919 342.494Z" fill="#5B9B40"/>
<path d="M88.0039 341.494C90.456 345.437 89.5941 351.743 88.8566 354.403L142.855 355.058C141.999 352.439 144.177 347.69 145.372 345.642C142.54 345.608 140.134 348.616 139.284 350.124L137.581 344.397L135.614 347.778C135.42 345.934 133.398 344.714 132.412 344.334C132.381 346.175 131.062 348.889 130.406 350.016L127.972 340.924C127.716 342.801 126.067 346.191 125.275 347.652C124.433 346.913 123.33 344.064 122.884 342.732C122.738 343.383 121.111 346.851 120.315 348.503C119.746 347.576 119.414 345.232 119.319 344.176C118.548 344.627 116.375 348.839 115.386 350.889C115.4 350.045 112.571 344.461 111.154 341.775C111.829 347.115 109.799 350.022 108.699 350.808C108.711 350.079 107.493 346.749 106.882 345.176C106.625 347.129 104.99 349.708 104.204 350.753C102.277 347.661 102.153 343.408 102.332 341.668C100.14 343.713 98.873 346.9 98.5135 348.239C97.8469 347.77 97.3719 345.923 97.2177 345.058L94.9328 350.641C94.9171 346.191 90.307 342.689 88.0039 341.494Z" fill="#5B9B40"/>
<path d="M34.0879 341.494C36.54 345.437 35.6781 351.743 34.9406 354.403L88.939 355.058C88.0834 352.439 90.2607 347.69 91.4563 345.642C88.6244 345.608 86.2175 348.616 85.3681 350.124L83.6651 344.397L81.6979 347.778C81.5039 345.934 79.4822 344.714 78.4957 344.334C78.465 346.175 77.1459 348.889 76.4901 350.016L74.0564 340.924C73.8003 342.801 72.1515 346.191 71.359 347.652C70.5171 346.913 69.4143 344.064 68.9682 342.732C68.8224 343.383 67.1948 346.851 66.3991 348.503C65.8301 347.576 65.4982 345.232 65.4034 344.176C64.6316 344.627 62.4595 348.839 61.4699 350.889C61.4839 350.045 58.6545 344.461 57.2381 341.775C57.9134 347.115 55.883 350.022 54.7833 350.808C54.7954 350.079 53.577 346.749 52.9663 345.176C52.709 347.129 51.0736 349.708 50.2881 350.753C48.3614 347.661 48.2374 343.408 48.4163 341.668C46.2241 343.713 44.957 346.9 44.5975 348.239C43.9309 347.77 43.4559 345.923 43.3017 345.058L41.0168 350.641C41.001 346.191 36.391 342.689 34.0879 341.494Z" fill="#5B9B40"/>
<path d="M-17.9866 335.485C-16.1128 339.652 -17.8645 345.822 -18.9746 348.386L34.5324 354.622C34.0553 351.934 36.8914 347.445 38.3692 345.536C35.563 345.209 32.7465 347.946 31.6891 349.355L30.8124 343.494L28.3793 346.646C28.4487 344.796 26.6153 343.376 25.69 342.897C25.3979 344.721 23.7029 347.279 22.8919 348.33L21.768 339.053C21.2472 340.889 19.1287 344.084 18.1345 345.452C17.4038 344.632 16.714 341.69 16.4604 340.322C16.2233 340.952 14.1149 344.226 13.0903 345.784C12.6573 344.804 12.6609 342.443 12.7169 341.385C11.8866 341.753 9.13197 345.71 7.85841 347.642C7.99226 346.806 5.97716 340.971 4.95287 338.158C4.8644 343.529 2.43588 346.204 1.23268 346.87C1.34827 346.148 0.612002 342.717 0.229416 341.092C-0.30359 343.004 -2.29335 345.395 -3.2216 346.351C-4.69475 343.082 -4.21344 338.848 -3.78864 337.139C-6.25524 338.942 -7.96592 341.975 -8.51294 343.266C-9.10807 342.733 -9.31714 340.85 -9.34728 339.975L-12.4085 345.28C-11.7919 340.862 -15.8703 336.909 -17.9866 335.485Z" fill="#5B9B40"/>
<path d="M294.942 337.522C297.664 341.334 297.241 347.673 296.69 350.366L350.639 348.29C349.603 345.719 351.447 340.868 352.498 338.764C349.669 338.873 347.475 341.997 346.732 343.545L344.634 337.915L342.905 341.389C342.583 339.558 340.481 338.442 339.469 338.113C339.567 339.953 338.438 342.728 337.862 343.886L334.801 334.933C334.676 336.819 333.265 340.288 332.576 341.786C331.684 341.091 330.385 338.303 329.847 336.996C329.747 337.652 328.363 341.196 327.684 342.886C327.051 341.989 326.557 339.666 326.389 338.616C325.65 339.106 323.774 343.42 322.929 345.517C322.884 344.674 319.672 339.243 318.071 336.633C319.116 341.929 317.291 344.934 316.248 345.774C316.21 345.046 314.762 341.783 314.043 340.243C313.922 342.206 312.469 344.863 311.757 345.946C309.619 342.957 309.2 338.718 309.258 336.972C307.211 339.124 306.168 342.37 305.902 343.724C305.204 343.29 304.601 341.47 304.387 340.615L302.494 346.303C302.17 341.861 297.324 338.599 294.942 337.522Z" fill="#5B9B40"/>
<path d="M242.413 341.323C245.471 345.126 245.451 351.687 245.059 354.493L300.594 349.773C299.356 347.17 300.94 342.076 301.887 339.854C298.975 340.101 296.916 343.43 296.251 345.063L293.716 339.353L292.16 343.021C291.708 341.147 289.465 340.096 288.4 339.805C288.621 341.698 287.639 344.617 287.12 345.839L283.374 336.747C283.368 338.699 282.14 342.345 281.527 343.924C280.561 343.25 279.038 340.435 278.397 339.111C278.337 339.794 277.141 343.517 276.551 345.293C275.84 344.398 275.177 342.024 274.935 340.949C274.204 341.489 272.552 346.032 271.817 348.235C271.716 347.367 268.045 341.917 266.222 339.3C267.648 344.716 265.962 347.903 264.94 348.82C264.853 348.07 263.145 344.773 262.302 343.218C262.306 345.249 260.98 348.061 260.317 349.212C257.915 346.23 257.204 341.875 257.149 340.071C255.178 342.389 254.315 345.789 254.129 347.199C253.38 346.784 252.639 344.935 252.362 344.063L250.782 350.023C250.155 345.455 244.941 342.32 242.413 341.323Z" fill="#5B9B40"/>
<path d="M-5163.18 307.998L-4660.99 276.051C-4508.97 266.381 -4356.35 274.109 -4206.09 299.085L-4184.2 302.724C-4017.32 330.461 -3847.6 336.915 -3679.1 321.93L-3461.27 302.559C-3348.57 292.536 -3235.23 292.096 -3122.45 301.241L-2745.58 331.804C-2641.39 340.254 -2536.69 340.521 -2432.45 332.604L-1838.59 287.498L-745.875 357.498L-26.3783 307.998L990.761 346.998L990.761 387.998L-26.3783 387.998L-5163.18 387.998L-5163.18 307.998Z" fill="#70AE3E"/>
<path d="M597.364 322.581C599.48 326.647 598.195 332.895 597.288 335.51L649.966 339.051C649.315 336.392 651.775 331.768 653.086 329.789C650.324 329.603 647.762 332.476 646.826 333.936L645.567 328.129L643.408 331.398C643.348 329.548 641.46 328.222 640.524 327.79C640.364 329.626 638.885 332.264 638.165 333.354L636.429 324.149C636.047 326.008 634.198 329.304 633.322 330.72C632.552 329.937 631.675 327.035 631.334 325.682C631.146 326.323 629.312 329.697 628.419 331.304C627.929 330.348 627.77 327.991 627.751 326.932C626.966 327.34 624.549 331.429 623.438 333.422C623.511 332.58 621.142 326.856 619.948 324.099C620.231 329.465 618.044 332.258 616.915 332.983C616.978 332.256 616.023 328.868 615.537 327.265C615.149 329.2 613.37 331.687 612.53 332.688C610.866 329.499 611.045 325.248 611.342 323.521C609.057 325.444 607.596 328.558 607.151 329.874C606.533 329.371 606.199 327.502 606.109 326.631L603.485 332.08C603.783 327.638 599.528 323.897 597.364 322.581Z" fill="#70AE3E"/>
<path d="M396.411 313.887C398.497 317.961 397.163 324.204 396.236 326.816L448.886 330.548C448.256 327.886 450.751 323.271 452.078 321.297C449.317 321.101 446.733 323.965 445.786 325.421L444.571 319.61L442.387 322.871C442.342 321.02 440.464 319.688 439.531 319.253C439.357 321.088 437.858 323.721 437.13 324.808L435.464 315.597C435.068 317.455 433.194 320.744 432.306 322.157C431.542 321.371 430.688 318.466 430.357 317.111C430.164 317.752 428.305 321.119 427.399 322.723C426.916 321.765 426.775 319.407 426.765 318.348C425.977 318.754 423.528 322.833 422.402 324.822C422.482 323.981 420.156 318.248 418.983 315.487C419.226 320.854 417.017 323.639 415.883 324.36C415.951 323.634 415.022 320.242 414.549 318.637C414.145 320.571 412.348 323.051 411.5 324.049C409.861 320.854 410.072 316.603 410.382 314.878C408.083 316.793 406.597 319.901 406.142 321.216C405.528 320.711 405.209 318.841 405.126 317.969L402.46 323.409C402.792 318.968 398.566 315.211 396.411 313.887Z" fill="#70AE3E"/>
<path d="M703.809 324.362C705.894 328.435 704.561 334.679 703.634 337.291L756.284 341.023C755.653 338.361 758.149 333.746 759.475 331.771C756.714 331.576 754.13 334.439 753.184 335.896L751.968 330.085L749.785 333.346C749.739 331.495 747.861 330.162 746.928 329.727C746.754 331.563 745.255 334.195 744.527 335.282L742.862 326.072C742.465 327.929 740.591 331.219 739.704 332.631C738.94 331.846 738.086 328.94 737.754 327.586C737.561 328.226 735.702 331.594 734.797 333.197C734.314 332.239 734.173 329.882 734.163 328.823C733.374 329.229 730.926 333.308 729.8 335.297C729.879 334.456 727.554 328.723 726.381 325.962C726.623 331.329 724.415 334.113 723.28 334.835C723.349 334.108 722.42 330.716 721.946 329.111C721.543 331.046 719.745 333.526 718.897 334.524C717.258 331.329 717.469 327.078 717.779 325.352C715.48 327.267 713.995 330.376 713.54 331.691C712.926 331.185 712.606 329.315 712.523 328.443L709.857 333.883C710.189 329.442 705.963 325.685 703.809 324.362Z" fill="#70AE3E"/>
<path d="M495.982 319.836C498.341 323.794 497.434 330.095 496.685 332.75L549.5 333.755C548.69 331.13 550.868 326.395 552.058 324.356C549.288 324.303 546.903 327.295 546.057 328.797L544.449 323.06L542.491 326.428C542.32 324.583 540.354 323.35 539.393 322.964C539.344 324.804 538.027 327.51 537.374 328.632L535.085 319.525C534.816 321.399 533.168 324.78 532.378 326.235C531.562 325.491 530.512 322.635 530.089 321.3C529.94 321.949 528.313 325.407 527.518 327.054C526.971 326.123 526.67 323.777 526.588 322.72C525.828 323.166 523.661 327.364 522.672 329.408C522.694 328.564 519.983 322.962 518.625 320.267C519.231 325.611 517.216 328.505 516.132 329.283C516.151 328.555 514.993 325.217 514.412 323.639C514.14 325.591 512.514 328.159 511.735 329.2C509.882 326.095 509.804 321.841 509.996 320.102C507.831 322.133 506.559 325.313 506.194 326.648C505.547 326.176 505.101 324.326 504.959 323.46L502.667 329.027C502.697 324.577 498.223 321.045 495.982 319.836Z" fill="#70AE3E"/>
<path d="M803.379 330.308C805.738 334.267 804.831 340.567 804.083 343.223L856.898 344.227C856.087 341.603 858.265 336.868 859.456 334.828C856.686 334.775 854.301 337.768 853.455 339.27L851.847 333.532L849.888 336.9C849.717 335.055 847.752 333.822 846.791 333.436C846.742 335.277 845.424 337.982 844.771 339.105L842.483 329.997C842.213 331.872 840.566 335.252 839.776 336.708C838.96 335.963 837.91 333.107 837.487 331.773C837.338 332.422 835.71 335.879 834.915 337.527C834.368 336.595 834.067 334.249 833.985 333.193C833.226 333.639 831.058 337.837 830.069 339.88C830.092 339.037 827.381 333.435 826.022 330.739C826.629 336.084 824.613 338.977 823.529 339.756C823.549 339.027 822.391 335.69 821.809 334.112C821.538 336.064 819.912 338.632 819.133 339.672C817.279 336.568 817.201 332.314 817.394 330.575C815.229 332.606 813.957 335.785 813.592 337.121C812.944 336.648 812.498 334.798 812.356 333.932L810.065 339.5C810.094 335.05 805.62 331.518 803.379 330.308Z" fill="#70AE3E"/>
<path d="M291.379 308.605C293.182 312.78 291.425 318.943 290.321 321.503L342.619 327.964C342.171 325.274 344.977 320.796 346.436 318.894C343.693 318.555 340.919 321.28 339.874 322.685L339.058 316.82L336.656 319.962C336.737 318.112 334.954 316.684 334.052 316.202C333.753 318.025 332.077 320.575 331.276 321.622L330.243 312.341C329.72 314.175 327.625 317.361 326.643 318.725C325.934 317.901 325.28 314.956 325.041 313.587C324.805 314.217 322.719 317.482 321.706 319.035C321.289 318.054 321.31 315.693 321.372 314.635C320.557 314.999 317.834 318.945 316.575 320.872C316.712 320.036 314.782 314.192 313.8 311.375C313.675 316.745 311.281 319.41 310.099 320.072C310.217 319.35 309.521 315.916 309.158 314.289C308.623 316.199 306.66 318.581 305.745 319.534C304.327 316.259 304.828 312.026 305.256 310.319C302.83 312.112 301.135 315.138 300.591 316.427C300.013 315.89 299.821 314.007 299.798 313.132L296.766 318.424C297.4 314.008 293.439 310.038 291.379 308.605Z" fill="#70AE3E"/>
<path d="M545.223 321.612C548.034 325.515 547.708 332.071 547.194 334.86L601.696 332.016C600.608 329.373 602.394 324.336 603.423 322.148C600.565 322.297 598.397 325.554 597.671 327.163L595.46 321.372L593.768 324.984C593.414 323.097 591.27 321.971 590.243 321.644C590.37 323.544 589.274 326.427 588.71 327.631L585.473 318.419C585.376 320.37 584.006 323.972 583.333 325.529C582.42 324.822 581.063 321.958 580.498 320.614C580.407 321.294 579.065 324.974 578.405 326.729C577.751 325.81 577.215 323.416 577.028 322.334C576.289 322.849 574.462 327.332 573.64 329.509C573.582 328.639 570.248 323.068 568.589 320.392C569.729 325.852 567.932 328.98 566.891 329.862C566.841 329.11 565.326 325.757 564.574 324.175C564.483 326.205 563.056 328.97 562.354 330.098C560.145 327.037 559.654 322.662 559.685 320.857C557.65 323.107 556.647 326.475 556.4 327.878C555.688 327.438 555.05 325.566 554.82 324.684L552.996 330.587C552.597 326.002 547.648 322.693 545.223 321.612Z" fill="#70AE3E"/>
<path d="M852.619 335.084C855.431 338.988 855.105 345.543 854.59 348.333L909.093 345.489C908.004 342.845 909.791 337.808 910.82 335.62C907.962 335.77 905.794 339.026 905.067 340.636L902.857 334.845L901.165 338.457C900.81 336.57 898.667 335.444 897.639 335.117C897.767 337.016 896.67 339.899 896.106 341.104L892.87 331.892C892.773 333.842 891.402 337.444 890.729 339.002C889.817 338.295 888.459 335.431 887.895 334.087C887.804 334.767 886.461 338.447 885.801 340.202C885.148 339.283 884.611 336.889 884.425 335.807C883.685 336.322 881.858 340.805 881.037 342.982C880.978 342.112 877.645 336.541 875.985 333.865C877.126 339.325 875.329 342.453 874.288 343.334C874.237 342.582 872.722 339.23 871.971 337.648C871.88 339.678 870.453 342.442 869.751 343.571C867.542 340.51 867.051 336.134 867.081 334.329C865.047 336.58 864.044 339.948 863.796 341.35C863.084 340.911 862.446 339.038 862.216 338.157L860.393 344.059C859.994 339.474 855.044 336.165 852.619 335.084Z" fill="#70AE3E"/>
<path d="M342.059 311.608C344.02 315.889 342.348 322.288 341.267 324.953L395.454 330.702C394.929 327.931 397.725 323.255 399.188 321.263C396.346 320.962 393.543 323.826 392.496 325.296L391.516 319.251L389.107 322.54C389.148 320.628 387.272 319.184 386.329 318.701C386.063 320.59 384.39 323.255 383.587 324.351L382.303 314.779C381.806 316.683 379.715 320.013 378.732 321.439C377.98 320.601 377.236 317.57 376.958 316.159C376.728 316.814 374.649 320.224 373.638 321.847C373.185 320.841 373.151 318.401 373.191 317.307C372.357 317.698 369.636 321.822 368.379 323.835C368.501 322.97 366.371 316.966 365.291 314.072C365.287 319.623 362.875 322.419 361.669 323.124C361.775 322.376 360.976 318.84 360.563 317.165C360.055 319.148 358.081 321.645 357.158 322.645C355.617 319.286 356.036 314.904 356.438 313.133C353.973 315.028 352.293 318.185 351.76 319.526C351.15 318.982 350.909 317.039 350.864 316.136L347.854 321.658C348.407 317.084 344.221 313.052 342.059 311.608Z" fill="#70AE3E"/>
<path d="M649.457 322.082C651.418 326.364 649.745 332.763 648.664 335.427L702.852 341.177C702.327 338.405 705.122 333.729 706.585 331.738C703.743 331.437 700.94 334.301 699.894 335.771L698.914 329.726L696.505 333.015C696.545 331.102 694.669 329.658 693.726 329.176C693.46 331.064 691.788 333.729 690.984 334.825L689.7 325.254C689.203 327.158 687.113 330.487 686.13 331.914C685.378 331.075 684.634 328.044 684.355 326.634C684.126 327.288 682.047 330.699 681.036 332.322C680.582 331.315 680.548 328.876 680.588 327.782C679.755 328.172 677.033 332.297 675.777 334.31C675.899 333.444 673.769 327.441 672.688 324.547C672.685 330.098 670.272 332.894 669.067 333.598C669.172 332.85 668.373 329.314 667.96 327.64C667.452 329.623 665.479 332.119 664.556 333.12C663.014 329.761 663.433 325.379 663.836 323.608C661.371 325.503 659.69 328.659 659.158 330.001C658.548 329.457 658.306 327.514 658.262 326.611L655.252 332.132C655.805 327.558 651.619 323.526 649.457 322.082Z" fill="#70AE3E"/>
<path d="M444.418 317.632C447.106 321.602 446.575 328.147 445.973 330.924L500.542 329.381C499.537 326.712 501.481 321.72 502.578 319.557C499.716 319.638 497.447 322.842 496.67 324.434L494.643 318.592L492.838 322.162C492.543 320.267 490.435 319.091 489.419 318.739C489.487 320.641 488.3 323.497 487.699 324.687L484.752 315.401C484.594 317.349 483.111 320.917 482.39 322.458C481.5 321.73 480.233 318.834 479.711 317.477C479.598 318.155 478.141 321.801 477.426 323.54C476.802 322.606 476.341 320.2 476.188 319.114C475.433 319.611 473.466 324.049 472.576 326.206C472.545 325.334 469.388 319.686 467.813 316.971C468.782 322.456 466.887 325.54 465.819 326.397C465.792 325.644 464.383 322.257 463.681 320.657C463.526 322.684 462.014 325.414 461.276 326.525C459.164 323.412 458.811 319.027 458.898 317.223C456.794 319.424 455.685 322.767 455.394 324.163C454.696 323.707 454.117 321.82 453.915 320.933L451.907 326.79C451.652 322.197 446.808 318.771 444.418 317.632Z" fill="#70AE3E"/>
<path d="M751.815 328.107C754.504 332.076 753.972 338.622 753.37 341.398L807.939 339.855C806.935 337.187 808.878 332.194 809.976 330.032C807.114 330.113 804.845 333.316 804.068 334.908L802.04 329.066L800.235 332.637C799.94 330.742 797.833 329.565 796.816 329.214C796.884 331.116 795.698 333.972 795.096 335.162L792.15 325.876C791.992 327.824 790.509 331.392 789.787 332.933C788.897 332.204 787.63 329.309 787.108 327.952C786.996 328.629 785.538 332.276 784.824 334.015C784.199 333.081 783.738 330.674 783.586 329.588C782.83 330.085 780.863 334.523 779.974 336.68C779.943 335.809 776.785 330.161 775.21 327.445C776.179 332.931 774.285 336.015 773.217 336.871C773.19 336.119 771.78 332.731 771.079 331.132C770.924 333.159 769.411 335.888 768.674 337C766.562 333.887 766.208 329.501 766.295 327.698C764.191 329.899 763.083 333.242 762.792 334.638C762.093 334.182 761.514 332.294 761.312 331.408L759.305 337.265C759.049 332.672 754.205 329.246 751.815 328.107Z" fill="#70AE3E"/>
<path d="M238.9 309.218C241.243 313.351 240.155 319.844 239.319 322.575L293.863 324.571C293.089 321.844 295.452 316.991 296.73 314.905C293.87 314.801 291.334 317.849 290.424 319.386L288.9 313.428L286.796 316.873C286.663 314.963 284.662 313.654 283.678 313.237C283.584 315.138 282.158 317.91 281.457 319.058L279.309 309.606C278.986 311.538 277.203 315.001 276.353 316.491C275.527 315.707 274.51 312.737 274.105 311.35C273.936 312.018 272.172 315.561 271.311 317.248C270.768 316.276 270.513 313.847 270.454 312.753C269.658 313.2 267.318 317.499 266.248 319.593C266.291 318.721 263.624 312.884 262.285 310.074C262.784 315.607 260.632 318.56 259.494 319.345C259.531 318.593 258.414 315.123 257.851 313.482C257.524 315.494 255.783 318.118 254.953 319.179C253.112 315.938 253.133 311.541 253.373 309.748C251.088 311.807 249.698 315.069 249.289 316.442C248.631 315.942 248.215 314.023 248.089 313.125L245.588 318.836C245.725 314.239 241.186 310.509 238.9 309.218Z" fill="#70AE3E"/>
<path d="M188.308 307.125C190.483 311.163 189.288 317.427 188.418 320.054L241.142 322.9C240.453 320.249 242.846 315.594 244.129 313.597C241.364 313.448 238.844 316.354 237.929 317.826L236.586 312.037L234.475 315.334C234.388 313.484 232.481 312.184 231.539 311.764C231.406 313.602 229.965 316.259 229.261 317.358L227.392 308.178C227.037 310.042 225.236 313.362 224.38 314.789C223.599 314.017 222.68 311.126 222.319 309.778C222.14 310.421 220.356 313.819 219.486 315.438C218.982 314.488 218.789 312.133 218.755 311.074C217.976 311.494 215.618 315.613 214.536 317.621C214.597 316.778 212.145 311.086 210.911 308.345C211.272 313.707 209.126 316.528 208.007 317.268C208.06 316.541 207.056 313.165 206.547 311.569C206.186 313.509 204.444 316.019 203.618 317.031C201.909 313.864 202.026 309.611 202.298 307.88C200.041 309.834 198.625 312.967 198.199 314.289C197.574 313.794 197.213 311.929 197.111 311.059L194.566 316.543C194.799 312.097 190.491 308.412 188.308 307.125Z" fill="#70AE3E"/>
<path d="M137.511 304.874C139.717 309.066 138.416 315.529 137.49 318.236L191.946 321.655C191.261 318.91 193.783 314.12 195.13 312.069C192.274 311.889 189.639 314.87 188.679 316.383L187.351 310.388L185.135 313.776C185.065 311.864 183.108 310.502 182.138 310.061C181.981 311.958 180.465 314.691 179.726 315.821L177.89 306.317C177.504 308.24 175.608 311.654 174.708 313.121C173.909 312.316 172.99 309.321 172.631 307.924C172.44 308.587 170.56 312.083 169.644 313.747C169.133 312.761 168.958 310.326 168.935 309.232C168.125 309.658 165.645 313.893 164.506 315.958C164.578 315.088 162.103 309.184 160.857 306.34C161.174 311.884 158.926 314.78 157.763 315.535C157.825 314.784 156.823 311.286 156.314 309.632C155.92 311.634 154.094 314.211 153.23 315.25C151.496 311.962 151.661 307.568 151.961 305.782C149.608 307.78 148.112 311.004 147.658 312.367C147.017 311.85 146.664 309.92 146.567 309.02L143.88 314.663C144.168 310.071 139.754 306.224 137.511 304.874Z" fill="#70AE3E"/>
<path d="M-14.7723 298.478C-12.481 302.469 -13.4949 308.756 -14.2883 311.4L38.5042 313.144C37.7384 310.509 39.9966 305.805 41.2214 303.782C38.4527 303.691 36.0173 306.649 35.1457 308.139L33.6354 302.38L31.6198 305.72C31.48 303.873 29.5359 302.612 28.5813 302.213C28.5014 304.053 27.1378 306.739 26.4659 307.853L24.3322 298.714C24.0309 300.585 22.3264 303.942 21.5118 305.386C20.7084 304.63 19.7071 301.76 19.3069 300.419C19.1468 301.066 17.4609 304.501 16.638 306.137C16.1066 305.198 15.8456 302.848 15.7815 301.79C15.0144 302.225 12.7759 306.393 11.7525 308.422C11.7892 307.579 9.17335 301.94 7.86086 299.226C8.3766 304.578 6.31203 307.443 5.21528 308.206C5.24691 307.478 4.14556 304.125 3.59093 302.539C3.2863 304.486 1.61703 307.032 0.820482 308.061C-0.980064 304.931 -0.986016 300.677 -0.763924 298.941C-2.96331 300.941 -4.2889 304.102 -4.67677 305.433C-5.31601 304.951 -5.73053 303.095 -5.85788 302.227L-8.24379 307.762C-8.13859 303.313 -12.5523 299.719 -14.7723 298.478Z" fill="#70AE3E"/>
<path d="M89.441 299.495C91.3871 303.623 89.8421 309.828 88.8263 312.414L141.326 317.563C140.786 314.885 143.437 310.34 144.831 308.402C142.077 308.132 139.397 310.925 138.401 312.355L137.384 306.514L135.091 309.714C135.108 307.863 133.276 306.481 132.358 306.021C132.123 307.85 130.534 310.441 129.77 311.508L128.418 302.257C127.959 304.103 125.974 307.34 125.039 308.728C124.302 307.923 123.547 304.996 123.262 303.633C123.047 304.268 121.074 307.584 120.115 309.162C119.664 308.192 119.604 305.831 119.63 304.772C118.828 305.157 116.241 309.168 115.049 311.126C115.157 310.287 113.027 304.495 111.949 301.703C112.008 307.074 109.706 309.798 108.548 310.488C108.641 309.764 107.827 306.349 107.409 304.732C106.94 306.654 105.059 309.085 104.177 310.06C102.647 306.822 103.003 302.579 103.372 300.862C101.008 302.714 99.4181 305.781 98.9182 307.083C98.3217 306.561 98.0659 304.684 98.0126 303.81L95.1632 309.175C95.646 304.745 91.5496 300.876 89.441 299.495Z" fill="#70AE3E"/>
<path d="M33.9368 300.217C36.4463 304.283 35.6244 310.804 34.8997 313.556L89.4891 314.044C88.6038 311.34 90.7675 306.424 91.9601 304.303C89.0971 304.278 86.6877 307.395 85.8409 308.957L84.0746 303.044L82.1126 306.545C81.9019 304.64 79.8488 303.386 78.8486 302.997C78.832 304.9 77.5198 307.709 76.8658 308.876L74.3345 299.488C74.0903 301.428 72.4501 304.939 71.6605 306.451C70.8036 305.69 69.6666 302.75 69.2052 301.375C69.063 302.047 67.4448 305.637 66.6534 307.348C66.071 306.391 65.7172 303.97 65.6131 302.879C64.8364 303.348 62.6736 307.709 61.6894 309.831C61.697 308.959 58.7932 303.198 57.3403 300.426C58.0648 305.943 56.035 308.955 54.9296 309.771C54.9362 309.017 53.6785 305.58 53.0488 303.956C52.804 305.975 51.1711 308.647 50.3852 309.73C48.4134 306.541 48.2548 302.146 48.422 300.347C46.222 302.468 44.9661 305.767 44.6132 307.151C43.9357 306.669 43.4411 304.762 43.2784 303.869L41.0124 309.646C40.9617 305.047 36.2742 301.444 33.9368 300.217Z" fill="#70AE3E"/>
</g>
</g>
<rect y="387" width="905" height="25" fill="#70AE3E"/>
<path d="M43.3823 366.698C44.7454 363.091 48.4111 354.013 50.1766 355.337C51.2586 356.148 50.113 367.509 43.3823 366.698C43.3676 366.88 43.352 367.06 43.3356 367.239C37.8628 366.806 34.2171 359.124 34.7582 358.853C39.0861 358.637 42.2798 364.353 43.3356 367.239C43.352 367.06 43.3676 366.88 43.3823 366.698Z" fill="#237C1D"/>
<path d="M42.6026 372.108C42.8823 370.849 43.1585 369.16 43.3356 367.239M40.1681 349.656C43.4286 354.159 43.8206 361.251 43.3823 366.698M43.3823 366.698C44.7454 363.091 48.4111 354.013 50.1766 355.337C51.2586 356.148 50.113 367.509 43.3823 366.698ZM43.3823 366.698C43.3676 366.88 43.352 367.06 43.3356 367.239M43.3356 367.239C42.2798 364.353 39.0861 358.637 34.7582 358.853C34.2171 359.124 37.8628 366.806 43.3356 367.239Z" stroke="#237C1D" stroke-linecap="round"/>
<path d="M36.402 341.075C35.1519 341.611 36.3276 344.423 37.0717 345.763C35.6578 344.572 32.6962 342.593 32.1605 344.2C31.6247 345.807 34.4672 347.102 35.9554 347.549C34.3184 347.846 31.2675 348.754 32.1605 350.004C33.0534 351.254 35.8067 350.079 37.0717 349.335C35.9555 350.823 34.125 353.844 35.7322 354.022C37.3395 354.201 38.4854 351.269 38.8575 349.781C38.8575 351.567 39.3039 355.005 41.0898 354.469C42.8756 353.933 41.2386 350.823 40.1969 349.335C41.4618 350.451 44.215 352.281 45.1079 350.674C46.0009 349.067 42.8012 348.07 41.0898 347.772C42.4292 347.772 46.2241 346.656 45.5544 345.093C45.0187 343.843 42.0571 345.019 40.6433 345.763C41.313 345.316 43.3221 341.745 41.7595 341.075C40.5094 340.539 39.3039 343.531 38.8575 345.093C38.8575 344.423 37.9646 340.405 36.402 341.075Z" fill="#E56610"/>
<circle cx="38.92" cy="347.475" r="1.56262" fill="#FFB42E"/>
<path d="M134.372 346.001C131.31 345.954 125.722 347.33 127.87 353.21C131.263 355.33 134.938 349.252 134.372 346.001Z" fill="#25861F" stroke="#25861F" stroke-width="0.423251"/>
<path d="M133.186 347.414L131.207 349.393M127.956 352.644L128.804 351.796M130.924 347.838C131.16 348.215 131.461 349.138 130.783 349.817M130.783 349.817L131.207 349.393M130.783 349.817L129.087 351.513M129.087 349.393C129.228 349.911 129.37 351.117 128.804 351.796M128.804 351.796L129.087 351.513M133.186 349.11C132.903 349.016 132.112 348.941 131.207 349.393M131.207 351.23C130.924 351.089 130.105 350.948 129.087 351.513" stroke="#1F6B19" stroke-width="0.423251" stroke-linecap="round"/>
<path d="M122.39 364.682C125.336 365.52 131.09 365.638 130.537 359.402C127.809 356.476 122.686 361.396 122.39 364.682Z" fill="#25861F" stroke="#25861F" stroke-width="0.423251"/>
<path d="M123.902 363.625L126.326 362.226M130.308 359.927L129.269 360.527M126.197 363.801C126.067 363.376 126.014 362.406 126.845 361.926M126.845 361.926L126.326 362.226M126.845 361.926L128.923 360.726M128.374 362.774C128.372 362.237 128.547 361.036 129.269 360.527M129.269 360.527L128.923 360.726M124.341 361.987C124.59 362.151 125.335 362.428 126.326 362.226M126.802 360.451C127.038 360.66 127.793 361.009 128.923 360.726" stroke="#1F6B19" stroke-width="0.423251" stroke-linecap="round"/>
<path d="M123.835 348.399C122.746 348.866 123.77 351.317 124.419 352.483C123.187 351.446 120.607 349.722 120.14 351.122C119.673 352.522 122.149 353.65 123.446 354.039C122.02 354.299 119.362 355.09 120.14 356.179C120.918 357.268 123.316 356.244 124.419 355.595C123.446 356.892 121.851 359.524 123.252 359.679C124.652 359.835 125.65 357.281 125.974 355.984C125.974 357.54 126.363 360.535 127.919 360.068C129.475 359.602 128.049 356.892 127.141 355.595C128.243 356.568 130.642 358.162 131.42 356.762C132.198 355.362 129.41 354.493 127.919 354.234C129.086 354.234 132.392 353.261 131.809 351.9C131.342 350.811 128.762 351.835 127.53 352.483C128.114 352.095 129.864 348.983 128.503 348.399C127.414 347.933 126.363 350.539 125.974 351.9C125.974 351.317 125.197 347.816 123.835 348.399Z" fill="#E56610"/>
<circle cx="126.029" cy="353.975" r="1.36139" fill="#FFB42E"/>
<path d="M130.059 353.456C128.97 353.923 129.994 356.373 130.642 357.54C129.41 356.503 126.83 354.778 126.363 356.179C125.897 357.579 128.373 358.707 129.67 359.096C128.243 359.355 125.585 360.146 126.363 361.235C127.141 362.324 129.54 361.3 130.642 360.652C129.67 361.948 128.075 364.58 129.475 364.736C130.876 364.892 131.874 362.337 132.198 361.041C132.198 362.597 132.587 365.592 134.143 365.125C135.699 364.658 134.273 361.948 133.365 360.652C134.467 361.624 136.866 363.219 137.644 361.819C138.422 360.419 135.634 359.55 134.143 359.29C135.31 359.29 138.616 358.318 138.033 356.957C137.566 355.868 134.986 356.892 133.754 357.54C134.337 357.151 136.088 354.039 134.726 353.456C133.637 352.989 132.587 355.595 132.198 356.957C132.198 356.373 131.42 352.873 130.059 353.456Z" fill="white"/>
<circle cx="132.252" cy="359.031" r="1.36139" fill="#E56610"/>
<path d="M190.039 316.5C192.559 309.833 199.335 293.052 202.598 295.5C204.598 297 202.481 318 190.039 316.5C190.012 316.837 189.983 317.17 189.953 317.5C179.837 316.7 173.098 302.5 174.098 302C182.098 301.6 188.001 312.167 189.953 317.5C189.983 317.17 190.012 316.837 190.039 316.5Z" fill="#25861F"/>
<path d="M188.598 326.5C189.115 324.173 189.626 321.051 189.953 317.5M184.098 285C190.125 293.323 190.85 306.433 190.039 316.5M190.039 316.5C192.559 309.833 199.335 293.052 202.598 295.5C204.598 297 202.481 318 190.039 316.5ZM190.039 316.5C190.012 316.837 189.983 317.17 189.953 317.5M189.953 317.5C188.001 312.167 182.098 301.6 174.098 302C173.098 302.5 179.837 316.7 189.953 317.5Z" stroke="#25861F" stroke-linecap="round"/>
<path d="M176.325 269.142C173.961 270.155 176.184 275.475 177.592 278.008C174.918 275.756 169.317 272.013 168.303 275.052C167.29 278.092 172.666 280.541 175.481 281.385C172.385 281.948 166.615 283.665 168.303 286.029C169.992 288.393 175.199 286.17 177.592 284.762C175.481 287.577 172.019 293.291 175.058 293.628C178.098 293.966 180.265 288.421 180.969 285.607C180.969 288.984 181.813 295.486 185.191 294.473C188.568 293.459 185.472 287.577 183.502 284.762C185.894 286.873 191.101 290.335 192.79 287.296C194.479 284.256 188.428 282.37 185.191 281.807C187.724 281.807 194.901 279.696 193.634 276.741C192.621 274.377 187.02 276.6 184.346 278.008C185.613 277.163 189.413 270.408 186.457 269.142C184.093 268.129 181.813 273.786 180.969 276.741C180.969 275.475 179.28 267.875 176.325 269.142Z" fill="white"/>
<circle cx="181.5" cy="281.5" r="3.5" fill="#E56610"/>
<path d="M362.079 324.631C360.348 320.052 355.694 308.524 353.452 310.205C352.078 311.236 353.533 325.662 362.079 324.631C362.098 324.863 362.118 325.092 362.139 325.318C369.088 324.769 373.717 315.014 373.03 314.67C367.535 314.396 363.479 321.655 362.139 325.318C362.118 325.092 362.098 324.863 362.079 324.631Z" fill="#237C1D"/>
<path d="M363.069 331.501C362.714 329.903 362.364 327.758 362.139 325.318M366.161 302.992C362.021 308.709 361.523 317.715 362.079 324.631M362.079 324.631C360.348 320.052 355.694 308.524 353.452 310.205C352.078 311.236 353.533 325.662 362.079 324.631ZM362.079 324.631C362.098 324.863 362.118 325.092 362.139 325.318M362.139 325.318C363.479 321.655 367.535 314.396 373.03 314.67C373.717 315.014 369.088 324.769 362.139 325.318Z" stroke="#237C1D" stroke-linecap="round"/>
<path d="M370.943 292.095C372.53 292.776 371.037 296.347 370.092 298.048C371.887 296.536 375.648 294.023 376.328 296.064C377.009 298.105 373.399 299.749 371.51 300.316C373.588 300.693 377.462 301.846 376.328 303.434C375.195 305.021 371.699 303.528 370.092 302.583C371.51 304.473 373.834 308.309 371.793 308.536C369.752 308.763 368.297 305.04 367.825 303.15C367.825 305.418 367.258 309.783 364.99 309.103C362.722 308.422 364.801 304.473 366.124 302.583C364.518 304 361.022 306.325 359.888 304.284C358.754 302.243 362.817 300.977 364.99 300.599C363.289 300.599 358.47 299.182 359.321 297.197C360.001 295.61 363.762 297.103 365.557 298.048C364.707 297.481 362.155 292.946 364.14 292.095C365.727 291.415 367.258 295.213 367.825 297.197C367.825 296.347 368.958 291.245 370.943 292.095Z" fill="#E56610"/>
<circle cx="1.98421" cy="1.98421" r="1.98421" transform="matrix(-1 0 0 1 369.729 298.236)" fill="#FFB42E"/>
<path d="M848.94 379.891C847.91 375.422 843.905 367.794 836.129 373.027C834.264 378.718 844.417 381.879 848.94 379.891Z" fill="#25861F" stroke="#25861F" stroke-width="0.423251"/>
<path d="M846.462 378.674L842.875 376.508M836.983 372.949L838.52 373.877M845.034 375.539C844.57 376.017 843.336 376.786 842.107 376.044M842.107 376.044L842.875 376.508M842.107 376.044L839.032 374.187M842.114 373.426C841.412 373.817 839.709 374.456 838.52 373.877M838.52 373.877L839.032 374.187M843.996 379.283C844.032 378.838 843.857 377.66 842.875 376.508M840.204 377.167C840.308 376.706 840.219 375.463 839.032 374.187" stroke="#1F6B19" stroke-width="0.423251" stroke-linecap="round"/>
<path d="M817.486 369.178C817.325 373.761 819.219 382.166 828.084 379.124C831.358 374.109 822.369 368.428 817.486 369.178Z" fill="#25861F" stroke="#25861F" stroke-width="0.423251"/>
<path d="M819.565 370.996L822.469 374.016M827.239 378.979L825.994 377.684M820.133 374.394C820.704 374.052 822.095 373.628 823.091 374.664M823.091 374.664L822.469 374.016M823.091 374.664L825.58 377.253M822.406 377.19C823.186 376.994 824.996 376.818 825.994 377.684M825.994 377.684L825.58 377.253M822.104 371.046C821.955 371.466 821.818 372.649 822.469 374.016M825.219 374.071C824.999 374.49 824.763 375.713 825.58 377.253" stroke="#1F6B19" stroke-width="0.423251" stroke-linecap="round"/>
<path d="M841.673 365.436C840.604 364.02 837.409 366.389 835.946 367.75C837.011 365.587 838.592 361.218 836.389 361.042C834.186 360.866 833.435 364.87 833.335 366.894C832.446 364.914 830.343 361.334 829.039 362.856C827.735 364.378 830.085 367.497 831.422 368.866C829.189 367.918 824.791 366.544 825.067 368.635C825.343 370.727 829.414 371.261 831.415 371.267C829.154 371.826 824.94 373.466 826.176 375.56C827.413 377.654 830.84 374.608 832.399 372.824C831.381 374.775 829.924 378.834 832.238 379.462C834.553 380.09 834.815 375.727 834.657 373.466C835.076 375.162 837.676 379.619 839.445 378.283C840.861 377.213 838.446 373.831 837.062 372.273C837.837 372.981 842.988 374.409 843.348 372.221C843.635 370.47 839.47 369.879 837.352 369.802C838.2 369.592 843.009 367.206 841.673 365.436Z" fill="#E56610"/>
<circle cx="834.356" cy="370.626" r="2.0383" transform="rotate(76.1331 834.356 370.626)" fill="#FFB42E"/>
<path d="M836.556 376.297C835.486 374.882 832.292 377.25 830.828 378.611C831.894 376.448 833.475 372.079 831.272 371.903C829.069 371.727 828.318 375.731 828.218 377.756C827.329 375.776 825.226 372.196 823.922 373.717C822.618 375.239 824.967 378.358 826.305 379.728C824.072 378.779 819.673 377.406 819.95 379.497C820.226 381.588 824.297 382.123 826.298 382.129C824.036 382.687 819.822 384.327 821.059 386.421C822.296 388.515 825.723 385.47 827.282 383.685C826.264 385.636 824.807 389.695 827.121 390.323C829.436 390.952 829.698 386.588 829.54 384.328C829.959 386.024 832.559 390.481 834.328 389.144C835.744 388.075 833.329 384.692 831.945 383.134C832.72 383.843 837.871 385.27 838.23 383.082C838.518 381.331 834.353 380.74 832.235 380.663C833.083 380.454 837.892 378.067 836.556 376.297Z" fill="white"/>
<circle cx="829.239" cy="381.487" r="2.0383" transform="rotate(76.1331 829.239 381.487)" fill="#E56610"/>
<path d="M768.039 337.5C770.559 330.833 777.335 314.052 780.598 316.5C782.598 318 780.481 339 768.039 337.5C768.012 337.837 767.983 338.17 767.953 338.5C757.837 337.7 751.098 323.5 752.098 323C760.098 322.6 766.001 333.167 767.953 338.5C767.983 338.17 768.012 337.837 768.039 337.5Z" fill="#25861F"/>
<path d="M766.598 347.5C767.115 345.173 767.626 342.051 767.953 338.5M762.098 306C768.125 314.323 768.85 327.433 768.039 337.5M768.039 337.5C770.559 330.833 777.335 314.052 780.598 316.5C782.598 318 780.481 339 768.039 337.5ZM768.039 337.5C768.012 337.837 767.983 338.17 767.953 338.5M767.953 338.5C766.001 333.167 760.098 322.6 752.098 323C751.098 323.5 757.837 337.7 767.953 338.5Z" stroke="#25861F" stroke-linecap="round"/>
<path d="M754.325 290.142C751.961 291.155 754.184 296.475 755.592 299.008C752.918 296.756 747.317 293.013 746.303 296.052C745.29 299.092 750.666 301.541 753.481 302.385C750.385 302.948 744.615 304.665 746.303 307.029C747.992 309.393 753.199 307.17 755.592 305.762C753.481 308.577 750.019 314.291 753.058 314.628C756.098 314.966 758.265 309.421 758.969 306.607C758.969 309.984 759.813 316.486 763.191 315.473C766.568 314.459 763.472 308.577 761.502 305.762C763.894 307.873 769.101 311.335 770.79 308.296C772.479 305.256 766.428 303.37 763.191 302.807C765.724 302.807 772.901 300.696 771.634 297.741C770.621 295.377 765.02 297.6 762.346 299.008C763.613 298.163 767.413 291.408 764.457 290.142C762.093 289.129 759.813 294.786 758.969 297.741C758.969 296.475 757.28 288.875 754.325 290.142Z" fill="white"/>
<circle cx="759.5" cy="302.5" r="3.5" fill="#E56610"/>
<path d="M677 363.055C679.183 366.967 678.526 373.283 677.926 375.952L724.743 375.952C723.964 373.344 725.783 368.568 726.789 366.507C724.334 366.507 722.291 369.543 721.577 371.062L720.018 365.356L718.361 368.76C718.166 366.919 716.396 365.724 715.536 365.356C715.536 367.197 714.431 369.927 713.879 371.062L711.638 362C711.443 363.879 710.063 367.29 709.397 368.76C708.657 368.032 707.66 365.196 707.254 363.87C707.137 364.522 705.776 368.009 705.11 369.671C704.603 368.751 704.282 366.411 704.184 365.356C703.522 365.816 701.7 370.055 700.872 372.116C700.872 371.273 698.338 365.724 697.072 363.055C697.734 368.386 696.016 371.317 695.074 372.116C695.074 371.388 693.97 368.073 693.418 366.507C693.223 368.463 691.843 371.062 691.177 372.116C689.462 369.048 689.293 364.797 689.423 363.055C687.552 365.126 686.5 368.329 686.208 369.671C685.623 369.211 685.185 367.37 685.038 366.507L683.138 372.116C683.06 367.667 679.014 364.221 677 363.055Z" fill="#5B9B40"/>
<path d="M175.138 361C175.138 362.841 174.034 365.571 173.482 366.705C172.965 368.153 171.344 371.158 169 371.596L184.346 371.596C183.567 368.988 185.385 364.212 186.392 362.151C183.937 362.151 181.894 365.187 181.179 366.705L179.62 361L177.964 364.404C177.769 362.563 175.999 361.368 175.138 361Z" fill="#5B9B40"/>
<rect x="101.481" y="305.48" width="30.8354" height="16.1519" rx="1.10127" fill="#D8B490" stroke="black" stroke-width="0.734177"/>
<rect x="103.684" y="298.139" width="2.20253" height="7.34177" fill="#C7A07C" stroke="black" stroke-width="0.734177"/>
<rect x="114.697" y="293.734" width="4.40506" height="2.20253" fill="#C7A07C" stroke="black" stroke-width="0.734177"/>
<rect x="113.228" y="291.531" width="7.34177" height="2.20253" rx="0.367089" fill="#D8B490" stroke="black" stroke-width="0.734177"/>
<rect x="132.317" y="295.935" width="2.20253" height="30.8354" rx="0.367089" transform="rotate(90 132.317 295.935)" fill="#D8B490" stroke="black" stroke-width="0.734177"/>
<rect x="127.912" y="298.139" width="2.20253" height="7.34177" fill="#C7A07C" stroke="black" stroke-width="0.734177"/>
<path d="M117.083 307.112L119.846 308.707C119.959 308.773 120.029 308.894 120.029 309.025V312.215C120.029 312.346 119.959 312.467 119.846 312.533L117.083 314.128C116.969 314.194 116.829 314.194 116.716 314.128L113.953 312.533C113.839 312.467 113.769 312.346 113.769 312.215V309.025C113.769 308.894 113.839 308.773 113.953 308.707L116.716 307.112C116.829 307.046 116.969 307.046 117.083 307.112Z" fill="#FED22B" stroke="black" stroke-width="0.734177"/>
<path d="M114.146 312.618L116.909 314.213C117.023 314.278 117.093 314.4 117.093 314.531V317.721C117.093 317.852 117.023 317.973 116.909 318.039L114.146 319.634C114.033 319.7 113.893 319.7 113.779 319.634L111.016 318.039C110.903 317.973 110.833 317.852 110.833 317.721V314.531C110.833 314.4 110.903 314.278 111.016 314.213L113.779 312.618C113.893 312.552 114.033 312.552 114.146 312.618Z" fill="#FED22B" stroke="black" stroke-width="0.734177"/>
<path d="M120.387 312.618L123.149 314.213C123.263 314.278 123.333 314.4 123.333 314.531V317.721C123.333 317.852 123.263 317.973 123.149 318.039L120.387 319.634C120.273 319.7 120.133 319.7 120.019 319.634L117.257 318.039C117.143 317.973 117.073 317.852 117.073 317.721V314.531C117.073 314.4 117.143 314.278 117.257 314.213L120.019 312.618C120.133 312.552 120.273 312.552 120.387 312.618Z" fill="#FED22B" stroke="black" stroke-width="0.734177"/>
<rect x="106.254" y="298.506" width="21.2911" height="6.60759" fill="#FBEBAF"/>
<path d="M109.191 304.048C107.722 304.048 106.254 303.89 105.887 303.645V305.481H127.912V303.278H124.241C122.773 303.278 122.944 301.076 121.672 301.076C120.57 301.076 120.367 303.317 120.203 303.645C119.836 304.38 118.368 304.783 118.001 304.048C117.459 302.965 117.266 302.58 116.899 302.58C116.532 302.58 115.431 302.58 115.431 301.846C115.431 300.378 114.697 300.01 114.33 300.01C113.963 299.888 113.155 300.01 112.861 301.479C112.494 303.314 111.026 304.048 109.191 304.048Z" fill="#FED22B" stroke="black" stroke-width="0.734177"/>
<rect x="60.3671" y="305.48" width="30.8354" height="16.1519" rx="1.10127" fill="#D8B490" stroke="black" stroke-width="0.734177"/>
<rect x="62.5692" y="298.139" width="2.20253" height="7.34177" fill="#C7A07C" stroke="black" stroke-width="0.734177"/>
<rect x="73.5819" y="293.734" width="4.40506" height="2.20253" fill="#C7A07C" stroke="black" stroke-width="0.734177"/>
<rect x="72.1142" y="291.531" width="7.34177" height="2.20253" rx="0.367089" fill="#D8B490" stroke="black" stroke-width="0.734177"/>
<rect x="91.2022" y="295.935" width="2.20253" height="30.8354" rx="0.367089" transform="rotate(90 91.2022 295.935)" fill="#D8B490" stroke="black" stroke-width="0.734177"/>
<rect x="86.7978" y="298.139" width="2.20253" height="7.34177" fill="#C7A07C" stroke="black" stroke-width="0.734177"/>
<path d="M75.9686 307.112L78.7314 308.707C78.845 308.773 78.9149 308.894 78.9149 309.025V312.215C78.9149 312.346 78.845 312.467 78.7314 312.533L75.9686 314.128C75.855 314.194 75.7151 314.194 75.6015 314.128L72.8387 312.533C72.7251 312.467 72.6551 312.346 72.6551 312.215V309.025C72.6551 308.894 72.7251 308.773 72.8387 308.707L75.6015 307.112C75.7151 307.046 75.855 307.046 75.9686 307.112Z" fill="#FED22B" stroke="black" stroke-width="0.734177"/>
<path d="M73.0321 312.618L75.7949 314.213C75.9085 314.278 75.9784 314.4 75.9784 314.531V317.721C75.9784 317.852 75.9085 317.973 75.7949 318.039L73.0321 319.634C72.9185 319.7 72.7786 319.7 72.665 319.634L69.9022 318.039C69.7886 317.973 69.7186 317.852 69.7186 317.721V314.531C69.7186 314.4 69.7886 314.278 69.9022 314.213L72.665 312.618C72.7786 312.552 72.9185 312.552 73.0321 312.618Z" fill="#FED22B" stroke="black" stroke-width="0.734177"/>
<path d="M79.2723 312.618L82.0351 314.213C82.1487 314.278 82.2187 314.4 82.2187 314.531V317.721C82.2187 317.852 82.1487 317.973 82.0351 318.039L79.2723 319.634C79.1587 319.7 79.0188 319.7 78.9052 319.634L76.1424 318.039C76.0288 317.973 75.9589 317.852 75.9589 317.721V314.531C75.9589 314.4 76.0288 314.278 76.1424 314.213L78.9052 312.618C79.0188 312.552 79.1587 312.552 79.2723 312.618Z" fill="#FED22B" stroke="black" stroke-width="0.734177"/>
<rect x="65.1396" y="298.506" width="21.2911" height="6.60759" fill="#FBEBAF"/>
<path d="M68.0763 304.048C66.6079 304.048 65.1395 303.89 64.7725 303.645V305.481H86.7978V303.278H83.1269C81.6585 303.278 81.8296 301.076 80.5573 301.076C79.456 301.076 79.2531 303.317 79.0889 303.645C78.7218 304.38 77.2535 304.783 76.8864 304.048C76.3449 302.965 76.1522 302.58 75.7851 302.58C75.418 302.58 74.3168 302.58 74.3168 301.846C74.3168 300.378 73.5826 300.01 73.2155 300.01C72.8484 299.888 72.0408 300.01 71.7471 301.479C71.3801 303.314 69.9117 304.048 68.0763 304.048Z" fill="#FED22B" stroke="black" stroke-width="0.734177"/>
<rect x="80.9237" y="278.316" width="30.8354" height="16.1519" rx="1.10127" fill="#D8B490" stroke="black" stroke-width="0.734177"/>
<rect x="83.1259" y="270.975" width="2.20253" height="7.34177" fill="#C7A07C" stroke="black" stroke-width="0.734177"/>
<rect x="94.1386" y="266.57" width="4.40506" height="2.20253" fill="#C7A07C" stroke="black" stroke-width="0.734177"/>
<rect x="92.6708" y="264.367" width="7.34177" height="2.20253" rx="0.367089" fill="#D8B490" stroke="black" stroke-width="0.734177"/>
<rect x="111.759" y="268.771" width="2.20253" height="30.8354" rx="0.367089" transform="rotate(90 111.759 268.771)" fill="#D8B490" stroke="black" stroke-width="0.734177"/>
<rect x="107.354" y="270.975" width="2.20253" height="7.34177" fill="#C7A07C" stroke="black" stroke-width="0.734177"/>
<path d="M96.5243 279.948L99.2871 281.543C99.4006 281.608 99.4706 281.73 99.4706 281.861V285.051C99.4706 285.182 99.4006 285.303 99.2871 285.369L96.5243 286.964C96.4107 287.03 96.2707 287.03 96.1572 286.964L93.3944 285.369C93.2808 285.303 93.2108 285.182 93.2108 285.051V281.861C93.2108 281.73 93.2808 281.608 93.3944 281.543L96.1572 279.948C96.2707 279.882 96.4107 279.882 96.5243 279.948Z" fill="#FED22B" stroke="black" stroke-width="0.734177"/>
<path d="M93.5877 285.454L96.3505 287.049C96.4641 287.114 96.5341 287.236 96.5341 287.367V290.557C96.5341 290.688 96.4641 290.809 96.3505 290.875L93.5877 292.47C93.4742 292.536 93.3342 292.536 93.2206 292.47L90.4578 290.875C90.3443 290.809 90.2743 290.688 90.2743 290.557V287.367C90.2743 287.236 90.3443 287.114 90.4578 287.049L93.2206 285.454C93.3342 285.388 93.4742 285.388 93.5877 285.454Z" fill="#FED22B" stroke="black" stroke-width="0.734177"/>
<path d="M99.828 285.454L102.591 287.049C102.704 287.114 102.774 287.236 102.774 287.367V290.557C102.774 290.688 102.704 290.809 102.591 290.875L99.828 292.47C99.7144 292.536 99.5745 292.536 99.4609 292.47L96.6981 290.875C96.5845 290.809 96.5145 290.688 96.5145 290.557V287.367C96.5145 287.236 96.5845 287.114 96.6981 287.049L99.4609 285.454C99.5745 285.388 99.7144 285.388 99.828 285.454Z" fill="#FED22B" stroke="black" stroke-width="0.734177"/>
<rect x="85.6953" y="271.342" width="21.2911" height="6.60759" fill="#FBEBAF"/>
<path d="M88.6329 276.884C87.1645 276.884 85.6962 276.726 85.3291 276.481V278.317H107.354V276.114H103.684C102.215 276.114 102.386 273.912 101.114 273.912C100.013 273.912 99.8097 276.153 99.6456 276.481C99.2785 277.216 97.8101 277.619 97.443 276.884C96.9015 275.801 96.7088 275.416 96.3418 275.416C95.9747 275.416 94.8734 275.416 94.8734 274.682C94.8734 273.213 94.1392 272.846 93.7721 272.846C93.4051 272.724 92.5975 272.846 92.3038 274.315C91.9367 276.15 90.4683 276.884 88.6329 276.884Z" fill="#FED22B" stroke="black" stroke-width="0.734177"/>
<path d="M59 318.364C59.7528 319.713 59.5265 321.892 59.3193 322.812L75.4681 322.812C75.1993 321.913 75.8266 320.266 76.1739 319.555C75.327 319.555 74.6223 320.602 74.3759 321.126L73.8381 319.158L73.2668 320.332C73.1996 319.697 72.589 319.284 72.2921 319.158C72.2921 319.793 71.9112 320.734 71.7208 321.126L70.9478 318C70.8806 318.648 70.4045 319.825 70.1748 320.332C69.9194 320.08 69.5755 319.103 69.4354 318.645C69.3951 318.87 68.9257 320.073 68.696 320.646C68.5213 320.329 68.4104 319.521 68.3768 319.158C68.1482 319.316 67.5197 320.778 67.2341 321.489C67.2341 321.198 66.3602 319.284 65.9233 318.364C66.1519 320.203 65.5592 321.214 65.2344 321.489C65.2344 321.238 64.8535 320.095 64.663 319.555C64.5958 320.229 64.1197 321.126 63.89 321.489C63.2985 320.431 63.2403 318.965 63.2851 318.364C62.6398 319.078 62.2768 320.183 62.176 320.646C61.9743 320.487 61.8231 319.852 61.7727 319.555L61.1173 321.489C61.0904 319.955 59.6946 318.766 59 318.364Z" fill="#5B9B40"/>
<path d="M100 318.364C100.753 319.713 100.527 321.892 100.319 322.812L116.468 322.812C116.199 321.913 116.827 320.266 117.174 319.555C116.327 319.555 115.622 320.602 115.376 321.126L114.838 319.158L114.267 320.332C114.2 319.697 113.589 319.284 113.292 319.158C113.292 319.793 112.911 320.734 112.721 321.126L111.948 318C111.881 318.648 111.404 319.825 111.175 320.332C110.919 320.08 110.575 319.103 110.435 318.645C110.395 318.87 109.926 320.073 109.696 320.646C109.521 320.329 109.41 319.521 109.377 319.158C109.148 319.316 108.52 320.778 108.234 321.489C108.234 321.198 107.36 319.284 106.923 318.364C107.152 320.203 106.559 321.214 106.234 321.489C106.234 321.238 105.853 320.095 105.663 319.555C105.596 320.229 105.12 321.126 104.89 321.489C104.299 320.431 104.24 318.965 104.285 318.364C103.64 319.078 103.277 320.183 103.176 320.646C102.974 320.487 102.823 319.852 102.773 319.555L102.117 321.489C102.09 319.955 100.695 318.766 100 318.364Z" fill="#5B9B40"/>
<path d="M75 318.364C75.7528 319.713 75.5265 321.892 75.3193 322.812L91.4681 322.812C91.1993 321.913 91.8266 320.266 92.1739 319.555C91.327 319.555 90.6223 320.602 90.3759 321.126L89.8381 319.158L89.2668 320.332C89.1996 319.697 88.589 319.284 88.2921 319.158C88.2921 319.793 87.9112 320.734 87.7208 321.126L86.9478 318C86.8806 318.648 86.4045 319.825 86.1748 320.332C85.9194 320.08 85.5755 319.103 85.4354 318.645C85.3951 318.87 84.9257 320.073 84.696 320.646C84.5213 320.329 84.4104 319.521 84.3768 319.158C84.1482 319.316 83.5197 320.778 83.2341 321.489C83.2341 321.198 82.3602 319.284 81.9233 318.364C82.1519 320.203 81.5592 321.214 81.2344 321.489C81.2344 321.238 80.8535 320.095 80.663 319.555C80.5958 320.229 80.1197 321.126 79.89 321.489C79.2985 320.431 79.2403 318.965 79.2851 318.364C78.6398 319.078 78.2768 320.183 78.176 320.646C77.9743 320.487 77.8231 319.852 77.7727 319.555L77.1173 321.489C77.0904 319.955 75.6946 318.766 75 318.364Z" fill="#5B9B40"/>
<path d="M116 318.364C116.753 319.713 116.527 321.892 116.319 322.812L132.468 322.812C132.199 321.913 132.827 320.266 133.174 319.555C132.327 319.555 131.622 320.602 131.376 321.126L130.838 319.158L130.267 320.332C130.2 319.697 129.589 319.284 129.292 319.158C129.292 319.793 128.911 320.734 128.721 321.126L127.948 318C127.881 318.648 127.404 319.825 127.175 320.332C126.919 320.08 126.575 319.103 126.435 318.645C126.395 318.87 125.926 320.073 125.696 320.646C125.521 320.329 125.41 319.521 125.377 319.158C125.148 319.316 124.52 320.778 124.234 321.489C124.234 321.198 123.36 319.284 122.923 318.364C123.152 320.203 122.559 321.214 122.234 321.489C122.234 321.238 121.853 320.095 121.663 319.555C121.596 320.229 121.12 321.126 120.89 321.489C120.299 320.431 120.24 318.965 120.285 318.364C119.64 319.078 119.277 320.183 119.176 320.646C118.974 320.487 118.823 319.852 118.773 319.555L118.117 321.489C118.09 319.955 116.695 318.766 116 318.364Z" fill="#5B9B40"/>
</g>
<defs>
<clipPath id="clip0_489_7394">
<rect width="905" height="412" fill="white"/>
</clipPath>
</defs>
</svg>
