<svg width="226" height="85" viewBox="0 0 226 85" fill="none" xmlns="http://www.w3.org/2000/svg">
<path d="M214.793 49.1193C216.716 43.9154 221.896 30.8141 224.45 32.7008C226.015 33.8571 224.486 50.2164 214.793 49.1193C214.774 49.3817 214.753 49.6414 214.731 49.8982C206.852 49.3329 201.526 38.3173 202.301 37.9224C208.527 37.5656 213.182 45.7576 214.731 49.8982C214.753 49.6414 214.774 49.3817 214.793 49.1193Z" fill="#237C1D"/>
<path d="M213.728 56.9119C214.117 55.0977 214.496 52.6645 214.731 49.8982M209.989 24.6322C214.728 31.0766 215.366 41.2778 214.793 49.1193M214.793 49.1193C216.716 43.9154 221.896 30.8141 224.45 32.7008C226.015 33.8571 224.486 50.2164 214.793 49.1193ZM214.793 49.1193C214.774 49.3817 214.753 49.6414 214.731 49.8982M214.731 49.8982C213.182 45.7576 208.527 37.5656 202.301 37.9224C201.526 38.3173 206.852 49.3329 214.731 49.8982Z" stroke="black" stroke-linecap="round"/>
<path d="M204.481 12.3254C202.688 13.1094 204.409 17.1443 205.494 19.0638C203.447 17.3655 199.164 14.5485 198.41 16.8668C197.656 19.1851 201.76 21.0183 203.906 21.6451C201.554 22.0906 197.173 23.4288 198.471 25.2182C199.769 27.0076 203.719 25.287 205.531 24.2031C203.941 26.3562 201.338 30.7224 203.653 30.9625C205.967 31.2026 207.586 26.9721 208.105 24.8268C208.124 27.3964 208.802 32.3383 211.367 31.5487C213.931 30.7591 211.542 26.3008 210.028 24.1703C211.86 25.7631 215.84 28.3681 217.108 26.0461C218.376 23.724 213.762 22.3228 211.296 21.9125C213.224 21.8984 218.672 20.2526 217.692 18.0112C216.908 16.218 212.659 17.9408 210.633 19.0263C211.592 18.3769 214.445 13.2165 212.19 12.2692C210.385 11.5114 208.682 15.8283 208.056 18.0814C208.049 17.1178 206.722 11.3454 204.481 12.3254Z" fill="#E56610" stroke="black"/>
<circle cx="208.171" cy="21.5075" r="1.74851" transform="rotate(-0.417536 208.171 21.5075)" fill="#FFB42E" stroke="black"/>
<path d="M148.687 45.3381C150.61 40.1342 155.79 27.0328 158.344 28.9196C159.909 30.0759 158.38 46.4351 148.687 45.3381C148.668 45.6004 148.647 45.8601 148.625 46.117C140.746 45.5516 135.42 34.536 136.195 34.1411C142.421 33.7844 147.076 41.9764 148.625 46.117C148.647 45.8601 148.668 45.6004 148.687 45.3381Z" fill="#25861F"/>
<path d="M147.622 53.1306C148.011 51.3165 148.391 48.8832 148.625 46.117M143.883 20.8509C148.622 27.2954 149.26 37.4965 148.687 45.3381M148.687 45.3381C150.61 40.1342 155.79 27.0328 158.344 28.9196C159.909 30.0759 158.38 46.4351 148.687 45.3381ZM148.687 45.3381C148.668 45.6004 148.647 45.8601 148.625 46.117M148.625 46.117C147.076 41.9764 142.421 33.7844 136.195 34.1411C135.42 34.536 140.746 45.5516 148.625 46.117Z" stroke="black" stroke-linecap="round"/>
<path d="M138.374 8.54221C136.581 9.32622 138.302 13.3611 139.387 15.2805C137.34 13.5823 133.058 10.7653 132.304 13.0836C131.55 15.4019 135.654 17.2351 137.8 17.8619C135.447 18.3074 131.067 19.6456 132.365 21.435C133.663 23.2244 137.612 21.5038 139.425 20.4199C137.834 22.573 135.232 26.9392 137.546 27.1793C139.861 27.4194 141.479 23.1888 141.999 21.0436C142.018 23.6132 142.696 28.5551 145.26 27.7655C147.824 26.9759 145.436 22.5176 143.921 20.3871C145.753 21.9799 149.734 24.5849 151.002 22.2629C152.27 19.9408 147.656 18.5396 145.19 18.1293C147.117 18.1152 152.566 16.4694 151.586 14.228C150.802 12.4348 146.553 14.1576 144.526 15.2431C145.485 14.5937 148.339 9.43327 146.083 8.48603C144.279 7.72824 142.576 12.0451 141.95 14.2982C141.943 13.3346 140.616 7.5622 138.374 8.54221Z" fill="white" stroke="black"/>
<circle cx="142.064" cy="17.7243" r="1.74851" transform="rotate(-0.417536 142.064 17.7243)" fill="#E56610" stroke="black"/>
<path d="M94.2395 51.0008C92.6471 46.8784 88.3698 36.504 86.3574 38.0363C85.1241 38.9754 86.532 51.9871 94.2395 51.0008C94.2578 51.2095 94.2772 51.4161 94.2975 51.6204C100.567 51.0787 104.681 42.2434 104.058 41.9379C99.0962 41.726 95.4836 48.3047 94.2975 51.6204C94.2772 51.4161 94.2578 51.2095 94.2395 51.0008Z" fill="#237C1D"/>
<path d="M95.1783 57.1948C94.8472 55.7545 94.5166 53.8209 94.2975 51.6204M97.781 31.4421C94.0817 36.6299 93.6916 44.762 94.2395 51.0008M94.2395 51.0008C92.6471 46.8784 88.3698 36.504 86.3574 38.0363C85.1241 38.9754 86.532 51.9871 94.2395 51.0008ZM94.2395 51.0008C94.2578 51.2095 94.2772 51.4161 94.2975 51.6204M94.2975 51.6204C95.4836 48.3047 99.0962 41.726 104.058 41.9379C104.681 42.2434 100.567 51.0787 94.2975 51.6204Z" stroke="black" stroke-linecap="round"/>
<path d="M102.026 21.5758C103.463 22.1794 102.139 25.413 101.298 26.9544C102.908 25.578 106.286 23.2847 106.914 25.1224C107.541 26.9601 104.294 28.4678 102.592 28.9919C104.471 29.3194 107.975 30.3343 106.962 31.7746C105.949 33.2148 102.784 31.8903 101.328 31.048C102.619 32.7444 104.743 36.1917 102.902 36.4098C101.061 36.6279 99.7234 33.2773 99.2845 31.5747C99.2994 33.6215 98.8164 37.5654 96.7651 36.9663C94.7138 36.3671 96.5641 32.7886 97.7457 31.0742C96.3051 32.364 93.1649 34.485 92.1281 32.6503C91.0912 30.8156 94.7501 29.6461 96.7092 29.2906C95.1741 29.3018 90.8152 28.0542 91.5697 26.2577C92.1733 24.8204 95.5775 26.1432 97.2041 26.9842C96.4328 26.4781 94.1003 22.4012 95.8857 21.6206C97.314 20.9961 98.7206 24.4145 99.2454 26.2017C99.2398 25.4342 100.23 20.8213 102.026 21.5758Z" fill="#E56610" stroke="black"/>
<circle cx="1.79103" cy="1.79103" r="1.29103" transform="matrix(-0.999973 0.00728732 0.00728732 0.999973 100.972 27.127)" fill="#FFB42E" stroke="black"/>
<path d="M197.371 48.827C195.778 44.7046 191.501 34.3301 189.489 35.8625C188.255 36.8016 189.663 49.8133 197.371 48.827C197.389 49.0357 197.409 49.2423 197.429 49.4466C203.698 48.9049 207.812 40.0696 207.19 39.7641C202.228 39.5522 198.615 46.1308 197.429 49.4466C197.409 49.2423 197.389 49.0357 197.371 48.827Z" fill="#25861F"/>
<path d="M198.31 55.021C197.979 53.5806 197.648 51.6471 197.429 49.4466M200.912 29.2683C197.213 34.456 196.823 42.5882 197.371 48.827M197.371 48.827C195.778 44.7046 191.501 34.3301 189.489 35.8625C188.255 36.8016 189.663 49.8133 197.371 48.827ZM197.371 48.827C197.389 49.0357 197.409 49.2423 197.429 49.4466M197.429 49.4466C198.615 46.1308 202.228 39.5522 207.19 39.7641C207.812 40.0696 203.698 48.9049 197.429 49.4466Z" stroke="black" stroke-linecap="round"/>
<path d="M205.157 19.4001C206.594 20.0037 205.27 23.2373 204.429 24.7786C206.039 23.4022 209.417 21.1089 210.044 22.9466C210.672 24.7843 207.425 26.292 205.723 26.8161C207.602 27.1436 211.106 28.1586 210.093 29.5988C209.08 31.0391 205.915 29.7146 204.458 28.8723C205.75 30.5686 207.873 34.0159 206.033 34.234C204.192 34.4521 202.854 31.1015 202.415 29.3989C202.43 31.4457 201.947 35.3896 199.896 34.7905C197.845 34.1913 199.695 30.6128 200.877 28.8984C199.436 30.1882 196.296 32.3092 195.259 30.4745C194.222 28.6398 197.881 27.4703 199.84 27.1148C198.305 27.126 193.946 25.8785 194.701 24.0819C195.304 22.6446 198.708 23.9674 200.335 24.8084C199.564 24.3023 197.231 20.2254 199.017 19.4448C200.445 18.8203 201.851 22.2387 202.376 24.0259C202.371 23.2584 203.36 18.6455 205.157 19.4001Z" fill="white" stroke="black"/>
<circle cx="1.79103" cy="1.79103" r="1.29103" transform="matrix(-0.999973 0.00728732 0.00728732 0.999973 204.103 24.9512)" fill="#E56610" stroke="black"/>
<path d="M164.93 50.9352C166.671 46.2269 171.357 34.3734 173.668 36.0804C175.084 37.1266 173.7 51.9278 164.93 50.9352C164.913 51.1726 164.894 51.4076 164.875 51.64C157.746 51.1284 152.927 41.1619 153.629 40.8047C159.261 40.4819 163.473 47.8937 164.875 51.64C164.894 51.4076 164.913 51.1726 164.93 50.9352Z" fill="#237C1D"/>
<path d="M163.967 57.9856C164.319 56.3442 164.662 54.1427 164.875 51.64M160.584 28.7802C164.872 34.6109 165.449 43.8405 164.93 50.9352M164.93 50.9352C166.671 46.2269 171.357 34.3734 173.668 36.0804C175.084 37.1266 173.7 51.9278 164.93 50.9352ZM164.93 50.9352C164.913 51.1726 164.894 51.4076 164.875 51.64M164.875 51.64C163.473 47.8937 159.261 40.4819 153.629 40.8047C152.927 41.1619 157.746 51.1284 164.875 51.64Z" stroke="black" stroke-linecap="round"/>
<path d="M155.6 17.6438C153.978 18.3531 155.535 22.0037 156.516 23.7403C154.665 22.2038 150.79 19.6551 150.108 21.7526C149.426 23.8501 153.138 25.5087 155.08 26.0759C152.952 26.4789 148.989 27.6897 150.163 29.3086C151.337 30.9276 154.911 29.3709 156.55 28.3902C155.111 30.3382 152.757 34.2886 154.851 34.5058C156.945 34.7231 158.409 30.8955 158.879 28.9545C158.896 31.2794 159.51 35.7507 161.83 35.0362C164.15 34.3218 161.989 30.2881 160.619 28.3605C162.276 29.8016 165.878 32.1586 167.025 30.0577C168.172 27.9567 163.997 26.689 161.767 26.3178C163.51 26.3051 168.44 24.816 167.553 22.788C166.844 21.1656 163 22.7243 161.166 23.7065C162.034 23.1189 164.616 18.45 162.575 17.5929C160.942 16.9073 159.401 20.813 158.835 22.8515C158.829 21.9797 157.628 16.7571 155.6 17.6438Z" fill="#E56610" stroke="black"/>
<circle cx="158.939" cy="25.9511" r="1.53437" transform="rotate(-0.417536 158.939 25.9511)" fill="#FFB42E" stroke="black"/>
<path d="M137.254 53.8382C136.028 50.6667 132.738 42.6852 131.19 43.8641C130.241 44.5866 131.324 54.597 137.254 53.8382C137.268 53.9988 137.283 54.1577 137.298 54.3149C142.121 53.8981 145.287 47.1008 144.808 46.8658C140.99 46.7028 138.211 51.7639 137.298 54.3149C137.283 54.1577 137.268 53.9988 137.254 53.8382Z" fill="#237C1D"/>
<path d="M137.976 58.6035C137.721 57.4954 137.467 56.0078 137.298 54.3149M139.978 38.791C137.132 42.7821 136.832 49.0385 137.254 53.8382M137.254 53.8382C136.028 50.6667 132.738 42.6852 131.19 43.8641C130.241 44.5866 131.324 54.597 137.254 53.8382ZM137.254 53.8382C137.268 53.9988 137.283 54.1577 137.298 54.3149M137.298 54.3149C138.211 51.7639 140.99 46.7028 144.808 46.8658C145.287 47.1008 142.121 53.8981 137.298 54.3149Z" stroke="black" stroke-linecap="round"/>
<path d="M143.244 31.1999C144.35 31.6643 143.331 34.152 142.684 35.3378C143.923 34.2789 146.521 32.5146 147.004 33.9284C147.487 35.3422 144.989 36.5021 143.679 36.9053C145.125 37.1573 147.821 37.9381 147.041 39.0462C146.262 40.1542 143.827 39.1352 142.706 38.4872C143.7 39.7923 145.334 42.4444 143.918 42.6122C142.502 42.78 141.472 40.2022 141.135 38.8924C141.146 40.4671 140.775 43.5012 139.196 43.0403C137.618 42.5794 139.042 39.8262 139.951 38.5073C138.843 39.4996 136.427 41.1314 135.629 39.7199C134.831 38.3084 137.646 37.4086 139.153 37.1352C137.972 37.1438 134.619 36.184 135.199 34.8018C135.664 33.696 138.283 34.7137 139.534 35.3607C138.941 34.9714 137.146 31.8349 138.52 31.2343C139.619 30.7539 140.701 33.3837 141.105 34.7587C141.1 34.1682 141.862 30.6194 143.244 31.1999Z" fill="#E56610" stroke="black"/>
<circle cx="1.37791" cy="1.37791" r="0.877905" transform="matrix(-0.999973 0.00728732 0.00728732 0.999973 142.433 35.4707)" fill="#FFB42E" stroke="black"/>
<path d="M73.4217 52.2795C75.3452 47.0756 80.5246 33.9743 83.0788 35.861C84.6442 37.0173 83.1149 53.3766 73.4217 52.2795C73.4025 52.5418 73.3819 52.8016 73.3602 53.0584C65.4808 52.493 60.1545 41.4774 60.9302 41.0825C67.1554 40.7258 71.8107 48.9178 73.3602 53.0584C73.3819 52.8016 73.4025 52.5418 73.4217 52.2795Z" fill="#237C1D"/>
<path d="M72.3565 60.072C72.7458 58.2579 73.1254 55.8246 73.3602 53.0584M68.6181 27.7923C73.3568 34.2368 73.9953 44.4379 73.4217 52.2795M73.4217 52.2795C75.3452 47.0756 80.5246 33.9743 83.0788 35.861C84.6442 37.0173 83.1149 53.3766 73.4217 52.2795ZM73.4217 52.2795C73.4025 52.5418 73.382 52.8016 73.3602 53.0584M73.3602 53.0584C71.8107 48.9178 67.1554 40.7258 60.9302 41.0825C60.1545 41.4774 65.4808 52.493 73.3602 53.0584Z" stroke="black" stroke-linecap="round"/>
<path d="M63.1093 15.4836C61.3161 16.2676 63.0373 20.3025 64.122 22.222C62.0752 20.5237 57.7929 17.7067 57.0389 20.025C56.2848 22.3433 60.3885 24.1765 62.5345 24.8033C60.1821 25.2488 55.8018 26.587 57.0997 28.3764C58.3977 30.1658 62.347 28.4452 64.1595 27.3613C62.569 29.5144 59.9667 33.8806 62.2813 34.1207C64.5958 34.3608 66.214 30.1303 66.7337 27.985C66.7524 30.5546 67.4309 35.4965 69.9949 34.7069C72.559 33.9173 70.1708 29.459 68.6563 27.3285C70.4881 28.9213 74.4689 31.5263 75.7369 29.2043C77.0049 26.8822 72.3904 25.481 69.9247 25.0707C71.852 25.0566 77.3008 23.4108 76.3208 21.1694C75.5368 19.3762 71.2877 21.099 69.2612 22.1845C70.2202 21.5351 73.0736 16.3747 70.8181 15.4274C69.0137 14.6696 67.3106 18.9865 66.6845 21.2396C66.6775 20.276 65.3507 14.5036 63.1093 15.4836Z" fill="#E56610" stroke="black"/>
<circle cx="66.799" cy="24.6657" r="1.74851" transform="rotate(-0.417536 66.799 24.6657)" fill="#FFB42E" stroke="black"/>
<path d="M123.473 50.8831C125.601 45.1246 131.332 30.627 134.159 32.7148C135.891 33.9944 134.199 52.0971 123.473 50.8831C123.451 51.1734 123.429 51.4608 123.404 51.745C114.685 51.1194 108.791 38.9298 109.65 38.4928C116.538 38.0981 121.69 47.1631 123.404 51.745C123.429 51.4608 123.451 51.1734 123.473 50.8831Z" fill="#237C1D"/>
<path d="M122.294 59.5062C122.725 57.4987 123.145 54.8061 123.404 51.745M118.157 23.7862C123.401 30.9175 124.107 42.2058 123.473 50.8831M123.473 50.8831C125.601 45.1246 131.332 30.627 134.159 32.7148C135.891 33.9944 134.199 52.0971 123.473 50.8831ZM123.473 50.8831C123.451 51.1734 123.429 51.4608 123.404 51.745M123.404 51.745C121.69 47.1632 116.538 38.0981 109.65 38.4928C108.791 38.9298 114.685 51.1194 123.404 51.745Z" stroke="black" stroke-linecap="round"/>
<path d="M112.061 10.1679C110.077 11.0355 111.982 15.5004 113.182 17.6244C110.917 15.7451 106.178 12.6279 105.344 15.1933C104.51 17.7587 109.05 19.7873 111.425 20.4809C108.822 20.9738 103.975 22.4547 105.411 24.4348C106.848 26.4149 111.218 24.5109 113.223 23.3115C111.463 25.694 108.584 30.5256 111.145 30.7913C113.706 31.057 115.497 26.3755 116.072 24.0016C116.093 26.8451 116.843 32.3138 119.681 31.44C122.518 30.5662 119.875 25.6327 118.199 23.2752C120.227 25.0377 124.632 27.9204 126.035 25.3509C127.438 22.7813 122.332 21.2308 119.603 20.7768C121.736 20.7612 127.765 18.94 126.681 16.4597C125.813 14.4754 121.111 16.3818 118.869 17.583C119.93 16.8643 123.088 11.154 120.592 10.1058C118.595 9.26721 116.71 14.0441 116.018 16.5374C116.01 15.471 114.542 9.08348 112.061 10.1679Z" fill="#E56610" stroke="black"/>
<circle cx="116.145" cy="20.3254" r="1.98815" transform="rotate(-0.417536 116.145 20.3254)" fill="#FFB42E" stroke="black"/>
<path d="M181.691 44.7718C183.819 39.0133 189.551 24.5157 192.377 26.6035C194.109 27.883 192.417 45.9858 181.691 44.7718C181.67 45.0621 181.647 45.3495 181.623 45.6337C172.904 45.0081 167.01 32.8185 167.868 32.3815C174.757 31.9867 179.908 41.0518 181.623 45.6337C181.647 45.3495 181.67 45.0621 181.691 44.7718Z" fill="#25861F"/>
<path d="M180.512 53.3948C180.943 51.3873 181.363 48.6947 181.623 45.6337M176.375 17.6749C181.619 24.8062 182.326 36.0945 181.691 44.7718M181.691 44.7718C183.819 39.0133 189.551 24.5157 192.377 26.6035C194.109 27.883 192.417 45.9858 181.691 44.7718ZM181.691 44.7718C181.67 45.0621 181.647 45.3495 181.623 45.6337M181.623 45.6337C179.908 41.0518 174.757 31.9867 167.868 32.3815C167.01 32.8185 172.904 45.0081 181.623 45.6337Z" stroke="black" stroke-linecap="round"/>
<path d="M170.28 4.0566C168.295 4.92417 170.2 9.38908 171.4 11.5131C169.135 9.63381 164.397 6.5166 163.562 9.08199C162.728 11.6474 167.269 13.676 169.644 14.3696C167.04 14.8625 162.193 16.3433 163.63 18.3234C165.066 20.3036 169.436 18.3996 171.442 17.2001C169.682 19.5827 166.802 24.4142 169.363 24.6799C171.925 24.9456 173.715 20.2642 174.29 17.8903C174.311 20.7338 175.062 26.2024 177.899 25.3286C180.736 24.4549 178.094 19.5214 176.418 17.1639C178.445 18.9264 182.85 21.8091 184.253 19.2395C185.656 16.67 180.55 15.1195 177.821 14.6654C179.954 14.6499 185.984 12.8286 184.899 10.3483C184.031 8.36408 179.33 10.2704 177.087 11.4716C178.148 10.753 181.306 5.04263 178.81 3.99444C176.813 3.15588 174.929 7.93278 174.236 10.426C174.228 9.35972 172.76 2.97215 170.28 4.0566Z" fill="white" stroke="black"/>
<circle cx="174.364" cy="14.2141" r="1.98815" transform="rotate(-0.417536 174.364 14.2141)" fill="#E56610" stroke="black"/>
<path d="M109.401 51.5933C107.924 47.7702 103.958 38.1488 102.091 39.5699C100.948 40.4409 102.253 52.508 109.401 51.5933C109.418 51.7869 109.436 51.9785 109.455 52.168C115.269 51.6655 119.085 43.4716 118.507 43.1883C113.905 42.9918 110.555 49.0929 109.455 52.168C109.436 51.9785 109.418 51.7869 109.401 51.5933Z" fill="#25861F"/>
<path d="M110.272 57.3377C109.965 56.0019 109.658 54.2087 109.455 52.168M112.686 33.4544C109.255 38.2656 108.893 45.8074 109.401 51.5933M109.401 51.5933C107.924 47.7702 103.958 38.1488 102.091 39.5699C100.948 40.4409 102.253 52.508 109.401 51.5933ZM109.401 51.5933C109.418 51.7869 109.436 51.9785 109.455 52.168M109.455 52.168C110.555 49.0929 113.905 42.9918 118.507 43.1883C119.085 43.4716 115.269 51.6655 109.455 52.168Z" stroke="black" stroke-linecap="round"/>
<path d="M116.622 24.3033C117.955 24.8631 116.727 27.8619 115.947 29.2914C117.44 28.0149 120.573 25.8881 121.155 27.5923C121.737 29.2966 118.726 30.6949 117.147 31.181C118.89 31.4847 122.139 32.426 121.2 33.7617C120.261 35.0973 117.325 33.869 115.974 33.0879C117.172 34.6611 119.142 37.8581 117.435 38.0604C115.727 38.2627 114.487 35.1552 114.08 33.5762C114.094 35.4745 113.646 39.1321 111.743 38.5764C109.841 38.0208 111.557 34.702 112.653 33.1121C111.317 34.3083 108.404 36.2753 107.443 34.5738C106.481 32.8723 109.875 31.7876 111.691 31.458C110.268 31.4684 106.225 30.3114 106.925 28.6452C107.485 27.3123 110.642 28.539 112.15 29.319C111.435 28.8496 109.272 25.0687 110.928 24.3448C112.252 23.7656 113.557 26.9358 114.043 28.5933C114.038 27.8815 114.956 23.6035 116.622 24.3033Z" fill="white" stroke="black"/>
<circle cx="1.66101" cy="1.66101" r="1.16101" transform="matrix(-0.999973 0.00728732 0.00728732 0.999973 115.644 29.4512)" fill="#E56610" stroke="black"/>
<path d="M88.1677 47.2301C89.908 42.5219 94.5941 30.6683 96.9051 32.3753C98.3214 33.4215 96.9378 48.2227 88.1677 47.2301C88.1503 47.4675 88.1317 47.7025 88.112 47.9349C80.9831 47.4234 76.164 37.4569 76.8659 37.0996C82.4982 36.7768 86.7101 44.1886 88.112 47.9349C88.1317 47.7025 88.1503 47.4675 88.1677 47.2301Z" fill="#25861F"/>
<path d="M87.204 54.2806C87.5562 52.6392 87.8996 50.4376 88.112 47.9349M83.8216 25.0751C88.109 30.9058 88.6867 40.1354 88.1677 47.2301M88.1677 47.2301C89.908 42.5219 94.5941 30.6683 96.9051 32.3753C98.3214 33.4215 96.9378 48.2227 88.1677 47.2301ZM88.1677 47.2301C88.1503 47.4675 88.1317 47.7025 88.112 47.9349M88.112 47.9349C86.7101 44.1886 82.4982 36.7768 76.8659 37.0996C76.164 37.4569 80.9831 47.4234 88.112 47.9349Z" stroke="black" stroke-linecap="round"/>
<path d="M78.837 13.9406C77.2146 14.65 78.7719 18.3006 79.7533 20.0372C77.9014 18.5007 74.0269 15.952 73.3447 18.0495C72.6625 20.147 76.3753 21.8056 78.317 22.3727C76.1886 22.7758 72.2255 23.9865 73.3998 25.6055C74.5741 27.2245 78.1474 25.6678 79.7872 24.6871C78.3482 26.6351 75.9937 30.5855 78.0879 30.8027C80.182 31.02 81.646 27.1923 82.1162 25.2514C82.1332 27.5763 82.747 32.0475 85.0669 31.3331C87.3867 30.6187 85.226 26.585 83.8557 24.6574C85.5131 26.0985 89.1148 28.4554 90.262 26.3545C91.4092 24.2536 87.2342 22.9859 85.0033 22.6146C86.747 22.6019 91.6769 21.1128 90.7903 19.0849C90.0809 17.4625 86.2366 19.0212 84.4031 20.0033C85.2707 19.4157 87.8523 14.7468 85.8117 13.8898C84.1791 13.2042 82.6382 17.1099 82.0718 19.1484C82.0654 18.2766 80.8649 13.054 78.837 13.9406Z" fill="white" stroke="black"/>
<circle cx="82.1756" cy="22.248" r="1.53437" transform="rotate(-0.417536 82.1756 22.248)" fill="#E56610" stroke="black"/>
<path d="M131.733 51.7481C132.912 48.5592 136.086 40.5306 137.651 41.6868C138.611 42.3954 137.674 52.4204 131.733 51.7481C131.722 51.9089 131.709 52.0681 131.696 52.2255C126.867 51.879 123.603 45.1286 124.079 44.8866C127.893 44.6679 130.746 49.6881 131.696 52.2255C131.709 52.0681 131.722 51.9089 131.733 51.7481Z" fill="#25861F"/>
<path d="M131.081 56.5235C131.319 55.4118 131.552 53.9206 131.696 52.2255M128.79 36.7422C131.694 40.6915 132.085 46.9428 131.733 51.7481M131.733 51.7481C132.912 48.5592 136.086 40.5306 137.651 41.6868C138.611 42.3954 137.674 52.4204 131.733 51.7481ZM131.733 51.7481C131.722 51.9089 131.709 52.0681 131.696 52.2255M131.696 52.2255C130.746 49.6881 127.893 44.6679 124.079 44.8866C123.603 45.1286 126.867 51.879 131.696 52.2255Z" stroke="black" stroke-linecap="round"/>
<path d="M125.414 29.1999C124.315 29.6804 125.37 32.153 126.034 33.3292C124.78 32.2885 122.156 30.5623 121.694 31.9829C121.232 33.4036 123.746 34.527 125.062 34.9111C123.62 35.1841 120.936 36.0042 121.731 37.1007C122.526 38.1973 124.947 37.1429 126.057 36.4787C125.083 37.7981 123.488 40.4737 124.906 40.6209C126.325 40.768 127.316 38.1755 127.635 36.8609C127.646 38.4356 128.062 41.464 129.633 40.9801C131.205 40.4962 129.741 37.7641 128.813 36.4586C129.936 37.4346 132.375 39.031 133.152 37.6081C133.929 36.1851 131.101 35.3264 129.59 35.075C130.771 35.0664 134.11 34.0578 133.51 32.6842C133.029 31.5854 130.426 32.6411 129.184 33.3063C129.771 32.9083 131.52 29.746 130.138 29.1655C129.032 28.7011 127.988 31.3465 127.605 32.7273C127.6 32.1367 126.787 28.5994 125.414 29.1999Z" fill="white" stroke="black"/>
<circle cx="127.675" cy="34.8268" r="0.877905" transform="rotate(-0.417536 127.675 34.8268)" fill="#E56610" stroke="black"/>
<path d="M171.357 53.5901C170.132 50.4187 166.841 42.4372 165.293 43.6161C164.344 44.3386 165.427 54.3489 171.357 53.5901C171.371 53.7507 171.386 53.9097 171.402 54.0669C176.225 53.6501 179.39 46.8528 178.911 46.6177C175.094 46.4547 172.314 51.5159 171.402 54.0669C171.386 53.9097 171.371 53.7507 171.357 53.5901Z" fill="#237C1D"/>
<path d="M172.079 58.3555C171.825 57.2473 171.57 55.7597 171.402 54.0669M174.082 38.5429C171.236 42.534 170.936 48.7904 171.357 53.5901M171.357 53.5901C170.132 50.4187 166.841 42.4372 165.293 43.6161C164.344 44.3386 165.427 54.3489 171.357 53.5901ZM171.357 53.5901C171.371 53.7507 171.386 53.9097 171.402 54.0669M171.402 54.0669C172.314 51.5159 175.094 46.4547 178.911 46.6177C179.39 46.8528 176.225 53.6501 171.402 54.0669Z" stroke="black" stroke-linecap="round"/>
<path d="M177.348 30.9538C178.454 31.4182 177.435 33.9059 176.788 35.0917C178.027 34.0328 180.625 32.2685 181.108 33.6823C181.591 35.0961 179.093 36.256 177.783 36.6592C179.229 36.9112 181.925 37.692 181.145 38.8001C180.366 39.9081 177.931 38.8891 176.81 38.2411C177.804 39.5462 179.438 42.1983 178.022 42.3661C176.606 42.5339 175.576 39.9561 175.239 38.6463C175.25 40.221 174.879 43.2551 173.3 42.7942C171.722 42.3333 173.146 39.5801 174.055 38.2612C172.947 39.2535 170.531 40.8853 169.733 39.4738C168.935 38.0623 171.75 37.1625 173.257 36.8891C172.076 36.8977 168.723 35.9379 169.303 34.5557C169.768 33.4499 172.387 34.4676 173.638 35.1146C173.045 34.7253 171.25 31.5888 172.624 30.9882C173.723 30.5078 174.805 33.1377 175.209 34.5127C175.204 33.9221 175.966 30.3733 177.348 30.9538Z" fill="#E56610" stroke="black"/>
<circle cx="1.37791" cy="1.37791" r="0.877905" transform="matrix(-0.999973 0.00728732 0.00728732 0.999973 176.536 35.2246)" fill="#FFB42E" stroke="black"/>
<path d="M188.979 51.4702C187.503 47.6471 183.536 38.0258 181.67 39.4469C180.526 40.3178 181.831 52.3849 188.979 51.4702C188.996 51.6638 189.014 51.8554 189.033 52.0449C194.847 51.5425 198.663 43.3486 198.086 43.0653C193.484 42.8688 190.133 48.9698 189.033 52.0449C189.014 51.8554 188.996 51.6638 188.979 51.4702Z" fill="#237C1D"/>
<path d="M189.85 57.2146C189.543 55.8788 189.236 54.0856 189.033 52.0449M192.264 33.3314C188.833 38.1425 188.471 45.6843 188.979 51.4702M188.979 51.4702C187.503 47.6471 183.536 38.0258 181.67 39.4469C180.526 40.3178 181.831 52.3849 188.979 51.4702ZM188.979 51.4702C188.996 51.6638 189.014 51.8554 189.033 52.0449M189.033 52.0449C190.133 48.9698 193.484 42.8688 198.086 43.0653C198.663 43.3486 194.847 51.5425 189.033 52.0449Z" stroke="black" stroke-linecap="round"/>
<path d="M196.2 24.1802C197.533 24.74 196.305 27.7389 195.525 29.1683C197.019 27.8919 200.151 25.765 200.733 27.4693C201.315 29.1736 198.304 30.5718 196.725 31.0579C198.468 31.3616 201.718 32.3029 200.778 33.6386C199.839 34.9743 196.903 33.7459 195.553 32.9648C196.751 34.538 198.72 37.7351 197.013 37.9373C195.306 38.1396 194.065 35.0322 193.658 33.4532C193.672 35.3515 193.224 39.009 191.321 38.4534C189.419 37.8978 191.135 34.579 192.231 32.989C190.895 34.1852 187.982 36.1523 187.021 34.4507C186.059 32.7492 189.453 31.6646 191.269 31.335C189.846 31.3453 185.803 30.1883 186.503 28.5222C187.063 27.1892 190.22 28.416 191.728 29.196C191.013 28.7266 188.85 24.9457 190.506 24.2217C191.83 23.6426 193.135 26.8128 193.622 28.4703C193.616 27.7585 194.534 23.4805 196.2 24.1802Z" fill="#E56610" stroke="black"/>
<circle cx="1.66101" cy="1.66101" r="1.16101" transform="matrix(-0.999973 0.00728732 0.00728732 0.999973 195.222 29.3281)" fill="#FFB42E" stroke="black"/>
<path d="M197.086 71.4519C200.014 65.1846 207.804 49.4409 210.783 52.0493C212.608 53.6479 209.017 73.8172 197.086 71.4519C197.035 71.776 196.982 72.0966 196.929 72.4134C187.197 70.8964 181.717 56.6582 182.722 56.2477C190.494 56.448 195.431 67.1083 196.929 72.4134C196.982 72.0966 197.035 71.776 197.086 71.4519Z" fill="#237C1D"/>
<path d="M194.957 81.0246C195.628 78.8106 196.351 75.8264 196.929 72.4134M193.648 40.5286C198.87 49.0261 198.609 61.7676 197.086 71.4519M197.086 71.4519C200.014 65.1846 207.804 49.4409 210.783 52.0493C212.608 53.6479 209.017 73.8172 197.086 71.4519ZM197.086 71.4519C197.035 71.776 196.982 72.0966 196.929 72.4134M196.929 72.4134C195.432 67.1083 190.494 56.448 182.722 56.2477C181.717 56.6582 187.197 70.8964 196.929 72.4134Z" stroke="black" stroke-linecap="round"/>
<path d="M188.076 24.6652C185.767 25.454 187.488 30.6455 188.638 33.1427C186.27 30.8209 181.24 26.8779 180.064 29.6806C178.887 32.4833 183.797 35.1854 186.398 36.1861C183.429 36.4964 177.848 37.7064 179.276 40.064C180.704 42.4216 185.789 40.692 188.153 39.5325C185.954 42.0434 182.269 47.1997 185.121 47.7373C187.972 48.2749 190.42 43.1855 191.287 40.5736C191.045 43.7685 191.377 49.9793 194.645 49.2632C197.912 48.5471 195.406 42.7604 193.744 39.9566C195.856 42.1251 200.533 45.7736 202.348 43.0194C204.164 40.2651 198.575 38.0471 195.554 37.2823C197.95 37.4641 204.89 35.9823 203.904 33.0959C203.116 30.7867 197.658 32.4881 195.027 33.6274C196.286 32.9196 200.365 26.8025 197.661 25.3923C195.497 24.2642 192.934 29.452 191.923 32.187C192.014 30.9889 190.962 23.6792 188.076 24.6652Z" fill="#E56610" stroke="black"/>
<circle cx="191.712" cy="36.4549" r="2.30357" transform="rotate(4.33836 191.712 36.4549)" fill="#FFB42E" stroke="black"/>
<path d="M115.335 59.9207C118.263 53.6534 126.053 37.9096 129.032 40.518C130.858 42.1167 127.266 62.2859 115.335 59.9207C115.284 60.2447 115.232 60.5653 115.178 60.8822C105.446 59.3652 99.9666 45.1269 100.971 44.7165C108.743 44.9167 113.681 55.5771 115.178 60.8822C115.232 60.5653 115.284 60.2447 115.335 59.9207Z" fill="#25861F"/>
<path d="M113.206 69.4933C113.877 67.2794 114.601 64.2951 115.178 60.8822M111.898 28.9973C117.12 37.4948 116.859 50.2364 115.335 59.9207M115.335 59.9207C118.263 53.6534 126.053 37.9096 129.032 40.518C130.858 42.1167 127.266 62.2859 115.335 59.9207ZM115.335 59.9207C115.284 60.2447 115.232 60.5653 115.178 60.8822M115.178 60.8822C113.681 55.5771 108.743 44.9167 100.971 44.7165C99.9666 45.1269 105.446 59.3652 115.178 60.8822Z" stroke="black" stroke-linecap="round"/>
<path d="M106.256 12.8C103.947 13.5888 105.669 18.7803 106.818 21.2775C104.45 18.9556 99.4204 15.0127 98.2439 17.8154C97.0673 20.6181 101.977 23.3202 104.579 24.3209C101.61 24.6312 96.0283 25.8412 97.4561 28.1988C98.8839 30.5564 103.969 28.8268 106.333 27.6673C104.134 30.1782 100.45 35.3344 103.301 35.8721C106.152 36.4097 108.6 31.3203 109.467 28.7084C109.225 31.9033 109.557 38.114 112.825 37.3979C116.092 36.6818 113.586 30.8952 111.924 28.0914C114.036 30.2599 118.713 33.9083 120.528 31.1541C122.344 28.3999 116.755 26.1818 113.734 25.4171C116.13 25.5988 123.071 24.1171 122.085 21.2307C121.296 18.9215 115.838 20.6229 113.208 21.7622C114.466 21.0544 118.545 14.9372 115.841 13.5271C113.677 12.3989 111.114 17.5868 110.104 20.3217C110.195 19.1237 109.143 11.814 106.256 12.8Z" fill="white" stroke="black"/>
<circle cx="109.893" cy="24.5896" r="2.30357" transform="rotate(4.33836 109.893 24.5896)" fill="#E56610" stroke="black"/>
<path d="M47.0967 61.3286C45.5442 56.0417 41.302 42.7086 38.643 44.4046C37.0134 45.444 37.4177 61.7573 47.0967 61.3286C47.0979 61.5898 47.1007 61.8486 47.1048 62.1045C54.9504 62.0794 60.9761 51.5264 60.2343 51.0824C54.0903 50.3062 48.9213 58.1071 47.1048 62.1045C47.1007 61.8486 47.0979 61.5898 47.0967 61.3286Z" fill="#237C1D"/>
<path d="M47.6229 69.1221C47.3604 67.2981 47.1496 64.8614 47.1048 62.1045M53.5193 37.3918C48.3863 43.4555 47.0609 53.5199 47.0967 61.3286M47.0967 61.3286C45.5442 56.0417 41.302 42.7086 38.643 44.4046C37.0134 45.444 37.4177 61.7573 47.0967 61.3286ZM47.0967 61.3286C47.0979 61.5898 47.1007 61.8486 47.1048 62.1045M47.1048 62.1045C48.9213 58.1071 54.0903 50.3062 60.2343 51.0824C60.9761 51.5264 54.9504 62.0794 47.1048 62.1045Z" stroke="black" stroke-linecap="round"/>
<path d="M59.8137 25.5724C61.5372 26.471 59.5577 30.352 58.3526 32.1802C60.4961 30.6365 64.9304 28.1361 65.5201 30.4844C66.1098 32.8327 61.9192 34.3705 59.7503 34.8458C62.0509 35.4469 66.3002 37.0704 64.8926 38.7552C63.4851 40.4401 59.6887 38.4671 57.9665 37.27C59.3962 39.5114 61.6781 44.0143 59.3684 44.095C57.0588 44.1758 55.7427 39.8741 55.3734 37.7131C55.1804 40.258 54.1725 45.1086 51.6856 44.1521C49.1986 43.1955 51.8677 38.9402 53.5131 36.9321C51.5898 38.3859 47.4686 40.6968 46.3699 38.3098C45.2712 35.9229 49.9386 34.848 52.4096 34.6088C50.5009 34.464 45.2137 32.4632 46.337 30.3089C47.2356 28.5854 51.3287 30.5809 53.263 31.7941C52.3569 31.0855 49.8801 25.7786 52.1792 24.9932C54.0185 24.3649 55.413 28.7578 55.8802 31.0329C55.9526 30.0785 57.6593 24.4491 59.8137 25.5724Z" fill="#E56610" stroke="black"/>
<circle cx="2.23315" cy="2.23315" r="1.73315" transform="matrix(-0.997135 -0.0756463 -0.0756463 0.997135 57.9292 32.3613)" fill="#FFB42E" stroke="black"/>
<path d="M175.468 69.2895C173.916 64.0026 169.674 50.6695 167.015 52.3655C165.385 53.4049 165.789 69.7183 175.468 69.2895C175.47 69.5508 175.472 69.8095 175.476 70.0655C183.322 70.0404 189.348 59.4873 188.606 59.0434C182.462 58.2671 177.293 66.068 175.476 70.0655C175.472 69.8095 175.47 69.5508 175.468 69.2895Z" fill="#25861F"/>
<path d="M175.995 77.0831C175.732 75.2591 175.521 72.8223 175.476 70.0655M181.891 45.3528C176.758 51.4164 175.432 61.4808 175.468 69.2895M175.468 69.2895C173.916 64.0026 169.674 50.6695 167.015 52.3655C165.385 53.4049 165.789 69.7183 175.468 69.2895ZM175.468 69.2895C175.47 69.5508 175.472 69.8095 175.476 70.0655M175.476 70.0655C177.293 66.068 182.462 58.2671 188.606 59.0434C189.348 59.4873 183.322 70.0404 175.476 70.0655Z" stroke="black" stroke-linecap="round"/>
<path d="M188.185 33.5333C189.908 34.4319 187.929 38.313 186.724 40.1412C188.867 38.5975 193.302 36.0971 193.891 38.4454C194.481 40.7937 190.29 42.3314 188.121 42.8067C190.422 43.4078 194.671 45.0313 193.264 46.7162C191.856 48.401 188.06 46.428 186.338 45.2309C187.767 47.4723 190.049 51.9752 187.74 52.056C185.43 52.1367 184.114 47.835 183.745 45.6741C183.551 48.2189 182.544 53.0695 180.057 52.113C177.57 51.1565 180.239 46.9012 181.884 44.8931C179.961 46.3468 175.84 48.6577 174.741 46.2708C173.642 43.8839 178.31 42.8089 180.781 42.5698C178.872 42.425 173.585 40.4242 174.708 38.2698C175.607 36.5463 179.7 38.5419 181.634 39.7551C180.728 39.0464 178.251 33.7395 180.55 32.9541C182.39 32.3258 183.784 36.7188 184.251 38.9938C184.324 38.0395 186.03 32.4101 188.185 33.5333Z" fill="white" stroke="black"/>
<circle cx="2.23315" cy="2.23315" r="1.73315" transform="matrix(-0.997135 -0.0756463 -0.0756463 0.997135 186.3 40.3223)" fill="#E56610" stroke="black"/>
<path d="M134.941 68.5534C137.591 62.883 144.639 48.6386 147.334 50.9986C148.985 52.445 145.736 70.6934 134.941 68.5534C134.895 68.8466 134.848 69.1366 134.799 69.4233C125.994 68.0508 121.036 55.1686 121.945 54.7972C128.977 54.9784 133.445 64.6235 134.799 69.4233C134.848 69.1366 134.895 68.8466 134.941 68.5534Z" fill="#237C1D"/>
<path d="M133.015 77.2144C133.622 75.2112 134.277 72.5112 134.799 69.4233M131.831 40.5751C136.556 48.2634 136.32 59.7914 134.941 68.5534M134.941 68.5534C137.591 62.883 144.639 48.6386 147.334 50.9986C148.985 52.445 145.736 70.6934 134.941 68.5534ZM134.941 68.5534C134.895 68.8466 134.848 69.1366 134.799 69.4233M134.799 69.4233C133.445 64.6235 128.977 54.9784 121.945 54.7972C121.036 55.1686 125.994 68.0508 134.799 69.4233Z" stroke="black" stroke-linecap="round"/>
<path d="M126.789 26.2244C124.7 26.9381 126.258 31.6352 127.298 33.8945C125.155 31.7938 120.605 28.2264 119.54 30.7622C118.476 33.2979 122.917 35.7427 125.271 36.6481C122.585 36.9288 117.536 38.0236 118.827 40.1567C120.119 42.2898 124.72 40.7249 126.859 39.6758C124.87 41.9476 121.536 46.6128 124.115 47.0992C126.695 47.5856 128.91 42.9809 129.695 40.6177C129.475 43.5083 129.776 49.1276 132.732 48.4797C135.689 47.8318 133.421 42.5963 131.918 40.0595C133.828 42.0215 138.06 45.3225 139.702 42.8306C141.345 40.3386 136.288 38.3318 133.555 37.6399C135.723 37.8044 142.002 36.4637 141.11 33.8522C140.397 31.763 135.459 33.3023 133.079 34.3331C134.218 33.6927 137.908 28.1582 135.461 26.8823C133.503 25.8616 131.185 30.5554 130.27 33.0298C130.353 31.9459 129.401 25.3323 126.789 26.2244Z" fill="#E56610" stroke="black"/>
<circle cx="130.08" cy="36.8891" r="2.03656" transform="rotate(4.33836 130.08 36.8891)" fill="#FFB42E" stroke="black"/>
<path d="M100.251 69.3029C99.0564 65.2355 95.7927 54.9778 93.7471 56.2826C92.4934 57.0823 92.8044 69.6327 100.251 69.3029C100.252 69.5039 100.254 69.7029 100.257 69.8998C106.293 69.8805 110.929 61.7617 110.358 61.4201C105.631 60.8229 101.655 66.8244 100.257 69.8998C100.254 69.7029 100.252 69.5039 100.251 69.3029Z" fill="#237C1D"/>
<path d="M100.656 75.2987C100.454 73.8955 100.291 72.0208 100.257 69.8998M105.192 50.8874C101.243 55.5524 100.223 63.2953 100.251 69.3029M100.251 69.3029C99.0564 65.2355 95.7927 54.9778 93.7471 56.2826C92.4934 57.0823 92.8044 69.6327 100.251 69.3029ZM100.251 69.3029C100.252 69.5039 100.254 69.7029 100.257 69.8998M100.257 69.8998C101.655 66.8244 105.631 60.8229 110.358 61.4201C110.929 61.7617 106.293 69.8805 100.257 69.8998Z" stroke="black" stroke-linecap="round"/>
<path d="M110.034 41.7942C111.36 42.4855 109.838 45.4714 108.91 46.8779C110.559 45.6903 113.971 43.7666 114.425 45.5732C114.878 47.3799 111.654 48.5629 109.986 48.9286C111.756 49.3911 115.025 50.64 113.942 51.9363C112.859 53.2325 109.938 51.7146 108.613 50.7936C109.713 52.518 111.469 55.9823 109.692 56.0444C107.915 56.1065 106.903 52.797 106.618 51.1346C106.47 53.0924 105.695 56.8242 103.781 56.0883C101.868 55.3524 103.921 52.0786 105.187 50.5337C103.708 51.6521 100.537 53.43 99.6917 51.5936C98.8464 49.7573 102.437 48.9303 104.338 48.7463C102.87 48.6349 98.8022 47.0956 99.6663 45.4382C100.358 44.1122 103.507 45.6475 104.995 46.5808C104.298 46.0357 102.392 41.9529 104.161 41.3486C105.576 40.8652 106.649 44.2449 107.008 45.9952C107.064 45.261 108.377 40.9301 110.034 41.7942Z" fill="#E56610" stroke="black"/>
<circle cx="1.71805" cy="1.71805" r="1.21805" transform="matrix(-0.997135 -0.0756463 -0.0756463 0.997135 108.585 47.0176)" fill="#FFB42E" stroke="black"/>
<path d="M21.0965 60.7664C24.0246 54.4991 31.8147 38.7553 34.7934 41.3637C36.6189 42.9624 33.0275 63.1317 21.0965 60.7664C21.0455 61.0904 20.9932 61.411 20.9395 61.7279C11.2074 60.2109 5.72783 45.9726 6.73252 45.5622C14.5047 45.7624 19.4422 56.4228 20.9395 61.7279C20.9932 61.411 21.0455 61.0904 21.0965 60.7664Z" fill="#237C1D"/>
<path d="M18.9674 70.339C19.6387 68.1251 20.3619 65.1408 20.9395 61.7279M17.6592 29.843C22.8811 38.3405 22.6199 51.0821 21.0965 60.7664M21.0965 60.7664C24.0246 54.4991 31.8147 38.7553 34.7934 41.3637C36.619 42.9624 33.0275 63.1317 21.0965 60.7664ZM21.0965 60.7664C21.0455 61.0904 20.9932 61.411 20.9395 61.7279M20.9395 61.7279C19.4422 56.4228 14.5047 45.7624 6.73252 45.5622C5.72783 45.9726 11.2074 60.2109 20.9395 61.7279Z" stroke="black" stroke-linecap="round"/>
<path d="M12.0867 13.9816C9.77758 14.7704 11.4991 19.9619 12.6486 22.4591C10.2808 20.1373 5.251 16.1943 4.07442 18.997C2.89784 21.7997 7.80731 24.5018 10.4091 25.5025C7.44007 25.8128 1.85891 27.0228 3.2867 29.3804C4.71448 31.7381 9.79969 30.0084 12.1638 28.8489C9.96498 31.3598 6.28009 36.5161 9.13126 37.0537C11.9824 37.5913 14.4304 32.5019 15.298 29.89C15.0556 33.0849 15.3877 39.2957 18.6554 38.5796C21.923 37.8635 19.4165 32.0769 17.7547 29.2731C19.8663 31.4415 24.5433 35.09 26.3589 32.3358C28.1745 29.5815 22.5857 27.3635 19.5643 26.5987C21.9604 26.7805 28.9011 25.2987 27.9151 22.4123C27.1263 20.1031 21.6685 21.8045 19.0382 22.9438C20.2969 22.236 24.3759 16.1189 21.6713 14.7087C19.5076 13.5806 16.945 18.7684 15.9342 21.5034C16.0251 20.3053 14.9732 12.9956 12.0867 13.9816Z" fill="#E56610" stroke="black"/>
<circle cx="15.7231" cy="25.7713" r="2.30357" transform="rotate(4.33836 15.7231 25.7713)" fill="#FFB42E" stroke="black"/>
<path d="M83.4332 64.2036C86.6733 57.2683 95.2936 39.8467 98.5898 42.7331C100.61 44.5021 96.6358 66.8209 83.4332 64.2036C83.3768 64.5621 83.3188 64.9169 83.2594 65.2676C72.4901 63.5889 66.4266 47.8332 67.5383 47.379C76.1388 47.6006 81.6026 59.397 83.2594 65.2676C83.3188 64.9169 83.3768 64.5621 83.4332 64.2036Z" fill="#237C1D"/>
<path d="M81.0771 74.7965C81.82 72.3465 82.6202 69.0442 83.2594 65.2676M79.6295 29.9845C85.4079 39.3877 85.1189 53.4872 83.4332 64.2036M83.4332 64.2036C86.6733 57.2684 95.2936 39.8467 98.5898 42.7331C100.61 44.5021 96.6358 66.8209 83.4332 64.2036ZM83.4332 64.2036C83.3768 64.5621 83.3188 64.9169 83.2594 65.2676M83.2594 65.2676C81.6026 59.397 76.1388 47.6006 67.5383 47.379C66.4266 47.8332 72.4901 63.5889 83.2594 65.2676Z" stroke="black" stroke-linecap="round"/>
<path d="M73.463 12.4307C70.9078 13.3035 72.8128 19.0484 74.0848 21.8117C71.4646 19.2424 65.8988 14.8792 64.5968 17.9806C63.2948 21.082 68.7275 24.0721 71.6066 25.1794C68.3212 25.5228 62.1452 26.8618 63.7251 29.4706C65.3051 32.0795 70.9323 30.1656 73.5483 28.8825C71.1152 31.661 67.0375 37.3668 70.1926 37.9617C73.3476 38.5566 76.0565 32.9248 77.0165 30.0345C76.7483 33.5699 77.1159 40.4426 80.7317 39.6502C84.3476 38.8578 81.5739 32.4544 79.7351 29.3518C82.0717 31.7514 87.2472 35.7887 89.2563 32.7409C91.2654 29.6932 85.0809 27.2387 81.7375 26.3924C84.3891 26.5936 92.0694 24.9539 90.9783 21.7599C90.1054 19.2046 84.066 21.0873 81.1554 22.3481C82.5482 21.5648 87.062 14.7957 84.0691 13.2353C81.6747 11.9869 78.8391 17.7277 77.7206 20.7541C77.8212 19.4283 76.6571 11.3396 73.463 12.4307Z" fill="#E56610" stroke="black"/>
<circle cx="77.4872" cy="25.4766" r="2.60236" transform="rotate(4.33836 77.4872 25.4766)" fill="#FFB42E" stroke="black"/>
<path d="M156.404 62.6333C159.644 55.698 168.265 38.2763 171.561 41.1628C173.581 42.9318 169.607 65.2506 156.404 62.6333C156.348 62.9918 156.29 63.3466 156.231 63.6973C145.461 62.0185 139.398 46.2629 140.51 45.8086C149.11 46.0302 154.574 57.8267 156.231 63.6973C156.29 63.3466 156.348 62.9918 156.404 62.6333Z" fill="#25861F"/>
<path d="M154.048 73.2261C154.791 70.7762 155.591 67.4739 156.231 63.6973M152.601 28.4142C158.379 37.8174 158.09 51.9169 156.404 62.6333M156.404 62.6333C159.644 55.698 168.265 38.2763 171.561 41.1628C173.581 42.9318 169.607 65.2506 156.404 62.6333ZM156.404 62.6333C156.348 62.9918 156.29 63.3466 156.231 63.6973M156.231 63.6973C154.574 57.8267 149.11 46.0302 140.51 45.8086C139.398 46.2629 145.461 62.0185 156.231 63.6973Z" stroke="black" stroke-linecap="round"/>
<path d="M146.434 10.8623C143.878 11.7352 145.784 17.48 147.055 20.2433C144.435 17.674 138.869 13.3108 137.568 16.4122C136.266 19.5136 141.698 22.5037 144.577 23.6111C141.292 23.9544 135.116 25.2934 136.696 27.9023C138.276 30.5112 143.903 28.5972 146.519 27.3141C144.086 30.0926 140.008 35.7984 143.163 36.3934C146.318 36.9883 149.027 31.3564 149.987 28.4661C149.719 32.0015 150.087 38.8742 153.702 38.0818C157.318 37.2894 154.545 30.8861 152.706 27.7835C155.042 30.1831 160.218 34.2203 162.227 31.1726C164.236 28.1248 158.052 25.6704 154.708 24.8241C157.36 25.0252 165.04 23.3856 163.949 20.1915C163.076 17.6363 157.037 19.519 154.126 20.7797C155.519 19.9964 160.033 13.2274 157.04 11.6669C154.645 10.4185 151.81 16.1593 150.691 19.1857C150.792 17.8599 149.628 9.77121 146.434 10.8623Z" fill="white" stroke="black"/>
<circle cx="150.458" cy="23.9082" r="2.60236" transform="rotate(4.33836 150.458 23.9082)" fill="#E56610" stroke="black"/>
<path d="M65.8747 63.6318C64.4349 58.7288 60.5006 46.3635 58.0346 47.9364C56.5233 48.9004 56.8983 64.0295 65.8747 63.6318C65.8758 63.8741 65.8783 64.1141 65.8822 64.3515C73.1582 64.3282 78.7465 54.5413 78.0585 54.1295C72.3605 53.4096 67.5668 60.6442 65.8822 64.3515C65.8783 64.1141 65.8758 63.8741 65.8747 63.6318Z" fill="#25861F"/>
<path d="M66.3627 70.8597C66.1192 69.1681 65.9237 66.9082 65.8822 64.3515M71.831 41.4327C67.0707 47.0562 65.8415 56.39 65.8747 63.6318M65.8747 63.6318C64.4349 58.7288 60.5006 46.3635 58.0346 47.9364C56.5233 48.9004 56.8983 64.0295 65.8747 63.6318ZM65.8747 63.6318C65.8758 63.8741 65.8783 64.1141 65.8822 64.3515M65.8822 64.3515C67.5668 60.6442 72.3605 53.4096 78.0585 54.1295C78.7465 54.5413 73.1582 64.3282 65.8822 64.3515Z" stroke="black" stroke-linecap="round"/>
<path d="M77.6686 30.4703C79.267 31.3036 77.4312 34.903 76.3135 36.5984C78.3014 35.1668 82.4139 32.8479 82.9607 35.0257C83.5076 37.2036 79.6213 38.6297 77.6098 39.0705C79.7434 39.628 83.6842 41.1336 82.3788 42.6961C81.0734 44.2587 77.5527 42.4289 75.9554 41.3187C77.2813 43.3974 79.3977 47.5734 77.2556 47.6483C75.1136 47.7232 73.8931 43.7338 73.5507 41.7297C73.3716 44.0898 72.4369 48.5883 70.1305 47.7012C67.8241 46.8141 70.2994 42.8677 71.8253 41.0054C70.0417 42.3536 66.2196 44.4967 65.2007 42.2831C64.1818 40.0694 68.5103 39.0725 70.8019 38.8507C69.0318 38.7165 64.1285 36.8609 65.1702 34.8629C66.0036 33.2646 69.7996 35.1152 71.5934 36.2404C70.7531 35.5832 68.4561 30.6615 70.5883 29.9331C72.2941 29.3504 73.5873 33.4245 74.0207 35.5344C74.0878 34.6493 75.6706 29.4285 77.6686 30.4703Z" fill="white" stroke="black"/>
<circle cx="2.07104" cy="2.07104" r="1.57104" transform="matrix(-0.997135 -0.0756463 -0.0756463 0.997135 75.9209 36.7656)" fill="#E56610" stroke="black"/>
<path d="M39.9404 56.0163C42.5896 50.3459 49.6377 36.1015 52.3328 38.4615C53.9845 39.9079 50.7351 58.1563 39.9404 56.0163C39.8943 56.3095 39.8469 56.5995 39.7983 56.8862C30.9931 55.5137 26.0354 42.6315 26.9444 42.2601C33.9763 42.4413 38.4437 52.0863 39.7983 56.8862C39.8469 56.5995 39.8943 56.3095 39.9404 56.0163Z" fill="#25861F"/>
<path d="M38.014 64.6773C38.6214 62.6741 39.2757 59.9741 39.7983 56.8862M36.8304 28.038C41.555 35.7263 41.3187 47.2543 39.9404 56.0163M39.9404 56.0163C42.5896 50.3459 49.6377 36.1015 52.3328 38.4615C53.9845 39.9079 50.7351 58.1563 39.9404 56.0163ZM39.9404 56.0163C39.8943 56.3095 39.8469 56.5995 39.7983 56.8862M39.7983 56.8862C38.4437 52.0863 33.9763 42.4413 26.9444 42.2601C26.0354 42.6315 30.9931 55.5137 39.7983 56.8862Z" stroke="black" stroke-linecap="round"/>
<path d="M31.7883 13.6873C29.6991 14.401 31.2567 19.0981 32.2967 21.3574C30.1544 19.2567 25.6037 15.6893 24.5391 18.2251C23.4746 20.7608 27.9165 23.2056 30.2705 24.111C27.5842 24.3917 22.5346 25.4865 23.8264 27.6196C25.1182 29.7527 29.7191 28.1878 31.8581 27.1387C29.8687 29.4105 26.5347 34.0756 29.1144 34.5621C31.694 35.0485 33.9088 30.4438 34.6938 28.0806C34.4745 30.9712 34.775 36.5905 37.7314 35.9426C40.6878 35.2947 38.42 30.0592 36.9166 27.5224C38.827 29.4844 43.0586 32.7854 44.7013 30.2934C46.344 27.8015 41.2874 25.7947 38.5537 25.1028C40.7217 25.2672 47.0013 23.9266 46.1092 21.3151C45.3956 19.2259 40.4576 20.7652 38.0778 21.796C39.2166 21.1556 42.9071 15.6211 40.4601 14.3452C38.5024 13.3245 36.1839 18.0183 35.2694 20.4927C35.3516 19.4087 34.3999 12.7952 31.7883 13.6873Z" fill="white" stroke="black"/>
<circle cx="35.0786" cy="24.352" r="2.03656" transform="rotate(4.33836 35.0786 24.352)" fill="#E56610" stroke="black"/>
<path d="M93.6083 66.131C95.4027 62.2904 100.177 52.6424 102.002 54.2409C103.121 55.2206 100.92 67.5805 93.6083 66.131C93.5771 66.3296 93.545 66.526 93.5121 66.7202C87.5482 65.7906 84.1903 57.0653 84.806 56.8137C89.5688 56.9365 92.5946 63.4692 93.5121 66.7202C93.545 66.526 93.5771 66.3296 93.6083 66.131Z" fill="#25861F"/>
<path d="M92.3036 71.9972C92.715 70.6405 93.1582 68.8117 93.5121 66.7202M91.5019 47.1809C94.7019 52.3883 94.5419 60.1964 93.6083 66.131M93.6083 66.131C95.4027 62.2904 100.177 52.6424 102.002 54.2409C103.121 55.2206 100.92 67.5805 93.6083 66.131ZM93.6083 66.131C93.5771 66.3296 93.545 66.526 93.5121 66.7202M93.5121 66.7202C92.5946 63.4692 89.5688 56.9365 84.806 56.8137C84.1903 57.0653 87.5482 65.7906 93.5121 66.7202Z" stroke="black" stroke-linecap="round"/>
<path d="M88.0868 37.462C86.6718 37.9454 87.7268 41.1268 88.4312 42.6571C86.9801 41.2342 83.8979 38.818 83.1768 40.5355C82.4558 42.253 85.4644 43.9089 87.0588 44.5221C85.2393 44.7123 81.8192 45.4538 82.6941 46.8985C83.5691 48.3433 86.6853 47.2834 88.1341 46.5728C86.7866 48.1115 84.5285 51.2713 86.2757 51.6008C88.0229 51.9302 89.5231 48.8114 90.0547 47.2108C89.9062 49.1686 90.1097 52.9746 92.1122 52.5358C94.1146 52.097 92.5786 48.5509 91.5603 46.8327C92.8542 48.1616 95.7204 50.3974 96.833 48.7096C97.9456 47.0218 94.5207 45.6625 92.6691 45.1939C94.1375 45.3053 98.3908 44.3972 97.7866 42.6284C97.3032 41.2133 93.9586 42.2559 92.3468 42.9541C93.1181 42.5204 95.6178 38.7717 93.9603 37.9076C92.6344 37.2163 91.064 40.3954 90.4446 42.0714C90.5003 41.3372 89.8557 36.8578 88.0868 37.462Z" fill="white" stroke="black"/>
<circle cx="90.3151" cy="44.6888" r="1.21805" transform="rotate(4.33836 90.3151 44.6888)" fill="#E56610" stroke="black"/>
<path d="M142.652 72.5177C141.457 68.4503 138.194 58.1926 136.148 59.4975C134.894 60.2971 135.205 72.8476 142.652 72.5177C142.653 72.7187 142.655 72.9178 142.658 73.1147C148.694 73.0954 153.33 64.9765 152.759 64.635C148.032 64.0378 144.055 70.0393 142.658 73.1147C142.655 72.9178 142.653 72.7187 142.652 72.5177Z" fill="#237C1D"/>
<path d="M143.057 78.5136C142.855 77.1103 142.692 75.2356 142.658 73.1147M147.593 54.1023C143.644 58.7673 142.624 66.5102 142.652 72.5177M142.652 72.5177C141.457 68.4503 138.194 58.1926 136.148 59.4975C134.894 60.2971 135.205 72.8476 142.652 72.5177ZM142.652 72.5177C142.653 72.7187 142.655 72.9178 142.658 73.1147M142.658 73.1147C144.055 70.0393 148.032 64.0378 152.759 64.635C153.33 64.9765 148.694 73.0954 142.658 73.1147Z" stroke="black" stroke-linecap="round"/>
<path d="M152.435 45.0091C153.761 45.7004 152.238 48.6862 151.311 50.0927C152.96 48.9051 156.372 46.9815 156.825 48.7881C157.279 50.5947 154.055 51.7778 152.387 52.1434C154.156 52.6059 157.426 53.8549 156.343 55.1511C155.26 56.4474 152.339 54.9294 151.014 54.0085C152.114 55.7328 153.87 59.1971 152.093 59.2592C150.316 59.3213 149.303 56.0119 149.019 54.3494C148.871 56.3073 148.095 60.039 146.182 59.3031C144.269 58.5672 146.322 55.2934 147.588 53.7485C146.108 54.867 142.938 56.6448 142.093 54.8085C141.247 52.9721 144.838 52.1451 146.739 51.9611C145.271 51.8497 141.203 50.3105 142.067 48.653C142.759 47.3271 145.908 48.8623 147.396 49.7957C146.699 49.2505 144.793 45.1677 146.562 44.5635C147.977 44.0801 149.05 47.4598 149.409 49.21C149.465 48.4758 150.778 44.1449 152.435 45.0091Z" fill="#E56610" stroke="black"/>
<circle cx="1.71805" cy="1.71805" r="1.21805" transform="matrix(-0.997135 -0.0756463 -0.0756463 0.997135 150.986 50.2324)" fill="#FFB42E" stroke="black"/>
<path d="M164.768 71.7061C163.328 66.803 159.394 54.4378 156.928 56.0106C155.417 56.9746 155.792 72.1037 164.768 71.7061C164.769 71.9484 164.772 72.1883 164.776 72.4257C172.052 72.4024 177.64 62.6155 176.952 62.2037C171.254 61.4838 166.46 68.7184 164.776 72.4257C164.772 72.1883 164.769 71.9484 164.768 71.7061Z" fill="#237C1D"/>
<path d="M165.256 78.9339C165.013 77.2423 164.817 74.9824 164.776 72.4257M170.725 49.507C165.964 55.1304 164.735 64.4642 164.768 71.7061M164.768 71.7061C163.328 66.803 159.394 54.4378 156.928 56.0106C155.417 56.9746 155.792 72.1037 164.768 71.7061ZM164.768 71.7061C164.769 71.9484 164.772 72.1883 164.776 72.4257M164.776 72.4257C166.46 68.7184 171.254 61.4838 176.952 62.2037C177.64 62.6155 172.052 72.4024 164.776 72.4257Z" stroke="black" stroke-linecap="round"/>
<path d="M176.562 38.5425C178.16 39.3759 176.324 42.9752 175.207 44.6707C177.194 43.239 181.307 40.9202 181.854 43.098C182.401 45.2758 178.514 46.7019 176.503 47.1428C178.636 47.7002 182.577 49.2058 181.272 50.7684C179.966 52.331 176.446 50.5012 174.849 49.391C176.174 51.4696 178.291 55.6457 176.149 55.7206C174.007 55.7954 172.786 51.806 172.444 49.8019C172.265 52.1621 171.33 56.6605 169.024 55.7735C166.717 54.8864 169.192 50.94 170.718 49.0776C168.935 50.4259 165.113 52.569 164.094 50.3553C163.075 48.1417 167.403 47.1448 169.695 46.923C167.925 46.7887 163.022 44.9332 164.063 42.9352C164.897 41.3368 168.693 43.1875 170.486 44.3126C169.646 43.6554 167.349 38.7338 169.481 38.0054C171.187 37.4227 172.48 41.4968 172.914 43.6066C172.981 42.7216 174.564 37.5008 176.562 38.5425Z" fill="#E56610" stroke="black"/>
<circle cx="2.07104" cy="2.07104" r="1.57104" transform="matrix(-0.997135 -0.0756463 -0.0756463 0.997135 174.814 44.8379)" fill="#FFB42E" stroke="black"/>
</svg>
