<svg width="22" height="22" viewBox="0 0 22 22" fill="none" xmlns="http://www.w3.org/2000/svg">
<path d="M19.7868 12.3329C20.5232 12.3329 21.1201 11.7359 21.1201 10.9996V10.9996C21.1201 10.2632 20.5232 9.66624 19.7868 9.66624L5.12012 9.66624L11.5068 3.27957C12.0296 2.75674 12.0296 1.90907 11.5068 1.38624V1.38624C10.984 0.863408 10.1363 0.863407 9.61345 1.38624L0.707223 10.2925C0.316699 10.683 0.316698 11.3162 0.707222 11.7067L9.61345 20.6129C10.1363 21.1357 10.984 21.1357 11.5068 20.6129V20.6129C12.0296 20.0901 12.0296 19.2424 11.5068 18.7196L5.12012 12.3329L19.7868 12.3329Z" fill="black"/>
</svg>
