<svg width="21" height="22" viewBox="0 0 21 22" fill="none" xmlns="http://www.w3.org/2000/svg">
<path d="M1.33333 9.66612C0.596951 9.66612 -1.71762e-06 10.2631 -1.84637e-06 10.9995C-1.97512e-06 11.7358 0.596951 12.3328 1.33333 12.3328L16 12.3328L9.61333 18.7195C9.0905 19.2423 9.0905 20.09 9.61333 20.6128C10.1362 21.1356 10.9838 21.1356 11.5067 20.6128L20.4129 11.7066C20.8034 11.316 20.8034 10.6829 20.4129 10.2924L11.5067 1.38612C10.9838 0.863293 10.1362 0.863292 9.61333 1.38612C9.0905 1.90895 9.0905 2.75663 9.61333 3.27945L16 9.66612L1.33333 9.66612Z" fill="black"/>
</svg>
