<svg width="32" height="32" viewBox="0 0 32 32" fill="none" xmlns="http://www.w3.org/2000/svg">
<path d="M17.947 16.0003L24.9305 22.9838C25.1886 23.242 25.3337 23.5921 25.3337 23.9572V23.9572C25.3337 24.7174 24.7174 25.3337 23.9572 25.3337V25.3337C23.5921 25.3337 23.242 25.1886 22.9838 24.9305L16.0003 17.947L9.01683 24.9305C8.75868 25.1886 8.40856 25.3337 8.04349 25.3337V25.3337C7.28327 25.3337 6.66699 24.7174 6.66699 23.9572V23.9572C6.66699 23.5921 6.81202 23.242 7.07016 22.9838L14.0537 16.0003L7.07016 9.01683C6.81202 8.75868 6.66699 8.40856 6.66699 8.04349V8.04349C6.66699 7.28327 7.28327 6.66699 8.04349 6.66699V6.66699C8.40856 6.66699 8.75868 6.81202 9.01683 7.07016L16.0003 14.0537L22.9838 7.07016C23.242 6.81202 23.5921 6.66699 23.9572 6.66699V6.66699C24.7174 6.66699 25.3337 7.28327 25.3337 8.04349V8.04349C25.3337 8.40856 25.1886 8.75868 24.9305 9.01683L17.947 16.0003Z" fill="black"/>
</svg>
