<svg width="80" height="83" viewBox="0 0 80 83" fill="none" xmlns="http://www.w3.org/2000/svg">
<path d="M12.6289 72.7773H24.5889V76.157C24.5889 77.272 23.6842 78.1786 22.5673 78.1786H14.6486C13.5336 78.1786 12.627 77.2739 12.627 76.157V72.7773H12.6289Z" fill="#594738"/>
<mask id="mask0_604_6032" style="mask-type:luminance" maskUnits="userSpaceOnUse" x="16" y="70" width="13" height="13">
<path d="M21.4068 70.9444C21.4068 70.9444 21.4068 79.0463 17.3558 80.9754C13.3048 82.9044 27.1939 82.5186 27.1939 82.5186L28.1584 70.5586L21.4068 70.9444Z" fill="white"/>
</mask>
<g mask="url(#mask0_604_6032)">
<path d="M12.7246 72.6816H24.6846V76.0613C24.6846 77.1763 23.7799 78.0829 22.663 78.0829H14.7443C13.6293 78.0829 12.7227 77.1782 12.7227 76.0613V72.6816H12.7246Z" fill="#352A22"/>
</g>
<path d="M12.6289 73.1621H24.5889V76.5418C24.5889 77.6568 23.6842 78.5634 22.5673 78.5634H14.6486C13.5336 78.5634 12.627 77.6587 12.627 76.5418V73.1621H12.6289Z" stroke="black" stroke-miterlimit="10"/>
<path d="M34.962 12.4385L8.38574 30.6505V69.8619C8.38574 71.5769 9.77657 72.9677 11.4915 72.9677H59.4858C61.2007 72.9677 62.5916 71.5769 62.5916 69.8619V30.529L62.5376 30.4904L36.2082 12.4366C35.834 12.18 35.3382 12.18 34.964 12.4366L34.962 12.4385Z" fill="#B79980"/>
<mask id="mask1_604_6032" style="mask-type:luminance" maskUnits="userSpaceOnUse" x="29" y="5" width="38" height="73">
<path d="M29.2188 10.6612L56.9968 30.5303V66.9388C56.9968 66.9388 57.7684 71.8116 50.0523 75.6696C42.3362 79.5277 66.0556 75.6696 66.0556 75.6696L65.2917 26.6722L33.8658 5.74219L29.2188 10.6612Z" fill="white"/>
</mask>
<g mask="url(#mask1_604_6032)">
<path d="M34.962 12.4385L8.38574 30.6505V69.8619C8.38574 71.5769 9.77657 72.9677 11.4915 72.9677H59.4858C61.2007 72.9677 62.5916 71.5769 62.5916 69.8619V30.529L62.5376 30.4904L36.2082 12.4366C35.834 12.18 35.3382 12.18 34.964 12.4366L34.962 12.4385Z" fill="#5E4D40"/>
</g>
<path d="M34.962 12.4385L8.38574 30.6505V69.8619C8.38574 71.5769 9.77657 72.9677 11.4915 72.9677H59.4858C61.2007 72.9677 62.5916 71.5769 62.5916 69.8619V30.529L62.5376 30.4904L36.2082 12.4366C35.834 12.18 35.3382 12.18 34.964 12.4366L34.962 12.4385Z" stroke="black" stroke-miterlimit="10"/>
<path d="M46.0019 72.7773H57.9619V76.157C57.9619 77.272 57.0572 78.1786 55.9403 78.1786H48.0216C46.9066 78.1786 46 77.2739 46 76.157V72.7773H46.0019Z" fill="#594738"/>
<mask id="mask2_604_6032" style="mask-type:luminance" maskUnits="userSpaceOnUse" x="49" y="70" width="13" height="13">
<path d="M54.7788 70.9444C54.7788 70.9444 54.7788 79.0463 50.7279 80.9754C46.6769 82.9044 60.5659 82.5186 60.5659 82.5186L61.5304 70.5586L54.7788 70.9444Z" fill="white"/>
</mask>
<g mask="url(#mask2_604_6032)">
<path d="M46.0967 72.6816H58.0567V76.0613C58.0567 77.1763 57.1519 78.0829 56.035 78.0829H48.1163C47.0014 78.0829 46.0947 77.1782 46.0947 76.0613V72.6816H46.0967Z" fill="#352A22"/>
</g>
<path d="M46.0019 73.1621H57.9619V76.5418C57.9619 77.6568 57.0572 78.5634 55.9403 78.5634H48.0216C46.9066 78.5634 46 77.6587 46 76.5418V73.1621H46.0019Z" stroke="black" stroke-miterlimit="10"/>
<path d="M8.4585 56.2832H62.6643" stroke="black" stroke-miterlimit="10"/>
<path d="M8.48193 39.1152H62.6878" stroke="black" stroke-miterlimit="10"/>
<path d="M19.4775 21.9473H50.9208" stroke="black" stroke-miterlimit="10"/>
<path d="M68.8607 26.6503L37.8245 5.11076C36.534 4.21569 34.8249 4.21569 33.5363 5.11076L2.48462 26.6523C0.952967 27.7152 0.569095 29.814 1.62235 31.3495C2.67946 32.8908 4.78596 33.2824 6.32726 32.2272L8.48199 30.7515L35.0583 12.5395C35.4344 12.2829 35.9283 12.2829 36.3025 12.5395L62.6319 30.5933L65.0142 32.2272C66.5555 33.2843 68.662 32.8927 69.7191 31.3514C70.7724 29.8159 70.3885 27.7171 68.8588 26.6542L68.8607 26.6503Z" fill="#594738"/>
<mask id="mask3_604_6032" style="mask-type:luminance" maskUnits="userSpaceOnUse" x="30" y="0" width="50" height="42">
<path d="M30.4717 2.75273L65.8636 26.8136C65.8636 26.8136 71.5601 29.9521 64.8085 38.8256C58.0569 47.6992 79.0833 32.074 79.0833 32.074L77.733 12.7837L47.0614 3.91015L30.4717 0V2.75273Z" fill="white"/>
</mask>
<g mask="url(#mask3_604_6032)">
<path d="M68.9555 26.6484L37.9192 5.1088C36.6287 4.21373 34.9196 4.21373 33.631 5.1088L2.57935 26.6503C1.04769 27.7132 0.663821 29.812 1.71707 31.3475C2.77418 32.8888 4.88069 33.2804 6.42199 32.2252L8.57671 30.7495L35.153 12.5375C35.5292 12.281 36.023 12.281 36.3972 12.5375L62.7266 30.5913L65.109 32.2252C66.6503 33.2823 68.7568 32.8907 69.8139 31.3494C70.8671 29.8139 70.4832 27.7151 68.9535 26.6522L68.9555 26.6484Z" fill="#352A22"/>
</g>
<path d="M68.8607 26.6503L37.8245 5.11076C36.534 4.21569 34.8249 4.21569 33.5363 5.11076L2.48462 26.6523C0.952967 27.7152 0.569095 29.814 1.62235 31.3495C2.67946 32.8908 4.78596 33.2824 6.32726 32.2272L8.48199 30.7515L35.0583 12.5395C35.4344 12.2829 35.9283 12.2829 36.3025 12.5395L62.6319 30.5933L65.0142 32.2272C66.5555 33.2843 68.662 32.8927 69.7191 31.3514C70.7724 29.8159 70.3885 27.7171 68.8588 26.6542L68.8607 26.6503Z" stroke="black" stroke-miterlimit="10"/>
<path d="M35.5624 67.1814C36.7343 67.1814 37.6843 66.2313 37.6843 65.0594C37.6843 63.8875 36.7343 62.9375 35.5624 62.9375C34.3905 62.9375 33.4404 63.8875 33.4404 65.0594C33.4404 66.2313 34.3905 67.1814 35.5624 67.1814Z" fill="#F7D452" stroke="black" stroke-miterlimit="10"/>
<path d="M40.7697 66.6992H30.3529C29.98 66.6992 29.6777 67.0015 29.6777 67.3744C29.6777 67.7473 29.98 68.0495 30.3529 68.0495H40.7697C41.1426 68.0495 41.4448 67.7473 41.4448 67.3744C41.4448 67.0015 41.1426 66.6992 40.7697 66.6992Z" fill="black"/>
<path d="M35.5624 51.5564C36.7343 51.5564 37.6843 50.6063 37.6843 49.4344C37.6843 48.2625 36.7343 47.3125 35.5624 47.3125C34.3905 47.3125 33.4404 48.2625 33.4404 49.4344C33.4404 50.6063 34.3905 51.5564 35.5624 51.5564Z" fill="#F7D452" stroke="black" stroke-miterlimit="10"/>
<path d="M40.7697 51.0742H30.3529C29.98 51.0742 29.6777 51.3765 29.6777 51.7494C29.6777 52.1223 29.98 52.4245 30.3529 52.4245H40.7697C41.1426 52.4245 41.4448 52.1223 41.4448 51.7494C41.4448 51.3765 41.1426 51.0742 40.7697 51.0742Z" fill="black"/>
<path d="M35.5624 35.74C36.7343 35.74 37.6843 34.7899 37.6843 33.618C37.6843 32.4461 36.7343 31.4961 35.5624 31.4961C34.3905 31.4961 33.4404 32.4461 33.4404 33.618C33.4404 34.7899 34.3905 35.74 35.5624 35.74Z" fill="#F7D452" stroke="black" stroke-miterlimit="10"/>
<path d="M40.7697 35.2578H30.3529C29.98 35.2578 29.6777 35.5601 29.6777 35.933C29.6777 36.3059 29.98 36.6081 30.3529 36.6081H40.7697C41.1426 36.6081 41.4448 36.3059 41.4448 35.933C41.4448 35.5601 41.1426 35.2578 40.7697 35.2578Z" fill="black"/>
<path d="M48.382 74.9727C48.382 75.9874 47.7736 77.4918 47.4694 78.1172C47.1843 78.915 46.2914 80.571 45 80.8126L53.4549 80.8126C53.0255 79.3751 54.0275 76.7431 54.5822 75.6069C53.2294 75.6069 52.1039 77.2804 51.7102 78.1172L50.8513 74.9727L49.9387 76.8488C49.8314 75.8341 48.8562 75.1752 48.382 74.9727Z" fill="#5B9B40"/>
<path d="M13.382 74.9727C13.382 75.9874 12.7736 77.4918 12.4694 78.1172C12.1843 78.915 11.2914 80.571 10 80.8126L18.4549 80.8126C18.0255 79.3751 19.0275 76.7431 19.5822 75.6069C18.2294 75.6069 17.1039 77.2804 16.7102 78.1172L15.8513 74.9727L14.9387 76.8488C14.8314 75.8341 13.8562 75.1752 13.382 74.9727Z" fill="#5B9B40"/>
<path d="M19.4445 74.9727C19.4445 75.9874 18.8361 77.4918 18.5319 78.1172C18.2468 78.915 17.3539 80.571 16.0625 80.8126L24.5174 80.8126C24.088 79.3751 25.09 76.7431 25.6447 75.6069C24.2919 75.6069 23.1664 77.2804 22.7727 78.1172L21.9138 74.9727L21.0012 76.8488C20.8939 75.8341 19.9187 75.1752 19.4445 74.9727Z" fill="#5B9B40"/>
<path d="M55.382 74.9727C55.382 75.9874 54.7736 77.4918 54.4694 78.1172C54.1843 78.915 53.2914 80.571 52 80.8126L60.4549 80.8126C60.0255 79.3751 61.0275 76.7431 61.5822 75.6069C60.2294 75.6069 59.1039 77.2804 58.7102 78.1172L57.8513 74.9727L56.9387 76.8488C56.8314 75.8341 55.8562 75.1752 55.382 74.9727Z" fill="#5B9B40"/>
</svg>
