<svg width="141" height="151" viewBox="0 0 141 151" fill="none" xmlns="http://www.w3.org/2000/svg">
<path d="M42.6575 145.882C43.3381 141.283 45.6624 136.258 52.0541 128.651C52.7972 127.767 52.724 126.45 51.8975 125.629C50.9635 124.697 49.4268 124.767 48.5764 125.772C41.4203 134.3 38.9131 140.151 38.1895 145.229C38.0072 146.522 38.9415 147.687 40.2442 147.789C41.4376 147.889 42.4876 147.048 42.6575 145.882Z" fill="black"/>
<path d="M51.9692 147.605C51.3414 142.998 52.2078 137.525 56.2315 128.452C56.7093 127.391 56.2694 126.156 55.2468 125.59C54.0992 124.964 52.6424 125.448 52.1086 126.648C47.5898 136.834 46.7922 143.144 47.497 148.212C47.6717 149.503 48.896 150.357 50.1819 150.106C51.3477 149.871 52.1274 148.776 51.9692 147.605Z" fill="black"/>
<path d="M91.1652 143.665C89.2498 139.419 88.5125 133.94 89.7937 124.093C89.9384 122.95 89.1697 121.881 88.0323 121.641C86.7449 121.364 85.4879 122.245 85.3239 123.549C83.8991 134.6 84.9411 140.869 87.0603 145.527C87.5939 146.707 89.0123 147.182 90.1719 146.576C91.2193 146.015 91.6571 144.747 91.1652 143.665Z" fill="black"/>
<path d="M82.4589 145.997C80.5435 141.751 79.8062 136.272 81.0874 126.425C81.2321 125.282 80.4634 124.213 79.326 123.973C78.0386 123.696 76.7816 124.577 76.6176 125.881C75.1928 136.932 76.2348 143.201 78.354 147.859C78.8877 149.039 80.306 149.514 81.4656 148.908C82.513 148.347 82.9508 147.079 82.4589 145.997Z" fill="black"/>
<path d="M119.086 126.089C114.972 123.91 111.036 120.019 106.02 111.455C105.442 110.459 104.16 110.087 103.13 110.596C101.944 111.163 101.484 112.639 102.159 113.765C107.798 123.375 112.455 127.695 116.985 130.09C118.144 130.697 119.549 130.196 120.091 129.024C120.575 127.93 120.142 126.662 119.09 126.104L119.086 126.089Z" fill="black"/>
<path d="M112.609 130.935C108.495 128.756 104.559 124.864 99.5424 116.301C98.9644 115.305 97.6827 114.933 96.6526 115.442C95.4669 116.009 95.007 117.485 95.6819 118.611C101.321 128.221 105.978 132.541 110.508 134.935C111.666 135.543 113.072 135.042 113.613 133.87C114.098 132.776 113.665 131.508 112.613 130.95L112.609 130.935Z" fill="black"/>
<path d="M20.8376 121.684C15.6281 123.08 11.0568 122.912 10.6273 121.309C10.1978 119.706 14.0728 117.275 19.2823 115.879C24.4917 114.483 29.063 114.651 29.4925 116.254C29.922 117.857 26.0471 120.288 20.8376 121.684Z" fill="black" stroke="black" stroke-width="5.19484" stroke-miterlimit="10"/>
<path d="M77.5671 61.6861C102.928 58.8725 124.513 66.6981 129.964 82.4553C135.695 99.0242 121.817 119.152 97.7601 131.881C79.1745 112.613 76.8331 81.527 77.5526 61.69L77.5671 61.6861Z" fill="#FED22B" stroke="black" stroke-width="5.19484" stroke-miterlimit="10"/>
<path d="M62.1751 65.0793C62.8735 64.7833 63.5757 64.5018 64.2964 64.2309C68.7877 62.5919 73.3216 61.7504 77.7548 61.6357C79.0959 80.9205 83.469 111.462 97.4834 131.955C94.4433 134.076 91.0767 135.85 87.4511 137.179C86.1617 137.649 84.8857 138.053 83.5903 138.384C68.1037 117.679 63.5016 85.0057 62.1857 65.0609L62.1751 65.0793Z" fill="black" stroke="black" stroke-width="5.19484" stroke-miterlimit="10"/>
<path d="M38.4533 77.9517C45.679 72.7027 54.3659 68.0887 64.0915 64.5651C63.0313 85.1621 65.1373 118.505 86.5408 137.609C76.5529 140.269 66.7838 141.425 57.8338 141.226C41.4482 123.841 38.2287 97.3139 38.4533 77.9517Z" fill="#FED22B" stroke="black" stroke-width="5.19484" stroke-miterlimit="10"/>
<path d="M36.6109 80.1268C37.3401 98.3468 41.0864 123.473 54.6835 140.609C38.8078 139.233 25.9438 131.45 21.7762 118.973C17.428 105.938 23.7133 91.1417 36.6109 80.1268Z" fill="black" stroke="black" stroke-width="5.19484" stroke-miterlimit="10"/>
<path d="M115.342 85.4719C114.139 85.794 112.904 85.0806 112.582 83.8784C112.259 82.6762 112.973 81.4405 114.175 81.1184C115.377 80.7963 116.613 81.5097 116.935 82.7119C117.257 83.9141 116.544 85.1498 115.342 85.4719Z" fill="black"/>
<path d="M100.157 92.6497C98.9551 92.9718 97.7194 92.2583 97.3972 91.0562C97.0751 89.854 97.7885 88.6183 98.9907 88.2961C100.193 87.974 101.429 88.6875 101.751 89.8896C102.073 91.0918 101.359 92.3275 100.157 92.6497Z" fill="black"/>
<path d="M114.295 98.7387C115.282 98.4742 116.156 98.0222 116.922 97.3971C119.571 95.2097 119.949 91.4534 119.909 89.2712C119.897 88.3567 119.087 87.656 118.178 87.8061C117.429 87.9135 116.89 88.5712 116.907 89.329C116.933 91.1106 116.621 93.7761 115.014 95.0932C113.652 96.2204 111.445 96.3449 108.457 95.4659C107.699 95.2491 106.908 95.6633 106.639 96.4039C106.347 97.2288 106.822 98.1282 107.664 98.3692C110.256 99.1054 112.471 99.2431 114.314 98.7493L114.295 98.7387Z" fill="black"/>
<path d="M117.466 65.1813C118.146 60.5817 120.471 55.5573 126.862 47.9498C127.605 47.0663 127.532 45.7483 126.706 44.9277C125.772 43.9959 124.235 44.0655 123.384 45.071C116.228 53.5988 113.721 59.4499 112.998 64.5276C112.815 65.8208 113.75 66.9858 115.052 67.0878C116.246 67.188 117.296 66.3467 117.466 65.1813Z" fill="black"/>
<path d="M94.2446 71.402C94.9252 66.8024 97.2496 61.778 103.641 54.1705C104.384 53.287 104.311 51.969 103.485 51.1484C102.551 50.2166 101.014 50.2862 100.164 51.2917C93.0075 59.8195 90.5003 65.6706 89.7767 70.7483C89.5943 72.0415 90.5287 73.2065 91.8314 73.3085C93.0247 73.4087 94.0747 72.5674 94.2446 71.402Z" fill="black"/>
<path d="M129.283 47.52C126.879 48.1643 124.407 46.7374 123.763 44.333C123.119 41.9287 124.546 39.4573 126.95 38.813C129.355 38.1688 131.826 39.5956 132.47 42C133.114 44.4044 131.688 46.8758 129.283 47.52Z" fill="black"/>
<path d="M104.611 54.1294C102.207 54.7736 99.7356 53.3468 99.0913 50.9424C98.4471 48.538 99.874 46.0666 102.278 45.4224C104.683 44.7781 107.154 46.205 107.798 48.6094C108.443 51.0137 107.016 53.4851 104.611 54.1294Z" fill="black"/>
<path d="M59.3009 67.0005C58.9087 66.0013 53.7033 66.1362 52.8854 66.0443C49.8153 65.7315 46.7509 65.3239 43.7106 64.832C36.2303 63.6168 28.7573 61.9641 21.591 59.4826C12.9947 56.4822 3.72091 49.3861 5.41379 39.1027C6.02583 35.408 8.15 32.1325 10.6095 29.296C13.9167 25.5013 18.165 22.201 23.1384 21.4906C28.2463 20.7596 33.4758 22.9201 37.32 26.354C42.7587 31.2114 45.6063 38.0075 48.6121 44.4656C50.3964 48.2803 52.1952 52.0911 54.0046 55.8835C55.78 59.6072 57.7817 63.1303 59.297 66.986L59.3009 67.0005Z" fill="white" stroke="black" stroke-width="5.19484" stroke-miterlimit="10"/>
<path d="M60.2129 66.5701C60.9136 65.7602 58.4026 61.207 58.1055 60.4467C56.964 57.5797 55.9057 54.6748 54.9489 51.7427C52.5722 44.556 50.5747 37.159 49.4682 29.6631C48.1578 20.651 50.1618 9.14875 60.0667 5.88814C63.6257 4.71676 67.5204 5.08856 71.1612 5.96389C76.0497 7.14257 80.9415 9.37804 83.8748 13.4759C86.8789 17.6636 87.3783 23.3002 86.1068 28.307C84.2978 35.3708 79.6081 41.0291 75.2609 46.6889C72.7043 50.0336 70.1476 53.3784 67.6132 56.7482C65.1252 60.059 62.9228 63.4488 60.2129 66.5701Z" fill="white" stroke="black" stroke-width="5.19484" stroke-miterlimit="10"/>
<path d="M99.9777 103.585C97.974 104.122 95.9145 102.933 95.3776 100.93C94.8408 98.9259 96.0298 96.8664 98.0335 96.3295C100.037 95.7926 102.097 96.9817 102.633 98.9853C103.17 100.989 101.981 103.048 99.9777 103.585Z" fill="#FF6B30"/>
<path d="M123.378 86.4291C121.374 86.966 119.315 85.7769 118.778 83.7733C118.241 81.7696 119.43 79.7101 121.434 79.1733C123.437 78.6364 125.497 79.8254 126.034 81.8291C126.57 83.8327 125.381 85.8922 123.378 86.4291Z" fill="#FF6B30"/>
</svg>
