<svg width="240" height="44" viewBox="0 0 240 44" fill="none" xmlns="http://www.w3.org/2000/svg">
<path d="M72.1875 21.7969C72.1875 25.8096 75.4404 29.0625 79.4531 29.0625H218.438V29.0625C218.438 21.0371 211.932 14.5312 203.906 14.5312H79.4531C75.4404 14.5312 72.1875 17.7842 72.1875 21.7969V21.7969Z" fill="#96D2EA"/>
<path d="M74.5312 7.26562C74.5312 11.2783 77.7842 14.5312 81.7969 14.5312H138.75V14.5312C138.75 6.50586 132.244 0 124.219 0H81.7969C77.7842 0 74.5312 3.25293 74.5312 7.26562V7.26562Z" fill="#96D2EA"/>
<path d="M240 35.8594C240 31.8467 236.747 28.5938 232.734 28.5938L88.125 28.5938V28.5938C88.125 36.6191 94.6309 43.125 102.656 43.125L232.734 43.125C236.747 43.125 240 39.8721 240 35.8594V35.8594Z" fill="#96D2EA"/>
<path d="M0 21.7969C0 25.8096 3.25293 29.0625 7.26563 29.0625H203.906V29.0625C203.906 21.0371 197.4 14.5312 189.375 14.5312H7.26563C3.25293 14.5312 0 17.7842 0 21.7969V21.7969Z" fill="#E7F2F8"/>
<path d="M22.0312 14.5312H124.219V14.5312C124.219 6.50586 117.713 0 109.687 0H36.5625C28.5371 0 22.0312 6.50586 22.0312 14.5312V14.5312Z" fill="#E7F2F8"/>
<path d="M226.406 35.8594C226.406 31.8467 223.153 28.5938 219.141 28.5938L74.5312 28.5938V28.5938C74.5313 36.6191 81.0371 43.125 89.0625 43.125L219.141 43.125C223.153 43.125 226.406 39.8721 226.406 35.8594V35.8594Z" fill="#E7F2F8"/>
</svg>
