<svg width="197" height="29" viewBox="0 0 197 29" fill="none" xmlns="http://www.w3.org/2000/svg">
<path d="M14.5312 21.3281C14.5312 17.3154 17.7842 14.0625 21.7969 14.0625H160.781V14.0625C160.781 22.0879 154.275 28.5938 146.25 28.5938H21.7969C17.7842 28.5938 14.5312 25.3408 14.5312 21.3281V21.3281Z" fill="#96D2EA"/>
<path d="M196.875 7.26563C196.875 11.2783 193.622 14.5312 189.609 14.5312L36.0938 14.5312V14.5312C36.0938 6.50585 42.5996 8.17932e-07 50.625 1.51953e-06L189.609 1.36699e-05C193.622 1.40207e-05 196.875 3.25294 196.875 7.26563V7.26563Z" fill="#96D2EA"/>
<path d="M0 21.3281C0 17.3154 3.25293 14.0625 7.26563 14.0625H146.25V14.0625C146.25 22.0879 139.744 28.5938 131.719 28.5938H7.26562C3.25293 28.5938 0 25.3408 0 21.3281V21.3281Z" fill="#E7F2F8"/>
<path d="M182.344 7.26563C182.344 11.2783 179.091 14.5312 175.078 14.5312L21.5625 14.5312V14.5312C21.5625 6.50585 28.0684 8.17932e-07 36.0937 1.51953e-06L175.078 1.36699e-05C179.091 1.40207e-05 182.344 3.25294 182.344 7.26563V7.26563Z" fill="#E7F2F8"/>
</svg>
