<svg width="126" height="61" viewBox="0 0 126 61" fill="none" xmlns="http://www.w3.org/2000/svg">
<path d="M57.2581 45.5683C55.1383 39.9596 49.4378 25.8419 46.6924 27.901C45.0098 29.163 46.7913 46.8302 57.2581 45.5683C57.2809 45.8517 57.3051 46.1322 57.3307 46.4096C65.8414 45.7365 71.5108 33.7901 70.6694 33.3695C63.939 33.0329 58.9726 41.9227 57.3307 46.4096C57.3051 46.1322 57.2809 45.8517 57.2581 45.5683Z" fill="#25861F"/>
<path d="M58.4705 53.9813C58.0356 52.0238 57.6062 49.3972 57.3307 46.4096M62.2564 19.0674C57.1861 26.0692 56.5764 37.0985 57.2581 45.5683M57.2581 45.5683C55.1383 39.9596 49.4378 25.8419 46.6924 27.901C45.0098 29.163 46.7913 46.8302 57.2581 45.5683ZM57.2581 45.5683C57.2809 45.8517 57.3051 46.1322 57.3307 46.4096M57.3307 46.4096C58.9726 41.9227 63.939 33.0329 70.6694 33.3695C71.5108 33.7901 65.8414 45.7365 57.3307 46.4096Z" stroke="black" stroke-width="0.575893" stroke-linecap="round"/>
<path d="M68.1935 5.4379C70.1376 6.27105 68.3093 10.6451 67.1521 12.7279C69.3508 10.8765 73.9564 7.79849 74.7895 10.2979C75.6226 12.7974 71.2023 14.8108 68.8881 15.5051C71.4338 15.968 76.1781 17.3797 74.7895 19.3237C73.4009 21.2677 69.1193 19.4394 67.1521 18.2823C68.8879 20.5966 71.7345 25.2946 69.2351 25.5723C66.7357 25.85 64.9536 21.2909 64.3751 18.9766C64.3751 21.7537 63.6808 27.0998 60.9036 26.2666C58.1265 25.4335 60.6722 20.5966 62.2922 18.2823C60.325 20.018 56.0436 22.8646 54.655 20.3651C53.2664 17.8657 58.2422 16.3151 60.9036 15.8523C58.8208 15.8523 52.9193 14.1165 53.9607 11.6865C54.7939 9.7425 59.3993 11.5708 61.5979 12.7279C60.5565 12.0337 57.4322 6.47934 59.8622 5.4379C61.8062 4.60475 63.6808 9.2565 64.3751 11.6865C64.3751 10.6451 65.7635 4.39647 68.1935 5.4379Z" fill="white" stroke="black" stroke-width="0.575893"/>
<circle cx="2.43002" cy="2.43002" r="2.14207" transform="matrix(-1 -8.74228e-08 -8.74228e-08 1 66.708 12.958)" fill="#E56610" stroke="black" stroke-width="0.575893"/>
<path d="M116.143 51.2623C117.831 46.7948 122.372 35.5495 124.559 37.1897C125.899 38.1948 124.48 52.2675 116.143 51.2623C116.125 51.4881 116.105 51.7115 116.085 51.9325C109.306 51.3964 104.79 41.8805 105.46 41.5455C110.821 41.2774 114.777 48.3584 116.085 51.9325C116.105 51.7115 116.125 51.4881 116.143 51.2623Z" fill="#237C1D"/>
<path d="M115.177 57.9636C115.524 56.4044 115.866 54.3122 116.085 51.9325M112.162 30.1533C116.2 35.7305 116.686 44.5158 116.143 51.2623M116.143 51.2623C117.831 46.7948 122.372 35.5495 124.559 37.1897C125.899 38.1949 124.48 52.2675 116.143 51.2623ZM116.143 51.2623C116.125 51.4881 116.105 51.7115 116.085 51.9325M116.085 51.9325C114.777 48.3584 110.821 41.2774 105.46 41.5455C104.79 41.8805 109.306 51.3964 116.085 51.9325Z" stroke="black" stroke-width="0.575893" stroke-linecap="round"/>
<path d="M107.498 19.5236C105.949 20.1872 107.405 23.6713 108.327 25.3304C106.576 23.8556 102.907 21.4039 102.244 23.3948C101.58 25.3857 105.101 26.9895 106.944 27.5425C104.917 27.9112 101.138 29.0357 102.244 30.5841C103.35 32.1326 106.76 30.6763 108.327 29.7546C106.945 31.598 104.677 35.3402 106.668 35.5614C108.659 35.7826 110.078 32.1511 110.539 30.3076C110.539 32.5197 111.092 36.7781 113.304 36.1144C115.516 35.4508 113.489 31.598 112.198 29.7546C113.765 31.1372 117.176 33.4046 118.282 31.4137C119.388 29.4228 115.424 28.1877 113.304 27.819C114.963 27.819 119.664 26.4364 118.835 24.5008C118.171 22.9523 114.503 24.4086 112.751 25.3304C113.581 24.7773 116.07 20.3531 114.134 19.5236C112.585 18.8599 111.092 22.5652 110.539 24.5008C110.539 23.6713 109.433 18.694 107.498 19.5236Z" fill="#E56610" stroke="black" stroke-width="0.575893"/>
<circle cx="110.616" cy="27.4493" r="1.64766" fill="#FFB42E" stroke="black" stroke-width="0.575893"/>
<path d="M39.7473 51.7455C37.8295 46.671 32.6719 33.8979 30.1879 35.7609C28.6655 36.9026 30.2774 52.8873 39.7473 51.7455C39.7679 52.0019 39.7899 52.2557 39.813 52.5067C47.5131 51.8978 52.6426 41.0891 51.8813 40.7085C45.792 40.404 41.2986 48.4471 39.813 52.5067C39.7899 52.2557 39.7679 52.0019 39.7473 51.7455Z" fill="#237C1D"/>
<path d="M40.8443 59.3573C40.4507 57.5862 40.0623 55.2098 39.813 52.5067M44.2696 27.7686C39.6822 34.1035 39.1306 44.0824 39.7473 51.7455M39.7473 51.7455C37.8295 46.671 32.6719 33.8979 30.1879 35.7609C28.6655 36.9026 30.2774 52.8873 39.7473 51.7455ZM39.7473 51.7455C39.7679 52.0019 39.7899 52.2557 39.813 52.5067M39.813 52.5067C41.2986 48.4471 45.792 40.404 51.8813 40.7085C52.6426 41.0891 47.5131 51.8978 39.813 52.5067Z" stroke="black" stroke-width="0.575893" stroke-linecap="round"/>
<path d="M49.5682 15.6944C51.327 16.4482 49.6729 20.4056 48.6259 22.2901C50.6152 20.615 54.7822 17.8301 55.5359 20.0915C56.2897 22.3529 52.2904 24.1746 50.1965 24.8028C52.4998 25.2216 56.7923 26.4988 55.5359 28.2577C54.2796 30.0166 50.4058 28.3624 48.6259 27.3155C50.1964 29.4093 52.7719 33.6599 50.5105 33.9112C48.2491 34.1625 46.6368 30.0375 46.1134 27.9436C46.1134 30.4563 45.4852 35.2932 42.9725 34.5394C40.4599 33.7856 42.7631 29.4093 44.2289 27.3155C42.4491 28.8859 38.5754 31.4614 37.319 29.2C36.0627 26.9386 40.5646 25.5357 42.9725 25.1169C41.088 25.1169 35.7486 23.5465 36.6909 21.3479C37.4447 19.589 41.6115 21.2432 43.6007 22.2901C42.6584 21.662 39.8317 16.6366 42.0303 15.6944C43.7891 14.9406 45.4852 19.1493 46.1134 21.3479C46.1134 20.4056 47.3696 14.7521 49.5682 15.6944Z" fill="#E56610" stroke="black" stroke-width="0.575893"/>
<circle cx="2.19858" cy="2.19858" r="1.91064" transform="matrix(-1 -8.74228e-08 -8.74228e-08 1 48.2246 22.498)" fill="#FFB42E" stroke="black" stroke-width="0.575893"/>
<path d="M69.6793 54.6677C70.9783 51.2307 74.4716 42.5792 76.154 43.8411C77.1852 44.6144 76.0934 55.441 69.6793 54.6677C69.6653 54.8413 69.6505 55.0132 69.6348 55.1832C64.4194 54.7708 60.9451 47.4499 61.4608 47.1922C65.5852 46.9859 68.6286 52.4336 69.6348 55.1832C69.6505 55.0132 69.6653 54.8413 69.6793 54.6677Z" fill="#237C1D"/>
<path d="M68.9363 59.8232C69.2029 58.6237 69.466 57.014 69.6348 55.1832M66.6163 38.4277C69.7234 42.7185 70.097 49.4773 69.6793 54.6677M69.6793 54.6677C70.9783 51.2307 74.4716 42.5792 76.154 43.8411C77.1852 44.6144 76.0934 55.441 69.6793 54.6677ZM69.6793 54.6677C69.6653 54.8413 69.6505 55.0132 69.6348 55.1832M69.6348 55.1832C68.6286 52.4336 65.5852 46.9859 61.4608 47.1922C60.9451 47.4499 64.4194 54.7708 69.6348 55.1832Z" stroke="black" stroke-width="0.575893" stroke-linecap="round"/>
<path d="M63.028 30.2502C61.8367 30.7607 62.9571 33.4412 63.6662 34.7176C62.3188 33.583 59.4965 31.6968 58.9859 33.2284C58.4754 34.7601 61.1842 35.994 62.6024 36.4194C61.0423 36.7031 58.135 37.5682 58.9859 38.7595C59.8369 39.9508 62.4607 38.8304 63.6662 38.1213C62.6025 39.5395 60.858 42.4185 62.3897 42.5887C63.9214 42.7589 65.0134 39.965 65.368 38.5468C65.368 40.2486 65.7934 43.5247 67.4953 43.0142C69.1972 42.5036 67.6371 39.5395 66.6444 38.1213C67.8499 39.185 70.4736 40.9294 71.3245 39.3977C72.1754 37.866 69.1263 36.9158 67.4953 36.6322C68.7717 36.6322 72.3882 35.5685 71.75 34.0794C71.2394 32.8881 68.4172 34.0085 67.0698 34.7176C67.708 34.2921 69.6226 30.8884 68.1335 30.2502C66.9422 29.7396 65.7934 32.5902 65.368 34.0794C65.368 33.4412 64.5171 29.612 63.028 30.2502Z" fill="#E56610" stroke="black" stroke-width="0.575893"/>
<circle cx="65.4276" cy="36.3485" r="1.20119" fill="#FFB42E" stroke="black" stroke-width="0.575893"/>
<path d="M84.5504 51.3633C82.2048 45.1569 75.8967 29.5346 72.8587 31.8132C70.9968 33.2096 72.9681 52.7598 84.5504 51.3633C84.5756 51.6769 84.6025 51.9873 84.6308 52.2943C94.0485 51.5495 100.322 38.3299 99.391 37.8644C91.9434 37.492 86.4477 47.3292 84.6308 52.2943C84.6025 51.9873 84.5756 51.6769 84.5504 51.3633Z" fill="#237C1D"/>
<path d="M85.8921 60.6729C85.4108 58.5068 84.9356 55.6003 84.6308 52.2943M90.0814 22.0381C84.4708 29.7861 83.7961 41.9909 84.5504 51.3633M84.5504 51.3633C82.2048 45.1569 75.8967 29.5346 72.8587 31.8132C70.9968 33.2096 72.9681 52.7598 84.5504 51.3633ZM84.5504 51.3633C84.5756 51.6769 84.6025 51.9873 84.6308 52.2943M84.6308 52.2943C86.4477 47.3292 91.9434 37.492 99.391 37.8644C100.322 38.3299 94.0485 51.5495 84.6308 52.2943Z" stroke="black" stroke-width="0.575893" stroke-linecap="round"/>
<path d="M96.5616 7.27162C98.7128 8.19356 96.6897 13.0338 95.4092 15.3386C97.8422 13.2899 102.939 9.88379 103.861 12.6496C104.782 15.4154 99.8911 17.6435 97.3302 18.4118C100.147 18.9239 105.397 20.4861 103.861 22.6373C102.324 24.7885 97.5861 22.7654 95.4092 21.4849C97.33 24.0458 100.48 29.2446 97.7142 29.5519C94.9484 29.8592 92.9764 24.8141 92.3362 22.2532C92.3362 25.3263 91.5679 31.2421 88.4948 30.3202C85.4216 29.3982 88.2387 24.0458 90.0314 21.4849C87.8545 23.4056 83.1168 26.5556 81.5802 23.7897C80.0437 21.0239 85.5497 19.3081 88.4948 18.7959C86.1899 18.7959 79.6595 16.8752 80.8119 14.1862C81.7339 12.035 86.8302 14.0581 89.2631 15.3386C88.1106 14.5703 84.6534 8.42405 87.3424 7.27162C89.4936 6.34967 91.5679 11.4972 92.3362 14.1862C92.3362 13.0338 93.8726 6.11919 96.5616 7.27162Z" fill="#E56610" stroke="black" stroke-width="0.575893"/>
<circle cx="2.689" cy="2.689" r="2.40105" transform="matrix(-1 -8.74228e-08 -8.74228e-08 1 94.917 15.5938)" fill="#FFB42E" stroke="black" stroke-width="0.575893"/>
<path d="M21.5865 45.2208C19.2409 39.0144 12.9329 23.392 9.89481 25.6706C8.03288 27.067 10.0043 46.6172 21.5865 45.2208C21.6118 45.5343 21.6386 45.8448 21.6669 46.1517C31.0846 45.407 37.3583 32.1873 36.4272 31.7218C28.9795 31.3495 23.4838 41.1866 21.6669 46.1517C21.6386 45.8448 21.6118 45.5343 21.5865 45.2208Z" fill="#25861F"/>
<path d="M22.9283 54.5304C22.4469 52.3643 21.9718 49.4577 21.6669 46.1517M27.1176 15.8955C21.5069 23.6435 20.8323 35.8483 21.5865 45.2208M21.5865 45.2208C19.2409 39.0144 12.9329 23.392 9.8948 25.6706C8.03288 27.067 10.0043 46.6172 21.5865 45.2208ZM21.5865 45.2208C21.6118 45.5343 21.6386 45.8448 21.6669 46.1517M21.6669 46.1517C23.4838 41.1866 28.9795 31.3495 36.4272 31.7218C37.3583 32.1873 31.0846 45.407 21.6669 46.1517Z" stroke="black" stroke-width="0.575893" stroke-linecap="round"/>
<path d="M33.5978 1.12904C35.749 2.05098 33.7258 6.89118 32.4453 9.19603C34.8783 7.14727 39.9748 3.74122 40.8967 6.50704C41.8186 9.27286 36.9272 11.5009 34.3663 12.2692C37.1833 12.7814 42.4333 14.3435 40.8967 16.4947C39.3601 18.6459 34.6222 16.6228 32.4453 15.3423C34.3661 17.9033 37.5162 23.102 34.7503 23.4093C31.9845 23.7166 30.0126 18.6715 29.3723 16.1106C29.3723 19.1837 28.6041 25.0995 25.5309 24.1776C22.4578 23.2556 25.2748 17.9033 27.0675 15.3423C24.8907 17.263 20.1529 20.413 18.6164 17.6472C17.0798 14.8813 22.5858 13.1655 25.5309 12.6533C23.2261 12.6533 16.6956 10.7326 17.8481 8.0436C18.77 5.8924 23.8663 7.91555 26.2992 9.19603C25.1468 8.42774 21.6895 2.28147 24.3785 1.12904C26.5297 0.207097 28.6041 5.35461 29.3723 8.0436C29.3723 6.89118 30.9088 -0.0233845 33.5978 1.12904Z" fill="white" stroke="black" stroke-width="0.575893"/>
<circle cx="2.689" cy="2.689" r="2.40105" transform="matrix(-1 -8.74228e-08 -8.74228e-08 1 31.9541 9.45117)" fill="#E56610" stroke="black" stroke-width="0.575893"/>
<path d="M99.7621 52.022C101.328 47.8788 105.539 37.4498 107.567 38.9709C108.81 39.9031 107.494 52.9542 99.7621 52.022C99.7452 52.2313 99.7273 52.4385 99.7084 52.6434C93.4215 52.1463 89.2334 43.3212 89.8549 43.0105C94.8268 42.7619 98.4955 49.3289 99.7084 52.6434C99.7273 52.4385 99.7452 52.2313 99.7621 52.022Z" fill="#25861F"/>
<path d="M98.8664 58.2368C99.1878 56.7907 99.5049 54.8504 99.7084 52.6434M96.0697 32.4453C99.8152 37.6177 100.266 45.7652 99.7621 52.022M99.7621 52.022C101.328 47.8788 105.539 37.4498 107.567 38.9709C108.81 39.9031 107.494 52.9542 99.7621 52.022ZM99.7621 52.022C99.7452 52.2313 99.7273 52.4385 99.7084 52.6434M99.7084 52.6434C98.4955 49.3289 94.8268 42.7619 89.8549 43.0105C89.2334 43.3212 93.4215 52.1463 99.7084 52.6434Z" stroke="black" stroke-width="0.575893" stroke-linecap="round"/>
<path d="M91.7444 22.5871C90.3083 23.2026 91.6589 26.4337 92.5137 27.9724C90.8895 26.6047 87.4873 24.3309 86.8718 26.1773C86.2564 28.0237 89.5217 29.511 91.2313 30.0239C89.3508 30.3659 85.8461 31.4087 86.8718 32.8448C87.8976 34.2809 91.0605 32.9303 92.5137 32.0755C91.2315 33.7851 89.1286 37.2556 90.975 37.4607C92.8214 37.6659 94.1378 34.298 94.5652 32.5883C94.5652 34.6399 95.078 38.5891 97.1296 37.9736C99.1811 37.3582 97.3005 33.7851 96.1038 32.0755C97.557 33.3577 100.72 35.4605 101.746 33.6141C102.771 31.7677 99.0956 30.6223 97.1296 30.2804C98.6682 30.2804 103.028 28.9982 102.258 27.2031C101.643 25.767 98.2408 27.1176 96.6167 27.9724C97.386 27.4595 99.694 23.3565 97.8989 22.5871C96.4628 21.9717 95.078 25.408 94.5652 27.2031C94.5652 26.4337 93.5395 21.8178 91.7444 22.5871Z" fill="white" stroke="black" stroke-width="0.575893"/>
<circle cx="94.6369" cy="29.9367" r="1.50714" fill="#E56610" stroke="black" stroke-width="0.575893"/>
<path d="M75.6293 52.3649C74.3303 48.9279 70.837 40.2765 69.1545 41.5383C68.1234 42.3116 69.2152 53.1383 75.6293 52.3649C75.6433 52.5386 75.6581 52.7105 75.6738 52.8805C80.8892 52.4681 84.3635 45.1472 83.8478 44.8894C79.7234 44.6832 76.68 50.1309 75.6738 52.8805C75.6581 52.7105 75.6433 52.5386 75.6293 52.3649Z" fill="#25861F"/>
<path d="M76.3723 57.5205C76.1057 56.3209 75.8426 54.7113 75.6738 52.8805M78.6923 36.125C75.5852 40.4158 75.2116 47.1746 75.6293 52.3649M75.6293 52.3649C74.3303 48.9279 70.837 40.2765 69.1545 41.5383C68.1234 42.3116 69.2152 53.1383 75.6293 52.3649ZM75.6293 52.3649C75.6433 52.5386 75.6581 52.7105 75.6738 52.8805M75.6738 52.8805C76.68 50.1309 79.7234 44.6832 83.8478 44.8894C84.3635 45.1472 80.8892 52.4681 75.6738 52.8805Z" stroke="black" stroke-width="0.575893" stroke-linecap="round"/>
<path d="M82.2816 27.9474C83.4729 28.458 82.3525 31.1384 81.6434 32.4148C82.9907 31.2803 85.8131 29.394 86.3236 30.9257C86.8342 32.4574 84.1254 33.6912 82.7072 34.1167C84.2672 34.4003 87.1746 35.2655 86.3236 36.4568C85.4727 37.6481 82.8489 36.5277 81.6434 35.8186C82.7071 37.2368 84.4515 40.1158 82.9199 40.286C81.3882 40.4561 80.2961 37.6622 79.9416 36.244C79.9416 37.9459 79.5161 41.222 77.8143 40.7114C76.1124 40.2009 77.6724 37.2368 78.6652 35.8186C77.4597 36.8822 74.836 38.6266 73.9851 37.095C73.1341 35.5633 76.1833 34.6131 77.8143 34.3294C76.5379 34.3294 72.9214 33.2658 73.5596 31.7766C74.0702 30.5853 76.8924 31.7057 78.2397 32.4148C77.6015 31.9894 75.6869 28.5856 77.1761 27.9474C78.3674 27.4369 79.5161 30.2875 79.9416 31.7766C79.9416 31.1384 80.7924 27.3092 82.2816 27.9474Z" fill="white" stroke="black" stroke-width="0.575893"/>
<circle cx="1.48913" cy="1.48913" r="1.20119" transform="matrix(-1 -8.74228e-08 -8.74228e-08 1 81.3711 32.5576)" fill="#E56610" stroke="black" stroke-width="0.575893"/>
<path d="M32.8238 54.6667C34.1228 51.2297 37.6161 42.5782 39.2986 43.8401C40.3297 44.6134 39.238 55.44 32.8238 54.6667C32.8099 54.8404 32.795 55.0123 32.7793 55.1823C27.5639 54.7698 24.0897 47.449 24.6053 47.1912C28.7297 46.985 31.7732 52.4326 32.7793 55.1823C32.795 55.0123 32.8099 54.8404 32.8238 54.6667Z" fill="#237C1D"/>
<path d="M32.0808 59.8222C32.3474 58.6227 32.6105 57.0131 32.7793 55.1823M29.7608 38.4268C32.8679 42.7175 33.2416 49.4764 32.8238 54.6667M32.8238 54.6667C34.1228 51.2297 37.6161 42.5782 39.2986 43.8401C40.3297 44.6134 39.238 55.44 32.8238 54.6667ZM32.8238 54.6667C32.8099 54.8404 32.795 55.0123 32.7793 55.1823M32.7793 55.1823C31.7732 52.4326 28.7297 46.985 24.6053 47.1912C24.0897 47.449 27.5639 54.7698 32.7793 55.1823Z" stroke="black" stroke-width="0.575893" stroke-linecap="round"/>
<path d="M26.1715 30.2502C24.9802 30.7607 26.1006 33.4412 26.8097 34.7176C25.4624 33.583 22.64 31.6968 22.1295 33.2284C21.6189 34.7601 24.3277 35.994 25.7459 36.4194C24.1859 36.7031 21.2786 37.5682 22.1295 38.7595C22.9804 39.9508 25.6042 38.8304 26.8097 38.1213C25.7461 39.5395 24.0016 42.4185 25.5333 42.5887C27.0649 42.7589 28.157 39.965 28.5115 38.5468C28.5115 40.2486 28.937 43.5247 30.6389 43.0142C32.3407 42.5036 30.7807 39.5395 29.7879 38.1213C30.9934 39.185 33.6171 40.9294 34.4681 39.3977C35.319 37.866 32.2698 36.9158 30.6389 36.6322C31.9153 36.6322 35.5317 35.5685 34.8935 34.0794C34.383 32.8881 31.5607 34.0085 30.2134 34.7176C30.8516 34.2921 32.7662 30.8884 31.2771 30.2502C30.0858 29.7396 28.937 32.5902 28.5115 34.0794C28.5115 33.4412 27.6607 29.612 26.1715 30.2502Z" fill="#E56610" stroke="black" stroke-width="0.575893"/>
<circle cx="28.5712" cy="36.3475" r="1.20119" fill="#FFB42E" stroke="black" stroke-width="0.575893"/>
<path d="M13.7621 52.5141C15.328 48.3709 19.539 37.942 21.5671 39.4631C22.8101 40.3953 21.4941 53.4464 13.7621 52.5141C13.7452 52.7235 13.7273 52.9307 13.7084 53.1356C7.42147 52.6384 3.23337 43.8134 3.85494 43.5027C8.82679 43.2541 12.4955 49.8211 13.7084 53.1356C13.7273 52.9307 13.7452 52.7235 13.7621 52.5141Z" fill="#237C1D"/>
<path d="M12.8664 58.729C13.1878 57.2829 13.5049 55.3426 13.7084 53.1356M10.0697 32.9375C13.8152 38.1099 14.2656 46.2574 13.7621 52.5141M13.7621 52.5141C15.328 48.3709 19.539 37.942 21.5671 39.463C22.8101 40.3953 21.4941 53.4464 13.7621 52.5141ZM13.7621 52.5141C13.7452 52.7235 13.7273 52.9307 13.7084 53.1356M13.7084 53.1356C12.4955 49.8211 8.82679 43.2541 3.85494 43.5027C3.23337 43.8134 7.42147 52.6384 13.7084 53.1356Z" stroke="black" stroke-width="0.575893" stroke-linecap="round"/>
<path d="M5.74342 23.0803C4.30735 23.6957 5.65794 26.9269 6.51275 28.4656C4.88855 27.0979 1.48631 24.8241 0.870863 26.6705C0.255421 28.5169 3.52077 30.0042 5.23037 30.5171C3.3498 30.859 -0.154904 31.9019 0.870863 33.338C1.89663 34.774 5.05952 33.4234 6.51275 32.5686C5.23051 34.2782 3.12762 37.7487 4.974 37.9539C6.82038 38.1591 8.13678 34.7911 8.56418 33.0815C8.56418 35.133 9.07707 39.0822 11.1286 38.4668C13.1801 37.8513 11.2996 34.2782 10.1028 32.5686C11.556 33.8508 14.7188 35.9537 15.7445 34.1073C16.7703 32.2609 13.0947 31.1155 11.1286 30.7735C12.6672 30.7735 17.0268 29.4913 16.2574 27.6962C15.642 26.2602 12.2398 27.6108 10.6157 28.4656C11.385 27.9527 13.693 23.8496 11.8979 23.0803C10.4619 22.4648 9.07707 25.9011 8.56418 27.6962C8.56418 26.9269 7.53851 22.311 5.74342 23.0803Z" fill="#E56610" stroke="black" stroke-width="0.575893"/>
<circle cx="8.63591" cy="30.4308" r="1.50714" fill="#FFB42E" stroke="black" stroke-width="0.575893"/>
</svg>
