<svg width="901" height="412" viewBox="0 0 901 412" fill="none" xmlns="http://www.w3.org/2000/svg">
<g clip-path="url(#clip0_495_4579)">
<rect width="412" height="901" transform="translate(0 412) rotate(-90)" fill="white"/>
<rect y="-2" width="901" height="414" fill="#C7E9FA"/>
<mask id="mask0_495_4579" style="mask-type:alpha" maskUnits="userSpaceOnUse" x="0" y="221" width="901" height="161">
<rect y="221.5" width="901" height="160" fill="#D9D9D9"/>
</mask>
<g mask="url(#mask0_495_4579)">
<path d="M725.602 301.393L1170.51 270.149C1314.77 260.018 1459.73 268.098 1601.97 294.198V294.198C1759.95 323.185 1921.21 329.931 2081.06 314.238L2233.94 299.23C2358.19 287.032 2483.32 286.496 2607.67 297.628L2884.76 322.434C2999.66 332.72 3115.24 333.046 3230.2 323.407L3583.24 293.806C3685.76 285.21 3788.8 284.538 3891.43 291.795L4580.82 340.547C4678.22 347.435 4776 347.18 4873.36 339.786L5378.89 301.393L5378.89 381.393L725.602 381.393L725.602 301.393Z" fill="#5B9B40"/>
<path d="M877.324 281.806C879.829 285.562 879.61 291.907 879.188 294.61L926.933 291.447C925.952 288.898 927.466 284.011 928.346 281.886C925.842 282.052 923.975 285.219 923.354 286.782L921.358 281.195L919.911 284.703C919.581 282.88 917.691 281.807 916.787 281.498C916.918 283.335 915.987 286.133 915.505 287.302L912.573 278.413C912.508 280.302 911.344 283.797 910.77 285.309C909.963 284.632 908.744 281.871 908.235 280.575C908.162 281.233 907.023 284.804 906.463 286.508C905.88 285.623 905.386 283.311 905.211 282.265C904.568 282.769 903.012 287.121 902.315 289.233C902.255 288.392 899.275 283.027 897.793 280.45C898.849 285.724 897.306 288.764 896.403 289.625C896.351 288.898 894.988 285.666 894.313 284.141C894.254 286.105 893.032 288.791 892.428 289.889C890.46 286.943 889.985 282.713 889.993 280.967C888.233 283.16 887.388 286.426 887.186 287.785C886.557 287.365 885.979 285.558 885.768 284.707L884.23 290.432C883.834 285.998 879.461 282.834 877.324 281.806Z" fill="#5B9B40"/>
<path d="M830.621 285.501C833.332 289.304 833.315 295.865 832.968 298.67L882.181 293.945C881.084 291.341 882.487 286.247 883.326 284.025C880.745 284.273 878.921 287.602 878.332 289.235L876.085 283.526L874.707 287.193C874.306 285.32 872.318 284.269 871.374 283.978C871.57 285.871 870.7 288.79 870.24 290.012L866.919 280.92C866.915 282.872 865.827 286.519 865.284 288.098C864.428 287.423 863.078 284.608 862.509 283.285C862.456 283.968 861.397 287.691 860.874 289.467C860.244 288.572 859.656 286.198 859.442 285.124C858.794 285.664 857.33 290.206 856.679 292.41C856.589 291.542 853.335 286.092 851.72 283.475C852.984 288.891 851.49 292.078 850.585 292.995C850.508 292.245 848.994 288.948 848.246 287.394C848.25 289.425 847.076 292.236 846.488 293.388C844.359 290.406 843.728 286.051 843.679 284.247C841.934 286.566 841.169 289.965 841.004 291.375C840.341 290.961 839.684 289.112 839.438 288.239L838.039 294.2C837.483 289.632 832.862 286.497 830.621 285.501Z" fill="#5B9B40"/>
<path d="M696.519 290.445C698.75 294.358 698.079 300.674 697.465 303.343L745.322 303.343C744.525 300.734 746.385 295.959 747.414 293.897C744.904 293.897 742.816 296.934 742.085 298.452L740.492 292.747L738.799 296.151C738.599 294.31 736.79 293.114 735.91 292.747C735.91 294.588 734.781 297.318 734.217 298.452L731.926 289.391C731.727 291.27 730.316 294.681 729.635 296.151C728.878 295.422 727.859 292.587 727.444 291.26C727.325 291.913 725.934 295.4 725.253 297.062C724.735 296.141 724.406 293.802 724.307 292.747C723.63 293.207 721.767 297.445 720.92 299.507C720.92 298.663 718.331 293.114 717.036 290.445C717.713 295.777 715.957 298.708 714.994 299.507C714.994 298.778 713.865 295.464 713.301 293.897C713.102 295.854 711.691 298.452 711.01 299.507C709.257 296.439 709.085 292.187 709.217 290.445C707.305 292.517 706.23 295.719 705.931 297.062C705.333 296.602 704.885 294.76 704.736 293.897L702.793 299.507C702.714 295.058 698.577 291.612 696.519 290.445Z" fill="#5B9B40"/>
<path d="M786.759 287.346C789.227 291.124 788.946 297.467 788.497 300.167L836.271 297.437C835.315 294.879 836.877 290.006 837.778 287.889C835.272 288.032 833.374 291.183 832.739 292.74L830.797 287.135L829.316 290.63C829.004 288.803 827.124 287.713 826.223 287.397C826.337 289.234 825.378 292.024 824.884 293.189L822.04 284.274C821.957 286.161 820.758 289.646 820.169 291.153C819.368 290.468 818.177 287.696 817.681 286.396C817.602 287.053 816.427 290.614 815.85 292.312C815.277 291.422 814.805 289.106 814.64 288.058C813.993 288.556 812.394 292.894 811.676 295C811.624 294.158 808.697 288.766 807.241 286.176C808.245 291.459 806.672 294.485 805.76 295.338C805.715 294.61 804.384 291.366 803.725 289.835C803.646 291.799 802.398 294.473 801.783 295.565C799.844 292.602 799.41 288.368 799.436 286.622C797.654 288.798 796.778 292.057 796.562 293.414C795.937 292.989 795.376 291.176 795.174 290.323L793.581 296.034C793.227 291.597 788.886 288.393 786.759 287.346Z" fill="#5B9B40"/>
<path d="M740.271 291.782C743.037 295.548 743.116 302.109 742.81 304.918L791.95 299.526C790.815 296.938 792.143 291.825 792.949 289.592C790.372 289.875 788.597 293.228 788.032 294.869L785.702 289.19L784.377 292.877C783.949 291.009 781.946 289.985 780.997 289.707C781.221 291.597 780.394 294.527 779.953 295.756L776.499 286.71C776.523 288.662 775.489 292.323 774.968 293.909C774.103 293.246 772.711 290.45 772.124 289.134C772.081 289.817 771.076 293.555 770.579 295.338C769.936 294.451 769.314 292.086 769.083 291.014C768.444 291.563 767.047 296.125 766.428 298.337C766.325 297.471 762.992 292.065 761.338 289.47C762.682 294.868 761.234 298.076 760.343 299.005C760.254 298.257 758.692 294.98 757.923 293.436C757.956 295.467 756.823 298.294 756.252 299.454C754.079 296.501 753.385 292.155 753.31 290.351C751.598 292.694 750.883 296.103 750.739 297.515C750.07 297.11 749.386 295.27 749.128 294.401L747.815 300.38C747.193 295.82 742.526 292.748 740.271 291.782Z" fill="#5B9B40"/>
<path d="M-1.54883 300.945L433.563 269.711C574.748 259.576 716.65 267.655 855.772 293.749V293.749C1010.29 322.731 1168.15 329.476 1324.58 313.778L1465.84 299.602C1592.82 286.86 1720.72 286.3 1847.8 297.929L2103.14 321.295C2220.56 332.041 2338.71 332.381 2456.19 322.312L2787.25 293.937C2892.03 284.956 2997.35 284.254 3102.24 291.836L3763.48 339.636C3863.03 346.832 3962.98 346.566 4062.49 338.841L4550.62 300.945L5452 339.945L5452 380.945L4550.62 380.945L-1.54883 380.945L-1.54883 300.945Z" fill="#70AE3E"/>
<path d="M508.538 257C510.721 260.912 510.065 267.228 509.464 269.897L556.281 269.897C555.502 267.289 557.321 262.514 558.327 260.452C555.872 260.452 553.829 263.489 553.115 265.007L551.556 259.301L549.899 262.706C549.704 260.864 547.934 259.669 547.074 259.301C547.074 261.143 545.969 263.872 545.417 265.007L543.176 255.945C542.981 257.825 541.601 261.235 540.935 262.706C540.195 261.977 539.198 259.142 538.792 257.815C538.675 258.467 537.314 261.954 536.648 263.617C536.141 262.696 535.82 260.356 535.723 259.301C535.06 259.762 533.238 264 532.41 266.062C532.41 265.218 529.876 259.669 528.61 257C529.272 262.332 527.554 265.263 526.612 266.062C526.612 265.333 525.508 262.018 524.956 260.452C524.761 262.408 523.381 265.007 522.715 266.062C521 262.993 520.831 258.742 520.961 257C519.09 259.071 518.038 262.274 517.746 263.617C517.161 263.156 516.723 261.315 516.576 260.452L514.677 266.062C514.599 261.612 510.552 258.167 508.538 257Z" fill="#70AE3E"/>
<path d="M327.67 265C329.853 268.912 329.197 275.228 328.596 277.897L375.414 277.897C374.634 275.289 376.453 270.514 377.46 268.452C375.004 268.452 372.962 271.489 372.247 273.007L370.688 267.301L369.032 270.706C368.837 268.864 367.067 267.669 366.206 267.301C366.206 269.143 365.102 271.872 364.55 273.007L362.309 263.945C362.114 265.825 360.733 269.235 360.068 270.706C359.327 269.977 358.33 267.142 357.924 265.815C357.807 266.467 356.446 269.954 355.78 271.617C355.274 270.696 354.952 268.356 354.855 267.301C354.192 267.762 352.37 272 351.542 274.062C351.542 273.218 349.009 267.669 347.742 265C348.405 270.332 346.687 273.263 345.745 274.062C345.745 273.333 344.64 270.018 344.088 268.452C343.893 270.408 342.513 273.007 341.847 274.062C340.132 270.993 339.963 266.742 340.093 265C338.223 267.071 337.17 270.274 336.878 271.617C336.293 271.156 335.855 269.315 335.709 268.452L333.809 274.062C333.731 269.612 329.684 266.167 327.67 265Z" fill="#70AE3E"/>
<path d="M415.951 261.901C418.365 265.679 418.09 272.022 417.651 274.721L464.386 271.992C463.451 269.434 464.979 264.561 465.86 262.444C463.409 262.587 461.553 265.737 460.931 267.295L459.031 261.69L457.583 265.185C457.277 263.358 455.438 262.268 454.557 261.951C454.668 263.789 453.73 266.578 453.247 267.743L450.465 258.828C450.383 260.716 449.211 264.201 448.634 265.707C447.851 265.023 446.685 262.251 446.2 260.95C446.123 261.608 444.974 265.169 444.41 266.867C443.848 265.977 443.387 263.66 443.226 262.613C442.592 263.111 441.029 267.448 440.326 269.555C440.275 268.712 437.412 263.321 435.987 260.73C436.969 266.014 435.431 269.04 434.539 269.893C434.495 269.165 433.193 265.921 432.547 264.389C432.471 266.354 431.249 269.028 430.648 270.12C428.752 267.157 428.327 262.923 428.352 261.176C426.609 263.353 425.751 266.611 425.54 267.969C424.929 267.543 424.381 265.731 424.183 264.878L422.624 270.588C422.278 266.151 418.031 262.948 415.951 261.901Z" fill="#70AE3E"/>
<path d="M236.998 273.901C239.412 277.679 239.138 284.022 238.698 286.721L285.434 283.992C284.499 281.434 286.027 276.561 286.908 274.444C284.457 274.587 282.6 277.737 281.978 279.295L280.079 273.69L278.63 277.185C278.325 275.358 276.486 274.268 275.605 273.951C275.715 275.789 274.777 278.578 274.294 279.743L271.512 270.828C271.431 272.716 270.258 276.201 269.682 277.707C268.899 277.023 267.733 274.251 267.248 272.95C267.17 273.608 266.022 277.169 265.457 278.867C264.896 277.977 264.434 275.66 264.273 274.613C263.64 275.111 262.076 279.448 261.373 281.555C261.322 280.712 258.46 275.321 257.034 272.73C258.017 278.014 256.478 281.04 255.586 281.893C255.542 281.165 254.24 277.921 253.595 276.389C253.518 278.354 252.297 281.028 251.695 282.12C249.799 279.157 249.374 274.923 249.399 273.176C247.656 275.353 246.799 278.611 246.588 279.969C245.977 279.543 245.428 277.731 245.23 276.878L243.671 282.588C243.326 278.151 239.078 274.948 236.998 273.901Z" fill="#70AE3E"/>
<path d="M462.873 258.778C465.348 262.695 465.03 269.249 464.562 272.036L512.874 269.455C511.921 266.807 513.526 261.779 514.448 259.596C511.914 259.731 509.979 262.977 509.328 264.583L507.395 258.782L505.879 262.386C505.573 260.497 503.679 259.361 502.77 259.029C502.874 260.929 501.89 263.806 501.385 265.008L498.557 255.78C498.463 257.73 497.232 261.326 496.629 262.88C495.823 262.169 494.633 259.298 494.139 257.952C494.055 258.631 492.849 262.304 492.257 264.056C491.682 263.134 491.217 260.738 491.056 259.654C490.399 260.166 488.76 264.64 488.022 266.813C487.974 265.942 485.044 260.356 483.585 257.672C484.572 263.137 482.966 266.256 482.04 267.133C481.998 266.381 480.67 263.021 480.011 261.435C479.922 263.465 478.645 266.222 478.018 267.347C476.074 264.276 475.658 259.898 475.693 258.093C473.88 260.334 472.976 263.697 472.751 265.098C472.122 264.655 471.564 262.78 471.364 261.897L469.723 267.79C469.389 263.203 465.017 259.871 462.873 258.778Z" fill="#70AE3E"/>
<path d="M282.033 270.024C284.606 273.88 284.453 280.439 284.054 283.237L332.287 279.483C331.268 276.858 332.746 271.793 333.613 269.588C331.083 269.785 329.23 273.077 328.62 274.699L326.541 268.946L325.117 272.586C324.764 270.705 322.841 269.615 321.924 269.305C322.076 271.202 321.165 274.103 320.69 275.316L317.631 266.16C317.586 268.112 316.446 271.736 315.882 273.304C315.059 272.613 313.797 269.772 313.269 268.438C313.202 269.119 312.089 272.821 311.54 274.587C310.942 273.679 310.417 271.294 310.23 270.215C309.585 270.743 308.059 275.255 307.376 277.446C307.307 276.576 304.237 271.063 302.711 268.415C303.835 273.854 302.308 277.012 301.404 277.91C301.343 277.16 299.931 273.833 299.233 272.264C299.194 274.295 297.987 277.083 297.389 278.223C295.368 275.199 294.842 270.833 294.832 269.028C293.076 271.312 292.257 274.696 292.067 276.102C291.426 275.675 290.822 273.813 290.6 272.936L289.107 278.867C288.659 274.29 284.204 271.065 282.033 270.024Z" fill="#70AE3E"/>
<path d="M370.473 266.337C373.179 270.103 373.256 276.663 372.957 279.473L421.029 274.081C419.918 271.492 421.218 266.379 422.006 264.147C419.485 264.429 417.749 267.783 417.196 269.424L414.916 263.745L413.62 267.431C413.201 265.563 411.242 264.54 410.314 264.261C410.533 266.152 409.724 269.082 409.292 270.31L405.913 261.264C405.937 263.216 404.925 266.877 404.416 268.464C403.569 267.801 402.208 265.004 401.634 263.689C401.591 264.372 400.609 268.11 400.123 269.893C399.493 269.006 398.884 266.641 398.659 265.569C398.033 266.118 396.667 270.68 396.061 272.892C395.961 272.025 392.7 266.62 391.082 264.025C392.396 269.423 390.981 272.631 390.109 273.56C390.022 272.811 388.494 269.535 387.741 267.99C387.773 270.021 386.665 272.849 386.107 274.008C383.981 271.055 383.302 266.71 383.228 264.906C381.554 267.248 380.854 270.658 380.714 272.07C380.059 271.665 379.39 269.825 379.137 268.956L377.853 274.934C377.244 270.375 372.679 267.303 370.473 266.337Z" fill="#70AE3E"/>
<path d="M191.61 277.695C194.22 281.526 194.131 288.087 193.761 290.888L241.954 286.676C240.909 284.061 242.338 278.982 243.183 276.769C240.655 276.99 238.835 280.299 238.24 281.927L236.105 276.194L234.716 279.847C234.345 277.969 232.412 276.898 231.492 276.597C231.663 278.492 230.779 281.401 230.317 282.619L227.168 273.493C227.142 275.445 226.038 279.08 225.489 280.653C224.659 279.97 223.369 277.141 222.828 275.812C222.768 276.494 221.691 280.206 221.16 281.977C220.553 281.075 220.005 278.695 219.807 277.618C219.168 278.152 217.686 282.679 217.025 284.875C216.946 284.007 213.823 278.523 212.271 275.889C213.449 281.318 211.952 284.49 211.057 285.397C210.989 284.647 209.545 281.334 208.831 279.771C208.812 281.803 207.632 284.602 207.045 285.748C204.995 282.743 204.426 278.382 204.398 276.577C202.664 278.878 201.879 282.269 201.703 283.678C201.058 283.256 200.436 281.401 200.205 280.525L198.77 286.471C198.277 281.898 193.791 278.715 191.61 277.695Z" fill="#70AE3E"/>
<path d="M146.877 281.361C149.327 285.117 149.113 291.462 148.7 294.165L195.407 291.002C194.448 288.452 195.929 283.565 196.79 281.44C194.34 281.606 192.514 284.774 191.907 286.337L189.953 280.75L188.538 284.258C188.216 282.434 186.366 281.361 185.482 281.053C185.61 282.89 184.699 285.688 184.228 286.857L181.36 277.968C181.296 279.856 180.157 283.352 179.596 284.864C178.806 284.187 177.613 281.426 177.116 280.13C177.045 280.788 175.93 284.359 175.382 286.062C174.812 285.178 174.328 282.866 174.158 281.82C173.529 282.324 172.007 286.675 171.324 288.788C171.265 287.946 168.351 282.582 166.901 280.005C167.934 285.279 166.424 288.319 165.541 289.18C165.49 288.453 164.157 285.221 163.497 283.695C163.439 285.66 162.243 288.346 161.652 289.443C159.727 286.498 159.262 282.268 159.27 280.521C157.549 282.714 156.722 285.98 156.524 287.34C155.909 286.92 155.343 285.113 155.137 284.262L153.633 289.986C153.245 285.553 148.967 282.389 146.877 281.361Z" fill="#70AE3E"/>
<path d="M101.188 285.055C103.84 288.858 103.824 295.419 103.484 298.225L151.628 293.499C150.555 290.896 151.928 285.802 152.748 283.58C150.223 283.828 148.439 287.157 147.862 288.79L145.665 283.08L144.316 286.748C143.924 284.874 141.979 283.824 141.055 283.533C141.247 285.426 140.396 288.344 139.947 289.567L136.698 280.475C136.693 282.427 135.629 286.074 135.098 287.653C134.26 286.978 132.94 284.163 132.384 282.84C132.332 283.522 131.296 287.246 130.784 289.022C130.167 288.127 129.593 285.753 129.383 284.678C128.749 285.218 127.317 289.761 126.68 291.964C126.592 291.097 123.409 285.646 121.828 283.03C123.065 288.445 121.604 291.633 120.719 292.55C120.643 291.8 119.162 288.503 118.431 286.948C118.434 288.979 117.286 291.791 116.711 292.943C114.628 289.961 114.011 285.606 113.963 283.802C112.255 286.12 111.507 289.52 111.346 290.93C110.697 290.516 110.054 288.667 109.814 287.794L108.445 293.754C107.901 289.187 103.38 286.052 101.188 285.055Z" fill="#70AE3E"/>
<path d="M-30 290C-27.8175 293.912 -28.4735 300.228 -29.0744 302.897L17.7432 302.897C16.9638 300.289 18.7826 295.514 19.7894 293.452C17.334 293.452 15.2911 296.489 14.5766 298.007L13.0176 292.301L11.3612 295.706C11.1664 293.864 9.3963 292.669 8.53562 292.301C8.53562 294.143 7.43135 296.872 6.87922 298.007L4.63821 288.945C4.44334 290.825 3.06301 294.235 2.39721 295.706C1.6567 294.977 0.659609 292.142 0.25363 290.815C0.136707 291.467 -1.22414 294.954 -1.88995 296.617C-2.39661 295.696 -2.71814 293.356 -2.81558 292.301C-3.47814 292.762 -5.30018 297 -6.12838 299.062C-6.12838 298.218 -8.66169 292.669 -9.92835 290C-9.26579 295.332 -10.9839 298.263 -11.9258 299.062C-11.9258 298.333 -13.03 295.018 -13.5822 293.452C-13.777 295.408 -15.1574 298.007 -15.8232 299.062C-17.538 295.993 -17.7069 291.742 -17.577 290C-19.4478 292.071 -20.5001 295.274 -20.7924 296.617C-21.377 296.156 -21.8154 294.315 -21.9616 293.452L-23.8616 299.062C-23.9395 294.612 -27.9863 291.167 -30 290Z" fill="#70AE3E"/>
<path d="M58.2798 286.901C60.694 290.679 60.4193 297.022 59.9802 299.721L106.716 296.992C105.78 294.434 107.309 289.561 108.19 287.444C105.738 287.587 103.882 290.737 103.26 292.295L101.36 286.69L99.9118 290.185C99.6065 288.358 97.7676 287.268 96.8863 286.951C96.9971 288.789 96.0591 291.578 95.5762 292.743L92.7937 283.828C92.7123 285.716 91.5397 289.201 90.9636 290.707C90.1805 290.023 89.0145 287.251 88.5294 285.95C88.4519 286.608 87.3034 290.169 86.7388 291.867C86.1776 290.977 85.7158 288.66 85.555 287.613C84.9213 288.111 83.3576 292.448 82.655 294.555C82.6042 293.712 79.7413 288.321 78.3162 285.73C79.2985 291.014 77.7599 294.04 76.8678 294.893C76.8239 294.165 75.522 290.921 74.8766 289.389C74.7998 291.354 73.5783 294.028 72.9772 295.12C71.0806 292.157 70.6561 287.923 70.681 286.176C68.9382 288.353 68.0805 291.611 67.8695 292.969C67.2582 292.543 66.7097 290.731 66.5119 289.878L64.9529 295.588C64.6073 291.151 60.3602 287.948 58.2798 286.901Z" fill="#70AE3E"/>
<path d="M12.8022 291.337C15.5085 295.103 15.586 301.663 15.2864 304.473L63.3583 299.081C62.2477 296.492 63.5474 291.379 64.336 289.147C61.8148 289.429 60.0783 292.783 59.5252 294.424L57.246 288.745L55.95 292.431C55.531 290.563 53.5713 289.54 52.6439 289.261C52.8628 291.152 52.0536 294.082 51.6216 295.31L48.2429 286.264C48.2664 288.216 47.2546 291.877 46.7458 293.464C45.8988 292.801 44.5379 290.004 43.9633 288.689C43.9208 289.372 42.9382 293.11 42.4522 294.893C41.8225 294.006 41.2141 291.641 40.9886 290.569C40.363 291.118 38.9962 295.68 38.391 297.892C38.2906 297.025 35.0296 291.62 33.4116 289.025C34.7259 294.423 33.3104 297.631 32.4383 298.56C32.3516 297.811 30.8236 294.535 30.0704 292.99C30.1029 295.021 28.9947 297.849 28.4365 299.008C26.3107 296.055 25.6318 291.71 25.558 289.906C23.8834 292.248 23.1838 295.658 23.0433 297.07C22.3883 296.665 21.7192 294.825 21.4665 293.956L20.1827 299.934C19.5735 295.375 15.0085 292.303 12.8022 291.337Z" fill="#70AE3E"/>
<path d="M823.865 280.983C825.294 285.218 823.491 291.314 822.41 293.833L868.46 302.147C868.171 299.443 870.836 295.069 872.204 293.22C869.789 292.784 867.223 295.408 866.242 296.774L865.754 290.885L863.501 293.94C863.647 292.094 862.125 290.604 861.346 290.09C861.008 291.9 859.422 294.389 858.671 295.407L858.128 286.096C857.591 287.91 855.609 291.02 854.684 292.348C854.089 291.499 853.628 288.534 853.472 287.157C853.238 287.778 851.26 290.966 850.3 292.482C849.971 291.487 850.083 289.129 850.181 288.074C849.445 288.409 846.876 292.254 845.683 294.135C845.838 293.305 844.363 287.397 843.607 284.547C843.281 289.909 841.054 292.487 839.981 293.105C840.114 292.389 839.636 288.932 839.38 287.294C838.83 289.183 836.996 291.494 836.147 292.413C835.023 289.091 835.637 284.879 836.084 283.189C833.864 284.894 832.242 287.857 831.708 289.126C831.217 288.569 831.124 286.68 831.138 285.806L828.241 290.986C828.98 286.596 825.631 282.488 823.865 280.983Z" fill="#70AE3E"/>
<path d="M868.54 287.785C870.105 292.133 868.367 298.467 867.303 301.091L915.054 308.761C914.7 305.973 917.363 301.401 918.739 299.463C916.234 299.061 913.637 301.823 912.652 303.254L912.027 297.18L909.761 300.38C909.874 298.471 908.271 296.961 907.455 296.445C907.144 298.323 905.556 300.926 904.801 301.993L904.048 292.384C903.531 294.269 901.546 297.521 900.619 298.912C899.987 298.047 899.449 294.992 899.259 293.573C899.03 294.219 897.052 297.552 896.092 299.139C895.731 298.117 895.799 295.678 895.878 294.586C895.124 294.947 892.549 298.971 891.355 300.938C891.498 300.077 889.853 294.003 889.012 291.073C888.786 296.62 886.538 299.328 885.442 299.988C885.565 299.245 885 295.683 884.702 293.995C884.172 295.959 882.325 298.383 881.467 299.35C880.237 295.939 880.784 291.576 881.211 289.82C878.953 291.626 877.338 294.72 876.812 296.042C876.294 295.476 876.158 293.527 876.155 292.623L873.268 298.033C873.941 293.482 870.397 289.305 868.54 287.785Z" fill="#70AE3E"/>
<path d="M780.15 271.286C782.059 275.498 780.835 281.948 779.985 284.646L828.203 288.579C827.626 285.827 829.914 281.062 831.129 279.023C828.601 278.817 826.233 281.773 825.366 283.276L824.255 277.269L822.254 280.636C822.213 278.723 820.493 277.344 819.639 276.893C819.479 278.789 818.105 281.507 817.438 282.63L815.916 273.109C815.552 275.028 813.835 278.425 813.022 279.883C812.322 279.07 811.541 276.067 811.238 274.666C811.061 275.328 809.357 278.805 808.527 280.461C808.085 279.47 807.957 277.034 807.948 275.939C807.226 276.358 804.982 280.57 803.95 282.623C804.023 281.754 801.895 275.827 800.822 272.972C801.042 278.518 799.018 281.393 797.979 282.136C798.042 281.386 797.193 277.879 796.76 276.22C796.389 278.218 794.742 280.779 793.965 281.809C792.465 278.505 792.66 274.112 792.945 272.329C790.838 274.305 789.477 277.515 789.059 278.873C788.497 278.35 788.205 276.417 788.13 275.516L785.686 281.134C785.992 276.545 782.123 272.656 780.15 271.286Z" fill="#70AE3E"/>
<path d="M735.437 267.397C737.201 271.509 735.891 277.725 735.016 280.32L781.588 285.036C781.083 282.363 783.389 277.796 784.605 275.847C782.163 275.6 779.815 278.414 778.946 279.853L777.989 274.02L775.987 277.239C775.985 275.388 774.348 274.021 773.53 273.569C773.339 275.4 771.957 278.004 771.289 279.077L770.003 269.837C769.613 271.687 767.885 274.941 767.07 276.336C766.409 275.537 765.712 272.616 765.447 271.256C765.262 271.893 763.546 275.224 762.711 276.811C762.303 275.844 762.226 273.484 762.239 272.425C761.532 272.816 759.279 276.849 758.24 278.816C758.328 277.977 756.385 272.202 755.403 269.419C755.507 274.789 753.493 277.532 752.473 278.232C752.549 277.507 751.795 274.098 751.409 272.485C751.012 274.411 749.368 276.857 748.596 277.839C747.21 274.614 747.484 270.368 747.794 268.648C745.718 270.52 744.338 273.6 743.908 274.906C743.374 274.389 743.129 272.514 743.074 271.641L740.6 277.029C740.986 272.596 737.318 268.76 735.437 267.397Z" fill="#70AE3E"/>
<path d="M689.777 263.372C691.732 267.565 690.579 274.027 689.759 276.734L738.017 280.153C737.41 277.408 739.645 272.618 740.838 270.567C738.307 270.387 735.973 273.368 735.122 274.881L733.945 268.886L731.981 272.274C731.919 270.362 730.184 269 729.325 268.559C729.186 270.456 727.842 273.189 727.187 274.319L725.561 264.815C725.218 266.738 723.538 270.152 722.741 271.619C722.033 270.814 721.219 267.819 720.9 266.422C720.73 267.085 719.065 270.581 718.253 272.245C717.8 271.259 717.645 268.824 717.624 267.73C716.907 268.156 714.709 272.392 713.7 274.456C713.764 273.586 711.571 267.682 710.466 264.838C710.747 270.382 708.755 273.278 707.724 274.033C707.779 273.282 706.891 269.784 706.44 268.13C706.091 270.132 704.473 272.71 703.707 273.748C702.17 270.46 702.317 266.066 702.582 264.28C700.498 266.278 699.172 269.502 698.769 270.865C698.201 270.348 697.888 268.418 697.802 267.518L695.421 273.161C695.676 268.569 691.765 264.722 689.777 263.372Z" fill="#70AE3E"/>
<path d="M554.824 256.976C556.855 260.967 555.956 267.254 555.253 269.898L602.037 271.642C601.359 269.007 603.36 264.303 604.445 262.28C601.992 262.189 599.833 265.147 599.061 266.637L597.722 260.878L595.936 264.218C595.812 262.371 594.09 261.11 593.244 260.711C593.173 262.551 591.964 265.237 591.369 266.351L589.478 257.212C589.211 259.083 587.701 262.44 586.979 263.884C586.267 263.128 585.379 260.258 585.025 258.917C584.883 259.565 583.389 262.999 582.66 264.635C582.189 263.696 581.957 261.346 581.901 260.288C581.221 260.723 579.237 264.891 578.33 266.92C578.363 266.077 576.045 260.438 574.881 257.724C575.338 263.076 573.509 265.941 572.537 266.704C572.565 265.976 571.589 262.623 571.097 261.037C570.828 262.985 569.348 265.53 568.642 266.559C567.047 263.429 567.041 259.175 567.238 257.439C565.289 259.439 564.114 262.6 563.771 263.931C563.204 263.449 562.837 261.593 562.724 260.725L560.61 266.26C560.703 261.811 556.792 258.217 554.824 256.976Z" fill="#70AE3E"/>
<path d="M647.178 257.995C648.902 262.123 647.533 268.328 646.633 270.914L693.157 276.063C692.679 273.385 695.028 268.84 696.263 266.902C693.823 266.632 691.448 269.425 690.566 270.855L689.664 265.014L687.632 268.214C687.647 266.363 686.024 264.981 685.21 264.521C685.001 266.35 683.594 268.941 682.917 270.008L681.719 260.757C681.312 262.603 679.553 265.84 678.724 267.228C678.071 266.423 677.402 263.496 677.149 262.133C676.959 262.768 675.211 266.084 674.36 267.662C673.961 266.692 673.907 264.331 673.93 263.272C673.22 263.657 670.928 267.668 669.871 269.626C669.966 268.787 668.079 262.995 667.123 260.203C667.176 265.574 665.136 268.298 664.11 268.988C664.192 268.264 663.471 264.849 663.101 263.232C662.685 265.154 661.018 267.585 660.237 268.56C658.881 265.322 659.196 261.079 659.523 259.362C657.429 261.214 656.019 264.281 655.576 265.583C655.048 265.061 654.821 263.184 654.774 262.31L652.249 267.675C652.676 263.245 649.046 259.376 647.178 257.995Z" fill="#70AE3E"/>
<path d="M597.544 259.907C600.104 263.771 599.929 270.33 599.521 273.127L647.766 269.528C646.756 266.901 648.251 261.84 649.125 259.638C646.595 259.827 644.731 263.113 644.115 264.732L642.056 258.973L640.619 262.608C640.272 260.726 638.353 259.63 637.437 259.317C637.583 261.214 636.662 264.112 636.183 265.324L633.155 256.158C633.103 258.11 631.951 261.731 631.382 263.297C630.561 262.603 629.308 259.758 628.785 258.422C628.716 259.103 627.59 262.801 627.036 264.565C626.441 263.655 625.924 261.269 625.74 260.19C625.094 260.715 623.552 265.222 622.863 267.411C622.796 266.541 619.745 261.018 618.228 258.365C619.333 263.808 617.796 266.96 616.888 267.856C616.831 267.105 615.43 263.774 614.736 262.203C614.691 264.234 613.475 267.017 612.872 268.156C610.862 265.125 610.35 260.758 610.346 258.953C608.582 261.231 607.752 264.612 607.557 266.018C606.919 265.588 606.321 263.725 606.102 262.847L604.589 268.773C604.155 264.194 599.712 260.955 597.544 259.907Z" fill="#70AE3E"/>
<path d="M575 336.055C577.183 339.967 576.526 346.283 575.926 348.952L622.743 348.952C621.964 346.344 623.783 341.568 624.789 339.507C622.334 339.507 620.291 342.543 619.577 344.062L618.018 338.356L616.361 341.76C616.166 339.919 614.396 338.724 613.536 338.356C613.536 340.197 612.431 342.927 611.879 344.062L609.638 335C609.443 336.879 608.063 340.29 607.397 341.76C606.657 341.032 605.66 338.196 605.254 336.87C605.137 337.522 603.776 341.009 603.11 342.671C602.603 341.751 602.282 339.411 602.184 338.356C601.522 338.816 599.7 343.055 598.872 345.116C598.872 344.273 596.338 338.724 595.072 336.055C595.734 341.386 594.016 344.317 593.074 345.116C593.074 344.388 591.97 341.073 591.418 339.507C591.223 341.463 589.843 344.062 589.177 345.116C587.462 342.048 587.293 337.797 587.423 336.055C585.552 338.126 584.5 341.329 584.208 342.671C583.623 342.211 583.185 340.37 583.038 339.507L581.138 345.116C581.06 340.667 577.014 337.221 575 336.055Z" fill="#5B9B40"/>
<path d="M358 366.055C360.183 369.967 359.526 376.283 358.926 378.952L405.743 378.952C404.964 376.344 406.783 371.568 407.789 369.507C405.334 369.507 403.291 372.543 402.577 374.062L401.018 368.356L399.361 371.76C399.166 369.919 397.396 368.724 396.536 368.356C396.536 370.197 395.431 372.927 394.879 374.062L392.638 365C392.443 366.879 391.063 370.29 390.397 371.76C389.657 371.032 388.66 368.196 388.254 366.87C388.137 367.522 386.776 371.009 386.11 372.671C385.603 371.751 385.282 369.411 385.184 368.356C384.522 368.816 382.7 373.055 381.872 375.116C381.872 374.273 379.338 368.724 378.072 366.055C378.734 371.386 377.016 374.317 376.074 375.116C376.074 374.388 374.97 371.073 374.418 369.507C374.223 371.463 372.843 374.062 372.177 375.116C370.462 372.048 370.293 367.797 370.423 366.055C368.552 368.126 367.5 371.329 367.208 372.671C366.623 372.211 366.185 370.37 366.038 369.507L364.138 375.116C364.06 370.667 360.014 367.221 358 366.055Z" fill="#5B9B40"/>
<path d="M468.834 287.303C468.834 289.144 467.729 291.874 467.177 293.008C466.66 294.456 465.039 297.46 462.695 297.899L478.041 297.899C477.262 295.29 479.081 290.515 480.087 288.453C477.632 288.453 475.589 291.49 474.875 293.008L473.316 287.303L471.659 290.707C471.464 288.866 469.694 287.67 468.834 287.303Z" fill="#5B9B40"/>
<path d="M246.138 290C246.138 291.841 245.034 294.571 244.482 295.705C243.965 297.153 242.344 300.158 240 300.596L255.346 300.596C254.567 297.988 256.385 293.212 257.392 291.151C254.937 291.151 252.894 294.187 252.179 295.705L250.62 290L248.964 293.404C248.769 291.563 246.999 290.368 246.138 290Z" fill="#5B9B40"/>
<path d="M707.138 308C707.138 309.841 706.034 312.571 705.482 313.705C704.965 315.153 703.344 318.158 701 318.596L716.346 318.596C715.567 315.988 717.385 311.212 718.392 309.151C715.937 309.151 713.894 312.187 713.179 313.705L711.62 308L709.964 311.404C709.769 309.563 707.999 308.368 707.138 308Z" fill="#5B9B40"/>
<path d="M898.766 307.945C898.766 309.786 897.662 312.516 897.109 313.651C896.592 315.098 894.971 318.103 892.627 318.541L907.973 318.541C907.194 315.933 909.013 311.158 910.02 309.096C907.564 309.096 905.521 312.133 904.807 313.651L903.248 307.945L901.591 311.349C901.397 309.508 899.627 308.313 898.766 307.945Z" fill="#5B9B40"/>
<path d="M65.5142 301C67.6967 304.912 67.0406 311.228 66.4398 313.897L113.257 313.897C112.478 311.289 114.297 306.514 115.304 304.452C112.848 304.452 110.805 307.489 110.091 309.007L108.532 303.301L106.875 306.706C106.681 304.864 104.91 303.669 104.05 303.301C104.05 305.143 102.946 307.872 102.393 309.007L100.152 299.945C99.9575 301.825 98.5772 305.235 97.9114 306.706C97.1709 305.977 96.1738 303.142 95.7678 301.815C95.6509 302.467 94.29 305.954 93.6242 307.617C93.1176 306.696 92.796 304.356 92.6986 303.301C92.036 303.762 90.214 308 89.3858 310.062C89.3858 309.218 86.8525 303.669 85.5858 301C86.2484 306.332 84.5303 309.263 83.5884 310.062C83.5884 309.333 82.4841 306.018 81.932 304.452C81.7371 306.408 80.3568 309.007 79.691 310.062C77.9761 306.993 77.8072 302.742 77.9371 301C76.0664 303.071 75.0141 306.274 74.7218 307.617C74.1372 307.156 73.6987 305.315 73.5526 304.452L71.6526 310.062C71.5746 305.612 67.5278 302.167 65.5142 301Z" fill="#5B9B40"/>
</g>
<rect y="379" width="901" height="33" fill="#70AE3E"/>
<mask id="mask1_495_4579" style="mask-type:alpha" maskUnits="userSpaceOnUse" x="843" y="76" width="58" height="218">
<rect x="843" y="76" width="58" height="217.6" fill="#D9D9D9"/>
</mask>
<g mask="url(#mask1_495_4579)">
<rect x="892.868" y="230.686" width="18.1337" height="62.3199" fill="#5C4636"/>
<path d="M924.089 238.801C913.468 242.436 905.2 235.555 902.394 231.66C898.832 235.988 888.988 243.475 878.107 238.801C867.227 234.127 866.45 222.355 867.422 217.054C865.047 217.811 858.29 217.184 850.259 208.615C842.229 200.046 848.856 189.464 853.174 185.245C850.367 184.163 844.431 179.402 843.135 169.016C841.84 158.629 850.151 152.354 854.469 150.514C853.066 148.892 850.842 143.568 853.174 135.259C855.505 126.95 862.996 124.656 866.45 124.548C865.047 122.384 863.083 116.109 866.45 108.319C869.818 100.529 879.295 98.3648 883.612 98.2567C883.181 90.0339 886.332 74.1077 902.394 76.185C918.455 78.2624 920.959 91.765 920.203 98.2567C924.737 98.9058 934.581 101.827 937.69 108.319C940.798 114.81 938.985 121.843 937.69 124.548C941.252 124.872 948.764 127.469 950.318 135.259C951.873 143.049 949.671 148.675 948.375 150.514C955.176 153.111 960.033 157.331 960.357 169.016C960.616 178.364 953.772 182.865 950.318 183.946C953.88 189.464 959.061 194.333 954.852 205.694C951.484 214.782 940.496 217.054 935.423 217.054C936.718 221.598 937.366 234.257 924.089 238.801Z" fill="#70AE3E"/>
</g>
<path d="M174.518 336.002C169.933 335.931 161.566 337.991 164.783 346.795C169.862 349.969 175.364 340.869 174.518 336.002Z" fill="#25861F" stroke="#25861F" stroke-width="0.423251"/>
<path d="M172.742 338.115L169.779 341.078M164.912 345.945L166.181 344.676M169.356 338.75C169.708 339.314 170.16 340.697 169.144 341.713M169.144 341.713L169.779 341.078M169.144 341.713L166.605 344.252M166.605 341.078C166.816 341.854 167.028 343.66 166.181 344.676M166.181 344.676L166.605 344.252M172.742 340.655C172.319 340.514 171.133 340.401 169.779 341.078M169.779 343.829C169.356 343.618 168.128 343.406 166.605 344.252" stroke="#1F6B19" stroke-width="0.423251" stroke-linecap="round"/>
<path d="M156.579 363.971C160.989 365.226 169.604 365.401 168.775 356.065C164.691 351.684 157.021 359.05 156.579 363.971Z" fill="#25861F" stroke="#25861F" stroke-width="0.423251"/>
<path d="M158.841 362.387L162.47 360.292M168.431 356.851L166.876 357.749M162.276 362.651C162.082 362.014 162.004 360.562 163.248 359.844M163.248 359.844L162.47 360.292M163.248 359.844L166.358 358.048M165.536 361.114C165.533 360.31 165.796 358.511 166.876 357.749M166.876 357.749L166.358 358.048M159.499 359.934C159.871 360.18 160.987 360.596 162.47 360.292M163.182 357.635C163.536 357.949 164.667 358.471 166.358 358.048" stroke="#1F6B19" stroke-width="0.423251" stroke-linecap="round"/>
<path d="M158.742 339.592C157.111 340.291 158.645 343.96 159.616 345.707C157.771 344.154 153.908 341.572 153.209 343.669C152.51 345.765 156.218 347.454 158.159 348.036C156.024 348.425 152.045 349.609 153.209 351.239C154.374 352.87 157.965 351.336 159.616 350.366C158.16 352.307 155.772 356.248 157.868 356.481C159.965 356.714 161.46 352.889 161.945 350.948C161.945 353.278 162.527 357.762 164.857 357.063C167.186 356.364 165.051 352.307 163.692 350.366C165.342 351.822 168.933 354.209 170.098 352.113C171.263 350.016 167.089 348.716 164.857 348.328C166.604 348.328 171.554 346.872 170.68 344.833C169.982 343.203 166.119 344.736 164.274 345.707C165.148 345.124 167.769 340.466 165.73 339.592C164.1 338.893 162.527 342.795 161.945 344.833C161.945 343.96 160.78 338.718 158.742 339.592Z" fill="#E56610"/>
<circle cx="162.027" cy="347.939" r="2.0383" fill="#FFB42E"/>
<path d="M168.06 347.162C166.429 347.861 167.963 351.53 168.933 353.277C167.089 351.724 163.226 349.142 162.527 351.239C161.828 353.335 165.536 355.024 167.477 355.607C165.342 355.995 161.362 357.179 162.527 358.81C163.692 360.44 167.283 358.907 168.933 357.936C167.477 359.877 165.09 363.818 167.186 364.051C169.283 364.284 170.778 360.46 171.263 358.518C171.263 360.848 171.845 365.332 174.175 364.633C176.504 363.935 174.369 359.877 173.01 357.936C174.66 359.392 178.251 361.78 179.416 359.683C180.581 357.587 176.407 356.286 174.175 355.898C175.922 355.898 180.872 354.442 179.998 352.404C179.3 350.773 175.436 352.307 173.592 353.277C174.466 352.695 177.087 348.036 175.048 347.162C173.418 346.463 171.845 350.365 171.263 352.404C171.263 351.53 170.098 346.289 168.06 347.162Z" fill="white"/>
<circle cx="171.344" cy="355.509" r="2.0383" fill="#E56610"/>
<path d="M729.376 307.096C729.324 310.461 730.836 316.601 737.297 314.241C739.626 310.513 732.948 306.475 729.376 307.096Z" fill="#25861F" stroke="#25861F" stroke-width="0.423251"/>
<path d="M730.928 308.4L733.102 310.574M736.674 314.146L735.742 313.215M731.394 310.885C731.808 310.626 732.823 310.295 733.568 311.04M733.568 311.04L733.102 310.574M733.568 311.04L735.432 312.904M733.102 312.904C733.672 312.749 734.997 312.593 735.742 313.215M735.742 313.215L735.432 312.904M732.792 308.4C732.688 308.71 732.605 309.58 733.102 310.574M735.121 310.574C734.966 310.885 734.811 311.786 735.432 312.904" stroke="#1F6B19" stroke-width="0.423251" stroke-linecap="round"/>
<path d="M749.903 320.263C750.824 317.026 750.953 310.704 744.101 311.312C740.886 314.31 746.292 319.939 749.903 320.263Z" fill="#25861F" stroke="#25861F" stroke-width="0.423251"/>
<path d="M748.741 318.602L747.204 315.939M744.678 311.563L745.337 312.705M748.934 316.081C748.467 316.223 747.401 316.281 746.874 315.368M746.874 315.368L747.204 315.939M746.874 315.368L745.556 313.085M747.807 313.688C747.216 313.691 745.896 313.498 745.337 312.705M745.337 312.705L745.556 313.085M746.941 318.119C747.121 317.846 747.426 317.027 747.204 315.939M745.253 315.416C745.484 315.156 745.867 314.326 745.556 313.085" stroke="#1F6B19" stroke-width="0.423251" stroke-linecap="round"/>
<path d="M732.011 318.675C732.524 319.871 735.216 318.746 736.499 318.033C735.359 319.387 733.464 322.222 735.003 322.735C736.541 323.248 737.781 320.527 738.208 319.102C738.493 320.669 739.362 323.59 740.559 322.735C741.756 321.88 740.63 319.244 739.918 318.033C741.342 319.102 744.235 320.854 744.406 319.316C744.577 317.777 741.77 316.68 740.345 316.324C742.055 316.324 745.346 315.896 744.833 314.187C744.32 312.477 741.342 314.044 739.918 315.042C740.986 313.831 742.739 311.195 741.2 310.34C739.661 309.485 738.707 312.548 738.422 314.187C738.422 312.905 737.353 309.272 735.857 309.913C734.661 310.426 735.786 313.261 736.499 314.614C736.071 313.973 732.652 312.05 732.011 313.546C731.498 314.742 734.361 315.896 735.857 316.324C735.216 316.324 731.37 317.179 732.011 318.675Z" fill="#E56610"/>
<circle cx="738.137" cy="316.264" r="1.49593" transform="rotate(-90 738.137 316.264)" fill="#FFB42E"/>
<path d="M737.567 311.837C738.08 313.033 740.772 311.908 742.055 311.196C740.915 312.549 739.02 315.384 740.559 315.897C742.097 316.41 743.337 313.689 743.764 312.264C744.049 313.831 744.918 316.752 746.115 315.897C747.312 315.042 746.186 312.407 745.474 311.196C746.899 312.264 749.791 314.017 749.962 312.478C750.133 310.939 747.326 309.842 745.901 309.486C747.611 309.486 750.902 309.059 750.389 307.349C749.876 305.639 746.899 307.206 745.474 308.204C746.542 306.993 748.295 304.357 746.756 303.502C745.218 302.647 744.263 305.711 743.978 307.349C743.978 306.067 742.91 302.434 741.414 303.075C740.217 303.588 741.342 306.423 742.055 307.776C741.627 307.135 738.208 305.212 737.567 306.708C737.054 307.905 739.918 309.059 741.414 309.486C740.772 309.486 736.926 310.341 737.567 311.837Z" fill="white"/>
<circle cx="743.693" cy="309.426" r="1.49593" transform="rotate(-90 743.693 309.426)" fill="#E56610"/>
<path d="M346.039 295.5C348.559 288.833 355.335 272.052 358.598 274.5C360.598 276 358.481 297 346.039 295.5C346.012 295.837 345.983 296.17 345.953 296.5C335.837 295.7 329.098 281.5 330.098 281C338.098 280.6 344.001 291.167 345.953 296.5C345.983 296.17 346.012 295.837 346.039 295.5Z" fill="#25861F"/>
<path d="M344.598 305.5C345.115 303.173 345.626 300.051 345.953 296.5M340.098 264C346.125 272.323 346.85 285.433 346.039 295.5M346.039 295.5C348.559 288.833 355.335 272.052 358.598 274.5C360.598 276 358.481 297 346.039 295.5ZM346.039 295.5C346.012 295.837 345.983 296.17 345.953 296.5M345.953 296.5C344.001 291.167 338.098 280.6 330.098 281C329.098 281.5 335.837 295.7 345.953 296.5Z" stroke="#25861F" stroke-linecap="round"/>
<path d="M332.325 248.142C329.961 249.155 332.184 254.475 333.592 257.008C330.918 254.756 325.317 251.013 324.303 254.052C323.29 257.092 328.666 259.541 331.481 260.385C328.385 260.948 322.615 262.665 324.303 265.029C325.992 267.393 331.199 265.17 333.592 263.762C331.481 266.577 328.019 272.291 331.058 272.628C334.098 272.966 336.265 267.421 336.969 264.607C336.969 267.984 337.813 274.486 341.191 273.473C344.568 272.459 341.472 266.577 339.502 263.762C341.894 265.873 347.101 269.335 348.79 266.296C350.479 263.256 344.428 261.37 341.191 260.807C343.724 260.807 350.901 258.696 349.634 255.741C348.621 253.377 343.02 255.6 340.346 257.008C341.613 256.163 345.413 249.408 342.457 248.142C340.093 247.129 337.813 252.786 336.969 255.741C336.969 254.475 335.28 246.875 332.325 248.142Z" fill="white"/>
<circle cx="337.5" cy="260.5" r="3.5" fill="#E56610"/>
<path d="M851.24 294.022C849.86 290.37 846.148 281.177 844.36 282.518C843.264 283.34 844.424 294.844 851.24 294.022C851.255 294.207 851.271 294.389 851.287 294.57C856.829 294.132 860.521 286.353 859.973 286.079C855.59 285.86 852.357 291.648 851.287 294.57C851.271 294.389 851.255 294.207 851.24 294.022Z" fill="#25861F"/>
<path d="M852.03 299.5C851.746 298.226 851.467 296.515 851.287 294.57M854.495 276.766C851.193 281.325 850.796 288.507 851.24 294.022M851.24 294.022C849.86 290.37 846.148 281.177 844.36 282.518C843.264 283.34 844.424 294.844 851.24 294.022ZM851.24 294.022C851.255 294.207 851.271 294.389 851.287 294.57M851.287 294.57C852.357 291.648 855.59 285.86 859.973 286.079C860.521 286.353 856.829 294.132 851.287 294.57Z" stroke="#25861F" stroke-linecap="round"/>
<path d="M858.753 268.078C860.048 268.633 858.83 271.547 858.059 272.935C859.524 271.701 862.593 269.65 863.148 271.316C863.703 272.981 860.758 274.322 859.216 274.785C860.912 275.093 864.073 276.034 863.148 277.329C862.223 278.624 859.37 277.406 858.059 276.635C859.216 278.177 861.112 281.307 859.447 281.492C857.782 281.677 856.595 278.64 856.209 277.098C856.209 278.948 855.747 282.51 853.896 281.955C852.046 281.399 853.742 278.177 854.822 276.635C853.511 277.792 850.658 279.688 849.733 278.023C848.808 276.358 852.123 275.325 853.896 275.016C852.509 275.016 848.577 273.86 849.271 272.241C849.826 270.946 852.894 272.164 854.359 272.935C853.665 272.472 851.584 268.772 853.203 268.078C854.498 267.523 855.747 270.622 856.209 272.241C856.209 271.547 857.134 267.384 858.753 268.078Z" fill="white"/>
<circle cx="1.91739" cy="1.91739" r="1.91739" transform="matrix(-1 0 0 1 857.836 272.93)" fill="#E56610"/>
<path d="M38.1504 322.041C36.7873 318.435 33.1216 309.356 31.3561 310.68C30.2742 311.492 31.4198 322.853 38.1504 322.041C38.1651 322.224 38.1807 322.404 38.1971 322.582C43.6699 322.15 47.3156 314.467 46.7745 314.197C42.4466 313.981 39.2529 319.697 38.1971 322.582C38.1807 322.404 38.1651 322.224 38.1504 322.041Z" fill="#237C1D"/>
<path d="M38.9301 327.451C38.6504 326.193 38.3743 324.504 38.1971 322.582M41.3646 305C38.1041 309.503 37.7121 316.595 38.1504 322.041M38.1504 322.041C36.7873 318.435 33.1216 309.356 31.3561 310.68C30.2742 311.492 31.4198 322.853 38.1504 322.041ZM38.1504 322.041C38.1651 322.224 38.1807 322.404 38.1971 322.582M38.1971 322.582C39.2529 319.697 42.4466 313.981 46.7745 314.197C47.3156 314.467 43.6699 322.15 38.1971 322.582Z" stroke="#237C1D" stroke-linecap="round"/>
<path d="M45.1302 277.075C46.3803 277.611 45.2046 280.423 44.4605 281.763C45.8744 280.572 48.836 278.593 49.3718 280.2C49.9075 281.807 47.065 283.102 45.5768 283.549C47.2139 283.846 50.2647 284.754 49.3718 286.004C48.4788 287.254 45.7256 286.079 44.4605 285.335C45.5767 286.823 47.4073 289.844 45.8 290.022C44.1927 290.201 43.0468 287.269 42.6748 285.781C42.6748 287.567 42.2283 291.005 40.4424 290.469C38.6566 289.933 40.2936 286.823 41.3354 285.335C40.0704 286.451 37.3172 288.281 36.4243 286.674C35.5314 285.067 38.731 284.07 40.4424 283.772C39.1031 283.772 35.3081 282.656 35.9778 281.093C36.5136 279.843 39.4751 281.019 40.8889 281.763C40.2192 281.316 38.2101 277.745 39.7727 277.075C41.0228 276.539 42.2283 279.531 42.6748 281.093C42.6748 280.423 43.5676 276.405 45.1302 277.075Z" fill="#E56610"/>
<circle cx="1.56262" cy="1.56262" r="1.56262" transform="matrix(-1 0 0 1 44.1748 281.912)" fill="#FFB42E"/>
<path d="M658.453 362.631C660.184 358.052 664.838 346.524 667.08 348.205C668.454 349.236 666.999 363.662 658.453 362.631C658.434 362.863 658.414 363.092 658.394 363.318C651.444 362.769 646.815 353.014 647.502 352.67C652.998 352.396 657.053 359.655 658.394 363.318C658.414 363.092 658.434 362.863 658.453 362.631Z" fill="#237C1D"/>
<path d="M657.463 369.501C657.818 367.903 658.169 365.758 658.394 363.318M654.372 340.992C658.512 346.709 659.009 355.715 658.453 362.631M658.453 362.631C660.184 358.052 664.838 346.524 667.08 348.205C668.454 349.236 666.999 363.662 658.453 362.631ZM658.453 362.631C658.434 362.863 658.414 363.092 658.394 363.318M658.394 363.318C657.053 359.655 652.998 352.396 647.502 352.67C646.815 353.014 651.444 362.769 658.394 363.318Z" stroke="#237C1D" stroke-linecap="round"/>
<path d="M649.59 330.095C648.002 330.776 649.495 334.347 650.44 336.048C648.645 334.536 644.884 332.023 644.204 334.064C643.523 336.105 647.133 337.749 649.023 338.316C646.944 338.693 643.07 339.846 644.204 341.434C645.338 343.021 648.834 341.528 650.44 340.583C649.023 342.473 646.698 346.309 648.739 346.536C650.78 346.763 652.235 343.04 652.708 341.15C652.708 343.418 653.275 347.783 655.542 347.103C657.81 346.422 655.731 342.473 654.408 340.583C656.015 342 659.511 344.325 660.644 342.284C661.778 340.243 657.715 338.977 655.542 338.599C657.243 338.599 662.062 337.182 661.211 335.197C660.531 333.61 656.771 335.103 654.975 336.048C655.826 335.481 658.377 330.946 656.393 330.095C654.805 329.415 653.275 333.213 652.708 335.197C652.708 334.347 651.574 329.245 649.59 330.095Z" fill="#E56610"/>
<circle cx="652.787" cy="338.221" r="1.98421" fill="#FFB42E"/>
</g>
<defs>
<clipPath id="clip0_495_4579">
<rect width="412" height="901" fill="white" transform="translate(0 412) rotate(-90)"/>
</clipPath>
</defs>
</svg>
