<svg width="665" height="717" viewBox="0 0 665 717" fill="none" xmlns="http://www.w3.org/2000/svg">
<path d="M537.27 66.3158C518.43 53.6258 500.72 47.2158 484.52 47.2158C482.13 47.2158 479.77 47.3558 477.45 47.6358C458.09 49.9658 438.88 63.0458 426.07 82.6258C409.9 107.346 404.65 137.776 399.56 167.216C399.08 170.006 398.6 172.796 398.11 175.566C394.65 195.226 391.04 215.116 387.39 234.686C386.19 241.126 384.85 247.526 383.55 253.716C382.31 259.626 381.1 265.386 380.02 271.106C382.25 270.406 384.6 269.696 387.07 268.976C388.47 268.566 390.2 268.056 390.68 267.886C404.09 262.776 417.55 257.186 430.67 251.286C467.33 234.796 497.83 218.186 523.91 200.486C555.89 178.746 586.99 139.476 569.34 100.416C563.88 88.3258 553.39 77.1758 537.27 66.3158Z" fill="white"/>
<path d="M588.84 91.6061C581.69 75.7961 568.74 61.7161 549.23 48.5661C523.23 31.0461 498.22 23.5861 474.9 26.3861C449.34 29.4561 424.39 46.1061 408.17 70.9061C389.58 99.3361 383.94 131.986 378.49 163.566C378.01 166.336 377.54 169.096 377.05 171.846C373.6 191.426 370.01 211.246 366.37 230.756C365.21 236.956 363.89 243.246 362.62 249.316C359.94 262.096 357.17 275.306 355.62 288.926L376.88 291.346C376.56 294.136 375.07 295.836 374.53 296.256C376.37 294.846 382.62 292.576 393.12 289.486C395.77 288.706 397.21 288.276 398.29 287.866C412.11 282.596 425.97 276.846 439.46 270.776C477.26 253.776 508.81 236.566 535.94 218.166C574.8 191.746 611.97 142.746 588.85 91.5861L588.84 91.6061ZM387.07 268.976C384.6 269.696 382.25 270.406 380.02 271.106C381.1 265.386 382.31 259.626 383.55 253.716C384.85 247.526 386.19 241.126 387.39 234.686C391.04 215.106 394.65 195.216 398.11 175.566C398.6 172.786 399.08 170.006 399.56 167.216C404.64 137.786 409.9 107.346 426.07 82.6261C438.88 63.0461 458.09 49.9661 477.45 47.6361C479.77 47.3561 482.13 47.2161 484.52 47.2161C500.72 47.2161 518.43 53.6161 537.27 66.3161C553.39 77.1761 563.88 88.3261 569.34 100.416C586.98 139.476 555.89 178.736 523.91 200.486C497.83 218.176 467.33 234.796 430.67 251.286C417.55 257.186 404.08 262.776 390.68 267.886C390.21 268.056 388.47 268.566 387.07 268.976Z" fill="#3A3A3A"/>
<path d="M287.09 21.4764C286.09 21.4164 285.08 21.3965 284.06 21.3965C271.6 21.3965 257.82 25.5964 242.03 34.1664C219.12 46.6164 204.25 61.5564 197.83 78.5964C190.95 96.8464 193.68 119.926 205.13 140.326C219.59 166.086 244.15 184.806 267.9 202.906C270.15 204.626 272.4 206.337 274.64 208.057C290.44 220.177 306.41 232.566 322.12 244.876C327.27 248.916 332.33 253.066 337.22 257.076C341.89 260.906 346.44 264.636 351.02 268.246C351.43 265.946 351.89 263.526 352.39 261.006C352.67 259.576 353.02 257.807 353.09 257.307C354.75 243.057 356.01 228.537 356.84 214.167C359.15 174.037 358.5 139.306 354.86 108.006C350.35 69.5965 329.89 23.8765 287.1 21.4865L287.09 21.4764Z" fill="white"/>
<path d="M376.1 105.516C370.62 58.8462 344.33 3.2462 288.28 0.116201C270.96 -0.843799 252.48 4.1362 231.81 15.3662C219.46 22.0762 208.84 29.6862 200.23 37.9862C189.84 48.0062 182.3 59.1262 177.8 71.0462C168.72 95.1362 171.95 124.946 186.46 150.796C203.08 180.416 229.44 200.496 254.92 219.926C257.15 221.626 259.38 223.326 261.6 225.026C277.34 237.106 293.26 249.446 308.91 261.716C313.88 265.606 318.84 269.676 323.64 273.616C333.74 281.896 344.17 290.456 355.54 298.126L367.51 280.386C369.84 281.956 370.66 284.066 370.78 284.736C370.38 282.456 371.25 275.856 373.37 265.126C373.9 262.416 374.19 260.946 374.32 259.796C376.03 245.106 377.33 230.166 378.18 215.386C380.56 174.006 379.88 138.066 376.09 105.516H376.1ZM205.12 140.326C193.67 119.916 190.94 96.8462 197.82 78.5962C204.24 61.5662 219.12 46.6162 242.02 34.1662C257.81 25.5862 271.6 21.3962 284.05 21.3962C285.07 21.3962 286.08 21.4262 287.08 21.4762C329.88 23.8662 350.33 69.5862 354.84 107.996C358.48 139.296 359.13 174.026 356.82 214.156C355.99 228.526 354.73 243.046 353.07 257.296C353 257.796 352.65 259.576 352.37 260.996C351.87 263.516 351.41 265.936 351 268.236C346.42 264.626 341.87 260.896 337.2 257.066C332.31 253.056 327.25 248.906 322.1 244.866C306.39 232.556 290.41 220.166 274.62 208.046C272.38 206.326 270.13 204.616 267.88 202.896C244.13 184.796 219.56 166.076 205.11 140.316L205.12 140.326Z" fill="#3A3A3A"/>
<path d="M263.01 313.716C155.4 334.016 81.05 390.506 76.3 456.866C71.24 527.546 146.58 595.706 260.89 625.206C292.2 522.516 277.12 391.636 263.02 313.716H263.01Z" fill="#F9DB6C"/>
<path d="M462.53 331.736C433.76 321.326 402.73 313.716 369.97 309.006C374.45 334.126 378.07 359.086 380.74 383.446C392.76 450.936 392.73 512.266 380.65 565.746C377.12 590.896 371.88 614.396 365.03 635.886C396.01 633.636 425.69 628.646 453.58 620.986C499.94 529.156 484.87 414.786 462.53 331.726V331.736Z" fill="#F9DB6C"/>
<path d="M484.97 594.696C495 608.436 502.4 620.616 507.77 631.646C511.87 629.666 515.92 627.586 519.9 625.406C511.39 615.966 500.1 605.906 484.97 594.696Z" fill="#3A3A3A"/>
<path d="M613.9 459.967C603.8 393.997 549.54 342.627 488.83 312.037C467.72 301.407 445.84 293.277 424.76 287.917C420.66 286.877 416.55 285.907 412.42 285.027C325.42 266.337 231.14 278.117 152.15 319.237C139.79 325.677 127.85 332.957 116.6 341.197C73.56 372.717 49.1899 411.957 46.1299 454.707C42.8999 499.877 63.58 543.547 105.94 580.997C129.66 601.957 156.32 618.997 184.81 632.237C189.31 624.257 193.62 614.777 197.78 603.327C119.87 568.517 72.2399 513.517 76.2999 456.867C81.0499 390.507 155.4 334.017 263.01 313.717C277.11 391.637 292.2 522.517 260.88 625.207C258.58 624.617 256.33 623.977 254.06 623.357C249.95 634.787 245.68 644.527 241.27 652.917C264.76 659.397 288.93 663.607 313.26 665.587C310.54 651.187 305.3 634.207 296.61 613.107C294.51 608.017 296.77 602.177 301.68 599.677C307.24 596.847 314.09 599.347 316.47 605.117C326.69 629.977 332.46 649.957 335.15 666.757C342.2 666.947 349.26 666.947 356.3 666.757C353.65 652.107 348.34 634.767 339.41 613.097C337.31 608.007 339.57 602.167 344.48 599.667C350.04 596.837 356.89 599.337 359.27 605.107C362.52 612.997 365.27 620.356 367.66 627.316C373.24 608.186 377.6 587.597 380.67 565.737C392.75 512.257 392.78 450.927 380.76 383.437C378.09 359.067 374.47 334.117 369.99 308.997C402.75 313.707 433.78 321.317 462.55 331.727C481.44 401.927 495.11 494.487 470.91 576.917C470.96 576.957 471 576.997 471.05 577.027C471.28 575.857 471.67 574.707 472.3 573.637C475.46 568.247 482.57 566.657 487.69 570.237C510.95 586.527 527.06 600.907 538.51 614.197C575.23 589.837 603.83 555.997 612.83 510.577C612.91 510.167 612.97 509.757 613.05 509.347C661.54 507.907 664.11 488.627 664.11 484.637C664.11 480.647 661.57 461.607 613.92 459.957L613.9 459.967Z" fill="#3A3A3A"/>
<path d="M453.58 620.997C427.28 628.217 399.38 633.037 370.31 635.457C373.8 646.597 376.24 656.597 377.75 665.647C388.62 664.777 399.44 663.487 410.16 661.727C435.62 657.557 462.53 650.547 488.19 640.267C482.54 628.727 474.34 615.797 462.69 600.637C459.95 607.527 456.94 614.327 453.58 620.997Z" fill="#3A3A3A"/>
<path d="M377.76 665.646C376.25 656.606 373.82 646.596 370.32 635.456C368.56 635.606 366.81 635.776 365.04 635.896C365.94 633.076 366.81 630.216 367.65 627.336C365.26 620.376 362.5 613.016 359.26 605.126C356.89 599.356 350.04 596.856 344.47 599.686C339.56 602.186 337.3 608.016 339.4 613.116C348.33 634.786 353.64 652.136 356.29 666.776C358.96 681.576 358.92 693.616 357.13 704.576C356.22 710.146 359.78 715.426 365.28 716.696H365.33C371.34 718.096 377.27 714.166 378.28 708.076C380.3 696.016 380.55 682.406 377.75 665.646H377.76Z" fill="#3A3A3A"/>
<path d="M316.46 605.126C314.09 599.356 307.24 596.856 301.67 599.686C296.76 602.186 294.5 608.016 296.6 613.116C305.3 634.216 310.54 651.196 313.25 665.596C316.14 680.926 316.16 693.336 314.32 704.586C313.41 710.156 316.97 715.436 322.47 716.706H322.52C328.53 718.106 334.46 714.176 335.47 708.086C337.44 696.296 337.72 683.026 335.12 666.776C332.43 649.976 326.66 629.996 316.44 605.136L316.46 605.126Z" fill="#3A3A3A"/>
<path d="M233.59 617.156C228.12 615.346 222.76 613.456 217.52 611.466C210.74 608.896 204.16 606.176 197.77 603.326C193.6 614.766 189.3 624.256 184.8 632.236C178.55 643.306 171.92 651.546 164.71 658.256C160.58 662.106 160.17 668.466 163.74 672.836L163.77 672.876C167.68 677.656 174.77 678.166 179.3 673.976C188.16 665.786 196.58 655.346 204.54 640.686C209.8 642.756 215.09 644.716 220.45 646.536C214.21 657.596 207.58 665.826 200.38 672.526C196.25 676.376 195.84 682.736 199.41 687.106L199.44 687.146C203.35 691.926 210.44 692.436 214.97 688.246C224.22 679.686 233 668.646 241.27 652.926C245.68 644.536 249.95 634.796 254.06 623.366C247.08 621.446 240.26 619.376 233.59 617.176V617.156Z" fill="#3A3A3A"/>
<path d="M559.22 646.677C554.8 636.327 548.37 625.667 538.49 614.207C527.04 600.917 510.92 586.537 487.67 570.247C482.56 566.667 475.44 568.257 472.28 573.647C471.65 574.727 471.25 575.877 471.03 577.037C471.58 577.487 472.11 577.997 472.58 578.577C477.12 584.197 481.22 589.547 484.97 594.687C500.1 605.907 511.39 615.957 519.9 625.397C529.26 635.787 535.34 645.447 539.52 655.127C541.76 660.307 547.61 662.837 552.92 660.937L552.97 660.917C558.78 658.847 561.65 652.337 559.22 646.667V646.677Z" fill="#3A3A3A"/>
<path d="M471.03 577.037C471.03 577.037 470.94 576.957 470.89 576.927C468.54 584.937 465.8 592.847 462.7 600.637C474.35 615.797 482.54 628.717 488.2 640.267C494.4 652.937 497.6 663.967 498.95 674.497C499.67 680.097 504.59 684.137 510.23 683.787H510.28C516.44 683.397 520.99 677.937 520.23 671.817C518.73 659.777 515.14 646.777 507.78 631.657C502.41 620.627 495.01 608.447 484.98 594.707C481.89 592.417 478.69 590.087 475.27 587.697C471.78 585.257 470.27 581.037 471.04 577.047L471.03 577.037Z" fill="#3A3A3A"/>
<path d="M475.26 587.686C478.68 590.086 481.88 592.406 484.97 594.696C481.21 589.546 477.11 584.196 472.58 578.586C472.11 578.006 471.59 577.496 471.03 577.046C470.26 581.036 471.77 585.246 475.26 587.696V587.686Z" fill="#3A3A3A"/>
<path d="M117.01 360.606C107.46 338.256 88.77 314.516 45.46 284.176C44.6 283.576 43.67 283.166 42.72 282.846C42.76 282.306 42.8 281.756 42.8 281.196C42.8 269.376 33.22 259.796 21.4 259.796C9.58 259.796 0 269.376 0 281.196C0 293.016 9.58 302.596 21.4 302.596C25 302.596 28.39 301.696 31.37 300.126C31.87 300.666 32.41 301.166 33.04 301.606C71.66 328.606 88.54 348.776 97.3 369.066C99.54 374.246 105.39 376.776 110.7 374.876L110.75 374.856C116.56 372.786 119.43 366.276 117 360.606H117.01Z" fill="#3A3A3A"/>
<path d="M231.13 360.607C221.86 338.917 203.92 315.897 163.28 286.827C163.77 285.037 164.05 283.157 164.05 281.207C164.05 269.387 154.47 259.807 142.65 259.807C130.83 259.807 121.25 269.387 121.25 281.207C121.25 293.027 130.83 302.607 142.65 302.607C144.39 302.607 146.07 302.377 147.68 301.987C185.92 328.807 202.7 348.877 211.42 369.077C213.66 374.257 219.51 376.787 224.82 374.887L224.87 374.867C230.68 372.797 233.55 366.287 231.12 360.617L231.13 360.607Z" fill="#3A3A3A"/>
<path d="M132.03 462.667C137.906 462.667 142.67 457.903 142.67 452.027C142.67 446.15 137.906 441.387 132.03 441.387C126.154 441.387 121.39 446.15 121.39 452.027C121.39 457.903 126.154 462.667 132.03 462.667Z" fill="#3A3A3A"/>
<path d="M210.08 476.856C215.956 476.856 220.72 472.092 220.72 466.216C220.72 460.34 215.956 455.576 210.08 455.576C204.204 455.576 199.44 460.34 199.44 466.216C199.44 472.092 204.204 476.856 210.08 476.856Z" fill="#3A3A3A"/>
<path d="M148.98 476.756C153.83 476.756 158.38 477.716 162.62 479.646C177.41 486.376 183.66 503.056 186.15 513.086C187.19 517.276 184.36 521.426 180.07 521.906C176.51 522.306 173.27 519.996 172.41 516.526C170.37 508.336 165.65 496.606 156.71 492.556C149.11 489.106 138.9 491.216 126.33 498.836C123.16 500.756 119.01 499.856 116.9 496.806C114.55 493.416 115.61 488.736 119.15 486.606C130.05 480.056 140.03 476.766 148.99 476.766L148.98 476.756Z" fill="#3A3A3A"/>
<path d="M224.27 526.537C234.068 526.537 242.01 518.594 242.01 508.797C242.01 498.999 234.068 491.057 224.27 491.057C214.472 491.057 206.53 498.999 206.53 508.797C206.53 518.594 214.472 526.537 224.27 526.537Z" fill="#D6744D"/>
<path d="M96.5501 476.867C106.348 476.867 114.29 468.924 114.29 459.127C114.29 449.329 106.348 441.387 96.5501 441.387C86.7525 441.387 78.8101 449.329 78.8101 459.127C78.8101 468.924 86.7525 476.867 96.5501 476.867Z" fill="#D6744D"/>
<path d="M128.48 410.726L160.41 442.646" stroke="#3A3A3A" stroke-width="0.23" stroke-miterlimit="10"/>
<path d="M143.528 410.72C139.373 406.564 132.636 406.564 128.481 410.72C124.326 414.875 124.326 421.612 128.481 425.767L145.36 442.645C149.515 446.801 156.252 446.801 160.407 442.645C164.562 438.49 164.562 431.753 160.407 427.598L143.528 410.72Z" fill="#3A3A3A" stroke="#3A3A3A" stroke-width="0.23" stroke-miterlimit="10"/>
<path d="M217.17 422.507L185.24 454.437" stroke="#3A3A3A" stroke-width="0.23" stroke-miterlimit="10"/>
<path d="M202.115 422.512L185.236 439.39C181.081 443.546 181.081 450.283 185.236 454.438C189.391 458.593 196.128 458.593 200.283 454.438L217.162 437.559C221.317 433.404 221.317 426.667 217.162 422.512C213.007 418.357 206.27 418.357 202.115 422.512Z" fill="#3A3A3A" stroke="#3A3A3A" stroke-width="0.23" stroke-miterlimit="10"/>
</svg>
