<svg width="60" height="66" viewBox="0 0 60 66" fill="none" xmlns="http://www.w3.org/2000/svg">
<path d="M35.3219 30.8965C44.7026 32.6448 51.184 37.5106 51.5982 43.2278C52.0394 49.3172 45.4708 55.1877 35.5067 57.7296C32.7774 48.8837 34.0924 37.6089 35.3219 30.8965Z" fill="#FED22B"/>
<path d="M17.9285 32.4509C20.4363 31.5547 23.1411 30.8981 25.9969 30.4932C25.6062 32.6568 25.2914 34.8067 25.0578 36.9057C24.0105 42.7193 24.0131 48.0031 25.0656 52.6104C25.3734 54.7775 25.8303 56.8007 26.4268 58.6524C23.7262 58.4585 21.1391 58.0285 18.708 57.3685C14.6664 49.4576 15.9805 39.6061 17.9285 32.4509Z" fill="#FED22B"/>
<path d="M15.9736 55.1025C15.0999 56.2856 14.4538 57.3351 13.9864 58.2855C13.6289 58.1149 13.2766 57.9357 12.9287 57.7487C13.6707 56.9353 14.6543 56.0693 15.9736 55.1034L15.9736 55.1025Z" fill="black"/>
<path d="M4.733 43.496C5.6137 37.8125 10.3433 33.3878 15.6362 30.7528C17.4761 29.8369 19.384 29.1372 21.2212 28.6754C21.5779 28.5858 21.9371 28.503 22.2973 28.4263C29.8817 26.8159 38.1001 27.8309 44.9861 31.3732C46.0639 31.9273 47.1042 32.5546 48.0851 33.2646C51.8373 35.9797 53.9614 39.3609 54.2282 43.0419C54.5099 46.9332 52.7075 50.6952 49.0147 53.9213C46.9472 55.7274 44.6225 57.1948 42.1391 58.3356C41.7467 57.648 41.3718 56.8311 41.0082 55.8454C47.8 52.8468 51.9515 48.1085 51.5983 43.2289C51.1841 37.5117 44.7027 32.6459 35.322 30.8976C34.0925 37.61 32.7776 48.884 35.5069 57.7307C35.7074 57.6799 35.9036 57.6247 36.1015 57.5713C36.4599 58.5562 36.8323 59.3955 37.2168 60.1184C35.1685 60.6768 33.0627 61.0387 30.9412 61.2101C31.1775 59.9693 31.6353 58.5071 32.393 56.6898C32.5761 56.2512 32.3791 55.7489 31.9509 55.5335C31.4661 55.2896 30.8688 55.505 30.6621 56.0022C29.771 58.1443 29.2678 59.8651 29.0333 61.3127C28.4185 61.329 27.8038 61.329 27.1899 61.3127C27.421 60.0512 27.8831 58.5571 28.6618 56.6898C28.8449 56.2512 28.6479 55.7489 28.2197 55.5335C27.7349 55.2896 27.1376 55.505 26.9309 56.0022C26.6484 56.6821 26.4078 57.3154 26.1994 57.9151C25.7128 56.2676 25.3326 54.4934 25.0649 52.6107C24.0124 48.0034 24.0098 42.7205 25.0571 36.906C25.2899 34.807 25.6055 32.6571 25.9962 30.4935C23.1405 30.8985 20.4356 31.5551 17.9278 32.4512C16.2815 38.4984 15.0886 46.4722 17.1988 53.5723C17.1944 53.5758 17.191 53.5792 17.1866 53.5818C17.1665 53.481 17.1325 53.3819 17.0776 53.2897C16.802 52.8261 16.1821 52.6891 15.7365 52.9976C13.7091 54.4012 12.3044 55.6395 11.306 56.7846C8.10494 54.6865 5.61196 51.7714 4.82718 47.8578C4.8202 47.8224 4.81496 47.7871 4.80799 47.7518C0.580637 47.6277 0.357416 45.9664 0.357416 45.6235C0.357417 45.2805 0.578894 43.639 4.733 43.4977L4.733 43.496Z" fill="black"/>
<path d="M18.7085 57.3675C21.0009 57.9896 23.4337 58.405 25.9668 58.6126C25.6625 59.5725 25.4497 60.4342 25.318 61.2131C24.3702 61.1382 23.4267 61.027 22.4928 60.8754C20.2728 60.516 17.928 59.912 15.6905 59.0262C16.1832 58.0319 16.8982 56.9186 17.9132 55.6123C18.1521 56.206 18.4146 56.7919 18.7076 57.3667L18.7085 57.3675Z" fill="black"/>
<path d="M25.3194 61.2132C25.4511 60.4343 25.6629 59.5726 25.9681 58.6127C26.1216 58.6256 26.2742 58.6403 26.4285 58.6506C26.3501 58.4076 26.2751 58.162 26.201 57.913C26.4094 57.3133 26.65 56.68 26.9325 56.0001C27.1392 55.5029 27.7365 55.2875 28.2213 55.5314C28.6495 55.7468 28.8457 56.2491 28.6634 56.6877C27.8847 58.555 27.4217 60.0491 27.1915 61.3106C26.9587 62.585 26.9622 63.6224 27.1183 64.5668C27.1976 65.0467 26.8872 65.5017 26.4076 65.6111L26.4032 65.6111C25.8792 65.7318 25.363 65.3931 25.274 64.8684C25.0979 63.8301 25.0761 62.6573 25.3203 61.2132L25.3194 61.2132Z" fill="black"/>
<path d="M30.662 56.0001C30.8687 55.5029 31.466 55.2875 31.9508 55.5314C32.379 55.7468 32.5752 56.2491 32.3929 56.6877C31.6352 58.505 31.1782 59.9681 30.9411 61.208C30.6891 62.529 30.6873 63.5974 30.8478 64.5668C30.9271 65.0467 30.6167 65.5017 30.1371 65.6111L30.1327 65.6111C29.6087 65.7318 29.0925 65.3931 29.0035 64.8684C28.8318 63.8533 28.8073 62.7099 29.0341 61.3097C29.2686 59.8621 29.7709 58.1414 30.6629 55.9993L30.662 56.0001Z" fill="black"/>
<path d="M37.8859 57.0374C38.362 56.8814 38.8294 56.7186 39.2863 56.5471C39.8775 56.3257 40.4512 56.0913 41.0076 55.8457C41.3703 56.8314 41.7453 57.6483 42.1385 58.3359C42.6835 59.2898 43.2616 59.9998 43.8895 60.5771C44.2496 60.9089 44.2853 61.456 43.974 61.8326L43.9714 61.836C43.6313 62.247 43.0131 62.2918 42.6181 61.9308C41.8455 61.2251 41.1113 60.3255 40.4181 59.0623C39.9594 59.2398 39.4982 59.4096 39.0317 59.5664C39.5758 60.5185 40.1539 61.2277 40.7808 61.8058C41.141 62.1376 41.1767 62.6847 40.8654 63.0613L40.8628 63.0647C40.5227 63.4757 39.9045 63.5206 39.5095 63.1595C38.7029 62.4219 37.9373 61.4707 37.2171 60.1161C36.8325 59.3932 36.4602 58.5539 36.1018 57.569C36.7105 57.4036 37.3051 57.2252 37.8859 57.0357L37.8859 57.0374Z" fill="black"/>
<path d="M9.49818 59.5796C9.8836 58.6878 10.4443 57.7701 11.3049 56.7826C12.3033 55.6375 13.7081 54.3992 15.7354 52.9956C16.181 52.6871 16.801 52.8241 17.0765 53.2877C17.1315 53.3808 17.1664 53.4798 17.1855 53.5798C17.1376 53.6186 17.0914 53.6625 17.0513 53.7125C16.6554 54.1959 16.2987 54.6569 15.9709 55.1006C14.6516 56.0666 13.668 56.9325 12.9259 57.746C12.1098 58.6404 11.5805 59.4736 11.216 60.3077C11.0207 60.754 10.5106 60.9712 10.0475 60.8083L10.0432 60.8066C9.53655 60.6282 9.28629 60.0673 9.49818 59.5787L9.49818 59.5796Z" fill="black"/>
<path d="M17.1877 53.5808C17.1877 53.5808 17.1956 53.5739 17.1999 53.5713C17.4048 54.2615 17.6437 54.9431 17.9141 55.6134C16.8991 56.9189 16.1841 58.033 15.6914 59.0274C15.1508 60.1182 14.8726 61.0695 14.7549 61.976C14.6921 62.4585 14.2631 62.8066 13.7722 62.7756L13.7678 62.7756C13.2307 62.742 12.8339 62.2715 12.9002 61.7442C13.031 60.7067 13.344 59.5866 13.9858 58.2846C14.454 57.3342 15.0993 56.2847 15.973 55.1016C16.2425 54.9043 16.5215 54.7044 16.8197 54.4976C17.124 54.2873 17.2557 53.9237 17.1886 53.5808L17.1877 53.5808Z" fill="black"/>
<path d="M16.819 54.4979C16.5208 54.7038 16.2417 54.9046 15.9723 55.1019C16.3002 54.6581 16.6568 54.1971 17.0527 53.7137C17.0937 53.6638 17.139 53.6198 17.187 53.5811C17.2541 53.924 17.1224 54.2876 16.8181 54.4979L16.819 54.4979Z" fill="black"/>
<path d="M46.7128 42.6852C46.2004 42.6852 45.7851 42.2747 45.7851 41.7684C45.7851 41.262 46.2004 40.8516 46.7128 40.8516C47.2252 40.8516 47.6406 41.262 47.6406 41.7684C47.6406 42.2747 47.2252 42.6852 46.7128 42.6852Z" fill="black"/>
<path d="M39.9101 43.9069C39.3977 43.9069 38.9823 43.4964 38.9823 42.9901C38.9823 42.4837 39.3977 42.0732 39.9101 42.0732C40.4225 42.0732 40.8379 42.4837 40.8379 42.9901C40.8379 43.4964 40.4225 43.9069 39.9101 43.9069Z" fill="black"/>
<path d="M49.2461 31.153C50.0745 29.2383 51.6946 27.2039 55.4503 24.6043C55.5252 24.5526 55.6046 24.5147 55.6866 24.4871C55.6831 24.4414 55.6805 24.3958 55.6805 24.3492C55.6805 23.3368 56.5115 22.5156 57.536 22.5156C58.5606 22.5156 59.3916 23.3368 59.3916 24.3492C59.3916 25.3617 58.5606 26.1829 57.536 26.1829C57.2239 26.1829 56.93 26.1062 56.6719 25.9718C56.6292 26.0183 56.5803 26.0605 56.5263 26.0976C53.1779 28.4111 51.7138 30.1396 50.9552 31.8776C50.7616 32.3214 50.2541 32.5377 49.7929 32.3757L49.7885 32.3739C49.2845 32.1964 49.036 31.6389 49.2461 31.153Z" fill="black"/>
<path d="M38.2722 25.019C37.5572 24.2934 37.5729 23.1328 38.3071 22.4262C39.0413 21.7196 40.2158 21.7352 40.9308 22.4607C41.6459 23.1862 41.6302 24.3469 40.896 25.0534C40.7878 25.1577 40.6693 25.2439 40.5454 25.3162C39.792 29.248 39.9647 31.4832 40.6448 33.2436C40.8192 33.6951 40.6082 34.2 40.1635 34.4016L40.1591 34.4034C39.6726 34.6231 39.1006 34.3956 38.9087 33.9027C38.1719 32.0165 37.8911 29.5349 38.6585 25.3171C38.5207 25.2361 38.3899 25.1387 38.2722 25.019Z" fill="black"/>
<path d="M5.69634 8.99375C6.16982 7.95803 7.0793 7.00245 8.47708 6.07185C10.1103 4.98443 11.6458 4.43555 13.0506 4.43555C13.2581 4.43555 13.4622 4.44761 13.6636 4.47174C15.3422 4.67078 17.0076 5.79181 18.1185 7.46947C19.5207 9.58744 19.9758 12.1948 20.4171 14.7169C20.4589 14.9556 20.5008 15.1943 20.5426 15.433C20.8409 17.1081 21.1539 18.8124 21.4722 20.4987C21.5759 21.0502 21.6928 21.5982 21.8053 22.1281C21.9125 22.6348 22.0172 23.1285 22.1113 23.6188C21.9177 23.5585 21.7137 23.4982 21.4992 23.4361C21.378 23.4008 21.228 23.3569 21.187 23.3422C20.0247 22.9045 18.8571 22.4254 17.72 21.9196C14.5417 20.5065 11.897 19.083 9.63593 17.5673C6.86304 15.7044 4.16601 12.3405 5.69634 8.99375Z" fill="white"/>
<path d="M4.00622 8.23863C4.62532 6.88409 5.7493 5.67776 7.44094 4.55156C9.69501 3.05054 11.8636 2.41205 13.8857 2.65159C16.1023 2.9144 18.2648 4.34045 19.6722 6.46618C21.2845 8.90211 21.7728 11.6991 22.2463 14.4047C22.2881 14.6417 22.3291 14.8786 22.3709 15.1147C22.6683 16.7838 22.9796 18.4821 23.297 20.1615C23.4984 21.2265 23.7059 22.2907 23.9143 23.3548C24.0704 24.1501 24.2971 24.9317 24.4306 25.7313C24.5178 26.2535 24.5474 26.6162 23.9283 26.381C23.1627 26.0897 22.4041 25.7778 21.642 25.4762C20.0881 24.8369 18.4898 24.2889 16.9577 23.6013C14.8911 22.6741 12.8516 21.6642 10.8957 20.5217C10.1144 20.065 9.34621 19.5868 8.59457 19.0835C5.22524 16.8199 2.00241 12.6211 4.00709 8.23777L4.00622 8.23863ZM21.5007 23.4358C21.7143 23.4979 21.9193 23.5582 22.1128 23.6185C22.0187 23.1282 21.914 22.6345 21.8068 22.1278C21.6943 21.5979 21.5783 21.049 21.4737 20.4984C21.1554 18.8121 20.8424 17.1077 20.5442 15.4327C20.5014 15.1949 20.4604 14.9562 20.4186 14.7166C19.9782 12.1954 19.5222 9.58713 18.1201 7.46916C17.0092 5.7915 15.3446 4.67047 13.6651 4.47143C13.4637 4.4473 13.2597 4.43524 13.0521 4.43524C11.6474 4.43524 10.1118 4.98412 8.4786 6.07154C7.08082 7.00214 6.17134 7.95772 5.69786 8.99345C4.16754 12.3402 6.86369 15.7041 9.63745 17.567C11.8985 19.0827 14.5432 20.5062 17.7216 21.9193C18.8586 22.4251 20.0262 22.9033 21.1886 23.3419C21.2295 23.3565 21.3804 23.4005 21.5007 23.4358Z" fill="black"/>
<path d="M37.5907 2.22955C37.677 2.22438 37.7651 2.22266 37.8531 2.22266C38.9335 2.22266 40.129 2.58197 41.498 3.31697C43.4844 4.38371 44.7731 5.66415 45.3303 7.12381C45.9268 8.68687 45.6905 10.6644 44.6973 12.4127C43.4442 14.6194 41.314 16.2239 39.2544 17.7748C39.0591 17.9222 38.8646 18.0687 38.6702 18.216C37.2968 19.2569 35.9121 20.3185 34.5535 21.3706C34.1062 21.717 33.6676 22.072 33.2438 22.4158C32.8392 22.7441 32.4451 23.0629 32.0484 23.3722C32.0135 23.1749 31.9734 22.9681 31.9298 22.7518C31.9054 22.6295 31.8748 22.4778 31.8696 22.4347C31.7257 21.2129 31.6159 19.9686 31.5444 18.7391C31.3438 15.301 31.4005 12.3257 31.7161 9.64332C32.1077 6.35175 33.8813 2.43462 37.5915 2.23041L37.5907 2.22955Z" fill="white"/>
<path d="M29.8722 9.42885C30.3474 5.43073 32.6268 0.666581 37.4872 0.397742C38.9887 0.315022 40.5905 0.742408 42.3833 1.70489C44.7717 2.98705 46.3473 4.59233 47.0658 6.47507C47.8532 8.53875 47.5725 11.0936 46.3151 13.3081C44.8737 15.8457 42.5891 17.5664 40.3786 19.2312C40.1851 19.3768 39.9915 19.5224 39.7997 19.668C38.7786 20.4418 37.761 21.2199 36.7469 22.0014C35.7999 22.7312 34.9244 23.5214 33.8998 24.1556C33.3732 24.4813 32.8317 24.782 32.2823 25.0689C31.9048 25.2663 31.5568 25.5187 31.1662 25.6945C30.8697 25.8281 30.7171 25.6428 30.6509 25.3671C29.8033 21.8334 29.5548 18.2135 29.5722 14.5911L29.5722 14.5351C29.5757 14.0844 29.5844 13.6338 29.5984 13.1831C29.6385 11.9285 29.7239 10.6748 29.8722 9.42799L29.8722 9.42885ZM44.6967 12.4119C45.6899 10.6636 45.9262 8.6861 45.3297 7.12304C44.7725 5.66338 43.4829 4.38294 41.4974 3.3162C40.1284 2.5812 38.9329 2.22189 37.8525 2.22189C37.7645 2.22189 37.6773 2.22447 37.5901 2.22878C33.8798 2.43386 32.1062 6.35012 31.7147 9.64168C31.399 12.324 31.3432 15.2994 31.5429 18.7374C31.6144 19.967 31.7243 21.2121 31.8681 22.4331C31.8742 22.4762 31.9039 22.6278 31.9283 22.7502C31.971 22.9665 32.0111 23.1733 32.0469 23.3706C32.4436 23.0621 32.8378 22.7424 33.2424 22.4141C33.667 22.0703 34.1056 21.7153 34.5521 21.3689C35.9106 20.3169 37.2962 19.2553 38.6687 18.2144C38.8632 18.067 39.0576 17.9206 39.2529 17.7732C41.3125 16.2222 43.4419 14.6187 44.6958 12.4111L44.6967 12.4119Z" fill="black"/>
<path d="M38.6727 48.1844C37.8189 48.1844 37.1267 47.5004 37.1267 46.6566C37.1267 45.8129 37.8189 45.1289 38.6727 45.1289C39.5266 45.1289 40.2187 45.8129 40.2187 46.6566C40.2187 47.5004 39.5266 48.1844 38.6727 48.1844Z" fill="#FF6B30"/>
<path d="M49.8055 43.9061C48.9517 43.9061 48.2595 43.2221 48.2595 42.3783C48.2595 41.5346 48.9517 40.8506 49.8055 40.8506C50.6594 40.8506 51.3516 41.5346 51.3516 42.3783C51.3516 43.2221 50.6594 43.9061 49.8055 43.9061Z" fill="#FF6B30"/>
<path d="M44.5487 50.6303C43.1824 50.6303 42.0749 49.5358 42.0749 48.1858C42.0749 46.8357 43.1824 45.7412 44.5487 45.7412C45.9149 45.7412 47.0225 46.8357 47.0225 48.1858C47.0225 49.5358 45.9149 50.6303 44.5487 50.6303Z" fill="black"/>
<path d="M37.1543 42.425C37.3418 42.2397 37.3863 41.9562 37.2677 41.7218C37.17 41.5288 37.1674 41.366 37.1796 41.2462C37.2415 40.6172 37.899 39.933 38.3969 39.5142C38.6332 39.3152 38.6742 38.9714 38.5015 38.7172L38.4998 38.7138C38.2966 38.4139 37.8737 38.3493 37.5947 38.5819C36.9782 39.0963 36.0574 40.0347 35.9492 41.1273C35.9091 41.5323 35.985 41.9235 36.1716 42.2845C36.3591 42.6481 36.8631 42.7127 37.1552 42.4241L37.1543 42.425Z" fill="black"/>
<path d="M45.2422 38.5732C45.4297 38.7585 45.7166 38.8024 45.9537 38.6852C46.1491 38.5887 46.3139 38.5861 46.4351 38.5982C47.0716 38.6594 47.764 39.3091 48.1878 39.8011C48.3892 40.0346 48.7371 40.0751 48.9943 39.9045L48.9978 39.9027C49.3013 39.702 49.3667 39.2841 49.1312 39.0083C48.6107 38.3991 47.6611 37.4892 46.5554 37.3824C46.1456 37.3427 45.7497 37.4177 45.3843 37.6021C45.0164 37.7874 44.951 38.2854 45.2431 38.5741L45.2422 38.5732Z" fill="black"/>
</svg>
