<svg width="102" height="105" viewBox="0 0 102 105" fill="none" xmlns="http://www.w3.org/2000/svg">
<g clip-path="url(#clip0_627_5221)">
<path d="M20.4576 94.9277C21.7764 91.8825 24.307 88.848 30.1187 84.7841C30.7942 84.3123 30.9872 83.3901 30.569 82.6717C30.0972 81.8568 29.025 81.6209 28.2529 82.157C21.7443 86.7142 18.9349 90.2848 17.4981 93.6517C17.1335 94.5095 17.5624 95.4853 18.4417 95.7962C19.2459 96.0857 20.1252 95.6997 20.4576 94.9277Z" fill="black"/>
<path d="M26.5589 97.8332C26.9771 94.5414 28.5855 90.9278 33.0354 85.4164C33.5608 84.773 33.4857 83.8402 32.8852 83.2611C32.2097 82.6178 31.116 82.6821 30.5263 83.4112C25.5295 89.5982 23.8139 93.8015 23.3635 97.4257C23.2456 98.3479 23.9318 99.1628 24.8647 99.2272C25.7118 99.2808 26.4517 98.6696 26.5589 97.8332Z" fill="black"/>
<path d="M54.3085 102.358C53.7724 99.0771 54.2763 95.1633 56.9784 88.6118C57.2894 87.8505 56.957 86.9712 56.2171 86.5959C55.3808 86.167 54.3514 86.5423 53.9975 87.4109C50.9737 94.7666 50.5341 99.2808 51.1346 102.884C51.2847 103.795 52.1747 104.385 53.0861 104.181C53.9118 103.988 54.4479 103.195 54.3085 102.358Z" fill="black"/>
<path d="M47.8749 102.358C47.3388 99.0771 47.8427 95.1633 50.5448 88.6118C50.8558 87.8505 50.5234 86.9712 49.7835 86.5959C48.9472 86.167 47.9178 86.5423 47.5639 87.4109C44.5402 94.7666 44.1005 99.2808 44.701 102.884C44.8511 103.795 45.7411 104.385 46.6525 104.181C47.4782 103.988 48.0143 103.195 47.8749 102.358Z" fill="black"/>
<path d="M76.8043 95.3991C74.3703 93.1366 72.3759 89.7268 70.4994 82.8965C70.285 82.103 69.47 81.6098 68.6658 81.7706C67.7437 81.9422 67.154 82.875 67.4113 83.7757C69.5237 91.4424 71.9363 95.2811 74.6169 97.7688C75.3032 98.4014 76.3647 98.3156 76.9545 97.6079C77.4906 96.9431 77.4263 95.9888 76.8043 95.4098V95.3991Z" fill="black"/>
<path d="M71.443 97.5436C69.009 95.2811 67.0146 91.8713 65.1381 85.041C64.9236 84.2475 64.1087 83.7543 63.3045 83.9151C62.3824 84.0867 61.7926 85.0195 62.05 85.9203C64.1623 93.5869 66.5749 97.4257 69.2556 99.9133C69.9418 100.546 71.0034 100.46 71.5931 99.7525C72.1293 99.0877 72.0649 98.1334 71.443 97.5543V97.5436Z" fill="black"/>
<path d="M9.88477 74.2129C6.0355 74.2129 2.91505 73.2527 2.91505 72.0684C2.91505 70.884 6.0355 69.9238 9.88477 69.9238C13.734 69.9238 16.8545 70.884 16.8545 72.0684C16.8545 73.2527 13.734 74.2129 9.88477 74.2129Z" fill="black" stroke="black" stroke-width="3" stroke-miterlimit="10"/>
<path d="M60.0772 43.3301C78.0805 46.0751 91.516 55.4574 92.3631 67.3274C93.2531 79.8085 79.9677 91.1209 61.0315 95.4529C51.7779 78.7363 55.9061 56.8728 60.0665 43.3301H60.0772Z" fill="#FED22B" stroke="black" stroke-width="3" stroke-miterlimit="10"/>
<path d="M48.8392 42.8255C49.3754 42.7505 49.9115 42.6861 50.4583 42.6325C53.8574 42.3323 57.1386 42.5896 60.216 43.3295C57.5782 56.8722 54.9511 78.7357 60.8271 95.4523C58.3395 96.353 55.691 96.9535 52.946 97.2001C51.9702 97.2859 51.0159 97.3288 50.0616 97.318C43.2098 80.1832 46.0728 56.8079 48.85 42.8148L48.8392 42.8255Z" fill="black" stroke="black" stroke-width="3" stroke-miterlimit="10"/>
<path d="M30 48C36 43.5 42.8998 43.4588 50.2556 42.8262C45.7199 56.83 40.7734 79.8759 52 97C46 98 37 97 31.5 94C23.4151 78.9883 26.2685 61.3068 30 48Z" fill="#FED22B" stroke="black" stroke-width="3" stroke-miterlimit="10"/>
<path d="M28.4359 48.4785C25.573 61.1741 23.5142 79.1882 29.7227 93.5136C19.0322 89.632 11.6014 81.8903 11.0331 72.5187C10.4433 62.7289 17.5096 53.6897 28.4359 48.4785Z" fill="black" stroke="black" stroke-width="3" stroke-miterlimit="10"/>
<path d="M81.7256 66.707C80.8373 66.707 80.1172 65.9869 80.1172 65.0986C80.1172 64.2103 80.8373 63.4902 81.7256 63.4902C82.6139 63.4902 83.334 64.2103 83.334 65.0986C83.334 65.9869 82.6139 66.707 81.7256 66.707Z" fill="black"/>
<path d="M69.9316 68.8496C69.0433 68.8496 68.3232 68.1295 68.3232 67.2412C68.3232 66.3529 69.0433 65.6328 69.9316 65.6328C70.8199 65.6328 71.54 66.3529 71.54 67.2412C71.54 68.1295 70.8199 68.8496 69.9316 68.8496Z" fill="black"/>
<path d="M78.5535 75.6592C79.2826 75.6592 79.9689 75.5091 80.6122 75.2196C82.8426 74.2009 83.7969 71.6811 84.1722 70.1692C84.333 69.5365 83.9041 68.9039 83.25 68.8396C82.7139 68.7752 82.2206 69.1291 82.092 69.6545C81.781 70.8876 81.0733 72.6676 79.7223 73.2787C78.5749 73.8042 77.0309 73.4825 75.133 72.3244C74.6505 72.0349 74.0285 72.1743 73.7069 72.6354C73.353 73.1501 73.5139 73.8578 74.05 74.1795C75.7013 75.1659 77.2024 75.6699 78.5642 75.6699L78.5535 75.6592Z" fill="black"/>
<path d="M86.938 53.1113C88.2569 50.0661 90.7875 47.0316 96.5991 42.9677C97.2747 42.4959 97.4677 41.5737 97.0495 40.8553C96.5777 40.0404 95.5054 39.8045 94.7334 40.3406C88.2247 44.8978 85.4154 48.4684 83.9786 51.8353C83.614 52.6931 84.0429 53.6689 84.9222 53.9798C85.7264 54.2694 86.6056 53.8833 86.938 53.1113Z" fill="black"/>
<path d="M69.7798 53.1093C71.0987 50.0641 73.6293 47.0296 79.4409 42.9657C80.1165 42.4939 80.3095 41.5718 79.8913 40.8534C79.4195 40.0384 78.3472 39.8025 77.5752 40.3387C71.0665 44.8958 68.2572 48.4664 66.8204 51.8334C66.4558 52.6912 66.8847 53.6669 67.764 53.9779C68.5682 54.2674 69.4474 53.8814 69.7798 53.1093Z" fill="black"/>
<path d="M98.3477 43.1172C96.5711 43.1172 95.1309 41.677 95.1309 39.9004C95.1309 38.1238 96.5711 36.6836 98.3477 36.6836C100.124 36.6836 101.564 38.1238 101.564 39.9004C101.564 41.677 100.124 43.1172 98.3477 43.1172Z" fill="black"/>
<path d="M80.1172 43.1172C78.3406 43.1172 76.9004 41.677 76.9004 39.9004C76.9004 38.1238 78.3406 36.6836 80.1172 36.6836C81.8938 36.6836 83.334 38.1238 83.334 39.9004C83.334 41.677 81.8938 43.1172 80.1172 43.1172Z" fill="black"/>
<path d="M46.5029 43.6209C46.4171 42.8595 42.8036 41.991 42.2568 41.7766C40.198 40.9938 38.1607 40.1467 36.1556 39.246C31.2232 37.0264 26.3765 34.5066 21.8944 31.4721C16.5224 27.8157 11.4399 21.2105 14.5065 14.4338C15.611 11.9998 17.6804 10.134 19.9 8.63284C22.8809 6.6277 26.4194 5.13726 29.9793 5.56616C33.6357 6.00579 36.8418 8.46128 38.8577 11.5387C41.7099 15.8921 42.4176 21.1033 43.2969 26.1108C43.8223 29.0702 44.3584 32.0297 44.9053 34.9784C45.4414 37.8735 46.1705 40.6721 46.5029 43.6101V43.6209Z" fill="white" stroke="black" stroke-width="3" stroke-miterlimit="10"/>
<path d="M47.2111 43.4917C47.8437 43.0628 46.9537 39.46 46.8894 38.881C46.632 36.6936 46.439 34.4954 46.3211 32.2973C46.0101 26.9038 45.9994 21.4352 46.6213 16.0632C47.3826 9.60815 50.8889 2.04868 58.3197 1.6305C60.9897 1.48038 63.606 2.45614 65.9543 3.73214C69.1067 5.44776 72.0662 7.89253 73.3315 11.2594C74.6289 14.7014 73.9319 18.6795 72.1305 21.8963C69.5785 26.432 65.3002 29.4665 61.2577 32.5653C58.8773 34.3989 56.4969 36.2325 54.1272 38.0875C51.8004 39.9104 49.6558 41.8404 47.2111 43.4917Z" fill="white" stroke="black" stroke-width="3" stroke-miterlimit="10"/>
<path d="M67.7871 76.3555C66.3066 76.3555 65.1064 75.1553 65.1064 73.6748C65.1064 72.1943 66.3066 70.9941 67.7871 70.9941C69.2676 70.9941 70.4678 72.1943 70.4678 73.6748C70.4678 75.1553 69.2676 76.3555 67.7871 76.3555Z" fill="#FF6B30"/>
<path d="M87.0889 68.8516C85.6084 68.8516 84.4082 67.6514 84.4082 66.1709C84.4082 64.6904 85.6084 63.4902 87.0889 63.4902C88.5694 63.4902 89.7695 64.6904 89.7695 66.1709C89.7695 67.6514 88.5694 68.8516 87.0889 68.8516Z" fill="#FF6B30"/>
</g>
<defs>
<clipPath id="clip0_627_5221">
<rect width="100.793" height="104.224" fill="white" transform="matrix(-1 0 0 1 101.563 0)"/>
</clipPath>
</defs>
</svg>
