<svg width="60" height="66" viewBox="0 0 60 66" fill="none" xmlns="http://www.w3.org/2000/svg">
<path d="M24.4272 30.8965C15.0464 32.6448 8.56502 37.5106 8.15083 43.2278C7.7096 49.3172 14.2782 55.1877 24.2423 57.7296C26.9716 48.8837 25.6567 37.6089 24.4272 30.8965Z" fill="#FED22B"/>
<path d="M41.8206 32.4509C39.3128 31.5547 36.6079 30.8981 33.7522 30.4932C34.1428 32.6568 34.4576 34.8067 34.6913 36.9057C35.7385 42.7193 35.7359 48.0031 34.6834 52.6104C34.3756 54.7775 33.9187 56.8007 33.3223 58.6524C36.0228 58.4585 38.6099 58.0285 41.041 57.3685C45.0826 49.4576 43.7686 39.6061 41.8206 32.4509Z" fill="#FED22B"/>
<path d="M43.7754 55.1025C44.6491 56.2856 45.2953 57.3351 45.7626 58.2855C46.1201 58.1149 46.4724 57.9357 46.8203 57.7487C46.0783 56.9353 45.0947 56.0693 43.7754 55.1034V55.1025Z" fill="black"/>
<path d="M55.016 43.496C54.1353 37.8125 49.4057 33.3878 44.1128 30.7528C42.2729 29.8369 40.365 29.1372 38.5278 28.6754C38.1711 28.5858 37.8119 28.503 37.4518 28.4264C29.8673 26.8159 21.6489 27.8309 14.7629 31.3732C13.6851 31.9273 12.6449 32.5546 11.6639 33.2646C7.91176 35.9797 5.78762 39.3609 5.5208 43.0419C5.23915 46.9332 7.04153 50.6952 10.7344 53.9213C12.8018 55.7274 15.1265 57.1948 17.6099 58.3356C18.0023 57.648 18.3772 56.8311 18.7409 55.8454C11.949 52.8468 7.79753 48.1085 8.15068 43.2289C8.56487 37.5117 15.0463 32.6459 24.427 30.8976C25.6565 37.61 26.9715 48.884 24.2422 57.7307C24.0416 57.6799 23.8454 57.6247 23.6475 57.5713C23.2891 58.5562 22.9168 59.3955 22.5322 60.1184C24.5805 60.6768 26.6863 61.0387 28.8078 61.2101C28.5715 59.9693 28.1137 58.5071 27.356 56.6898C27.1729 56.2512 27.37 55.7489 27.7981 55.5335C28.2829 55.2896 28.8802 55.505 29.0869 56.0022C29.978 58.1443 30.4812 59.8651 30.7157 61.3127C31.3305 61.329 31.9452 61.329 32.5591 61.3127C32.328 60.0512 31.8659 58.5571 31.0872 56.6898C30.9041 56.2512 31.1012 55.7489 31.5293 55.5335C32.0141 55.2896 32.6114 55.505 32.8181 56.0022C33.1006 56.6821 33.3413 57.3154 33.5497 57.9151C34.0362 56.2676 34.4164 54.4934 34.6841 52.6107C35.7366 48.0034 35.7392 42.7205 34.692 36.906C34.4591 34.807 34.1435 32.6571 33.7528 30.4935C36.6086 30.8985 39.3134 31.5551 41.8212 32.4512C43.4675 38.4984 44.6604 46.4722 42.5502 53.5723C42.5546 53.5758 42.5581 53.5792 42.5624 53.5818C42.5825 53.481 42.6165 53.3819 42.6714 53.2897C42.947 52.8261 43.5669 52.6891 44.0125 52.9976C46.0399 54.4012 47.4446 55.6395 48.4431 56.7846C51.6441 54.6865 54.1371 51.7714 54.9218 47.8578C54.9288 47.8224 54.9341 47.7871 54.941 47.7518C59.1684 47.6277 59.3916 45.9664 59.3916 45.6235C59.3916 45.2805 59.1701 43.639 55.016 43.4977V43.496Z" fill="black"/>
<path d="M41.0406 57.3675C38.7481 57.9896 36.3153 58.405 33.7822 58.6126C34.0865 59.5725 34.2993 60.4342 34.431 61.2131C35.3788 61.1382 36.3223 61.027 37.2562 60.8754C39.4762 60.516 41.821 59.912 44.0585 59.0262C43.5658 58.0319 42.8508 56.9186 41.8358 55.6123C41.5969 56.206 41.3344 56.7919 41.0414 57.3667L41.0406 57.3675Z" fill="black"/>
<path d="M34.4296 61.2132C34.298 60.4343 34.0861 59.5726 33.7809 58.6127C33.6274 58.6256 33.4748 58.6403 33.3205 58.6506C33.399 58.4076 33.4739 58.162 33.5481 57.913C33.3397 57.3133 33.099 56.68 32.8165 56.0001C32.6098 55.5029 32.0125 55.2875 31.5277 55.5314C31.0996 55.7468 30.9034 56.2491 31.0856 56.6877C31.8643 58.555 32.3273 60.0491 32.5575 61.3106C32.7903 62.585 32.7868 63.6224 32.6307 64.5668C32.5514 65.0467 32.8618 65.5017 33.3414 65.6111H33.3458C33.8698 65.7318 34.386 65.3931 34.475 64.8684C34.6511 63.8301 34.6729 62.6573 34.4288 61.2132H34.4296Z" fill="black"/>
<path d="M29.087 56.0001C28.8803 55.5029 28.283 55.2875 27.7982 55.5314C27.3701 55.7468 27.1739 56.2491 27.3561 56.6877C28.1139 58.505 28.5708 59.9681 28.808 61.208C29.06 62.529 29.0617 63.5974 28.9013 64.5668C28.8219 65.0467 29.1323 65.5017 29.6119 65.6111H29.6163C30.1403 65.7318 30.6565 65.3931 30.7455 64.8684C30.9173 63.8533 30.9417 62.7099 30.715 61.3097C30.4804 59.8621 29.9782 58.1414 29.0861 55.9993L29.087 56.0001Z" fill="black"/>
<path d="M21.8622 57.0374C21.3861 56.8814 20.9187 56.7186 20.4618 56.5471C19.8706 56.3257 19.2968 56.0913 18.7405 55.8457C18.3777 56.8314 18.0028 57.6483 17.6095 58.3359C17.0645 59.2898 16.4864 59.9998 15.8586 60.5771C15.4985 60.9089 15.4627 61.456 15.774 61.8326L15.7766 61.836C16.1167 62.247 16.7349 62.2918 17.1299 61.9308C17.9025 61.2251 18.6367 60.3255 19.3299 59.0623C19.7886 59.2398 20.2499 59.4096 20.7164 59.5664C20.1723 60.5185 19.5941 61.2277 18.9672 61.8058C18.6071 62.1376 18.5713 62.6847 18.8826 63.0613L18.8852 63.0647C19.2253 63.4757 19.8435 63.5206 20.2385 63.1595C21.0451 62.4219 21.8107 61.4707 22.531 60.1161C22.9155 59.3932 23.2879 58.5539 23.6462 57.569C23.0376 57.4036 22.4429 57.2252 21.8622 57.0357V57.0374Z" fill="black"/>
<path d="M50.2508 59.5796C49.8654 58.6878 49.3047 57.7701 48.4441 56.7826C47.4457 55.6375 46.0409 54.3992 44.0136 52.9956C43.568 52.6871 42.948 52.8241 42.6725 53.2877C42.6175 53.3808 42.5827 53.4798 42.5635 53.5798C42.6114 53.6186 42.6577 53.6625 42.6978 53.7125C43.0936 54.1959 43.4503 54.6569 43.7781 55.1006C45.0974 56.0666 46.081 56.9325 46.8231 57.746C47.6393 58.6404 48.1686 59.4736 48.533 60.3077C48.7284 60.754 49.2385 60.9712 49.7015 60.8083L49.7059 60.8066C50.2125 60.6282 50.4627 60.0673 50.2508 59.5787V59.5796Z" fill="black"/>
<path d="M42.5613 53.5808C42.5613 53.5808 42.5535 53.5739 42.5491 53.5713C42.3442 54.2615 42.1053 54.9431 41.835 55.6134C42.8499 56.9189 43.565 58.033 44.0576 59.0274C44.5983 60.1182 44.8764 61.0695 44.9941 61.976C45.0569 62.4585 45.4859 62.8066 45.9769 62.7756H45.9812C46.5184 62.742 46.9151 62.2715 46.8488 61.7442C46.718 60.7067 46.405 59.5866 45.7632 58.2846C45.295 57.3342 44.6497 56.2847 43.776 55.1016C43.5065 54.9043 43.2275 54.7044 42.9293 54.4976C42.625 54.2873 42.4933 53.9237 42.5604 53.5808H42.5613Z" fill="black"/>
<path d="M42.93 54.4979C43.2283 54.7038 43.5073 54.9046 43.7767 55.1019C43.4489 54.6581 43.0922 54.1971 42.6963 53.7137C42.6554 53.6638 42.61 53.6198 42.5621 53.5811C42.4949 53.924 42.6266 54.2876 42.9309 54.4979H42.93Z" fill="black"/>
<path d="M13.0362 42.6852C13.5486 42.6852 13.964 42.2747 13.964 41.7684C13.964 41.262 13.5486 40.8516 13.0362 40.8516C12.5238 40.8516 12.1084 41.262 12.1084 41.7684C12.1084 42.2747 12.5238 42.6852 13.0362 42.6852Z" fill="black"/>
<path d="M19.8389 43.9069C20.3513 43.9069 20.7667 43.4964 20.7667 42.9901C20.7667 42.4837 20.3513 42.0732 19.8389 42.0732C19.3265 42.0732 18.9111 42.4837 18.9111 42.9901C18.9111 43.4964 19.3265 43.9069 19.8389 43.9069Z" fill="black"/>
<path d="M10.5029 31.153C9.67451 29.2383 8.05437 27.2039 4.29876 24.6043C4.22377 24.5526 4.14442 24.5147 4.06246 24.4871C4.06594 24.4414 4.06856 24.3958 4.06856 24.3492C4.06856 23.3368 3.23756 22.5156 2.21299 22.5156C1.18841 22.5156 0.357422 23.3368 0.357422 24.3492C0.357422 25.3617 1.18841 26.1829 2.21299 26.1829C2.52516 26.1829 2.81902 26.1062 3.07712 25.9718C3.11985 26.0183 3.16868 26.0605 3.22274 26.0976C6.57114 28.4111 8.03519 30.1396 8.79381 31.8776C8.98739 32.3214 9.49488 32.5377 9.95615 32.3757L9.96052 32.3739C10.4645 32.1964 10.713 31.6389 10.5029 31.153Z" fill="black"/>
<path d="M21.4768 25.019C22.1919 24.2934 22.1762 23.1328 21.442 22.4262C20.7078 21.7196 19.5332 21.7352 18.8182 22.4607C18.1032 23.1862 18.1188 24.3469 18.8531 25.0534C18.9612 25.1577 19.0798 25.2439 19.2036 25.3162C19.957 29.248 19.7843 31.4832 19.1042 33.2436C18.9298 33.6951 19.1408 34.2 19.5855 34.4016L19.5899 34.4034C20.0764 34.6231 20.6485 34.3956 20.8403 33.9027C21.5771 32.0165 21.8579 29.5349 21.0906 25.3171C21.2283 25.2361 21.3591 25.1387 21.4768 25.019Z" fill="black"/>
<path d="M54.0527 8.99376C53.5792 7.95803 52.6697 7.00245 51.2719 6.07185C49.6387 4.98443 48.1032 4.43555 46.6984 4.43555C46.4909 4.43555 46.2868 4.44761 46.0854 4.47174C44.4069 4.67078 42.7414 5.79181 41.6305 7.46947C40.2283 9.58744 39.7732 12.1948 39.332 14.7169C39.2901 14.9556 39.2482 15.1943 39.2064 15.433C38.9082 17.1081 38.5951 18.8124 38.2769 20.4987C38.1731 21.0502 38.0562 21.5982 37.9438 22.1281C37.8365 22.6348 37.7319 23.1285 37.6377 23.6188C37.8313 23.5585 38.0353 23.4982 38.2498 23.4361C38.371 23.4008 38.521 23.3569 38.562 23.3422C39.7243 22.9045 40.8919 22.4254 42.029 21.9196C45.2073 20.5065 47.8521 19.083 50.1131 17.5673C52.886 15.7044 55.583 12.3405 54.0527 8.99376Z" fill="white"/>
<path d="M55.7428 8.23863C55.1237 6.88409 53.9997 5.67776 52.3081 4.55156C50.054 3.05054 47.8854 2.41205 45.8633 2.65159C43.6467 2.9144 41.4842 4.34046 40.0768 6.46618C38.4646 8.90211 37.9763 11.6991 37.5028 14.4047C37.4609 14.6417 37.4199 14.8786 37.3781 15.1147C37.0807 16.7838 36.7694 18.4821 36.452 20.1615C36.2506 21.2265 36.0431 22.2907 35.8347 23.3548C35.6786 24.1501 35.4519 24.9317 35.3185 25.7313C35.2313 26.2535 35.2016 26.6162 35.8207 26.381C36.5863 26.0897 37.3449 25.7778 38.107 25.4762C39.6609 24.8369 41.2592 24.2889 42.7913 23.6013C44.8579 22.6741 46.8975 21.6642 48.8533 20.5217C49.6346 20.065 50.4028 19.5868 51.1545 19.0835C54.5238 16.82 57.7466 12.6211 55.7419 8.23777L55.7428 8.23863ZM38.2483 23.4358C38.0347 23.4979 37.8298 23.5582 37.6362 23.6185C37.7303 23.1282 37.835 22.6345 37.9422 22.1278C38.0547 21.5979 38.1707 21.049 38.2753 20.4984C38.5936 18.8121 38.9066 17.1077 39.2049 15.4327C39.2476 15.1949 39.2886 14.9562 39.3304 14.7166C39.7708 12.1954 40.2268 9.58714 41.629 7.46916C42.7399 5.7915 44.4045 4.67047 46.0839 4.47143C46.2853 4.4473 46.4894 4.43524 46.6969 4.43524C48.1017 4.43524 49.6372 4.98412 51.2704 6.07154C52.6682 7.00214 53.5777 7.95773 54.0512 8.99345C55.5815 12.3402 52.8853 15.7041 50.1116 17.567C47.8505 19.0827 45.2058 20.5062 42.0275 21.9193C40.8904 22.4251 39.7228 22.9033 38.5605 23.3419C38.5195 23.3565 38.3686 23.4005 38.2483 23.4358Z" fill="black"/>
<path d="M22.1584 2.22955C22.072 2.22438 21.984 2.22266 21.8959 2.22266C20.8155 2.22266 19.62 2.58197 18.251 3.31697C16.2647 4.38371 14.9759 5.66415 14.4187 7.12381C13.8223 8.68687 14.0586 10.6644 15.0517 12.4127C16.3048 14.6194 18.435 16.2239 20.4946 17.7748C20.69 17.9222 20.8844 18.0687 21.0789 18.216C22.4522 19.2569 23.8369 20.3185 25.1955 21.3706C25.6428 21.717 26.0814 22.072 26.5052 22.4158C26.9098 22.7441 27.3039 23.0629 27.7007 23.3722C27.7355 23.1749 27.7757 22.9681 27.8193 22.7518C27.8437 22.6295 27.8742 22.4778 27.8794 22.4347C28.0233 21.2129 28.1332 19.9686 28.2047 18.7391C28.4052 15.301 28.3485 12.3257 28.0329 9.64332C27.6414 6.35176 25.8678 2.43463 22.1575 2.23041L22.1584 2.22955Z" fill="white"/>
<path d="M29.8768 9.42885C29.4016 5.43073 27.1223 0.666582 22.2619 0.397743C20.7603 0.315023 19.1585 0.742409 17.3657 1.70489C14.9773 2.98705 13.4017 4.59233 12.6832 6.47507C11.8958 8.53875 12.1766 11.0936 13.434 13.3081C14.8753 15.8457 17.1599 17.5664 19.3704 19.2312C19.564 19.3768 19.7575 19.5224 19.9494 19.668C20.9705 20.4418 21.9881 21.2199 23.0022 22.0014C23.9491 22.7312 24.8246 23.5214 25.8492 24.1556C26.3759 24.4813 26.9173 24.782 27.4667 25.0689C27.8443 25.2663 28.1922 25.5187 28.5828 25.6945C28.8793 25.8281 29.0319 25.6428 29.0982 25.3671C29.9457 21.8334 30.1942 18.2135 30.1768 14.5911V14.5351C30.1733 14.0844 30.1646 13.6338 30.1506 13.1831C30.1105 11.9285 30.0251 10.6748 29.8768 9.42799V9.42885ZM15.0523 12.4119C14.0592 10.6636 13.8228 8.6861 14.4193 7.12304C14.9765 5.66338 16.2661 4.38294 18.2516 3.3162C19.6206 2.5812 20.8161 2.22189 21.8965 2.22189C21.9846 2.22189 22.0718 2.22447 22.159 2.22878C25.8692 2.43386 27.6428 6.35012 28.0343 9.64169C28.35 12.324 28.4058 15.2994 28.2061 18.7374C28.1346 19.967 28.0248 21.2121 27.8809 22.4331C27.8748 22.4762 27.8451 22.6278 27.8207 22.7502C27.778 22.9665 27.7379 23.1733 27.7021 23.3706C27.3054 23.0621 26.9112 22.7424 26.5066 22.4141C26.082 22.0703 25.6434 21.7153 25.1969 21.3689C23.8384 20.3169 22.4528 19.2553 21.0803 18.2144C20.8859 18.067 20.6914 17.9206 20.4961 17.7732C18.4365 16.2222 16.3071 14.6187 15.0532 12.4111L15.0523 12.4119Z" fill="black"/>
<path d="M21.0763 48.1844C21.9301 48.1844 22.6223 47.5004 22.6223 46.6566C22.6223 45.8129 21.9301 45.1289 21.0763 45.1289C20.2225 45.1289 19.5303 45.8129 19.5303 46.6566C19.5303 47.5004 20.2225 48.1844 21.0763 48.1844Z" fill="#FF6B30"/>
<path d="M9.94348 43.9061C10.7973 43.9061 11.4895 43.2221 11.4895 42.3783C11.4895 41.5346 10.7973 40.8506 9.94348 40.8506C9.08964 40.8506 8.39746 41.5346 8.39746 42.3783C8.39746 43.2221 9.08964 43.9061 9.94348 43.9061Z" fill="#FF6B30"/>
<path d="M15.2004 50.6303C16.5666 50.6303 17.6742 49.5358 17.6742 48.1858C17.6742 46.8357 16.5666 45.7412 15.2004 45.7412C13.8341 45.7412 12.7266 46.8357 12.7266 48.1858C12.7266 49.5358 13.8341 50.6303 15.2004 50.6303Z" fill="black"/>
<path d="M22.5947 42.425C22.4072 42.2397 22.3628 41.9562 22.4813 41.7218C22.579 41.5288 22.5816 41.366 22.5694 41.2462C22.5075 40.6172 21.85 39.933 21.3521 39.5142C21.1158 39.3152 21.0748 38.9714 21.2475 38.7172L21.2492 38.7138C21.4524 38.4139 21.8753 38.3493 22.1544 38.5819C22.7708 39.0963 23.6916 40.0347 23.7998 41.1273C23.8399 41.5323 23.764 41.9235 23.5774 42.2845C23.3899 42.6481 22.8859 42.7127 22.5938 42.4241L22.5947 42.425Z" fill="black"/>
<path d="M14.5068 38.5732C14.3193 38.7585 14.0325 38.8024 13.7953 38.6852C13.6 38.5887 13.4352 38.5861 13.3139 38.5982C12.6774 38.6594 11.9851 39.3091 11.5613 39.8011C11.3598 40.0346 11.0119 40.0751 10.7547 39.9045L10.7512 39.9027C10.4478 39.702 10.3824 39.2841 10.6178 39.0083C11.1384 38.3991 12.0879 37.4892 13.1936 37.3824C13.6034 37.3427 13.9993 37.4177 14.3647 37.6021C14.7327 37.7874 14.798 38.2854 14.5059 38.5741L14.5068 38.5732Z" fill="black"/>
</svg>
