<svg width="102" height="105" viewBox="0 0 102 105" fill="none" xmlns="http://www.w3.org/2000/svg">
<g clip-path="url(#clip0_627_5267)">
<path d="M81.8764 94.9277C80.5575 91.8825 78.027 88.848 72.2153 84.7841C71.5398 84.3123 71.3468 83.3901 71.765 82.6717C72.2368 81.8568 73.309 81.6209 74.0811 82.157C80.5897 86.7142 83.399 90.2848 84.8359 93.6517C85.2005 94.5095 84.7715 95.4853 83.8923 95.7962C83.0881 96.0857 82.2088 95.6997 81.8764 94.9277Z" fill="black"/>
<path d="M75.7751 97.8332C75.3569 94.5414 73.7485 90.9278 69.2986 85.4164C68.7732 84.773 68.8483 83.8402 69.4487 83.2611C70.1243 82.6178 71.218 82.6821 71.8077 83.4112C76.8045 89.5982 78.5201 93.8015 78.9705 97.4257C79.0884 98.3479 78.4022 99.1628 77.4693 99.2272C76.6222 99.2808 75.8823 98.6696 75.7751 97.8332Z" fill="black"/>
<path d="M48.0255 102.358C48.5616 99.0771 48.0577 95.1633 45.3556 88.6118C45.0446 87.8505 45.377 86.9712 46.1169 86.5959C46.9532 86.167 47.9826 86.5423 48.3364 87.4109C51.3602 94.7666 51.7999 99.2808 51.1994 102.884C51.0493 103.795 50.1593 104.385 49.2479 104.181C48.4222 103.988 47.8861 103.195 48.0255 102.358Z" fill="black"/>
<path d="M54.4591 102.358C54.9952 99.0771 54.4913 95.1633 51.7891 88.6118C51.4782 87.8505 51.8106 86.9712 52.5505 86.5959C53.3868 86.167 54.4162 86.5423 54.77 87.4109C57.7938 94.7666 58.2335 99.2808 57.633 102.884C57.4829 103.795 56.5929 104.385 55.6815 104.181C54.8558 103.988 54.3197 103.195 54.4591 102.358Z" fill="black"/>
<path d="M25.5296 95.3991C27.9637 93.1366 29.9581 89.7268 31.8346 82.8965C32.049 82.103 32.8639 81.6098 33.6681 81.7706C34.5903 81.9422 35.18 82.875 34.9227 83.7757C32.8103 91.4424 30.3977 95.2811 27.7171 97.7688C27.0308 98.4014 25.9693 98.3156 25.3795 97.6079C24.8434 96.9431 24.9077 95.9888 25.5296 95.4098V95.3991Z" fill="black"/>
<path d="M30.891 97.5436C33.325 95.2811 35.3194 91.8713 37.1959 85.041C37.4103 84.2475 38.2253 83.7543 39.0295 83.9151C39.9516 84.0867 40.5414 85.0195 40.284 85.9203C38.1717 93.5869 35.7591 97.4257 33.0784 99.9133C32.3921 100.546 31.3306 100.46 30.7409 99.7525C30.2047 99.0877 30.2691 98.1334 30.891 97.5543V97.5436Z" fill="black"/>
<path d="M92.4492 74.2129C96.2985 74.2129 99.4189 73.2527 99.4189 72.0684C99.4189 70.884 96.2985 69.9238 92.4492 69.9238C88.5999 69.9238 85.4795 70.884 85.4795 72.0684C85.4795 73.2527 88.5999 74.2129 92.4492 74.2129Z" fill="black" stroke="black" stroke-width="3" stroke-miterlimit="10"/>
<path d="M42.2568 43.3301C24.2535 46.0751 10.818 55.4574 9.97089 67.3274C9.08091 79.8085 22.3663 91.1209 41.3025 95.4529C50.5561 78.7363 46.4279 56.8728 42.2675 43.3301H42.2568Z" fill="#FED22B" stroke="black" stroke-width="3" stroke-miterlimit="10"/>
<path d="M53.4948 42.8255C52.9586 42.7505 52.4225 42.6861 51.8756 42.6325C48.4766 42.3323 45.1954 42.5896 42.118 43.3295C44.7558 56.8722 47.3828 78.7357 41.5068 95.4523C43.9945 96.353 46.643 96.9535 49.388 97.2001C50.3637 97.2859 51.3181 97.3288 52.2724 97.318C59.1241 80.1832 56.2612 56.8079 53.484 42.8148L53.4948 42.8255Z" fill="black" stroke="black" stroke-width="3" stroke-miterlimit="10"/>
<path d="M72.334 48C66.334 43.5 59.4342 43.4588 52.0784 42.8262C56.6141 56.83 61.5606 79.8759 50.334 97C56.334 98 65.334 97 70.834 94C78.9189 78.9883 76.0655 61.3068 72.334 48Z" fill="#FED22B" stroke="black" stroke-width="3" stroke-miterlimit="10"/>
<path d="M73.898 48.4785C76.761 61.1741 78.8197 79.1882 72.6113 93.5136C83.3018 89.632 90.7326 81.8903 91.3009 72.5187C91.8907 62.7289 84.8244 53.6897 73.898 48.4785Z" fill="black" stroke="black" stroke-width="3" stroke-miterlimit="10"/>
<path d="M20.6084 66.707C21.4967 66.707 22.2168 65.9869 22.2168 65.0986C22.2168 64.2103 21.4967 63.4902 20.6084 63.4902C19.7201 63.4902 19 64.2103 19 65.0986C19 65.9869 19.7201 66.707 20.6084 66.707Z" fill="black"/>
<path d="M32.4023 68.8496C33.2906 68.8496 34.0107 68.1295 34.0107 67.2412C34.0107 66.3529 33.2906 65.6328 32.4023 65.6328C31.514 65.6328 30.7939 66.3529 30.7939 67.2412C30.7939 68.1295 31.514 68.8496 32.4023 68.8496Z" fill="black"/>
<path d="M23.7805 75.6592C23.0513 75.6592 22.3651 75.5091 21.7217 75.2196C19.4914 74.2009 18.5371 71.6811 18.1618 70.1692C18.001 69.5365 18.4299 68.9039 19.084 68.8396C19.6201 68.7752 20.1133 69.1291 20.242 69.6545C20.553 70.8876 21.2607 72.6676 22.6117 73.2787C23.759 73.8042 25.3031 73.4825 27.201 72.3244C27.6835 72.0349 28.3054 72.1743 28.6271 72.6354C28.981 73.1501 28.8201 73.8578 28.284 74.1795C26.6327 75.1659 25.1315 75.6699 23.7698 75.6699L23.7805 75.6592Z" fill="black"/>
<path d="M15.396 53.1113C14.0771 50.0661 11.5465 47.0316 5.73485 42.9677C5.05932 42.4959 4.86632 41.5737 5.2845 40.8553C5.7563 40.0404 6.82856 39.8045 7.60059 40.3406C14.1092 44.8978 16.9186 48.4684 18.3554 51.8353C18.72 52.6931 18.2911 53.6689 17.4118 53.9798C16.6076 54.2694 15.7284 53.8833 15.396 53.1113Z" fill="black"/>
<path d="M32.5542 53.1093C31.2353 50.0641 28.7047 47.0296 22.8931 42.9657C22.2175 42.4939 22.0245 41.5718 22.4427 40.8534C22.9145 40.0384 23.9868 39.8025 24.7588 40.3387C31.2674 44.8958 34.0768 48.4664 35.5136 51.8334C35.8782 52.6912 35.4493 53.6669 34.57 53.9779C33.7658 54.2674 32.8866 53.8814 32.5542 53.1093Z" fill="black"/>
<path d="M3.98633 43.1172C5.76291 43.1172 7.20312 41.677 7.20312 39.9004C7.20312 38.1238 5.76291 36.6836 3.98633 36.6836C2.20974 36.6836 0.769531 38.1238 0.769531 39.9004C0.769531 41.677 2.20974 43.1172 3.98633 43.1172Z" fill="black"/>
<path d="M22.2168 43.1172C23.9934 43.1172 25.4336 41.677 25.4336 39.9004C25.4336 38.1238 23.9934 36.6836 22.2168 36.6836C20.4402 36.6836 19 38.1238 19 39.9004C19 41.677 20.4402 43.1172 22.2168 43.1172Z" fill="black"/>
<path d="M55.8311 43.6209C55.9168 42.8595 59.5304 41.991 60.0772 41.7766C62.136 40.9938 64.1733 40.1467 66.1784 39.246C71.1108 37.0264 75.9575 34.5066 80.4395 31.4721C85.8116 27.8157 90.8941 21.2105 87.8274 14.4338C86.723 11.9998 84.6535 10.134 82.434 8.63284C79.4531 6.6277 75.9146 5.13726 72.3547 5.56616C68.6982 6.00579 65.4922 8.46128 63.4763 11.5387C60.6241 15.8921 59.9164 21.1033 59.0371 26.1108C58.5117 29.0702 57.9756 32.0297 57.4287 34.9784C56.8926 37.8735 56.1635 40.6721 55.8311 43.6101V43.6209Z" fill="white" stroke="black" stroke-width="3" stroke-miterlimit="10"/>
<path d="M55.1229 43.4917C54.4903 43.0628 55.3803 39.46 55.4446 38.881C55.7019 36.6936 55.8949 34.4954 56.0129 32.2973C56.3238 26.9038 56.3346 21.4352 55.7127 16.0632C54.9514 9.60815 51.445 2.04868 44.0142 1.6305C41.3443 1.48038 38.728 2.45614 36.3797 3.73214C33.2273 5.44776 30.2678 7.89253 29.0025 11.2594C27.7051 14.7014 28.4021 18.6795 30.2035 21.8963C32.7555 26.432 37.0338 29.4665 41.0762 32.5653C43.4567 34.3989 45.8371 36.2325 48.2068 38.0875C50.5336 39.9104 52.6781 41.8404 55.1229 43.4917Z" fill="white" stroke="black" stroke-width="3" stroke-miterlimit="10"/>
<path d="M34.5469 76.3555C36.0274 76.3555 37.2275 75.1553 37.2275 73.6748C37.2275 72.1943 36.0274 70.9941 34.5469 70.9941C33.0664 70.9941 31.8662 72.1943 31.8662 73.6748C31.8662 75.1553 33.0664 76.3555 34.5469 76.3555Z" fill="#FF6B30"/>
<path d="M15.2451 68.8516C16.7256 68.8516 17.9258 67.6514 17.9258 66.1709C17.9258 64.6904 16.7256 63.4902 15.2451 63.4902C13.7646 63.4902 12.5645 64.6904 12.5645 66.1709C12.5645 67.6514 13.7646 68.8516 15.2451 68.8516Z" fill="#FF6B30"/>
</g>
<defs>
<clipPath id="clip0_627_5267">
<rect width="100.793" height="104.224" fill="white" transform="translate(0.770508)"/>
</clipPath>
</defs>
</svg>
