<svg width="666" height="719" viewBox="0 0 666 719" fill="none" xmlns="http://www.w3.org/2000/svg">
<path d="M538.14 66.4259C519.27 53.7159 501.53 47.2959 485.3 47.2959C482.91 47.2959 480.54 47.4359 478.22 47.7159C458.83 50.0459 439.59 63.1459 426.76 82.7659C410.57 107.526 405.3 138.006 400.21 167.486C399.73 170.276 399.25 173.066 398.76 175.856C395.29 195.546 391.68 215.466 388.02 235.076C386.82 241.526 385.47 247.936 384.17 254.136C382.93 260.056 381.72 265.826 380.64 271.556C382.87 270.856 385.23 270.146 387.7 269.416C389.1 269.006 390.84 268.496 391.31 268.326C404.74 263.206 418.23 257.606 431.37 251.696C468.09 235.176 498.64 218.536 524.76 200.816C556.79 179.036 587.94 139.706 570.27 100.586C564.8 88.4759 554.29 77.3059 538.15 66.4259H538.14Z" fill="white"/>
<path d="M589.8 91.756C582.64 75.916 569.66 61.816 550.12 48.646C524.08 31.096 499.03 23.626 475.67 26.436C450.07 29.516 425.08 46.186 408.83 71.036C390.21 99.506 384.56 132.216 379.1 163.846C378.62 166.616 378.14 169.386 377.66 172.146C374.2 191.766 370.6 211.616 366.96 231.146C365.8 237.356 364.48 243.656 363.2 249.746C360.52 262.546 357.74 275.776 356.19 289.426L377.48 291.856C377.16 294.656 375.67 296.356 375.12 296.776C376.96 295.366 383.23 293.086 393.74 289.996C396.4 289.216 397.83 288.786 398.92 288.376C412.77 283.096 426.64 277.336 440.16 271.256C478.02 254.226 509.63 236.996 536.8 218.566C575.72 192.106 612.95 143.026 589.8 91.776V91.756ZM387.7 269.416C385.23 270.146 382.87 270.846 380.64 271.556C381.72 265.826 382.93 260.056 384.17 254.136C385.47 247.936 386.81 241.526 388.02 235.076C391.68 215.466 395.29 195.546 398.76 175.856C399.25 173.076 399.73 170.286 400.21 167.486C405.3 138.006 410.56 107.526 426.76 82.766C439.59 63.146 458.83 50.046 478.22 47.716C480.55 47.436 482.91 47.296 485.3 47.296C501.53 47.296 519.27 53.706 538.14 66.426C554.28 77.306 564.79 88.476 570.26 100.586C587.93 139.706 556.79 179.036 524.75 200.816C498.62 218.536 468.08 235.176 431.36 251.696C418.22 257.606 404.73 263.206 391.3 268.326C390.83 268.496 389.08 269.006 387.69 269.416H387.7Z" fill="#3A3A3A"/>
<path d="M287.55 21.5155C286.55 21.4555 285.54 21.4355 284.52 21.4355C272.04 21.4355 258.23 25.6355 242.42 34.2355C219.48 46.7055 204.58 61.6755 198.15 78.7355C191.26 97.0155 193.99 120.126 205.46 140.566C219.94 166.366 244.54 185.116 268.34 203.246C270.6 204.966 272.85 206.686 275.09 208.406C290.91 220.546 306.92 232.956 322.65 245.286C327.81 249.326 332.88 253.486 337.78 257.506C342.46 261.336 347.01 265.076 351.6 268.686C352.01 266.376 352.47 263.966 352.97 261.436C353.25 260.006 353.6 258.226 353.67 257.726C355.33 243.456 356.6 228.906 357.43 214.516C359.74 174.316 359.1 139.536 355.45 108.186C350.93 69.7055 330.44 23.9155 287.57 21.5255L287.55 21.5155Z" fill="white"/>
<path d="M376.71 105.686C371.22 58.946 344.89 3.24601 288.74 0.116006C271.39 -0.843994 252.89 4.14601 232.18 15.396C219.81 22.116 209.17 29.736 200.55 38.056C190.15 48.096 182.59 59.236 178.09 71.166C168.99 95.296 172.23 125.156 186.76 151.056C203.41 180.726 229.81 200.846 255.34 220.296C257.58 222.006 259.81 223.706 262.03 225.406C277.8 237.506 293.74 249.866 309.42 262.156C314.39 266.056 319.37 270.136 324.18 274.076C334.29 282.366 344.75 290.946 356.13 298.626L368.12 280.856C370.45 282.436 371.27 284.536 371.39 285.216C370.99 282.936 371.86 276.326 373.98 265.566C374.52 262.846 374.8 261.376 374.93 260.226C376.64 245.506 377.95 230.546 378.8 215.736C381.19 174.286 380.5 138.296 376.71 105.686ZM205.45 140.556C193.98 120.116 191.25 96.996 198.14 78.726C204.57 61.666 219.47 46.686 242.41 34.226C258.22 25.636 272.04 21.426 284.51 21.426C285.53 21.426 286.54 21.456 287.54 21.506C330.41 23.906 350.9 69.696 355.42 108.166C359.07 139.516 359.72 174.306 357.4 214.496C356.57 228.886 355.31 243.436 353.64 257.706C353.57 258.206 353.22 259.986 352.94 261.416C352.44 263.946 351.98 266.366 351.57 268.666C346.99 265.056 342.43 261.316 337.75 257.486C332.85 253.466 327.79 249.316 322.62 245.266C306.88 232.936 290.88 220.526 275.06 208.386C272.82 206.666 270.57 204.946 268.31 203.226C244.52 185.096 219.91 166.346 205.43 140.546L205.45 140.556Z" fill="#3A3A3A"/>
<path d="M263.43 314.226C155.64 334.556 81.1701 391.136 76.4101 457.606C71.3401 528.406 146.81 596.666 261.3 626.226C292.66 523.366 277.55 392.276 263.43 314.226Z" fill="#F9DB6C"/>
<path d="M463.29 332.286C434.47 321.866 403.4 314.236 370.58 309.516C375.07 334.676 378.69 359.676 381.37 384.086C393.41 451.686 393.38 513.126 381.28 566.686C377.74 591.876 372.5 615.416 365.64 636.936C396.67 634.686 426.4 629.686 454.33 622.006C500.76 530.026 485.67 415.476 463.29 332.276V332.286Z" fill="#F9DB6C"/>
<path d="M485.76 595.676C495.8 609.436 503.22 621.636 508.6 632.686C512.71 630.696 516.76 628.616 520.75 626.436C512.22 616.976 500.92 606.906 485.76 595.676Z" fill="#3A3A3A"/>
<path d="M614.91 460.726C604.79 394.646 550.45 343.196 489.63 312.556C468.49 301.906 446.57 293.766 425.46 288.396C421.36 287.356 417.24 286.386 413.1 285.496C325.96 266.776 231.53 278.576 152.4 319.766C140.02 326.216 128.06 333.506 116.79 341.756C73.68 373.326 49.27 412.636 46.2 455.446C42.96 500.696 63.67 544.436 106.1 581.946C129.86 602.946 156.57 620.016 185.1 633.276C189.61 625.286 193.92 615.786 198.09 604.326C120.05 569.466 72.35 514.366 76.41 457.626C81.17 391.156 155.64 334.576 263.43 314.246C277.55 392.296 292.67 523.386 261.3 626.246C259 625.656 256.74 625.016 254.47 624.386C250.35 635.836 246.08 645.596 241.66 653.996C265.19 660.486 289.39 664.706 313.77 666.686C311.05 652.266 305.8 635.256 297.09 614.126C294.99 609.026 297.25 603.176 302.17 600.676C307.74 597.836 314.6 600.336 316.98 606.126C327.22 631.026 333 651.046 335.69 667.866C342.75 668.056 349.82 668.056 356.87 667.866C354.22 653.196 348.9 635.826 339.95 614.116C337.85 609.016 340.11 603.166 345.03 600.666C350.6 597.826 357.46 600.326 359.84 606.116C363.09 614.026 365.85 621.386 368.25 628.366C373.84 609.206 378.21 588.576 381.28 566.686C393.38 513.116 393.41 451.686 381.37 384.086C378.69 359.676 375.07 334.676 370.58 309.516C403.4 314.226 434.47 321.856 463.29 332.286C482.21 402.606 495.91 495.316 471.66 577.876C471.71 577.916 471.75 577.956 471.8 577.986C472.03 576.816 472.42 575.666 473.06 574.586C476.22 569.196 483.35 567.596 488.47 571.186C511.77 587.506 527.9 601.906 539.38 615.216C576.16 590.816 604.81 556.926 613.82 511.426C613.9 511.016 613.96 510.606 614.04 510.186C662.61 508.746 665.18 489.426 665.18 485.436C665.18 481.446 662.63 462.366 614.91 460.716V460.726Z" fill="#3A3A3A"/>
<path d="M454.32 622.016C427.98 629.256 400.03 634.076 370.92 636.496C374.42 647.656 376.86 657.676 378.37 666.736C389.26 665.866 400.1 664.566 410.83 662.816C436.33 658.636 463.28 651.616 488.99 641.316C483.33 629.756 475.12 616.806 463.45 601.626C460.71 608.526 457.69 615.336 454.32 622.016Z" fill="#3A3A3A"/>
<path d="M378.37 666.736C376.86 657.676 374.42 647.656 370.92 636.496C369.16 636.646 367.4 636.816 365.63 636.936C366.53 634.116 367.4 631.246 368.24 628.356C365.84 621.376 363.08 614.016 359.83 606.106C357.45 600.326 350.59 597.826 345.02 600.656C340.1 603.156 337.84 609.006 339.94 614.106C348.89 635.816 354.2 653.186 356.86 667.856C359.54 682.676 359.49 694.736 357.7 705.716C356.79 711.296 360.36 716.586 365.87 717.856H365.92C371.94 719.256 377.88 715.316 378.9 709.226C380.92 697.146 381.18 683.516 378.37 666.726V666.736Z" fill="#3A3A3A"/>
<path d="M316.97 606.116C314.59 600.336 307.73 597.836 302.16 600.666C297.24 603.166 294.98 609.016 297.08 614.116C305.79 635.246 311.04 652.256 313.76 666.676C316.66 682.036 316.68 694.466 314.84 705.726C313.93 711.306 317.5 716.596 323.01 717.866H323.06C329.08 719.266 335.02 715.326 336.04 709.236C338.02 697.436 338.29 684.136 335.69 667.856C333 651.026 327.22 631.016 316.98 606.116H316.97Z" fill="#3A3A3A"/>
<path d="M233.97 618.176C228.5 616.366 223.13 614.466 217.88 612.476C211.09 609.896 204.49 607.176 198.1 604.316C193.93 615.776 189.62 625.276 185.11 633.266C178.85 644.356 172.2 652.606 164.99 659.326C160.85 663.176 160.44 669.546 164.02 673.926L164.05 673.966C167.96 678.746 175.07 679.266 179.6 675.076C188.47 666.866 196.91 656.416 204.88 641.726C210.15 643.796 215.45 645.766 220.81 647.586C214.56 658.666 207.91 666.906 200.71 673.626C196.57 677.476 196.16 683.846 199.74 688.226L199.77 688.266C203.68 693.046 210.79 693.566 215.32 689.376C224.59 680.806 233.38 669.736 241.66 653.996C246.08 645.586 250.35 635.836 254.47 624.386C247.48 622.456 240.64 620.386 233.97 618.186V618.176Z" fill="#3A3A3A"/>
<path d="M560.13 647.746C555.7 637.376 549.26 626.706 539.37 615.226C527.9 601.916 511.76 587.516 488.46 571.196C483.34 567.606 476.21 569.206 473.05 574.596C472.42 575.676 472.02 576.826 471.79 577.996C472.35 578.446 472.87 578.956 473.34 579.536C477.89 585.166 481.99 590.516 485.76 595.676C500.92 606.906 512.22 616.986 520.75 626.436C530.13 636.836 536.21 646.516 540.4 656.216C542.64 661.406 548.5 663.936 553.83 662.036L553.88 662.016C559.7 659.936 562.57 653.426 560.14 647.736L560.13 647.746Z" fill="#3A3A3A"/>
<path d="M471.8 577.986C471.8 577.986 471.71 577.906 471.66 577.876C469.3 585.906 466.56 593.826 463.45 601.626C475.12 616.806 483.33 629.756 488.99 641.316C495.2 654.006 498.4 665.056 499.75 675.606C500.47 681.216 505.4 685.266 511.05 684.906H511.1C517.27 684.516 521.83 679.046 521.07 672.916C519.57 660.856 515.97 647.836 508.6 632.686C503.22 621.636 495.81 609.436 485.76 595.676C482.66 593.376 479.46 591.056 476.03 588.656C472.53 586.206 471.02 581.986 471.8 577.996V577.986Z" fill="#3A3A3A"/>
<path d="M476.03 588.646C479.46 591.046 482.66 593.376 485.76 595.666C482 590.506 477.89 585.146 473.34 579.526C472.87 578.946 472.35 578.436 471.79 577.986C471.02 581.976 472.53 586.206 476.02 588.646H476.03Z" fill="#3A3A3A"/>
<path d="M132.17 460.276C138.09 460.276 142.89 455.476 142.89 449.556C142.89 443.635 138.09 438.836 132.17 438.836C126.249 438.836 121.45 443.635 121.45 449.556C121.45 455.476 126.249 460.276 132.17 460.276Z" fill="#3A3A3A"/>
<path d="M210.75 474.566C216.671 474.566 221.47 469.766 221.47 463.846C221.47 457.925 216.671 453.126 210.75 453.126C204.83 453.126 200.03 457.925 200.03 463.846C200.03 469.766 204.83 474.566 210.75 474.566Z" fill="#3A3A3A"/>
<path d="M153.3 519.956C148.42 519.956 143.84 518.986 139.57 517.046C124.68 510.266 118.39 493.476 115.87 483.376C114.82 479.156 117.67 474.976 122 474.496C125.58 474.096 128.84 476.416 129.71 479.916C131.77 488.166 136.52 499.976 145.52 504.056C153.17 507.526 163.45 505.406 176.11 497.736C179.3 495.796 183.48 496.716 185.6 499.776C187.97 503.186 186.9 507.906 183.33 510.046C172.35 516.646 162.31 519.956 153.29 519.956H153.3Z" fill="#3A3A3A"/>
<path d="M117.2 361.206C107.63 338.816 88.92 315.046 45.53 284.656C44.67 284.046 43.73 283.646 42.78 283.326C42.82 282.776 42.86 282.236 42.86 281.676C42.86 269.836 33.26 260.246 21.43 260.246C9.6 260.246 0 269.836 0 281.676C0 293.516 9.6 303.106 21.43 303.106C25.04 303.106 28.44 302.206 31.42 300.626C31.92 301.166 32.47 301.676 33.09 302.106C71.77 329.156 88.68 349.356 97.45 369.676C99.69 374.866 105.55 377.396 110.88 375.496L110.93 375.476C116.75 373.396 119.62 366.886 117.19 361.196L117.2 361.206Z" fill="#3A3A3A"/>
<path d="M231.5 361.206C222.22 339.486 204.24 316.426 163.54 287.306C164.03 285.506 164.31 283.626 164.31 281.676C164.31 269.836 154.71 260.246 142.88 260.246C131.05 260.246 121.45 269.846 121.45 281.676C121.45 293.506 131.05 303.106 142.88 303.106C144.62 303.106 146.3 302.876 147.92 302.486C186.22 329.346 203.03 349.456 211.76 369.676C214 374.866 219.86 377.396 225.19 375.496L225.24 375.476C231.06 373.396 233.93 366.886 231.5 361.196V361.206Z" fill="#3A3A3A"/>
<path d="M225.04 524.576C234.904 524.576 242.9 516.58 242.9 506.716C242.9 496.853 234.904 488.856 225.04 488.856C215.176 488.856 207.18 496.853 207.18 506.716C207.18 516.58 215.176 524.576 225.04 524.576Z" fill="#D6744D"/>
<path d="M96.4501 474.566C106.314 474.566 114.31 466.569 114.31 456.706C114.31 446.842 106.314 438.846 96.4501 438.846C86.5863 438.846 78.5901 446.842 78.5901 456.706C78.5901 466.569 86.5863 474.566 96.4501 474.566Z" fill="#D6744D"/>
</svg>
