<svg width="701" height="481" viewBox="0 0 701 481" fill="none" xmlns="http://www.w3.org/2000/svg">
<path d="M299.9 77.2383C192.29 97.5383 117.94 154.028 113.19 220.388C108.13 291.068 183.47 359.228 297.78 388.728C329.09 286.038 314.01 155.158 299.91 77.2383H299.9Z" fill="#F9DB6C"/>
<path d="M499.42 95.2593C470.65 84.8493 439.62 77.2393 406.86 72.5293C411.34 97.6493 414.96 122.609 417.63 146.969C429.65 214.459 429.62 275.789 417.54 329.269C414.01 354.419 408.77 377.919 401.92 399.409C432.9 397.159 462.58 392.169 490.47 384.509C536.83 292.679 521.76 178.309 499.42 95.2493V95.2593Z" fill="#F9DB6C"/>
<path d="M357.33 49.3688C362.3 47.9188 377.15 68.0889 379.88 70.9489C390.14 81.6989 400.71 92.1589 411.59 102.289C438.26 127.159 466.6 150.759 497.19 170.679C533.93 194.539 588.33 208.889 622.48 172.149C634.76 158.939 640.97 141.179 644.46 123.479C649.16 99.7188 649.19 73.7888 637.21 52.7288C624.92 31.1288 601.28 17.6088 576.84 13.1188C542.3 6.77882 508.08 15.9689 474.59 23.5789C454.82 28.0689 435.02 32.4588 415.2 36.7488C395.75 40.9588 376.46 43.7688 357.32 49.3588L357.33 49.3688Z" fill="white" stroke="#3A3A3A" stroke-width="21.7" stroke-miterlimit="10"/>
<path d="M521.86 358.219C531.89 371.959 539.29 384.139 544.66 395.169C548.76 393.189 552.81 391.109 556.79 388.929C548.28 379.489 536.99 369.429 521.86 358.219Z" fill="#3A3A3A"/>
<path d="M650.79 223.489C640.69 157.519 586.43 106.149 525.72 75.5591C504.61 64.9291 482.73 56.7991 461.65 51.4391C457.55 50.3991 453.44 49.4291 449.31 48.5491C362.31 29.8591 268.03 41.639 189.04 82.759C176.68 89.199 164.74 96.479 153.49 104.719C110.45 136.239 86.08 175.479 83.02 218.229C79.79 263.399 100.47 307.069 142.83 344.519C166.55 365.479 193.21 382.519 221.7 395.759C226.2 387.779 230.51 378.299 234.67 366.849C156.76 332.039 109.13 277.039 113.19 220.389C117.94 154.029 192.29 97.539 299.9 77.239C314 155.159 329.09 286.039 297.77 388.729C295.47 388.139 293.22 387.499 290.95 386.879C286.84 398.309 282.57 408.049 278.16 416.439C301.65 422.919 325.82 427.129 350.15 429.109C347.43 414.709 342.19 397.729 333.5 376.629C331.4 371.539 333.66 365.699 338.57 363.199C344.13 360.369 350.98 362.869 353.36 368.639C363.58 393.499 369.35 413.479 372.04 430.279C379.09 430.469 386.15 430.469 393.19 430.279C390.54 415.629 385.23 398.289 376.3 376.619C374.2 371.529 376.46 365.689 381.37 363.189C386.93 360.359 393.78 362.859 396.16 368.629C399.41 376.519 402.16 383.879 404.55 390.839C410.13 371.709 414.49 351.119 417.56 329.259C429.64 275.779 429.67 214.449 417.65 146.959C414.98 122.589 411.36 97.639 406.88 72.519C439.64 77.229 470.67 84.839 499.44 95.249C518.33 165.449 532 258.009 507.8 340.439C507.85 340.479 507.89 340.519 507.94 340.549C508.17 339.379 508.56 338.229 509.19 337.159C512.35 331.769 519.46 330.179 524.58 333.759C547.84 350.049 563.95 364.429 575.4 377.719C612.12 353.359 640.72 319.519 649.72 274.099C649.8 273.689 649.86 273.279 649.94 272.869C698.43 271.429 701 252.149 701 248.159C701 244.169 698.46 225.129 650.81 223.479L650.79 223.489Z" fill="#3A3A3A"/>
<path d="M490.47 384.519C464.17 391.739 436.27 396.559 407.2 398.979C410.69 410.119 413.13 420.119 414.64 429.169C425.51 428.299 436.33 427.009 447.05 425.249C472.51 421.079 499.42 414.069 525.08 403.789C519.43 392.249 511.23 379.319 499.58 364.159C496.84 371.049 493.83 377.849 490.47 384.519Z" fill="#3A3A3A"/>
<path d="M414.65 429.169C413.14 420.129 410.71 410.119 407.21 398.979C405.45 399.129 403.7 399.299 401.93 399.419C402.83 396.599 403.7 393.739 404.54 390.859C402.15 383.899 399.39 376.539 396.15 368.649C393.78 362.879 386.93 360.379 381.36 363.209C376.45 365.709 374.19 371.539 376.29 376.639C385.22 398.309 390.53 415.659 393.18 430.299C395.85 445.099 395.81 457.139 394.02 468.099C393.11 473.669 396.67 478.949 402.17 480.219H402.22C408.23 481.619 414.16 477.689 415.17 471.599C417.19 459.539 417.44 445.929 414.64 429.169H414.65Z" fill="#3A3A3A"/>
<path d="M353.35 368.649C350.98 362.879 344.13 360.379 338.56 363.209C333.65 365.709 331.39 371.539 333.49 376.639C342.19 397.739 347.43 414.719 350.14 429.119C353.03 444.449 353.05 456.859 351.21 468.109C350.3 473.679 353.86 478.959 359.36 480.229H359.41C365.42 481.629 371.35 477.699 372.36 471.609C374.33 459.819 374.61 446.549 372.01 430.299C369.32 413.499 363.55 393.519 353.33 368.659L353.35 368.649Z" fill="#3A3A3A"/>
<path d="M270.48 380.679C265.01 378.869 259.65 376.979 254.41 374.989C247.63 372.419 241.05 369.699 234.66 366.849C230.49 378.289 226.19 387.779 221.69 395.759C215.44 406.829 208.81 415.069 201.6 421.779C197.47 425.629 197.06 431.989 200.63 436.359L200.66 436.399C204.57 441.179 211.66 441.689 216.19 437.499C225.05 429.309 233.47 418.869 241.43 404.209C246.69 406.279 251.98 408.239 257.34 410.059C251.1 421.119 244.47 429.349 237.27 436.049C233.14 439.899 232.73 446.259 236.3 450.629L236.33 450.669C240.24 455.449 247.33 455.959 251.86 451.769C261.11 443.209 269.89 432.169 278.16 416.449C282.57 408.059 286.84 398.319 290.95 386.889C283.97 384.969 277.15 382.899 270.48 380.699V380.679Z" fill="#3A3A3A"/>
<path d="M596.11 410.199C591.69 399.849 585.26 389.189 575.38 377.729C563.93 364.439 547.81 350.059 524.56 333.769C519.45 330.189 512.33 331.779 509.17 337.169C508.54 338.249 508.14 339.399 507.92 340.559C508.47 341.009 509 341.519 509.47 342.099C514.01 347.719 518.11 353.069 521.86 358.209C536.99 369.429 548.28 379.479 556.79 388.919C566.15 399.309 572.23 408.969 576.41 418.649C578.65 423.829 584.5 426.359 589.81 424.459L589.86 424.439C595.67 422.369 598.54 415.859 596.11 410.189V410.199Z" fill="#3A3A3A"/>
<path d="M507.92 340.559C507.92 340.559 507.83 340.479 507.78 340.449C505.43 348.459 502.69 356.369 499.59 364.159C511.24 379.319 519.43 392.239 525.09 403.789C531.29 416.459 534.49 427.489 535.84 438.019C536.56 443.619 541.48 447.659 547.12 447.309H547.17C553.33 446.919 557.88 441.459 557.12 435.339C555.62 423.299 552.03 410.299 544.67 395.179C539.3 384.149 531.9 371.969 521.87 358.229C518.78 355.939 515.58 353.609 512.16 351.219C508.67 348.779 507.16 344.559 507.93 340.569L507.92 340.559Z" fill="#3A3A3A"/>
<path d="M512.15 351.208C515.57 353.608 518.77 355.928 521.86 358.218C518.1 353.068 514 347.718 509.47 342.108C509 341.528 508.48 341.018 507.92 340.568C507.15 344.558 508.66 348.768 512.15 351.218V351.208Z" fill="#3A3A3A"/>
<path d="M175.47 215.899C181.462 215.899 186.32 211.041 186.32 205.049C186.32 199.057 181.462 194.199 175.47 194.199C169.478 194.199 164.62 199.057 164.62 205.049C164.62 211.041 169.478 215.899 175.47 215.899Z" fill="#3A3A3A"/>
<path d="M255.04 230.369C261.032 230.369 265.89 225.511 265.89 219.519C265.89 213.527 261.032 208.669 255.04 208.669C249.048 208.669 244.19 213.527 244.19 219.519C244.19 225.511 249.048 230.369 255.04 230.369Z" fill="#3A3A3A"/>
<path d="M192.74 230.259C197.69 230.259 202.32 231.239 206.64 233.209C221.72 240.079 228.09 257.079 230.63 267.309C231.69 271.579 228.8 275.809 224.43 276.299C220.8 276.699 217.5 274.349 216.62 270.809C214.54 262.459 209.73 250.499 200.61 246.369C192.86 242.849 182.45 244.999 169.64 252.769C166.41 254.729 162.18 253.809 160.03 250.699C157.63 247.239 158.72 242.469 162.32 240.299C173.44 233.619 183.61 230.269 192.74 230.269V230.259Z" fill="#3A3A3A"/>
<path d="M129.01 160.949C106.76 163.619 82.2899 174.229 44.8999 204.009C40.5299 207.489 34.2099 206.939 30.3899 202.859C26.0599 198.239 26.5599 190.859 31.5199 186.919C73.4999 153.539 101.97 142.199 126.46 139.349C132.68 138.629 138.18 143.289 138.52 149.539V149.589C138.84 155.309 134.7 160.269 129.01 160.949Z" fill="#3A3A3A"/>
<path d="M21.7 231.149C33.6845 231.149 43.4 221.434 43.4 209.449C43.4 197.465 33.6845 187.749 21.7 187.749C9.71537 187.749 0 197.465 0 209.449C0 221.434 9.71537 231.149 21.7 231.149Z" fill="#3A3A3A"/>
<path d="M238.34 130.129C221.55 115.289 197.35 104.059 150.25 95.9394C144.75 94.9894 140.96 89.8993 141.46 84.3393C142.03 78.0293 147.88 73.4995 154.12 74.5795C206.97 83.7395 234.36 97.4694 252.77 113.859C257.44 118.019 257.62 125.229 253.18 129.639L253.14 129.679C249.08 133.719 242.62 133.919 238.33 130.129H238.34Z" fill="#3A3A3A"/>
<path d="M137.3 100.849C149.285 100.849 159 91.1338 159 79.1492C159 67.1646 149.285 57.4492 137.3 57.4492C125.315 57.4492 115.6 67.1646 115.6 79.1492C115.6 91.1338 125.315 100.849 137.3 100.849Z" fill="#3A3A3A"/>
<path d="M401.39 58.3687C406.56 58.5287 414.42 82.3187 416.13 85.8787C422.55 99.2887 429.35 112.509 436.54 125.509C454.17 157.429 473.79 188.669 496.69 217.089C524.21 251.179 571.47 281.709 615.33 257.369C631.1 248.619 642.52 233.659 651.33 217.929C663.17 196.799 671.25 172.159 666.4 148.429C661.42 124.079 643.15 103.889 621.3 92.0387C590.43 75.2887 555.05 73.3986 520.86 70.2386C500.67 68.3686 480.49 66.3987 460.32 64.3287C440.52 62.2987 421.31 58.9786 401.39 58.3486V58.3687Z" fill="white" stroke="#3A3A3A" stroke-width="21.7" stroke-miterlimit="10"/>
<path d="M269.51 280.999C279.495 280.999 287.59 272.904 287.59 262.919C287.59 252.934 279.495 244.839 269.51 244.839C259.525 244.839 251.43 252.934 251.43 262.919C251.43 272.904 259.525 280.999 269.51 280.999Z" fill="#D6744D"/>
<path d="M139.3 230.369C149.285 230.369 157.38 222.274 157.38 212.289C157.38 202.304 149.285 194.209 139.3 194.209C129.315 194.209 121.22 202.304 121.22 212.289C121.22 222.274 129.315 230.369 139.3 230.369Z" fill="#D6744D"/>
</svg>
