<svg width="678" height="758" viewBox="0 0 678 758" fill="none" xmlns="http://www.w3.org/2000/svg">
<path d="M276.03 354.066C168.45 374.356 94.1201 430.826 89.3701 497.176C84.3101 567.846 159.64 635.976 273.91 665.476C305.21 562.816 290.13 431.966 276.03 354.066Z" fill="#F9DB6C"/>
<path d="M475.5 372.097C446.74 361.697 415.72 354.077 382.97 349.377C387.45 374.487 391.06 399.437 393.74 423.797C405.75 491.267 405.72 552.587 393.65 606.057C390.12 631.207 384.88 654.687 378.04 676.177C409.01 673.927 438.68 668.937 466.56 661.277C512.91 569.467 497.84 455.137 475.5 372.097Z" fill="#F9DB6C"/>
<path d="M497.93 634.977C507.95 648.707 515.36 660.887 520.72 671.917C524.82 669.937 528.86 667.857 532.85 665.687C524.34 656.247 513.06 646.197 497.93 634.987V634.977Z" fill="#3A3A3A"/>
<path d="M626.83 500.287C616.73 434.327 562.49 382.977 501.79 352.397C480.69 341.767 458.81 333.647 437.74 328.287C433.65 327.247 429.53 326.287 425.4 325.397C338.42 306.707 244.17 318.487 165.2 359.597C152.84 366.027 140.91 373.307 129.66 381.547C86.6299 413.057 62.2699 452.297 59.2099 495.017C55.9799 540.177 76.65 583.837 119 621.277C142.71 642.237 169.37 659.267 197.85 672.507C202.35 664.527 206.65 655.047 210.82 643.607C132.93 608.807 85.3199 553.817 89.3699 497.187C94.1199 430.837 168.45 374.367 276.03 354.077C290.13 431.977 305.21 562.817 273.91 665.487C271.61 664.897 269.36 664.257 267.09 663.637C262.98 675.067 258.71 684.807 254.3 693.197C277.79 699.677 301.94 703.877 326.27 705.867C323.56 691.467 318.31 674.497 309.62 653.407C307.52 648.317 309.78 642.487 314.69 639.987C320.25 637.157 327.1 639.657 329.47 645.427C339.69 670.287 345.46 690.257 348.15 707.057C355.2 707.247 362.25 707.247 369.29 707.057C366.64 692.417 361.34 675.077 352.41 653.407C350.31 648.317 352.57 642.487 357.48 639.987C363.04 637.157 369.89 639.657 372.26 645.427C375.5 653.317 378.26 660.667 380.65 667.627C386.23 648.507 390.59 627.917 393.66 606.067C405.73 552.597 405.76 491.287 393.75 423.807C391.08 399.447 387.46 374.497 382.98 349.387C415.73 354.087 446.75 361.707 475.51 372.107C494.39 442.287 508.07 534.827 483.87 617.227C483.92 617.267 483.96 617.307 484.01 617.337C484.24 616.167 484.63 615.017 485.26 613.947C488.42 608.567 495.53 606.977 500.64 610.557C523.89 626.847 540 641.217 551.45 654.507C588.16 630.157 616.75 596.327 625.75 550.907C625.83 550.497 625.89 550.087 625.97 549.677C674.45 548.237 677.01 528.957 677.01 524.977C677.01 520.997 674.47 501.947 626.83 500.307V500.287Z" fill="#3A3A3A"/>
<path d="M466.56 661.266C440.27 668.486 412.37 673.306 383.32 675.716C386.81 686.856 389.25 696.856 390.76 705.896C401.63 705.026 412.45 703.736 423.16 701.976C448.62 697.806 475.51 690.796 501.17 680.516C495.52 668.976 487.32 656.056 475.68 640.896C472.94 647.786 469.93 654.586 466.57 661.256L466.56 661.266Z" fill="#3A3A3A"/>
<path d="M390.75 705.907C389.24 696.867 386.81 686.867 383.31 675.727C381.55 675.877 379.8 676.047 378.03 676.167C378.93 673.347 379.79 670.497 380.64 667.607C378.25 660.647 375.49 653.297 372.25 645.407C369.88 639.637 363.03 637.137 357.47 639.967C352.56 642.467 350.31 648.297 352.4 653.387C361.33 675.057 366.64 692.397 369.28 707.037C371.95 721.827 371.91 733.867 370.12 744.827C369.21 750.397 372.77 755.677 378.27 756.947H378.32C384.33 758.347 390.25 754.417 391.27 748.327C393.29 736.277 393.54 722.667 390.74 705.907H390.75Z" fill="#3A3A3A"/>
<path d="M329.47 645.407C327.1 639.637 320.25 637.137 314.69 639.967C309.78 642.467 307.53 648.297 309.62 653.387C318.31 674.477 323.55 691.457 326.27 705.847C329.16 721.177 329.18 733.577 327.34 744.827C326.43 750.397 329.99 755.677 335.49 756.947H335.54C341.55 758.347 347.47 754.417 348.49 748.327C350.46 736.547 350.74 723.277 348.14 707.027C345.45 690.227 339.69 670.257 329.46 645.397L329.47 645.407Z" fill="#3A3A3A"/>
<path d="M246.62 657.436C241.16 655.626 235.8 653.736 230.56 651.746C223.78 649.176 217.2 646.456 210.82 643.606C206.66 655.046 202.36 664.526 197.85 672.506C191.6 683.576 184.97 691.816 177.77 698.516C173.64 702.366 173.23 708.716 176.8 713.086L176.83 713.126C180.73 717.896 187.82 718.416 192.35 714.226C201.21 706.036 209.63 695.596 217.58 680.936C222.84 682.996 228.13 684.966 233.48 686.786C227.24 697.836 220.61 706.066 213.42 712.776C209.29 716.626 208.88 722.976 212.45 727.346L212.48 727.386C216.38 732.156 223.47 732.676 228 728.486C237.25 719.926 246.03 708.886 254.29 693.166C258.7 684.776 262.97 675.036 267.08 663.606C260.1 661.686 253.28 659.616 246.62 657.416V657.436Z" fill="#3A3A3A"/>
<path d="M572.17 686.946C567.75 676.596 561.32 665.946 551.45 654.486C540 641.196 523.89 626.826 500.64 610.536C495.53 606.956 488.42 608.546 485.26 613.926C484.63 615.006 484.23 616.156 484.01 617.316C484.56 617.766 485.09 618.276 485.55 618.856C490.09 624.466 494.18 629.816 497.94 634.966C513.07 646.176 524.35 656.226 532.86 665.666C542.22 676.046 548.29 685.716 552.47 695.396C554.71 700.576 560.56 703.096 565.87 701.206L565.92 701.186C571.73 699.116 574.6 692.606 572.17 686.936V686.946Z" fill="#3A3A3A"/>
<path d="M484 617.326C484 617.326 483.91 617.246 483.86 617.216C481.51 625.226 478.77 633.136 475.67 640.916C487.31 656.066 495.51 668.996 501.16 680.536C507.36 693.196 510.55 704.236 511.9 714.756C512.62 720.356 517.54 724.396 523.17 724.036H523.22C529.38 723.646 533.93 718.186 533.17 712.066C531.67 700.026 528.08 687.026 520.72 671.916C515.35 660.886 507.95 648.706 497.93 634.976C494.84 632.686 491.64 630.366 488.22 627.966C484.73 625.526 483.22 621.306 483.99 617.326H484Z" fill="#3A3A3A"/>
<path d="M488.22 627.966C491.64 630.356 494.84 632.686 497.93 634.976C494.17 629.826 490.08 624.476 485.54 618.866C485.07 618.286 484.55 617.776 484 617.326C483.23 621.306 484.74 625.526 488.23 627.966H488.22Z" fill="#3A3A3A"/>
<path d="M145.4 490.867C151.276 490.867 156.04 486.103 156.04 480.227C156.04 474.351 151.276 469.587 145.4 469.587C139.524 469.587 134.76 474.351 134.76 480.227C134.76 486.103 139.524 490.867 145.4 490.867Z" fill="#3A3A3A"/>
<path d="M223.41 505.047C229.286 505.047 234.05 500.283 234.05 494.407C234.05 488.53 229.286 483.767 223.41 483.767C217.534 483.767 212.77 488.53 212.77 494.407C212.77 500.283 217.534 505.047 223.41 505.047Z" fill="#3A3A3A"/>
<path d="M116.35 357.047C106.85 334.827 88.27 311.217 45.2 281.047C44.34 280.447 43.43 280.007 42.49 279.687C42.53 279.157 42.56 278.627 42.56 278.087C42.56 266.337 33.03 256.807 21.28 256.807C9.52997 256.807 0 266.337 0 278.087C0 289.837 9.52997 299.367 21.28 299.367C24.86 299.367 28.23 298.477 31.19 296.917C31.68 297.457 32.24 297.947 32.86 298.377C71.26 325.227 88.05 345.287 96.75 365.457C98.97 370.607 104.79 373.117 110.08 371.237L110.13 371.217C115.91 369.157 118.76 362.687 116.35 357.047Z" fill="#3A3A3A"/>
<path d="M242.2 285.847C250.4 277.427 250.22 263.957 241.8 255.757C233.38 247.557 219.91 247.737 211.71 256.157C203.51 264.577 203.69 278.047 212.11 286.247C213.35 287.457 214.71 288.457 216.13 289.297C224.77 334.927 222.79 360.867 214.99 381.297C212.99 386.537 215.41 392.397 220.51 394.737L220.56 394.757C226.14 397.307 232.7 394.667 234.9 388.947C243.35 367.057 246.57 338.257 237.77 289.307C239.35 288.367 240.85 287.237 242.2 285.847Z" fill="#3A3A3A"/>
<path d="M615.77 99.857C610.34 87.837 599.91 76.747 583.88 65.947C565.15 53.327 547.54 46.957 531.43 46.957C529.05 46.957 526.71 47.097 524.4 47.377C505.15 49.687 486.05 62.697 473.31 82.167C457.23 106.747 452.01 137.007 446.95 166.277C446.47 169.047 445.99 171.817 445.51 174.587C442.09 194.027 438.5 213.807 434.85 233.377C433.66 239.777 432.32 246.137 431.03 252.287C429.8 258.167 428.6 263.897 427.52 269.587C429.74 268.887 432.08 268.187 434.54 267.467C435.93 267.057 437.65 266.547 438.12 266.377C451.45 261.297 464.84 255.737 477.88 249.867C514.33 233.467 544.66 216.947 570.59 199.357C602.39 177.737 633.32 138.697 615.77 99.857Z" fill="white"/>
<path d="M635.16 91.0968C628.06 75.3768 615.17 61.3768 595.77 48.3068C569.92 30.8868 545.05 23.4768 521.86 26.2568C496.44 29.3068 471.64 45.8568 455.5 70.5268C437.01 98.7968 431.41 131.257 425.98 162.657C425.5 165.407 425.03 168.157 424.55 170.897C421.14 190.267 417.57 209.977 413.93 229.467C411.62 241.827 409.24 254.177 406.85 266.527C405.06 275.757 402.46 284.827 400.93 294.107C399.93 300.167 399.59 304.377 406.69 301.647C415.47 298.267 424.17 294.647 432.91 291.147C450.73 283.727 469.06 277.367 486.63 269.387C510.33 258.627 533.72 246.907 556.15 233.647C565.11 228.347 573.92 222.797 582.54 216.957C621.18 190.687 658.14 141.957 635.15 91.0868L635.16 91.0968ZM434.53 267.467C432.08 268.187 429.73 268.887 427.51 269.587C428.59 263.897 429.79 258.167 431.02 252.287C432.31 246.137 433.64 239.767 434.84 233.377C438.49 213.807 442.08 194.027 445.5 174.587C445.99 171.827 446.46 169.057 446.94 166.277C451.99 137.017 457.22 106.747 473.3 82.1668C486.04 62.6968 505.13 49.6868 524.39 47.3768C526.7 47.0968 529.04 46.9568 531.42 46.9568C547.53 46.9568 565.14 53.3268 583.87 65.9468C599.9 76.7468 610.33 87.8368 615.76 99.8568C633.31 138.697 602.39 177.737 570.58 199.357C544.65 216.947 514.32 233.467 477.87 249.867C464.83 255.737 451.44 261.287 438.11 266.377C437.64 266.547 435.91 267.057 434.53 267.467Z" fill="#3A3A3A"/>
<path d="M250.01 21.3661C249.02 21.3061 248.01 21.2861 247 21.2861C234.61 21.2861 220.9 25.4561 205.2 33.9861C182.42 46.3661 167.64 61.2261 161.25 78.1661C154.41 96.3061 157.12 119.256 168.51 139.546C182.88 165.156 207.31 183.776 230.93 201.776C233.17 203.486 235.4 205.186 237.63 206.896C253.38 218.976 269.26 231.296 284.84 243.506C289.97 247.526 295 251.646 299.86 255.636C304.5 259.446 309.02 263.146 313.57 266.736C313.97 264.446 314.43 262.046 314.93 259.536C315.21 258.116 315.56 256.356 315.62 255.856C317.27 241.676 318.53 227.236 319.35 212.966C321.65 173.066 321 138.536 317.38 107.406C312.89 69.2061 292.55 23.7461 250 21.3761L250.01 21.3661Z" fill="white"/>
<path d="M338.52 104.927C333.07 58.5266 306.93 3.2366 251.19 0.116603C233.97 -0.843397 215.6 4.1166 195.04 15.2866C167.65 30.1666 149.58 48.7966 141.34 70.6466C132.31 94.5966 135.53 124.247 149.95 149.947C166.48 179.397 192.68 199.367 218.03 218.687C220.25 220.377 222.47 222.067 224.67 223.757C236.38 232.737 248.05 241.767 259.68 250.837C270.54 259.307 280.58 268.477 292.33 275.837C298.37 279.617 304.58 283.107 310.88 286.437C315.21 288.727 319.2 291.657 323.68 293.697C327.08 295.247 328.83 293.097 329.59 289.897C339.31 248.887 342.16 206.877 341.96 164.837V164.187C341.92 158.957 341.82 153.727 341.66 148.497C341.2 133.937 340.22 119.387 338.52 104.917V104.927ZM168.51 139.547C157.12 119.257 154.41 96.3066 161.25 78.1666C167.64 61.2266 182.43 46.3666 205.2 33.9866C220.9 25.4566 234.61 21.2866 247 21.2866C248.01 21.2866 249.01 21.3166 250.01 21.3666C292.56 23.7466 312.9 69.1966 317.39 107.397C321.01 138.527 321.65 173.057 319.36 212.957C318.54 227.227 317.28 241.677 315.63 255.847C315.56 256.347 315.22 258.107 314.94 259.527C314.45 262.037 313.99 264.437 313.58 266.727C309.03 263.147 304.51 259.437 299.87 255.627C295 251.637 289.97 247.517 284.85 243.497C269.27 231.287 253.38 218.967 237.64 206.887C235.41 205.177 233.18 203.477 230.94 201.767C207.32 183.767 182.9 165.157 168.52 139.537L168.51 139.547Z" fill="#3A3A3A"/>
<path d="M237.6 554.687C247.392 554.687 255.33 546.749 255.33 536.957C255.33 527.165 247.392 519.227 237.6 519.227C227.808 519.227 219.87 527.165 219.87 536.957C219.87 546.749 227.808 554.687 237.6 554.687Z" fill="#D6744D"/>
<path d="M109.94 505.047C119.732 505.047 127.67 497.109 127.67 487.317C127.67 477.525 119.732 469.587 109.94 469.587C100.148 469.587 92.21 477.525 92.21 487.317C92.21 497.109 100.148 505.047 109.94 505.047Z" fill="#D6744D"/>
<path d="M170.22 583.066C185.888 583.066 198.59 570.364 198.59 554.696C198.59 539.028 185.888 526.326 170.22 526.326C154.552 526.326 141.85 539.028 141.85 554.696C141.85 570.364 154.552 583.066 170.22 583.066Z" fill="#3A3A3A"/>
<path d="M255.02 487.847C252.87 485.697 252.36 482.407 253.72 479.687C254.84 477.447 254.87 475.557 254.73 474.167C254.02 466.867 246.48 458.927 240.77 454.067C238.06 451.757 237.59 447.767 239.57 444.817L239.59 444.777C241.92 441.297 246.77 440.547 249.97 443.247C257.04 449.217 267.6 460.107 268.84 472.787C269.3 477.487 268.43 482.027 266.29 486.217C264.14 490.437 258.36 491.187 255.01 487.837L255.02 487.847Z" fill="#3A3A3A"/>
<path d="M162.26 443.147C160.11 445.297 156.82 445.807 154.1 444.447C151.86 443.327 149.97 443.297 148.58 443.437C141.28 444.147 133.34 451.687 128.48 457.397C126.17 460.107 122.18 460.577 119.23 458.597L119.19 458.577C115.71 456.247 114.96 451.397 117.66 448.197C123.63 441.127 134.52 430.567 147.2 429.327C151.9 428.867 156.44 429.737 160.63 431.877C164.85 434.027 165.6 439.807 162.25 443.157L162.26 443.147Z" fill="#3A3A3A"/>
</svg>
