<svg width="834" height="123" viewBox="0 0 834 123" fill="none" xmlns="http://www.w3.org/2000/svg">
<path d="M144.518 88.0017C139.933 87.9312 131.566 89.991 134.783 98.7946C139.862 101.969 145.364 92.8692 144.518 88.0017Z" fill="#25861F" stroke="#25861F" stroke-width="0.423251"/>
<path d="M142.742 90.1152L139.779 93.078M134.912 97.9454L136.181 96.6756M139.356 90.7501C139.708 91.3144 140.16 92.6971 139.144 93.7129M139.144 93.7129L139.779 93.078M139.144 93.7129L136.605 96.2524M136.605 93.078C136.816 93.854 137.028 95.6598 136.181 96.6756M136.181 96.6756L136.605 96.2524M142.742 92.6547C142.319 92.5137 141.133 92.4008 139.779 93.078M139.779 95.8291C139.356 95.6175 138.128 95.4059 136.605 96.2524" stroke="#1F6B19" stroke-width="0.423251" stroke-linecap="round"/>
<path d="M126.579 115.971C130.989 117.226 139.604 117.401 138.775 108.065C134.691 103.684 127.021 111.05 126.579 115.971Z" fill="#25861F" stroke="#25861F" stroke-width="0.423251"/>
<path d="M128.841 114.387L132.47 112.292M138.431 108.851L136.876 109.749M132.276 114.651C132.082 114.014 132.004 112.562 133.248 111.844M133.248 111.844L132.47 112.292M133.248 111.844L136.358 110.048M135.536 113.114C135.533 112.31 135.796 110.511 136.876 109.749M136.876 109.749L136.358 110.048M129.499 111.934C129.871 112.18 130.987 112.596 132.47 112.292M133.182 109.635C133.536 109.949 134.667 110.471 136.358 110.048" stroke="#1F6B19" stroke-width="0.423251" stroke-linecap="round"/>
<path d="M128.742 91.592C127.111 92.2908 128.645 95.9597 129.616 97.7068C127.771 96.1539 123.908 93.572 123.209 95.6686C122.51 97.7651 126.218 99.454 128.159 100.036C126.024 100.425 122.045 101.609 123.209 103.239C124.374 104.87 127.965 103.336 129.616 102.366C128.16 104.307 125.772 108.248 127.868 108.481C129.965 108.714 131.46 104.889 131.945 102.948C131.945 105.278 132.527 109.762 134.857 109.063C137.186 108.364 135.051 104.307 133.692 102.366C135.342 103.822 138.933 106.209 140.098 104.113C141.263 102.016 137.089 100.716 134.857 100.328C136.604 100.328 141.554 98.8716 140.68 96.8333C139.982 95.2026 136.119 96.7362 134.274 97.7068C135.148 97.1245 137.769 92.4655 135.73 91.592C134.1 90.8931 132.527 94.795 131.945 96.8333C131.945 95.9597 130.78 90.7184 128.742 91.592Z" fill="#E56610"/>
<circle cx="132.027" cy="99.9387" r="2.0383" fill="#FFB42E"/>
<path d="M138.06 99.1623C136.429 99.8611 137.963 103.53 138.933 105.277C137.089 103.724 133.226 101.142 132.527 103.239C131.828 105.335 135.536 107.024 137.477 107.607C135.342 107.995 131.362 109.179 132.527 110.81C133.692 112.44 137.283 110.907 138.933 109.936C137.477 111.877 135.09 115.818 137.186 116.051C139.283 116.284 140.778 112.46 141.263 110.518C141.263 112.848 141.845 117.332 144.175 116.633C146.504 115.935 144.369 111.877 143.01 109.936C144.66 111.392 148.251 113.78 149.416 111.683C150.581 109.587 146.407 108.286 144.175 107.898C145.922 107.898 150.872 106.442 149.998 104.404C149.3 102.773 145.436 104.307 143.592 105.277C144.466 104.695 147.087 100.036 145.048 99.1623C143.418 98.4634 141.845 102.365 141.263 104.404C141.263 103.53 140.098 98.2887 138.06 99.1623Z" fill="white"/>
<circle cx="141.344" cy="107.509" r="2.0383" fill="#E56610"/>
<path d="M699.376 59.0961C699.324 62.4612 700.836 68.6013 707.297 66.2405C709.626 62.513 702.948 58.4748 699.376 59.0961Z" fill="#25861F" stroke="#25861F" stroke-width="0.423251"/>
<path d="M700.928 60.3998L703.102 62.5743M706.674 66.1465L705.742 65.2146M701.394 62.8849C701.808 62.626 702.823 62.2947 703.568 63.0402M703.568 63.0402L703.102 62.5743M703.568 63.0402L705.432 64.904M703.102 64.904C703.672 64.7487 704.997 64.5933 705.742 65.2146M705.742 65.2146L705.432 64.904M702.792 60.3998C702.688 60.7105 702.605 61.5802 703.102 62.5743M705.121 62.5743C704.966 62.8849 704.811 63.7857 705.432 64.904" stroke="#1F6B19" stroke-width="0.423251" stroke-linecap="round"/>
<path d="M719.903 72.2633C720.824 69.0262 720.953 62.7041 714.101 63.3122C710.886 66.3098 716.292 71.9388 719.903 72.2633Z" fill="#25861F" stroke="#25861F" stroke-width="0.423251"/>
<path d="M718.741 70.6016L717.204 67.9385M714.678 63.5634L715.337 64.7048M718.934 68.0807C718.467 68.2235 717.401 68.2809 716.874 67.3679M716.874 67.3679L717.204 67.9385M716.874 67.3679L715.556 65.0852M717.807 65.6882C717.216 65.6908 715.896 65.4978 715.337 64.7048M715.337 64.7048L715.556 65.0852M716.941 70.1192C717.121 69.846 717.426 69.0273 717.204 67.9385M715.253 67.4159C715.484 67.1561 715.867 66.3262 715.556 65.0852" stroke="#1F6B19" stroke-width="0.423251" stroke-linecap="round"/>
<path d="M702.011 70.6745C702.524 71.8713 705.216 70.7458 706.499 70.0334C705.359 71.3869 703.464 74.2222 705.003 74.7351C706.541 75.2479 707.781 72.5268 708.208 71.1021C708.493 72.6692 709.362 75.5899 710.559 74.7351C711.756 73.8802 710.63 71.2445 709.918 70.0334C711.342 71.102 714.235 72.8544 714.406 71.3157C714.577 69.7771 711.77 68.68 710.345 68.3239C712.055 68.3239 715.346 67.8965 714.833 66.1868C714.32 64.4772 711.342 66.0444 709.918 67.0416C710.986 65.8307 712.739 63.195 711.2 62.3402C709.661 61.4853 708.707 64.5484 708.422 66.1868C708.422 64.9046 707.353 61.2716 705.857 61.9127C704.661 62.4256 705.786 65.2608 706.499 66.6142C706.071 65.9731 702.652 64.0498 702.011 65.5457C701.498 66.7425 704.361 67.8965 705.857 68.3239C705.216 68.3239 701.37 69.1786 702.011 70.6745Z" fill="#E56610"/>
<circle cx="708.137" cy="68.2638" r="1.49593" transform="rotate(-90 708.137 68.2638)" fill="#FFB42E"/>
<path d="M707.567 63.8366C708.08 65.0334 710.772 63.9079 712.055 63.1955C710.915 64.549 709.02 67.3843 710.559 67.8972C712.097 68.41 713.337 65.6889 713.764 64.2642C714.049 65.8314 714.918 68.752 716.115 67.8972C717.312 67.0423 716.186 64.4066 715.474 63.1955C716.899 64.2641 719.791 66.0165 719.962 64.4778C720.133 62.9392 717.326 61.8422 715.901 61.486C717.611 61.486 720.902 61.0586 720.389 59.3489C719.876 57.6393 716.899 59.2065 715.474 60.2038C716.542 58.9928 718.295 56.3571 716.756 55.5023C715.218 54.6475 714.263 57.7105 713.978 59.3489C713.978 58.0667 712.91 54.4337 711.414 55.0749C710.217 55.5877 711.342 58.4229 712.055 59.7763C711.627 59.1352 708.208 57.2119 707.567 58.7078C707.054 59.9046 709.918 61.0586 711.414 61.486C710.772 61.486 706.926 62.3407 707.567 63.8366Z" fill="white"/>
<circle cx="713.693" cy="61.4259" r="1.49593" transform="rotate(-90 713.693 61.4259)" fill="#E56610"/>
<path d="M316.039 47.5C318.559 40.8333 325.335 24.0525 328.598 26.5C330.598 28 328.481 49 316.039 47.5C316.012 47.8368 315.983 48.1703 315.953 48.5C305.837 47.7 299.098 33.5 300.098 33C308.098 32.6 314.001 43.1667 315.953 48.5C315.983 48.1703 316.012 47.8368 316.039 47.5Z" fill="#25861F"/>
<path d="M314.598 57.5C315.115 55.1732 315.626 52.0511 315.953 48.5M310.098 16C316.125 24.3226 316.85 37.4325 316.039 47.5M316.039 47.5C318.559 40.8333 325.335 24.0525 328.598 26.5C330.598 28 328.481 49 316.039 47.5ZM316.039 47.5C316.012 47.8368 315.983 48.1703 315.953 48.5M315.953 48.5C314.001 43.1667 308.098 32.6 300.098 33C299.098 33.5 305.837 47.7 315.953 48.5Z" stroke="#25861F" stroke-linecap="round"/>
<path d="M302.325 0.141821C299.961 1.15505 302.184 6.47452 303.592 9.0076C300.918 6.75598 295.317 3.01265 294.303 6.05235C293.29 9.09204 298.666 11.5407 301.481 12.3851C298.385 12.948 292.615 14.6648 294.303 17.029C295.992 19.3932 301.199 17.1698 303.592 15.7625C301.481 18.577 298.019 24.2905 301.058 24.6283C304.098 24.966 306.265 19.4214 306.969 16.6069C306.969 19.9843 307.813 26.4859 311.191 25.4726C314.568 24.4594 311.472 18.577 309.502 15.7625C311.894 17.8734 317.101 21.3353 318.79 18.2956C320.479 15.2559 314.428 13.3701 311.191 12.8072C313.724 12.8072 320.901 10.6963 319.634 7.74106C318.621 5.37685 313.02 7.60034 310.346 9.0076C311.613 8.16324 315.413 1.40837 312.457 0.141821C310.093 -0.871415 307.813 4.7858 306.969 7.74106C306.969 6.47452 305.28 -1.12472 302.325 0.141821Z" fill="white"/>
<circle cx="307.5" cy="12.5" r="3.5" fill="#E56610"/>
<path d="M821.24 46.0221C819.86 42.37 816.148 33.177 814.36 34.5178C813.264 35.3395 814.424 46.8439 821.24 46.0221C821.255 46.2067 821.271 46.3893 821.287 46.57C826.829 46.1317 830.521 38.3526 829.973 38.0787C825.59 37.8595 822.357 43.6482 821.287 46.57C821.271 46.3893 821.255 46.2067 821.24 46.0221Z" fill="#25861F"/>
<path d="M822.03 51.5004C821.746 50.2258 821.467 48.5154 821.287 46.57M824.495 28.7656C821.193 33.325 820.796 40.5069 821.24 46.0221M821.24 46.0221C819.86 42.37 816.148 33.177 814.36 34.5178C813.264 35.3395 814.424 46.8439 821.24 46.0221ZM821.24 46.0221C821.255 46.2067 821.271 46.3893 821.287 46.57M821.287 46.57C822.357 43.6482 825.59 37.8595 829.973 38.0787C830.521 38.3526 826.829 46.1317 821.287 46.57Z" stroke="#25861F" stroke-linecap="round"/>
<path d="M828.753 20.0777C830.048 20.6328 828.83 23.5469 828.059 24.9346C829.524 23.7011 832.593 21.6504 833.148 23.3156C833.703 24.9809 830.758 26.3223 829.216 26.7849C830.912 27.0932 834.073 28.0338 833.148 29.3289C832.223 30.6241 829.37 29.406 828.059 28.6351C829.216 30.177 831.112 33.307 829.447 33.492C827.782 33.677 826.595 30.6395 826.209 29.0977C826.209 30.9479 825.747 34.5096 823.896 33.9546C822.046 33.3995 823.742 30.177 824.822 28.6351C823.511 29.7915 820.658 31.688 819.733 30.0228C818.808 28.3576 822.123 27.3245 823.896 27.0161C822.509 27.0161 818.577 25.8597 819.271 24.2408C819.826 22.9456 822.894 24.1637 824.359 24.9346C823.665 24.472 821.584 20.7715 823.203 20.0777C824.498 19.5226 825.747 22.6218 826.209 24.2408C826.209 23.5469 827.134 19.3838 828.753 20.0777Z" fill="white"/>
<circle cx="1.91739" cy="1.91739" r="1.91739" transform="matrix(-1 0 0 1 827.836 24.9297)" fill="#E56610"/>
<path d="M8.1504 57.5668C6.78731 53.9601 3.12162 44.8817 1.35614 46.2059C0.274151 47.0173 1.41976 58.3783 8.1504 57.5668C8.16507 57.749 8.18067 57.9294 8.19711 58.1078C13.6699 57.675 17.3156 49.9928 16.7745 49.7223C12.4466 49.5059 9.25293 55.2225 8.19711 58.1078C8.18067 57.9294 8.16507 57.749 8.1504 57.5668Z" fill="#237C1D"/>
<path d="M8.93009 62.9767C8.65037 61.718 8.37426 60.0289 8.19711 58.1078M11.3646 40.5254C8.10414 45.0279 7.71208 52.1203 8.1504 57.5668M8.1504 57.5668C6.78731 53.9601 3.12162 44.8817 1.35614 46.2059C0.274151 47.0173 1.41976 58.3783 8.1504 57.5668ZM8.1504 57.5668C8.16507 57.749 8.18067 57.9294 8.19711 58.1078M8.19711 58.1078C9.25293 55.2225 12.4466 49.5059 16.7745 49.7223C17.3156 49.9928 13.6699 57.675 8.19711 58.1078Z" stroke="#237C1D" stroke-linecap="round"/>
<path d="M15.1302 31.075C16.3803 31.6107 15.2046 34.4235 14.4605 35.7628C15.8744 34.5723 18.836 32.593 19.3718 34.2002C19.9075 35.8075 17.065 37.1022 15.5768 37.5487C17.2139 37.8463 20.2647 38.7541 19.3718 40.0042C18.4788 41.2543 15.7256 40.0787 14.4605 39.3346C15.5767 40.8228 17.4073 43.8438 15.8 44.0224C14.1927 44.201 13.0468 41.2692 12.6748 39.781C12.6748 41.5669 12.2283 45.0046 10.4424 44.4689C8.65659 43.9331 10.2936 40.8228 11.3354 39.3346C10.0704 40.4507 7.31721 42.2812 6.42428 40.6739C5.53135 39.0667 8.731 38.0696 10.4424 37.7719C9.10306 37.7719 5.30812 36.6558 5.97782 35.0932C6.51357 33.8431 9.47511 35.0187 10.8889 35.7628C10.2192 35.3164 8.21013 31.7447 9.77275 31.075C11.0228 30.5392 12.2283 33.5305 12.6748 35.0932C12.6748 34.4235 13.5676 30.4053 15.1302 31.075Z" fill="#E56610"/>
<circle cx="1.56262" cy="1.56262" r="1.56262" transform="matrix(-1 0 0 1 14.1748 35.9121)" fill="#FFB42E"/>
<path d="M628.453 114.631C630.184 110.052 634.838 98.5239 637.08 100.205C638.454 101.236 636.999 115.662 628.453 114.631C628.434 114.863 628.414 115.092 628.394 115.318C621.444 114.769 616.815 105.014 617.502 104.67C622.998 104.396 627.053 111.655 628.394 115.318C628.414 115.092 628.434 114.863 628.453 114.631Z" fill="#237C1D"/>
<path d="M627.463 121.501C627.818 119.903 628.169 117.758 628.394 115.318M624.372 92.9922C628.512 98.7095 629.009 107.715 628.453 114.631M628.453 114.631C630.184 110.052 634.838 98.5239 637.08 100.205C638.454 101.236 636.999 115.662 628.453 114.631ZM628.453 114.631C628.434 114.863 628.414 115.092 628.394 115.318M628.394 115.318C627.053 111.655 622.998 104.396 617.502 104.67C616.815 105.014 621.444 114.769 628.394 115.318Z" stroke="#237C1D" stroke-linecap="round"/>
<path d="M619.59 82.0952C618.002 82.7755 619.495 86.3471 620.44 88.0479C618.645 86.5361 614.884 84.0227 614.204 86.0636C613.523 88.1046 617.133 89.7486 619.023 90.3155C616.944 90.6935 613.07 91.8462 614.204 93.4336C615.338 95.0209 618.834 93.5281 620.44 92.5832C619.023 94.4729 616.698 98.3091 618.739 98.5358C620.78 98.7626 622.235 95.0398 622.708 93.1501C622.708 95.4178 623.275 99.7831 625.542 99.1028C627.81 98.4225 625.731 94.4729 624.408 92.5832C626.015 94.0005 629.511 96.3249 630.644 94.284C631.778 92.2431 627.715 90.9769 625.542 90.599C627.243 90.599 632.062 89.1817 631.211 87.1975C630.531 85.6101 626.771 87.103 624.975 88.0479C625.826 87.4809 628.377 82.9456 626.393 82.0952C624.805 81.4149 623.275 85.2133 622.708 87.1975C622.708 86.3471 621.574 81.2448 619.59 82.0952Z" fill="#E56610"/>
<circle cx="622.787" cy="90.2205" r="1.98421" fill="#FFB42E"/>
</svg>
