<svg width="901" height="191" viewBox="0 0 901 191" fill="none" xmlns="http://www.w3.org/2000/svg">
<mask id="mask0_485_4344" style="mask-type:alpha" maskUnits="userSpaceOnUse" x="0" y="0" width="901" height="160">
<rect width="901" height="160" fill="#D9D9D9"/>
</mask>
<g mask="url(#mask0_485_4344)">
<path d="M725.602 79.8926L1170.51 48.6492C1314.77 38.5185 1459.73 46.5983 1601.97 72.698V72.698C1759.95 101.685 1921.21 108.431 2081.06 92.7384L2233.94 77.73C2358.19 65.5318 2483.32 64.9955 2607.67 76.1281L2884.76 100.934C2999.66 111.22 3115.24 111.546 3230.2 101.907L3583.24 72.3062C3685.76 63.71 3788.8 63.0376 3891.43 70.2951L4580.82 119.047C4678.22 125.935 4776 125.68 4873.36 118.286L5378.89 79.8926L5378.89 159.893L725.602 159.893L725.602 79.8926Z" fill="#5B9B40"/>
<path d="M877.324 60.3062C879.829 64.0618 879.61 70.4072 879.188 73.1105L926.933 69.9469C925.952 67.3975 927.466 62.5106 928.346 60.3858C925.842 60.5517 923.975 63.7191 923.354 65.282L921.358 59.6954L919.911 63.2034C919.581 61.3798 917.691 60.3068 916.787 59.9982C916.918 61.835 915.987 64.6328 915.505 65.8022L912.573 56.9133C912.508 58.8015 911.344 62.2972 910.77 63.8091C909.963 63.1321 908.744 60.371 908.235 59.0751C908.162 59.7335 907.023 63.3044 906.463 65.0076C905.88 64.1234 905.386 61.811 905.211 60.7652C904.568 61.2692 903.012 65.6207 902.315 67.7334C902.255 66.8916 899.275 61.527 897.793 58.9499C898.849 64.2241 897.306 67.2643 896.403 68.1252C896.351 67.3981 894.988 64.1659 894.313 62.6407C894.254 64.6054 893.032 67.2912 892.428 68.3885C890.46 65.4431 889.985 61.2134 889.993 59.4668C888.233 61.6595 887.388 64.9258 887.186 66.2849C886.557 65.8652 885.979 64.0581 885.768 63.2069L884.23 68.9317C883.834 64.4981 879.461 61.3341 877.324 60.3062Z" fill="#5B9B40"/>
<path d="M830.621 64.0007C833.332 67.8036 833.315 74.3648 832.968 77.17L882.181 72.4447C881.084 69.8413 882.487 64.747 883.326 62.5253C880.745 62.7731 878.921 66.1019 878.332 67.7353L876.085 62.0255L874.707 65.6933C874.306 63.8197 872.318 62.769 871.374 62.4779C871.57 64.3711 870.7 67.2896 870.24 68.5122L866.919 59.42C866.915 61.3724 865.827 65.0188 865.284 66.598C864.428 65.9233 863.078 63.1085 862.509 61.7854C862.456 62.4677 861.397 66.1911 860.874 67.9675C860.244 67.072 859.656 64.6984 859.442 63.6236C858.794 64.1637 857.33 68.7061 856.679 70.9098C856.589 70.042 853.335 64.5916 851.72 61.9749C852.984 67.3906 851.49 70.5781 850.585 71.4949C850.508 70.7455 848.994 67.4484 848.246 65.8935C848.25 67.9248 847.076 70.7364 846.488 71.8883C844.359 68.9059 843.728 64.5513 843.679 62.7468C841.934 65.0656 841.169 68.4653 841.004 69.8753C840.341 69.461 839.684 67.612 839.438 66.7393L838.039 72.6996C837.483 68.132 832.862 64.9972 830.621 64.0007Z" fill="#5B9B40"/>
<path d="M696.519 68.9454C698.75 72.8577 698.079 79.1737 697.465 81.8427L745.322 81.8427C744.525 79.2345 746.385 74.4591 747.414 72.3975C744.904 72.3975 742.816 75.434 742.085 76.9523L740.492 71.2468L738.799 74.6509C738.599 72.8098 736.79 71.6144 735.91 71.2468C735.91 73.0879 734.781 75.8176 734.217 76.9523L731.926 67.8906C731.727 69.7701 730.316 73.1806 729.635 74.6509C728.878 73.9221 727.859 71.087 727.444 69.7605C727.325 70.4125 725.934 73.8998 725.253 75.5619C724.735 74.6413 724.406 72.3016 724.307 71.2468C723.63 71.7071 721.767 75.9454 720.92 78.0071C720.92 77.1632 718.331 71.6144 717.036 68.9454C717.713 74.2769 715.957 77.208 714.994 78.0071C714.994 77.2783 713.865 73.9637 713.301 72.3975C713.102 74.3536 711.691 76.9523 711.01 78.0071C709.257 74.9386 709.085 70.6874 709.217 68.9454C707.305 71.0167 706.23 74.2194 705.931 75.5619C705.333 75.1016 704.885 73.2605 704.736 72.3975L702.793 78.0071C702.714 73.5577 698.577 70.1121 696.519 68.9454Z" fill="#5B9B40"/>
<path d="M786.759 65.8459C789.227 69.6241 788.946 75.9673 788.497 78.6666L836.271 75.937C835.315 73.3788 836.877 68.5058 837.778 66.3891C835.272 66.5323 833.374 69.6826 832.739 71.2398L830.797 65.6353L829.316 69.13C829.004 67.3035 827.124 66.2133 826.223 65.8966C826.337 67.7344 825.378 70.5237 824.884 71.6886L822.04 62.7735C821.957 64.661 820.758 68.146 820.169 69.6526C819.368 68.9683 818.177 66.1962 817.681 64.8957C817.602 65.5534 816.427 69.1139 815.85 70.8119C815.277 69.9225 814.805 67.6056 814.64 66.5584C813.993 67.0564 812.394 71.3936 811.676 73.4999C811.624 72.6575 808.697 67.2661 807.241 64.6757C808.245 69.9592 806.672 72.9853 805.76 73.8379C805.715 73.1104 804.384 69.866 803.725 68.3347C803.646 70.2988 802.398 72.9734 801.783 74.0651C799.844 71.102 799.41 66.8682 799.436 65.1216C797.654 67.2983 796.778 70.5568 796.562 71.9139C795.937 71.4885 795.376 69.6762 795.174 68.8233L793.581 74.5338C793.227 70.0968 788.886 66.8931 786.759 65.8459Z" fill="#5B9B40"/>
<path d="M740.271 70.2823C743.037 74.048 743.116 80.6088 742.81 83.4184L791.95 78.0259C790.815 75.4376 792.143 70.3248 792.949 68.092C790.372 68.3748 788.597 71.728 788.032 73.3692L785.702 67.6904L784.377 71.3765C783.949 69.5086 781.946 68.485 780.997 68.2067C781.221 70.0971 780.394 73.0271 779.953 74.2558L776.499 65.2095C776.523 67.1618 775.489 70.8226 774.968 72.409C774.103 71.746 772.711 68.9498 772.124 67.6345C772.081 68.3175 771.076 72.0549 770.579 73.8382C769.936 72.9513 769.314 70.586 769.083 69.5141C768.444 70.0631 767.047 74.6248 766.428 76.8371C766.325 75.9707 762.992 70.5649 761.338 67.9704C762.682 73.3684 761.234 76.5759 760.343 77.5049C760.254 76.7566 758.692 73.4803 757.923 71.9358C757.956 73.9668 756.823 76.794 756.252 77.9538C754.079 75.0006 753.385 70.655 753.31 68.8514C751.598 71.1936 750.883 74.6033 750.739 76.0154C750.07 75.6101 749.386 73.7702 749.128 72.9009L747.815 78.8796C747.193 74.3201 742.526 71.2483 740.271 70.2823Z" fill="#5B9B40"/>
<path d="M-1.54883 79.4453L433.563 48.2109C574.748 38.076 716.65 46.1552 855.772 72.2495V72.2495C1010.29 101.231 1168.15 107.976 1324.58 92.2782L1465.84 78.1023C1592.82 65.3602 1720.72 64.8001 1847.8 76.4294L2103.14 99.7954C2220.56 110.541 2338.71 110.881 2456.19 100.812L2787.25 72.4369C2892.03 63.4565 2997.35 62.7541 3102.24 70.3363L3763.48 118.136C3863.03 125.332 3962.98 125.066 4062.49 117.341L4550.62 79.4453L5452 118.445L5452 159.445L4550.62 159.445L-1.54883 159.445L-1.54883 79.4453Z" fill="#70AE3E"/>
<path d="M508.538 35.5001C510.721 39.4124 510.065 45.7284 509.464 48.3974L556.281 48.3974C555.502 45.7891 557.321 41.0138 558.327 38.9522C555.872 38.9522 553.829 41.9887 553.115 43.507L551.556 37.8015L549.899 41.2056C549.704 39.3645 547.934 38.1691 547.074 37.8015C547.074 39.6426 545.969 42.3723 545.417 43.507L543.176 34.4453C542.981 36.3248 541.601 39.7353 540.935 41.2056C540.195 40.4768 539.198 37.6417 538.792 36.3152C538.675 36.9672 537.314 40.4544 536.648 42.1165C536.141 41.196 535.82 38.8563 535.723 37.8015C535.06 38.2618 533.238 42.5001 532.41 44.5618C532.41 43.7179 529.876 38.1691 528.61 35.5001C529.272 40.8316 527.554 43.7627 526.612 44.5618C526.612 43.833 525.508 40.5184 524.956 38.9522C524.761 40.9083 523.381 43.507 522.715 44.5618C521 41.4933 520.831 37.2421 520.961 35.5001C519.09 37.5713 518.038 40.7741 517.746 42.1165C517.161 41.6563 516.723 39.8152 516.576 38.9522L514.677 44.5618C514.599 40.1124 510.552 36.6668 508.538 35.5001Z" fill="#70AE3E"/>
<path d="M327.67 43.5001C329.853 47.4124 329.197 53.7284 328.596 56.3974L375.414 56.3974C374.634 53.7891 376.453 49.0138 377.46 46.9522C375.004 46.9522 372.962 49.9887 372.247 51.507L370.688 45.8015L369.032 49.2056C368.837 47.3645 367.067 46.1691 366.206 45.8015C366.206 47.6426 365.102 50.3723 364.55 51.507L362.309 42.4453C362.114 44.3248 360.733 47.7353 360.068 49.2056C359.327 48.4768 358.33 45.6417 357.924 44.3152C357.807 44.9672 356.446 48.4544 355.78 50.1165C355.274 49.196 354.952 46.8563 354.855 45.8015C354.192 46.2618 352.37 50.5001 351.542 52.5618C351.542 51.7179 349.009 46.1691 347.742 43.5001C348.405 48.8316 346.687 51.7627 345.745 52.5618C345.745 51.833 344.64 48.5184 344.088 46.9522C343.893 48.9083 342.513 51.507 341.847 52.5618C340.132 49.4933 339.963 45.2421 340.093 43.5001C338.223 45.5713 337.17 48.7741 336.878 50.1165C336.293 49.6563 335.855 47.8152 335.709 46.9522L333.809 52.5618C333.731 48.1124 329.684 44.6668 327.67 43.5001Z" fill="#70AE3E"/>
<path d="M415.951 40.4006C418.365 44.1788 418.09 50.5219 417.651 53.2212L464.386 50.4917C463.451 47.9335 464.979 43.0605 465.86 40.9438C463.409 41.087 461.553 44.2373 460.931 45.7945L459.031 40.1899L457.583 43.6846C457.277 41.8581 455.438 40.768 454.557 40.4513C454.668 42.2891 453.73 45.0784 453.247 46.2433L450.465 37.3282C450.383 39.2157 449.211 42.7007 448.634 44.2073C447.851 43.5229 446.685 40.7509 446.2 39.4504C446.123 40.1081 444.974 43.6686 444.41 45.3666C443.848 44.4772 443.387 42.1603 443.226 41.113C442.592 41.6111 441.029 45.9483 440.326 48.0546C440.275 47.2122 437.412 41.8208 435.987 39.2304C436.969 44.5139 435.431 47.54 434.539 48.3926C434.495 47.6651 433.193 44.4207 432.547 42.8894C432.471 44.8535 431.249 47.528 430.648 48.6198C428.752 45.6567 428.327 41.4228 428.352 39.6763C426.609 41.853 425.751 45.1115 425.54 46.4686C424.929 46.0432 424.381 44.2309 424.183 43.3779L422.624 49.0885C422.278 44.6515 418.031 41.4478 415.951 40.4006Z" fill="#70AE3E"/>
<path d="M236.998 52.4006C239.412 56.1788 239.138 62.5219 238.698 65.2212L285.434 62.4917C284.499 59.9335 286.027 55.0605 286.908 52.9438C284.457 53.087 282.6 56.2373 281.978 57.7945L280.079 52.1899L278.63 55.6846C278.325 53.8581 276.486 52.768 275.605 52.4513C275.715 54.2891 274.777 57.0784 274.294 58.2433L271.512 49.3282C271.431 51.2157 270.258 54.7007 269.682 56.2073C268.899 55.5229 267.733 52.7509 267.248 51.4504C267.17 52.1081 266.022 55.6686 265.457 57.3666C264.896 56.4772 264.434 54.1603 264.273 53.113C263.64 53.6111 262.076 57.9483 261.373 60.0546C261.322 59.2122 258.46 53.8208 257.034 51.2304C258.017 56.5139 256.478 59.54 255.586 60.3926C255.542 59.6651 254.24 56.4207 253.595 54.8894C253.518 56.8535 252.297 59.528 251.695 60.6198C249.799 57.6567 249.374 53.4228 249.399 51.6763C247.656 53.853 246.799 57.1115 246.588 58.4686C245.977 58.0432 245.428 56.2309 245.23 55.3779L243.671 61.0885C243.326 56.6515 239.078 53.4478 236.998 52.4006Z" fill="#70AE3E"/>
<path d="M462.873 37.2779C465.348 41.1948 465.03 47.7486 464.562 50.5358L512.874 47.9554C511.921 45.3069 513.526 40.2789 514.448 38.0959C511.914 38.2313 509.979 41.4773 509.328 43.0834L507.395 37.2818L505.879 40.8858C505.573 38.9967 503.679 37.8607 502.77 37.5288C502.874 39.4287 501.89 42.3063 501.385 43.5077L498.557 34.2803C498.463 36.2305 497.232 39.8259 496.629 41.3799C495.823 40.6687 494.633 37.798 494.139 36.4515C494.055 37.1308 492.849 40.8044 492.257 42.5562C491.682 41.6342 491.217 39.2375 491.056 38.1544C490.399 38.6659 488.76 43.14 488.022 45.3131C487.974 44.4423 485.044 38.856 483.585 36.1716C484.572 41.6368 482.966 44.7561 482.04 45.6326C481.998 44.8806 480.67 41.521 480.011 39.9353C479.922 41.9646 478.645 44.7223 478.018 45.8474C476.074 42.7755 475.658 38.398 475.693 36.5932C473.88 38.8337 472.976 42.1966 472.751 43.5981C472.122 43.1553 471.564 41.2796 471.364 40.3971L469.723 46.2905C469.389 41.7034 465.017 38.3708 462.873 37.2779Z" fill="#70AE3E"/>
<path d="M282.033 48.5242C284.606 52.3797 284.453 58.9392 284.054 61.737L332.287 57.983C331.268 55.3585 332.746 50.293 333.613 48.0883C331.083 48.2852 329.23 51.5773 328.62 53.1987L326.541 47.4458L325.117 51.0856C324.764 49.2045 322.841 48.1149 321.924 47.8052C322.076 49.7019 321.165 52.6027 320.69 53.8159L317.631 44.6601C317.586 46.612 316.446 50.2363 315.882 51.8044C315.059 51.113 313.797 48.2721 313.269 46.9381C313.202 47.6192 312.089 51.3209 311.54 53.0866C310.942 52.1789 310.417 49.7942 310.23 48.7154C309.585 49.2427 308.059 53.7552 307.376 55.9456C307.307 55.0763 304.237 49.5628 302.711 46.9148C303.835 52.3543 302.308 55.5117 301.404 56.4104C301.343 55.6596 299.931 52.3334 299.233 50.7641C299.194 52.795 297.987 55.5829 297.389 56.7229C295.368 53.6992 294.842 49.3331 294.832 47.5281C293.076 49.8119 292.257 53.1958 292.067 54.6023C291.426 54.175 290.822 52.3134 290.6 51.436L289.107 57.3675C288.659 52.79 284.204 49.5646 282.033 48.5242Z" fill="#70AE3E"/>
<path d="M370.473 44.837C373.179 48.6027 373.256 55.1635 372.957 57.9731L421.029 52.5806C419.918 49.9923 421.218 44.8795 422.006 42.6466C419.485 42.9295 417.749 46.2826 417.196 47.9239L414.916 42.2451L413.62 45.9312C413.201 44.0632 411.242 43.0397 410.314 42.7614C410.533 44.6518 409.724 47.5818 409.292 48.8105L405.913 39.7642C405.937 41.7165 404.925 45.3773 404.416 46.9637C403.569 46.3007 402.208 43.5044 401.634 42.1892C401.591 42.8722 400.609 46.6096 400.123 48.3929C399.493 47.506 398.884 45.1407 398.659 44.0688C398.033 44.6177 396.667 49.1795 396.061 51.3918C395.961 50.5253 392.7 45.1196 391.082 42.5251C392.396 47.9231 390.981 51.1306 390.109 52.0595C390.022 51.3112 388.494 48.035 387.741 46.4905C387.773 48.5215 386.665 51.3487 386.107 52.5085C383.981 49.5553 383.302 45.2097 383.228 43.4061C381.554 45.7483 380.854 49.158 380.714 50.5701C380.059 50.1648 379.39 48.3249 379.137 47.4556L377.853 53.4343C377.244 48.8748 372.679 45.8029 370.473 44.837Z" fill="#70AE3E"/>
<path d="M191.61 56.1952C194.22 60.0261 194.131 66.5867 193.761 69.3882L241.954 65.1758C240.909 62.5611 242.338 57.4817 243.183 55.2689C240.655 55.4898 238.835 58.7994 238.24 60.4266L236.105 54.6937L234.716 58.3469C234.345 56.4692 232.412 55.3979 231.492 55.097C231.663 56.9922 230.779 59.9014 230.317 61.1191L227.168 51.9928C227.142 53.945 226.038 57.58 225.489 59.1534C224.659 58.4698 223.369 55.6411 222.828 54.3121C222.768 54.9939 221.691 58.706 221.16 60.4769C220.553 59.5749 220.005 57.1953 219.807 56.1183C219.168 56.6517 217.686 61.1785 217.025 63.3753C216.946 62.5066 213.823 57.0227 212.271 54.3892C213.449 59.8178 211.952 62.9896 211.057 63.8969C210.989 63.1467 209.545 59.834 208.831 58.2715C208.812 60.3027 207.632 63.1019 207.045 64.2476C204.995 61.2432 204.426 56.8823 204.398 55.0774C202.664 57.3778 201.879 60.7694 201.703 62.1776C201.058 61.7564 200.436 59.9006 200.205 59.0254L198.77 64.9708C198.277 60.3978 193.791 57.2149 191.61 56.1952Z" fill="#70AE3E"/>
<path d="M146.877 59.8609C149.327 63.6165 149.113 69.9619 148.7 72.6652L195.407 69.5016C194.448 66.9522 195.929 62.0652 196.79 59.9404C194.34 60.1064 192.514 63.2738 191.907 64.8367L189.953 59.25L188.538 62.7581C188.216 60.9345 186.366 59.8615 185.482 59.5529C185.61 61.3897 184.699 64.1875 184.228 65.3568L181.36 56.468C181.296 58.3562 180.157 61.8519 179.596 63.3638C178.806 62.6868 177.613 59.9257 177.116 58.6297C177.045 59.2882 175.93 62.8591 175.382 64.5623C174.812 63.6781 174.328 61.3657 174.158 60.3199C173.529 60.8239 172.007 65.1754 171.324 67.2881C171.265 66.4463 168.351 61.0817 166.901 58.5046C167.934 63.7788 166.424 66.819 165.541 67.6798C165.49 66.9528 164.157 63.7206 163.497 62.1954C163.439 64.1601 162.243 66.8459 161.652 67.9432C159.727 64.9978 159.262 60.7681 159.27 59.0215C157.549 61.2142 156.722 64.4805 156.524 65.8395C155.909 65.4199 155.343 63.6127 155.137 62.7616L153.633 68.4864C153.245 64.0528 148.967 60.8887 146.877 59.8609Z" fill="#70AE3E"/>
<path d="M101.188 63.5554C103.84 67.3583 103.824 73.9195 103.484 76.7247L151.628 71.9994C150.555 69.3959 151.928 64.3017 152.748 62.08C150.223 62.3278 148.439 65.6566 147.862 67.29L145.665 61.5802L144.316 65.248C143.924 63.3744 141.979 62.3237 141.055 62.0326C141.247 63.9258 140.396 66.8443 139.947 68.0669L136.698 58.9747C136.693 60.927 135.629 64.5735 135.098 66.1527C134.26 65.478 132.94 62.6631 132.384 61.3401C132.332 62.0224 131.296 65.7458 130.784 67.5222C130.167 66.6267 129.593 64.2531 129.383 63.1782C128.749 63.7184 127.317 68.2608 126.68 70.4645C126.592 69.5967 123.409 64.1463 121.828 61.5296C123.065 66.9453 121.604 70.1328 120.719 71.0496C120.643 70.3002 119.162 67.0031 118.431 65.4482C118.434 67.4795 117.286 70.2911 116.711 71.443C114.628 68.4606 114.011 64.106 113.963 62.3015C112.255 64.6203 111.507 68.02 111.346 69.43C110.697 69.0157 110.054 67.1667 109.814 66.2939L108.445 72.2543C107.901 67.6867 103.38 64.5519 101.188 63.5554Z" fill="#70AE3E"/>
<path d="M-30 68.5001C-27.8175 72.4124 -28.4735 78.7284 -29.0744 81.3974L17.7432 81.3974C16.9638 78.7891 18.7826 74.0138 19.7894 71.9522C17.334 71.9522 15.2911 74.9887 14.5766 76.507L13.0176 70.8015L11.3612 74.2056C11.1664 72.3645 9.3963 71.1691 8.53562 70.8015C8.53562 72.6426 7.43135 75.3723 6.87922 76.507L4.63821 67.4453C4.44334 69.3248 3.06301 72.7353 2.39721 74.2056C1.6567 73.4768 0.659609 70.6417 0.25363 69.3152C0.136707 69.9672 -1.22414 73.4544 -1.88995 75.1165C-2.39661 74.196 -2.71814 71.8563 -2.81558 70.8015C-3.47814 71.2618 -5.30018 75.5001 -6.12838 77.5618C-6.12838 76.7179 -8.66169 71.1691 -9.92835 68.5001C-9.26579 73.8316 -10.9839 76.7627 -11.9258 77.5618C-11.9258 76.833 -13.03 73.5184 -13.5822 71.9522C-13.777 73.9083 -15.1574 76.507 -15.8232 77.5618C-17.538 74.4933 -17.7069 70.2421 -17.577 68.5001C-19.4478 70.5713 -20.5001 73.7741 -20.7924 75.1165C-21.377 74.6563 -21.8154 72.8152 -21.9616 71.9522L-23.8616 77.5618C-23.9395 73.1124 -27.9863 69.6668 -30 68.5001Z" fill="#70AE3E"/>
<path d="M58.2798 65.4006C60.694 69.1788 60.4193 75.5219 59.9802 78.2212L106.716 75.4917C105.78 72.9335 107.309 68.0605 108.19 65.9438C105.738 66.087 103.882 69.2373 103.26 70.7945L101.36 65.1899L99.9118 68.6846C99.6065 66.8581 97.7676 65.768 96.8863 65.4513C96.9971 67.2891 96.0591 70.0784 95.5762 71.2433L92.7937 62.3282C92.7123 64.2157 91.5397 67.7007 90.9636 69.2073C90.1805 68.5229 89.0145 65.7509 88.5294 64.4504C88.4519 65.1081 87.3034 68.6686 86.7388 70.3666C86.1776 69.4772 85.7158 67.1603 85.555 66.113C84.9213 66.6111 83.3576 70.9483 82.655 73.0546C82.6042 72.2122 79.7413 66.8208 78.3162 64.2304C79.2985 69.5139 77.7599 72.54 76.8678 73.3926C76.8239 72.6651 75.522 69.4207 74.8766 67.8894C74.7998 69.8535 73.5783 72.528 72.9772 73.6198C71.0806 70.6567 70.6561 66.4228 70.681 64.6763C68.9382 66.853 68.0805 70.1115 67.8695 71.4686C67.2582 71.0432 66.7097 69.2309 66.5119 68.3779L64.9529 74.0885C64.6073 69.6515 60.3602 66.4478 58.2798 65.4006Z" fill="#70AE3E"/>
<path d="M12.8022 69.837C15.5085 73.6027 15.586 80.1635 15.2864 82.9731L63.3583 77.5806C62.2477 74.9923 63.5474 69.8795 64.336 67.6466C61.8148 67.9295 60.0783 71.2826 59.5252 72.9239L57.246 67.2451L55.95 70.9312C55.531 69.0632 53.5713 68.0397 52.6439 67.7614C52.8628 69.6518 52.0536 72.5818 51.6216 73.8105L48.2429 64.7642C48.2664 66.7165 47.2546 70.3773 46.7458 71.9637C45.8988 71.3007 44.5379 68.5044 43.9633 67.1892C43.9208 67.8722 42.9382 71.6096 42.4522 73.3929C41.8225 72.506 41.2141 70.1407 40.9886 69.0688C40.363 69.6177 38.9962 74.1795 38.391 76.3918C38.2906 75.5253 35.0296 70.1196 33.4116 67.5251C34.7259 72.9231 33.3104 76.1306 32.4383 77.0595C32.3516 76.3112 30.8236 73.035 30.0704 71.4905C30.1029 73.5215 28.9947 76.3487 28.4365 77.5085C26.3107 74.5553 25.6318 70.2097 25.558 68.4061C23.8834 70.7483 23.1838 74.158 23.0433 75.5701C22.3883 75.1648 21.7192 73.3249 21.4665 72.4556L20.1827 78.4343C19.5735 73.8748 15.0085 70.8029 12.8022 69.837Z" fill="#70AE3E"/>
<path d="M823.865 59.4828C825.294 63.7185 823.491 69.8143 822.41 72.3327L868.46 80.6466C868.171 77.9428 870.836 73.5688 872.204 71.7198C869.789 71.2838 867.223 73.9077 866.242 75.2741L865.754 69.3855L863.501 72.4396C863.647 70.5941 862.125 69.1039 861.346 68.5896C861.008 70.4004 859.422 72.8892 858.671 73.9072L858.128 64.5964C857.591 66.4104 855.609 69.5198 854.684 70.8477C854.089 69.9994 853.628 67.0337 853.472 65.6569C853.238 66.2775 851.26 69.4658 850.3 70.9824C849.971 69.987 850.083 67.6286 850.181 66.5738C849.445 66.9089 846.876 70.7541 845.683 72.6348C845.838 71.8048 844.363 65.8972 843.607 63.0471C843.281 68.4088 841.054 70.9866 839.981 71.6053C840.114 70.8885 839.636 67.4322 839.38 65.7937C838.83 67.6831 836.996 69.994 836.147 70.9132C835.023 67.5906 835.637 63.3792 836.084 61.6889C833.864 63.3939 832.242 66.3572 831.708 67.6257C831.217 67.0692 831.124 65.1804 831.138 64.3056L828.241 69.4858C828.98 65.0956 825.631 60.9879 823.865 59.4828Z" fill="#70AE3E"/>
<path d="M868.54 66.2848C870.105 70.6327 868.367 76.9672 867.303 79.5909L915.054 87.2612C914.7 84.4732 917.363 79.9006 918.739 77.9628C916.234 77.5606 913.637 80.323 912.652 81.7544L912.027 75.6798L909.761 78.8804C909.874 76.9706 908.271 75.4614 907.455 74.9455C907.144 76.8233 905.556 79.4265 904.801 80.4934L904.048 70.8838C903.531 72.7689 901.546 76.0212 900.619 77.4118C899.987 76.5472 899.449 73.4921 899.259 72.0727C899.03 72.7186 897.052 76.0524 896.092 77.6385C895.731 76.6166 895.799 74.1776 895.878 73.0858C895.124 73.4467 892.549 77.471 891.355 79.4381C891.498 78.5775 889.853 72.5029 889.012 69.5732C888.786 75.1196 886.538 77.8276 885.442 78.4883C885.565 77.745 885 74.1834 884.702 72.4955C884.172 74.4587 882.325 76.883 881.467 77.8498C880.237 74.4392 880.784 70.0756 881.211 68.3201C878.953 70.1262 877.338 73.2204 876.812 74.5417C876.294 73.9765 876.158 72.0268 876.155 71.1227L873.268 76.5328C873.941 71.982 870.397 67.8047 868.54 66.2848Z" fill="#70AE3E"/>
<path d="M780.15 49.7856C782.059 53.9982 780.835 60.448 779.985 63.1463L828.203 67.0789C827.626 64.3272 829.914 59.5618 831.129 57.5231C828.601 57.3168 826.233 60.2726 825.366 61.7762L824.255 55.7691L822.254 59.1359C822.213 57.2234 820.493 55.8435 819.639 55.3927C819.479 57.2888 818.105 60.0074 817.438 61.1297L815.916 51.6088C815.552 53.528 813.835 56.9246 813.022 58.383C812.322 57.5702 811.541 54.5665 811.238 53.1662C811.061 53.828 809.357 57.3052 808.527 58.9611C808.085 57.9704 807.957 55.5337 807.948 54.4392C807.226 54.8576 804.982 59.0697 803.95 61.1234C804.023 60.2543 801.895 54.3267 800.822 51.4715C801.042 57.0182 799.018 59.8925 797.979 60.6364C798.042 59.8859 797.193 56.3794 796.76 54.7199C796.389 56.7182 794.742 59.2786 793.965 60.309C792.465 57.0047 792.66 52.6123 792.945 50.8291C790.838 52.8051 789.477 56.0152 789.059 57.3733C788.497 56.8502 788.205 54.9172 788.13 54.0161L785.686 59.6338C785.992 55.0449 782.123 51.1563 780.15 49.7856Z" fill="#70AE3E"/>
<path d="M735.437 45.8969C737.201 50.0086 735.891 56.2253 735.016 58.8197L781.588 63.5364C781.083 60.8634 783.389 56.2964 784.605 54.347C782.163 54.0996 779.815 56.9144 778.946 58.3527L777.989 52.5201L775.987 55.7394C775.985 53.8884 774.348 52.5209 773.53 52.0685C773.339 53.9 771.957 56.5041 771.289 57.5772L770.003 48.3374C769.613 50.1873 767.885 53.4408 767.07 54.8363C766.409 54.0368 765.712 51.1161 765.447 49.7557C765.262 50.3925 763.546 53.7243 762.711 55.3106C762.303 54.3438 762.226 51.984 762.239 50.9249C761.532 51.3161 759.279 55.3486 758.24 57.3159C758.328 56.4765 756.385 50.7016 755.403 47.9191C755.507 53.2893 753.493 56.0319 752.473 56.7319C752.549 56.0069 751.795 52.5985 751.409 50.9849C751.012 52.9111 749.368 55.357 748.596 56.3392C747.21 53.1141 747.484 48.8683 747.794 47.1485C745.718 49.0204 744.338 52.1003 743.908 53.4062C743.374 52.8895 743.129 51.0139 743.074 50.1407L740.6 55.5294C740.986 51.0956 737.318 47.2603 735.437 45.8969Z" fill="#70AE3E"/>
<path d="M689.777 41.8724C691.732 46.0645 690.579 52.5269 689.759 55.2341L738.017 58.653C737.41 55.9076 739.645 51.1182 740.838 49.0666C738.307 48.8873 735.973 51.8681 735.122 53.3809L733.945 47.386L731.981 50.7739C731.919 48.8619 730.184 47.5004 729.325 47.0587C729.186 48.9564 727.842 51.6895 727.187 52.8188L725.561 43.3146C725.218 45.2377 723.538 48.6524 722.741 50.1193C722.033 49.314 721.219 46.3188 720.9 44.9219C720.73 45.5854 719.065 49.0806 718.253 50.7452C717.8 49.7593 717.645 47.3241 717.624 46.2298C716.907 46.6558 714.709 50.8915 713.7 52.9561C713.764 52.0863 711.571 46.1817 710.466 43.3382C710.747 48.8821 708.755 51.7779 707.724 52.5328C707.779 51.7816 706.891 48.2843 706.44 46.6296C706.091 48.6317 704.473 51.2095 703.707 52.2482C702.17 48.96 702.317 44.5657 702.582 42.7796C700.498 44.778 699.172 48.0024 698.769 49.3648C698.201 48.8477 697.888 46.9179 697.802 46.0177L695.421 51.6612C695.676 47.0692 691.765 43.222 689.777 41.8724Z" fill="#70AE3E"/>
<path d="M554.824 35.4759C556.855 39.4667 555.956 45.7538 555.253 48.3984L602.037 50.1423C601.359 47.5069 603.36 42.8027 604.445 40.7801C601.992 40.6886 599.833 43.6469 599.061 45.1374L597.722 39.378L595.936 42.7179C595.812 40.8709 594.09 39.6104 593.244 39.211C593.173 41.0508 591.964 43.7374 591.369 44.8507L589.478 35.7121C589.211 37.5829 587.701 40.9396 586.979 42.3841C586.267 41.6282 585.379 38.758 585.025 37.4173C584.883 38.0645 583.389 41.4986 582.66 43.1347C582.189 42.1959 581.957 39.8459 581.901 38.7882C581.221 39.2235 579.237 43.3909 578.33 45.4202C578.363 44.577 576.045 38.9378 574.881 36.2236C575.338 41.5759 573.509 44.4409 572.537 45.2043C572.565 44.4761 571.589 41.1227 571.097 39.537C570.828 41.4845 569.348 44.0299 568.642 45.0591C567.047 41.929 567.041 37.6746 567.238 35.9387C565.289 37.9387 564.114 41.1 563.771 42.4306C563.204 41.9489 562.837 40.0928 562.724 39.2249L560.61 44.7597C560.703 40.3107 556.792 36.7168 554.824 35.4759Z" fill="#70AE3E"/>
<path d="M647.178 36.4955C648.902 40.6233 647.533 46.8276 646.633 49.4137L693.157 54.5629C692.679 51.8853 695.028 47.3399 696.263 45.4019C693.823 45.1319 691.448 47.9247 690.566 49.3548L689.664 43.5136L687.632 46.7143C687.647 44.8633 686.024 43.4806 685.21 43.0207C685.001 44.8503 683.594 47.4414 682.917 48.5083L681.719 39.2569C681.312 41.1032 679.553 44.3405 678.724 45.7284C678.071 44.9227 677.402 41.9956 677.149 40.6328C676.959 41.2679 675.211 44.5836 674.36 46.1621C673.961 45.1916 673.907 42.8312 673.93 41.7722C673.22 42.1568 670.928 46.1682 669.871 48.1258C669.966 47.2873 668.079 41.4945 667.123 38.703C667.176 44.074 665.136 46.7977 664.11 47.4882C664.192 46.764 663.471 43.3487 663.101 41.7316C662.685 43.6541 661.018 46.0846 660.237 47.0596C658.881 43.8217 659.196 39.5786 659.523 37.8618C657.429 39.7143 656.019 42.7812 655.576 44.0831C655.048 43.5614 654.821 41.6837 654.774 40.81L652.249 46.1755C652.676 41.7454 649.046 37.8763 647.178 36.4955Z" fill="#70AE3E"/>
<path d="M597.544 38.4073C600.104 42.2711 599.929 48.8301 599.521 51.6265L647.766 48.0285C646.756 45.4006 648.251 40.3399 649.125 38.1381C646.595 38.3268 644.731 41.6129 644.115 43.2323L642.056 37.4727L640.619 41.1079C640.272 39.2257 638.353 38.1298 637.437 37.8172C637.583 39.7144 636.662 42.6122 636.183 43.8239L633.155 34.6583C633.103 36.61 631.951 40.2305 631.382 41.7968C630.561 41.1028 629.308 38.2578 628.785 36.9221C628.716 37.603 627.59 41.3011 627.036 43.065C626.441 42.1554 625.924 39.769 625.74 38.6896C625.094 39.2148 623.552 43.7224 622.863 45.9105C622.796 45.041 619.745 39.5177 618.228 36.8647C619.333 42.3078 617.796 45.4602 616.888 46.3561C616.831 45.6051 615.43 42.2743 614.736 40.7028C614.691 42.7336 613.475 45.5175 612.872 46.6556C610.862 43.6254 610.35 39.2576 610.346 37.4525C608.582 39.7307 607.752 43.1119 607.557 44.5178C606.919 44.0884 606.321 42.2249 606.102 41.3468L604.589 47.2734C604.155 42.6944 599.712 39.4547 597.544 38.4073Z" fill="#70AE3E"/>
<path d="M575 114.555C577.183 118.467 576.526 124.783 575.926 127.452L622.743 127.452C621.964 124.844 623.783 120.068 624.789 118.007C622.334 118.007 620.291 121.043 619.577 122.562L618.018 116.856L616.361 120.26C616.166 118.419 614.396 117.224 613.536 116.856C613.536 118.697 612.431 121.427 611.879 122.562L609.638 113.5C609.443 115.379 608.063 118.79 607.397 120.26C606.657 119.532 605.66 116.696 605.254 115.37C605.137 116.022 603.776 119.509 603.11 121.171C602.603 120.251 602.282 117.911 602.184 116.856C601.522 117.316 599.7 121.555 598.872 123.616C598.872 122.773 596.338 117.224 595.072 114.555C595.734 119.886 594.016 122.817 593.074 123.616C593.074 122.888 591.97 119.573 591.418 118.007C591.223 119.963 589.843 122.562 589.177 123.616C587.462 120.548 587.293 116.297 587.423 114.555C585.552 116.626 584.5 119.829 584.208 121.171C583.623 120.711 583.185 118.87 583.038 118.007L581.138 123.616C581.06 119.167 577.014 115.721 575 114.555Z" fill="#5B9B40"/>
<path d="M358 144.555C360.183 148.467 359.526 154.783 358.926 157.452L405.743 157.452C404.964 154.844 406.783 150.068 407.789 148.007C405.334 148.007 403.291 151.043 402.577 152.562L401.018 146.856L399.361 150.26C399.166 148.419 397.396 147.224 396.536 146.856C396.536 148.697 395.431 151.427 394.879 152.562L392.638 143.5C392.443 145.379 391.063 148.79 390.397 150.26C389.657 149.532 388.66 146.696 388.254 145.37C388.137 146.022 386.776 149.509 386.11 151.171C385.603 150.251 385.282 147.911 385.184 146.856C384.522 147.316 382.7 151.555 381.872 153.616C381.872 152.773 379.338 147.224 378.072 144.555C378.734 149.886 377.016 152.817 376.074 153.616C376.074 152.888 374.97 149.573 374.418 148.007C374.223 149.963 372.843 152.562 372.177 153.616C370.462 150.548 370.293 146.297 370.423 144.555C368.552 146.626 367.5 149.829 367.208 151.171C366.623 150.711 366.185 148.87 366.038 148.007L364.138 153.616C364.06 149.167 360.014 145.721 358 144.555Z" fill="#5B9B40"/>
<path d="M468.834 65.8027C468.834 67.6438 467.729 70.3735 467.177 71.5082C466.66 72.9557 465.039 75.9603 462.695 76.3986L478.041 76.3986C477.262 73.7904 479.081 69.0151 480.087 66.9534C477.632 66.9534 475.589 69.9899 474.875 71.5082L473.316 65.8027L471.659 69.2068C471.464 67.3657 469.694 66.1703 468.834 65.8027Z" fill="#5B9B40"/>
<path d="M246.138 68.5C246.138 70.3411 245.034 73.0708 244.482 74.2055C243.965 75.653 242.344 78.6575 240 79.0959L255.346 79.0959C254.567 76.4877 256.385 71.7123 257.392 69.6507C254.937 69.6507 252.894 72.6872 252.179 74.2055L250.62 68.5L248.964 71.9041C248.769 70.063 246.999 68.8676 246.138 68.5Z" fill="#5B9B40"/>
<path d="M707.138 86.5C707.138 88.3411 706.034 91.0708 705.482 92.2055C704.965 93.653 703.344 96.6575 701 97.0959L716.346 97.0959C715.567 94.4877 717.385 89.7123 718.392 87.6507C715.937 87.6507 713.894 90.6872 713.179 92.2055L711.62 86.5L709.964 89.9041C709.769 88.063 707.999 86.8676 707.138 86.5Z" fill="#5B9B40"/>
<path d="M898.766 86.4453C898.766 88.2864 897.662 91.0161 897.109 92.1508C896.592 93.5983 894.971 96.6028 892.627 97.0412L907.973 97.0412C907.194 94.433 909.013 89.6576 910.02 87.596C907.564 87.596 905.521 90.6325 904.807 92.1508L903.248 86.4453L901.591 89.8494C901.397 88.0083 899.627 86.8129 898.766 86.4453Z" fill="#5B9B40"/>
<path d="M65.5142 79.5001C67.6967 83.4124 67.0406 89.7284 66.4398 92.3974L113.257 92.3974C112.478 89.7891 114.297 85.0138 115.304 82.9522C112.848 82.9522 110.805 85.9887 110.091 87.507L108.532 81.8015L106.875 85.2056C106.681 83.3645 104.91 82.1691 104.05 81.8015C104.05 83.6426 102.946 86.3723 102.393 87.507L100.152 78.4453C99.9575 80.3248 98.5772 83.7353 97.9114 85.2056C97.1709 84.4768 96.1738 81.6417 95.7678 80.3152C95.6509 80.9672 94.29 84.4544 93.6242 86.1165C93.1176 85.196 92.796 82.8563 92.6986 81.8015C92.036 82.2618 90.214 86.5001 89.3858 88.5618C89.3858 87.7179 86.8525 82.1691 85.5858 79.5001C86.2484 84.8316 84.5303 87.7627 83.5884 88.5618C83.5884 87.833 82.4841 84.5184 81.932 82.9522C81.7371 84.9083 80.3568 87.507 79.691 88.5618C77.9761 85.4933 77.8072 81.2421 77.9371 79.5001C76.0664 81.5713 75.0141 84.7741 74.7218 86.1165C74.1372 85.6563 73.6987 83.8152 73.5526 82.9522L71.6526 88.5618C71.5746 84.1124 67.5278 80.6668 65.5142 79.5001Z" fill="#5B9B40"/>
</g>
<rect y="157.5" width="901" height="33" fill="#70AE3E"/>
</svg>
