<svg width="58" height="218" viewBox="0 0 58 218" fill="none" xmlns="http://www.w3.org/2000/svg">
<mask id="mask0_485_4292" style="mask-type:alpha" maskUnits="userSpaceOnUse" x="0" y="0" width="58" height="218">
<rect width="58" height="217.6" fill="#D9D9D9"/>
</mask>
<g mask="url(#mask0_485_4292)">
<rect x="49.8677" y="154.686" width="18.1337" height="62.3199" fill="#5C4636"/>
<path d="M81.0893 162.801C70.4681 166.436 62.2 159.555 59.3936 155.66C55.8317 159.988 45.9877 167.475 35.1074 162.801C24.2272 158.127 23.4501 146.355 24.4215 141.054C22.0469 141.811 15.2899 141.184 7.25929 132.615C-0.771339 124.046 5.85614 113.464 10.1737 109.245C7.36733 108.163 1.43074 103.402 0.13548 93.0157C-1.15978 82.6291 7.15145 76.3538 11.469 74.5145C10.0658 72.8916 7.84224 67.5685 10.1737 59.2591C12.5052 50.9497 19.9962 48.656 23.4502 48.5479C22.047 46.384 20.0825 40.1088 23.4502 32.3187C26.8179 24.5287 36.2948 22.3648 40.6123 22.2567C40.1806 14.0339 43.3324 -1.89229 59.3936 0.185038C75.4549 2.26237 77.9591 15.765 77.2035 22.2567C81.7369 22.9058 91.5809 25.8271 94.6895 32.3187C97.7982 38.8104 95.9848 45.843 94.6895 48.5479C98.2515 48.8724 105.764 51.4691 107.318 59.2591C108.873 67.0491 106.671 72.6752 105.375 74.5145C112.176 77.1111 117.033 81.3307 117.357 93.0157C117.616 102.364 110.772 106.865 107.318 107.946C110.88 113.464 116.061 118.333 111.852 129.694C108.484 138.782 97.4959 141.054 92.4228 141.054C93.7181 145.598 94.3657 158.257 81.0893 162.801Z" fill="#70AE3E"/>
</g>
</svg>
